<?xml version="1.0" encoding="iso-8859-1"?>
<!-- Generator: Adobe Illustrator 19.0.0, SVG Export Plug-In . SVG Version: 6.00 Build 0)  -->
<svg version="1.1" id="Capa_1" xmlns="http://www.w3.org/2000/svg" xmlns:xlink="http://www.w3.org/1999/xlink" x="0px" y="0px"
	 viewBox="0 0 512 512" style="enable-background:new 0 0 512 512;" xml:space="preserve">
<path style="fill:#DE513C;" d="M325.729,104.045H59.135c-8.284,0-15,6.716-15,15V497c0,8.284,6.716,15,15,15h266.594
	c8.284,0,15-6.716,15-15V119.045C340.729,110.761,334.013,104.045,325.729,104.045z"/>
<path style="fill:#FC6249;" d="M192.432,104.045H59.135c-8.284,0-15,6.716-15,15V497c0,8.284,6.716,15,15,15h133.297
	L192.432,104.045L192.432,104.045z"/>
<path style="fill:#FFCB47;" d="M452.865,0H186.271c-8.284,0-15,6.716-15,15v377.955c0,8.284,6.716,15,15,15h266.594
	c8.284,0,15-6.716,15-15V15C467.865,6.716,461.149,0,452.865,0z"/>
<path style="fill:#FFE369;" d="M319.568,0H186.271c-8.284,0-15,6.716-15,15v377.955c0,8.284,6.716,15,15,15h133.297V0z"/>
<g>
</g>
<g>
</g>
<g>
</g>
<g>
</g>
<g>
</g>
<g>
</g>
<g>
</g>
<g>
</g>
<g>
</g>
<g>
</g>
<g>
</g>
<g>
</g>
<g>
</g>
<g>
</g>
<g>
</g>
</svg>
