<?xml version="1.0" encoding="iso-8859-1"?>
<!-- Generator: Adobe Illustrator 23.0.1, SVG Export Plug-In . SVG Version: 6.00 Build 0)  -->
<svg version="1.1" xmlns="http://www.w3.org/2000/svg" xmlns:xlink="http://www.w3.org/1999/xlink" x="0px" y="0px"
	 viewBox="0 0 595.276 841.89" style="enable-background:new 0 0 595.276 841.89;" xml:space="preserve">
<g id="Grade" style="display:none;">
</g>
<g id="HQFL">
</g>
<g id="&#xC1;rea_de_trabalho">
</g>
<g id="Linhas-guia">
</g>
<g id="Page_1">
	<g id="HQFL_1_">
		<g>
			<polygon style="fill-rule:evenodd;clip-rule:evenodd;fill:#2E3192;" points="577.022,157.253 577.022,366.762 297.638,684.637 
				18.253,366.762 18.253,157.253 577.022,157.253 			"/>
			<polygon style="fill-rule:evenodd;clip-rule:evenodd;fill:#FFFFFF;" points="565.044,169.231 30.232,169.231 30.232,362.266 
				297.638,666.505 565.044,362.266 565.044,169.231 			"/>
			<polygon style="fill-rule:evenodd;clip-rule:evenodd;fill:#2E3192;" points="50.063,183.066 545.213,183.066 545.213,330.969 
				50.063,330.969 50.063,183.066 			"/>
			<polygon style="fill-rule:evenodd;clip-rule:evenodd;fill:#ED1C24;" points="50.063,352.318 256.629,352.318 256.629,585.61 
				50.063,352.318 			"/>
			<polygon style="fill-rule:evenodd;clip-rule:evenodd;fill:#2E3192;" points="545.213,352.318 338.647,352.318 338.647,585.61 
				545.213,352.318 			"/>
			<path style="fill-rule:evenodd;clip-rule:evenodd;fill:#FFFFFF;" d="M137.099,290.737l-33.763,0.016l-4.645,15.818H68.41
				L104.45,210.7h32.301l36.041,95.871h-30.996L137.099,290.737L137.099,290.737z M130.886,270.008l-10.616-34.457l-10.528,34.476
				L130.886,270.008L130.886,270.008z M314.02,290.737l-33.762,0.016l-4.645,15.818H245.33l36.042-95.871h32.296l36.041,95.871
				h-30.992L314.02,290.737L314.02,290.737z M307.807,270.008l-10.616-34.457l-10.528,34.476L307.807,270.008L307.807,270.008z
				 M490.941,290.737l-33.763,0.016l-4.645,15.818h-30.282l36.042-95.871h32.296l36.045,95.871h-30.996L490.941,290.737
				L490.941,290.737z M484.728,270.008l-10.616-34.457l-10.528,34.476L484.728,270.008L484.728,270.008z"/>
		</g>
	</g>
</g>
</svg>
