<?xml version="1.0" encoding="iso-8859-1"?>
<!-- Generator: Adobe Illustrator 23.0.1, SVG Export Plug-In . SVG Version: 6.00 Build 0)  -->
<svg version="1.1" xmlns="http://www.w3.org/2000/svg" xmlns:xlink="http://www.w3.org/1999/xlink" x="0px" y="0px"
	 viewBox="0 0 595.276 841.89" style="enable-background:new 0 0 595.276 841.89;" xml:space="preserve">
<g id="Grade" style="display:none;">
</g>
<g id="HQFL">
</g>
<g id="&#xC1;rea_de_trabalho">
</g>
<g id="Linhas-guia">
</g>
<g id="Page_1">
	<g id="HQFL_1_">
		<g>
			<path style="fill-rule:evenodd;clip-rule:evenodd;fill:#328D4E;" d="M297.555,116.838c-2.33-0.031-61.28-0.635-90.968,10.14
				l-3.25,1.181l-0.838,3.351c-10.264,41.069-33.43,56.456-77.46,51.451l-3.221-0.365l-25.515,26.937l3.316,4.389
				c32.313,42.783,40.48,109.265-33.506,167.562l-2.475,1.949v3.154c0,244.28,229.322,336.651,231.639,337.552l2.361,0.927
				l2.361-0.927c2.316-0.901,231.638-93.273,231.638-337.552v-3.154l-2.475-1.949c-73.995-58.29-65.819-124.779-33.503-167.562
				l3.32-4.389l-25.517-26.937l-3.225,0.365c-44.027,5.005-67.197-10.382-77.461-51.448l-0.838-3.355l-3.25-1.181
				C359.007,116.203,300.05,116.807,297.555,116.838L297.555,116.838z"/>
			<path style="fill-rule:evenodd;clip-rule:evenodd;fill:#FFFFFF;" d="M121.23,337.273l337.841-58.57
				c0.299-23.194,8.1-46.296,23.181-67.92c-4.101-4.335-11.279-11.908-13.927-14.701c-46.421,4.228-74.928-14.714-87.007-57.731
				c-28.412-9.008-83.04-8.519-83.764-8.513c-0.565-0.006-55.18-0.495-83.599,8.513c-12.073,43.017-40.587,61.959-87.007,57.731
				c-2.647,2.793-9.82,10.366-13.92,14.701c15.374,22.046,23.232,45.634,23.232,69.291
				C136.262,299.435,131.18,318.782,121.23,337.273L121.23,337.273z"/>
			<path style="fill-rule:evenodd;clip-rule:evenodd;fill:#FFFFFF;" d="M459.35,286.904
				c-84.259,14.607-241.166,41.806-343.57,59.561c-9.67,15.183-22.671,29.675-38.978,42.954c0.07,9.166,0.524,18.072,1.251,26.787
				c94.977-16.466,305.024-52.876,401.572-69.614C467.419,327.479,460.607,307.262,459.35,286.904L459.35,286.904z"/>
			<path style="fill-rule:evenodd;clip-rule:evenodd;fill:#FFFFFF;" d="M235.282,675.581c30.504,21.087,55.272,32.411,62.356,35.458
				c9.737-4.189,52.85-23.943,98.427-63.324L235.282,675.581L235.282,675.581z"/>
			<path style="fill-rule:evenodd;clip-rule:evenodd;fill:#FFFFFF;" d="M163.207,612.282c11.474,12.835,23.302,24.362,35.001,34.544
				l240.037-41.615c11.825-13.914,23.105-29.39,33.318-46.376L163.207,612.282L163.207,612.282z"/>
			<path style="fill-rule:evenodd;clip-rule:evenodd;fill:#FFFFFF;" d="M114.108,541.747c7.43,14.181,15.653,27.384,24.397,39.635
				l352.926-61.179c6.322-14.6,11.737-30.152,16.06-46.643L114.108,541.747L114.108,541.747z"/>
			<path style="fill-rule:evenodd;clip-rule:evenodd;fill:#FFFFFF;" d="M86.944,470.384c3.396,13.549,7.519,26.486,12.305,38.749
				l415.555-72.036c1.93-13.279,3.136-27.098,3.51-41.495L86.944,470.384L86.944,470.384z"/>
			<path style="fill-rule:evenodd;clip-rule:evenodd;fill:#FFFFFF;" d="M78.802,424.325c0.435,4.05,0.924,8.067,1.485,12.023
				l412.787-71.557c-3.04-3.548-5.84-7.16-8.474-10.816L78.802,424.325L78.802,424.325z"/>
			<path style="fill-rule:evenodd;clip-rule:evenodd;fill:#328D4E;" d="M121.617,383.421l1.784-15.374l7.087,13.838L121.617,383.421
				L121.617,383.421z M125.363,358.239l-7.144,1.238l-5.538,41.57l7.033-1.219l1.085-9.362l12.94-2.241l4.317,8.424l7.049-1.219
				L125.363,358.239L125.363,358.239z"/>
			<polygon style="fill-rule:evenodd;clip-rule:evenodd;fill:#328D4E;" points="148.506,394.84 147.205,387.337 153.409,386.258 
				154.711,393.768 148.506,394.84 			"/>
			<path style="fill-rule:evenodd;clip-rule:evenodd;fill:#328D4E;" d="M166.807,375.581l1.784-15.374l7.087,13.838L166.807,375.581
				L166.807,375.581z M170.551,350.4l-7.144,1.237l-5.539,41.571l7.033-1.219l1.085-9.363l12.939-2.24l4.317,8.423l7.049-1.219
				L170.551,350.4L170.551,350.4z"/>
			<polygon style="fill-rule:evenodd;clip-rule:evenodd;fill:#328D4E;" points="193.67,387.007 192.369,379.504 198.574,378.425 
				199.874,385.935 193.67,387.007 			"/>
			<polygon style="fill-rule:evenodd;clip-rule:evenodd;fill:#328D4E;" points="206.958,384.703 200.125,345.272 222.24,341.443 
				223.402,348.147 207.793,350.851 209.406,360.156 222.913,357.814 224.075,364.523 210.567,366.859 213.462,383.573 
				206.958,384.703 			"/>
			<path style="fill-rule:evenodd;clip-rule:evenodd;fill:#328D4E;" d="M235.383,346.071l5.113-0.883
				c2.923-0.508,4.707-0.717,5.351-0.622c0.908,0.134,1.679,0.546,2.317,1.219c0.632,0.673,1.06,1.638,1.276,2.894
				c0.228,1.308,0.159,2.399-0.207,3.275c-0.368,0.876-0.929,1.518-1.691,1.917c-0.762,0.4-2.625,0.857-5.583,1.371l-4.84,0.838
				L235.383,346.071L235.383,346.071z M241.055,378.8l-2.844-16.415l1.308-0.228c1.466-0.254,2.558-0.286,3.272-0.108
				c0.714,0.185,1.435,0.616,2.164,1.295c0.73,0.68,2.2,2.419,4.412,5.212l6.141,7.737l7.966-1.384l-5.256-7.001
				c-2.108-2.813-3.726-4.723-4.856-5.751c-1.13-1.022-2.485-1.911-4.072-2.666c2.688-0.965,4.618-2.52,5.798-4.666
				c1.174-2.146,1.498-4.766,0.958-7.858c-0.419-2.443-1.269-4.456-2.539-6.036c-1.269-1.587-2.723-2.603-4.348-3.054
				c-1.631-0.45-4.199-0.368-7.712,0.241l-13.733,2.381l6.837,39.425L241.055,378.8L241.055,378.8z"/>
			<path style="fill-rule:evenodd;clip-rule:evenodd;fill:#328D4E;" d="M273.079,357.167l1.777-15.374l7.09,13.838L273.079,357.167
				L273.079,357.167z M276.818,331.985l-7.141,1.238l-5.541,41.57l7.033-1.219l1.092-9.362l12.937-2.241l4.316,8.424l7.046-1.219
				L276.818,331.985L276.818,331.985z"/>
			<polygon style="fill-rule:evenodd;clip-rule:evenodd;fill:#328D4E;" points="300.094,368.561 293.258,329.136 299.625,328.031 
				317.335,352.082 312.77,325.752 318.87,324.692 325.707,364.124 319.124,365.26 301.738,341.793 306.194,367.501 
				300.094,368.561 			"/>
			<path style="fill-rule:evenodd;clip-rule:evenodd;fill:#328D4E;" d="M350.202,344.82l6.723,1.308
				c-0.216,4.615-1.289,8.145-3.225,10.595c-1.942,2.443-4.583,3.954-7.928,4.538c-4.209,0.73-7.904-0.298-11.077-3.078
				c-3.656-3.212-6.03-7.992-7.128-14.333c-1.162-6.703-0.558-12.207,1.809-16.517c2.057-3.745,5.306-5.999,9.744-6.773
				c3.611-0.622,6.848,0.089,9.711,2.133c2.045,1.454,3.765,3.834,5.168,7.142l-6.075,3.015c-0.78-2.057-1.886-3.548-3.313-4.475
				c-1.428-0.921-2.976-1.238-4.641-0.952c-2.387,0.419-4.157,1.79-5.307,4.119c-1.148,2.33-1.306,5.872-0.482,10.639
				c0.857,4.939,2.203,8.328,4.031,10.157c1.834,1.835,3.923,2.546,6.271,2.14c1.721-0.299,3.092-1.232,4.113-2.793
				C349.618,350.127,350.151,347.836,350.202,344.82L350.202,344.82z"/>
			<path style="fill-rule:evenodd;clip-rule:evenodd;fill:#328D4E;" d="M370.357,340.301l1.777-15.374l7.09,13.838L370.357,340.301
				L370.357,340.301z M374.095,315.12l-7.14,1.237l-5.535,41.571l7.027-1.219l1.092-9.363l12.935-2.24l4.317,8.423l7.047-1.219
				L374.095,315.12L374.095,315.12z"/>
			<polygon style="fill-rule:evenodd;clip-rule:evenodd;fill:#328D4E;" points="397.41,351.688 390.573,312.264 396.94,311.159 
				414.65,335.21 410.087,308.88 416.186,307.82 423.023,347.252 416.44,348.388 399.054,324.921 403.511,350.629 397.41,351.688 
							"/>
			<path style="fill-rule:evenodd;clip-rule:evenodd;fill:#328D4E;" d="M435.489,329.009l1.784-15.374l7.091,13.838L435.489,329.009
				L435.489,329.009z M439.235,303.827l-7.142,1.238l-5.535,41.57l7.027-1.219l1.092-9.362l12.937-2.241l4.316,8.424l7.045-1.219
				L439.235,303.827L439.235,303.827z"/>
			<path style="fill-rule:evenodd;clip-rule:evenodd;fill:#328D4E;" d="M224.132,306.239c2.653-9.667,8.699-31.662,14.873-54.12
				h9.664l-13.235,52.165l7.015-1.219c1.418-5.592,4.31-16.992,7.874-31.04h35.185c2.279,10.385,4.107,18.675,4.995,22.712
				l6.411-1.11l-4.748-21.601h21.315v18.725l6.5-1.123c0-3.663,0-9.922,0-17.603h31.84c1.485,5.091,2.64,9.058,3.357,11.502
				l6.443-1.117l-8.836-30.291h12.289v-6.5h-14.188l-16.82-57.687c8.88,0,18.414,0,18.414,0v-6.5h-20.313l-5.687-19.5h-2.438
				h-52.495l-4.945,19.5h-14.914l-34.64,126.039L224.132,306.239L224.132,306.239z M251.973,265.525
				c1.092-4.316,2.241-8.826,3.402-13.406h25.746c1.016,4.608,2.006,9.118,2.952,13.406H251.973L251.973,265.525z M349.923,265.525
				h-29.942c0-4.243,0-8.753,0-13.406h26.031C347.409,256.912,348.73,261.435,349.923,265.525L349.923,265.525z M327.294,187.932
				c4.576,15.688,11.121,38.14,16.828,57.687h-24.141c0-26.384,0-54.523,0-57.687C321.315,187.932,324.006,187.932,327.294,187.932
				L327.294,187.932z M276.602,168.432c4.323,0,40.828,0,45.005,0c0.248,0.857,1.676,5.751,3.789,13h-11.914v84.094h-22.749
				l-18.008-81.809C274.913,175.094,276.373,169.346,276.602,168.432L276.602,168.432z M269.162,197.771
				c2.431,11.039,6.526,29.647,10.531,47.849h-22.674C261.241,228.976,265.614,211.758,269.162,197.771L269.162,197.771z
				 M256.645,187.932c2.209,0,5.554,0,8.309,0l-14.638,57.687h-9.525C248.573,217.293,256.055,190.084,256.645,187.932
				L256.645,187.932z"/>
		</g>
	</g>
</g>
</svg>
