<?xml version="1.0" encoding="iso-8859-1"?>
<!-- Generator: Adobe Illustrator 23.0.1, SVG Export Plug-In . SVG Version: 6.00 Build 0)  -->
<svg version="1.1" xmlns="http://www.w3.org/2000/svg" xmlns:xlink="http://www.w3.org/1999/xlink" x="0px" y="0px"
	 viewBox="0 0 595.276 841.89" style="enable-background:new 0 0 595.276 841.89;" xml:space="preserve">
<g id="Grade" style="display:none;">
</g>
<g id="HQFL">
</g>
<g id="&#xC1;rea_de_trabalho">
</g>
<g id="Linhas-guia">
</g>
<g id="Page_1">
	<g id="HQFL_1_">
		<g>
			<polygon style="fill-rule:evenodd;clip-rule:evenodd;fill:#ED1C24;" points="19.484,149.133 575.792,149.133 575.792,300.814 
				297.638,692.757 19.484,300.814 19.484,149.133 			"/>
			<polygon style="fill-rule:evenodd;clip-rule:evenodd;fill:#FFFFFF;" points="30.971,160.617 30.971,297.21 297.638,672.967 
				564.305,297.21 564.305,160.617 30.971,160.617 			"/>
			<polygon style="fill-rule:evenodd;clip-rule:evenodd;fill:#EE3529;" points="50.22,289.098 233.635,289.129 233.635,547.775 
				50.22,289.098 			"/>
			<polygon style="fill-rule:evenodd;clip-rule:evenodd;fill:#EE3529;" points="543.031,289.098 361.634,289.129 361.634,547.775 
				543.031,289.098 			"/>
			<path style="fill-rule:evenodd;clip-rule:evenodd;fill:#EE3529;" d="M111.267,192.604H94.154l-31.19,71.919h17.16l6.6-16.333
				h32.033l6.992,16.333h17.592L111.267,192.604L111.267,192.604z M91.697,236.076l10.832-26.695l11.039,26.683L91.697,236.076
				L91.697,236.076z"/>
			<path style="fill-rule:evenodd;clip-rule:evenodd;fill:#EE3529;" d="M313.919,192.604h-17.112l-31.19,71.919h17.159l6.599-16.333
				h32.034l6.992,16.333h17.595L313.919,192.604L313.919,192.604z M294.348,236.076l10.832-26.695l11.035,26.683L294.348,236.076
				L294.348,236.076z"/>
			<polygon style="fill-rule:evenodd;clip-rule:evenodd;fill:#EE3529;" points="476.512,264.523 476.512,192.604 531.429,192.604 
				531.429,204.771 492.682,204.771 492.682,221.795 526.137,221.795 526.137,233.961 492.682,233.961 492.682,264.523 
				476.512,264.523 			"/>
			<path style="fill-rule:evenodd;clip-rule:evenodd;fill:#EE3529;" d="M267.716,330.329l15.731-1.36
				c0.945,4.742,2.881,8.228,5.759,10.448c2.896,2.22,6.819,3.339,11.734,3.339c5.205,0,9.131-0.989,11.762-2.961
				c2.649-1.986,3.972-4.31,3.972-6.962c0-1.694-0.553-3.147-1.659-4.334c-1.103-1.187-3.066-2.231-5.83-3.116
				c-1.889-0.574-6.207-1.632-12.955-3.135c-8.665-1.935-14.757-4.309-18.247-7.115c-4.916-3.957-7.373-8.785-7.373-14.473
				c0-3.66,1.166-7.092,3.463-10.276c2.312-3.184,5.653-5.626,10.002-7.283c4.346-1.675,9.611-2.51,15.777-2.51
				c10.044,0,17.62,1.984,22.696,5.93c5.072,3.956,7.749,9.254,8.009,15.857l-16.182,0.631c-0.683-3.686-2.179-6.35-4.448-7.963
				c-2.269-1.62-5.7-2.43-10.25-2.43c-4.695,0-8.39,0.871-11.035,2.596c-1.716,1.113-2.575,2.609-2.575,4.464
				c0,1.7,0.815,3.159,2.414,4.359c2.037,1.539,6.995,3.146,14.859,4.805c7.867,1.675,13.697,3.412,17.462,5.187
				c3.766,1.774,6.732,4.228,8.856,7.308c2.124,3.078,3.199,6.918,3.199,11.462c0,4.111-1.282,7.976-3.827,11.567
				c-2.556,3.604-6.179,6.282-10.828,8.031c-4.655,1.742-10.485,2.621-17.434,2.621c-10.12,0-17.9-2.102-23.323-6.307
				c-5.424-4.203-8.68-10.324-9.727-18.367V330.329L267.716,330.329z"/>
			<path style="fill-rule:evenodd;clip-rule:evenodd;fill:#EE3529;" d="M268.346,416.374l15.734-1.354
				c0.942,4.735,2.878,8.223,5.755,10.441c2.896,2.22,6.82,3.346,11.734,3.346c5.206,0,9.132-0.996,11.763-2.969
				c2.648-1.985,3.972-4.309,3.972-6.955c0-1.699-0.552-3.146-1.66-4.334c-1.104-1.192-3.067-2.237-5.83-3.121
				c-1.889-0.575-6.207-1.633-12.955-3.135c-8.664-1.929-14.757-4.308-18.247-7.115c-4.915-3.951-7.372-8.785-7.372-14.474
				c0-3.653,1.165-7.091,3.462-10.274c2.312-3.185,5.657-5.627,10.003-7.283c4.345-1.67,9.61-2.51,15.777-2.51
				c10.047,0,17.623,1.985,22.695,5.928c5.073,3.957,7.75,9.256,8.01,15.865l-16.18,0.623c-0.683-3.678-2.182-6.342-4.451-7.963
				c-2.269-1.619-5.7-2.43-10.25-2.43c-4.695,0-8.39,0.879-11.035,2.598c-1.717,1.112-2.572,2.615-2.572,4.463
				c0,1.701,0.812,3.166,2.411,4.365c2.037,1.539,6.995,3.141,14.859,4.804c7.867,1.669,13.696,3.406,17.462,5.181
				c3.765,1.774,6.733,4.229,8.857,7.308c2.123,3.085,3.199,6.918,3.199,11.462c0,4.111-1.28,7.982-3.827,11.567
				c-2.557,3.605-6.179,6.281-10.828,8.03c-4.652,1.75-10.485,2.622-17.434,2.622c-10.12,0-17.897-2.103-23.323-6.3
				c-5.422-4.204-8.68-10.331-9.727-18.374V416.374L268.346,416.374z"/>
			<path style="fill-rule:evenodd;clip-rule:evenodd;fill:#EE3529;" d="M266.704,586.693l15.735-1.354
				c0.945,4.736,2.878,8.223,5.755,10.442c2.896,2.22,6.822,3.345,11.734,3.345c5.205,0,9.131-0.995,11.765-2.968
				c2.646-1.984,3.969-4.303,3.969-6.955c0-1.7-0.553-3.146-1.656-4.334c-1.106-1.187-3.069-2.231-5.833-3.122
				c-1.889-0.575-6.207-1.632-12.955-3.128c-8.665-1.936-14.757-4.31-18.248-7.116c-4.914-3.956-7.372-8.785-7.372-14.479
				c0-3.654,1.165-7.092,3.462-10.275c2.313-3.184,5.657-5.626,10.004-7.283c4.348-1.669,9.609-2.504,15.776-2.504
				c10.047,0,17.62,1.985,22.696,5.923c5.072,3.957,7.749,9.262,8.009,15.864l-16.18,0.624c-0.685-3.678-2.182-6.343-4.451-7.963
				c-2.268-1.619-5.7-2.43-10.25-2.43c-4.695,0-8.39,0.878-11.036,2.604c-1.715,1.107-2.574,2.608-2.574,4.463
				c0,1.695,0.816,3.159,2.414,4.359c2.037,1.539,6.995,3.146,14.859,4.804c7.867,1.669,13.697,3.406,17.462,5.181
				c3.766,1.775,6.733,4.228,8.857,7.313c2.124,3.079,3.199,6.918,3.199,11.462c0,4.111-1.283,7.976-3.824,11.562
				c-2.559,3.603-6.182,6.281-10.831,8.03c-4.655,1.75-10.485,2.628-17.434,2.628c-10.12,0-17.897-2.103-23.322-6.307
				c-5.422-4.203-8.68-10.33-9.728-18.367V586.693L266.704,586.693z"/>
			<polygon style="fill-rule:evenodd;clip-rule:evenodd;fill:#EE3529;" points="292.274,525.833 292.274,453.913 308.444,453.913 
				308.444,525.833 292.274,525.833 			"/>
		</g>
	</g>
</g>
</svg>
