<?xml version="1.0" encoding="iso-8859-1"?>
<!-- Generator: Adobe Illustrator 23.0.1, SVG Export Plug-In . SVG Version: 6.00 Build 0)  -->
<svg version="1.1" xmlns="http://www.w3.org/2000/svg" xmlns:xlink="http://www.w3.org/1999/xlink" x="0px" y="0px"
	 viewBox="0 0 595.276 841.89" style="enable-background:new 0 0 595.276 841.89;" xml:space="preserve">
<g id="Grade" style="display:none;">
</g>
<g id="HQFL">
</g>
<g id="&#xC1;rea_de_trabalho">
</g>
<g id="Linhas-guia">
</g>
<g id="Page_1">
	<g id="HQFL_1_">
		<g>
			<polygon style="fill-rule:evenodd;clip-rule:evenodd;fill:#FFDF1C;" points="297.641,105.338 307.372,134.547 338.198,134.547 
				313.391,153.091 322.688,182.466 297.641,164.525 272.582,182.466 281.884,153.091 257.077,134.547 287.897,134.547 
				297.641,105.338 			"/>
			<polygon style="fill-rule:evenodd;clip-rule:evenodd;" points="416.221,147.825 425.952,177.035 456.778,177.035 
				431.971,195.577 441.267,224.951 416.221,207.01 391.16,224.951 400.464,195.577 375.656,177.035 406.476,177.035 
				416.221,147.825 			"/>
			<polygon style="fill-rule:evenodd;clip-rule:evenodd;" points="179.062,147.825 188.793,177.035 219.619,177.035 
				194.812,195.577 204.109,224.951 179.062,207.01 154.001,224.951 163.305,195.577 138.497,177.035 169.317,177.035 
				179.062,147.825 			"/>
			<path style="fill-rule:evenodd;clip-rule:evenodd;" d="M294.917,246.601c-0.711,0.429-71.707,42.454-137.22,3.478l-3.585-2.133
				l-68.933,71.847l4.382,3.608c0.312,0.258,31.327,26.353,31.327,74.69c0,28.406-10.104,52.983-19.875,76.745
				c-9.585,23.317-19.5,47.428-19.5,74.628c0,61.489,45.753,109.635,113.849,119.82c59.577,8.907,93.211,40.571,97.224,54.797
				l5.052,12.472l5.051-12.472c4.013-14.226,37.649-45.89,97.224-54.797c68.097-10.185,113.85-58.331,113.85-119.82
				c0-27.2-9.912-51.31-19.5-74.628c-9.772-23.762-19.875-48.339-19.875-76.745c0-48.337,31.014-74.432,31.329-74.69l4.372-3.601
				l-68.928-71.854l-3.582,2.133c-65.515,38.976-136.51-3.049-137.221-3.478l-2.717-1.644L294.917,246.601L294.917,246.601z"/>
			<path style="fill-rule:evenodd;clip-rule:evenodd;fill:#FFFFFF;" d="M92.013,549.463c0,15.668,3.134,30.27,8.979,43.415
				l325.937-325.942c-59.055,25.007-116.234-2.639-129.291-9.807c-13.956,7.663-78.321,38.731-141.506,3.876
				c-4.585,4.78-49.572,51.668-55.781,58.14c9.323,9.433,31.037,35.998,31.037,78.945c0,30.482-10.505,56.032-20.663,80.737
				C101.101,502.234,92.013,524.341,92.013,549.463L92.013,549.463z"/>
			<path style="fill-rule:evenodd;clip-rule:evenodd;fill:#FFFFFF;" d="M484.552,478.827
				c-10.161-24.705-20.665-50.255-20.665-80.737c0-26.51,8.275-46.755,16.799-60.604l-313.851,313.86
				c9.338,3.391,19.381,5.954,30.078,7.554c53.137,7.943,87.866,33.011,100.724,52.439c12.858-19.428,47.585-44.495,100.724-52.439
				c63.725-9.529,104.9-52.486,104.9-109.437C503.263,524.341,494.175,502.234,484.552,478.827L484.552,478.827z"/>
			<path style="fill-rule:evenodd;clip-rule:evenodd;fill:#FFFFFF;" d="M148.92,618.711c-3.515-3.958-8.951-10.432-16.307-19.428
				c7.596,6.645,13.995,12.161,19.193,16.543L148.92,618.711L148.92,618.711z M116.817,596.214l38.264,46.812l8.643-8.648
				l-7.195-8.114l3.06-3.063l8.119,7.198l8.487-8.49l-47.351-37.721L116.817,596.214L116.817,596.214z"/>
			<polygon style="fill-rule:evenodd;clip-rule:evenodd;fill:#FFFFFF;" points="175.176,605.6 183.837,614.261 177.806,620.297 
				169.143,611.636 175.176,605.6 			"/>
			<path style="fill-rule:evenodd;clip-rule:evenodd;fill:#FFFFFF;" d="M190.085,577.545c-3.515-3.958-8.952-10.432-16.307-19.428
				c7.597,6.645,13.995,12.161,19.193,16.543L190.085,577.545L190.085,577.545z M157.982,555.048l38.263,46.812l8.643-8.647
				l-7.195-8.114l3.059-3.063l8.119,7.198l8.487-8.49l-47.351-37.721L157.982,555.048L157.982,555.048z"/>
			<polygon style="fill-rule:evenodd;clip-rule:evenodd;fill:#FFFFFF;" points="216.246,564.537 224.907,573.198 218.876,579.234 
				210.213,570.573 216.246,564.537 			"/>
			<polygon style="fill-rule:evenodd;clip-rule:evenodd;fill:#FFFFFF;" points="202.993,510.033 245.529,552.573 237.177,560.927 
				194.639,518.387 202.993,510.033 			"/>
			<polygon style="fill-rule:evenodd;clip-rule:evenodd;fill:#FFFFFF;" points="224.897,488.131 267.433,530.671 260.165,537.938 
				236.495,522.933 255.833,542.272 248.872,549.231 206.335,506.698 213.296,499.732 237.09,514.245 217.936,495.09 
				224.897,488.131 			"/>
			<polygon style="fill-rule:evenodd;clip-rule:evenodd;fill:#FFFFFF;" points="245.094,467.938 253.601,476.442 248.652,481.391 
				282.681,515.42 274.329,523.774 240.298,489.744 235.349,494.694 226.842,486.19 245.094,467.938 			"/>
			<polygon style="fill-rule:evenodd;clip-rule:evenodd;fill:#FFFFFF;" points="247.218,465.812 261.062,451.969 269.57,460.473 
				264.078,465.969 272.121,474.008 277.226,468.902 285.347,477.023 280.24,482.129 289.599,491.487 295.632,485.458 
				304.139,493.962 289.756,508.345 247.218,465.812 			"/>
			<path style="fill-rule:evenodd;clip-rule:evenodd;fill:#FFFFFF;" d="M282.387,446.437c0.776,0.063,1.839,0.767,3.182,2.114
				l2.334,2.331c1.87,1.866,2.789,3.158,2.765,3.862c-0.024,0.704-0.495,1.518-1.415,2.44l-9.434-9.44
				C280.753,446.815,281.611,446.375,282.387,446.437L282.387,446.437z M306.733,491.365l8.354-8.354l-19.182-19.175
				c1.121-1.121,2.088-1.545,2.895-1.265c0.806,0.28,2.348,1.559,4.625,3.835l14.137,14.13l7.734-7.731l-11.229-11.225
				c-3.434-3.438-5.602-5.469-6.504-6.091c-0.906-0.622-2.092-1.107-3.565-1.456c-1.471-0.349-3.313,0.034-5.52,1.155
				c1.596-2.051,2.136-3.951,1.62-5.715c-0.516-1.757-2.426-4.291-5.735-7.599c-3.623-3.623-6.699-5.824-9.228-6.608
				c-2.526-0.779-4.686-0.677-6.48,0.312c-1.791,0.987-4.653,3.445-8.586,7.379l-5.872,5.874L306.733,491.365L306.733,491.365z"/>
			<polygon style="fill-rule:evenodd;clip-rule:evenodd;fill:#FFFFFF;" points="304.61,408.422 347.147,450.957 339.877,458.231 
				316.211,443.221 335.546,462.558 328.587,469.517 286.051,426.982 293.01,420.023 316.802,434.536 297.652,415.381 
				304.61,408.422 			"/>
			<path style="fill-rule:evenodd;clip-rule:evenodd;fill:#FFFFFF;" d="M342.228,425.403c-3.517-3.961-8.952-10.435-16.307-19.428
				c7.599,6.644,13.997,12.158,19.192,16.543L342.228,425.403L342.228,425.403z M310.124,402.903l38.264,46.81l8.644-8.642
				l-7.195-8.117l3.059-3.059l8.118,7.195l8.49-8.49l-47.352-37.721L310.124,402.903L310.124,402.903z"/>
			<path style="fill-rule:evenodd;clip-rule:evenodd;fill:#FFFFFF;" d="M366.37,383.625l-8.353,8.354l-7.396-7.394
				c-2.15-2.15-3.579-3.404-4.287-3.763c-0.707-0.359-1.37-0.232-1.979,0.379c-0.683,0.681-0.789,1.439-0.324,2.273
				c0.468,0.834,1.78,2.331,3.94,4.491l19.811,19.81c2.075,2.074,3.517,3.332,4.334,3.783c0.818,0.448,1.545,0.349,2.194-0.297
				c0.629-0.629,0.718-1.354,0.264-2.174c-0.451-0.82-1.856-2.41-4.211-4.762l-5.387-5.39l8.353-8.35l1.664,1.665
				c4.423,4.423,7.321,7.793,8.695,10.117c1.377,2.32,1.959,4.979,1.746,7.977c-0.211,2.994-1.493,5.667-3.842,8.015
				c-2.453,2.454-5.059,3.883-7.81,4.286c-2.751,0.403-5.428-0.178-8.022-1.739c-2.598-1.559-5.981-4.43-10.158-8.606
				l-12.447-12.445c-3.07-3.069-5.295-5.451-6.669-7.144c-1.381-1.691-2.382-3.643-3.015-5.854c-0.636-2.208-0.66-4.42-0.082-6.631
				c0.578-2.208,1.767-4.218,3.575-6.022c2.454-2.454,5.107-3.849,7.96-4.184c2.857-0.339,5.477,0.181,7.865,1.552
				c2.389,1.374,5.568,4.043,9.539,8.012L366.37,383.625L366.37,383.625z"/>
			<polygon style="fill-rule:evenodd;clip-rule:evenodd;fill:#FFFFFF;" points="359.298,353.728 401.835,396.265 393.481,404.619 
				350.944,362.082 359.298,353.728 			"/>
			<path style="fill-rule:evenodd;clip-rule:evenodd;fill:#FFFFFF;" d="M403.735,370.296c2.512,2.512,4.02,4.184,4.525,5.014
				c0.506,0.827,0.484,1.515-0.058,2.058c-0.543,0.547-1.18,0.602-1.904,0.168c-0.725-0.435-2.324-1.894-4.802-4.368l-19.917-19.917
				c-2.193-2.197-3.407-3.626-3.633-4.296c-0.226-0.67-0.127-1.217,0.297-1.645c0.514-0.509,1.125-0.568,1.84-0.178
				c0.714,0.394,2.064,1.579,4.05,3.565L403.735,370.296L403.735,370.296z M399.21,349.066c-4.386-4.385-7.537-7.376-9.447-8.972
				c-1.914-1.6-4.03-2.728-6.352-3.388c-2.324-0.659-4.539-0.68-6.647-0.062c-2.108,0.619-4.023,1.784-5.735,3.497
				c-1.805,1.801-2.99,3.781-3.565,5.934c-0.574,2.156-0.527,4.368,0.153,6.638c0.681,2.27,1.832,4.368,3.462,6.296
				c1.635,1.931,4.591,5.034,8.873,9.314l7.287,7.291c4.386,4.385,7.533,7.376,9.447,8.976c1.911,1.596,4.027,2.724,6.352,3.384
				c2.32,0.663,4.539,0.684,6.648,0.064c2.105-0.622,4.02-1.787,5.735-3.503c1.801-1.802,2.984-3.773,3.551-5.917
				c0.568-2.147,0.51-4.351-0.167-6.624c-0.681-2.269-1.829-4.371-3.452-6.31c-1.623-1.937-4.573-5.048-8.855-9.331L399.21,349.066
				L399.21,349.066z"/>
			<polygon style="fill-rule:evenodd;clip-rule:evenodd;fill:#FFFFFF;" points="403.369,309.657 445.905,352.194 438.635,359.464 
				414.97,344.456 434.306,363.795 427.346,370.754 384.806,328.218 391.769,321.257 415.561,335.77 396.41,316.618 
				403.369,309.657 			"/>
			<path style="fill-rule:evenodd;clip-rule:evenodd;fill:#FFFFFF;" d="M441.134,326.491c-3.517-3.96-8.951-10.436-16.307-19.426
				c7.595,6.643,13.996,12.156,19.191,16.54L441.134,326.491L441.134,326.491z M409.029,303.992l38.265,46.81l8.643-8.643
				l-7.194-8.118l3.059-3.061l8.117,7.196l8.49-8.488l-47.352-37.723L409.029,303.992L409.029,303.992z"/>
			<polygon style="fill-rule:evenodd;clip-rule:evenodd;fill:#FFFFFF;" points="435.673,277.354 469.702,311.383 474.651,306.432 
				483.158,314.939 469.855,328.242 427.319,285.708 435.673,277.354 			"/>
			<polygon style="fill-rule:evenodd;clip-rule:evenodd;" points="287.91,611.773 310.264,634.126 313.589,630.797 319.194,636.41 
				310.38,645.221 282.421,617.262 287.91,611.773 			"/>
			<polygon style="fill-rule:evenodd;clip-rule:evenodd;" points="307.632,592.051 335.591,620.01 330.099,625.499 302.14,597.54 
				307.632,592.051 			"/>
			<path style="fill-rule:evenodd;clip-rule:evenodd;" d="M336.302,563.381l27.959,27.959l-4.795,4.799l-18.895-18.86l17,20.754
				l-3.404,3.404l-20.439-16.461l18.43,18.471l-4.795,4.792l-27.959-27.959l7.106-7.102c1.877,1.511,4.078,3.281,6.6,5.305
				l7.875,6.33l-11.788-14.321L336.302,563.381L336.302,563.381z"/>
			<polygon style="fill-rule:evenodd;clip-rule:evenodd;" points="348.087,551.596 357.175,542.511 362.78,548.117 359.185,551.712 
				364.483,557.01 367.847,553.647 373.144,558.945 369.78,562.308 375.93,568.46 379.911,564.475 385.52,570.08 376.046,579.555 
				348.087,551.596 			"/>
			<polygon style="fill-rule:evenodd;clip-rule:evenodd;" points="374.269,525.421 402.227,553.373 396.735,558.87 368.776,530.911 
				374.269,525.421 			"/>
			<path style="fill-rule:evenodd;clip-rule:evenodd;" d="M397.928,512.18c0.509,0.041,1.21,0.506,2.098,1.394l1.538,1.538
				c1.234,1.237,1.843,2.085,1.829,2.55c-0.018,0.465-0.325,0.998-0.93,1.6l-6.225-6.228
				C396.851,512.426,397.415,512.139,397.928,512.18L397.928,512.18z M413.91,541.691l5.493-5.489l-12.605-12.605
				c0.734-0.738,1.367-1.012,1.896-0.834c0.529,0.185,1.545,1.025,3.042,2.522l9.29,9.29l5.104-5.1l-7.369-7.369
				c-2.253-2.256-3.678-3.589-4.27-3.999c-0.592-0.41-1.374-0.725-2.338-0.957c-0.967-0.232-2.178,0.02-3.627,0.759
				c1.047-1.347,1.402-2.598,1.06-3.753c-0.339-1.162-1.6-2.823-3.777-5.004c-2.383-2.386-4.409-3.835-6.07-4.348
				c-1.664-0.513-3.086-0.444-4.27,0.205c-1.179,0.649-3.062,2.27-5.649,4.861l-3.869,3.862L413.91,541.691L413.91,541.691z"/>
			<path style="fill-rule:evenodd;clip-rule:evenodd;" d="M432.545,503.102c-2.335-2.604-5.917-6.87-10.743-12.79
				c4.994,4.368,9.201,8.005,12.619,10.917L432.545,503.102L432.545,503.102z M411.401,488.281l25.166,30.755l5.674-5.674
				l-4.723-5.332l1.975-1.975l5.318,4.737l5.6-5.598l-31.1-24.822L411.401,488.281L411.401,488.281z"/>
			<path style="fill-rule:evenodd;clip-rule:evenodd;" d="M216.437,293.48c-5.236,0-10.3,0.7-15.174,1.892l-0.022-0.058
				c-0.142,0.053-0.27,0.116-0.41,0.17c-27.785,6.996-48.443,32.122-48.443,62.046c0,35.318,28.733,64.05,64.049,64.05
				c35.316,0,64.049-28.732,64.049-64.05C280.487,322.213,251.753,293.48,216.437,293.48L216.437,293.48z"/>
			<path style="fill-rule:evenodd;clip-rule:evenodd;fill:#FFFFFF;" d="M261.095,349.92c-0.681-3.691-3.314-14.198-11.938-24.89
				c3.14-1.326,8.781-4.113,12.077-8.094c7.424,8.187,12.646,18.375,14.716,29.682C272.254,350.577,264.19,350.225,261.095,349.92
				L261.095,349.92z"/>
			<path style="fill-rule:evenodd;clip-rule:evenodd;fill:#FFFFFF;" d="M246.786,322.215c-5.537-6.082-13.223-11.993-23.68-16.57
				c0.933-1.81,2.112-4.776,1.982-7.974c13.041,1.88,24.76,7.875,33.739,16.696C255.8,318.371,249.296,321.225,246.786,322.215
				L246.786,322.215z"/>
			<path style="fill-rule:evenodd;clip-rule:evenodd;fill:#FFFFFF;" d="M220.435,308.29c32.703,13.624,37.037,40.756,37.334,42.988
				c-0.492,1.233-4.118,9.587-12.395,16.96c-10.18-32.637-38.895-45.101-48.249-48.356
				C203.061,314.396,210.729,309.78,220.435,308.29L220.435,308.29z"/>
			<path style="fill-rule:evenodd;clip-rule:evenodd;fill:#FFFFFF;" d="M194.338,322.644c6.229,1.929,38.061,13.393,48.1,47.996
				c-5.527,4.17-12.715,7.694-21.978,8.856c-12.146-26.021-33.059-33.92-39.496-35.759
				C182.454,340.014,186.665,330.809,194.338,322.644L194.338,322.644z"/>
			<path style="fill-rule:evenodd;clip-rule:evenodd;fill:#FFFFFF;" d="M203.131,360.93c5.185,4.932,10.264,11.515,14.277,20.159
				c-2.913,2.994-11.045,13.34-12.383,35.875c-11.093-2.126-21.084-7.307-29.145-14.605
				C182.189,373.966,198.821,363.261,203.131,360.93L203.131,360.93z"/>
			<path style="fill-rule:evenodd;clip-rule:evenodd;fill:#FFFFFF;" d="M220.342,383.109c26.578-3.015,37.844-24.213,40.329-29.712
				c3.11,0.324,10.785,0.683,15.895-2.741c0.26,2.259,0.42,4.546,0.42,6.873c0,0.674-0.078,1.323-0.102,1.993
				c-2.164,4.526-22.912,45.257-66.367,43.62C213.624,390.229,219.04,384.36,220.342,383.109L220.342,383.109z"/>
			<path style="fill-rule:evenodd;clip-rule:evenodd;fill:#FFFFFF;" d="M221.537,297.238c0.376,3.136-1.234,6.342-1.977,7.608
				c-28.52,4.584-40.551,34.026-42.339,38.858c-2.543,1.363-12.184,7.051-18.293,17.216c1.087-15.404,7.656-48.453,43.031-62.118
				c4.648-1.146,9.481-1.821,14.479-1.821C218.158,296.98,219.852,297.096,221.537,297.238L221.537,297.238z"/>
			<path style="fill-rule:evenodd;clip-rule:evenodd;fill:#FFFFFF;" d="M156.006,355.191c0.528-13.723,5.574-26.305,13.786-36.22
				C160.844,331.378,157.33,345.17,156.006,355.191L156.006,355.191z"/>
			<path style="fill-rule:evenodd;clip-rule:evenodd;fill:#FFFFFF;" d="M157.93,372.862c3.196-15.62,18.017-24.466,20.942-26.069
				c2.305,0.591,11.691,3.411,21.475,11.662c-5.923,3.439-20.872,14.557-27.385,41.118
				C165.841,392.214,160.607,383.058,157.93,372.862L157.93,372.862z"/>
			<path style="fill-rule:evenodd;clip-rule:evenodd;fill:#FFFFFF;" d="M216.437,418.079c-2.699,0-5.335-0.239-7.942-0.581
				c0.227-4.019,0.67-7.649,1.277-10.88c36.384,1.685,57.697-24.705,66.196-38.305C270.862,396.566,246.139,418.079,216.437,418.079
				L216.437,418.079z"/>
		</g>
	</g>
</g>
</svg>
