<?xml version="1.0" encoding="iso-8859-1"?>
<!-- Generator: Adobe Illustrator 23.0.1, SVG Export Plug-In . SVG Version: 6.00 Build 0)  -->
<svg version="1.1" xmlns="http://www.w3.org/2000/svg" xmlns:xlink="http://www.w3.org/1999/xlink" x="0px" y="0px"
	 viewBox="0 0 595.276 841.89" style="enable-background:new 0 0 595.276 841.89;" xml:space="preserve">
<g id="Grade" style="display:none;">
</g>
<g id="HQFL">
</g>
<g id="&#xC1;rea_de_trabalho">
</g>
<g id="Linhas-guia">
</g>
<g id="Page_1">
	<g id="HQFL_1_">
		<g>
			<path style="fill-rule:evenodd;clip-rule:evenodd;" d="M545.464,487.699L545.464,487.699
				c-0.654-44.338-15.317-77.45-29.498-109.471c-10.08-24.234-14.37-41.225-15.791-62.564c1.117-25.68,9.176-45.929,21.819-70.255
				l10.687-20.561l-91.599-88.162l-1.642,0.987l-18.715,11.253c-35.136,21.125-78.801,33.191-122.951,33.975
				c-46.181,0.82-88.924-10.413-123.61-32.485l-20.467-13.023l-91.59,87.277l10.607,20.623c9.02,17.538,15.325,33.266,19.839,49.483
				c1.018,6.95,1.515,13.42,1.515,19.769c0,24.125-7.349,44.877-15.29,63.709c-9.597,21.719-21.561,48.798-27.281,78.019
				l-0.23,1.176l-0.139,1.191c-0.891,7.633-1.342,15.392-1.342,23.058c0,32.533,7.946,63.759,22.979,90.304l1.041,1.838l1.28,1.678
				c11.454,15.024,24.044,26.909,38.49,36.334l0.723,0.471l0.745,0.431c24.261,13.964,49.644,23.397,74.192,32.52
				c32.41,12.043,63.016,23.416,87.89,43.917l19.425,16.012l19.657-15.726c16.032-12.826,32.203-22.283,52.434-30.664
				c10.945-4.481,22.195-8.558,34.104-12.873c25.4-9.207,51.658-18.725,76.873-33.136l1.066-0.606l1.021-0.699
				c49.616-33.831,59.91-77.976,63.642-120.641l0.138-1.577L545.464,487.699L545.464,487.699z"/>
			<path style="fill-rule:evenodd;clip-rule:evenodd;fill:#FFFFFF;" d="M428.97,162.639c-37.504,22.55-83.996,35.427-130.911,36.26
				c-49.33,0.876-95.141-11.222-132.483-34.984l-9.903-6.301l-73.86,70.382l5.133,9.979c9.72,18.897,16.493,35.919,21.305,53.486
				c1.215,7.978,1.794,15.562,1.794,22.856c0,25.043-6.66,46.782-16.539,70.201c-9.344,21.15-20.94,47.435-26.303,74.829
				l-0.111,0.568l-0.067,0.576c-0.827,7.094-1.236,14.187-1.236,21.23c0,29.533,7.193,58.187,20.903,82.396l0.503,0.889l0.62,0.813
				c10.468,13.732,21.432,24.101,34.509,32.635l0.351,0.228l0.363,0.209c23.106,13.301,47.862,22.5,71.805,31.397
				c33.691,12.518,65.512,24.344,92.463,46.558l9.399,7.746l9.511-7.609c17.259-13.807,34.624-23.971,56.305-32.953
				c11.298-4.625,23.234-8.949,34.777-13.133c24.759-8.975,50.361-18.254,74.385-31.982l0.517-0.295l0.491-0.336
				c41.66-28.406,52.805-64.047,56.723-108.82l0.066-0.764l-0.012-0.766c-0.605-40.984-14.617-72.715-28.2-103.386
				c-10.99-26.405-15.658-45.16-17.13-68.772c1.1-28.878,9.865-51.2,23.661-77.746l5.171-9.949l-74.148-71.366L428.97,162.639
				L428.97,162.639z"/>
			<path style="fill-rule:evenodd;clip-rule:evenodd;" d="M518.468,488.099c-0.534-36.135-11.178-62.782-27.355-99.31
				c-11.45-27.493-16.512-47.991-18.004-72.95c1.093-31.067,10.755-55.61,24.927-82.88l1.379-2.654l-62.15-59.819l-2.627,1.579
				c-39.133,23.53-87.568,36.965-136.384,37.831c-51.494,0.914-99.416-11.777-138.584-36.701l-2.641-1.681l-61.672,58.767
				l1.369,2.661c10.192,19.817,17.282,37.695,22.31,56.238c1.384,8.874,2.03,17.267,2.03,25.323
				c0,26.659-7.029,49.651-17.452,74.349c-9.109,20.616-20.477,46.349-25.618,72.607l-0.029,0.152l-0.019,0.153
				c-0.778,6.682-1.164,13.355-1.164,19.981c0,27.635,6.702,54.394,19.477,76.951l0.135,0.238l0.165,0.217
				c9.684,12.703,19.779,22.264,31.772,30.09l0.094,0.06l0.097,0.057c22.311,12.842,46.63,21.879,70.149,30.617
				c33.061,12.285,67.248,24.99,95.628,48.383l2.507,2.064l2.536-2.029c18.103-14.48,36.288-25.129,58.967-34.525
				c11.549-4.727,23.592-9.092,35.238-13.313c24.323-8.816,49.474-17.931,72.676-31.191l0.137-0.078l0.132-0.09
				c38.085-25.971,48.316-59.035,51.96-100.691l0.018-0.203L518.468,488.099L518.468,488.099z M479.03,254.444l-23.435,10.066
				v-65.277c14.371,13.831,31.694,30.505,33.977,32.702C485.673,239.552,482.141,246.989,479.03,254.444L479.03,254.444z
				 M205.584,203.888c18.628,6.355,38.358,10.603,58.857,12.644v130.09l-58.857,25.283V203.888L205.584,203.888z M329.78,215.65
				c20.786-2.6,41.169-7.384,60.483-14.152v91.077l-60.483,25.981V215.65L329.78,215.65z M110.959,392.025
				c10.83-25.662,18.124-49.566,18.124-77.389c0-8.544-0.687-17.457-2.172-26.905l-0.034-0.213l-0.056-0.209
				c-4.951-18.329-11.873-36-21.636-55.341c2.361-2.25,20.598-19.627,35.059-33.409v201.412l-40.046,17.202
				C103.794,408.25,107.535,399.774,110.959,392.025L110.959,392.025z M85.881,462.845c2.35-11.94,6.072-23.848,10.283-35.232
				l378.813-162.722c-5.671,15.859-9.239,32.197-9.874,50.864l-0.006,0.186l0.011,0.186c1.239,20.995,5.029,38.072,10.587,54.591
				l-0.076-0.177L94.094,534.974c-6.126-16.563-9.311-34.664-9.311-53.211C84.783,475.494,85.15,469.173,85.881,462.845
				L85.881,462.845z M264.442,639.181c-19.045-10.143-39.098-17.812-58.857-25.17V495.634l58.857-25.367V639.181L264.442,639.181z
				 M103.108,554.534c-2.207-3.914-4.218-7.967-6.037-12.131l43.174-18.607v62.875c-2.569-1.354-5.116-2.746-7.631-4.191
				C121.525,575.228,112.14,566.337,103.108,554.534L103.108,554.534z M355.262,626.472c-9.108,3.773-17.508,7.756-25.481,12.088
				V442.107l60.483-26.067v197.196C378.714,617.423,366.793,621.751,355.262,626.472L355.262,626.472z M462.105,582.499
				c-2.149,1.225-4.323,2.406-6.51,3.564V387.883l22.704-9.786c1.699,4.596,3.523,9.189,5.464,13.85
				c15.783,35.642,26.152,61.557,26.698,96.077C506.907,528.378,497.542,558.281,462.105,582.499L462.105,582.499z"/>
			<path style="fill-rule:evenodd;clip-rule:evenodd;" d="M104.605,518.933l11.338-83.701l16.201-7.023l38.877,61.56l-16.201,7.016
				l-7.017-12.949l-25.92,11.338l-2.161,17.271L104.605,518.933L104.605,518.933z M123.501,480.583l17.278-7.559l-14.041-25.371
				L123.501,480.583L123.501,480.583z M193.704,463.855l2.695,14.576l-14.575,6.475l-3.245-14.576L193.704,463.855L193.704,463.855z
				 M206.118,474.109l10.804-83.158l16.743-7.559l38.877,62.094l-16.201,6.49l-7.017-12.422l-25.921,10.795l-1.618,17.285
				L206.118,474.109L206.118,474.109z M225.023,436.308l17.277-8.099l-14.04-25.379L225.023,436.308L225.023,436.308z
				 M295.225,419.031l2.695,14.581l-15.117,7.026l-2.702-15.124L295.225,419.031L295.225,419.031z M313.579,427.132l-14.041-72.363
				l30.784-13.499c6.475-3.237,11.338-3.237,15.659-1.619c3.779,1.619,7.017,4.863,9.185,9.177
				c1.611,4.863,2.153,9.185,1.611,14.583c-0.542,4.863-2.695,9.719-5.391,13.499c-3.252,4.321-7.031,7.559-12.422,10.261
				l-16.201,7.017l5.391,26.463L313.579,427.132L313.579,427.132z M320.596,382.308l14.048-6.474
				c2.153-0.542,3.779-2.703,4.863-4.321c2.153-1.619,2.695-4.321,2.695-6.482c0-2.695,0-4.856-1.084-7.559
				c-1.084-2.161-3.237-3.779-4.863-4.321c-2.153,0-4.849,0.542-8.101,1.619l-12.415,5.405L320.596,382.308L320.596,382.308z
				 M378.926,382.308l2.695,15.125l-15.117,6.482l-2.71-15.125L378.926,382.308L378.926,382.308z M396.738,390.409l-13.491-72.356
				l30.777-13.499c5.932-3.245,10.796-3.245,15.117-1.626c4.321,1.626,7.559,4.863,9.185,9.185
				c2.153,4.856,2.695,9.719,2.153,14.575c-0.542,4.863-2.695,9.727-5.391,14.041c-3.252,3.787-7.031,7.024-12.422,9.727
				l-16.743,7.017l5.933,26.462L396.738,390.409L396.738,390.409z M404.297,345.592l14.048-6.482
				c2.153-0.542,3.779-2.695,4.863-4.321c1.611-1.619,2.695-4.314,2.695-6.475c0-2.703,0-4.863-1.626-7.024
				c-1.069-2.695-2.695-4.321-4.321-4.856c-2.153,0-4.848,0.535-8.101,1.619l-12.407,5.398L404.297,345.592L404.297,345.592z
				 M462.085,345.592l3.237,15.117l-15.117,6.482l-2.71-15.117L462.085,345.592L462.085,345.592z"/>
		</g>
	</g>
</g>
</svg>
