<?xml version="1.0" encoding="iso-8859-1"?>
<!-- Generator: Adobe Illustrator 23.0.1, SVG Export Plug-In . SVG Version: 6.00 Build 0)  -->
<svg version="1.1" xmlns="http://www.w3.org/2000/svg" xmlns:xlink="http://www.w3.org/1999/xlink" x="0px" y="0px"
	 viewBox="0 0 595.276 841.89" style="enable-background:new 0 0 595.276 841.89;" xml:space="preserve">
<g id="Grade" style="display:none;">
</g>
<g id="HQFL">
</g>
<g id="&#xC1;rea_de_trabalho">
</g>
<g id="Linhas-guia">
</g>
<g id="Page_1">
	<g id="HQFL_1_">
		<g>
			<polygon style="fill-rule:evenodd;clip-rule:evenodd;fill:#2E3192;" points="231.279,110.485 281.954,110.485 297.635,62.244 
				313.293,110.485 363.992,110.485 323.006,140.314 338.689,188.525 297.635,158.717 256.554,188.525 272.238,140.314 
				231.279,110.485 			"/>
			<path style="fill-rule:evenodd;clip-rule:evenodd;fill:#2E3192;" d="M297.638,218.627h0.002
				c77.252,0,147.379,31.503,198.191,82.32c50.809,50.808,82.313,120.931,82.313,198.19c0,77.26-31.504,147.383-82.316,198.191
				c-50.809,50.816-120.936,82.31-198.186,82.318h-0.004h-0.002c-77.253-0.008-147.379-31.502-198.19-82.318
				c-50.813-50.808-82.313-120.932-82.315-198.191c0.002-77.255,31.502-147.381,82.315-198.194
				c50.811-50.812,120.938-82.31,198.188-82.316H297.638L297.638,218.627z"/>
			<path style="fill-rule:evenodd;clip-rule:evenodd;fill:#FFFFFF;" d="M297.64,229.87h-0.002h-0.004
				c-74.145,0.004-141.462,30.242-190.237,79.023c-48.78,48.779-79.022,116.092-79.022,190.242
				c0,74.148,30.241,141.469,79.019,190.244c48.778,48.775,116.095,79.015,190.242,79.023h0.002h0.004
				c74.146-0.008,141.459-30.248,190.234-79.023c48.785-48.775,79.023-116.096,79.023-190.244
				c0-74.151-30.238-141.463-79.018-190.242C439.102,260.112,371.789,229.87,297.64,229.87L297.64,229.87z"/>
			<path style="fill-rule:evenodd;clip-rule:evenodd;fill:#2E3192;" d="M298.139,303.506h0.004
				c54.014,0,103.045,22.024,138.57,57.551c35.522,35.521,57.547,84.552,57.547,138.565v0.008
				c0,54.012-22.025,103.039-57.551,138.565c-35.522,35.527-84.553,57.551-138.564,57.551h-0.006
				c-54.012,0-103.044-22.023-138.569-57.551c-35.526-35.526-57.549-84.553-57.551-138.565v-0.008
				c0.002-54.014,22.025-103.044,57.553-138.571c35.524-35.522,84.553-57.546,138.566-57.546H298.139L298.139,303.506z
				 M298.142,314.744h-0.004h-0.002c-50.911,0.005-97.126,20.767-130.619,54.259c-33.493,33.494-54.255,79.709-54.257,130.619v0.008
				c0.002,50.908,20.764,97.125,54.257,130.619c33.493,33.492,79.709,54.254,130.621,54.254h0.006
				c50.904,0,97.125-20.762,130.619-54.254c33.488-33.494,54.254-79.711,54.254-130.619v-0.008
				c0-50.91-20.766-97.125-54.254-130.619C395.269,335.51,349.049,314.744,298.142,314.744L298.142,314.744z"/>
			<path style="fill-rule:evenodd;clip-rule:evenodd;fill:#2E3192;" d="M128.88,614.714l16.542,21.959l-6.178,4.658l-9.822-13.039
				l-5.021,3.779l8.394,11.142l-5.801,4.367l-8.394-11.135l-11.745,8.851l-6.721-8.926L128.88,614.714L128.88,614.714z
				 M165.134,654.181l8.367,7.285l-14.078,16.195c-1.393,1.598-2.963,2.894-4.701,3.889c-1.735,0.996-3.613,1.557-5.604,1.699
				c-1.995,0.142-3.775-0.076-5.32-0.67c-2.15-0.81-4.377-2.209-6.665-4.199c-1.321-1.154-2.685-2.5-4.084-4.039
				c-1.399-1.539-2.39-3.055-2.959-4.51c-0.575-1.463-0.855-3.078-0.845-4.844c0.01-1.764,0.318-3.338,0.933-4.683
				c0.987-2.184,2.058-3.95,3.216-5.28l14.076-16.193l8.378,7.285l-14.417,16.58c-1.286,1.481-1.881,3.002-1.786,4.541
				c0.096,1.549,0.874,2.963,2.329,4.224c1.445,1.256,2.944,1.832,4.473,1.725c1.529-0.102,2.959-0.912,4.266-2.418L165.134,654.181
				L165.134,654.181z M177.359,664.436l8.986,5.193l1.784,24.025l9.954-17.24l9.08,5.236l-17.993,31.168l-9.08-5.246l-1.79-23.848
				l-9.881,17.115l-9.057-5.229L177.359,664.436L177.359,664.436z M213.213,684.419l15.316,6.199
				c3.015,1.213,5.299,2.619,6.82,4.182c1.531,1.564,2.591,3.371,3.187,5.389c0.592,2.023,0.752,4.164,0.478,6.414
				c-0.276,2.252-0.868,4.527-1.79,6.801c-1.441,3.565-2.963,6.166-4.569,7.797c-1.604,1.639-3.396,2.836-5.374,3.58
				c-1.978,0.744-3.885,1.004-5.717,0.778c-2.506-0.309-4.68-0.836-6.514-1.58l-15.318-6.182L213.213,684.419L213.213,684.419z
				 M220.474,696.147l-7.374,18.227l2.526,1.029c2.156,0.869,3.787,1.246,4.886,1.139c1.102-0.109,2.164-0.662,3.158-1.641
				c0.993-0.979,2.037-2.811,3.114-5.479c1.43-3.539,1.827-6.189,1.203-7.955c-0.624-1.773-2.28-3.205-4.944-4.276L220.474,696.147
				L220.474,696.147z M241.351,721.358l10.402,2.41l-2.252,9.754l-10.4-2.4L241.351,721.358L241.351,721.358z M271.841,719.419
				c0.238-6.834,1.633-11.578,4.183-14.221c2.555-2.642,6.357-3.881,11.397-3.705c2.416,0.084,4.398,0.451,5.93,1.104
				c1.533,0.645,2.772,1.473,3.717,2.459c0.948,0.988,1.696,2.026,2.221,3.096c0.522,1.078,0.945,2.324,1.233,3.748
				c0.574,2.701,0.816,5.512,0.713,8.422c-0.227,6.525-1.498,11.268-3.809,14.213c-2.312,2.944-6.178,4.324-11.572,4.141
				c-3.03-0.109-5.46-0.678-7.286-1.699c-1.832-1.037-3.319-2.5-4.444-4.408c-0.813-1.354-1.43-3.195-1.832-5.504
				c-0.401-2.316-0.558-4.867-0.46-7.644H271.841L271.841,719.419z M281.749,719.786c-0.159,4.584,0.136,7.731,0.887,9.428
				c0.751,1.707,1.897,2.594,3.432,2.643c1.01,0.035,1.905-0.293,2.676-0.969c0.765-0.687,1.352-1.799,1.761-3.322
				c0.405-1.529,0.667-3.922,0.78-7.176c0.167-4.769-0.126-7.998-0.879-9.67c-0.751-1.674-1.945-2.535-3.561-2.594
				c-1.647-0.059-2.877,0.744-3.668,2.385C282.389,712.167,281.908,715.261,281.749,719.786L281.749,719.786z M338,735.169
				l-29.789,3.656c-0.026-2.979,0.681-5.881,2.088-8.674c1.414-2.81,4.287-6.265,8.611-10.373c2.639-2.518,4.305-4.393,4.977-5.605
				c0.674-1.221,0.949-2.342,0.828-3.346c-0.133-1.086-0.649-1.973-1.547-2.642c-0.898-0.67-1.957-0.938-3.178-0.787
				c-1.264,0.16-2.252,0.687-2.957,1.574c-0.707,0.895-1.08,2.375-1.105,4.416l-10.041,0.426c0.041-2.844,0.488-5.119,1.334-6.809
				c0.84-1.697,2.17-3.086,3.957-4.149c1.793-1.062,4.361-1.807,7.707-2.217c3.484-0.428,6.258-0.359,8.295,0.191
				c2.041,0.553,3.723,1.59,5.035,3.103c1.318,1.506,2.1,3.287,2.35,5.338c0.268,2.174-0.117,4.332-1.144,6.465
				c-1.033,2.142-3.092,4.609-6.162,7.394c-1.826,1.623-3.045,2.752-3.65,3.389c-0.607,0.635-1.308,1.455-2.107,2.459l15.5-1.898
				L338,735.169L338,735.169z M341.115,717.704l14.103-3.506l1.873,7.504l-14.104,3.514L341.115,717.704L341.115,717.704z
				 M360.66,711.606c-2.225-6.467-2.623-11.394-1.193-14.773c1.439-3.387,4.547-5.906,9.314-7.545
				c2.285-0.787,4.268-1.154,5.932-1.096c1.664,0.051,3.115,0.385,4.353,0.961c1.234,0.586,2.309,1.289,3.18,2.1
				c0.877,0.82,1.719,1.832,2.496,3.055c1.502,2.309,2.736,4.852,3.686,7.603c2.125,6.182,2.638,11.059,1.535,14.639
				c-1.105,3.58-4.217,6.256-9.32,8.014c-2.864,0.986-5.336,1.32-7.41,1.019c-2.078-0.301-3.994-1.144-5.727-2.517
				c-1.246-0.971-2.481-2.467-3.684-4.482c-1.209-2.018-2.264-4.342-3.172-6.977H360.66L360.66,711.606z M370.041,708.394
				c1.492,4.342,2.898,7.168,4.207,8.49c1.314,1.322,2.697,1.74,4.15,1.238c0.961-0.326,1.676-0.953,2.148-1.865
				c0.473-0.92,0.623-2.166,0.461-3.731c-0.172-1.572-0.787-3.906-1.846-6.976c-1.555-4.518-2.986-7.428-4.287-8.717
				c-1.301-1.297-2.723-1.672-4.252-1.147c-1.561,0.535-2.422,1.725-2.568,3.547c-0.147,1.824,0.514,4.885,1.99,9.168
				L370.041,708.394L370.041,708.394z M412.576,677.485l-7.893,6.182c-0.939-1.055-1.822-1.674-2.642-1.85
				c-0.824-0.176-1.623-0.033-2.393,0.428c-1.393,0.836-2.045,2.191-1.975,4.057c0.047,1.338,0.93,3.756,2.652,7.227
				c0.397-1.647,0.992-3.053,1.769-4.2c0.785-1.144,1.887-2.148,3.305-3.002c2.742-1.648,5.662-2.059,8.74-1.238
				c3.078,0.811,5.533,2.736,7.344,5.746c1.219,2.033,1.858,4.191,1.908,6.449c0.051,2.25-0.514,4.334-1.703,6.217
				c-1.184,1.889-3.065,3.603-5.633,5.152c-3.082,1.848-5.881,2.811-8.373,2.885c-2.498,0.068-5.002-0.711-7.496-2.35
				c-2.5-1.641-4.901-4.367-7.186-8.164c-3.342-5.562-4.625-10.348-3.838-14.346c0.785-3.99,3.258-7.244,7.41-9.736
				c2.451-1.473,4.568-2.359,6.324-2.644c1.766-0.293,3.451-0.168,5.049,0.359c1.602,0.527,3.145,1.473,4.625,2.836L412.576,677.485
				L412.576,677.485z M405.049,700.714c1.004,1.666,2.207,2.728,3.617,3.172c1.41,0.434,2.73,0.291,3.949-0.435
				c1.115-0.678,1.807-1.674,2.049-2.979c0.242-1.312-0.151-2.826-1.164-4.518c-1.045-1.73-2.236-2.834-3.563-3.269
				c-1.334-0.435-2.59-0.31-3.756,0.393c-1.187,0.711-1.924,1.758-2.195,3.129C403.709,697.569,404.064,699.083,405.049,700.714
				L405.049,700.714z M423.994,683.356l11.762-8.539l4.551,6.266l-11.762,8.539L423.994,683.356L423.994,683.356z M442.9,666.661
				c-1.707,0.494-3.184,0.619-4.414,0.385c-1.686-0.334-3.17-1.162-4.442-2.476c-2.086-2.166-2.781-4.926-2.07-8.273
				c0.565-2.592,2.154-5.152,4.764-7.67c3.459-3.338,6.664-5.152,9.586-5.428c2.924-0.285,5.359,0.576,7.291,2.584
				c1.125,1.162,1.848,2.568,2.166,4.215c0.234,1.231,0.158,2.711-0.213,4.443c2.041-0.687,3.953-0.803,5.705-0.369
				c1.756,0.453,3.291,1.338,4.584,2.678c1.25,1.297,2.121,2.801,2.609,4.492c0.494,1.697,0.598,3.269,0.322,4.717
				c-0.272,1.447-0.908,2.945-1.92,4.475c-1.012,1.523-2.25,3.004-3.715,4.418c-2.738,2.642-5.148,4.349-7.215,5.102
				c-2.074,0.746-4.101,0.861-6.068,0.326c-1.969-0.535-3.709-1.572-5.207-3.127c-1.463-1.515-2.353-3.146-2.668-4.877
				c-0.309-1.733-0.008-3.613,0.908-5.605L442.9,666.661L442.9,666.661z M441.223,658.454c0.861,0.897,1.848,1.348,2.928,1.356
				c1.082,0.01,2.1-0.433,3.027-1.33c0.824-0.795,1.242-1.731,1.246-2.777c0.006-1.045-0.408-2.006-1.233-2.869
				c-0.861-0.894-1.85-1.353-2.932-1.379c-1.098-0.025-2.076,0.375-2.938,1.203c-0.869,0.846-1.316,1.808-1.334,2.879
				c-0.022,1.07,0.393,2.049,1.238,2.928L441.223,658.454L441.223,658.454z M451.599,669.974c1.1,1.147,2.35,1.748,3.742,1.799
				c1.398,0.049,2.539-0.352,3.43-1.213c0.861-0.838,1.281-1.949,1.252-3.346c-0.026-1.389-0.59-2.66-1.678-3.791
				c-1.1-1.137-2.356-1.738-3.744-1.807c-1.392-0.067-2.547,0.344-3.455,1.223c-0.895,0.861-1.334,1.965-1.313,3.313
				c0.012,1.346,0.602,2.625,1.762,3.822H451.599L451.599,669.974z M453.129,633.067l14.623-18.703l6.285,4.91l-9.903,12.672
				l3.727,4.008c0.272-1.197,0.647-2.318,1.108-3.33c0.461-1.012,1.025-1.949,1.678-2.785c2.217-2.836,4.877-4.467,7.967-4.902
				c3.096-0.426,5.947,0.377,8.553,2.41c1.832,1.438,3.234,3.27,4.217,5.494c0.979,2.226,1.263,4.535,0.844,6.892
				c-0.418,2.359-1.643,4.852-3.676,7.453c-1.459,1.875-2.895,3.338-4.287,4.401c-1.393,1.062-2.818,1.773-4.244,2.166
				c-1.431,0.385-2.832,0.52-4.166,0.402c-1.344-0.117-2.836-0.494-4.463-1.146l5.357-8.656c1.426,0.811,2.752,1.119,3.969,0.92
				c1.217-0.194,2.213-0.77,2.975-1.748c0.857-1.096,1.154-2.334,0.879-3.697c-0.27-1.356-1.234-2.695-2.883-3.982
				c-1.689-1.322-3.217-1.932-4.562-1.824c-1.344,0.109-2.492,0.77-3.43,1.975c-0.594,0.752-0.979,1.639-1.162,2.635
				c-0.143,0.736-0.109,1.707,0.104,2.887l-6.211,5.955L453.129,633.067L453.129,633.067z"/>
			<path style="fill-rule:evenodd;clip-rule:evenodd;fill:#2E3192;" d="M94.07,582.325c5.014,0,9.107,4.092,9.107,9.109
				c0,5.02-4.093,9.109-9.107,9.109c-5.017,0-9.107-4.09-9.107-9.109C84.962,586.417,89.053,582.325,94.07,582.325L94.07,582.325z"
				/>
			<path style="fill-rule:evenodd;clip-rule:evenodd;fill:#2E3192;" d="M502.281,582.325c5.016,0,9.109,4.092,9.109,9.109
				c0,5.02-4.094,9.109-9.109,9.109c-5.014,0-9.103-4.09-9.103-9.109C493.178,586.417,497.268,582.325,502.281,582.325
				L502.281,582.325z"/>
			<g>
				<path style="fill-rule:evenodd;clip-rule:evenodd;fill:#2E3192;" d="M132.946,349.684c3.887-4.32,5.803-8.44,5.726-12.317
					c-0.076-3.882-1.868-7.394-5.371-10.548c-3.409-3.07-6.914-4.471-10.5-4.199c-3.576,0.272-7.121,2.35-10.615,6.223
					l-16.056,17.826l34.704,31.243l9.699-10.766l-12.874-11.595L132.946,349.684L132.946,349.684z M122.993,346.594l-2.372,2.622
					l-7.733-6.963l2.75-3.053c1.805-2.003,3.419-3.029,4.829-3.07c1.408-0.043,2.663,0.426,3.746,1.401
					c1.121,1.008,1.661,2.263,1.625,3.743C125.806,342.755,124.855,344.527,122.993,346.594L122.993,346.594z M92.444,497.354
					l-12.993,0.226l0.243,13.852l12.991-0.225L92.444,497.354L92.444,497.354z M538.465,481.847l-35.141,1.229l0.502,14.422
					l35.144-1.231l0.514,14.707l11.519-0.402l-1.523-43.824l-11.525,0.393L538.465,481.847L538.465,481.847z M52.373,440.95
					l39.52,30.44l4.312-14.104l-6.706-4.416l4.799-15.731l8.043,0.07l4.415-14.438l-49.782,3.137L52.373,440.95L52.373,440.95z
					 M83.76,437.081l-3.005,9.85L66.2,437.118L83.76,437.081L83.76,437.081z M92.342,553.091l-3.706-16.019l7-3.957l-3.394-14.713
					l-41.546,27.603l3.538,15.334l49.444,6.599l-3.317-14.371L92.342,553.091L92.342,553.091z M64.293,551.108l15.188-8.817
					l2.323,10.037L64.293,551.108L64.293,551.108z M97.579,410.836l11.778,5.486l5.853-12.547l-11.775-5.492L97.579,410.836
					L97.579,410.836z M195.304,307.948c-0.502-3.911-2.313-8.105-5.441-12.577c-4.31-6.152-9.389-9.745-15.224-10.745
					c-5.837-1.008-11.941,0.72-18.307,5.178c-6.206,4.35-9.839,9.486-10.883,15.4c-1.039,5.906,0.632,11.986,5.002,18.227
					l-0.006,0.009c3.13,4.467,6.621,7.579,10.46,9.319c3.829,1.748,7.654,2.32,11.441,1.715c3.783-0.611,7.84-2.427,12.154-5.447
					c2.275-1.594,4.16-3.283,5.713-5.052l7.512,1.983l2.098-7.973l-5.312-1.405C195.419,313.803,195.689,310.917,195.304,307.948
					L195.304,307.948z M170.282,322.026c-2.608-0.681-5.278-2.961-7.978-6.818c-2.725-3.889-3.963-7.193-3.699-9.895
					c0.261-2.686,1.585-4.869,3.965-6.538c2.485-1.744,5.049-2.296,7.662-1.651c2.603,0.648,5.18,2.777,7.697,6.373
					c2.794,3.99,4.12,7.237,4.106,9.787l-3.894-1.029l-2.098,7.973l1.552,0.41C175.228,322.193,172.783,322.678,170.282,322.026
					L170.282,322.026z M497.109,445.784l3.977,13.008l44.652-13.651l-3.978-13.008l-24.701,7.553l19.562-24.375l-3.932-12.882
					l-44.662,13.659l3.971,12.975l24.518-7.495L497.109,445.784L497.109,445.784z M526.934,523.286l0.004-0.008
					c-5.32-1.223-9.996-1.197-14.012,0.074c-4.014,1.264-7.238,3.396-9.652,6.383c-2.4,2.986-4.199,7.051-5.383,12.18
					c-1.168,5.043-1.191,9.486-0.084,13.308c1.104,3.807,3.166,7.018,6.156,9.586c2.99,2.568,7.145,4.475,12.461,5.705
					c7.318,1.689,13.496,0.953,18.506-2.199c5.008-3.162,8.387-8.533,10.135-16.103c1.707-7.377,0.967-13.635-2.217-18.729
					C539.674,528.405,534.361,525.001,526.934,523.286L526.934,523.286z M534.428,549.72c-0.682,2.961-2.217,5.086-4.588,6.357
					c-2.371,1.254-5.709,1.404-9.986,0.418c-5.086-1.18-8.42-2.828-10.006-4.936c-1.584-2.1-2.027-4.668-1.33-7.687
					c0.678-2.936,2.227-5.028,4.627-6.266c2.387-1.238,5.897-1.338,10.488-0.276h-0.008c4.635,1.07,7.764,2.693,9.373,4.877
					C534.604,544.382,535.086,546.892,534.428,549.72L534.428,549.72z M467.576,348.459c0.184-2.509-0.682-5.212-2.584-8.089
					c2.133,0.945,4.076,1.33,5.809,1.151c2.598-0.28,4.848-1.426,6.73-3.434c2.24-2.41,3.244-5.262,3.002-8.533
					c-0.246-3.269-2.011-6.44-5.302-9.51l-19.746-18.429l-31.853,34.154l18.219,16.989c0.778,0.719,2.502,2.041,5.166,3.939
					c1.998,1.439,3.688,2.309,5.043,2.619c2.188,0.514,4.367,0.451,6.512-0.193c2.135-0.653,4.037-1.858,5.689-3.63
					C466.283,353.323,467.388,350.967,467.576,348.459L467.576,348.459z M454.781,344.444c-1.012,1.082-2.199,1.598-3.541,1.547
					c-1.348-0.05-2.934-0.92-4.74-2.609l-5.373-5.024l6.449-6.918l5.357,4.994c1.844,1.723,2.852,3.241,3.02,4.542
					C456.115,342.268,455.726,343.431,454.781,344.444L454.781,344.444z M458.221,329.219l-4.58-4.283l6.035-6.466l4.654,4.337
					c1.598,1.494,2.455,2.824,2.58,3.986c0.123,1.155-0.275,2.233-1.199,3.221c-0.992,1.07-2.088,1.589-3.262,1.56
					C461.277,331.536,459.863,330.755,458.221,329.219L458.221,329.219z M478.086,380.028l7.721-5.015l12.23,18.829l7.988-5.191
					l-12.228-18.829l6.227-4.041l13.184,20.303l8.361-5.43l-21.055-32.435l-39.17,25.425l21.448,33.025l8.863-5.756L478.086,380.028
					L478.086,380.028z M207.508,300.679l4.659,12.129l12.93-4.961l-4.657-12.133L207.508,300.679L207.508,300.679z M289.095,271.418
					c-1.478-1.886-3.668-3.371-6.545-4.417c-2.878-1.045-7.529-1.856-13.953-2.434c-2.586-0.213-4.266-0.594-5.012-1.121
					c-0.761-0.502-1.196-1.121-1.286-1.865c-0.123-1.008,0.189-1.916,0.943-2.727c0.757-0.812,1.966-1.318,3.63-1.523
					c2.02-0.246,3.679,0.038,4.94,0.837c1.257,0.804,2.208,2.233,2.819,4.274l13.396-2.451c-1.18-4.727-3.459-8.01-6.834-9.828
					c-3.375-1.82-8.036-2.367-13.959-1.636c-4.818,0.59-8.547,1.661-11.176,3.216c-2.618,1.549-4.492,3.473-5.61,5.764
					c-1.119,2.275-1.533,4.617-1.242,6.998c0.445,3.625,2.167,6.445,5.147,8.452c2.963,2.012,7.675,3.338,14.126,3.978
					c3.94,0.373,6.498,0.975,7.665,1.786c1.169,0.812,1.832,1.832,1.978,3.036c0.155,1.264-0.263,2.443-1.248,3.53
					c-0.983,1.096-2.508,1.773-4.551,2.024c-2.744,0.334-4.969-0.352-6.671-2.033c-1.043-1.054-1.857-2.668-2.422-4.843
					l-13.516,2.518l-0.006,0.009c0.977,4.63,3.176,8.281,6.575,10.937c3.402,2.655,9.055,3.508,16.939,2.538
					c4.483-0.548,8.128-1.656,10.925-3.313c2.783-1.656,4.855-3.839,6.187-6.55c1.334-2.71,1.82-5.554,1.456-8.523
					C291.482,275.529,290.577,273.308,289.095,271.418L289.095,271.418z M393.484,265.236c-7.074-2.714-13.367-2.853-18.855-0.409
					c-5.475,2.438-9.582,7.227-12.313,14.337h-0.004c-1.959,5.095-2.586,9.728-1.883,13.886c0.693,4.148,2.359,7.641,4.977,10.447
					c2.623,2.79,6.4,5.137,11.311,7.027c4.834,1.858,9.227,2.492,13.166,1.932c3.932-0.565,7.391-2.158,10.352-4.76
					c2.961-2.609,5.428-6.453,7.387-11.551c2.69-7.011,2.826-13.226,0.393-18.629C405.584,272.12,400.736,268.026,393.484,265.236
					L393.484,265.236z M394.207,290.799c-1.869,4.877-3.965,7.946-6.27,9.226c-2.305,1.272-4.906,1.356-7.801,0.242
					c-2.811-1.079-4.672-2.902-5.562-5.445c-0.895-2.543-0.502-6.031,1.187-10.431l-0.004,0.008
					c1.707-4.442,3.752-7.311,6.141-8.603c2.367-1.284,4.922-1.409,7.637-0.372c2.832,1.088,4.723,2.902,5.65,5.429
					C396.105,283.372,395.783,286.7,394.207,290.799L394.207,290.799z M322.545,248.498l-23.115,44.204l14.637,1.795l3.188-7.369
					l16.32,1.998l1.33,7.931l14.981,1.841l-11.731-48.484L322.545,248.498L322.545,248.498z M321.578,277.491l7.137-16.045
					l3.086,17.291L321.578,277.491L321.578,277.491z"/>
				<path style="fill-rule:evenodd;clip-rule:evenodd;fill:#2E3192;" d="M320.457,237.523c10.377-3.827,12.959-1.731,15.705,0.502
					c0.754,0.61,1.553,1.255,5.067,0.526l1.642,8.072c-7.318,1.519-8.486-0.752-11.906-2.208c-1.026-0.435-1.67-1.355-7.668,0.852
					L320.457,237.523L320.457,237.523z"/>
			</g>
			<path style="fill-rule:evenodd;clip-rule:evenodd;fill:#2E3192;" d="M262.366,433.727h72.374l19.5-26.622l-19.256-26.579h-72.596
				l-18.148,27.725L262.366,433.727L262.366,433.727z M346.406,445.7l22.225,63.098l32.352,11.963l20.443-25.264l-22.797-72.958
				l-30.654-6.282L346.406,445.7L346.406,445.7z M365.959,525.403l-60.018,38.193v32.732l36.817,15.274l53.695-38.236v-36.68
				L365.959,525.403L365.959,525.403z M289.41,563.597l-58.257-37.074l-33.32,12.641v33.945l53.818,38.328l37.759-15.166V563.597
				L289.41,563.597z M225.989,510.847l23.52-66.76l-17.736-24.928l-37.647,9.862l-20.843,66.703l21.153,27.094L225.989,510.847
				L225.989,510.847z M346.601,368.434l22.658,31.268l44.451,9.109l4.332-3.316c-3.944-5.073-8.197-9.901-12.736-14.437
				c-15.236-15.237-33.664-27.282-54.17-35.037L346.601,368.434L346.601,368.434z M297.383,329.696h0.002
				c46.625,0,88.947,19.01,119.61,49.676c30.66,30.661,49.67,72.979,49.67,119.606v0.008c0,46.619-19.01,88.945-49.67,119.602
				c-30.662,30.666-72.984,49.672-119.606,49.68h-0.006h-0.002c-46.623-0.008-88.944-19.014-119.605-49.68
				c-30.662-30.666-49.673-72.982-49.673-119.602v-0.008c0-46.627,19.011-88.945,49.673-119.61
				c30.661-30.658,72.982-49.672,119.605-49.672H297.383L297.383,329.696z M244.141,355.829
				c-20.709,7.746-39.315,19.866-54.68,35.229c-4.536,4.537-8.789,9.355-12.732,14.433l10.764,8.23l40.346-10.564l21.556-32.928
				L244.141,355.829L244.141,355.829z M144.836,506.95c1.433,27.629,10.272,53.359,24.558,75.233l11.91-8.172v-41.256
				l-20.733-26.551L144.836,506.95L144.836,506.95z M255.59,645.907c13.292,3.789,27.312,5.83,41.791,5.83h0.002h0.006
				c13.584,0,26.766-1.797,39.319-5.152l-6.098-22.158l-32.996-13.686l-36.36,14.605L255.59,645.907L255.59,645.907z
				 M423.986,584.274c15.104-22.316,24.467-48.809,25.943-77.334l-15.959-0.752l-20.988,25.932v44.602L423.986,584.274
				L423.986,584.274z"/>
		</g>
	</g>
</g>
</svg>
