<?xml version="1.0" encoding="iso-8859-1"?>
<!-- Generator: Adobe Illustrator 23.0.1, SVG Export Plug-In . SVG Version: 6.00 Build 0)  -->
<svg version="1.1" xmlns="http://www.w3.org/2000/svg" xmlns:xlink="http://www.w3.org/1999/xlink" x="0px" y="0px"
	 viewBox="0 0 595.276 841.89" style="enable-background:new 0 0 595.276 841.89;" xml:space="preserve">
<g id="Grade" style="display:none;">
</g>
<g id="HQFL">
</g>
<g id="&#xC1;rea_de_trabalho">
</g>
<g id="Linhas-guia">
</g>
<g id="Page_1">
	<g id="HQFL_1_">
		<g>
			<path style="fill-rule:evenodd;clip-rule:evenodd;fill:#49853C;" d="M580.771,243.73l-99.199-96.1
				c-113.668,23.765-183.932-42.367-183.932-42.367s-70.267,66.132-183.936,42.367l-99.2,96.1
				c13.95,13.95,76.289,55.282,37.2,194.265c-18.6,66.131-15.5,179.799,130.2,231.467c28.624,10.15,115.735,43.399,115.735,67.164
				c0-23.765,87.108-57.014,115.732-67.164c145.7-51.668,148.8-165.336,130.2-231.467
				C504.482,299.013,566.822,257.681,580.771,243.73L580.771,243.73z"/>
			<path style="fill-rule:evenodd;clip-rule:evenodd;fill:#FFFFFF;" d="M122.317,175.976c-12.4,12.012-48.095,46.591-70.122,67.927
				c17.241,19.654,38.398,54.141,38.398,112.599c0,24.952-3.856,54.259-13.523,88.629c-3.548,12.614-7.196,30.524-7.196,50.805
				c0,49.69,21.903,113.607,120.84,148.694c55.685,19.747,88.05,36.706,106.926,50.747c18.872-14.041,51.237-31,106.925-50.747
				c98.937-35.087,120.836-99.001,120.836-148.691c0-20.283-3.648-38.193-7.195-50.808c-9.667-34.37-13.524-63.677-13.524-88.629
				c0-58.458,21.161-92.945,38.399-112.599c-22.026-21.336-57.722-55.915-70.119-67.927
				c-84.999,13.293-146.575-18.065-175.322-37.548C268.889,157.911,207.313,189.269,122.317,175.976L122.317,175.976z"/>
			<path style="fill-rule:evenodd;clip-rule:evenodd;fill:#E64425;" d="M409.37,398.903h-40.948v-57.008h-28.933V317.87l49.601-43.4
				h-182.9l49.6,43.4v24.025h-28.936v57.008h-40.941l-43.4-49.6v182.9l43.4-49.6h53.302c4.051,5.649,9.44,11.099,16.575,15.561
				v43.164l-49.6,43.4h182.9l-49.601-43.4V498.16c7.133-4.462,12.521-9.908,16.572-15.558h53.309l43.4,49.6v-182.9L409.37,398.903
				L409.37,398.903z"/>
			<path style="fill-rule:evenodd;clip-rule:evenodd;fill:#FFFFFF;" d="M413.372,428.302h-60.45c0-21.982,0-56.121,0-70.907
				c-8.807,0-25.275,0-43.14,0v-43.53h-24.285v43.53c-17.868,0-34.334,0-43.143,0c0,14.786,0,48.925,0,70.907h-60.45v24.285h60.992
				c1.841,10.566,9.666,34.969,42.601,39.824v52.922h24.285v-52.922c32.932-4.858,40.754-29.262,42.598-39.824h60.992V428.302
				L413.372,428.302z"/>
			<g>
				<path style="fill-rule:evenodd;clip-rule:evenodd;fill:#E64425;" d="M310.902,392.6c-0.584-3.996-1.502-7.496-2.749-10.499
					c-1.168-2.997-2.522-5.246-4.063-6.748c-1.544-1.498-3.23-2.289-5.061-2.373l-2.125,0.124c-1.916,0-3.626,0.772-5.125,2.313
					c-1.502,1.544-2.792,3.815-3.875,6.811c-1.084,3.082-1.896,6.457-2.437,10.124c-0.542,3.666-0.812,7.665-0.812,11.994v58.11
					h6.999v-27.964h13.124v27.964h6.999v-56.233C311.777,401.14,311.483,396.599,310.902,392.6L310.902,392.6z M304.778,422.747
					h-13.124c0,0,0-19.336,0-19.959c0-0.624,0.039-1.314,0.124-2.064c0.082-0.748,0.142-1.496,0.185-2.247
					c0.043-0.75,0.145-1.502,0.315-2.252c0.167-1.498,0.436-2.955,0.811-4.371c0.375-1.417,0.811-2.749,1.314-4.003
					c0.499-1.081,1.062-1.935,1.689-2.558c0.624-0.624,1.353-1.02,2.186-1.189c0.918,0.251,1.75,0.856,2.5,1.813
					c0.751,0.957,1.416,2.271,2.001,3.936c0.667,1.917,1.166,4.332,1.499,7.248c0.333,2.919,0.5,6.333,0.5,10.248
					C304.778,407.431,304.778,422.747,304.778,422.747L304.778,422.747z"/>
				<path style="fill-rule:evenodd;clip-rule:evenodd;fill:#E64425;" d="M341.469,392.164c-0.418-2.876-1.084-5.437-1.998-7.686
					c-0.836-2.249-1.732-4.166-2.688-5.749c-0.957-1.581-1.937-2.83-2.937-3.748c-0.333-0.248-0.687-0.499-1.062-0.751
					c-0.376-0.248-0.727-0.457-1.06-0.627c-0.336-0.163-0.651-0.287-0.941-0.372c-0.291-0.084-0.602-0.166-0.935-0.251l-2.122,0.124
					c-1.502,0-2.958,0.691-4.375,2.064c-1.417,1.375-2.709,3.436-3.875,6.185c-1.25,2.749-2.167,5.979-2.749,9.685
					c-0.584,3.709-0.875,7.853-0.875,12.433v58.985h7v-33.295c0,0,9.099,0.036,9.309-0.006c0.206-0.042,0.437-0.105,0.687-0.19
					c0.248-0.082,0.52-0.185,0.812-0.312c0.29-0.124,0.52-0.27,0.687-0.436c0.999-0.666,1.937-1.726,2.813-3.185
					c0.875-1.459,1.728-3.23,2.561-5.313c0.751-2.168,1.332-4.75,1.75-7.75c0.417-2.997,0.626-6.415,0.626-10.248
					C342.095,398.225,341.886,395.04,341.469,392.164L341.469,392.164z M334.721,401.722c0,0.502,0,1.023,0,1.565
					s-0.043,1.145-0.124,1.81c0,0.666-0.043,1.353-0.128,2.062c-0.084,0.708-0.166,1.395-0.248,2.061
					c-0.166,1.168-0.418,2.292-0.751,3.375c-0.333,1.084-0.75,2.083-1.247,3c-0.418,0.833-0.898,1.456-1.437,1.874
					c-0.542,0.418-1.186,0.666-1.937,0.747h-5.997v-9.62c0-3.167,0.103-6.146,0.312-8.937c0.206-2.791,0.518-5.352,0.935-7.683
					c0.333-1.998,0.875-3.582,1.626-4.75c0.75-1.166,1.749-1.874,3-2.125c0.747,0.084,1.413,0.397,1.998,0.939
					c0.581,0.541,1.083,1.271,1.501,2.186c0.415,1.084,0.812,2.21,1.187,3.375c0.376,1.168,0.645,2.377,0.811,3.624
					c0.082,0.585,0.164,1.169,0.248,1.75c0.085,0.585,0.128,1.169,0.128,1.75c0.081,0.584,0.124,1.126,0.124,1.625
					C334.721,400.85,334.721,401.307,334.721,401.722L334.721,401.722z"/>
				<path style="fill-rule:evenodd;clip-rule:evenodd;fill:#E64425;" d="M279.708,392.6c-0.584-3.996-1.501-7.496-2.748-10.499
					c-1.169-2.997-2.522-5.246-4.063-6.748c-1.544-1.498-3.23-2.289-5.062-2.373l-2.125,0.124c-1.916,0-3.626,0.772-5.122,2.313
					c-1.502,1.544-2.791,3.815-3.875,6.811c-1.084,3.082-1.898,6.457-2.44,10.124c-0.542,3.666-0.812,7.665-0.812,11.994v58.11h7
					v-27.964h13.124v27.964h6.999v-56.233C280.584,401.14,280.29,396.599,279.708,392.6L279.708,392.6z M273.585,422.747h-13.124
					c0,0,0-19.336,0-19.959c0-0.624,0.042-1.314,0.127-2.064c0.079-0.748,0.139-1.496,0.181-2.247
					c0.043-0.75,0.146-1.502,0.315-2.252c0.169-1.498,0.436-2.955,0.811-4.371c0.375-1.417,0.811-2.749,1.314-4.003
					c0.499-1.081,1.062-1.935,1.689-2.558c0.624-0.624,1.353-1.02,2.186-1.189c0.918,0.251,1.75,0.856,2.5,1.813
					c0.751,0.957,1.417,2.271,2.002,3.936c0.666,1.917,1.166,4.332,1.499,7.248c0.333,2.919,0.499,6.333,0.499,10.248
					C273.585,407.431,273.585,422.747,273.585,422.747L273.585,422.747z"/>
			</g>
		</g>
	</g>
</g>
</svg>
