<?xml version="1.0" encoding="iso-8859-1"?>
<!-- Generator: Adobe Illustrator 23.0.1, SVG Export Plug-In . SVG Version: 6.00 Build 0)  -->
<svg version="1.1" xmlns="http://www.w3.org/2000/svg" xmlns:xlink="http://www.w3.org/1999/xlink" x="0px" y="0px"
	 viewBox="0 0 595.276 841.89" style="enable-background:new 0 0 595.276 841.89;" xml:space="preserve">
<g id="Grade" style="display:none;">
</g>
<g id="HQFL">
</g>
<g id="&#xC1;rea_de_trabalho">
</g>
<g id="Linhas-guia">
</g>
<g id="Page_1">
	<g id="HQFL_1_">
		<g>
			<path style="fill-rule:evenodd;clip-rule:evenodd;fill:#2E3192;" d="M297.641,143.239c76.488,0,145.918,31.183,196.217,81.488
				c50.303,50.299,81.485,119.726,81.485,196.215v0.003v0.003c0,76.488-31.182,145.916-81.485,196.221
				c-50.299,50.3-119.726,81.482-196.215,81.482h-0.002h-0.004c-76.491,0-145.919-31.183-196.22-81.488
				c-50.299-50.299-81.482-119.727-81.486-196.215v-0.003v-0.003c0.003-76.489,31.186-145.919,81.488-196.221
				c50.299-50.299,119.726-81.482,196.214-81.482H297.641L297.641,143.239z"/>
			<path style="fill-rule:evenodd;clip-rule:evenodd;fill:#FFFFFF;" d="M297.635,184.193h-0.003h-0.004
				c-65.186,0-124.367,26.591-167.262,69.483c-42.895,42.898-69.489,102.08-69.489,167.266v0.003v0.003
				c0.003,65.186,26.594,124.368,69.489,167.26c42.892,42.898,102.08,69.489,167.266,69.489h0.006
				c65.184,0,124.365-26.591,167.26-69.483c42.896-42.898,69.486-102.08,69.486-167.266v-0.003v-0.003
				c0-65.186-26.591-124.368-69.486-167.263C422.006,210.784,362.818,184.193,297.635,184.193L297.635,184.193z"/>
			<path style="fill-rule:evenodd;clip-rule:evenodd;fill:#2E3192;" d="M297.635,203.837h-0.003h-0.004
				c-23.905,0-46.924,3.909-68.465,11.105v412.006c13.631,4.553,27.855,7.786,42.519,9.55V498.232h51.911v138.265
				c14.665-1.764,28.889-4.998,42.519-9.552V214.946C344.568,207.747,321.543,203.837,297.635,203.837L297.635,203.837z
				 M271.682,455.713V248.287c8.518-1.275,17.183-1.93,25.946-1.93h0.007c8.767,0,17.437,0.656,25.959,1.932v207.425H271.682
				L271.682,455.713z"/>
			<path style="fill-rule:evenodd;clip-rule:evenodd;fill:#ED1C24;" d="M219.553,455.713V218.41
				c-28.466,11.036-54.067,27.905-75.308,49.145c-39.336,39.339-63.723,93.61-63.723,153.387v0.003v0.003
				c0.001,48.14,15.815,92.708,42.517,128.779l0.001-51.495h53.994l-0.001,103.07c13.225,8.878,27.473,16.343,42.521,22.177V498.232
				h9.61v-42.519H219.553L219.553,455.713z M177.033,455.713H123.04l0.001-34.771c0-46.462,18.208-90.259,51.268-123.32
				c0.899-0.899,1.809-1.786,2.724-2.664V455.713L177.033,455.713z"/>
			<path style="fill-rule:evenodd;clip-rule:evenodd;fill:#ED1C24;" d="M468.006,497.6c0,0,32.987,0.915,41.273-28.308
				c4.353-15.354,5.461-31.734,5.461-48.344v-0.003v-0.003c0-59.778-24.384-114.049-63.721-153.384
				c-21.236-21.238-46.833-38.106-75.295-49.142v237.297h-9.611v42.519h9.611v125.243c15.052-5.837,29.291-13.319,42.519-22.201
				V498.232l41.69,66.621c10.174-11.458,19.148-23.998,26.747-37.411L468.006,497.6L468.006,497.6z M460.66,455.713h-42.418v-160.74
				c0.911,0.873,1.815,1.756,2.71,2.651c33.06,33.06,51.267,76.855,51.267,123.324c0,9.673-0.793,19.229-2.343,28.599
				C469.877,449.546,467.993,455.713,460.66,455.713L460.66,455.713z"/>
		</g>
	</g>
</g>
</svg>
