<?xml version="1.0" encoding="iso-8859-1"?>
<!-- Generator: Adobe Illustrator 23.0.1, SVG Export Plug-In . SVG Version: 6.00 Build 0)  -->
<svg version="1.1" xmlns="http://www.w3.org/2000/svg" xmlns:xlink="http://www.w3.org/1999/xlink" x="0px" y="0px"
	 viewBox="0 0 595.276 841.89" style="enable-background:new 0 0 595.276 841.89;" xml:space="preserve">
<g id="Grade" style="display:none;">
</g>
<g id="HQFL">
</g>
<g id="&#xC1;rea_de_trabalho">
</g>
<g id="Linhas-guia">
</g>
<g id="Page_1">
	<g id="HQFL_1_">
		<g>
			<path style="fill-rule:evenodd;clip-rule:evenodd;fill:#ED1C24;" d="M297.305,711.494
				c-10.306-15.003-45.929-54.617-121.329-74.37C0.219,591.078,11.494,486.602,35.86,392.29l10.361-37.948
				c16.019-56.897,22.65-80.442-1.829-119.333l-12.739-20.24l89.023-84.36l16.233,4.938c0.658,0.201,66.878,20.003,160.73,20.003
				c93.851,0,160.071-19.802,160.73-20.003l16.273-4.951l88.984,84.373l-12.741,20.24c-24.478,38.888-17.848,62.439-1.827,119.337
				l10.359,37.945c24.364,94.311,35.642,198.79-140.117,244.834C343.898,656.877,307.612,696.491,297.305,711.494L297.305,711.494z"
				/>
			<path style="fill-rule:evenodd;clip-rule:evenodd;fill:#FFFFFF;" d="M531.186,399.585
				c-14.814-57.34-28.907-92.302-24.999-127.247L148.372,598.01c10.589,3.911,22.208,7.555,34.995,10.906
				c88.981,23.312,114.272,56.247,114.272,56.247s25.291-32.936,114.271-56.247C561.626,569.695,554.776,490.895,531.186,399.585
				L531.186,399.585z"/>
			<path style="fill-rule:evenodd;clip-rule:evenodd;fill:#FFFFFF;" d="M297.639,184.51c-99.969,0-169.252-21.28-169.252-21.28
				l-59.318,56.243c37.371,59.371,16.957,95.209-4.978,180.111c-8.01,31.006-14.068,60.562-12.739,87.626L387.88,178.743
				C362.413,182.018,331.824,184.51,297.639,184.51L297.639,184.51z"/>
			<path style="fill-rule:evenodd;clip-rule:evenodd;fill:#FFFFFF;" d="M466.89,163.231c0,0-13.93,4.268-38.252,8.982
				L55.575,514.168c8.14,29.06,28.585,54.324,69.772,74.15l395.784-360.234c1.571-2.822,3.234-5.68,5.078-8.61L466.89,163.231
				L466.89,163.231z"/>
			<path style="fill-rule:evenodd;clip-rule:evenodd;fill:#ED1C24;" d="M150.425,275.526l-25.061,0.016l-3.448,14.404h-22.48
				l26.754-87.296h23.976l26.754,87.296h-23.009L150.425,275.526L150.425,275.526z M145.813,256.654l-7.88-31.373l-7.816,31.389
				L145.813,256.654L145.813,256.654z M227.766,275.526l-25.06,0.016l-3.449,14.404h-22.478l26.752-87.296h23.976l26.756,87.296
				h-23.008L227.766,275.526L227.766,275.526z M223.155,256.654l-7.881-31.373l-7.814,31.389L223.155,256.654L223.155,256.654z"/>
			<path style="fill-rule:evenodd;clip-rule:evenodd;fill:#ED1C24;" d="M124.856,534.07l11.627-12.016
				c2.093,1.763,4.037,2.793,5.811,3.098c2.873,0.479,5.562-0.415,8.045-2.677c1.85-1.691,2.886-3.428,3.091-5.204
				c0.206-1.782-0.209-3.246-1.249-4.387c-0.995-1.089-2.369-1.634-4.099-1.614c-1.731,0.012-4.689,1.219-8.856,3.623
				c-6.847,3.901-12.455,5.91-16.807,6.001c-4.368,0.103-8.059-1.477-11.051-4.764c-1.967-2.151-3.203-4.763-3.699-7.809
				c-0.501-3.06,0.005-6.287,1.51-9.663c1.512-3.39,4.453-7.077,8.817-11.057c5.359-4.893,10.366-7.634,14.988-8.204
				c4.629-0.57,9.2,1.075,13.7,4.939l-11.56,11.853c-2.043-1.594-3.994-2.339-5.806-2.248c-1.813,0.091-3.657,0.979-5.483,2.644
				c-1.508,1.374-2.35,2.729-2.527,4.064c-0.18,1.335,0.148,2.456,0.982,3.377c0.612,0.667,1.479,0.978,2.591,0.939
				c1.108-0.007,3.042-0.811,5.758-2.417c6.776-3.953,11.957-6.423,15.547-7.408c3.592-0.984,6.805-1.062,9.598-0.234
				c2.8,0.837,5.259,2.405,7.343,4.686c2.451,2.69,3.971,5.852,4.554,9.476c0.585,3.622,0.07,7.245-1.526,10.848
				c-1.602,3.609-4.441,7.279-8.499,10.979c-7.134,6.507-13.339,9.643-18.582,9.403c-5.241-0.239-9.99-2.314-14.219-6.208
				L124.856,534.07L124.856,534.07z M171.133,440.423l12.934-11.782l22.817,25.009c2.257,2.477,4.008,5.172,5.246,8.076
				c1.239,2.903,1.786,5.949,1.641,9.092c-0.139,3.156-0.812,5.904-2.02,8.218c-1.666,3.221-4.265,6.455-7.796,9.683
				c-2.042,1.859-4.404,3.752-7.067,5.664c-2.678,1.912-5.224,3.188-7.608,3.817c-2.393,0.635-4.982,0.778-7.746,0.44
				c-2.764-0.344-5.166-1.108-7.174-2.32c-3.239-1.938-5.802-3.941-7.677-5.994l-22.815-25.017l12.935-11.794l23.367,25.611
				c2.082,2.281,4.353,3.486,6.792,3.623c2.437,0.135,4.794-0.83,7.04-2.878c2.232-2.035,3.407-4.283,3.518-6.701
				c0.112-2.41-0.896-4.802-3.014-7.122L171.133,440.423L171.133,440.423z M243.222,420.125l14.486-6.921
				c2.142,3.879,3.375,7.646,3.685,11.274c0.306,3.625-0.255,7.105-1.697,10.404c-1.45,3.305-4.049,6.682-7.803,10.104
				c-4.552,4.154-8.888,6.895-12.982,8.205c-4.102,1.309-8.731,1.25-13.867-0.176c-5.144-1.412-10.099-4.737-14.849-9.941
				c-6.335-6.947-9.352-13.973-9.065-21.056c0.29-7.102,3.819-13.739,10.565-19.89c5.285-4.822,10.422-7.541,15.381-8.159
				c4.967-0.626,10.221,0.609,15.727,3.694l-9.133,12.987c-1.562-0.921-2.835-1.475-3.811-1.656
				c-1.627-0.33-3.218-0.288-4.747,0.133c-1.538,0.425-2.962,1.235-4.257,2.414c-2.931,2.674-4.101,5.921-3.516,9.712
				c0.416,2.825,2.343,6.131,5.768,9.883c4.243,4.653,7.869,7.207,10.847,7.641c2.986,0.427,5.766-0.512,8.316-2.845
				c2.482-2.262,3.723-4.679,3.723-7.213c0-2.54-0.927-5.421-2.78-8.587L243.222,420.125L243.222,420.125z M276.683,421.007
				L238.42,379.06l21.601-19.705c4.005-3.651,7.387-6.111,10.128-7.355c2.741-1.244,5.607-1.529,8.597-0.852
				c2.988,0.677,5.719,2.356,8.151,5.02c2.124,2.332,3.464,4.792,4.008,7.378c0.552,2.595,0.433,5.214-0.346,7.851
				c-0.5,1.666-1.517,3.61-3.033,5.805c2.004-0.892,3.612-1.41,4.784-1.533c0.778-0.094,2.152,0.006,4.078,0.31
				c1.934,0.305,3.336,0.616,4.195,0.947l17.358,6.441l-14.649,13.363l-18.609-6.5c-2.39-0.862-4.167-1.219-5.305-1.089
				c-1.519,0.2-2.884,0.843-4.063,1.921l-1.144,1.041l15.531,17.024L276.683,421.007L276.683,421.007z M266.942,384.177l5.467-4.987
				c0.586-0.534,1.562-1.772,2.913-3.704c0.7-0.946,0.998-2.041,0.899-3.234c-0.099-1.191-0.567-2.258-1.399-3.172
				c-1.236-1.354-2.622-1.999-4.133-1.947c-1.515,0.055-3.469,1.17-5.829,3.324l-5.695,5.191L266.942,384.177L266.942,384.177z
				 M283.801,337.652l34.741-31.679l8.169,8.95l-21.746,19.838l6.085,6.668l20.169-18.399l7.806,8.561l-20.168,18.399l7.543,8.27
				l22.379-20.415l8.658,9.494l-35.372,32.268L283.801,337.652L283.801,337.652z M364.597,340.81l-38.265-41.946l21.603-19.704
				c4.002-3.652,7.385-6.108,10.126-7.353c2.741-1.248,5.606-1.53,8.597-0.855c2.988,0.677,5.72,2.359,8.149,5.022
				c2.126,2.327,3.465,4.789,4.012,7.375c0.551,2.596,0.432,5.217-0.347,7.848c-0.499,1.672-1.517,3.617-3.033,5.807
				c2.003-0.891,3.613-1.407,4.783-1.529c0.777-0.098,2.151,0.004,4.08,0.311c1.935,0.298,3.334,0.612,4.196,0.943l17.359,6.445
				l-14.649,13.363l-18.613-6.504c-2.388-0.857-4.167-1.221-5.304-1.088c-1.517,0.197-2.884,0.846-4.063,1.922l-1.141,1.043
				l15.531,17.025L364.597,340.81L364.597,340.81z M354.853,303.984l5.47-4.99c0.584-0.531,1.562-1.774,2.913-3.701
				c0.7-0.945,0.998-2.041,0.897-3.233c-0.097-1.196-0.566-2.262-1.399-3.176c-1.234-1.354-2.621-2.002-4.135-1.944
				c-1.514,0.052-3.467,1.167-5.829,3.319l-5.693,5.197L354.853,303.984L354.853,303.984z M372.255,256.959l12.997-11.84
				l38.263,41.944l-12.991,11.853L372.255,256.959L372.255,256.959z M394.519,236.648l34.74-31.675l8.169,8.953l-21.746,19.837
				l6.085,6.669l20.168-18.399l7.807,8.558l-20.168,18.399l7.543,8.269l22.378-20.411l8.659,9.494l-35.372,32.268L394.519,236.648
				L394.519,236.648z"/>
			<path style="fill-rule:evenodd;clip-rule:evenodd;fill:#ED1C24;" d="M247.947,605.015l-25.315-27.536l8.931-8.205
				c3.379-3.104,5.713-4.996,6.994-5.664c1.951-1.037,4.109-1.348,6.436-0.947c2.333,0.403,4.519,1.704,6.531,3.896
				c1.552,1.691,2.552,3.402,2.998,5.113c0.449,1.704,0.499,3.337,0.156,4.861c-0.342,1.522-0.903,2.851-1.685,3.953
				c-1.085,1.478-2.886,3.383-5.407,5.703l-3.624,3.331l9.548,10.382L247.947,605.015L247.947,605.015z M232.474,577.018
				l7.186,7.822l3.044-2.8c2.189-2.015,3.522-3.507,4-4.472c0.473-0.966,0.635-1.958,0.494-2.949
				c-0.141-0.998-0.591-1.912-1.336-2.722c-0.919-0.998-1.977-1.556-3.16-1.672c-1.186-0.103-2.318,0.168-3.365,0.836
				c-0.77,0.486-2.168,1.652-4.174,3.493L232.474,577.018L232.474,577.018z M273.445,581.58l-25.311-27.536l5.561-5.113
				l25.309,27.543L273.445,581.58L273.445,581.58z M284.323,571.587l-25.315-27.536l11.71-10.765
				c2.939-2.696,5.314-4.42,7.093-5.152c1.785-0.726,3.668-0.823,5.626-0.298c1.962,0.524,3.699,1.606,5.191,3.226
				c1.902,2.074,2.864,4.343,2.89,6.799c0.021,2.463-1.019,4.984-3.11,7.55c1.842-0.401,3.55-0.551,5.101-0.428
				c1.552,0.123,3.986,0.649,7.277,1.568l8.301,2.275l-6.656,6.117l-9.522-2.294c-3.392-0.829-5.617-1.283-6.652-1.361
				c-1.039-0.077-1.952,0.052-2.725,0.39c-0.779,0.337-1.809,1.088-3.09,2.267l-1.126,1.03l10.566,11.497L284.323,571.587
				L284.323,571.587z M275.273,550.576l4.119-3.771c2.663-2.449,4.228-4.102,4.687-4.926c0.457-0.836,0.626-1.711,0.49-2.599
				c-0.131-0.895-0.579-1.763-1.337-2.592c-0.851-0.921-1.791-1.445-2.803-1.563c-1.019-0.116-2.05,0.169-3.088,0.843
				c-0.504,0.356-1.897,1.568-4.146,3.636l-4.339,3.992L275.273,550.576L275.273,550.576z M336.93,523.24l-6.046,5.561l-8.153-4.05
				l-11.014,10.123l3.477,8.341l-5.897,5.424l-14.588-37.4l5.885-5.405L336.93,523.24L336.93,523.24z M316.679,521.75l-13.186-6.733
				l5.671,13.649L316.679,521.75L316.679,521.75z M348.201,494.2l6.967-3.24c1.934,3.766,2.615,7.265,2.032,10.479
				c-0.58,3.228-2.352,6.202-5.308,8.917c-3.658,3.364-7.816,4.881-12.459,4.543c-4.649-0.337-8.973-2.67-12.952-6.999
				c-4.215-4.582-6.305-9.234-6.269-13.946c0.042-4.712,1.989-8.847,5.842-12.385c3.37-3.098,7.025-4.621,10.959-4.563
				c2.334,0.026,4.832,0.862,7.476,2.483l-4.296,6.377c-1.634-1.128-3.355-1.627-5.143-1.504c-1.789,0.117-3.429,0.862-4.906,2.217
				c-2.038,1.873-3.023,4.135-2.952,6.759c0.078,2.638,1.624,5.6,4.637,8.879c3.198,3.481,6.111,5.393,8.717,5.716
				c2.608,0.331,4.926-0.433,6.925-2.267c1.482-1.361,2.324-3.001,2.518-4.919c0.201-1.919-0.389-4.103-1.782-6.539L348.201,494.2
				L348.201,494.2z M367.511,495.14L342.2,467.597l5.561-5.106l25.307,27.543L367.511,495.14L367.511,495.14z M386.684,458.835
				l6.964-3.234c1.937,3.76,2.615,7.259,2.032,10.479c-0.577,3.221-2.352,6.195-5.305,8.911c-3.662,3.363-7.819,4.88-12.463,4.55
				c-4.649-0.337-8.973-2.677-12.951-7.006c-4.213-4.582-6.303-9.235-6.268-13.946c0.039-4.712,1.987-8.84,5.843-12.385
				c3.37-3.098,7.022-4.621,10.956-4.563c2.333,0.032,4.831,0.861,7.479,2.489l-4.297,6.371c-1.633-1.121-3.357-1.627-5.145-1.504
				c-1.789,0.123-3.429,0.861-4.903,2.217c-2.041,1.879-3.026,4.135-2.955,6.766c0.078,2.631,1.624,5.6,4.638,8.878
				c3.198,3.481,6.111,5.386,8.716,5.71c2.612,0.331,4.926-0.428,6.925-2.269c1.481-1.36,2.323-3,2.521-4.912
				c0.201-1.918-0.393-4.109-1.782-6.546L386.684,458.835L386.684,458.835z M430.996,436.794l-6.05,5.56l-8.149-4.045
				l-11.014,10.123l3.476,8.342l-5.9,5.417l-14.585-37.394l5.884-5.408L430.996,436.794L430.996,436.794z M410.744,435.304
				l-13.185-6.727l5.671,13.641L410.744,435.304L410.744,435.304z M408.657,406.516l11.014-10.11
				c2.18-2.006,3.889-3.408,5.123-4.213c1.235-0.803,2.547-1.299,3.921-1.503c1.374-0.201,2.79-0.081,4.228,0.359
				c1.442,0.444,2.716,1.257,3.808,2.446c1.186,1.29,1.925,2.797,2.223,4.504c0.291,1.719,0.09,3.394-0.603,5.029
				c2.123-1.056,4.181-1.406,6.157-1.058c1.986,0.353,3.713,1.318,5.175,2.909c1.147,1.247,1.983,2.741,2.488,4.456
				c0.503,1.711,0.577,3.395,0.221,5.025c-0.359,1.637-1.199,3.221-2.531,4.74c-0.832,0.95-3.013,3.072-6.535,6.346l-9.378,8.619
				L408.657,406.516L408.657,406.516z M418.43,405.99l5.859,6.374l3.642-3.351c2.168-1.986,3.484-3.263,3.953-3.807
				c0.85-0.981,1.293-2.006,1.336-3.043c0.045-1.046-0.344-2.018-1.16-2.906c-0.781-0.849-1.656-1.328-2.609-1.432
				c-0.955-0.098-1.953,0.22-2.984,0.965c-0.605,0.444-2.223,1.867-4.838,4.272L418.43,405.99L418.43,405.99z M428.495,416.942
				l6.773,7.369l5.145-4.725c2.006-1.844,3.224-3.074,3.658-3.678c0.687-0.91,1.027-1.892,1.014-2.951
				c-0.014-1.056-0.477-2.081-1.371-3.053c-0.758-0.83-1.607-1.349-2.534-1.556c-0.929-0.208-1.898-0.101-2.893,0.333
				c-0.998,0.438-2.768,1.816-5.298,4.139L428.495,416.942L428.495,416.942z M486.582,385.712l-6.05,5.56l-8.153-4.044
				l-11.014,10.123l3.48,8.341l-5.901,5.418l-14.585-37.394l5.885-5.404L486.582,385.712L486.582,385.712z M466.326,384.225
				l-13.185-6.729l5.67,13.644L466.326,384.225L466.326,384.225z"/>
		</g>
	</g>
</g>
</svg>
