<?xml version="1.0" encoding="iso-8859-1"?>
<!-- Generator: Adobe Illustrator 23.0.1, SVG Export Plug-In . SVG Version: 6.00 Build 0)  -->
<svg version="1.1" xmlns="http://www.w3.org/2000/svg" xmlns:xlink="http://www.w3.org/1999/xlink" x="0px" y="0px"
	 viewBox="0 0 595.276 841.89" style="enable-background:new 0 0 595.276 841.89;" xml:space="preserve">
<g id="Grade" style="display:none;">
</g>
<g id="HQFL">
</g>
<g id="&#xC1;rea_de_trabalho">
</g>
<g id="Linhas-guia">
</g>
<g id="Page_1">
	<g id="HQFL_1_">
		<g>
			<path style="fill-rule:evenodd;clip-rule:evenodd;fill:#ED1C24;" d="M297.637,139.983h0.002
				c77.378,0,147.619,31.556,198.513,82.45c50.896,50.893,82.447,121.131,82.447,198.509v0.002v0.004
				c0,77.379-31.551,147.62-82.447,198.508c-50.894,50.895-121.132,82.45-198.509,82.45h-0.006h-0.001
				c-77.377,0-147.618-31.556-198.513-82.45c-50.894-50.893-82.445-121.129-82.447-198.508v-0.004v-0.002
				c0.001-77.378,31.555-147.621,82.448-198.513c50.894-50.89,121.133-82.446,198.509-82.446H297.637L297.637,139.983z"/>
			<path style="fill-rule:evenodd;clip-rule:evenodd;fill:#FFFFFF;" d="M297.639,151.892h-0.002h-0.004
				c-74.088,0-141.349,30.219-190.089,78.96c-48.741,48.74-78.959,116.003-78.959,190.091v0.002v0.004
				c0,74.087,30.217,141.35,78.959,190.091c48.741,48.74,116.001,78.958,190.092,78.958h0.001h0.006
				c74.086,0,141.348-30.218,190.088-78.958c48.741-48.741,78.959-116.004,78.959-190.091v-0.004v-0.002
				c0-74.089-30.218-141.351-78.959-190.091C438.991,182.111,371.729,151.892,297.639,151.892L297.639,151.892z"/>
			<path style="fill-rule:evenodd;clip-rule:evenodd;fill:#ED1C24;" d="M297.413,172.426c136.81,0,248.393,111.587,248.393,248.398
				c0,136.81-111.582,248.392-248.393,248.392c-136.812,0-248.395-111.582-248.395-248.392
				C49.018,284.012,160.601,172.426,297.413,172.426L297.413,172.426z"/>
			<path style="fill-rule:evenodd;clip-rule:evenodd;fill:#FFFFFF;" d="M228.217,208.545v424.816
				c11.827,4.447,21.94,6.393,35.484,8.444v-212.89h72.745v53.732h35.483V209.725C325.537,194.157,279.81,192.665,228.217,208.545
				L228.217,208.545z M263.701,395.074V236.59c24.248-4.864,48.497-4.78,72.745,0.253v158.232H263.701L263.701,395.074z"/>
			<path style="fill-rule:evenodd;clip-rule:evenodd;fill:#FFFFFF;" d="M385.433,215.402c13.132,5.945,25.741,12.24,36.481,19.787
				v327.598c57.615-54.393,85.042-136.169,44.722-224.809v-62.901c110.39,136.651,38.306,300.33-81.203,351.165V215.402
				L385.433,215.402z"/>
			<path style="fill-rule:evenodd;clip-rule:evenodd;fill:#FFFFFF;" d="M96.632,520.109l30.599-17.722
				c-11.323-24.88-16.77-49.675-17.68-73.472h71.474v53.732h32.954V214.453C108.073,254.269,34.079,390.936,96.632,520.109
				L96.632,520.109z M111.316,395.074c7.422-51.636,35.579-95.654,69.708-120.928v120.928H111.316L111.316,395.074z"/>
		</g>
	</g>
</g>
</svg>
