<?xml version="1.0" encoding="iso-8859-1"?>
<!-- Generator: Adobe Illustrator 23.0.1, SVG Export Plug-In . SVG Version: 6.00 Build 0)  -->
<svg version="1.1" xmlns="http://www.w3.org/2000/svg" xmlns:xlink="http://www.w3.org/1999/xlink" x="0px" y="0px"
	 viewBox="0 0 595.276 841.89" style="enable-background:new 0 0 595.276 841.89;" xml:space="preserve">
<g id="Grade" style="display:none;">
</g>
<g id="HQFL">
</g>
<g id="&#xC1;rea_de_trabalho">
</g>
<g id="Linhas-guia">
</g>
<g id="Page_1">
	<g id="HQFL_1_">
		<g>
			<path style="fill-rule:evenodd;clip-rule:evenodd;fill:#2E3192;" d="M297.638,174.775c115.5,0,209.701,94.201,209.701,209.7
				c0,115.499-94.201,209.701-209.701,209.701c-115.499,0-209.7-94.202-209.7-209.701
				C87.938,268.976,182.139,174.775,297.638,174.775L297.638,174.775z"/>
			<path style="fill-rule:evenodd;clip-rule:evenodd;fill:#2E3192;" d="M81.762,420.183
				C98.897,523.82,189.274,603.293,297.64,603.293c108.363,0,198.74-79.473,215.875-183.109l22.565,39.085l39.353-22.72
				C550.874,567.492,435.528,667.115,297.64,667.115c-137.892,0-253.238-99.623-277.797-230.566l39.353,22.72L81.762,420.183
				L81.762,420.183z"/>
			<path style="fill-rule:evenodd;clip-rule:evenodd;fill:#FFFFFF;" d="M109.592,384.476c0,9.685,0.751,19.194,2.174,28.491h18.461
				c-1.577-9.267-2.402-18.785-2.402-28.491c0-4.216,0.161-8.397,0.468-12.537h137.434v41.028h18.235V196.932
				C186.735,203.98,109.592,285.505,109.592,384.476L109.592,384.476z M265.727,217.689v136.015h-135.09
				C143.275,285.143,197.329,230.788,265.727,217.689L265.727,217.689z"/>
			<path style="fill-rule:evenodd;clip-rule:evenodd;fill:#FFFFFF;" d="M311.314,196.932v216.035h18.235v-41.028h137.434
				c0.306,4.141,0.468,8.321,0.468,12.537c0,9.706-0.826,19.224-2.402,28.491h18.463c1.423-9.297,2.174-18.806,2.174-28.491
				C485.685,285.505,408.54,203.977,311.314,196.932L311.314,196.932z M329.549,353.704V217.689
				c68.399,13.098,122.452,67.453,135.089,136.015H329.549L329.549,353.704z"/>
			<polygon style="fill-rule:evenodd;clip-rule:evenodd;fill:#FFFFFF;" points="154.203,508.685 186.779,480.379 192.489,486.955 
				159.923,515.269 154.203,508.685 			"/>
			<polygon style="fill-rule:evenodd;clip-rule:evenodd;fill:#FFFFFF;" points="182.044,534.769 204.117,506.515 194.025,498.634 
				198.528,492.875 225.548,513.992 221.054,519.742 210.983,511.882 188.91,540.126 182.044,534.769 			"/>
			<path style="fill-rule:evenodd;clip-rule:evenodd;fill:#FFFFFF;" d="M246.753,568.24l-8.796-3.549l0.181-10.504l-16.001-6.463
				l-6.976,7.76l-8.574-3.467l31.763-33.723l8.544,3.448L246.753,568.24L246.753,568.24z M238.268,546.398l0.482-17.088
				l-11.408,12.676L238.268,546.398L238.268,546.398z"/>
			<path style="fill-rule:evenodd;clip-rule:evenodd;fill:#FFFFFF;" d="M263.246,571.779l4.513-42.93l18.243,1.909
				c4.594,0.484,7.881,1.228,9.881,2.212c2,0.995,3.518,2.532,4.564,4.644c1.035,2.102,1.426,4.423,1.156,6.954
				c-0.333,3.228-1.559,5.791-3.679,7.691c-2.112,1.899-5.076,2.925-8.905,3.075c1.757,1.287,3.176,2.655,4.261,4.082
				c1.085,1.436,2.483,3.939,4.202,7.488l4.361,8.935l-10.363-1.095l-5.287-10.002c-1.879-3.569-3.176-5.829-3.91-6.784
				c-0.724-0.955-1.527-1.649-2.413-2.061c-0.883-0.424-2.322-0.734-4.311-0.945l-1.76-0.191l-1.89,17.932L263.246,571.779
				L263.246,571.779z M274.524,547.915l6.413,0.674c4.151,0.432,6.764,0.533,7.84,0.293c1.076-0.242,1.95-0.764,2.623-1.559
				c0.672-0.805,1.085-1.85,1.215-3.137c0.152-1.438-0.11-2.654-0.783-3.618c-0.684-0.964-1.708-1.649-3.097-2.03
				c-0.693-0.171-2.793-0.441-6.312-0.805l-6.764-0.713L274.524,547.915L274.524,547.915z"/>
			<path style="fill-rule:evenodd;clip-rule:evenodd;fill:#FFFFFF;" d="M356.331,565.797l-9.238,2.13l-5.879-8.703l-16.807,3.879
				l-1.267,10.355l-9.006,2.081l6.674-45.825l8.976-2.081L356.331,565.797L356.331,565.797z M336.851,552.771l-9.398-14.263
				l-2.071,16.906L336.851,552.771L336.851,552.771z"/>
			<path style="fill-rule:evenodd;clip-rule:evenodd;fill:#FFFFFF;" d="M371.536,559.667l-19.59-38.458l16.344-8.322
				c4.109-2.09,7.266-3.266,9.487-3.527c2.212-0.262,4.323,0.212,6.343,1.407c2.021,1.195,3.609,2.926,4.765,5.207
				c1.478,2.885,1.839,5.698,1.106,8.442c-0.744,2.744-2.673,5.217-5.801,7.428c2.182,0.121,4.113,0.493,5.801,1.107
				c1.687,0.611,4.221,1.939,7.599,3.989l8.523,5.105l-9.288,4.735l-9.881-5.51c-3.518-1.969-5.838-3.166-6.965-3.567
				c-1.136-0.401-2.181-0.542-3.155-0.413c-0.966,0.132-2.344,0.655-4.122,1.56l-1.578,0.803l8.182,16.054L371.536,559.667
				L371.536,559.667z M367.999,533.511l5.738-2.924c3.728-1.89,5.971-3.236,6.744-4.022c0.764-0.793,1.217-1.698,1.348-2.733
				c0.131-1.046-0.1-2.142-0.685-3.286c-0.663-1.299-1.537-2.172-2.633-2.614c-1.095-0.442-2.331-0.442-3.698-0.009
				c-0.674,0.23-2.584,1.145-5.73,2.754l-6.059,3.086L367.999,533.511L367.999,533.511z"/>
			<path style="fill-rule:evenodd;clip-rule:evenodd;fill:#FFFFFF;" d="M418.858,530.929l-29.432-31.562l23.4-21.82l4.984,5.338
				l-17.037,15.879l6.523,6.996l15.85-14.775l4.956,5.318l-15.842,14.775l8.012,8.594l17.629-16.445l4.968,5.318L418.858,530.929
				L418.858,530.929z M395.829,490.009l-3.025-9.207l6.775-6.321l0.09,11.95L395.829,490.009L395.829,490.009z"/>
			<polygon style="fill-rule:evenodd;clip-rule:evenodd;fill:#FFFFFF;" points="78.81,535.358 102.089,518.445 113.501,534.151 
				110.754,536.148 101.58,523.525 94.37,528.756 102.312,539.687 99.564,541.677 91.623,530.755 81.049,538.441 78.81,535.358 			
				"/>
			<path style="fill-rule:evenodd;clip-rule:evenodd;fill:#FFFFFF;" d="M130.526,552.64l2.639,2.74l-11.953,11.545
				c-2.086,2.012-3.962,3.371-5.643,4.082c-1.675,0.71-3.492,0.824-5.442,0.336c-1.956-0.491-3.893-1.731-5.822-3.726
				c-1.87-1.936-3.069-3.847-3.592-5.725c-0.522-1.882-0.408-3.691,0.349-5.445c0.757-1.75,2.231-3.68,4.43-5.797l11.954-11.553
				l2.648,2.74l-11.941,11.533c-1.803,1.742-2.962,3.182-3.491,4.342c-0.53,1.16-0.63,2.367-0.308,3.624
				c0.329,1.261,1.058,2.481,2.191,3.653c1.943,2.018,3.786,3.01,5.527,2.982c1.742-0.02,3.907-1.287,6.506-3.8L130.526,552.64
				L130.526,552.64z"/>
			<polygon style="fill-rule:evenodd;clip-rule:evenodd;fill:#FFFFFF;" points="121.505,583.269 139.618,560.901 142.652,563.361 
				140.18,590.433 154.399,572.87 157.241,575.167 139.128,597.534 136.091,595.076 138.578,567.992 124.345,585.568 
				121.505,583.269 			"/>
			<path style="fill-rule:evenodd;clip-rule:evenodd;fill:#FFFFFF;" d="M148.735,604.291l15.251-24.397l8.403,5.252
				c1.896,1.185,3.276,2.205,4.127,3.063c1.199,1.193,2.024,2.519,2.487,3.98c0.609,1.896,0.702,3.887,0.281,5.977
				c-0.416,2.092-1.306,4.223-2.667,6.398c-1.159,1.851-2.399,3.358-3.726,4.518c-1.327,1.167-2.627,2.004-3.887,2.519
				c-1.26,0.51-2.466,0.785-3.606,0.826c-1.138,0.031-2.365-0.17-3.678-0.598c-1.308-0.436-2.701-1.113-4.181-2.037L148.735,604.291
				L148.735,604.291z M153.767,603.433l5.206,3.25c1.608,1.006,2.969,1.648,4.067,1.916c1.104,0.276,2.097,0.308,2.981,0.109
				c1.247-0.288,2.485-0.945,3.72-1.972c1.233-1.024,2.425-2.459,3.577-4.303c1.595-2.551,2.399-4.775,2.42-6.666
				c0.019-1.896-0.429-3.451-1.335-4.664c-0.655-0.877-1.942-1.91-3.865-3.109l-5.126-3.202L153.767,603.433L153.767,603.433z"/>
			<path style="fill-rule:evenodd;clip-rule:evenodd;fill:#FFFFFF;" d="M175.849,620.715l21.792-21.786l3.746,1.67l-0.945,31.072
				l-3.959-1.771l0.482-9.32l-10.99-4.891l-6.434,6.674L175.849,620.715L175.849,620.715z M188.238,613.302l8.906,3.968l0.502-8.503
				c0.149-2.58,0.336-4.678,0.557-6.278c-1.08,1.533-2.299,3.001-3.645,4.388L188.238,613.302L188.238,613.302z"/>
			<path style="fill-rule:evenodd;clip-rule:evenodd;fill:#FFFFFF;" d="M208.44,634.566l8.891-27.361l9.423,3.063
				c2.13,0.691,3.712,1.348,4.743,1.977c1.454,0.865,2.579,1.958,3.377,3.264c1.045,1.688,1.621,3.592,1.716,5.721
				c0.1,2.132-0.248,4.417-1.039,6.856c-0.676,2.077-1.515,3.839-2.52,5.286c-1.004,1.447-2.063,2.573-3.163,3.378
				c-1.1,0.804-2.197,1.366-3.297,1.676c-1.099,0.308-2.337,0.415-3.712,0.308c-1.373-0.101-2.895-0.422-4.549-0.959L208.44,634.566
				L208.44,634.566z M213.11,632.515l5.843,1.896c1.802,0.583,3.27,0.877,4.409,0.877c1.133-0.006,2.104-0.215,2.915-0.623
				c1.14-0.583,2.178-1.514,3.129-2.807c0.953-1.293,1.763-2.977,2.433-5.039c0.931-2.861,1.173-5.213,0.737-7.057
				c-0.442-1.844-1.252-3.243-2.426-4.201c-0.845-0.689-2.346-1.387-4.503-2.084l-5.749-1.869L213.11,632.515L213.11,632.515z"/>
			<path style="fill-rule:evenodd;clip-rule:evenodd;fill:#FFFFFF;" d="M238.847,643.646l16.343-26.135l4.027,0.776l6.071,30.497
				l-4.263-0.824l-1.627-9.2l-11.814-2.292l-4.765,7.948L238.847,643.646L238.847,643.646z M249.253,633.633l9.576,1.856
				l-1.427-8.389c-0.435-2.555-0.724-4.637-0.865-6.252c-0.71,1.741-1.569,3.443-2.573,5.098L249.253,633.633L249.253,633.633z"/>
			<polygon style="fill-rule:evenodd;clip-rule:evenodd;fill:#FFFFFF;" points="283.036,649.744 283.538,620.976 304.337,621.344 
				304.277,624.736 287.291,624.441 287.137,633.251 303.045,633.527 302.991,636.905 287.075,636.623 286.903,646.418 
				304.566,646.728 304.505,650.119 283.036,649.744 			"/>
			<path style="fill-rule:evenodd;clip-rule:evenodd;fill:#FFFFFF;" d="M315.224,649.731l-3.505-28.561l5.682-0.695l9.247,19.393
				c0.852,1.803,1.481,3.155,1.877,4.055c0.201-1.08,0.516-2.668,0.959-4.766l4.402-20.707l5.078-0.621l3.506,28.553l-3.64,0.449
				l-2.935-23.896l-5.361,24.913l-3.41,0.423L315.88,624.97l2.982,24.31L315.224,649.731L315.224,649.731z"/>
			<path style="fill-rule:evenodd;clip-rule:evenodd;fill:#FFFFFF;" d="M380.063,633.284l0.992,3.252l-18.185,5.56
				c-0.276-0.804-0.382-1.627-0.328-2.465c0.088-1.381,0.455-2.828,1.105-4.344c0.657-1.514,1.702-3.35,3.148-5.52
				c2.238-3.364,3.666-5.924,4.281-7.681c0.609-1.754,0.726-3.269,0.337-4.543c-0.409-1.338-1.233-2.324-2.473-2.948
				c-1.24-0.63-2.627-0.71-4.168-0.241c-1.629,0.502-2.781,1.388-3.458,2.66c-0.678,1.273-0.757,2.781-0.242,4.51l-3.585,0.703
				c-0.548-2.659-0.261-4.91,0.879-6.74c1.133-1.836,3.009-3.148,5.628-3.947c2.64-0.81,4.953-0.717,6.943,0.274
				c1.983,0.999,3.31,2.573,3.967,4.738c0.342,1.106,0.441,2.259,0.32,3.458c-0.127,1.199-0.529,2.545-1.219,4.049
				c-0.683,1.492-1.923,3.637-3.725,6.432c-1.507,2.318-2.46,3.874-2.849,4.656c-0.389,0.784-0.676,1.543-0.863,2.265
				L380.063,633.284L380.063,633.284z"/>
			<path style="fill-rule:evenodd;clip-rule:evenodd;fill:#FFFFFF;" d="M384.671,620.226c-1.272-3.158-1.969-5.825-2.102-8.015
				c-0.129-2.187,0.241-4.056,1.098-5.616c0.857-1.562,2.259-2.734,4.201-3.519c1.434-0.583,2.801-0.796,4.113-0.657
				c1.314,0.135,2.541,0.61,3.686,1.408c1.141,0.802,2.232,1.902,3.258,3.304c1.031,1.394,2.084,3.417,3.15,6.066
				c1.265,3.129,1.963,5.781,2.096,7.967c0.135,2.183-0.227,4.061-1.078,5.628c-0.858,1.562-2.265,2.741-4.215,3.532
				c-2.573,1.037-4.966,0.931-7.184-0.315C389.04,628.494,386.702,625.236,384.671,620.226L384.671,620.226z M388.042,618.864
				c1.769,4.384,3.457,7.091,5.072,8.122c1.608,1.039,3.17,1.253,4.671,0.644c1.507-0.609,2.479-1.85,2.915-3.721
				c0.435-1.869-0.228-4.984-1.989-9.354c-1.776-4.395-3.472-7.103-5.08-8.135c-1.608-1.033-3.177-1.241-4.704-0.617
				c-1.508,0.603-2.445,1.728-2.834,3.363C385.624,611.251,386.272,614.482,388.042,618.864L388.042,618.864z"/>
			<polygon style="fill-rule:evenodd;clip-rule:evenodd;fill:#FFFFFF;" points="414.206,623.588 407.605,593.394 410.099,592.069 
				416.718,622.248 414.206,623.588 			"/>
			<path style="fill-rule:evenodd;clip-rule:evenodd;fill:#FFFFFF;" d="M441.683,607.361l-2.963,1.922L426.458,590.4
				c-0.268,1.146-0.763,2.434-1.481,3.866c-0.717,1.435-1.421,2.619-2.123,3.559l-1.856-2.869c1.146-1.855,1.982-3.74,2.506-5.648
				c0.516-1.918,0.696-3.565,0.537-4.939l1.908-1.238L441.683,607.361L441.683,607.361z"/>
			<path style="fill-rule:evenodd;clip-rule:evenodd;fill:#FFFFFF;" d="M445.01,588.154c-2.138-2.646-3.591-4.991-4.349-7.042
				c-0.764-2.057-0.965-3.952-0.596-5.695c0.363-1.743,1.359-3.277,2.989-4.598c1.198-0.971,2.445-1.582,3.745-1.829
				c1.293-0.248,2.606-0.16,3.932,0.276c1.327,0.43,2.688,1.165,4.082,2.197c1.394,1.039,2.989,2.668,4.785,4.879
				c2.124,2.627,3.571,4.965,4.336,7.016c0.769,2.043,0.971,3.947,0.608,5.696c-0.36,1.747-1.36,3.282-2.995,4.61
				c-2.158,1.741-4.476,2.344-6.955,1.795C451.605,594.789,448.414,592.356,445.01,588.154L445.01,588.154z M447.838,585.87
				c2.969,3.67,5.382,5.769,7.223,6.284c1.843,0.523,3.398,0.268,4.658-0.751c1.261-1.024,1.829-2.491,1.702-4.408
				c-0.134-1.917-1.682-4.705-4.643-8.363c-2.982-3.685-5.395-5.783-7.23-6.299c-1.844-0.514-3.404-0.254-4.686,0.784
				c-1.258,1.026-1.836,2.372-1.721,4.055C443.295,579.296,444.862,582.198,447.838,585.87L447.838,585.87z"/>
			<polygon style="fill-rule:evenodd;clip-rule:evenodd;fill:#FFFFFF;" points="474.899,583.31 460.705,555.855 462.777,553.932 
				476.983,581.365 474.899,583.31 			"/>
			<path style="fill-rule:evenodd;clip-rule:evenodd;fill:#FFFFFF;" d="M482.415,565.003l2.244-2.963
				c1.527,0.998,2.963,1.433,4.309,1.301c1.348-0.134,2.492-0.73,3.438-1.775c1.14-1.268,1.621-2.769,1.46-4.496
				c-0.167-1.736-1.039-3.31-2.612-4.732c-1.494-1.346-3.057-1.99-4.68-1.93c-1.619,0.06-3.047,0.777-4.275,2.139
				c-0.763,0.845-1.252,1.783-1.487,2.807c-0.228,1.025-0.207,2.012,0.054,2.949l-2.539,2.178l-9.12-11.961l9.574-10.635
				l2.507,2.258l-7.678,8.537l4.705,6.326c0.261-2.092,1.031-3.84,2.298-5.247c1.683-1.869,3.746-2.861,6.199-2.981
				c2.445-0.12,4.691,0.737,6.721,2.566c1.938,1.742,3.096,3.812,3.492,6.212c0.495,2.927-0.322,5.581-2.459,7.954
				c-1.75,1.941-3.727,3.041-5.926,3.29C486.448,567.047,484.37,566.449,482.415,565.003L482.415,565.003z"/>
			<path style="fill-rule:evenodd;clip-rule:evenodd;fill:#FFFFFF;" d="M495.095,541.093c-2.754-2.004-4.756-3.893-6.024-5.676
				c-1.265-1.789-1.951-3.57-2.051-5.346c-0.101-1.784,0.469-3.52,1.695-5.207c0.912-1.254,1.957-2.164,3.142-2.742
				c1.187-0.576,2.479-0.829,3.874-0.756c1.394,0.078,2.894,0.435,4.511,1.071c1.614,0.636,3.577,1.796,5.882,3.472
				c2.734,1.99,4.732,3.867,6.006,5.649c1.266,1.782,1.955,3.565,2.057,5.348c0.107,1.775-0.463,3.525-1.696,5.227
				c-1.636,2.244-3.718,3.425-6.258,3.533C503.185,545.791,499.471,544.27,495.095,541.093L495.095,541.093z M497.232,538.152
				c3.82,2.781,6.688,4.182,8.605,4.202c1.909,0.026,3.344-0.618,4.301-1.931c0.953-1.312,1.12-2.874,0.496-4.697
				c-0.617-1.815-2.834-4.107-6.639-6.875c-3.834-2.788-6.709-4.188-8.617-4.208c-1.91-0.02-3.352,0.636-4.317,1.97
				c-0.951,1.312-1.159,2.761-0.615,4.355C491.148,532.984,493.407,535.378,497.232,538.152L497.232,538.152z"/>
		</g>
	</g>
</g>
</svg>
