<?xml version="1.0" encoding="iso-8859-1"?>
<!-- Generator: Adobe Illustrator 23.0.1, SVG Export Plug-In . SVG Version: 6.00 Build 0)  -->
<svg version="1.1" xmlns="http://www.w3.org/2000/svg" xmlns:xlink="http://www.w3.org/1999/xlink" x="0px" y="0px"
	 viewBox="0 0 595.276 841.89" style="enable-background:new 0 0 595.276 841.89;" xml:space="preserve">
<g id="Grade" style="display:none;">
</g>
<g id="HQFL">
</g>
<g id="&#xC1;rea_de_trabalho">
</g>
<g id="Linhas-guia">
</g>
<g id="Page_1">
	<g id="HQFL_1_">
		<g>
			<path style="fill-rule:evenodd;clip-rule:evenodd;fill:#ED1C24;" d="M565.929,218.696l9.459-10.801l-71.904-71.975l-13.693,4.773
				c-61.969,21.601-129.16,24.597-182.541,4.037l-9.611-3.701l-9.611,3.701c-53.38,20.56-120.571,17.564-182.54-4.037l-13.693-4.773
				l-71.906,71.975l9.46,10.801c21.201,24.206,37.47,67.917,37.47,105.025c0,64.632-46.024,93.58-46.024,161.663
				c0,41.366,14.834,76.19,39.956,101.313c53.177,53.177,175.544,53.732,219.784,97.971c2.4,2.4,4.627,4.961,6.681,7.65
				l10.424,13.65l10.423-13.65c2.053-2.69,4.281-5.25,6.682-7.65c44.238-44.238,166.605-44.794,219.783-97.971
				c25.123-25.123,39.955-59.947,39.955-101.313c0-68.083-46.022-97.031-46.022-161.663
				C528.46,286.613,544.728,242.902,565.929,218.696L565.929,218.696z"/>
			<path style="fill-rule:evenodd;clip-rule:evenodd;fill:#FFFFFF;" d="M497.392,162.502c0,0,31.09,31.118,46.545,46.587
				c-22.936,29.506-38.572,75.45-38.572,114.633c0,37.181,13.209,64.526,24.863,88.652c11.354,23.51,21.16,43.813,21.16,73.011
				c0,33.882-11.477,63.268-33.191,84.984c-23.59,23.59-67.1,36.082-109.176,48.162c-43.859,12.592-85.285,24.486-110.608,49.808
				c-0.265,0.266-0.512,0.561-0.774,0.829c-0.263-0.268-0.51-0.564-0.774-0.829c-25.323-25.322-66.749-37.217-110.608-49.808
				c-42.077-12.08-85.586-24.572-109.176-48.162c-21.714-21.715-33.191-51.102-33.191-84.984c0-29.198,9.807-49.501,21.162-73.011
				c11.653-24.126,24.861-51.471,24.861-88.652c0-39.182-15.636-85.127-38.571-114.633c15.454-15.469,46.544-46.587,46.544-46.587
				c69.476,24.217,141.806,25.595,198.443,3.78c0,0,1.002-0.386,1.311-0.505c0.309,0.119,1.312,0.506,1.312,0.506
				C355.585,188.097,427.915,186.718,497.392,162.502L497.392,162.502z"/>
			<polygon style="fill-rule:evenodd;clip-rule:evenodd;fill:#20419A;" points="220.903,467.664 236.308,467.664 236.308,451.395 
				220.903,451.395 220.903,467.664 			"/>
			<path style="fill-rule:evenodd;clip-rule:evenodd;fill:#20419A;" d="M146.666,314.397l-44.806,155.834h20.359l7.952-28.256
				h51.176l7.319,28.256h21.565l-42.186-155.834H146.666L146.666,314.397z M135.54,422.897l21.28-75.612l19.585,75.612H135.54
				L135.54,422.897z"/>
			<polygon style="fill-rule:evenodd;clip-rule:evenodd;fill:#20419A;" points="365.152,467.664 380.556,467.664 380.556,451.395 
				365.152,451.395 365.152,467.664 			"/>
			<polygon style="fill-rule:evenodd;clip-rule:evenodd;fill:#20419A;" points="478.013,451.395 478.013,467.664 493.417,467.664 
				493.417,451.395 478.013,451.395 			"/>
			<path style="fill-rule:evenodd;clip-rule:evenodd;fill:#20419A;" d="M479.335,354.347c0-10.006-0.395-20.467-6.707-28.608
				c-8.955-11.551-25.285-11.341-38.729-11.341h-38.297v155.834h20.117v-58.698h18.178c12.861,0,28.301,0.261,37.557-9.921
				c7.412-8.155,7.881-19.427,7.881-30.028V354.347L479.335,354.347z M457.968,375.69c0,5.541-0.285,10.939-5.379,13.988
				c-4.776,2.859-14.082,2.777-20.996,2.777H415.72v-58.773h15.875c7.322,0,19.621-1.417,24.236,5.489
				c2.191,3.281,2.137,6.964,2.137,10.858V375.69L457.968,375.69z"/>
			<path style="fill-rule:evenodd;clip-rule:evenodd;fill:#20419A;" d="M290.916,314.397l-44.806,155.834h20.358l7.952-28.256
				h51.176l7.318,28.256h21.566l-42.187-155.834H290.916L290.916,314.397z M279.789,422.897l21.279-75.612l19.586,75.612H279.789
				L279.789,422.897z"/>
		</g>
	</g>
</g>
</svg>
