<?xml version="1.0" encoding="iso-8859-1"?>
<!-- Generator: Adobe Illustrator 23.0.1, SVG Export Plug-In . SVG Version: 6.00 Build 0)  -->
<svg version="1.1" xmlns="http://www.w3.org/2000/svg" xmlns:xlink="http://www.w3.org/1999/xlink" x="0px" y="0px"
	 viewBox="0 0 595.276 841.89" style="enable-background:new 0 0 595.276 841.89;" xml:space="preserve">
<g id="Grade" style="display:none;">
</g>
<g id="HQFL">
</g>
<g id="&#xC1;rea_de_trabalho">
</g>
<g id="Linhas-guia">
</g>
<g id="Page_1">
	<g id="HQFL_1_">
		<g>
			<path style="fill-rule:evenodd;clip-rule:evenodd;fill:#034EA2;" d="M297.649,700.341
				c-57.888-64.152-115.02-58.536-139.103-62.748C106.273,627.764,62.318,587.049,55.73,527
				c-11.88-104.868-4.969-200.339,18.791-274.967L54.649,228.38v-33.911c84.025-39.744,163.837-52.92,243-52.92
				c79.379,0,159.3,13.176,243.324,52.92v33.911l-21.276,23.653C543.351,326.661,551.772,421.7,539.894,527
				c-7.019,60.049-50.543,100.764-102.816,110.593C412.993,641.805,355.753,636.188,297.649,700.341L297.649,700.341z"/>
			<path style="fill-rule:evenodd;clip-rule:evenodd;fill:#EE3524;" d="M125.498,600.224c-23.004-17.172-36.289-37.368-43.2-66.311
				c-10.477-72.145-8.101-145.692,2.376-217.837l6.264-29.268l20.628-90.936l13.932-4.211c111.24-35.533,233.495-35.533,345.816,0
				l10.045,2.808c9.071,33.047,30.347,118.476,35.531,152.712c5.939,61.884,7.777,125.063-1.295,186.732
				c-9.074,43.955-46.117,76.355-90.721,80.244c-48.817,2.808-90.289,19.116-126.793,51.947
				c-36.611-32.831-78.083-49.14-126.899-51.947C155.846,612.752,138.783,606.812,125.498,600.224L125.498,600.224z"/>
			<polygon style="fill-rule:evenodd;clip-rule:evenodd;fill:#FFF200;" points="125.498,296.744 469.478,296.744 469.478,569.228 
				300.89,629.6 125.498,569.228 125.498,296.744 			"/>
			<polygon style="fill-rule:evenodd;clip-rule:evenodd;fill:#FFFFFF;" points="123.769,382.713 470.666,382.713 470.666,544.064 
				123.769,544.064 123.769,382.713 			"/>
			<path style="fill-rule:evenodd;clip-rule:evenodd;fill:#00A651;" d="M500.257,335.193
				c-8.316-42.876-19.871-86.832-30.347-129.384c-14.257-5.293-29.376-9.612-44.821-13.177
				c-38.663-8.748-79.919-12.636-117.179-13.607c-3.349-0.108-6.804-0.217-10.153-0.217c-42.229-0.433-84.24,5.508-125.388,14.904
				c-16.74,3.888-33.264,8.317-49.572,13.175l-19.225,82.945c-8.963,45.144-13.283,91.585-13.932,137.916v22.789
				c0.324,18.467,1.081,36.827,2.376,55.079l3.24,25.057c11.341,42.984,36.072,63.827,77.112,69.229
				c2.917,0.323,5.94,0.647,8.963,0.862c43.632,4.537,82.296,19.225,116.101,47.089c0.108-0.108,0.215-0.217,0.324-0.323
				c36.827-29.701,78.515-43.957,125.495-47.413c0.541-0.109,1.188-0.109,1.836-0.215c13.608-1.405,26.244-7.021,38.232-13.069
				c49.465-35.856,42.553-87.48,44.605-146.123C506.52,405.824,506.197,369.213,500.257,335.193L500.257,335.193z M209.198,587.913
				c-11.88-0.433-23.868-2.053-36.828-6.481c-7.452-2.592-15.228-6.155-23.436-11.015c-14.364-84.673-21.275-169.128-0.324-250.236
				c7.992-3.132,15.876-5.185,23.76-6.696c12.421-2.376,24.733-3.564,36.828-5.508C170.209,400.965,175.07,494.06,209.198,587.913
				L209.198,587.913z M343.333,602.492c-17.388,8.425-33.372,18.899-45.575,27.973c-12.203-9.504-27.541-21.276-45.684-30.024
				c-24.407-95.147-40.392-186.192-0.324-289.332c12.744-5.399,29.376-8.101,46.008-8.101c16.632,0,33.263,2.701,45.901,8.101
				C383.833,414.248,367.741,507.021,343.333,602.492L343.333,602.492z M448.957,570.417c-8.423,4.967-16.307,8.531-23.868,11.124
				c-12.742,4.319-24.624,5.939-36.396,6.372c34.128-93.853,39.097-186.948,0-279.936c11.988,1.944,24.083,3.023,36.396,5.399
				c7.992,1.62,16.093,3.673,24.301,6.805C469.261,406.256,461.918,490.604,448.957,570.417L448.957,570.417z"/>
			<path style="fill-rule:evenodd;clip-rule:evenodd;fill:#EE3524;" d="M297.649,264.022c66.529-0.649,117.397,8.746,160.273,20.628
				c-3.78-24.085-7.669-48.492-11.124-72.577c-51.947-15.336-100.764-19.872-149.149-19.116
				c-48.06,0.648-97.308,5.509-149.256,20.845c-3.455,24.083-7.235,48.492-11.124,72.575
				C180.145,274.496,230.69,264.778,297.649,264.022L297.649,264.022z"/>
			<path style="fill-rule:evenodd;clip-rule:evenodd;fill:#FFFFFF;" d="M438.158,251.817c-0.649,3.78-1.296,6.912-2.052,9.396
				c-0.649,2.051-1.729,3.779-3.457,4.859c-1.295,1.404-3.456,1.729-6.48,1.081c-4.213-1.081-6.589-3.132-7.236-6.266
				c-0.756-3.132-0.756-7.343,0-12.959v-0.647l0.647-5.293c0,0,0-0.323,0-0.647c0-0.756,0.325-1.729,0.325-2.808
				c0.431-1.405,0.756-2.376,1.079-4.213c0.324-1.727,0.649-3.132,0.972-4.535c0.756-0.973,1.405-2.053,1.729-2.7
				c1.079-1.837,2.808-2.485,3.888-2.808c1.297-0.325,2.699,0,4.105,0.323c3.023,0.324,4.752,2.053,6.155,4.212
				c1.081,2.376,1.729,4.86,1.729,7.345c0,2.699,0,5.831-0.647,8.963L438.158,251.817L438.158,251.817z"/>
			<path style="fill-rule:evenodd;clip-rule:evenodd;fill:#FFFFFF;" d="M399.603,219.417l5.508,0.971l3.455,20.628l1.728,12.529
				c0.324-6.589,0.324-11.124,0.647-13.933c0.433-2.807,0.433-5.616,0.756-8.424l0.973-9.072l5.508,1.08l-4.752,40.067l-5.508-0.971
				l-3.78-20.952l-1.08-11.556c-0.324,4.211-0.647,8.099-0.647,11.556c-0.433,3.779-0.757,7.02-1.081,9.072l-0.971,10.151
				l-5.617-1.08L399.603,219.417L399.603,219.417z"/>
			<polygon style="fill-rule:evenodd;clip-rule:evenodd;fill:#FFFFFF;" points="383.077,216.609 390.638,218.012 393.122,259.485 
				387.182,258.406 386.858,247.929 380.378,246.956 377.569,256.677 372.062,255.597 383.077,216.609 			"/>
			<polygon style="fill-rule:evenodd;clip-rule:evenodd;fill:#FFFFFF;" points="377.245,222.116 370.658,221.144 367.957,255.597 
				362.772,254.948 365.15,220.388 358.993,219.74 359.317,213.477 377.569,216.177 377.245,222.116 			"/>
			<polygon style="fill-rule:evenodd;clip-rule:evenodd;fill:#FFFFFF;" points="342.038,212.072 357.589,213.801 357.265,220.065 
				347.222,218.661 346.573,228.38 355.862,229.785 355.538,235.725 346.249,234.752 345.493,247.282 355.538,248.361 
				354.782,254.624 339.662,252.465 342.038,212.072 			"/>
			<polygon style="fill-rule:evenodd;clip-rule:evenodd;fill:#FFFFFF;" points="324.65,210.992 332.103,211.317 338.257,252.14 
				332.103,252.14 331.02,241.665 324.65,241.341 322.922,251.817 317.089,251.817 324.65,210.992 			"/>
			<path style="fill-rule:evenodd;clip-rule:evenodd;fill:#FFFFFF;" d="M311.581,223.196c0-4.859-0.756-7.344-2.482-7.344
				c-2.701-0.648-4.105,1.728-4.105,7.02l-0.323,13.933c-0.323,2.807,0,5.183,0.647,6.587c0.324,1.405,1.404,2.161,2.376,2.161
				c1.405,0,2.485-0.756,2.808-2.161c0.324-0.971,0.649-3.455,0.649-6.911l5.939,0.324c-0.431,2.807-0.431,5.183-0.756,7.345
				c-0.324,2.051-0.971,3.779-2.376,5.508c-1.403,1.835-3.132,2.483-5.831,2.483c-2.484,0-4.212-0.647-5.94-1.727
				c-1.296-1.405-2.376-3.132-2.7-5.616c-0.649-2.376-0.649-5.94-0.649-10.045l0.325-7.019c0-4.536,0.324-7.992,0.972-10.8
				c0.432-2.484,1.729-4.212,2.807-5.616c1.729-0.972,3.456-1.728,5.831-1.728c3.134,0,5.51,1.403,6.59,3.456
				c1.296,2.808,2.052,5.94,1.727,10.477L311.581,223.196L311.581,223.196z"/>
			<path style="fill-rule:evenodd;clip-rule:evenodd;fill:#FFFFFF;" d="M283.286,234.32c0,3.889,0,7.021-0.325,9.504
				c-0.324,2.052-1.403,4.105-2.376,5.833c-1.403,1.835-3.456,2.483-6.264,2.483c-4.428,0.325-7.236-1.079-8.207-3.779
				c-1.08-2.808-1.729-7.02-2.161-12.636v-0.973l-0.324-4.967v-0.324c0,0,0-0.325,0-0.649c0-0.756,0-1.403,0-2.809
				c0-1.079,0.324-2.483,0.324-4.211c0-1.729,0.432-3.456,0.756-4.537c0-1.403,0.325-2.376,0.649-3.132
				c1.403-2.052,2.376-3.455,3.456-3.779c1.403-1.081,2.808-1.081,4.104-1.081c3.132-0.323,5.184,0.649,6.911,2.485
				c1.405,1.728,2.052,4.104,2.808,6.589c0.324,2.807,0.649,5.941,0.649,9.072V234.32L283.286,234.32z"/>
			<path style="fill-rule:evenodd;clip-rule:evenodd;fill:#FFFFFF;" d="M243.326,209.264c0-1.403,0.324-3.132,1.405-4.535
				c0.648-1.404,2.053-2.052,3.024-2.052c0.756-0.433,1.728,0,2.808,0.323c1.403,0.649,2.052,0.973,2.376,0.973
				c1.079,0,2.052-0.973,2.052-2.376l2.808-0.323c-0.649,4.103-1.729,6.587-4.105,6.911c-0.756,0-1.728-0.324-3.132-0.324
				c-1.08-0.648-2.376-1.079-3.132-1.079c-0.324,0-0.647,0.431-0.973,0.756c-0.324,0.323-0.324,0.971-0.756,1.727H243.326
				L243.326,209.264z"/>
			<polygon style="fill-rule:evenodd;clip-rule:evenodd;fill:#FFFFFF;" points="247.106,211.748 254.666,211.317 262.982,251.817 
				257.149,252.14 254.99,241.988 248.833,242.421 247.43,252.789 241.598,253.221 247.106,211.748 			"/>
			<path style="fill-rule:evenodd;clip-rule:evenodd;fill:#FFFFFF;" d="M232.957,226.328c-0.324-4.859-1.295-7.344-3.779-6.911
				c-0.649,0.323-1.405,0.647-2.052,1.296c-0.324,0.756-0.647,1.836-0.647,2.809c0.324,1.727,0.971,3.564,2.376,4.535
				c1.727,1.079,3.132,2.16,4.859,3.563c1.728,0.973,3.025,2.7,4.104,3.781c1.405,1.727,2.052,3.455,2.052,5.184
				c0.756,4.535,0.324,8.099-0.973,10.475c-1.403,2.484-3.456,3.888-5.94,4.213c-3.023,0.756-5.508,0-7.56-1.405
				c-1.727-1.403-3.132-4.536-3.132-9.395c0-1.404,0-2.052,0-2.808l5.184-0.649c0,0.325,0,0.649,0.324,0.649
				c0,0.323,0,0.756,0,0.756c0,0.323-0.324,0.648-0.324,0.971c0.324,4.213,1.729,6.265,4.213,6.265
				c0.647-0.325,0.971-0.649,1.727-0.649c0-0.323,0.649-1.079,0.973-1.726c0-0.756,0.324-1.729,0-2.809
				c0-2.052-0.973-4.213-2.7-5.616c-1.405-0.973-2.808-2.052-4.213-3.132c-1.296-0.973-2.376-2.052-3.023-2.807
				c-1.08-0.973-1.729-2.376-2.161-3.781c-0.971-1.403-1.295-2.807-1.295-4.858c0-6.266,2.376-10.153,7.235-10.801
				c6.157-1.079,9.612,2.7,10.26,10.801v1.403L232.957,226.328L232.957,226.328z"/>
			<polygon style="fill-rule:evenodd;clip-rule:evenodd;fill:#FFFFFF;" points="212.329,249.657 217.837,249.008 218.486,256.353 
				212.978,257 212.329,249.657 			"/>
			<path style="fill-rule:evenodd;clip-rule:evenodd;fill:#FFFFFF;" d="M186.517,220.065l10.692-1.728
				c3.349-0.325,5.508,1.08,7.236,4.212c1.729,2.376,2.376,7.992,2.7,15.335c0.325,3.132,0.325,5.941,0.325,7.992
				c0,2.053-0.325,4.213-0.649,5.941c-0.324,2.052-1.08,3.457-2.052,4.86c-0.756,1.079-2.483,2.052-4.211,2.484l-10.583,1.403
				L186.517,220.065L186.517,220.065z"/>
			<polygon style="fill-rule:evenodd;clip-rule:evenodd;fill:#FFFFFF;" points="178.202,255.274 183.709,254.624 184.465,261.537 
				179.283,262.616 178.202,255.274 			"/>
			<polygon style="fill-rule:evenodd;clip-rule:evenodd;fill:#FFFFFF;" points="157.25,227.085 164.81,225.248 176.474,264.022 
				170.642,264.992 167.833,255.274 161.354,257 161.354,267.477 155.521,268.88 157.25,227.085 			"/>
			<path style="fill-rule:evenodd;clip-rule:evenodd;fill:#ED1C24;" d="M192.35,225.248l2.376,28.62l3.132-0.647
				c1.403,0,2.376-1.081,2.7-2.16c0.756-0.972,1.08-2.7,1.08-4.535c0-2.053,0-4.86-0.324-8.642
				c-0.324-4.967-1.08-8.423-1.729-10.475c-0.647-2.161-1.727-2.809-3.132-2.484L192.35,225.248L192.35,225.248z"/>
			<polygon style="fill-rule:evenodd;clip-rule:evenodd;fill:#ED1C24;" points="166.213,249.657 162.758,236.481 161.354,230.217 
				161.678,236.805 161.354,250.737 166.213,249.657 			"/>
			<polygon style="fill-rule:evenodd;clip-rule:evenodd;fill:#ED1C24;" points="330.05,235.402 328.646,221.793 328.321,215.53 
				327.997,215.53 327.241,221.793 325.19,235.402 330.05,235.402 			"/>
			<polygon style="fill-rule:evenodd;clip-rule:evenodd;fill:#ED1C24;" points="254.017,235.725 251.642,222.549 250.886,216.177 
				250.562,222.549 249.158,236.157 254.017,235.725 			"/>
			<path style="fill-rule:evenodd;clip-rule:evenodd;fill:#ED1C24;" d="M269.461,223.522l0.432,14.688
				c0,5.183,1.729,7.667,4.105,7.667c2.7,0,3.779-2.807,3.779-7.992l-0.324-13.931c0-1.836-0.324-3.888-0.756-5.615
				c-0.647-1.728-2.052-2.807-3.347-2.807c-1.405,0-2.484,0.647-3.133,2.051C269.461,218.985,269.138,221.144,269.461,223.522
				L269.461,223.522z"/>
			<path style="fill-rule:evenodd;clip-rule:evenodd;fill:#ED1C24;" d="M425.847,237.452l-1.729,14.687
				c-0.756,4.86,0.323,7.992,3.023,8.425c2.484,0.648,4.213-1.403,4.859-6.696l1.729-13.932c0.324-1.727,0.324-3.456,0-5.185
				c-0.323-2.484-1.404-3.563-2.808-3.888c-1.296-0.323-2.376,0-3.024,1.403C426.817,233.349,426.17,235.076,425.847,237.452
				L425.847,237.452z"/>
			<polygon style="fill-rule:evenodd;clip-rule:evenodd;fill:#ED1C24;" points="386.534,241.988 386.209,227.733 386.209,221.469 
				385.13,227.733 381.674,241.016 386.534,241.988 			"/>
		</g>
	</g>
</g>
</svg>
