<?xml version="1.0" encoding="iso-8859-1"?>
<!-- Generator: Adobe Illustrator 23.0.1, SVG Export Plug-In . SVG Version: 6.00 Build 0)  -->
<svg version="1.1" xmlns="http://www.w3.org/2000/svg" xmlns:xlink="http://www.w3.org/1999/xlink" x="0px" y="0px"
	 viewBox="0 0 595.276 841.89" style="enable-background:new 0 0 595.276 841.89;" xml:space="preserve">
<g id="Grade" style="display:none;">
</g>
<g id="HQFL">
</g>
<g id="&#xC1;rea_de_trabalho">
</g>
<g id="Linhas-guia">
</g>
<g id="Page_1">
	<g id="HQFL_1_">
		<g>
			<path style="fill-rule:evenodd;clip-rule:evenodd;fill:#ED1C24;" d="M104.894,282.568c-26.113,17.298-46.755,37.626-61.353,60.42
				c-15.725,24.555-23.698,50.785-23.698,77.958c0,27.172,7.973,53.4,23.698,77.957c14.598,22.793,35.24,43.121,61.353,60.419
				c51.945,34.407,120.396,53.357,192.745,53.357c72.348,0,140.799-18.95,192.743-53.357c26.113-17.298,46.755-37.626,61.353-60.42
				c15.725-24.556,23.698-50.784,23.698-77.956c0-27.173-7.973-53.402-23.698-77.957c-14.598-22.795-35.239-43.123-61.353-60.421
				c-51.944-34.407-120.395-53.357-192.743-53.357C225.29,229.211,156.839,248.16,104.894,282.568L104.894,282.568z"/>
			<path style="fill-rule:evenodd;clip-rule:evenodd;fill:#FFFFFF;" d="M297.639,252.088c140.403,0,254.917,75.854,254.917,168.858
				c0,93.002-114.514,168.856-254.917,168.856c-140.405,0-254.919-75.854-254.919-168.856
				C42.72,327.942,157.234,252.088,297.639,252.088L297.639,252.088z"/>
			<path style="fill-rule:evenodd;clip-rule:evenodd;fill:#ED1C24;" d="M448.27,495.749c-9.096,6.024-19.068,11.436-29.711,16.215
				V329.916c10.646,4.779,20.613,10.199,29.711,16.226c8.225,5.448,18.857,13.496,28.278,23.764l21.599-21.599
				c-9.154-9.831-20.201-19.094-33.033-27.594c-22.377-14.822-48.526-26.295-77.057-34.046v268.557
				c28.53-7.75,54.68-19.225,77.057-34.046c12.832-8.499,23.88-17.763,33.033-27.594l-21.599-21.599
				C467.128,482.252,456.495,490.3,448.27,495.749L448.27,495.749z"/>
			<path style="fill-rule:evenodd;clip-rule:evenodd;fill:#ED1C24;" d="M130.161,320.713
				c-41.635,27.579-64.564,63.176-64.564,100.233c0,34.529,19.917,67.787,56.315,94.475l17.503-24.995
				c-15.662-11.62-35.189-30.289-41.35-54.229h80.829v109.785c9.809,3.758,19.993,7.043,30.501,9.816V286.093
				C180.02,293.846,153.105,305.515,130.161,320.713L130.161,320.713z M98.066,405.694c7.212-28.024,32.743-48.824,48.939-59.553
				c9.712-6.433,20.426-12.167,31.889-17.176v76.729H98.066L98.066,405.694z"/>
			<path style="fill-rule:evenodd;clip-rule:evenodd;fill:#ED1C24;" d="M297.639,305.467c20.426,0,40.615,1.933,59.917,5.603
				v-31.103c-19.312-3.294-39.404-5.001-59.917-5.001c-19.743,0-39.099,1.575-57.74,4.629v282.702
				c9.977,1.636,20.165,2.832,30.501,3.604V436.196h74.08v-30.502h-74.08v-99.078C279.395,305.86,288.492,305.467,297.639,305.467
				L297.639,305.467z"/>
		</g>
	</g>
</g>
</svg>
