<?xml version="1.0" encoding="iso-8859-1"?>
<!-- Generator: Adobe Illustrator 23.0.1, SVG Export Plug-In . SVG Version: 6.00 Build 0)  -->
<svg version="1.1" xmlns="http://www.w3.org/2000/svg" xmlns:xlink="http://www.w3.org/1999/xlink" x="0px" y="0px"
	 viewBox="0 0 595.276 841.89" style="enable-background:new 0 0 595.276 841.89;" xml:space="preserve">
<g id="Grade" style="display:none;">
</g>
<g id="HQFL">
</g>
<g id="&#xC1;rea_de_trabalho">
</g>
<g id="Linhas-guia">
</g>
<g id="Page_1">
	<g id="HQFL_1_">
		<g>
			<path style="fill-rule:evenodd;clip-rule:evenodd;fill:#EE3524;" d="M553.46,387.095
				c-2.35,138.929-116.352,251.506-255.822,251.506c-139.472,0-253.474-112.579-255.823-251.507l46.568,26.887l51.263-51.264
				h315.983l51.264,51.264L553.46,387.095L553.46,387.095z"/>
			<path style="fill-rule:evenodd;clip-rule:evenodd;fill:#FFFFFF;" d="M537.933,411.997
				c-14.53,119.611-116.871,212.801-240.295,212.801c-123.425,0-225.766-93.19-240.296-212.801l33.31,19.232l58.754-58.753h296.464
				l58.752,58.753L537.933,411.997L537.933,411.997z"/>
			<path style="fill-rule:evenodd;clip-rule:evenodd;fill:#EE3524;" d="M297.638,203.289c98.829,0,179.433,80.605,179.433,179.433
				c0,98.83-80.605,179.434-179.433,179.434c-98.828,0-179.435-80.605-179.435-179.434
				C118.204,283.894,198.81,203.289,297.638,203.289L297.638,203.289z"/>
			<path style="fill-rule:evenodd;clip-rule:evenodd;fill:#FFFFFF;" d="M297.638,217.091c91.226,0,165.631,74.405,165.631,165.631
				c0,91.227-74.405,165.631-165.631,165.631c-91.227,0-165.631-74.404-165.631-165.631
				C132.008,291.496,206.411,217.091,297.638,217.091L297.638,217.091z"/>
			<path style="fill-rule:evenodd;clip-rule:evenodd;fill:#EE3524;" d="M276.599,376.095h38.921v21.245h-38.921v140.037
				c-7.25-0.984-14.343-2.471-21.245-4.424V232.491c13.456-3.804,27.639-5.844,42.284-5.844c7.904,0,15.672,0.599,23.267,1.743
				v21.508c-7.563-1.324-15.337-2.015-23.267-2.015c-7.155,0-14.181,0.56-21.039,1.644V376.095L276.599,376.095z M355.368,260.912
				v243.619c28.748-13.701,51.939-37.286,65.126-66.319l17.897,11.836c-20.098,41.782-58.271,73.341-104.268,84.428V230.974
				c42.795,10.318,78.813,38.351,99.806,75.854l-17.751,11.741C402.546,293.515,381.199,273.222,355.368,260.912L355.368,260.912z
				 M242.138,528.563c-7.364-2.817-14.461-6.181-21.245-10.034v-25.057V397.34h-57.297c2.576,23.707,11.344,45.598,24.639,64.026
				l-16.382,13.561c-19.025-25.863-30.29-57.758-30.29-92.206c0-66.43,41.876-123.383,100.575-145.841V528.563L242.138,528.563z
				 M220.892,376.095V271.971c-33.36,23.206-55.828,61.063-57.93,104.124H220.892L220.892,376.095z"/>
			
				<path style="fill-rule:evenodd;clip-rule:evenodd;fill:#ED1C24;stroke:#ED1C24;stroke-width:1.4984;stroke-miterlimit:2.4142;" d="
				M476.597,536.268l-30.714-25.771l-9.2,10.966l-6.26-5.25l24.652-29.379l6.258,5.25l-9.179,10.942l30.712,25.769L476.597,536.268
				L476.597,536.268z M429.08,578.831l-30.372-37.508l27.804-22.515l5.141,6.348l-20.233,16.385l6.733,8.313l18.827-15.246
				l5.112,6.314l-18.827,15.246l8.266,10.209l20.95-16.965l5.12,6.322L429.08,578.831L429.08,578.831z M235.008,609.134
				l11.675-46.828l9.453,2.356l-11.675,46.828L235.008,609.134L235.008,609.134z M164.056,512.972l6.991,6.753l-21.224,21.978
				c-2.771,2.868-5.168,4.834-7.16,5.895c-2.631,1.365-5.428,1.802-8.393,1.298c-2.973-0.495-5.909-2.162-8.827-4.978
				c-3.428-3.309-5.142-6.809-5.136-10.519c0.007-3.695,1.787-7.415,5.361-11.133l7.337,5.618c-1.84,2.066-2.906,3.754-3.202,5.063
				c-0.442,1.978,0.113,3.718,1.657,5.207c1.56,1.508,3.097,2.133,4.609,1.859c1.506-0.266,3.617-1.804,6.333-4.616L164.056,512.972
				L164.056,512.972z M94.329,464.052l5.137,8.027c-2.588,1.949-4.145,4.041-4.682,6.281c-0.531,2.225-0.135,4.659,1.212,7.301
				c1.424,2.795,3.091,4.606,5.001,5.411c1.905,0.819,3.65,0.826,5.23,0.02c1.022-0.521,1.731-1.26,2.135-2.223
				c0.42-0.958,0.51-2.315,0.27-4.072c-0.155-1.195-0.718-3.833-1.658-7.907c-1.22-5.241-1.462-9.232-0.733-11.959
				c1.017-3.848,3.226-6.639,6.63-8.373c2.192-1.117,4.551-1.538,7.097-1.27c2.533,0.272,4.899,1.325,7.089,3.148
				c2.186,1.837,4.119,4.395,5.802,7.699c2.756,5.407,3.639,10.063,2.671,14.001c-0.986,3.932-3.41,6.97-7.294,9.126l-4.803-8.487
				c2.023-1.497,3.206-3.108,3.546-4.819c0.349-1.717-0.104-3.794-1.349-6.237c-1.286-2.523-2.807-4.245-4.572-5.136
				c-1.129-0.586-2.256-0.592-3.367-0.026c-1.022,0.522-1.673,1.395-1.956,2.625c-0.363,1.56,0.032,4.713,1.194,9.442
				c1.151,4.734,1.711,8.385,1.68,10.948c-0.041,2.566-0.686,4.89-1.951,6.985c-1.271,2.086-3.264,3.82-5.976,5.202
				c-2.462,1.255-5.122,1.752-7.964,1.471c-2.851-0.275-5.438-1.392-7.754-3.363c-2.327-1.967-4.44-4.825-6.343-8.56
				c-2.769-5.436-3.646-10.248-2.616-14.443C87.032,470.671,89.808,467.061,94.329,464.052L94.329,464.052z M112.233,510.27
				c3.041,0,5.522,2.48,5.522,5.521c0,3.041-2.481,5.521-5.522,5.521c-3.041,0-5.52-2.48-5.52-5.521
				C106.713,512.75,109.192,510.27,112.233,510.27L112.233,510.27z M153.555,555.872c3.041,0,5.52,2.48,5.52,5.521
				c0,3.041-2.479,5.52-5.52,5.52c-3.041,0-5.522-2.479-5.522-5.52C148.034,558.352,150.514,555.872,153.555,555.872
				L153.555,555.872z M205.39,568.291l6.528,3.044c4.236,1.975,6.964,3.038,8.19,3.175c1.214,0.133,2.329-0.104,3.338-0.699
				c0.999-0.601,1.812-1.548,2.426-2.862c0.688-1.477,0.843-2.843,0.48-4.114c-0.361-1.273-1.205-2.36-2.529-3.274
				c-0.669-0.425-2.795-1.477-6.379-3.15l-6.885-3.209L205.39,568.291L205.39,568.291z M184.778,589.414l20.397-43.74l18.595,8.672
				c4.676,2.18,7.881,4.159,9.633,5.93c1.754,1.772,2.804,3.961,3.143,6.561c0.332,2.61-0.105,5.195-1.313,7.782
				c-1.528,3.278-3.764,5.546-6.686,6.788c-2.918,1.23-6.441,1.236-10.537-0.003c1.392,2.013,2.401,3.97,3.02,5.883
				c0.621,1.915,1.189,5.057,1.711,9.439l1.367,11.027l-10.56-4.925l-1.945-12.498c-0.686-4.462-1.234-7.321-1.658-8.597
				c-0.42-1.276-1.026-2.29-1.808-3.061c-0.785-0.764-2.186-1.614-4.222-2.566l-1.782-0.83l-8.516,18.259L184.778,589.414
				L184.778,589.414z M257.568,591.749c0.428-4.901,1.506-8.953,3.272-12.143c1.301-2.35,2.989-4.422,5.055-6.202
				c2.059-1.773,4.262-3.024,6.591-3.776c3.114-1.005,6.613-1.339,10.532-0.996c7.085,0.62,12.555,3.313,16.427,8.08
				c3.867,4.764,5.462,11.059,4.776,18.884c-0.678,7.768-3.323,13.653-7.929,17.669c-4.602,4.01-10.438,5.708-17.49,5.092
				c-7.154-0.626-12.65-3.304-16.487-8.029C258.474,605.592,256.898,599.395,257.568,591.749L257.568,591.749z M267.592,592.3
				c-0.475,5.44,0.425,9.685,2.69,12.709c2.269,3.034,5.341,4.711,9.214,5.048c3.861,0.339,7.163-0.771,9.893-3.352
				c2.719-2.572,4.325-6.639,4.814-12.214c0.481-5.506-0.362-9.727-2.536-12.65c-2.175-2.927-5.276-4.557-9.27-4.907
				c-4.008-0.349-7.356,0.741-10.045,3.273C269.668,582.731,268.077,586.76,267.592,592.3L267.592,592.3z M381.956,602.884
				l-20.396-43.74l18.596-8.672c4.675-2.18,8.252-3.363,10.734-3.567c2.484-0.202,4.837,0.396,7.045,1.811
				c2.215,1.421,3.912,3.421,5.118,6.008c1.529,3.279,1.834,6.449,0.902,9.484c-0.929,3.026-3.194,5.73-6.775,8.07
				c2.436,0.227,4.585,0.713,6.45,1.468c1.863,0.754,4.624,2.356,8.33,4.758l9.325,6.041l-10.56,4.925l-10.825-6.547
				c-3.861-2.335-6.403-3.759-7.651-4.254c-1.248-0.498-2.415-0.69-3.508-0.583c-1.09,0.105-2.643,0.636-4.679,1.585l-1.781,0.832
				l8.514,18.26L381.956,602.884L381.956,602.884z M379.024,573.515l6.527-3.044c4.236-1.975,6.805-3.382,7.696-4.233
				c0.885-0.844,1.424-1.852,1.611-3.007c0.185-1.151-0.02-2.384-0.633-3.696c-0.689-1.477-1.638-2.474-2.845-3.015
				c-1.206-0.54-2.589-0.613-4.133-0.168c-0.762,0.221-2.928,1.193-6.513,2.863l-6.885,3.211L379.024,573.515L379.024,573.515z
				 M335.861,616.016l-11.677-46.828l15.167-3.782c5.745-1.433,9.556-2.118,11.417-2.093c2.856,0.038,5.493,0.993,7.89,2.896
				c2.398,1.904,4.063,4.72,4.988,8.437c0.718,2.88,0.795,5.431,0.238,7.644c-0.56,2.223-1.492,4.09-2.827,5.615
				c-1.324,1.512-2.769,2.676-4.343,3.434c-2.139,1.026-5.361,2.055-9.645,3.121l-6.16,1.537l4.403,17.663L335.861,616.016
				L335.861,616.016z M335.615,574.757l3.311,13.28l5.168-1.289c3.728-0.929,6.165-1.793,7.296-2.596
				c1.131-0.803,1.928-1.809,2.382-3.038c0.453-1.219,0.506-2.523,0.16-3.906c-0.424-1.701-1.276-2.981-2.557-3.844
				c-1.266-0.854-2.716-1.225-4.311-1.127c-1.187,0.073-3.48,0.533-6.882,1.38L335.615,574.757L335.615,574.757z M475.714,499.349
				c-4.305-2.385-7.559-5.022-9.763-7.928c-1.608-2.15-2.82-4.532-3.609-7.141c-0.779-2.603-1.04-5.123-0.77-7.557
				c0.34-3.255,1.468-6.586,3.375-10.026c3.448-6.222,8.13-10.127,14.062-11.721c5.924-1.598,12.323-0.492,19.193,3.316
				c6.82,3.781,11.118,8.592,12.917,14.432c1.789,5.836,0.97,11.856-2.464,18.047c-3.481,6.281-8.163,10.212-14.04,11.798
				C488.727,504.148,482.427,503.07,475.714,499.349L475.714,499.349z M480.293,490.417c4.777,2.648,9.019,3.547,12.706,2.713
				c3.693-0.844,6.473-2.965,8.358-6.364c1.88-3.391,2.208-6.857,0.96-10.402c-1.242-3.527-4.304-6.65-9.198-9.363
				c-4.835-2.681-9.03-3.618-12.59-2.83c-3.556,0.806-6.308,2.968-8.252,6.475c-1.951,3.519-2.311,7.019-1.097,10.508
				C472.402,484.628,475.428,487.719,480.293,490.417L480.293,490.417z"/>
		</g>
	</g>
</g>
</svg>
