<?xml version="1.0" encoding="iso-8859-1"?>
<!-- Generator: Adobe Illustrator 23.0.1, SVG Export Plug-In . SVG Version: 6.00 Build 0)  -->
<svg version="1.1" xmlns="http://www.w3.org/2000/svg" xmlns:xlink="http://www.w3.org/1999/xlink" x="0px" y="0px"
	 viewBox="0 0 595.276 841.89" style="enable-background:new 0 0 595.276 841.89;" xml:space="preserve">
<g id="Grade" style="display:none;">
</g>
<g id="HQFL">
</g>
<g id="&#xC1;rea_de_trabalho">
</g>
<g id="Linhas-guia">
</g>
<g id="Page_1">
	<g id="HQFL_1_">
		<g>
			<path style="fill-rule:evenodd;clip-rule:evenodd;fill:#ED1C24;" d="M491.77,464.292c0-107.315-86.999-194.314-194.315-194.314
				c-107.315,0-194.314,86.999-194.314,194.314c0,107.315,86.999,194.318,194.314,194.318
				C404.771,658.61,491.77,571.608,491.77,464.292L491.77,464.292z"/>
			<path style="fill-rule:evenodd;clip-rule:evenodd;fill:#FFFFFF;" d="M466.168,464.292c0-93.177-75.532-168.709-168.709-168.709
				c-93.176,0-168.715,75.532-168.715,168.709c0,93.177,75.539,168.712,168.715,168.712
				C390.635,633.004,466.168,557.469,466.168,464.292L466.168,464.292z"/>
			<path style="fill-rule:evenodd;clip-rule:evenodd;fill:#ED1C24;" d="M161.96,539.018h30.089
				c-13.987-20.549-21.987-43.669-23.352-64.022h39.708v115.908c8.621,6.083,17.49,11.084,26.472,14.996V322.687
				C168.556,351.911,110.242,440.308,161.96,539.018L161.96,539.018z M208.404,448.42H169.59
				c3.965-31.965,18.101-58.209,38.815-78.087V448.42L208.404,448.42z"/>
			<path style="fill-rule:evenodd;clip-rule:evenodd;fill:#ED1C24;" d="M253.312,316.381c30.468-8.788,61.334-9.905,92.653,0.372
				v27.236c-21.796-8.513-44.66-10.966-68.588-7.517v92.619h52.944v24.159h-52.944v164.317c-8.023-0.995-16.045-2.616-24.065-5.157
				V316.381L253.312,316.381z"/>
			<path style="fill-rule:evenodd;clip-rule:evenodd;fill:#ED1C24;" d="M364.495,324.745v279.096
				c42.316-21.402,71.393-54.713,84.401-106.211h-26.271c-6.519,22.525-18.467,42.755-36.093,59.992V370.606
				c13.031,12.811,23.334,27.627,31.098,45.07h26.541C430.251,373.867,402.283,343.998,364.495,324.745L364.495,324.745z"/>
			<polygon style="fill-rule:evenodd;clip-rule:evenodd;fill:#ED1C24;" points="263.517,208.203 289.698,208.203 297.803,183.28 
				305.889,208.203 332.086,208.203 310.913,223.618 319.014,248.529 297.803,233.129 276.576,248.529 284.678,223.618 
				263.517,208.203 			"/>
			<polygon style="fill-rule:evenodd;clip-rule:evenodd;fill:#ED1C24;" points="550.802,419.441 553.587,445.478 579.237,450.879 
				555.315,461.582 558.1,487.625 540.524,468.21 516.615,478.919 529.67,456.187 512.096,436.721 537.729,442.129 550.802,419.441 
							"/>
			<polygon style="fill-rule:evenodd;clip-rule:evenodd;fill:#ED1C24;" points="362.852,211.783 387.484,220.665 403.557,199.965 
				402.715,226.153 427.36,235.041 402.211,242.358 401.385,268.546 386.655,246.858 361.462,254.149 377.532,233.463 
				362.852,211.783 			"/>
			<polygon style="fill-rule:evenodd;clip-rule:evenodd;fill:#ED1C24;" points="453.337,253.786 472.246,271.899 495.337,259.5 
				483.94,283.096 502.858,301.216 476.902,297.699 465.523,321.295 460.854,295.502 434.873,291.94 457.956,279.554 
				453.337,253.786 			"/>
			<polygon style="fill-rule:evenodd;clip-rule:evenodd;fill:#ED1C24;" points="520.673,329.213 530.503,353.478 556.648,351.631 
				536.584,368.487 546.416,392.766 524.182,378.927 504.134,395.789 510.444,370.346 488.203,356.458 514.334,354.611 
				520.673,329.213 			"/>
			<polygon style="fill-rule:evenodd;clip-rule:evenodd;fill:#ED1C24;" points="44.473,419.56 41.685,445.597 16.039,450.998 
				39.961,461.695 37.173,487.744 54.751,468.329 78.66,479.038 65.603,456.306 83.179,436.84 57.543,442.242 44.473,419.56 			"/>
			<polygon style="fill-rule:evenodd;clip-rule:evenodd;fill:#ED1C24;" points="232.423,211.901 207.794,220.783 191.715,200.081 
				192.559,226.272 167.916,235.16 193.063,242.476 193.887,268.657 208.62,246.977 233.812,254.268 217.742,233.577 
				232.423,211.901 			"/>
			<polygon style="fill-rule:evenodd;clip-rule:evenodd;fill:#ED1C24;" points="141.937,253.905 123.029,272.012 99.94,259.62 
				111.338,283.215 92.417,301.336 118.373,297.818 129.752,321.414 134.421,295.621 160.401,292.059 137.318,279.674 
				141.937,253.905 			"/>
			<polygon style="fill-rule:evenodd;clip-rule:evenodd;fill:#ED1C24;" points="74.604,329.325 64.771,353.597 38.628,351.745 
				58.693,368.6 48.858,392.884 71.092,379.039 91.14,395.907 84.832,370.466 107.076,356.571 80.941,354.73 74.604,329.325 			"/>
		</g>
	</g>
</g>
</svg>
