<?xml version="1.0" encoding="iso-8859-1"?>
<!-- Generator: Adobe Illustrator 23.0.1, SVG Export Plug-In . SVG Version: 6.00 Build 0)  -->
<svg version="1.1" xmlns="http://www.w3.org/2000/svg" xmlns:xlink="http://www.w3.org/1999/xlink" x="0px" y="0px"
	 viewBox="0 0 595.276 841.89" style="enable-background:new 0 0 595.276 841.89;" xml:space="preserve">
<g id="Grade" style="display:none;">
</g>
<g id="HQFL">
</g>
<g id="&#xC1;rea_de_trabalho">
</g>
<g id="Linhas-guia">
</g>
<g id="Page_1">
	<g id="HQFL_1_">
		<g>
			<path style="fill-rule:evenodd;clip-rule:evenodd;fill:#20419A;" d="M297.638,143.445c152.842,0,277.5,124.658,277.5,277.5
				c0,152.842-124.658,277.5-277.5,277.5c-152.842,0-277.5-124.658-277.5-277.5C20.138,268.103,144.796,143.445,297.638,143.445
				L297.638,143.445z"/>
			<path style="fill-rule:evenodd;clip-rule:evenodd;fill:#FFFFFF;" d="M297.638,160.112c143.662,0,260.833,117.172,260.833,260.833
				c0,143.662-117.171,260.833-260.833,260.833c-143.662,0-260.833-117.171-260.833-260.833
				C36.805,277.284,153.976,160.112,297.638,160.112L297.638,160.112z"/>
			<path style="fill-rule:evenodd;clip-rule:evenodd;fill:#20419A;" d="M297.638,168.445c139.071,0,252.5,113.428,252.5,252.5
				c0,139.071-113.429,252.5-252.5,252.5s-252.5-113.429-252.5-252.5C45.138,281.873,158.567,168.445,297.638,168.445
				L297.638,168.445z"/>
			<path style="fill-rule:evenodd;clip-rule:evenodd;fill:#FFFFFF;" d="M255.971,205.781v430.325
				c13.497,2.618,27.423,4.005,41.666,4.005V441.779h30v-41.667h-30V243.445c14.345,0,28.295,1.722,41.667,4.963v-42.628
				c-13.497-2.617-27.423-4.002-41.667-4.002C283.395,201.779,269.468,203.163,255.971,205.781L255.971,205.781z"/>
			<path style="fill-rule:evenodd;clip-rule:evenodd;fill:#FFFFFF;" d="M414.304,554.5V287.37
				c17.841,15.608,32.556,34.72,43.038,56.241l34.24-24.557c-25.252-47.806-67.664-85.247-118.945-104.021v411.817
				c51.279-18.775,93.688-56.215,118.941-104.018l-34.241-24.559C446.856,519.792,432.145,538.893,414.304,554.5L414.304,554.5z"/>
			<path style="fill-rule:evenodd;clip-rule:evenodd;fill:#FFFFFF;" d="M78.471,420.945c0,49.79,16.762,95.783,44.915,132.651
				l30.534-28.708c-17.375-23.931-28.928-52.337-32.556-83.11h59.608v164.537c13.033,8.244,26.983,15.158,41.666,20.535V215.034
				C138.673,245.775,78.471,326.555,78.471,420.945L78.471,420.945z M180.972,287.368v112.743h-59.607
				C126.636,355.367,148.663,315.627,180.972,287.368L180.972,287.368z"/>
		</g>
	</g>
</g>
</svg>
