<?xml version="1.0" encoding="iso-8859-1"?>
<!-- Generator: Adobe Illustrator 23.0.1, SVG Export Plug-In . SVG Version: 6.00 Build 0)  -->
<svg version="1.1" xmlns="http://www.w3.org/2000/svg" xmlns:xlink="http://www.w3.org/1999/xlink" x="0px" y="0px"
	 viewBox="0 0 595.276 841.89" style="enable-background:new 0 0 595.276 841.89;" xml:space="preserve">
<g id="Grade" style="display:none;">
</g>
<g id="HQFL">
</g>
<g id="&#xC1;rea_de_trabalho">
</g>
<g id="Linhas-guia">
</g>
<g id="Page_1">
	<g id="HQFL_1_">
		<g>
			<path style="fill-rule:evenodd;clip-rule:evenodd;fill:#7B2916;" d="M584.138,413.558c0,111.338-128.338,201.597-286.652,201.597
				c-158.312,0-286.65-90.259-286.65-201.597c0-111.345,128.338-201.603,286.65-201.603
				C455.8,211.955,584.138,302.213,584.138,413.558L584.138,413.558z"/>
			<path style="fill-rule:evenodd;clip-rule:evenodd;fill:#FFFFFF;" d="M36.036,413.558c0,97.265,117.285,176.397,261.45,176.397
				c144.163,0,261.451-79.132,261.451-176.397c0-97.269-117.288-176.403-261.451-176.403
				C153.321,237.154,36.036,316.289,36.036,413.558L36.036,413.558z"/>
			<path style="fill-rule:evenodd;clip-rule:evenodd;fill:#7B2916;" d="M47.061,413.558c0,91.187,112.34,165.371,250.425,165.371
				c138.084,0,250.426-74.184,250.426-165.371c0-91.19-112.342-165.378-250.426-165.378
				C159.402,248.179,47.061,322.368,47.061,413.558L47.061,413.558z"/>
			<path style="fill-rule:evenodd;clip-rule:evenodd;fill:#FFFFFF;" d="M476.097,465.806c-7.703,8.42-17.252,16.448-28.517,23.89
				c-10.515,6.943-22.038,13.027-34.33,18.257v-80.224h56.7V399.38h-56.7v-80.222c12.292,5.232,23.81,11.315,34.324,18.257
				c9.635,6.363,18.014,13.155,25.059,20.255l19.257-20.819c-8.232-8.176-17.823-15.913-28.695-23.093
				c-22.751-15.026-49.132-26.565-78.294-34.208v267.843c28.916-7.643,55.709-19.124,78.301-34.041
				c12.649-8.354,23.564-17.463,32.626-27.141L476.097,465.806L476.097,465.806z"/>
			<path style="fill-rule:evenodd;clip-rule:evenodd;fill:#FFFFFF;" d="M131.775,313.758c-41.424,27.356-64.238,62.8-64.238,99.8
				c0,33.139,18.305,65.032,51.894,90.98l18.909-21.228c-22.176-16.701-36.202-35.875-40.789-55.581h81.023v109.149
				c9.405,3.673,18.333,6.9,28.35,9.662V280.299C178.854,287.939,153.795,299.215,131.775,313.758L131.775,313.758z M97.573,399.38
				c5.185-22.265,22.402-43.854,49.823-61.965c9.615-6.349,20.063-11.989,31.177-16.91v78.875H97.573L97.573,399.38z"/>
			<polygon style="fill-rule:evenodd;clip-rule:evenodd;fill:#FFFFFF;" points="351.825,296.955 351.825,268.605 238.423,268.609 
				238.423,553.683 266.774,553.683 266.774,427.729 338.437,427.729 338.437,399.38 266.774,399.38 266.774,296.955 
				351.825,296.955 			"/>
		</g>
	</g>
</g>
</svg>
