<?xml version="1.0" encoding="iso-8859-1"?>
<!-- Generator: Adobe Illustrator 23.0.1, SVG Export Plug-In . SVG Version: 6.00 Build 0)  -->
<svg version="1.1" xmlns="http://www.w3.org/2000/svg" xmlns:xlink="http://www.w3.org/1999/xlink" x="0px" y="0px"
	 viewBox="0 0 595.276 841.89" style="enable-background:new 0 0 595.276 841.89;" xml:space="preserve">
<g id="Grade" style="display:none;">
</g>
<g id="HQFL">
</g>
<g id="&#xC1;rea_de_trabalho">
</g>
<g id="Linhas-guia">
</g>
<g id="Page_1">
	<g id="HQFL_1_">
		<g>
			<path style="fill-rule:evenodd;clip-rule:evenodd;fill:#14489F;" d="M17.469,413.556c0,154.389,125.607,279.999,280,279.999
				c154.386,0,280.003-125.61,280.003-279.999c0-154.39-125.617-280-280.003-280C143.075,133.555,17.469,259.166,17.469,413.556
				L17.469,413.556z"/>
			<path style="fill-rule:evenodd;clip-rule:evenodd;fill:#FFC425;" d="M31.469,413.556c0-146.672,119.325-266,266-266
				c146.675,0,266.003,119.328,266.003,266c0,146.671-119.328,266-266.003,266C150.793,679.555,31.469,560.227,31.469,413.556
				L31.469,413.556z"/>
			<path style="fill-rule:evenodd;clip-rule:evenodd;fill:#14489F;" d="M106.718,413.556c0,105.177,85.569,190.75,190.75,190.75
				c105.181,0,190.753-85.572,190.753-190.75c0-105.178-85.573-190.75-190.753-190.75
				C192.287,222.805,106.718,308.378,106.718,413.556L106.718,413.556z"/>
			<polygon style="fill-rule:evenodd;clip-rule:evenodd;fill:#FFC425;" points="297.469,393.759 376.304,314.919 296.368,234.987 
				217.532,313.826 297.469,393.759 			"/>
			<polygon style="fill-rule:evenodd;clip-rule:evenodd;fill:#FFC425;" points="297.469,433.359 218.09,512.738 297.332,591.98 
				376.714,512.601 297.469,433.359 			"/>
			<polygon style="fill-rule:evenodd;clip-rule:evenodd;fill:#FFFFFF;" points="317.265,413.556 396.511,492.804 475.356,413.965 
				396.101,334.717 317.265,413.556 			"/>
			<polygon style="fill-rule:evenodd;clip-rule:evenodd;fill:#FFFFFF;" points="277.672,413.556 197.732,333.623 118.353,413.002 
				198.293,492.941 277.672,413.556 			"/>
			<path style="fill-rule:evenodd;clip-rule:evenodd;fill:#14489F;" d="M110.489,549.781l17.695-5.756l-9.7,16.044L110.489,549.781
				L110.489,549.781z M140.15,541.244l-6.306-8.114l-48.815,14.718l6.33,8.148l10.951-3.555l11.686,15.046l-6.002,9.926l6.357,8.183
				L140.15,541.244L140.15,541.244z"/>
			<path style="fill-rule:evenodd;clip-rule:evenodd;fill:#14489F;" d="M158.056,571.759l5.787,4.662
				c3.008,2.427,4.778,3.924,5.312,4.491c1.039,1.176,1.582,2.406,1.627,3.705c0.045,1.292-0.434,2.563-1.435,3.801
				c-0.895,1.114-1.89,1.832-2.984,2.167c-1.1,0.335-2.211,0.294-3.343-0.116c-1.128-0.41-3.473-2.051-7.027-4.922l-5.489-4.423
				L158.056,571.759L158.056,571.759z M133.269,602.493l12.496-15.497l1.524,1.23c1.726,1.395,2.878,2.55,3.449,3.466
				c0.574,0.916,0.916,2.037,1.025,3.357c0.109,1.32-0.024,4.19-0.403,8.613l-1.19,12.455l8.811,7.109l1.333-10.869
				c0.568-4.307,0.789-7.437,0.666-9.406c-0.126-1.969-0.605-4.06-1.432-6.289c3.592,2.119,6.921,2.926,9.991,2.413
				c3.073-0.506,5.729-2.147,7.967-4.922c1.764-2.188,2.789-4.56,3.083-7.13c0.297-2.564-0.185-4.901-1.439-7.007
				c-1.254-2.112-3.855-4.758-7.803-7.936l-15.706-12.667l-29.866,37.037L133.269,602.493L133.269,602.493z"/>
			<path style="fill-rule:evenodd;clip-rule:evenodd;fill:#14489F;" d="M192,619.522l13.234-13.07l-1.48,18.683L192,619.522
				L192,619.522z M214.682,598.597l-9.273-4.423l-37.034,35.041l9.314,4.443l8.19-8.087l17.196,8.203l-0.916,11.566l9.352,4.464
				L214.682,598.597L214.682,598.597z"/>
			<path style="fill-rule:evenodd;clip-rule:evenodd;fill:#14489F;" d="M260.247,643.502l8.504,4.717
				c-2.495,4.84-5.64,8.162-9.427,9.967c-3.787,1.805-8.182,2.174-13.193,1.107c-6.197-1.319-10.842-4.512-13.935-9.584
				c-3.093-5.065-3.862-11.265-2.304-18.594c1.644-7.745,4.929-13.337,9.854-16.775c4.922-3.432,10.657-4.457,17.199-3.069
				c5.708,1.217,9.994,3.876,12.845,7.991c1.702,2.44,2.686,5.626,2.967,9.57l-9.789,0.267c-0.041-2.529-0.786-4.676-2.242-6.447
				c-1.456-1.77-3.438-2.919-5.94-3.452c-3.466-0.738-6.535-0.089-9.218,1.928c-2.683,2.023-4.614,5.81-5.793,11.354
				c-1.251,5.893-1.08,10.315,0.516,13.262c1.589,2.953,4.088,4.792,7.485,5.51c2.505,0.533,4.836,0.191,6.976-1.026
				C256.897,649.012,258.729,646.77,260.247,643.502L260.247,643.502z M233.436,668.782l0.803-3.773
				c2.143,0.704,4.132,1.244,5.964,1.634c1.894,0.403,3.374,0.369,4.43-0.103c0.806-0.355,1.299-0.923,1.466-1.716
				c0.15-0.704-0.048-1.394-0.595-2.051c-0.547-0.663-1.511-1.142-2.888-1.429c-1.357-0.294-2.793-0.376-4.303-0.253l1.5-3.008
				c1.767-0.239,3.599-0.15,5.496,0.253c2.635,0.561,4.512,1.566,5.64,3.028c1.121,1.456,1.504,3.022,1.148,4.696
				c-0.397,1.866-1.477,3.22-3.254,4.061c-2.386,1.155-5.499,1.326-9.331,0.513C236.782,670.053,234.759,669.438,233.436,668.782
				L233.436,668.782z"/>
			<path style="fill-rule:evenodd;clip-rule:evenodd;fill:#14489F;" d="M296.238,644.979l5.892-17.65l7.137,17.336L296.238,644.979
				L296.238,644.979z M307.011,616.056l-10.274,0.246l-17.185,48.002l10.322-0.246l3.644-10.917l19.044-0.458l4.416,10.725
				l10.358-0.253L307.011,616.056L307.011,616.056z"/>
			<polygon style="fill-rule:evenodd;clip-rule:evenodd;fill:#14489F;" points="347.196,658.89 338.624,620.349 324.956,623.391 
				323.198,615.489 359.925,607.313 361.688,615.215 348.017,618.257 356.589,656.798 347.196,658.89 			"/>
			<path style="fill-rule:evenodd;clip-rule:evenodd;fill:#14489F;" d="M365.708,605.378l8.723-4.088l10.951,23.379
				c1.737,3.712,2.967,6.063,3.705,7.061c1.189,1.593,2.748,2.598,4.649,3.008c1.9,0.417,4.06,0.055,6.48-1.08
				c2.475-1.155,4.088-2.529,4.867-4.129c0.779-1.593,0.957-3.192,0.519-4.785c-0.437-1.586-1.449-4.095-3.049-7.506l-11.184-23.878
				l8.709-4.081l10.623,22.654c2.42,5.182,3.896,8.948,4.43,11.313c0.533,2.358,0.506,4.567-0.068,6.631
				c-0.574,2.064-1.709,4.026-3.418,5.893c-1.709,1.866-4.266,3.595-7.684,5.195c-4.115,1.928-7.451,2.912-10.035,2.953
				c-2.57,0.048-4.826-0.403-6.768-1.347c-1.955-0.936-3.514-2.153-4.689-3.637c-1.723-2.201-3.719-5.722-5.975-10.548
				L365.708,605.378L365.708,605.378z"/>
			<path style="fill-rule:evenodd;clip-rule:evenodd;fill:#14489F;" d="M425.222,581.111c3.527-2.803,5.701-4.457,6.508-4.963
				c1.367-0.841,2.652-1.155,3.855-0.943c1.203,0.219,2.256,0.895,3.158,2.037c0.957,1.196,1.354,2.454,1.203,3.773
				c-0.151,1.312-0.807,2.557-1.969,3.726c-0.642,0.649-2.42,2.126-5.332,4.45l-4.908,3.896l-6.809-8.558L425.222,581.111
				L425.222,581.111z M437.964,621.429l12.66-10.07c4.758-3.835,7.711-6.323,8.859-7.451c1.818-1.805,3.035-3.726,3.65-5.756
				c0.602-2.037,0.67-4.156,0.191-6.371c-0.478-2.215-1.381-4.163-2.721-5.845c-1.695-2.14-3.787-3.507-6.262-4.115
				c-2.475-0.615-5.113-0.342-7.902,0.806c1.039-2.017,1.449-4.143,1.231-6.364c-0.232-2.221-1.039-4.211-2.434-5.975
				c-1.285-1.62-2.83-2.782-4.635-3.486c-1.805-0.697-3.582-0.984-5.346-0.861c-1.777,0.123-3.486,0.636-5.127,1.538
				c-1.641,0.902-3.938,2.523-6.891,4.867l-14.889,11.833L437.964,621.429L437.964,621.429z M438.811,594.619
				c3.418-2.707,5.77-4.293,7.055-4.758c1.299-0.465,2.515-0.533,3.664-0.212c1.135,0.335,2.133,1.039,3.008,2.126
				c1.012,1.285,1.477,2.584,1.381,3.903c-0.082,1.326-0.615,2.529-1.572,3.609c-0.602,0.725-2.256,2.16-4.949,4.307l-6.945,5.51
				l-7.684-9.679L438.811,594.619L438.811,594.619z"/>
			<path style="fill-rule:evenodd;clip-rule:evenodd;fill:#14489F;" d="M474.974,561.888l-9.83-15.791l17.897,5.564L474.974,561.888
				L474.974,561.888z M459.565,535.153l-6.371,8.066l26.018,43.853l6.398-8.108l-6.084-9.775l11.785-14.957l11.088,3.438
				l6.412-8.142L459.565,535.153L459.565,535.153z"/>
			<path style="fill-rule:evenodd;clip-rule:evenodd;fill:#14489F;" d="M196.105,218.013l-1.897-18.508l13.637,12.858
				L196.105,218.013L196.105,218.013z M194.007,187.221l-9.259,4.457l4.115,50.818l9.297-4.474l-1.172-11.454l17.169-8.261
				l8.439,7.957l9.334-4.491L194.007,187.221L194.007,187.221z"/>
			<polygon style="fill-rule:evenodd;clip-rule:evenodd;fill:#14489F;" points="236.396,221.718 233.836,213.009 242.545,210.449 
				245.105,219.158 236.396,221.718 			"/>
			<polygon style="fill-rule:evenodd;clip-rule:evenodd;fill:#14489F;" points="272.346,213.126 270.507,165.582 305.808,164.218 
				306.122,172.305 280.433,173.299 280.844,183.793 304.776,182.866 305.091,190.953 281.151,191.88 281.65,204.666 
				308.208,203.641 308.523,211.728 272.346,213.126 			"/>
			<polygon style="fill-rule:evenodd;clip-rule:evenodd;fill:#14489F;" points="316.138,213.112 317.177,204.095 326.192,205.131 
				325.153,214.151 316.138,213.112 			"/>
			<path style="fill-rule:evenodd;clip-rule:evenodd;fill:#14489F;" d="M368.483,205.022l12.086-14.147l0.109,18.741
				L368.483,205.022L368.483,205.022z M389.306,182.248l-9.611-3.623l-33.934,38.056l9.666,3.64l7.465-8.753l17.828,6.72
				l0.069,11.597l9.707,3.654L389.306,182.248L389.306,182.248z"/>
			<polygon style="fill-rule:evenodd;clip-rule:evenodd;fill:#14489F;" points="393.653,236.754 398.179,228.886 406.054,233.418 
				401.515,241.283 393.653,236.754 			"/>
		</g>
	</g>
</g>
</svg>
