<?xml version="1.0" encoding="iso-8859-1"?>
<!-- Generator: Adobe Illustrator 23.0.1, SVG Export Plug-In . SVG Version: 6.00 Build 0)  -->
<svg version="1.1" xmlns="http://www.w3.org/2000/svg" xmlns:xlink="http://www.w3.org/1999/xlink" x="0px" y="0px"
	 viewBox="0 0 595.276 841.89" style="enable-background:new 0 0 595.276 841.89;" xml:space="preserve">
<g id="Grade" style="display:none;">
</g>
<g id="HQFL">
</g>
<g id="&#xC1;rea_de_trabalho">
</g>
<g id="Linhas-guia">
</g>
<g id="Page_1">
	<g id="HQFL_1_">
		<g>
			<path style="fill-rule:evenodd;clip-rule:evenodd;fill:#EE3524;" d="M297.638,638.122
				C89.176,515.262,120.428,315.81,134.337,240.654c17.622,32.071,50.017,35.845,70.921,26.341
				c26.037-11.84,38.638-38.218,35.662-63.227c32.291,40.289,81.159,40.283,113.438,0.009c-2.977,25.009,9.625,51.387,35.662,63.226
				c20.903,9.505,53.298,5.731,70.92-26.34C474.847,315.819,506.1,515.271,297.638,638.122L297.638,638.122z"/>
			<path style="fill-rule:evenodd;clip-rule:evenodd;fill:#FFFFFF;" d="M297.638,613.855
				c-164.081-98.904-157.961-268.244-148.73-330.914c38.631,23.034,89.028-0.03,106.542-39.122
				c27.442,13.896,56.932,13.905,84.374,0.008c17.515,39.093,67.911,62.156,106.542,39.123
				C455.599,345.62,461.719,514.959,297.638,613.855L297.638,613.855z"/>
			<path style="fill-rule:evenodd;clip-rule:evenodd;fill:#00873F;" d="M317.084,525.064V390.281
				c14.375,1.443,30.434,4.427,51.785,8.958l-2.141,0.39c-11.326-2.361-19.537,2.456-21.002,7.438
				c-1.001,3.409,1.105,6.981,7.418,8.581c6.453,1.637,11.108-4.133,18.316-2.248c6.683,1.747,11.634,8.854,21.382,10.581
				c4.522,0.801,11.341-0.553,13.52-6.432c1.423-3.838,0.107-7.92,1.483-13.455c1.682-6.754,6.213-5.556,8.071-14.735
				c2.024-9.144-2.603-9.893-1.391-16.746c0.993-5.616,3.855-8.81,4.117-12.895c0.401-6.258-5.277-10.268-9.734-11.376
				c-9.607-2.388-17.021,2.091-23.837,0.97c-7.353-1.21-9.258-8.374-15.819-9.504c-6.416-1.105-9.795,1.301-10.266,4.822
				c-0.689,5.147,4.787,12.874,16.096,15.323l1.826,1.233c-24.85-5.27-43.262-8.659-59.824-10.173v-31.445l0.826,2.042
				c0.046,11.57,6.465,18.535,11.642,18.931c3.543,0.27,6.599-2.532,6.852-9.039c0.26-6.652-6.352-10.007-6.008-17.449
				c0.32-6.899,6.242-13.22,5.905-23.114c-0.157-4.591-2.899-10.977-9.103-11.887c-4.05-0.594-7.769,1.542-13.47,1.346
				c-6.955-0.239-6.725-4.921-16.09-4.842c-9.365-0.092-9.135,4.59-16.091,4.83c-5.701,0.196-9.42-1.94-13.47-1.347
				c-6.205,0.909-8.946,7.296-9.103,11.887c-0.338,9.895,5.585,16.215,5.904,23.114c0.345,7.444-6.267,10.797-6.007,17.449
				c0.253,6.507,3.308,9.311,6.851,9.04c5.178-0.397,11.597-7.427,11.642-18.997l0.827-2.012v31.498
				c-16.563,1.518-34.974,4.912-59.824,10.188l1.826-1.233c11.309-2.45,16.786-10.177,16.097-15.324
				c-0.472-3.521-3.85-5.927-10.267-4.822c-6.561,1.13-8.467,8.294-15.819,9.504c-6.815,1.121-14.229-3.357-23.836-0.97
				c-4.458,1.107-10.135,5.118-9.734,11.376c0.262,4.085,3.124,7.279,4.117,12.895c1.212,6.854-3.415,7.603-1.391,16.746
				c1.857,9.18,6.389,7.981,8.07,14.735c1.378,5.536,0.062,9.617,1.484,13.455c2.179,5.88,8.997,7.235,13.52,6.433
				c9.748-1.727,14.699-8.833,21.381-10.581c7.209-1.885,11.864,3.886,18.317,2.249c6.312-1.601,8.419-5.173,7.417-8.581
				c-1.464-4.983-9.675-9.8-21.002-7.438l-2.14-0.389c21.35-4.537,37.409-7.527,51.784-8.974v134.9l-0.937-2.183
				c-0.045-11.57-6.354-18.534-11.533-18.931c-3.543-0.27-6.598,2.533-6.851,9.04c-0.259,6.652,6.352,10.006,6.007,17.449
				c-0.32,6.9-6.242,13.22-5.904,23.115c0.157,4.591,2.898,10.977,9.103,11.886c4.05,0.594,7.768-1.542,13.47-1.346
				c6.955,0.24,6.725,4.922,16.091,4.83c9.365,0.079,9.135-4.603,16.09-4.842c5.701-0.196,9.42,1.939,13.47,1.346
				c6.204-0.909,8.946-7.296,9.103-11.887c0.337-9.895-5.585-16.215-5.905-23.114c-0.344-7.444,6.267-10.797,6.008-17.449
				c-0.253-6.507-3.309-9.31-6.852-9.039c-5.178,0.395-11.574,7.36-11.619,18.931L317.084,525.064L317.084,525.064z"/>
			<path style="fill-rule:evenodd;clip-rule:evenodd;fill:#FFFFFF;" d="M302.668,327.341c-0.107-2.66-2.338-4.782-5.031-4.782
				c-2.672,0-4.891,2.085-5.029,4.716c0,12.369,0,24.736,0,37.104c-18.687,0.52-38.189,3.92-67.553,10.201
				c-2.579,0.658-4.192,3.282-3.632,5.916c0.556,2.613,3.057,4.349,5.659,3.938c28.444-6.064,47.388-9.353,65.526-9.87
				c0,47.588,0,95.172,0,142.761c0.139,2.631,2.357,4.717,5.029,4.717c2.692,0,4.923-2.123,5.031-4.783c0-47.566,0-95.131,0-142.696
				c18.139,0.512,37.082,3.795,65.527,9.851c2.601,0.411,5.103-1.324,5.658-3.938c0.561-2.633-1.053-5.257-3.632-5.915
				c-29.366-6.275-48.866-9.669-67.554-10.184C302.668,352.032,302.668,339.687,302.668,327.341L302.668,327.341z"/>
		</g>
	</g>
</g>
</svg>
