<?xml version="1.0" encoding="iso-8859-1"?>
<!-- Generator: Adobe Illustrator 23.0.1, SVG Export Plug-In . SVG Version: 6.00 Build 0)  -->
<svg version="1.1" xmlns="http://www.w3.org/2000/svg" xmlns:xlink="http://www.w3.org/1999/xlink" x="0px" y="0px"
	 viewBox="0 0 595.276 841.89" style="enable-background:new 0 0 595.276 841.89;" xml:space="preserve">
<g id="Grade" style="display:none;">
</g>
<g id="HQFL">
</g>
<g id="&#xC1;rea_de_trabalho">
</g>
<g id="Linhas-guia">
</g>
<g id="Page_1">
	<g id="HQFL_1_">
		<g>
			<path style="fill-rule:evenodd;clip-rule:evenodd;" d="M414.133,120.066C358.596,157.8,298.501,155.813,297.9,155.789
				c-1.118,0.024-61.213,2.012-116.748-35.723l-4.993-3.393l-72.751,99.439l3.259,3.77c2.957,3.418,71.548,84.985-0.559,198.814
				l-1.067,1.684l0.107,1.992c11.313,213.73,188.01,300.703,189.793,301.557l2.7,1.289l2.701-1.289
				c1.781-0.854,178.478-87.827,189.787-301.557l0.107-1.992l-1.064-1.684c-72.109-113.823-3.516-195.396-0.556-198.814l3.252-3.765
				l-2.93-4.023l-69.814-95.42L414.133,120.066L414.133,120.066z"/>
			<path style="fill-rule:evenodd;clip-rule:evenodd;fill:#FFFFFF;" d="M228.887,300.383v358.72
				c16.746,15.723,32.551,27.71,45,36.162V300.383H228.887L228.887,300.383z"/>
			<path style="fill-rule:evenodd;clip-rule:evenodd;fill:#FFFFFF;" d="M150.376,300.383c0.376,4.59,0.637,9.282,0.637,14.155
				c0,19.639-3.381,41.47-12.127,64.951v144.99c11.973,32.48,27.835,60.307,45,83.784V300.383H150.376L150.376,300.383z"/>
			<path style="fill-rule:evenodd;clip-rule:evenodd;fill:#FFFFFF;" d="M318.887,165.777v531.15
				c12.209-8.12,28.029-19.854,45.002-35.503V156.272C346.281,161.848,330.569,164.514,318.887,165.777L318.887,165.777z"/>
			<path style="fill-rule:evenodd;clip-rule:evenodd;fill:#FFFFFF;" d="M444.26,314.539c0-22.07,4.18-41.274,9.629-57.007v-73.606
				c-15.732-21.504-34.492-47.144-37.93-51.838c-2.354,1.501-4.717,2.917-7.07,4.292v475.273c16.924-22.583,32.754-49.282,45-80.459
				V372.405C446.984,351.609,444.26,332.185,444.26,314.539L444.26,314.539z"/>
			<path style="fill-rule:evenodd;clip-rule:evenodd;fill:#EF4423;" d="M273.887,165.476c-22.864-2.737-58.925-10.679-94.575-33.389
				c-5.806,7.934-55.366,75.674-60.142,82.197c7.346,9.981,26.401,39.58,30.837,82.349h123.879V165.476L273.887,165.476z"/>
			<path style="fill-rule:evenodd;clip-rule:evenodd;" d="M166.934,207.793c0.525,0.215,0.954,0.728,1.291,1.538
				c0.337,0.813,0.505,2.231,0.505,4.253c0,3.833-0.203,6.157-0.605,6.968c-0.405,0.813-1.333,1.218-2.786,1.218
				c-0.352,0-0.835,0.015-1.453,0.039v-14.375C165.393,207.461,166.409,207.581,166.934,207.793L166.934,207.793z M149.355,260.872
				h16.834c5.864,0,9.736-0.383,11.621-1.152c1.882-0.769,3.262-2.202,4.138-4.297c0.874-2.095,1.313-5.315,1.313-9.666v-5.967
				c0-4.19-0.6-7.3-1.799-9.329c-1.199-2.026-3.469-3.479-6.814-4.356c3.037-0.798,5.076-1.943,6.116-3.435
				c1.04-1.492,1.56-4.128,1.56-7.913c0-5.591-0.732-9.646-2.195-12.163c-1.465-2.517-3.379-4.19-5.747-5.015
				c-2.368-0.825-5.854-1.24-10.459-1.24h-14.568V260.872L149.355,260.872z M167.942,232.803c0.525,0.581,0.789,2.246,0.789,4.995
				v5.991c0,2.593-0.291,4.219-0.869,4.878c-0.579,0.662-1.904,1.033-3.975,1.111v-17.969
				C166.065,231.89,167.417,232.222,167.942,232.803L167.942,232.803z"/>
			<polygon style="fill-rule:evenodd;clip-rule:evenodd;" points="192.825,196.341 217.043,196.341 217.043,209.309 
				207.356,209.309 207.356,221.497 216.418,221.497 216.418,233.841 207.356,233.841 207.356,247.903 218.137,247.903 
				218.137,260.872 192.825,260.872 192.825,196.341 			"/>
			<path style="fill-rule:evenodd;clip-rule:evenodd;" d="M260.649,224.309h-14.531v-11.157c0-3.242-0.159-5.266-0.474-6.072
				c-0.315-0.806-1.02-1.208-2.117-1.208c-1.235,0-2.024,0.493-2.366,1.477c-0.342,0.986-0.512,3.115-0.512,6.387v30.019
				c0,3.142,0.171,5.193,0.512,6.15c0.342,0.957,1.089,1.436,2.241,1.436c1.123,0,1.858-0.481,2.2-1.448
				c0.342-0.964,0.515-3.23,0.515-6.794v-8.164h14.531v2.527c0,6.709-0.408,11.467-1.218,14.272
				c-0.811,2.808-2.627,5.266-5.449,7.378c-2.822,2.109-6.294,3.167-10.418,3.167c-4.26,0-7.781-0.894-10.561-2.673
				c-2.781-1.782-4.624-4.251-5.528-7.405c-0.906-3.154-1.357-7.898-1.357-14.233v-18.882c0-4.656,0.139-8.149,0.418-10.479
				c0.278-2.329,1.103-4.57,2.475-6.726c1.372-2.153,3.281-3.85,5.73-5.088c2.446-1.238,5.254-1.858,8.423-1.858
				c4.311,0,7.864,0.954,10.659,2.859c2.793,1.904,4.629,4.28,5.508,7.124c0.879,2.847,1.318,7.273,1.318,13.279V224.309
				L260.649,224.309z"/>
		</g>
	</g>
</g>
</svg>
