<?xml version="1.0" encoding="iso-8859-1"?>
<!-- Generator: Adobe Illustrator 23.0.1, SVG Export Plug-In . SVG Version: 6.00 Build 0)  -->
<svg version="1.1" xmlns="http://www.w3.org/2000/svg" xmlns:xlink="http://www.w3.org/1999/xlink" x="0px" y="0px"
	 viewBox="0 0 595.276 841.89" style="enable-background:new 0 0 595.276 841.89;" xml:space="preserve">
<g id="Grade" style="display:none;">
</g>
<g id="HQFL">
</g>
<g id="&#xC1;rea_de_trabalho">
</g>
<g id="Linhas-guia">
</g>
<g id="Page_1">
	<g id="HQFL_1_">
		<g>
			<path style="fill-rule:evenodd;clip-rule:evenodd;fill:#E31B22;" d="M30.719,103.466v388.765
				c0,102.654,146.442,246.194,266.919,246.194c120.475,0,266.918-143.539,266.918-246.194V245.876
				c-35.563,0-67.174-9.274-96.285-28.385c-25.643-16.854-45.965-39.11-57.898-63.141c-7.984-16.047-12.339-31.692-12.177-50.884
				H30.719L30.719,103.466z"/>
			<path style="fill-rule:evenodd;clip-rule:evenodd;fill:#FFFFFF;" d="M222.32,677.138c-47.659,0.322-86.527-33.95-86.527-76.286
				c0-28.451,17.569-53.46,43.548-66.914L36.445,427.316v63.383c0,103.299,146.442,242.001,261.193,242.001
				c33.869,0,70.559-12.097,105.395-31.854l-99.683-74.379C291.099,655.742,259.399,676.886,222.32,677.138L222.32,677.138z"/>
			<path style="fill-rule:evenodd;clip-rule:evenodd;fill:#FFFFFF;" d="M36.445,403.123v10l155.027,115.6
				c3.14-1.092,6.362-2.034,9.663-2.799L36.445,403.123L36.445,403.123z"/>
			<path style="fill-rule:evenodd;clip-rule:evenodd;fill:#FFFFFF;" d="M413.759,694.475c2.42-1.451,4.839-2.983,7.258-4.596
				l-112.56-83.931c-0.276,3.037-0.732,6.03-1.397,8.963L413.759,694.475L413.759,694.475z"/>
			<polygon style="fill-rule:evenodd;clip-rule:evenodd;fill:#FFFFFF;" points="177.322,109.272 558.831,393.85 558.831,383.85 
				190.709,109.272 177.322,109.272 			"/>
			<path style="fill-rule:evenodd;clip-rule:evenodd;fill:#FFFFFF;" d="M36.445,109.272v286.675l172.3,128.539
				c4.425-0.654,8.957-1.016,13.575-1.048c47.418-0.319,86.039,33.608,86.427,75.65l117.269,87.484
				c73.06-49.513,132.814-129.911,132.814-195.874v-89.671L167.727,109.272H36.445L36.445,109.272z"/>
			<path style="fill-rule:evenodd;clip-rule:evenodd;fill:#FFFFFF;" d="M464.481,221.845c-26.208-17.499-46.689-40.32-59.352-65.077
				c-7.902-15.483-12.176-31.691-12.66-47.496H209.902l348.93,260.306V251.44C524.881,251.359,490.286,239.182,464.481,221.845
				L464.481,221.845z"/>
			<path style="fill-rule:evenodd;clip-rule:evenodd;fill:#E31B22;" d="M188.612,417.638c-8.87,0-16.048,7.097-16.048,15.967
				c0,8.871,7.177,16.048,16.048,16.048c8.87,0,16.048-7.177,16.048-16.048C204.66,424.735,197.483,417.638,188.612,417.638
				L188.612,417.638z"/>
			<path style="fill-rule:evenodd;clip-rule:evenodd;fill:#E31B22;" d="M177.645,269.1c0-6.452-2.741-12.258-6.773-16.773
				c4.032-4.516,6.773-10.241,6.773-16.693l-0.08-57.173c0-14.918-14.677-26.289-25.966-26.289H78.458v242.727h73.141
				c11.29,0,25.966-11.37,25.966-26.289L177.645,269.1L177.645,269.1z M158.372,361.272c0,6.128-7.499,14.515-13.063,14.515H97.651
				V261.923h47.739c5.564,0,13.064,8.386,13.064,14.515L158.372,361.272L158.372,361.272z M145.389,242.731H97.651v-71.447h47.658
				c5.564,0,13.063,8.387,13.063,14.515l0.081,42.498C158.453,234.424,150.953,242.731,145.389,242.731L145.389,242.731z"/>
			<path style="fill-rule:evenodd;clip-rule:evenodd;fill:#E31B22;" d="M314.008,402.72h-57.335V294.502
				c0-6.129,7.5-14.435,13.064-14.435h29.271c5.564,0,13.064,8.306,13.064,14.435v12.741h19.112v-20.079
				c0-14.918-14.596-26.289-25.886-26.289h-41.932c-11.21,0-25.886,11.37-25.886,26.289v223.131h19.192V421.75h57.335V402.72
				L314.008,402.72z"/>
			<path style="fill-rule:evenodd;clip-rule:evenodd;fill:#E31B22;" d="M320.619,512.793c-8.789,0-16.047,7.258-16.047,16.048
				c0,8.87,7.258,16.128,16.047,16.128c8.871,0,16.129-7.258,16.129-16.128C336.748,520.051,329.49,512.793,320.619,512.793
				L320.619,512.793z"/>
			<path style="fill-rule:evenodd;clip-rule:evenodd;fill:#E31B22;" d="M449.886,607.062c-8.79,0-16.048,7.258-16.048,16.128
				c0,8.79,7.258,16.048,16.048,16.048c8.87,0,16.128-7.258,16.128-16.048C466.013,614.32,458.756,607.062,449.886,607.062
				L449.886,607.062z"/>
			<path style="fill-rule:evenodd;clip-rule:evenodd;fill:#E31B22;" d="M449.079,569.323v-32.014h-19.112v24.675
				c0,6.129-7.498,14.436-13.143,14.436h-29.272c-5.565,0-13.063-8.307-13.063-14.436V389.738c0-6.129,7.498-14.515,13.063-14.515
				h29.272c5.645,0,13.143,8.386,13.143,14.515v24.595h19.112v-31.933c0-14.918-14.677-26.289-25.886-26.289H381.18
				c-11.209,0-25.886,11.37-25.886,26.289v186.924c0,14.918,14.677,26.288,25.886,26.288h42.013
				C434.402,595.611,449.079,584.24,449.079,569.323L449.079,569.323z"/>
			<path style="fill-rule:evenodd;clip-rule:evenodd;fill:#FFFFFF;" d="M244.899,568.113c10.402,24.837,9.758,52.335,5.161,77.172
				c11.531-11.773,19.273-23.063,25.885-39.11c8.145-19.515,9.273-40.964,6.209-56.608c-15.079-13.87-36.288-22.499-59.835-22.337
				c-3.629,0.08-7.257,0.322-10.806,0.725C228.932,539.566,238.851,553.598,244.899,568.113L244.899,568.113z"/>
			<path style="fill-rule:evenodd;clip-rule:evenodd;fill:#FFFFFF;" d="M245.947,646.253c4.516-21.048,6.048-51.851-4.597-76.769
				c-7.015-16.208-17.982-30.24-35.724-40.643c-9.515,1.854-18.547,5.08-26.611,9.597c-3.79,22.257,1.048,43.626,11.531,62.173
				C202.402,621.657,221.675,637.786,245.947,646.253L245.947,646.253z"/>
			<path style="fill-rule:evenodd;clip-rule:evenodd;fill:#FFFFFF;" d="M183.37,630.044c15.483,8.226,32.821,14.354,53.626,16.693
				C212.159,635.69,197.16,619.883,187,602.143c-10.968-19.193-14.918-41.691-12.177-61.206
				c-17.983,11.289-30.724,28.788-34.191,48.788C148.696,606.901,167.001,621.335,183.37,630.044L183.37,630.044z"/>
			<path style="fill-rule:evenodd;clip-rule:evenodd;fill:#FFFFFF;" d="M279.413,607.949c-3.859,9.81-10.766,21.863-20.559,33.604
				c10.556-6.565,18.109-12.049,27.574-22.476c6.935-7.66,12.822-16.37,17.902-28.547c-2.016-13.709-8.225-26.288-17.66-36.449
				C288.687,567.145,287.8,586.418,279.413,607.949L279.413,607.949z"/>
			<path style="fill-rule:evenodd;clip-rule:evenodd;fill:#FFFFFF;" d="M239.577,650.85c-20.16-1.532-42.013-8.629-58.625-17.821
				c-16.612-9.032-31.691-21.048-41.127-36.693c-0.08,1.532-0.161,2.983-0.161,4.516c0,18.871,8.145,36.047,21.612,48.949
				C190.306,664.156,221.03,657.784,239.577,650.85L239.577,650.85z"/>
			<path style="fill-rule:evenodd;clip-rule:evenodd;fill:#FFFFFF;" d="M248.931,651.979c-0.726,6.935-3.225,13.063-6.935,19.11
				c9.435-2.097,18.225-5.645,26.046-10.321c-5.564-1.451-12.499-4.436-19.112-8.87V651.979L248.931,651.979z"/>
			<path style="fill-rule:evenodd;clip-rule:evenodd;fill:#FFFFFF;" d="M272.559,657.866c5.645-3.871,10.725-8.307,15.08-13.306
				c-14.274,5.08-21.934,6.854-31.934,7.015C262.318,655.042,267.478,656.978,272.559,657.866L272.559,657.866z"/>
			<path style="fill-rule:evenodd;clip-rule:evenodd;fill:#FFFFFF;" d="M289.332,621.576
				c-11.451,12.741-23.225,20.404-33.627,26.128l-0.081,0.081h0.161c11.774-0.081,22.741-4.032,36.047-8.467
				c8.225-11.452,13.144-25.08,13.144-39.595c0-0.483,0-0.888,0-1.371C300.945,606.738,295.702,614.481,289.332,621.576
				L289.332,621.576z"/>
			<path style="fill-rule:evenodd;clip-rule:evenodd;fill:#FFFFFF;" d="M244.415,655.527c-7.338,5.887-16.45,12.338-29.837,17.499
				c2.581,0.161,5.161,0.322,7.742,0.241c4.919,0,9.676-0.403,14.354-1.209c3.387-4.758,6.773-10.484,7.822-16.531H244.415
				L244.415,655.527z"/>
			<path style="fill-rule:evenodd;clip-rule:evenodd;fill:#FFFFFF;" d="M171.356,658.026c9.999,6.854,21.773,11.693,34.594,13.951
				c12.153-4.025,19.248-7.166,32.424-16.56C215.283,663.669,192.275,664.061,171.356,658.026L171.356,658.026z"/>
		</g>
	</g>
</g>
</svg>
