<?xml version="1.0" encoding="iso-8859-1"?>
<!-- Generator: Adobe Illustrator 23.0.1, SVG Export Plug-In . SVG Version: 6.00 Build 0)  -->
<svg version="1.1" xmlns="http://www.w3.org/2000/svg" xmlns:xlink="http://www.w3.org/1999/xlink" x="0px" y="0px"
	 viewBox="0 0 595.276 841.89" style="enable-background:new 0 0 595.276 841.89;" xml:space="preserve">
<g id="Grade" style="display:none;">
</g>
<g id="HQFL">
</g>
<g id="&#xC1;rea_de_trabalho">
</g>
<g id="Linhas-guia">
</g>
<g id="Page_1">
	<g id="HQFL_1_">
		<g>
			<path style="fill-rule:evenodd;clip-rule:evenodd;fill:#FFFFFF;" d="M297.638,692.303
				c-107.461-19.439-197.102-125.273-197.102-223.565V152.303c72.905,37.8,139.321,37.258,197.102,0
				c58.315,37.258,124.746,37.8,197.094,0v316.435C494.732,567.029,405.098,672.864,297.638,692.303L297.638,692.303z"/>
			<path style="fill-rule:evenodd;clip-rule:evenodd;" d="M295.466,169.8c-56.235,36.92-127.123,24.604-176.689,7.771l-5.544-1.856
				v145.341h367.741V176.038l-5.985,1.496c0,0-14.116,4.892-14.145,4.901c-25.591,8.711-55.227,12.611-83.448,10.981
				c-30.837-1.781-58.037-9.945-78.659-23.609l-1.633-1.082L295.466,169.8L295.466,169.8z M297.123,175.769
				c21.286,13.61,48.84,21.782,79.929,23.577c28.97,1.673,59.407-2.335,85.707-11.288c0,0,9.566-3.315,12.274-4.253
				c0,7.313,0,125.79,0,131.311c-5.795,0-350.067,0-355.862,0c0-5.515,0-123.622,0-131.174
				C169.393,200.642,240.012,212.196,297.123,175.769L297.123,175.769z"/>
			<g>
				<path style="fill-rule:evenodd;clip-rule:evenodd;fill:#EE3524;" d="M100.536,489.261
					c5.939,45.908,29.699,92.344,64.805,129.609V334.822h-64.805V489.261L100.536,489.261z"/>
				<path style="fill-rule:evenodd;clip-rule:evenodd;fill:#EE3524;" d="M298.179,692.303v-357.48h65.874v333.178
					C344.073,679.339,321.939,687.981,298.179,692.303L298.179,692.303z"/>
			</g>
			<path style="fill-rule:evenodd;clip-rule:evenodd;" d="M158.316,220.887h31.86c17.285,0,26.463,5.398,26.463,17.278
				c0,2.703-1.077,6.482-2.703,9.177c-1.618,2.161-3.237,4.863-6.475,6.482c3.779,0.542,6.475,3.237,8.636,6.482
				c1.618,2.161,2.702,6.475,2.702,10.261c0,4.856-1.618,9.177-3.237,12.415c-2.702,2.161-6.481,5.405-10.261,6.482
				c-3.779,0.542-9.185,2.161-14.583,2.161h-32.402V220.887L158.316,220.887z M179.916,237.623v11.338h8.643
				c2.16,0,4.863-0.535,5.397-1.619c1.084-1.077,1.626-2.695,1.626-4.321c0-2.153,0-3.779-1.084-4.314
				c-1.076-0.542-3.779-1.084-5.939-1.084H179.916L179.916,237.623z M179.916,261.382v13.499h9.727c5.939,0,9.177-1.619,9.177-5.94
				c0-2.161-0.542-3.779-1.084-4.314c-0.534-1.626-2.153-2.161-3.779-2.703c-2.153,0-4.313-0.542-7.559-0.542H179.916
				L179.916,261.382z M226.358,271.102h18.904v20.522h-18.904V271.102L226.358,271.102z M270.098,220.887h50.757v16.736H292.24
				v11.88h22.676v16.743H292.24v25.378h-22.141V220.887L270.098,220.887z M315.999,271.102h18.903v20.522h-18.903V271.102
				L315.999,271.102z M400.777,247.884c-0.542-3.237-1.612-5.398-2.695-7.559c-1.626-1.619-2.71-2.703-4.863-3.245
				c-1.626-1.077-3.237-1.077-4.321-1.077c-4.321,0-8.101,2.161-9.185,5.94c-1.611,4.321-3.237,9.177-3.237,15.117
				c0,12.964,4.321,18.904,12.422,18.904c7.017,0,10.268-3.779,11.88-11.338h20.522c-0.542,5.398-2.168,10.796-4.863,14.575
				c-2.153,4.321-5.933,8.101-10.254,10.261c-4.321,2.703-9.727,3.779-16.201,3.779c-5.405,0-10.268-0.542-14.575-2.161
				c-4.321-1.619-8.101-4.321-10.81-7.559c-3.237-2.703-5.933-7.017-7.017-11.338c-1.626-4.863-2.695-10.261-2.695-15.125
				c0-6.475,1.069-12.415,2.695-17.278c2.153-4.863,4.863-9.177,7.559-11.338c3.779-3.245,7.017-5.94,10.796-7.024
				c3.779-1.619,8.101-2.161,11.88-2.161c11.352,0,19.981,3.245,24.302,8.101c4.863,5.94,7.559,12.422,8.643,20.522H400.777
				L400.777,247.884z M427.774,271.102h18.911v20.522h-18.911V271.102L427.774,271.102z"/>
			<path style="fill-rule:evenodd;clip-rule:evenodd;" d="M493.284,148.468c-70.918,36.777-135.961,36.843-193.321,0.194
				l-2.326-1.486l-2.325,1.486c-57.358,36.647-122.401,36.581-193.322-0.194l-6.309-3.271v323.542
				c0,48.297,21.718,100.854,59.587,144.194c38.819,44.429,89.107,74.126,141.6,83.621l0.769,0.14l0.769-0.14
				c52.492-9.495,102.78-39.192,141.599-83.621c37.869-43.34,59.588-95.897,59.588-144.194V145.197L493.284,148.468L493.284,148.468
				z M297.638,157.325c57.849,35.899,122.844,36.505,193.316,1.895c0,13.237,0,309.518,0,309.518
				c0,97.884-90.246,200.083-193.316,219.154c-103.071-19.071-193.317-121.271-193.317-219.154c0,0,0-296.281,0-309.518
				C174.797,193.829,239.791,193.222,297.638,157.325L297.638,157.325z"/>
			<path style="fill-rule:evenodd;clip-rule:evenodd;" d="M495.816,332.932v-1.888H100.001v1.888h-1.356v156.45l0.016,0.12
				c5.934,45.854,29.125,92.258,65.304,130.663l3.266-1.296V339.684h62.636v331.058l0.977,0.539
				c20.459,11.303,42.646,19.003,65.942,22.885l0.154,0.026h3.13v-0.33c22.183-4.221,44.016-12.356,64.917-24.218l0.957-0.543
				V339.684h62.651V616.16l3.27,1.291c41.155-44.008,64.757-98.211,64.757-148.713V332.932H495.816L495.816,332.932z
				 M163.45,613.982c-33.718-37.085-55.354-81.234-61.025-124.862c0-0.257,0-128.043,0-149.436h61.025
				C163.45,369.122,163.45,605.129,163.45,613.982L163.45,613.982z M362.163,666.876c-20.027,11.238-40.899,18.995-62.095,23.11
				c0-4.323,0-316.336,0-350.302h62.095C362.163,372.523,362.163,664.766,362.163,666.876L362.163,666.876z"/>
		</g>
	</g>
</g>
</svg>
