<?xml version="1.0" encoding="iso-8859-1"?>
<!-- Generator: Adobe Illustrator 23.0.1, SVG Export Plug-In . SVG Version: 6.00 Build 0)  -->
<svg version="1.1" xmlns="http://www.w3.org/2000/svg" xmlns:xlink="http://www.w3.org/1999/xlink" x="0px" y="0px"
	 viewBox="0 0 595.276 841.89" style="enable-background:new 0 0 595.276 841.89;" xml:space="preserve">
<g id="Grade" style="display:none;">
</g>
<g id="HQFL">
</g>
<g id="&#xC1;rea_de_trabalho">
</g>
<g id="Linhas-guia">
</g>
<g id="Page_1">
	<g id="HQFL_1_">
		<g>
			<path style="fill-rule:evenodd;clip-rule:evenodd;stroke:#000000;stroke-width:0.216;stroke-miterlimit:2.4142;" d="
				M297.641,748.003c0,0,15.88-34.58,125.021-87.079c109.135-52.499,149.195-99.953,149.195-160.434
				c0-75.833-64.042-142.667-71.428-209.475c-5.387-48.731,45.651-93.31,45.651-93.31l-76.866-90.496
				c0,0-43.18,20.746-87.225,20.746c-44.045,0-67.114-16.832-84.349-34.067c-17.235,17.236-40.306,34.067-84.349,34.067
				c-44.043,0-87.227-20.746-87.227-20.746l-76.866,90.496c0,0,51.039,44.579,45.653,93.31
				c-7.386,66.809-71.434,133.642-71.434,209.475c0,60.481,40.067,107.935,149.205,160.434
				C281.761,713.422,297.641,748.003,297.641,748.003L297.641,748.003z"/>
			<path style="fill-rule:evenodd;clip-rule:evenodd;fill:#FFFFFF;" d="M161.873,532.293v104.286
				c8.463,4.412,16.94,8.708,25.375,12.982c14.52,7.349,28.918,14.641,42.624,22.193V476.617L161.873,532.293L161.873,532.293z"/>
			<path style="fill-rule:evenodd;clip-rule:evenodd;fill:#FFFFFF;" d="M128.845,618.369v-59.027L89.74,591.363
				C101.496,601.162,114.772,610.038,128.845,618.369L128.845,618.369z"/>
			<path style="fill-rule:evenodd;clip-rule:evenodd;fill:#FFFFFF;" d="M264.845,447.975v245.093
				c12.496,8.636,23.692,17.883,32.945,28.11c9.232-10.409,20.495-19.808,33.111-28.583V393.888L264.845,447.975L264.845,447.975z"
				/>
			<path style="fill-rule:evenodd;clip-rule:evenodd;fill:#FFFFFF;" d="M365.87,365.248V671.18
				c13.438-7.436,27.544-14.618,41.774-21.873c8.726-4.449,17.505-8.92,26.228-13.507V309.568L365.87,365.248L365.87,365.248z"/>
			<path style="fill-rule:evenodd;clip-rule:evenodd;fill:#FFFFFF;" d="M455.032,130.979c-17.995,6.303-45.044,13.703-72.85,13.703
				c-40.846,0-66.405-13.521-84.347-28.263c-17.942,14.742-43.499,28.263-84.349,28.263c-33.297,0-65.508-10.613-82.394-17.243
				c-11.004,12.954-45.435,53.495-58.791,69.219c15.318,16.784,40.021,49.607,40.021,86.97c0,3.002-0.16,6.034-0.498,9.087
				c-3.669,33.199-19.754,65.737-35.311,97.198c-12.959,26.213-26.242,53.084-32.435,80.333L455.032,130.979L455.032,130.979z"/>
			<path style="fill-rule:evenodd;clip-rule:evenodd;" d="M198.093,187.44c30.649,0,55.647,25.003,55.647,55.654
				c0,30.654-24.998,55.654-55.647,55.654c-30.651,0-55.648-25-55.648-55.654C142.445,212.443,167.442,187.44,198.093,187.44
				L198.093,187.44z"/>
			<path style="fill-rule:evenodd;clip-rule:evenodd;fill:#FFFFFF;" d="M87.995,446.719l31.839-25.919
				c6.303-5.132,11.212-8.702,14.728-10.7c3.516-2,7.198-3.148,10.994-3.474c3.796-0.328,7.662,0.228,11.529,1.672
				c3.88,1.453,7.236,3.889,10.039,7.33c3.036,3.729,4.814,7.978,5.352,12.715c0.524,4.739-0.302,9.312-2.47,13.673
				c5.982-2.544,11.68-3.169,17.048-1.89c5.379,1.294,9.957,4.224,13.7,8.817c2.944,3.62,4.99,7.844,6.092,12.62
				c1.101,4.775,1.028,9.406-0.218,13.812c-1.247,4.435-3.809,8.636-7.709,12.583c-2.439,2.472-8.761,7.931-18.948,16.327
				l-27.116,22.092L87.995,446.719L87.995,446.719z M114.866,446.878l15.011,18.428l10.535-8.585
				c6.261-5.096,10.081-8.381,11.457-9.784c2.488-2.559,3.866-5.292,4.156-8.127c0.293-2.856-0.609-5.591-2.704-8.156
				c-2.001-2.457-4.318-3.919-6.91-4.355c-2.606-0.422-5.395,0.283-8.343,2.159c-1.73,1.119-6.395,4.754-13.955,10.911
				L114.866,446.878L114.866,446.878z M140.663,478.551l17.355,21.307l14.873-12.118c5.795-4.726,9.341-7.902,10.628-9.48
				c2.032-2.377,3.122-5.022,3.26-7.924c0.136-2.9-0.962-5.778-3.257-8.599c-1.942-2.384-4.182-3.954-6.691-4.674
				c-2.508-0.72-5.187-0.581-7.981,0.443c-2.81,1.04-7.882,4.522-15.195,10.483L140.663,478.551L140.663,478.551z M238.612,456.509
				l-12.434-15.266l15.262-12.43l12.436,15.266L238.612,456.509L238.612,456.509z M275.295,426.626l-64.868-79.636l54.591-44.476
				l10.975,13.47l-38.519,31.386l15.353,18.846l33.257-27.094l10.974,13.471l-33.257,27.1l27.563,33.839L275.295,426.626
				L275.295,426.626z M336.273,376.943l-12.434-15.266l15.263-12.437l12.434,15.266L336.273,376.943L336.273,376.943z
				 M399.945,276.344l19.62-7.738c4.692,10.631,5.983,20.328,3.857,29.059c-2.112,8.745-7.458,16.611-16,23.571
				c-10.584,8.621-22.226,12.097-34.896,10.417c-12.692-1.683-24.159-8.793-34.354-21.307
				c-10.799-13.256-15.768-26.356-14.902-39.25c0.884-12.911,6.896-23.92,18.043-33c9.74-7.934,20.001-11.511,30.774-10.719
				c6.39,0.469,13.1,3.155,20.089,8.044l-12.819,16.766c-4.293-3.351-8.935-5.009-13.855-4.965
				c-4.918,0.036-9.537,1.807-13.805,5.277c-5.895,4.805-8.963,10.839-9.195,18.054c-0.222,7.229,3.532,15.61,11.256,25.097
				c8.196,10.06,15.869,15.76,22.957,17.084c7.099,1.33,13.569-0.379,19.347-5.09c4.282-3.488,6.86-7.847,7.71-13.062
				c0.864-5.227-0.396-11.318-3.813-18.225L399.945,276.344L399.945,276.344z M458.648,277.238l-12.434-15.266l15.262-12.438
				l12.434,15.266L458.648,277.238L458.648,277.238z"/>
			<path style="fill-rule:evenodd;clip-rule:evenodd;fill:#FFFFFF;" d="M517.967,392.74c-15.971-30.976-39.971-81.31-33.966-124.222
				l-17.105,14.005v334.879C538.738,574.273,589.09,516.307,517.967,392.74L517.967,392.74z"/>
		</g>
	</g>
</g>
</svg>
