<?xml version="1.0" encoding="iso-8859-1"?>
<!-- Generator: Adobe Illustrator 23.0.1, SVG Export Plug-In . SVG Version: 6.00 Build 0)  -->
<svg version="1.1" xmlns="http://www.w3.org/2000/svg" xmlns:xlink="http://www.w3.org/1999/xlink" x="0px" y="0px"
	 viewBox="0 0 595.276 841.89" style="enable-background:new 0 0 595.276 841.89;" xml:space="preserve">
<g id="Grade" style="display:none;">
</g>
<g id="HQFL">
</g>
<g id="&#xC1;rea_de_trabalho">
</g>
<g id="Linhas-guia">
</g>
<g id="Page_1">
	<g id="HQFL_1_">
		<g>
			<path style="fill-rule:evenodd;clip-rule:evenodd;fill:#87271E;" d="M575.471,413.556c0,154.086-124.913,279-279.001,279
				s-279-124.914-279-279c0-154.087,124.912-279,279-279S575.471,259.47,575.471,413.556L575.471,413.556z"/>
			<path style="fill-rule:evenodd;clip-rule:evenodd;fill:#FFFFFF;" d="M555.938,413.556c0,143.3-116.167,259.47-259.469,259.47
				S36.999,556.856,36.999,413.556c0-143.301,116.169-259.471,259.471-259.471S555.938,270.255,555.938,413.556L555.938,413.556z"/>
			<path style="fill-rule:evenodd;clip-rule:evenodd;fill:#87271E;" d="M539.196,413.556c0,134.053-108.671,242.729-242.727,242.729
				S53.74,547.61,53.74,413.556c0-134.055,108.673-242.73,242.729-242.73S539.196,279.502,539.196,413.556L539.196,413.556z"/>
			<path style="fill-rule:evenodd;clip-rule:evenodd;fill:#FFFFFF;" d="M400.147,528.756c-3.6-5.038-5.399-10.801-5.759-17.639
				h-0.358v-7.199v-0.362l-0.721-149.038c-0.362-16.2,1.439-31.324,5.401-45.724c6.12-20.517,17.279-38.517,32.762-54.717
				c-0.724-3.241-2.162-5.4-4.683-6.121c-19.8-11.879-39.599-10.079-59.759,5.762c-9.359-6.483-18.359-13.683-27.359-21.242
				c-7.2-6.483-15.124-10.441-24.124-11.883c-28.798-5.758-50.757,2.162-65.877,24.125c6.84-0.362,12.6,0,18.36,1.076
				c22.68,3.962,39.6,15.483,50.4,34.924v211.317c0,4.32-0.721,8.641-1.441,12.958c-2.159,9-6.479,17.283-12.599,24.124
				c-9.664,11.096-21.109,15.765-34.33,15.828l0.011,0.07c-9.979,0-19.21-3.143-26.81-8.459c-1.969-1.519-3.892-3.175-5.739-5.076
				l-0.262,0.102c-8.662-8.504-14.048-20.331-14.048-33.427c0-0.277,0.037-0.545,0.042-0.822c5.629,2.05,11.679,3.224,18.018,3.224
				c25.859,0,47.338-18.605,51.876-43.15c0.58-3.137,0.921-6.35,0.921-9.65c0-29.163-23.639-52.802-52.797-52.802
				c-6.889,0-13.449,1.361-19.482,3.758c-3.585,1.424-6.989,3.196-10.137,5.334c-32.912,19.553-54.981,55.448-54.981,96.51
				c0,55.54,40.366,101.626,93.356,110.591c11.208,2.837,23.1,4.37,36.003,4.37c25.56,0,48.241-5.762,68.758-17.283
				c7.2-4.316,14.759-10.079,23.041-16.917c8.642-7.561,15.842-15.841,21.601-24.841c2.879-4.321,5.399-8.642,7.559-13.684
				l2.158-5.399c0.362-0.358,0.362-0.718,0.362-1.076c-1.8-0.724-3.6-1.441-5.038-2.883
				C403.029,532.356,401.588,530.556,400.147,528.756L400.147,528.756z"/>
		</g>
	</g>
</g>
</svg>
