<?xml version="1.0" encoding="iso-8859-1"?>
<!-- Generator: Adobe Illustrator 23.0.1, SVG Export Plug-In . SVG Version: 6.00 Build 0)  -->
<svg version="1.1" xmlns="http://www.w3.org/2000/svg" xmlns:xlink="http://www.w3.org/1999/xlink" x="0px" y="0px"
	 viewBox="0 0 595.276 841.89" style="enable-background:new 0 0 595.276 841.89;" xml:space="preserve">
<g id="Grade" style="display:none;">
</g>
<g id="HQFL">
</g>
<g id="&#xC1;rea_de_trabalho">
</g>
<g id="Linhas-guia">
</g>
<g id="Page_1">
	<g id="HQFL_1_">
		<g>
			<polygon style="fill-rule:evenodd;clip-rule:evenodd;fill:#264286;" points="569.037,136.029 569.037,290.274 297.637,705.86 
				26.239,290.274 26.239,136.029 569.037,136.029 			"/>
			<polygon style="fill-rule:evenodd;clip-rule:evenodd;fill:#ED1C24;" points="42.191,279.97 553.084,279.97 553.084,151.981 
				42.191,151.981 42.191,279.97 			"/>
			<path style="fill-rule:evenodd;clip-rule:evenodd;fill:#FFFFFF;" d="M164.937,230.012l16.895,5.376
				c-2.583,9.42-6.896,16.427-12.915,20.989c-6.019,4.576-13.682,6.868-22.946,6.868c-11.475,0-20.91-3.92-28.278-11.744
				c-7.384-7.837-11.082-18.558-11.082-32.136c0-14.375,3.714-25.549,11.129-33.496c7.428-7.947,17.194-11.927,29.282-11.927
				c10.563,0,19.153,3.119,25.752,9.359c3.92,3.698,6.868,9.012,8.825,15.908l-17.257,4.122c-1.02-4.464-3.166-8.011-6.396-10.594
				c-3.23-2.59-7.178-3.889-11.804-3.889c-6.396,0-11.598,2.305-15.578,6.88c-3.983,4.595-5.991,12.055-5.991,22.339
				c0,10.908,1.976,18.7,5.896,23.323c3.919,4.642,9.043,6.96,15.312,6.96c4.642,0,8.638-1.472,11.962-4.421
				c3.337-2.944,5.75-7.586,7.194-13.903V230.012L164.937,230.012z M196.695,261.771v-16.554h16.554v16.554H196.695L196.695,261.771
				z M341.722,261.771h-18.966l-7.539-19.612h-34.532l-7.118,19.612H255.07l33.626-86.355h18.45L341.722,261.771L341.722,261.771z
				 M309.623,227.599l-11.897-32.043l-11.68,32.056L309.623,227.599L309.623,227.599z M350.864,261.771v-16.554h16.554v16.554
				H350.864L350.864,261.771z M418.018,261.771l-0.016-86.355h27.997c10.598,0,17.51,0.44,20.739,1.301
				c4.933,1.286,9.087,4.123,12.412,8.448c3.34,4.329,5.016,9.955,5.016,16.82c0,5.3-0.973,9.765-2.885,13.371
				c-1.913,3.607-4.373,6.456-7.337,8.511c-2.96,2.055-5.984,3.436-9.043,4.091c-4.154,0.817-10.189,1.238-18.089,1.238h-11.364
				v32.575H418.018L418.018,261.771z M435.449,190.009v24.514h9.547c6.864,0,11.459-0.453,13.776-1.349
				c2.321-0.905,4.139-2.333,5.456-4.246c1.316-1.909,1.975-4.17,1.975-6.709c0-3.135-0.925-5.734-2.758-7.774
				c-1.852-2.036-4.202-3.337-7.023-3.841c-2.07-0.374-6.27-0.58-12.555-0.58L435.449,190.009L435.449,190.009z M482.821,261.771
				v-16.554h16.553v16.554H482.821L482.821,261.771z"/>
			<path style="fill-rule:evenodd;clip-rule:evenodd;fill:#FFFFFF;" d="M252.262,605.793c0,0,45.375,69.891,45.375,69.481
				l45.374-69.481V295.921h-90.749L252.262,605.793L252.262,605.793z"/>
			<polygon style="fill-rule:evenodd;clip-rule:evenodd;fill:#ED1C24;" points="357.983,582.867 545.372,295.922 357.983,295.921 
				357.983,582.867 			"/>
		</g>
	</g>
</g>
</svg>
