<?xml version="1.0" encoding="iso-8859-1"?>
<!-- Generator: Adobe Illustrator 23.0.1, SVG Export Plug-In . SVG Version: 6.00 Build 0)  -->
<svg version="1.1" xmlns="http://www.w3.org/2000/svg" xmlns:xlink="http://www.w3.org/1999/xlink" x="0px" y="0px"
	 viewBox="0 0 595.276 841.89" style="enable-background:new 0 0 595.276 841.89;" xml:space="preserve">
<g id="Grade" style="display:none;">
</g>
<g id="HQFL">
</g>
<g id="&#xC1;rea_de_trabalho">
</g>
<g id="Linhas-guia">
</g>
<g id="Page_1">
	<g id="HQFL_1_">
		<g>
			<polygon style="fill-rule:evenodd;clip-rule:evenodd;fill:#ED1C24;" points="575.433,606.942 19.843,606.942 297.638,234.948 
				575.433,606.942 			"/>
			<polygon style="fill-rule:evenodd;clip-rule:evenodd;fill:#FFFFFF;" points="527.33,582.828 67.945,582.828 297.638,275.249 
				527.33,582.828 			"/>
			<polygon style="fill-rule:evenodd;clip-rule:evenodd;fill:#ED1C24;" points="360.936,564.74 491.253,564.743 477.747,546.657 
				379.021,546.657 379.021,444.681 423.661,504.458 446.233,504.458 360.936,390.238 360.936,564.74 			"/>
			<polygon style="fill-rule:evenodd;clip-rule:evenodd;fill:#ED1C24;" points="234.339,564.74 104.023,564.743 234.339,390.238 
				234.339,504.458 216.254,504.458 216.254,444.681 140.101,546.657 234.339,546.657 234.339,564.74 			"/>
			<path style="fill-rule:evenodd;clip-rule:evenodd;fill:#ED1C24;" d="M252.424,375.943v188.8l18.088-0.003v-80.284h54.254v80.284
				h18.086V375.943H252.424L252.424,375.943z M324.765,466.369h-54.254v-72.34h54.254V466.369L324.765,466.369z"/>
		</g>
	</g>
</g>
</svg>
