<?xml version="1.0" encoding="iso-8859-1"?>
<!-- Generator: Adobe Illustrator 23.0.1, SVG Export Plug-In . SVG Version: 6.00 Build 0)  -->
<svg version="1.1" xmlns="http://www.w3.org/2000/svg" xmlns:xlink="http://www.w3.org/1999/xlink" x="0px" y="0px"
	 viewBox="0 0 595.276 841.89" style="enable-background:new 0 0 595.276 841.89;" xml:space="preserve">
<g id="Grade" style="display:none;">
</g>
<g id="HQFL">
</g>
<g id="&#xC1;rea_de_trabalho">
</g>
<g id="Linhas-guia">
</g>
<g id="Page_1">
	<g id="HQFL_1_">
		<g>
			<path style="fill-rule:evenodd;clip-rule:evenodd;" d="M297.638,682.228c-121.505,0-227.063-70.561-277.795-172.802l0.212,0.07
				l86.224-44.664C92.661,436.82,84.97,405.492,84.97,372.399c0-117.2,95.539-212.738,212.668-212.738
				c117.128,0,212.668,95.538,212.668,212.738c0,33.093-7.692,64.421-21.309,92.434l86.225,44.664l0.212-0.07
				C524.629,611.668,419.141,682.228,297.638,682.228L297.638,682.228z"/>
			<path style="fill-rule:evenodd;clip-rule:evenodd;fill:#FFFFFF;" d="M297.638,572.859c-110.427,0-200.532-90.104-200.532-200.46
				c0-110.497,90.105-200.602,200.532-200.602c110.425,0,200.531,90.105,200.531,200.602
				C498.169,482.755,408.063,572.859,297.638,572.859L297.638,572.859z"/>
			<path style="fill-rule:evenodd;clip-rule:evenodd;fill:#FFFFFF;" d="M297.638,670.092c-112.402,0-210.763-62.94-261.284-155.373
				l75.569-39.091c36.409,65.127,106.052,109.369,185.714,109.369c79.662,0,149.304-44.242,185.714-109.369l75.57,39.091
				C508.33,607.152,410.04,670.092,297.638,670.092L297.638,670.092z"/>
			<path style="fill-rule:evenodd;clip-rule:evenodd;fill:#ED1C24;" d="M287.875,560.229c-12.605-0.656-24.845-2.55-36.648-5.538
				V189.89c14.864-3.788,30.455-5.829,46.411-5.829c17.996,0,35.481,2.55,51.947,7.358v361.742
				c-11.729,3.353-23.971,5.683-36.574,6.703V390.469h-25.136V560.229L287.875,560.229z M313.011,353.894V218.305
				c-5.1-0.51-10.201-0.801-15.373-0.801c-3.279,0-6.557,0.146-9.763,0.364v136.026H313.011L313.011,353.894z"/>
			<path style="fill-rule:evenodd;clip-rule:evenodd;fill:#ED1C24;" d="M142.887,372.328c0,46.192,20.546,87.866,52.968,116.281
				v-34.68h36.575v94.86c-71.692-26.665-122.985-95.809-122.985-176.462c0-80.8,51.293-149.943,122.985-176.536v94.789h-36.575
				V255.9C163.433,284.315,142.887,325.99,142.887,372.328L142.887,372.328z"/>
			<path style="fill-rule:evenodd;clip-rule:evenodd;fill:#ED1C24;" d="M456.178,473.382c-1.166,1.821-2.331,3.643-3.571,5.392
				c-20.691,30.019-49.98,53.843-84.151,67.832V453.93h36.575v29.507c5.244-5.028,10.127-10.419,14.571-16.175V277.247
				c-4.444-5.682-9.327-11.147-14.571-16.174v29.508h-36.575v-92.604c53.842,22.004,95.371,68.196,110.817,125.026h-23.096V473.382
				L456.178,473.382z"/>
			<path style="fill-rule:evenodd;clip-rule:evenodd;" d="M176.236,606.289c-2.311,4.062-3.678,6.02-6.129,4.577
				c-2.451-1.373-1.573-3.761,0.665-7.684l3.684-6.513l-11.627-6.645l-3.465,5.951c-6.572,11.559-5.194,19.478,4.891,25.255
				c10.086,5.779,17.744,2.914,24.316-8.57l20.365-35.581l-12.047-6.932L176.236,606.289L176.236,606.289z"/>
			<path style="fill-rule:evenodd;clip-rule:evenodd;" d="M214.434,642.353l13.291,3.491l3.129-7.228l8.227,2.154l-0.878,7.822
				l13.291,3.49l4.457-60.136l-15.752-4.157L214.434,642.353L214.434,642.353z M244.753,601.046l0.703,0.221
				c-0.53,2.746-0.988,5.421-1.303,7.958l-3.025,20.848l-6.75-1.782l7.596-19.658C242.703,606.807,243.723,604.28,244.753,601.046
				L244.753,601.046z"/>
			<polygon style="fill-rule:evenodd;clip-rule:evenodd;" points="360.532,634.952 357.367,623.338 370.539,619.7 367.308,607.873 
				354.136,611.44 351.373,601.383 367.309,597.006 364.077,585.178 334.972,593.054 350.592,650.346 380.831,642.134 
				377.601,630.234 360.532,634.952 			"/>
			<polygon style="fill-rule:evenodd;clip-rule:evenodd;" points="297.624,642.879 296.617,595.798 282.924,596.112 
				284.193,655.476 316.028,654.763 315.695,642.479 297.624,642.879 			"/>
			<path style="fill-rule:evenodd;clip-rule:evenodd;" d="M438.586,596.527c-4.349-7.396-11.458-8.688-22.374-10.384
				c-6.407-1.071-10.286-1.264-11.804-3.823c-1.036-1.779-0.442-3.958,1.689-5.199c2.845-1.656,5.301-0.567,7.51,3.132l0.139,0.284
				l10.735-6.212l-0.622-0.997c-5.383-9.242-14.316-11.476-23.631-6.024c-9.101,5.314-11.755,13.889-6.923,22.208
				c3.106,5.263,7.943,7.656,15.829,9.029l6.971,1.148c5.844,0.995,9.58,1.255,11.306,4.241c1.449,2.489,0.85,5.093-1.85,6.61
				c-3.342,2.002-6.427,0.339-9.464-4.853l-10.737,6.281l0.622,1.066c6.073,10.382,15.634,13.189,25.233,7.598
				C441.17,614.838,443.763,605.416,438.586,596.527L438.586,596.527z"/>
		</g>
	</g>
</g>
</svg>
