<?xml version="1.0" encoding="iso-8859-1"?>
<!-- Generator: Adobe Illustrator 23.0.1, SVG Export Plug-In . SVG Version: 6.00 Build 0)  -->
<svg version="1.1" xmlns="http://www.w3.org/2000/svg" xmlns:xlink="http://www.w3.org/1999/xlink" x="0px" y="0px"
	 viewBox="0 0 595.276 841.89" style="enable-background:new 0 0 595.276 841.89;" xml:space="preserve">
<g id="Grade" style="display:none;">
</g>
<g id="HQFL">
</g>
<g id="&#xC1;rea_de_trabalho">
</g>
<g id="Linhas-guia">
</g>
<g id="Page_1">
	<g id="HQFL_1_">
		<g>
			<path style="fill-rule:evenodd;clip-rule:evenodd;" d="M559.673,103.324H35.602l7.745,18.959
				c14.28,34.771,23.638,93.261,23.638,142.473c0,65.59-37.917,108.671-37.917,176.196c0,76.561,31.463,138.278,96.892,175.228
				c56.634,31.947,115.125,58.006,158.932,107.863l12.747,14.521l12.746-14.521c43.807-49.857,102.297-75.916,158.931-107.863
				c65.429-36.95,96.893-98.667,96.893-175.228c0-67.526-37.918-110.607-37.918-176.196c0-49.212,9.359-107.702,23.639-142.473
				L559.673,103.324L559.673,103.324z"/>
			<path style="fill-rule:evenodd;clip-rule:evenodd;fill:#FFFFFF;" d="M204.295,496.458c4.76-4.76,4.76-12.586,0-17.346
				c-4.76-4.84-12.585-4.84-17.345,0c-7.503,7.504-15.006,14.926-22.509,22.429v-66.962H51.414
				c-0.081,2.098-0.081,4.276-0.081,6.455c0,69.059,27.349,122.95,85.678,155.865c37.837,21.299,76.561,40.338,111.817,65.59
				V518.966h-66.961L204.295,496.458L204.295,496.458z"/>
			<path style="fill-rule:evenodd;clip-rule:evenodd;fill:#FFFFFF;" d="M390.979,275.002c-4.76,4.841-4.76,12.666,0,17.426
				c4.76,4.76,12.586,4.76,17.346,0c7.503-7.504,15.006-15.006,22.509-22.428v66.961h87.856
				c-6.939-21.782-12.586-44.855-12.586-72.124c0-42.516,7.1-97.214,20.974-139.247H346.446v126.984h66.961L390.979,275.002
				L390.979,275.002z"/>
			<path style="fill-rule:evenodd;clip-rule:evenodd;fill:#FFFFFF;" d="M186.95,292.429c4.76,4.76,12.586,4.76,17.345,0
				c4.76-4.76,4.76-12.586,0-17.426l-22.428-22.428h66.961V125.591H68.195c13.876,42.032,20.975,96.73,20.975,139.247
				c0,27.268-5.647,50.342-12.586,72.124h87.856V270C171.944,277.423,179.448,284.925,186.95,292.429L186.95,292.429z"/>
			<path style="fill-rule:evenodd;clip-rule:evenodd;fill:#FFFFFF;" d="M543.86,434.579H430.834v66.962
				c-7.503-7.503-15.006-14.925-22.509-22.429c-4.76-4.84-12.586-4.84-17.346,0c-4.76,4.76-4.76,12.586,0,17.346l22.428,22.509
				h-66.961v143.522c35.256-25.252,73.981-44.291,111.817-65.59c58.329-32.915,85.678-86.807,85.678-155.865
				C543.941,438.855,543.941,436.676,543.86,434.579L543.86,434.579z"/>
			<path style="fill-rule:evenodd;clip-rule:evenodd;fill:#FFFFFF;" d="M253.911,368.022c0.081-9.681,0.162-2.339,0.243-12.021
				c0.161-18.555-11.94-31.302-37.111-31.302c-25.09,0-34.852,12.747-34.69,31.302c0.161,19.846,0.161,39.692,0,59.539
				c-0.162,18.474,9.6,31.221,34.69,31.221c25.171,0,37.273-12.747,37.111-31.221c-0.081-9.681-0.162-6.777-0.243-16.458h-26.219
				l0.242,16.458c0.081,8.067-5.486,13.23-10.892,13.23c-5.324,0-8.47-5.163-8.47-13.23v-59.539c0-8.229,3.146-13.311,8.47-13.311
				c5.406,0,10.972,5.083,10.892,13.311l-0.242,12.021H253.911L253.911,368.022z"/>
			<path style="fill-rule:evenodd;clip-rule:evenodd;fill:#FFFFFF;" d="M286.908,324.78l-24.929,122.063h24.445l4.76-23.396h24.606
				l4.76,23.396h24.444L320.065,324.78H286.908L286.908,324.78z M295.782,401.18l7.665-38.08l7.744,38.08H295.782L295.782,401.18z"
				/>
			<polygon style="fill-rule:evenodd;clip-rule:evenodd;fill:#FFFFFF;" points="378.313,420.622 378.313,324.698 352.013,324.698 
				352.013,446.761 412.923,446.761 412.923,420.622 378.313,420.622 			"/>
		</g>
	</g>
</g>
</svg>
