<?xml version="1.0" encoding="iso-8859-1"?>
<!-- Generator: Adobe Illustrator 23.0.1, SVG Export Plug-In . SVG Version: 6.00 Build 0)  -->
<svg version="1.1" xmlns="http://www.w3.org/2000/svg" xmlns:xlink="http://www.w3.org/1999/xlink" x="0px" y="0px"
	 viewBox="0 0 595.276 841.89" style="enable-background:new 0 0 595.276 841.89;" xml:space="preserve">
<g id="Grade" style="display:none;">
</g>
<g id="HQFL">
</g>
<g id="&#xC1;rea_de_trabalho">
</g>
<g id="Linhas-guia">
</g>
<g id="Page_1">
	<g id="HQFL_1_">
		<g>
			<path style="fill-rule:evenodd;clip-rule:evenodd;fill:#2E3192;" d="M297.638,157.333c122.422,0,222.263,99.843,222.263,222.264
				c0,27.871-5.15,54.402-14.606,79.028l16.724,45.935h53.414c-48.334,106.545-157.561,179.998-277.795,179.998
				c-120.234,0-229.461-73.453-277.795-179.998h53.414l16.723-45.935c-9.455-24.626-14.606-51.157-14.606-79.028
				C75.374,257.175,175.217,157.333,297.638,157.333L297.638,157.333z"/>
			<path style="fill-rule:evenodd;clip-rule:evenodd;fill:#FFFFFF;" d="M297.638,167.635c116.706,0,211.962,95.256,211.962,211.962
				c0,116.707-95.256,211.892-211.962,211.892c-116.706,0-211.892-95.186-211.892-211.892
				C85.746,262.89,180.932,167.635,297.638,167.635L297.638,167.635z"/>
			<path style="fill-rule:evenodd;clip-rule:evenodd;fill:#FFFFFF;" d="M499.439,472.595
				c-35.351,76.204-112.614,129.266-201.802,129.266c-89.188,0-166.451-53.061-201.802-129.266L80.454,514.86H36.425
				c49.674,95.045,150.645,159.396,261.213,159.396c110.567,0,211.538-64.35,261.213-159.396h-44.029L499.439,472.595
				L499.439,472.595z"/>
			<path style="fill-rule:evenodd;clip-rule:evenodd;fill:#ED1C24;" d="M101.198,379.596c0,83.825,52.991,155.655,127.22,183.738
				V423.979h-39.302v69.007c-29.917-28.646-48.616-68.936-48.616-113.389c0-44.523,18.698-84.813,48.616-113.46v69.008h39.302
				V195.859C154.19,223.941,101.198,295.771,101.198,379.596L101.198,379.596z"/>
			<path style="fill-rule:evenodd;clip-rule:evenodd;fill:#ED1C24;" d="M366.857,195.859v367.475
				c13.9-5.291,27.096-12.065,39.303-20.18V399.283h86.929c0.636-6.491,0.989-13.054,0.989-19.687
				C494.077,295.771,441.086,223.941,366.857,195.859L366.857,195.859z M406.159,359.981v-93.845
				c25.472,24.414,42.76,57.154,47.346,93.845H406.159L406.159,359.981z"/>
			<path style="fill-rule:evenodd;clip-rule:evenodd;fill:#ED1C24;" d="M238.72,192.26v374.674
				c12.63,4.022,25.754,6.704,39.302,8.115V399.283h39.231v31.963v104.218v39.584c13.548-1.411,26.672-4.093,39.303-8.115V192.26
				c-18.629-5.927-38.456-9.101-58.918-9.101C277.175,183.158,257.348,186.333,238.72,192.26L238.72,192.26z M317.253,359.981
				h-39.231V223.659c6.42-0.776,12.983-1.199,19.616-1.199c6.632,0,13.194,0.423,19.615,1.199V359.981L317.253,359.981z"/>
			<path style="fill-rule:evenodd;clip-rule:evenodd;fill:#ED1C24;" d="M234.628,605.177c-3.317-1.129-5.998-0.071-7.268,3.599
				l-10.16,29.424h-0.141l-8.82-38.809c-0.494-2.47-2.258-4.093-4.587-4.868c-4.868-1.693-7.832-0.566-9.384,4.163l-13.618,39.372
				c-1.2,3.669,0.211,6.209,3.598,7.338c3.387,1.199,6.068,0.071,7.338-3.598l9.878-28.577h0.071l9.031,37.819
				c0.635,2.823,1.552,3.952,5.151,5.222c4.728,1.623,7.55-0.282,9.102-4.798l13.407-38.948
				C239.497,608.846,238.015,606.376,234.628,605.177L234.628,605.177z"/>
			<path style="fill-rule:evenodd;clip-rule:evenodd;fill:#ED1C24;" d="M263.769,610.963c0.705,0.07,1.481,0,3.457-0.988
				l3.528-1.693c1.905-0.918,2.963-2.258,3.105-3.669c0.141-1.411-0.635-4.093-3.528-4.375c-1.693-0.141-3.528,0.917-5.08,1.975
				l-2.328,1.483c-1.764,1.128-2.399,1.975-2.47,3.316C260.17,609.481,262.076,610.75,263.769,610.963L263.769,610.963z"/>
			<path style="fill-rule:evenodd;clip-rule:evenodd;fill:#ED1C24;" d="M139.09,552.751l-13.407-12.489
				c-3.105-2.894-6.28-3.528-9.878,0.353l-27.66,29.636c-2.399,2.609-2.328,5.927,0.282,8.467c2.681,2.469,6.068,2.258,8.467-0.353
				l9.737-10.372l9.737,9.031c8.467,7.903,18.134,7.267,24.625,0.282C148.968,568.768,146.427,559.595,139.09,552.751
				L139.09,552.751z M132.245,569.121c-3.034,3.317-7.692,3.034-11.219-0.282l-8.114-7.55l10.161-10.936l7.197,6.773
				C134.644,561.148,135.843,565.311,132.245,569.121L132.245,569.121z"/>
			<path style="fill-rule:evenodd;clip-rule:evenodd;fill:#ED1C24;" d="M172.465,603.131l-17.076-11.078l6.209-9.526l19.404,12.561
				c2.963,1.904,5.645,2.469,7.691-0.705c2.117-3.176,0.494-5.435-2.399-7.339l-23.567-15.312c-3.599-2.328-6.845-2.399-9.737,2.046
				l-20.957,32.316c-2.893,4.445-1.481,7.409,2.047,9.667l24.06,15.664c2.964,1.905,5.645,2.398,7.691-0.775
				c2.046-3.176,0.494-5.434-2.47-7.339l-19.827-12.912l6.915-10.655l17.005,11.078c2.611,1.694,5.151,2.328,7.197-0.776
				C176.698,606.871,175.076,604.824,172.465,603.131L172.465,603.131z"/>
			<path style="fill-rule:evenodd;clip-rule:evenodd;fill:#ED1C24;" d="M273.294,616.608c-0.917-3.81-3.246-4.728-5.927-5.01
				l-2.822-0.352c-2.893-0.282-4.868,0.494-6.138,3.034l-19.686,39.09c-0.565,1.129-1.482,3.175-1.623,4.445
				c-0.353,3.176,1.694,5.504,4.939,5.856c2.823,0.282,4.586-0.494,5.645-2.752l4.022-8.398l19.193,2.048l2.117,9.031
				c0.635,2.398,2.399,3.527,5.01,3.81c3.034,0.353,5.856-1.692,6.139-4.656c0.141-1.271-0.353-3.458-0.706-4.657L273.294,616.608
				L273.294,616.608z M255.231,644.549l9.243-20.251l0.141,0.071l4.516,21.661L255.231,644.549L255.231,644.549z"/>
			<path style="fill-rule:evenodd;clip-rule:evenodd;fill:#ED1C24;" d="M504.519,559.102c-4.163-4.445-10.584-7.339-20.321-1.694
				l-8.819,5.222c-3.388,1.905-7.41,4.021-9.879,1.411c-2.47-2.681-1.977-6.633,2.046-10.443c8.184-7.621,12.772-1.2,16.864-5.01
				c2.117-1.975,2.751-5.011,0.705-7.197c-4.727-5.081-16.37-1.412-23.214,4.939c-7.409,6.914-12.349,17.498-4.375,26.036
				c3.811,4.093,9.385,7.127,19.193,1.765l12.205-6.704c3.67-2.046,5.998-1.058,7.48,0.494c2.398,2.54,2.187,7.409-2.328,11.642
				c-8.82,8.256-14.112,0.212-18.84,4.586c-2.117,2.047-2.258,4.939-0.283,7.057c3.881,4.163,14.042,5.151,25.119-5.222
				C510.658,576.106,511.011,566.088,504.519,559.102L504.519,559.102z"/>
			<path style="fill-rule:evenodd;clip-rule:evenodd;fill:#ED1C24;" d="M437.557,619.29l-17.851,9.031l-16.934-33.305
				c-1.623-3.175-4.799-4.304-8.044-2.61c-3.246,1.623-4.234,4.868-2.61,8.044l18.345,36.056c2.4,4.728,5.645,5.011,9.455,3.034
				l22.226-11.289c3.034-1.553,4.728-4.375,3.245-7.339C443.838,618.019,440.593,617.737,437.557,619.29L437.557,619.29z"/>
			<path style="fill-rule:evenodd;clip-rule:evenodd;fill:#ED1C24;" d="M439.11,573.496c-2.047-2.964-5.292-3.669-8.326-1.623
				c-3.034,2.046-3.599,5.363-1.623,8.326l23.778,35.209c1.977,2.964,5.293,3.599,8.326,1.623c2.965-2.046,3.599-5.362,1.553-8.326
				L439.11,573.496L439.11,573.496z"/>
			<path style="fill-rule:evenodd;clip-rule:evenodd;fill:#ED1C24;" d="M360.012,604.331c-16.581,4.728-22.366,18.345-18.134,33.163
				c4.375,15.241,15.242,24.907,33.305,19.757c17.218-4.94,21.804-20.181,17.781-34.434
				C388.73,608.07,376.594,599.602,360.012,604.331L360.012,604.331z M372.501,647.936c-10.795,3.104-16.369-4.092-19.121-13.759
				c-2.751-9.667-0.141-17.851,9.314-20.603c9.385-2.682,15.947,2.892,18.77,12.559C384.215,635.8,382.944,644.973,372.501,647.936
				L372.501,647.936z"/>
			<path style="fill-rule:evenodd;clip-rule:evenodd;fill:#ED1C24;" d="M315.56,613.786l-18.204,0.987
				c-4.234,0.212-6.915,2.047-6.633,7.339l2.117,40.431c0.211,3.599,2.681,5.856,6.279,5.716c3.599-0.212,5.786-2.753,5.645-6.352
				l-0.776-14.182l13.265-0.706c11.572-0.564,17.852-7.974,17.358-17.569C333.977,617.807,325.65,613.291,315.56,613.786
				L315.56,613.786z M314.643,637.987l-11.148,0.564l-0.776-14.887l9.949-0.494c5.856-0.282,9.736,1.693,10.019,6.914
				C322.897,634.6,319.512,637.705,314.643,637.987L314.643,637.987z"/>
		</g>
	</g>
</g>
</svg>
