<?xml version="1.0" encoding="iso-8859-1"?>
<!-- Generator: Adobe Illustrator 23.0.1, SVG Export Plug-In . SVG Version: 6.00 Build 0)  -->
<svg version="1.1" xmlns="http://www.w3.org/2000/svg" xmlns:xlink="http://www.w3.org/1999/xlink" x="0px" y="0px"
	 viewBox="0 0 595.276 841.89" style="enable-background:new 0 0 595.276 841.89;" xml:space="preserve">
<g id="Grade" style="display:none;">
</g>
<g id="HQFL">
</g>
<g id="&#xC1;rea_de_trabalho">
</g>
<g id="Linhas-guia">
</g>
<g id="Page_1">
	<g id="HQFL_1_">
		<g>
			<path style="fill-rule:evenodd;clip-rule:evenodd;fill:#ED1C24;" d="M297.638,143.445c152.842,0,277.5,124.658,277.5,277.5
				c0,152.843-124.658,277.5-277.5,277.5c-152.842,0-277.5-124.657-277.5-277.5C20.138,268.103,144.796,143.445,297.638,143.445
				L297.638,143.445z"/>
			<path style="fill-rule:evenodd;clip-rule:evenodd;fill:#FFFFFF;" d="M297.638,185.721c129.557,0,235.224,105.667,235.224,235.224
				S427.195,656.168,297.638,656.168c-129.557,0-235.225-105.666-235.225-235.223S168.081,185.721,297.638,185.721L297.638,185.721z
				"/>
			<path style="fill-rule:evenodd;clip-rule:evenodd;fill:#ED1C24;" d="M202.386,361.934l-3.52-9.99h-31.057L126.33,468.274h14.176
				l-3.561,9.988h31.114l7.648-22.637h28.298l3.931,12.648h7.509l3.105,9.988h31.921L209.48,361.934H202.386L202.386,361.934z
				 M187.199,420.163l2.665-8.225l2.578,8.225H187.199L187.199,420.163z"/>
			<polygon style="fill-rule:evenodd;clip-rule:evenodd;fill:#ED1C24;" points="449.387,452.333 449.387,442.343 399.124,442.343 
				399.124,430.386 452.661,430.386 452.661,404.457 442.047,404.457 442.047,394.466 399.124,394.466 399.124,387.863 
				457.402,387.863 457.402,361.934 446.788,361.934 446.788,351.943 359.519,351.943 359.519,468.274 370.134,468.274 
				370.134,478.262 460.003,478.262 460.003,452.333 449.387,452.333 			"/>
			<path style="fill-rule:evenodd;clip-rule:evenodd;fill:#ED1C24;" d="M345.088,424.141h-29.513
				c-2.015,11.893-8.069,20.631-21.769,20.648c-3.248,0.004-6.077-0.561-8.552-1.558c-3.556-6.651-4.798-15.208-4.798-22.982
				c0-15.676,5.039-34.756,23.964-34.734c3.437,0.004,6.349,0.385,8.826,1.154c0.954,2.212,1.716,4.747,2.329,7.651h7.145
				c1.528,2.688,2.628,6.009,3.468,9.99h29.092c-0.766-15.57-7.878-28.542-19.859-36.542c-8.765-11.592-23.328-18.709-42.066-18.66
				c-36.985,0.097-53.42,28.746-53.42,61.152c0,21.69,7.376,41.591,23.336,52.419c8.729,11.264,22.118,18.469,40.697,18.518
				c30.537,0.081,47.593-19.594,51.734-47.065h-12.798C343.838,430.94,344.565,427.603,345.088,424.141L345.088,424.141z"/>
			<path style="fill-rule:evenodd;clip-rule:evenodd;fill:#FFFFFF;" d="M172.394,358.447l-36.84,103.323h17.222l7.648-22.639h45.264
				l7.036,22.639h17.945l-36.408-103.323H172.394L172.394,358.447z M164.406,426.667l16.178-49.944h5.06l15.652,49.944H164.406
				L164.406,426.667z"/>
			<polygon style="fill-rule:evenodd;clip-rule:evenodd;fill:#FFFFFF;" points="382.007,448.847 382.007,413.893 435.543,413.893 
				435.543,400.971 382.007,400.971 382.007,371.369 440.284,371.369 440.284,358.447 366.023,358.447 366.023,461.77 
				442.884,461.77 442.884,448.847 382.007,448.847 			"/>
			<path style="fill-rule:evenodd;clip-rule:evenodd;fill:#FFFFFF;" d="M293.829,369.018c13.955-0.025,22.662,6.017,26.871,18.798
				h16.687c-4.263-20.549-20.759-32.199-44.027-32.202c-32.381-0.005-46.922,24.28-46.922,54.645
				c0,30.366,14.54,54.446,46.922,54.439c23.269-0.005,38.607-13.348,43.66-34.055H320.7c-3.525,12.939-12.914,20.678-26.871,20.652
				c-23.12-0.044-30.491-21.916-30.491-41.037C263.338,391.139,270.71,369.061,293.829,369.018L293.829,369.018z"/>
		</g>
	</g>
</g>
</svg>
