<?xml version="1.0" encoding="iso-8859-1"?>
<!-- Generator: Adobe Illustrator 23.0.1, SVG Export Plug-In . SVG Version: 6.00 Build 0)  -->
<svg version="1.1" xmlns="http://www.w3.org/2000/svg" xmlns:xlink="http://www.w3.org/1999/xlink" x="0px" y="0px"
	 viewBox="0 0 595.276 841.89" style="enable-background:new 0 0 595.276 841.89;" xml:space="preserve">
<g id="Grade" style="display:none;">
</g>
<g id="HQFL">
</g>
<g id="&#xC1;rea_de_trabalho">
</g>
<g id="Linhas-guia">
</g>
<g id="Page_1">
	<g id="HQFL_1_">
		<g>
			<path style="fill-rule:evenodd;clip-rule:evenodd;fill:#C9252C;" d="M297.638,726.898c0,0,10.009-26.678,44.547-34.09
				c34.539-7.406,105.825-4.047,132.85-16.172c27.031-12.125,90.565-59.223,98.814-143.926
				c7.568-77.688-36.578-161.211-34.742-223.331c1.543-52.226,27.493-93.741,27.493-93.741l-66.058-89.057
				c0,0-45.479,18.572-93.068,18.572c-66.152,0-109.836-30.162-109.836-30.162s-43.684,30.162-109.837,30.162
				c-47.585,0-93.067-18.572-93.067-18.572l-66.056,89.057c0,0,25.946,41.516,27.49,93.741
				c1.836,62.12-42.309,145.643-34.743,223.323c8.252,84.711,71.787,131.803,98.815,143.928
				c27.027,12.125,98.315,8.766,132.853,16.178C287.632,700.212,297.638,726.898,297.638,726.898L297.638,726.898z"/>
			<path style="fill-rule:evenodd;clip-rule:evenodd;fill:#FFFFFF;" d="M187.801,160.947c-35.916,0-70.114-9.707-87.387-15.515
				c-10.047,13.546-44.194,59.577-53.008,71.464C55.681,233,70.735,267.68,71.953,308.918c0.041,1.428,0.063,2.862,0.063,4.311
				c0,28.807-8.213,60.325-16.881,93.605c-9.262,35.549-18.796,72.135-18.796,107.277c0,5.727,0.253,11.418,0.804,17.063
				c7.594,77.957,67.225,121.029,89.561,131.055c13.116,5.881,43.78,7.676,70.835,9.262c22.261,1.305,43.288,2.535,58.866,5.875
				c19.333,4.148,32.509,13.328,41.234,22.244c8.725-8.916,21.9-18.096,41.23-22.244c15.579-3.34,36.602-4.57,58.859-5.875
				c27.058-1.586,57.724-3.381,70.841-9.262c22.339-10.018,81.971-53.098,89.563-131.049c0.547-5.645,0.802-11.342,0.802-17.069
				c0-35.142-9.534-71.736-18.796-107.283c-8.67-33.274-16.881-64.793-16.881-93.599c0-1.449,0.02-2.883,0.064-4.311
				c1.217-41.237,16.273-75.918,24.549-92.028c-8.816-11.88-42.964-57.911-53.012-71.457c-17.273,5.808-51.468,15.515-87.387,15.515
				c-53.311,0-92.936-18.174-109.836-27.544C280.738,142.773,241.11,160.947,187.801,160.947L187.801,160.947z"/>
			<path style="fill-rule:evenodd;clip-rule:evenodd;fill:#C9252C;" d="M297.637,219.625c109.617,0,199.02,89.406,199.02,199.019
				c0,109.616-89.402,199.018-199.02,199.018c-109.616,0-199.017-89.402-199.017-199.018
				C98.62,309.031,188.021,219.625,297.637,219.625L297.637,219.625z"/>
			<path style="fill-rule:evenodd;clip-rule:evenodd;fill:#FFFFFF;" d="M213.973,277.752c-85.989,49.118-127.494,195.238,0,282.552
				v-23.527c-86.402-62.549-76.304-182.474,0-237.015V277.752L213.973,277.752z"/>
			<path style="fill-rule:evenodd;clip-rule:evenodd;fill:#FFFFFF;" d="M251.288,261.044v315.901
				c17.693,5.529,35.577,7.76,53.638,6.99v-20.088c-11.499,0.273-23.113-0.551-34.982-2.869V415.871h20.991v-21.067h-20.991V275.358
				c11.781-2.244,23.435-3.07,34.982-2.724v-18.732C286.161,253.23,268.409,255.923,251.288,261.044L251.288,261.044z"/>
			<path style="fill-rule:evenodd;clip-rule:evenodd;fill:#FFFFFF;" d="M331.8,257.595v322.851
				c49.925-11.18,88.665-40.678,113.289-88.485h-23.386c-17.049,27.481-40.003,48.24-70.08,60.897V283.634
				c26.759,11.104,49.06,29.203,66.469,54.98h23.135C414.757,293.113,376.968,268.256,331.8,257.595L331.8,257.595z"/>
			<path style="fill-rule:evenodd;clip-rule:evenodd;fill:#C9252C;" d="M129.943,547.439l11.434,13.166l-5.979,5.195l-4.689-5.392
				l-5.668,4.929l4.175,4.801l-5.689,4.951l-4.177-4.809L106.8,581.195l-6.758-7.771L129.943,547.439L129.943,547.439z
				 M163.125,582.617l-18.39,19.041c-2.086,2.162-3.624,3.617-4.605,4.352c-0.983,0.734-2.271,1.238-3.851,1.482
				c-1.579,0.252-3.173,0.068-4.757-0.543c-1.59-0.627-3.154-1.674-4.69-3.156c-1.7-1.646-2.931-3.373-3.691-5.195
				c-0.758-1.816-1.025-3.502-0.795-5.025c0.221-1.523,0.76-2.842,1.615-3.957c0.85-1.115,2.834-3.291,5.935-6.502l16.28-16.857
				l7.409,7.154l-20.63,21.36c-1.204,1.244-1.901,2.115-2.101,2.576c-0.202,0.477-0.093,0.918,0.318,1.312
				c0.469,0.457,0.959,0.559,1.457,0.307c0.501-0.252,1.443-1.088,2.813-2.51l20.272-20.992L163.125,582.617L163.125,582.617z
				 M187.896,600.148l-23.282,32.043l-7.305-5.305l6.249-17.715l-10.583,14.566l-6.969-5.059l23.279-32.043l6.969,5.059
				l-5.812,17.824l10.483-14.431L187.896,600.148L187.896,600.148z M193.959,603.154l6.86,3.502
				c4.431,2.258,7.328,3.984,8.681,5.188c1.352,1.197,2.202,2.476,2.542,3.816c0.338,1.34,0.323,2.644-0.054,3.889
				c-0.376,1.238-1.418,3.543-3.12,6.883l-6.299,12.363c-1.613,3.168-2.842,5.209-3.682,6.119c-0.845,0.918-1.795,1.49-2.837,1.713
				c-1.049,0.224-2.181,0.184-3.392-0.135c-1.212-0.32-2.915-1.033-5.109-2.148l-11.577-5.904L193.959,603.154L193.959,603.154z
				 M200.058,613.865l-11.836,23.215c1.323,0.674,2.278,0.822,2.847,0.449c0.571-0.375,1.464-1.74,2.663-4.094l6.987-13.709
				c0.813-1.598,1.284-2.652,1.411-3.148c0.133-0.504,0.063-0.953-0.19-1.348c-0.253-0.387-0.887-0.85-1.89-1.359L200.058,613.865
				L200.058,613.865z M238.662,622.052l-7.328,39.365l-9.971-3.428l1.829-6.894l-3.488-1.203l-2.895,6.528l-10.089-3.475
				l17.849-35.742L238.662,622.052L238.662,622.052z M225.211,644.357c0.966-4.401,2.271-9.82,3.924-16.219
				c-3.448,6.813-5.874,11.846-7.261,15.068L225.211,644.357L225.211,644.357z M249.201,624.574l7.56,1.477
				c4.881,0.945,8.14,1.814,9.772,2.598c1.634,0.781,2.8,1.768,3.496,2.965c0.697,1.197,1.042,2.461,1.02,3.754
				c-0.019,1.299-0.384,3.801-1.1,7.48l-2.647,13.613c-0.68,3.488-1.299,5.793-1.853,6.902c-0.561,1.115-1.316,1.924-2.257,2.428
				c-0.945,0.504-2.047,0.775-3.298,0.802c-1.253,0.027-3.087-0.191-5.503-0.66l-12.756-2.475L249.201,624.574L249.201,624.574z
				 M258.017,633.191l-4.978,25.582c1.457,0.279,2.414,0.162,2.859-0.353c0.446-0.518,0.926-2.074,1.433-4.672l2.934-15.104
				c0.344-1.762,0.505-2.904,0.492-3.414c-0.012-0.518-0.203-0.938-0.554-1.244c-0.352-0.307-1.088-0.572-2.195-0.789
				L258.017,633.191L258.017,633.191z M301.637,654.066c-0.14,3.978-0.335,6.795-0.577,8.439c-0.244,1.647-0.889,3.143-1.919,4.475
				c-1.037,1.334-2.407,2.346-4.111,3.014c-1.705,0.672-3.677,0.973-5.907,0.897c-2.113-0.074-4.009-0.488-5.67-1.236
				c-1.661-0.748-2.984-1.844-3.963-3.258c-0.979-1.422-1.538-2.959-1.676-4.59c-0.14-1.633-0.138-4.496,0.005-8.569l0.236-6.773
				c0.139-3.971,0.335-6.787,0.576-8.432c0.245-1.646,0.889-3.148,1.92-4.482c1.03-1.332,2.402-2.346,4.107-3.012
				c1.703-0.674,3.681-0.973,5.904-0.898c2.121,0.074,4.016,0.49,5.676,1.238c1.661,0.748,2.985,1.842,3.958,3.258
				c0.98,1.42,1.537,2.957,1.677,4.59c0.138,1.631,0.141,4.502,0,8.574L301.637,654.066L301.637,654.066z M291.798,640.697
				c0.065-1.828-0.005-3.017-0.188-3.535c-0.184-0.518-0.597-0.795-1.229-0.816c-0.534-0.02-0.958,0.178-1.256,0.578
				c-0.301,0.4-0.488,1.625-0.56,3.666l-0.644,18.49c-0.08,2.283-0.033,3.713,0.131,4.256c0.17,0.537,0.603,0.83,1.285,0.85
				c0.697,0.027,1.156-0.272,1.372-0.877c0.219-0.611,0.367-2.088,0.449-4.42L291.798,640.697L291.798,640.697z M317.251,629.511
				l17.045-2.088l0.966,7.861l-6.831,0.844l0.918,7.453l6.39-0.783l0.918,7.481l-6.39,0.783l1.061,8.648l7.507-0.924l0.966,7.867
				l-17.732,2.176L317.251,629.511L317.251,629.511z M371.137,618.167l10.914,38.076l-8.653,2.481l-7.371-25.697l3.917,26.691
				l-6.141,1.762l-10.847-24.066l7.198,25.113l-8.653,2.475l-10.914-38.068l12.815-3.672c1.03,2.183,2.21,4.76,3.52,7.746
				l4.145,9.295l-2.839-18.428L371.137,618.167L371.137,618.167z M397.774,606.023l17.982,35.293l-8.81,4.488l-9.639-18.918
				c-1.39-2.727-2.292-4.338-2.703-4.828c-0.408-0.482-0.99-0.721-1.718-0.701c-0.73,0.022-2.121,0.545-4.151,1.586l-0.87,0.441
				l-2.102-4.127c3.791-3.082,6.066-6.617,6.821-10.582L397.774,606.023L397.774,606.023z M420.935,626.804l8.188-5.521
				c1.03,1.523,1.703,2.475,2.01,2.85c0.316,0.373,0.707,0.592,1.179,0.666c0.473,0.074,0.966-0.06,1.462-0.394
				c0.415-0.285,0.673-0.647,0.771-1.08c0.096-0.443,0.027-0.885-0.21-1.299c-0.242-0.43-0.779-1.26-1.608-2.49l-3.533-5.236
				c0.194,1.15,0.034,2.225-0.482,3.203c-0.514,0.986-1.377,1.891-2.581,2.707c-1.503,1.006-3.101,1.502-4.794,1.463
				c-1.693-0.035-3.091-0.526-4.162-1.449c-1.077-0.918-2.271-2.353-3.573-4.285l-1.767-2.617c-1.551-2.299-2.611-4.074-3.187-5.318
				c-0.574-1.244-0.806-2.604-0.69-4.067c0.116-1.455,0.663-2.91,1.65-4.338c0.982-1.435,2.359-2.748,4.128-3.938
				c2.189-1.476,4.202-2.387,6.012-2.726c1.815-0.34,3.505-0.197,5.038,0.422c1.537,0.625,2.802,1.529,3.768,2.699
				c0.966,1.176,2.676,3.57,5.107,7.174l3.08,4.57c2.636,3.902,4.342,6.555,5.124,7.942c0.778,1.394,1.156,2.959,1.115,4.699
				c-0.034,1.735-0.571,3.387-1.591,4.924c-1.024,1.543-2.469,2.951-4.339,4.209c-2.309,1.558-4.447,2.463-6.419,2.707
				c-1.969,0.244-3.734-0.088-5.282-1.006c-1.554-0.918-3.029-2.408-4.416-4.469H420.935L420.935,626.804z M422.22,611.035
				c0.932,1.381,1.684,2.115,2.258,2.197c0.574,0.08,1.058-0.008,1.435-0.26c0.568-0.387,0.85-0.877,0.83-1.461
				c-0.014-0.578-0.429-1.49-1.241-2.693l-4.009-5.943c-0.975-1.441-1.741-2.305-2.285-2.584c-0.547-0.272-1.122-0.217-1.699,0.17
				c-0.351,0.238-0.602,0.66-0.745,1.258c-0.147,0.599,0.289,1.666,1.31,3.176L422.22,611.035L422.22,611.035z M445.488,570.914
				l4.243,4.713l-9.109,8.201l4.506,5.004c-0.075-2.373,0.788-4.365,2.584-5.984c2.023-1.822,4.063-2.631,6.116-2.428
				c2.054,0.197,4.539,1.912,7.443,5.129l3.781,4.201c1.876,2.088,3.155,3.713,3.831,4.863c0.683,1.156,1.064,2.447,1.156,3.861
				c0.099,1.422-0.241,2.885-1.01,4.373c-0.776,1.496-2.006,3.006-3.69,4.522c-1.887,1.701-3.855,2.871-5.892,3.51
				c-2.033,0.639-3.951,0.578-5.73-0.19c-1.778-0.762-3.914-2.517-6.379-5.258l-1.441-1.598l7.345-6.609l1.652,1.836
				c1.713,1.897,2.998,3.195,3.849,3.875c0.854,0.674,1.68,0.66,2.465-0.047c0.364-0.326,0.555-0.707,0.571-1.135
				c0.014-0.436-0.088-0.797-0.31-1.076c-0.218-0.277-1.241-1.461-3.064-3.529l-5.257-5.84c-0.992-1.102-1.788-1.748-2.373-1.945
				c-0.585-0.191-1.156-0.041-1.687,0.436c-0.34,0.305-0.53,0.666-0.574,1.074c-0.048,0.414,0.007,0.775,0.153,1.066
				c0.145,0.293,0.608,0.879,1.384,1.742l-7.273,6.541l-13.053-15.109L445.488,570.914L445.488,570.914z M477.077,561.923
				c1.351-0.822,2.71-1.143,4.057-0.965c1.35,0.17,3.658,1.625,6.902,4.352c2.411,2.019,4.053,3.869,4.92,5.529
				c0.87,1.666,1.085,3.475,0.643,5.398c-0.436,1.932-1.544,3.957-3.312,6.066c-2.013,2.4-3.999,3.944-5.947,4.637
				c-1.955,0.687-3.699,0.762-5.226,0.211c-1.526-0.551-3.747-2.039-6.63-4.453l-2.397-2.014l6.352-7.568l4.927,4.135
				c1.312,1.094,2.217,1.721,2.699,1.863c0.483,0.143,0.956-0.055,1.408-0.592c0.496-0.592,0.599-1.17,0.303-1.727
				c-0.296-0.564-1.391-1.647-3.292-3.238l-2.098-1.76c-1.159-0.973-2.125-1.558-2.876-1.742c-0.755-0.197-1.439-0.096-2.037,0.266
				c-0.595,0.367-1.533,1.285-2.788,2.74l-4.406-3.699c1.506-1.795,2.373-2.971,2.594-3.508c0.221-0.539,0.177-1.104-0.126-1.674
				c-0.306-0.57-0.951-1.271-1.941-2.102l-1.683-1.414c-1.064-0.891-1.86-1.373-2.373-1.441c-0.524-0.061-0.984,0.143-1.367,0.598
				c-0.438,0.524-0.564,1.041-0.371,1.524c0.19,0.49,0.871,1.23,2.034,2.211l2.492,2.088l-6.352,7.574l-2.588-2.176
				c-2.896-2.428-4.301-4.74-4.209-6.916c0.095-2.176,1.356-4.713,3.774-7.596c3.029-3.611,5.793-5.467,8.279-5.568
				c2.492-0.103,4.994,0.904,7.504,3.004c1.693,1.422,2.73,2.693,3.097,3.781C477.418,558.843,477.425,560.244,477.077,561.923
				L477.077,561.923z"/>
		</g>
	</g>
</g>
</svg>
