<?xml version="1.0" encoding="iso-8859-1"?>
<!-- Generator: Adobe Illustrator 23.0.1, SVG Export Plug-In . SVG Version: 6.00 Build 0)  -->
<svg version="1.1" xmlns="http://www.w3.org/2000/svg" xmlns:xlink="http://www.w3.org/1999/xlink" x="0px" y="0px"
	 viewBox="0 0 595.276 841.89" style="enable-background:new 0 0 595.276 841.89;" xml:space="preserve">
<g id="Grade" style="display:none;">
</g>
<g id="HQFL">
</g>
<g id="&#xC1;rea_de_trabalho">
</g>
<g id="Linhas-guia">
</g>
<g id="Page_1">
	<g id="HQFL_1_">
		<g>
			<path style="fill-rule:evenodd;clip-rule:evenodd;fill:#20419A;" d="M297.638,178.701c-85.003,0-148.645-17.701-207.656-44.41
				L19.886,228.17c23.754,22.834,39.926,49.337,39.822,86.656c-0.166,59.294-39.926,103.569-39.944,192.051
				c-0.012,61.922,48.521,106.807,107.968,127.295l83.054,28.625c35.901,12.373,59.802,26.22,86.852,44.802
				c27.051-18.582,50.951-32.429,86.852-44.802l83.055-28.625c59.447-20.488,107.98-65.373,107.968-127.295
				c-0.019-88.483-39.779-132.757-39.946-192.051c-0.103-37.319,16.068-63.821,39.822-86.656l-70.095-93.879
				C446.282,160.999,382.64,178.701,297.638,178.701L297.638,178.701z"/>
			<path style="fill-rule:evenodd;clip-rule:evenodd;fill:#FFFFFF;" d="M109.634,614.916c7.032,3.377,14.314,6.356,21.741,8.916
				l31.973,11.02V500.811l-53.715,34.616V614.916L109.634,614.916z"/>
			<path style="fill-rule:evenodd;clip-rule:evenodd;fill:#FFFFFF;" d="M217.064,653.377c19.348,6.851,37.113,15.13,53.716,24.434
				V431.575l-53.716,34.617V653.377L217.064,653.377z"/>
			<path style="fill-rule:evenodd;clip-rule:evenodd;fill:#FFFFFF;" d="M37.871,444.739l454.991-293.223
				c-63.058,25.919-121.47,38.148-195.224,38.148c-77.189,0-137.575-13.395-204.067-41.858L34.28,227.215
				c22.39,23.387,36.418,50.948,36.393,87.65C70.642,359.618,49.351,395.099,37.871,444.739L37.871,444.739z"/>
			<path style="fill-rule:evenodd;clip-rule:evenodd;fill:#FFFFFF;" d="M560.996,227.215l-53.719-71.948L34.811,459.752
				c-2.517,14.312-4.092,29.841-4.083,47.057c0.01,20.861,6.144,39.538,16.542,55.767l504.925-325.401
				C554.959,233.765,557.898,230.451,560.996,227.215L560.996,227.215z"/>
			<path style="fill-rule:evenodd;clip-rule:evenodd;fill:#FFFFFF;" d="M539.358,385.909v188.472
				c15.571-18.751,25.176-41.452,25.19-67.572C564.573,455.767,550.747,419.561,539.358,385.909L539.358,385.909z"/>
			<path style="fill-rule:evenodd;clip-rule:evenodd;fill:#FFFFFF;" d="M431.926,634.852l31.974-11.02
				c7.431-2.561,14.709-5.541,21.742-8.92V293.107l-53.716,34.617V634.852L431.926,634.852z"/>
			<path style="fill-rule:evenodd;clip-rule:evenodd;fill:#FFFFFF;" d="M324.495,677.807c16.601-9.303,34.369-17.58,53.716-24.431
				V362.341l-53.716,34.618V677.807L324.495,677.807z"/>
			<path style="fill-rule:evenodd;clip-rule:evenodd;fill:#20419A;" d="M118.494,281.507c13.993,0,23.389-6.283,23.389-12.86
				c0-3.968-3.341-7.414-6.786-7.414c-3.969,0-8.667,3.863-15.768,3.863c-11.381,0-18.795-8.561-18.795-22.45
				c0-14.305,7.414-23.076,18.273-23.076c6.161,0,11.068,2.924,14.932,2.924c3.967,0,7.205-3.655,7.205-7.623
				c0-5.952-9.084-11.904-22.241-11.904c-20.465,0-36.546,15.454-36.546,39.26C82.158,266.141,96.985,281.507,118.494,281.507
				L118.494,281.507z"/>
			<path style="fill-rule:evenodd;clip-rule:evenodd;fill:#20419A;" d="M144.704,270.526c0,5.325,4.176,9.52,9.501,9.52
				c5.222,0,9.399-4.195,9.399-9.52c0-5.22-4.177-9.502-9.399-9.502C148.985,261.024,144.704,265.306,144.704,270.526
				L144.704,270.526z"/>
			<path style="fill-rule:evenodd;clip-rule:evenodd;fill:#20419A;" d="M205.474,281.507c13.992,0,23.389-6.283,23.389-12.86
				c0-3.968-3.341-7.414-6.787-7.414c-3.968,0-8.666,3.863-15.767,3.863c-11.381,0-18.795-8.561-18.795-22.45
				c0-14.305,7.413-23.076,18.273-23.076c6.161,0,11.067,2.924,14.932,2.924c3.967,0,7.205-3.655,7.205-7.623
				c0-5.952-9.085-11.904-22.241-11.904c-20.465,0-36.547,15.454-36.547,39.26C169.137,266.141,183.965,281.507,205.474,281.507
				L205.474,281.507z"/>
			<path style="fill-rule:evenodd;clip-rule:evenodd;fill:#20419A;" d="M231.682,270.526c0,5.325,4.177,9.52,9.503,9.52
				c5.222,0,9.398-4.195,9.398-9.52c0-5.22-4.176-9.502-9.398-9.502C235.965,261.024,231.682,265.306,231.682,270.526
				L231.682,270.526z"/>
			<path style="fill-rule:evenodd;clip-rule:evenodd;fill:#20419A;" d="M74.087,498.029l-6.542-25.543l20.08,16.817L74.087,498.029
				L74.087,498.029z M78.071,512.256l20.947-13.5l4.979,4.231c3.995,3.398,7.489,4.098,10.834,1.942
				c3.584-2.31,4.822-6.509,2.462-10.172c-0.719-1.115-1.909-2.265-3.494-3.497l-40.563-31.46
				c-4.884-3.729-9.922-4.201-14.302-1.379c-4.778,3.08-6.061,7.738-4.487,14.728l11.032,49.476c0.292,1.502,0.954,2.88,1.776,4.154
				c2.309,3.583,6.509,4.503,10.093,2.193c2.787-1.797,3.698-5.107,2.508-9.751L78.071,512.256L78.071,512.256z"/>
			<path style="fill-rule:evenodd;clip-rule:evenodd;fill:#20419A;" d="M119.079,491.463c2.618,4.062,7.865,5.209,11.927,2.591
				c3.982-2.566,5.106-7.818,2.488-11.88c-2.566-3.982-7.856-5.195-11.839-2.628C117.673,482.113,116.513,487.482,119.079,491.463
				L119.079,491.463z"/>
			<path style="fill-rule:evenodd;clip-rule:evenodd;fill:#20419A;" d="M147.77,450.542L141.229,425l20.081,16.817L147.77,450.542
				L147.77,450.542z M151.754,464.771l20.947-13.5l4.98,4.23c3.995,3.399,7.489,4.098,10.834,1.943
				c3.583-2.311,4.822-6.509,2.462-10.172c-0.719-1.115-1.91-2.266-3.494-3.498l-40.563-31.459
				c-4.883-3.728-9.922-4.201-14.302-1.378c-4.779,3.08-6.061,7.738-4.487,14.728l11.031,49.474
				c0.294,1.503,0.955,2.881,1.776,4.155c2.309,3.584,6.509,4.503,10.093,2.193c2.787-1.797,3.698-5.106,2.509-9.751
				L151.754,464.771L151.754,464.771z"/>
			<path style="fill-rule:evenodd;clip-rule:evenodd;fill:#20419A;" d="M192.763,443.978c2.617,4.063,7.865,5.209,11.926,2.591
				c3.983-2.566,5.107-7.819,2.489-11.88c-2.565-3.982-7.856-5.195-11.839-2.628C191.357,434.627,190.197,439.996,192.763,443.978
				L192.763,443.978z"/>
			<path style="fill-rule:evenodd;clip-rule:evenodd;fill:#20419A;" d="M245.655,388.138c4.357,7.112,2.641,14.417-4.128,18.78
				c-8.442,5.44-18.54,2.366-25.726-8.784c-7.032-10.911-5.613-20.955,3.068-26.55c7.805-5.03,15.487-2.203,19.31-4.667
				c3.026-1.95,3.648-6.409,1.595-9.595c-3.593-5.575-15.879-6.449-28.464,1.66c-17.362,11.189-21.149,29.975-9.293,48.371
				c11.6,18,30.748,22.699,46.437,12.588c16.167-10.418,19.093-28.442,8.931-44.21c-4.003-6.213-8.252-6.856-14.543-2.802
				l-9.477,6.108c-6.053,3.901-7.899,7.683-5.178,11.904c2.72,4.222,6.875,4.023,12.928,0.122L245.655,388.138L245.655,388.138z"/>
			<path style="fill-rule:evenodd;clip-rule:evenodd;fill:#20419A;" d="M264.342,372.938c10.881,16.885,26.218,19.869,41.033,10.322
				c14.813-9.546,18.43-24.746,7.549-41.63l-15.397-23.893c-3.953-6.132-7.974-7.825-12.355-5.002
				c-4.38,2.823-4.5,7.184-0.548,13.316l14.474,22.459c6.467,10.035,5.799,17.568-1.688,22.392
				c-7.487,4.825-14.622,2.323-21.09-7.713l-14.473-22.459c-3.952-6.132-7.973-7.825-12.354-5.002
				c-4.381,2.823-4.5,7.185-0.548,13.317L264.342,372.938L264.342,372.938z"/>
			<path style="fill-rule:evenodd;clip-rule:evenodd;fill:#20419A;" d="M334.895,329.951l-6.541-25.543l20.08,16.817
				L334.895,329.951L334.895,329.951z M338.88,344.178l20.945-13.499l4.98,4.23c3.995,3.4,7.488,4.098,10.834,1.943
				c3.583-2.309,4.822-6.509,2.462-10.172c-0.72-1.115-1.91-2.265-3.494-3.497l-40.564-31.459
				c-4.884-3.729-9.922-4.201-14.302-1.379c-4.779,3.08-6.06,7.738-4.486,14.727l11.03,49.476c0.293,1.502,0.955,2.88,1.776,4.154
				c2.31,3.584,6.509,4.502,10.093,2.193c2.787-1.796,3.698-5.107,2.508-9.751L338.88,344.178L338.88,344.178z"/>
			<path style="fill-rule:evenodd;clip-rule:evenodd;fill:#20419A;" d="M379.367,290.92l-9.598-14.894l5.574-3.593
				c5.973-3.849,10.33-3.387,13.614,1.71c3.183,4.939,1.878,9.386-4.016,13.185L379.367,290.92L379.367,290.92z M393.174,312.344
				l-6.262-9.717l8.681-5.594c12.503-8.059,14.949-20.004,7.301-31.871c-7.544-11.707-20.144-14.295-33.127-5.928l-11.629,7.493
				c-7.166,4.619-7.123,8.536-3.068,14.828l25.201,39.105c3.952,6.132,7.982,7.838,12.362,5.014
				C397.014,322.85,397.126,318.476,393.174,312.344L393.174,312.344z"/>
			<path style="fill-rule:evenodd;clip-rule:evenodd;fill:#20419A;" d="M441.173,281.41l-25.611-39.742
				c-3.952-6.132-7.974-7.824-12.354-5.002c-4.381,2.823-4.501,7.184-0.549,13.317l25.611,39.742
				c3.952,6.132,7.982,7.838,12.362,5.015C445.013,291.917,445.126,287.543,441.173,281.41L441.173,281.41z"/>
			<path style="fill-rule:evenodd;clip-rule:evenodd;fill:#20419A;" d="M449.322,244.259l-8.88-13.778l6.133-3.953
				c5.177-3.336,9.687-2.635,12.407,1.587c2.822,4.38,1.569,8.908-3.688,12.296L449.322,244.259L449.322,244.259z M454.865,252.86
				l27.217,9.176c4.288,1.408,7.365,1.809,9.914,0.167c3.584-2.309,4.379-6.674,2.222-10.018c-1.334-2.07-4.199-3.719-8.595-4.943
				l-17.483-4.74c7.598-6.925,8.869-15.974,3.686-24.017c-6.724-10.434-19.041-12.753-32.978-3.772l-10.036,6.468
				c-7.167,4.618-7.123,8.535-3.069,14.827l25.201,39.105c3.952,6.133,7.982,7.838,12.362,5.015c4.381-2.823,4.492-7.197,0.54-13.33
				L454.865,252.86L454.865,252.86z"/>
			<path style="fill-rule:evenodd;clip-rule:evenodd;fill:#20419A;" d="M501.727,222.436l-6.542-25.542l20.08,16.817
				L501.727,222.436L501.727,222.436z M505.71,236.663l20.947-13.499l4.98,4.23c3.994,3.4,7.488,4.099,10.833,1.942
				c3.583-2.309,4.822-6.509,2.462-10.171c-0.719-1.115-1.91-2.265-3.494-3.497l-40.563-31.46
				c-4.883-3.729-9.922-4.201-14.302-1.378c-4.778,3.079-6.06,7.737-4.487,14.727l11.032,49.476
				c0.292,1.503,0.955,2.879,1.775,4.154c2.31,3.584,6.509,4.503,10.093,2.193c2.788-1.796,3.698-5.106,2.509-9.751L505.71,236.663
				L505.71,236.663z"/>
		</g>
	</g>
</g>
</svg>
