<?xml version="1.0" encoding="iso-8859-1"?>
<!-- Generator: Adobe Illustrator 23.0.1, SVG Export Plug-In . SVG Version: 6.00 Build 0)  -->
<svg version="1.1" xmlns="http://www.w3.org/2000/svg" xmlns:xlink="http://www.w3.org/1999/xlink" x="0px" y="0px"
	 viewBox="0 0 595.276 841.89" style="enable-background:new 0 0 595.276 841.89;" xml:space="preserve">
<g id="Grade" style="display:none;">
</g>
<g id="HQFL">
</g>
<g id="&#xC1;rea_de_trabalho">
</g>
<g id="Linhas-guia">
</g>
<g id="Page_1">
	<g id="HQFL_1_">
		<g>
			<path style="fill-rule:evenodd;clip-rule:evenodd;" d="M297.638,207.794c53.05-0.041,106.192-23.117,153.703-69.221l4.9-4.755
				l83.833,60.74l-2.848,6.074c-3.574,7.624-6.841,13.767-9.923,19.562c-18.988,35.698-30.619,57.568,42.465,136.786l6.304,6.836
				l-7.607,5.326c-29.382,20.587-29.06,48.485-28.683,81.085c0.316,27.393,0.667,57.801-14.361,91.073h-0.01
				c-16.167,38.769-53.129,54.558-95.788,72.781c-41.782,17.846-89.373,38.174-125.549,85.559l-6.435,8.431l-6.435-8.431
				c-36.177-47.385-83.767-67.713-125.549-85.559c-42.659-18.223-79.622-34.013-95.788-72.781h-0.01
				c-15.028-33.273-14.677-63.68-14.361-91.073c0.376-32.6,0.698-60.498-28.684-81.085l-7.607-5.326l6.304-6.836
				c73.085-79.218,61.454-101.088,42.465-136.786c-3.082-5.795-6.349-11.939-9.923-19.562l-2.848-6.074l83.833-60.74l4.9,4.755
				C191.446,184.677,244.588,207.754,297.638,207.794L297.638,207.794z"/>
			<polygon style="fill-rule:evenodd;clip-rule:evenodd;" points="502.261,495.99 502.264,495.99 502.261,495.99 			"/>
			<path style="fill-rule:evenodd;clip-rule:evenodd;" d="M502.264,495.99v-0.006C502.264,495.99,502.264,495.99,502.264,495.99
				L502.264,495.99z"/>
			<path style="fill-rule:evenodd;clip-rule:evenodd;fill:#FFFFFF;" d="M297.651,224.802
				c-56.341-0.043-111.529-23.884-160.087-68.915c-14.365,10.408-46.512,33.7-60.905,44.129c2.191,4.385,4.289,8.351,6.332,12.192
				c8.353,15.705,16.33,30.702,16.33,49.6c0,4.343-0.421,8.893-1.356,13.705c-4.546,23.394-20.684,49.391-53.518,85.929
				c25.495,22.238,28.136,50.308,28.136,78.362c0,3.544-0.041,7.088-0.081,10.62c-0.046,3.978-0.092,7.976-0.092,11.999
				c0,22.847,1.487,46.505,12.946,71.877l0.207,0.455c13.507,32.391,45.839,46.201,86.772,63.687
				c39.173,16.731,87.35,37.326,125.303,82.099c37.956-44.774,86.131-65.368,125.304-82.099
				c40.933-17.485,73.264-31.296,86.771-63.686l0.096-0.229l0.112-0.226c11.46-25.372,12.946-49.03,12.946-71.876
				c0-4.023-0.047-8.021-0.092-11.999c-0.041-3.532-0.081-7.076-0.081-10.621c0-28.057,2.64-56.128,28.136-78.364
				c-32.833-36.537-48.971-62.534-53.518-85.929c-0.935-4.812-1.356-9.361-1.356-13.705c0-18.898,7.977-33.895,16.331-49.6
				c2.042-3.841,4.141-7.807,6.331-12.192c-14.393-10.428-46.541-33.721-60.905-44.129
				C409.153,200.918,353.967,224.759,297.651,224.802L297.651,224.802z"/>
			<path style="fill-rule:evenodd;clip-rule:evenodd;" d="M112.623,184.459c0,0-17.283,12.522-25.04,18.142
				c1.452,2.794,2.915,5.612,2.915,5.612c8.518,16.016,17.326,32.576,17.326,53.594c0,5.005-0.509,10.162-1.513,15.327
				c-4.63,23.823-19.741,49.182-50.109,83.86c22.792,23.973,24.884,53.069,24.884,78.809l-0.174,22.619
				c0,20.021,0.943,43.468,12.192,68.376l0.253,0.554l0.053,0.128c12.177,29.2,41.574,41.758,82.262,59.138
				c37.578,16.05,83.831,35.844,121.965,77.138c38.136-41.295,84.388-61.088,121.963-77.137
				c40.689-17.381,70.086-29.938,82.263-59.139l0.202-0.484c0,0,0.128-0.26,0.13-0.263c11.222-24.885,12.166-48.307,12.166-68.31
				l-0.174-22.619c0-25.742,2.093-54.839,24.884-78.811c-30.368-34.678-45.479-60.037-50.109-83.859
				c-1.004-5.165-1.513-10.322-1.513-15.327c0-21.019,8.809-37.579,17.327-53.594c0,0,1.427-2.748,2.915-5.612
				c-7.757-5.621-42.07-30.481-49.429-35.813c-48.911,43.461-104.293,66.474-160.607,66.517h-0.013
				c-56.33-0.043-111.722-23.056-160.633-66.517C129.653,172.12,112.623,184.459,112.623,184.459L112.623,184.459z"/>
			<path style="fill-rule:evenodd;clip-rule:evenodd;fill:#FFFFFF;" d="M496.76,205.182c-7.643-5.538-32.425-23.494-38.061-27.577
				c-49.233,41.949-104.765,64.162-161.035,64.205h-0.025c-56.286-0.043-111.826-22.257-161.061-64.205
				c-6.559,4.752-18.965,13.741-18.965,13.741s-11.691,8.471-19.096,13.836c8.433,15.86,17.813,33.909,17.813,56.626
				c0,5.55-0.562,11.252-1.669,16.949c-4.708,24.225-18.947,49.086-47.217,82.226c16.353,20.3,20.894,43.496,21.899,66.465
				l391.322-182.379C483.745,229.924,490.493,216.97,496.76,205.182L496.76,205.182z"/>
			<path style="fill-rule:evenodd;clip-rule:evenodd;fill:#FFFFFF;" d="M100.855,527.298l0.301,0.66l0.111,0.267
				c3.642,8.733,9.073,15.811,16.196,22.019l409.158-190.693c-27.459-32.424-41.366-56.921-46.006-80.794
				c-1.107-5.698-1.669-11.4-1.669-16.95c0-2.218,0.114-4.379,0.283-6.51L89.577,436.899c0.008,0.97,0.013,1.938,0.013,2.905
				l-0.174,22.684C89.417,481.558,90.301,503.93,100.855,527.298L100.855,527.298z"/>
			<path style="fill-rule:evenodd;clip-rule:evenodd;fill:#FFFFFF;" d="M520.155,372.127L125.18,556.209
				c13.551,9.376,31.607,17.096,53.833,26.59c36.082,15.411,80.514,34.43,118.624,72.72c38.113-38.293,82.543-57.31,118.623-72.72
				c40.291-17.211,66.908-28.581,77.755-54.591l0.339-0.813c0,0,0.11-0.208,0.113-0.214c10.508-23.334,11.392-45.66,11.392-64.758
				c0,0-0.174-22.556-0.174-22.557C505.685,417.002,507.746,393.388,520.155,372.127L520.155,372.127z"/>
			<path style="fill-rule:evenodd;clip-rule:evenodd;" d="M166.057,450.779l-5.802,2.731c-0.575-8.623-2.375-14.756-5.365-18.4
				c-3.003-3.639-7.085-4.251-12.213-1.839c-5.307,2.502-9.21,7.672-11.683,15.491c-2.475,7.818-4.072,15.924-4.759,24.247
				c-0.167,2.164-0.303,4.315-0.383,6.402c-0.088,2.087-0.134,4.098-0.134,5.993c0,10.901,1.407,19.817,4.195,26.698
				c2.789,6.881,7.782,8.642,14.935,5.278c4.441-2.094,8.411-5.917,11.897-11.457c3.485-5.546,6.399-12.089,8.703-19.568
				l5.277,4.416c-3.633,10.531-7.693,18.861-12.159,24.943c-4.474,6.108-9.861,10.652-16.148,13.614
				c-8.94,4.213-16.665,3.325-23.145-2.674c-6.488-6-9.738-17.17-9.738-33.477c0-15.216,3.07-29.532,9.212-42.916
				c6.138-13.392,13.584-22.168,22.29-26.265c0.223-0.105,0.45-0.214,0.651-0.307c0.203-0.096,0.394-0.185,0.562-0.265
				c2.947-1.193,5.837-1.756,8.66-1.679c2.822,0.077,5.42,1.056,7.782,2.948c0.405-1.187,0.742-2.438,1.001-3.689
				c0.258-1.276,0.45-2.553,0.564-3.817l5.106-2.559L166.057,450.779L166.057,450.779z M189.26,506.837
				c-2.25,1.06-4.184,0.568-5.792-1.404c-1.619-1.991-2.429-4.94-2.429-8.847c0-3.899,0.809-7.64,2.418-11.182
				c1.619-3.574,3.553-5.892,5.803-6.951c2.248-1.06,4.184-0.562,5.793,1.468c1.619,2.049,2.428,5.023,2.428,8.923
				c0,3.9-0.809,7.621-2.417,11.106c-1.619,3.516-3.555,5.807-5.804,6.867V506.837L189.26,506.837z M257.815,434.58
				c0.224,0.594,0.46,1.11,0.685,1.551c0.227,0.44,0.439,0.888,0.608,1.296c0.292,0.855,0.551,1.749,0.776,2.636
				c0.224,0.888,0.439,1.96,0.608,3.166l-0.338-49.385c0-5.31-0.549-8.482-1.642-9.51c-1.103-1.021-3.183-0.938-6.241,0.307
				l-1.214,0.574v-10.206l25.021-11.782v10.2l-1.214,0.574c-2.992,1.602-5.038,3.485-6.096,5.579
				c-1.069,2.106-1.608,5.872-1.608,11.252v76.742l-12.202,5.75l-29.959-57.817c-0.629-0.989-1.159-2.202-1.551-3.616
				c-0.405-1.408-0.73-2.952-0.956-4.644l0.348,58.238c0,5.605,0.81,8.694,2.417,9.224c1.62,0.524,3.813,0.217,6.581-0.989v10.492
				l-24.495,11.54v-10.652c0.518-0.345,1.024-0.695,1.508-1.002c0.494-0.332,0.978-0.619,1.439-0.836
				c1.608-1.054,2.922-2.355,3.936-3.881c1.012-1.532,1.518-4.755,1.518-9.651v-53.005c0-6.201-0.44-10.052-1.293-11.482
				c-0.868-1.446-3.184-1.289-6.939,0.478v-10.206l24.763-11.661L257.815,434.58L257.815,434.58z M293.478,457.755
				c-2.251,1.06-4.185,0.568-5.794-1.411c-1.62-1.985-2.429-4.94-2.429-8.84c0-3.9,0.809-7.64,2.417-11.189
				c1.62-3.567,3.554-5.885,5.805-6.944c2.248-1.06,4.183-0.568,5.791,1.468c1.619,2.042,2.428,5.017,2.428,8.917
				c0,3.906-0.809,7.62-2.417,11.112c-1.619,3.511-3.554,5.808-5.802,6.868V457.755L293.478,457.755z M355.981,352.605l-5.374,2.553
				c-0.629-5.808-2.464-9.995-5.454-12.529c-2.993-2.53-6.286-2.968-9.864-1.283c-0.348,0.163-0.708,0.37-1.047,0.568
				c-0.335,0.198-0.695,0.466-1.033,0.702c-1.618,1.155-3.093,2.901-4.42,5.164c-1.328,2.265-1.988,5.035-1.988,8.233
				c0,2.694,0.549,4.679,1.64,5.898c1.101,1.238,2.317,2.148,3.645,2.712c0.223,0.204,0.495,0.332,0.775,0.395
				c0.294,0.058,0.553,0.147,0.776,0.236l9.344,2.642c4.334,1.474,8.176,3.641,11.517,6.517c3.341,2.872,5.017,8.99,5.017,18.292
				c0,10.908-2.036,20.335-6.099,28.253c-4.069,7.927-9.162,13.326-15.28,16.212c-0.574,0.268-1.158,0.504-1.732,0.733
				c-0.574,0.236-1.158,0.409-1.733,0.581c-2.696,0.689-5.364,0.855-7.949,0.53c-2.598-0.338-5.062-1.168-7.365-2.463l-0.865,7.901
				l-5.457,2.572v-33.187l5.457-2.569c1.324,6.674,3.73,11.645,7.219,14.84c3.485,3.217,7.468,3.779,11.91,1.685
				c2.474-1.165,4.71-3.447,6.667-6.808c1.959-3.38,2.948-7.378,2.948-11.98c0-3.804-0.926-6.529-2.767-8.157
				c-1.845-1.63-3.881-2.837-6.073-3.599c-1.148-0.357-2.272-0.664-3.363-0.894c-1.102-0.22-2.059-0.51-2.866-0.833
				c-0.169-0.019-0.338-0.054-0.476-0.07c-0.134-0.035-0.28-0.121-0.393-0.265c-4.148-1.245-7.904-3.22-11.246-5.897
				c-3.338-2.68-5.014-8.584-5.014-17.692c0-9.791,2.001-18.126,6.003-24.969c4.005-6.843,8.595-11.479,13.723-13.895
				c2.652-1.251,5.205-1.768,7.656-1.577c2.454,0.192,4.848,0.76,7.154,1.666l1.034-6.363l5.361-2.525L355.981,352.605
				L355.981,352.605z M378.915,417.516c-2.25,1.058-4.185,0.568-5.793-1.411c-1.621-1.985-2.429-4.94-2.429-8.84
				c0-3.903,0.808-7.64,2.416-11.189c1.621-3.568,3.556-5.885,5.806-6.944c2.246-1.059,4.184-0.568,5.792,1.465
				c1.618,2.045,2.429,5.02,2.429,8.923c0,3.903-0.811,7.618-2.419,11.106c-1.618,3.514-3.556,5.812-5.802,6.871V417.516
				L378.915,417.516z M457.509,311.108l-5.881,2.773c-1.213-8.228-3.226-13.85-6.016-16.831c-2.803-2.975-6.951-3.185-12.428-0.606
				c-6.746,3.178-11.536,9.67-14.325,19.429c-2.789,9.778-4.318,19.786-4.545,29.995c0,0.507,0,0.996,0,1.427
				c0,0.447,0,0.932,0,1.423c0,10.416,1.225,19.397,3.679,26.944c2.451,7.545,7.264,9.647,14.415,6.277
				c0.45-0.21,0.923-0.472,1.373-0.721c0.462-0.255,0.935-0.52,1.395-0.734c1.665-1.174,3.217-2.764,4.63-4.72
				c1.417-1.975,2.129-4.726,2.129-8.217v-9.912c0-4.487-0.655-6.849-1.946-7.04c-1.306-0.185-3.083,0.239-5.33,1.299l-1.034,0.488
				v-9.913l31.678-14.919v9.909c-0.055,0.124-0.147,0.227-0.259,0.281c-0.111,0.051-0.211,0.099-0.259,0.122
				c-0.111,0.146-0.224,0.262-0.303,0.3c-0.09,0.038-0.191,0.089-0.304,0.141c-2.138,1.085-3.791,2.432-4.937,3.963
				c-1.145,1.538-1.733,4.526-1.733,8.891v24.075l-1.123,0.664c-2.192,1.232-4.375,2.646-6.532,4.213
				c-2.161,1.56-4.321,3.124-6.456,4.618c-0.798,0.667-1.644,1.359-2.499,1.995c-0.865,0.664-1.707,1.295-2.518,1.87
				c-1.494,1.095-3.003,2.154-4.497,3.095c-1.506,0.942-3.016,1.788-4.509,2.492c-9.054,4.264-16.534,3.028-22.416-3.705
				c-5.882-6.727-8.827-18.12-8.827-34.115c0-16.502,3.172-31.045,9.513-43.593c6.345-12.545,14.115-20.986,23.291-25.307
				c3.466-1.63,6.874-2.515,10.212-2.642c3.351-0.134,6.532,0.708,9.526,2.495c0.449-1.302,0.811-2.604,1.033-3.842
				c0.224-1.258,0.405-2.531,0.518-3.795l5.284-2.646V311.108L457.509,311.108z M483.311,368.344
				c-2.249,1.06-4.183,0.568-5.792-1.404c-1.621-1.991-2.429-4.947-2.429-8.846c0-3.9,0.808-7.637,2.416-11.186
				c1.621-3.571,3.555-5.888,5.805-6.948c2.247-1.06,4.181-0.565,5.793,1.468c1.617,2.045,2.428,5.02,2.428,8.923
				c0,3.9-0.81,7.618-2.419,11.106c-1.621,3.514-3.555,5.808-5.802,6.867V368.344L483.311,368.344z"/>
		</g>
	</g>
</g>
</svg>
