<?xml version="1.0" encoding="iso-8859-1"?>
<!-- Generator: Adobe Illustrator 23.0.1, SVG Export Plug-In . SVG Version: 6.00 Build 0)  -->
<svg version="1.1" xmlns="http://www.w3.org/2000/svg" xmlns:xlink="http://www.w3.org/1999/xlink" x="0px" y="0px"
	 viewBox="0 0 595.276 841.89" style="enable-background:new 0 0 595.276 841.89;" xml:space="preserve">
<g id="Grade" style="display:none;">
</g>
<g id="HQFL">
</g>
<g id="&#xC1;rea_de_trabalho">
</g>
<g id="Linhas-guia">
</g>
<g id="Page_1">
	<g id="HQFL_1_">
		<g>
			<path style="fill-rule:evenodd;clip-rule:evenodd;fill:#FFFFFF;" d="M297.726,669.154
				c-73.268-62.899-201.139-39.398-240.538-98.843c-59.443-90.546,4.838-154.828,4.838-227.404c0-17.972-4.838-63.59-30.414-86.4
				l41.473-82.943c80.179,47.002,154.138,54.605,224.64-0.691c70.33,55.296,144.287,47.693,224.467,0.691l41.473,82.943
				c-25.575,22.81-30.413,68.428-30.413,86.4c0,72.577,64.28,136.859,4.838,227.404
				C498.692,629.755,370.819,606.254,297.726,669.154L297.726,669.154z"/>
			<path style="fill-rule:evenodd;clip-rule:evenodd;" d="M543.014,342.907c0-20.391,5.717-60,27.147-79.116l5.574-4.971
				l-49.477-98.958l-9.005,5.278c-83.471,48.93-151.311,48.949-213.495,0.056l-6.026-4.739l-6.033,4.732
				c-62.33,48.886-130.226,48.872-213.677-0.049l-9.003-5.278L19.54,258.82l5.575,4.973c21.43,19.113,27.149,58.723,27.149,79.113
				c0,22.939-6.913,45.243-14.23,68.857c-14.522,46.861-30.98,99.97,10.992,163.905c22.296,33.641,67.904,42.961,116.19,52.826
				c45.268,9.251,92.078,18.816,126.15,48.065l6.367,5.468l6.362-5.475c33.989-29.25,80.77-38.813,126.014-48.063
				c48.263-9.867,93.851-19.186,116.119-52.783c41.995-63.971,25.537-117.085,11.015-163.943
				C549.926,388.15,543.014,365.845,543.014,342.907L543.014,342.907z M56.685,417.543c7.426-23.962,15.104-48.743,15.104-74.637
				c0-6.136-0.861-57.907-28.311-88.301c4.719-9.44,27.177-54.354,33.783-67.565c83.516,46.043,155.802,45.349,220.457-2.086
				c53.668,39.466,112.677,46.554,179.077,21.332L41.751,495.599c-0.05-1.465-0.076-2.925-0.076-4.383
				C41.674,465.981,49.069,442.12,56.685,417.543L56.685,417.543z M367.362,623.231c-15.141,4.5-30.032,10.064-44.063,17.313v-229.9
				l44.063-29.721V623.231L367.362,623.231z M276.298,642.74c-14.005-7.673-28.976-13.512-44.237-18.251V471.47l44.237-29.724
				V642.74L276.298,642.74z M95.204,588.927c-7.535-3.548-14.194-7.708-19.83-12.677l19.83-13.543V588.927L95.204,588.927z
				 M139.44,603.028v-69.35l45.619-30.412V612.66c-5.372-1.135-10.695-2.225-15.935-3.296
				C158.85,607.265,148.916,605.221,139.44,603.028L139.44,603.028z M426.199,609.36c-4.355,0.889-8.77,1.798-13.217,2.73V350.509
				l47.002-31.795v283.347C449.304,604.63,437.96,606.955,426.199,609.36L426.199,609.36z M529.929,564.953
				c-6.141,9.267-14.96,16.268-25.706,21.9V289.685l40.385-25.788c-20.411,30.628-21.119,73.463-21.119,79.01
				c0,25.894,7.678,50.674,15.103,74.637c7.617,24.572,15.01,48.426,15.01,73.661C553.601,514.126,547.5,538.188,529.929,564.953
				L529.929,564.953z"/>
			<path style="fill-rule:evenodd;clip-rule:evenodd;fill:none;stroke:#000000;stroke-width:7.776;stroke-miterlimit:2.4142;" d="
				M159.14,249.422c33.869,0,61.517,27.649,61.517,61.516c0,33.87-27.648,61.519-61.517,61.519
				c-33.87,0-61.516-27.649-61.516-61.519C97.624,277.07,125.27,249.422,159.14,249.422L159.14,249.422z"/>
			<path style="fill-rule:evenodd;clip-rule:evenodd;fill:none;stroke:#000000;stroke-width:7.776;stroke-miterlimit:2.4142;" d="
				M128.727,256.333c4.147,7.603,5.529,17.28,3.456,29.723c-11.059,5.529-6.222,15.206-7.603,24.19
				c-6.222,9.677-8.986,17.281-4.147,25.575c-1.383,5.532-3.456,12.443-2.766,19.355"/>
			<path style="fill-rule:evenodd;clip-rule:evenodd;fill:none;stroke:#000000;stroke-width:7.776;stroke-miterlimit:2.4142;" d="
				M101.77,289.511c6.913,4.148,15.207,6.912,22.119,10.369"/>
			<path style="fill-rule:evenodd;clip-rule:evenodd;fill:none;stroke:#000000;stroke-width:7.776;stroke-miterlimit:2.4142;" d="
				M123.197,310.246c26.265,15.208,44.928,12.443,70.502,4.148"/>
			<path style="fill-rule:evenodd;clip-rule:evenodd;fill:none;stroke:#000000;stroke-width:7.776;stroke-miterlimit:2.4142;" d="
				M189.552,259.099c-4.839,9.677-6.22,20.043-1.383,31.795c-18.662,1.383-38.016,0.691-57.369-2.074"/>
			<path style="fill-rule:evenodd;clip-rule:evenodd;fill:none;stroke:#000000;stroke-width:7.776;stroke-miterlimit:2.4142;" d="
				M160.523,248.039c0,7.603,0,13.826,0.69,21.429"/>
			<path style="fill-rule:evenodd;clip-rule:evenodd;fill:none;stroke:#000000;stroke-width:7.776;stroke-miterlimit:2.4142;" d="
				M217.892,295.732c-11.059,4.148-21.428,2.765-30.413-4.146c9.676,3.455,7.604,13.132,5.53,22.809
				c5.53,15.206,2.074,22.118-3.456,29.03c2.074,4.84,4.839,11.751,5.53,17.28"/>
			<path style="fill-rule:evenodd;clip-rule:evenodd;fill:none;stroke:#000000;stroke-width:7.776;stroke-miterlimit:2.4142;" d="
				M188.169,342.042c-23.501,6.223-47.692,3.457-67.737-6.22"/>
			<path style="fill-rule:evenodd;clip-rule:evenodd;fill:none;stroke:#000000;stroke-width:7.776;stroke-miterlimit:2.4142;" d="
				M155.684,346.19c0,8.294,1.381,17.28,3.456,26.267"/>
			<path style="fill-rule:evenodd;clip-rule:evenodd;fill:#FFFFFF;" d="M88.455,505.244c-2.027-1.75-5.866-5.035-12.063-0.918
				c-3.599,2.39-7.302,8.309-0.562,18.454c4.283,6.447,10.683,10.55,17.03,6.333c4.148-2.756,5.486-7.031,3.463-12.026l7.496-4.98
				c3.681,8.792,2.202,17.626-6.793,23.603c-9.545,6.342-20.675,4.444-28.909-7.95c-8.334-12.544-5.338-23.755,3.907-29.898
				c10.745-7.138,20.006-2.631,23.926,2.401L88.455,505.244L88.455,505.244z"/>
			<polygon style="fill-rule:evenodd;clip-rule:evenodd;fill:#FFFFFF;" points="125.081,515.702 117.585,520.682 112.737,513.386 
				120.233,508.406 125.081,515.702 			"/>
			<path style="fill-rule:evenodd;clip-rule:evenodd;fill:#FFFFFF;" d="M128.309,473.505l0.1-0.066l13.878,11.238l-9.146,6.076
				L128.309,473.505L128.309,473.505z M135.259,498.278l13.244-8.799l7.213,5.869l8.146-5.412l-36.484-27.481l-8.645,5.744
				l11.046,44.382l7.896-5.246L135.259,498.278L135.259,498.278z"/>
			<polygon style="fill-rule:evenodd;clip-rule:evenodd;fill:#FFFFFF;" points="176.055,481.835 168.559,486.815 163.711,479.519 
				171.207,474.538 176.055,481.835 			"/>
			<path style="fill-rule:evenodd;clip-rule:evenodd;fill:#FFFFFF;" d="M192.649,448.046l9.545-6.342
				c2.699-1.793,6.195-2.387,8.286,0.762c2.424,3.648,1.387,6.642-2.261,9.066l-9.195,6.109L192.649,448.046L192.649,448.046z
				 M195.945,468.62l15.192-10.094c7.346-4.881,8.465-7.425,9.186-10.786c0.671-3.111,0.077-6.606-1.816-9.455
				c-2.358-3.548-5.831-6.283-11.325-5.01c1.001-1.746,2.937-5.12-0.483-10.268c-2.457-3.698-8.358-7.701-17.154-1.858
				l-17.441,11.587L195.945,468.62L195.945,468.62z M183.419,434.153l8.596-5.711c3.398-2.258,6.095-2.753,8.054,0.196
				c1.892,2.848,0.307,5.558-2.641,7.517L188.632,442L183.419,434.153L183.419,434.153z"/>
			<path style="fill-rule:evenodd;clip-rule:evenodd;fill:#FFFFFF;" d="M226.525,419.344l-6.375-9.595l9.345-6.209
				c4.397-2.922,7.106-0.687,8.368,1.212c2.357,3.548,1.355,6.159-2.543,8.749L226.525,419.344L226.525,419.344z M232.527,444.315
				l7.346-4.881l-9.33-14.043l7.746-5.147c5.547-3.686,7.108-1.985,10.362,2.912c2.458,3.698,3.986,5.348,5.614,6.714l8.296-5.511
				l-0.631-0.949c-1.998,0.463-2.861-0.837-6.347-6.084c-4.449-6.697-6.779-6.734-10.591-6.074c2.752-3.557,2.493-8.283-0.13-12.231
				c-2.059-3.099-8.49-8.983-18.035-2.641l-18.141,12.053L232.527,444.315L232.527,444.315z"/>
			<path style="fill-rule:evenodd;clip-rule:evenodd;fill:#FFFFFF;" d="M264.84,382.795l0.1-0.066l13.877,11.238l-9.145,6.076
				L264.84,382.795L264.84,382.795z M271.79,407.568l13.243-8.799l7.213,5.869l8.146-5.412l-36.483-27.482l-8.646,5.744
				l11.046,44.382l7.896-5.246L271.79,407.568L271.79,407.568z"/>
			<path style="fill-rule:evenodd;clip-rule:evenodd;fill:#FFFFFF;" d="M307.182,366.837l14.993-9.961l12.85,19.34l-4.998,3.32
				l-3.738-3.999c-0.439,3.46-1.029,8.535-7.575,12.885c-8.646,5.744-20.609,4.76-28.976-7.834
				c-6.508-9.795-7.203-22.66,4.924-30.645c10.994-7.305,20.09-3.047,23.777,1.635l-7.496,4.98
				c-0.93-1.399-6.467-4.203-11.764-0.684c-5.347,3.553-7.837,10.538-1.728,19.733c6.507,9.795,13.548,8.791,18.646,5.405
				c1.649-1.096,6.714-5.398,3.449-13.673l-8.346,5.545L307.182,366.837L307.182,366.837z"/>
			<path style="fill-rule:evenodd;clip-rule:evenodd;fill:#FFFFFF;" d="M338.303,333.986l0.1-0.067l13.878,11.238l-9.146,6.076
				L338.303,333.986L338.303,333.986z M345.253,358.758l13.243-8.799l7.213,5.869l8.146-5.412l-36.483-27.481l-8.645,5.744
				l11.046,44.382l7.896-5.246L345.253,358.758L345.253,358.758z"/>
			<polygon style="fill-rule:evenodd;clip-rule:evenodd;fill:#FFFFFF;" points="377.201,296.472 384.198,291.824 408.038,327.706 
				400.541,332.686 368.899,316.828 368.799,316.894 385.799,342.481 378.802,347.13 354.963,311.248 362.859,306.002 
				393.703,321.526 393.803,321.46 377.201,296.472 			"/>
			<polygon style="fill-rule:evenodd;clip-rule:evenodd;fill:#FFFFFF;" points="430.976,312.466 423.479,317.447 403.856,287.911 
				393.012,295.116 388.795,288.77 417.98,269.379 422.197,275.726 411.353,282.931 430.976,312.466 			"/>
			<polygon style="fill-rule:evenodd;clip-rule:evenodd;fill:#FFFFFF;" points="453.664,297.392 446.168,302.372 422.328,266.49 
				429.824,261.51 453.664,297.392 			"/>
			<polygon style="fill-rule:evenodd;clip-rule:evenodd;fill:#FFFFFF;" points="459.21,241.986 466.206,237.338 490.046,273.22 
				482.55,278.2 450.907,262.341 450.807,262.408 467.807,287.995 460.811,292.644 436.971,256.762 444.867,251.516 475.711,267.04 
				475.811,266.974 459.21,241.986 			"/>
			<path style="fill-rule:evenodd;clip-rule:evenodd;fill:#FFFFFF;" d="M491.719,246.248c-6.674-10.045-2.637-16.328,1.411-19.018
				c4.048-2.69,11.405-3.976,18.079,6.069c6.674,10.045,2.637,16.329-1.411,19.018C505.75,255.006,498.392,256.293,491.719,246.248
				L491.719,246.248z M484.222,251.228c11.189,16.842,25.044,10.59,29.792,7.436c4.748-3.154,15.88-13.504,4.691-30.346
				c-11.19-16.841-25.045-10.59-29.792-7.435C484.165,224.037,473.033,234.387,484.222,251.228L484.222,251.228z"/>
		</g>
	</g>
</g>
</svg>
