<?xml version="1.0" encoding="iso-8859-1"?>
<!-- Generator: Adobe Illustrator 23.0.1, SVG Export Plug-In . SVG Version: 6.00 Build 0)  -->
<svg version="1.1" xmlns="http://www.w3.org/2000/svg" xmlns:xlink="http://www.w3.org/1999/xlink" x="0px" y="0px"
	 viewBox="0 0 595.276 841.89" style="enable-background:new 0 0 595.276 841.89;" xml:space="preserve">
<g id="Grade" style="display:none;">
</g>
<g id="HQFL">
</g>
<g id="&#xC1;rea_de_trabalho">
</g>
<g id="Linhas-guia">
</g>
<g id="Page_1">
	<g id="HQFL_1_">
		<g>
			<path style="fill-rule:evenodd;clip-rule:evenodd;fill:#FFFFFF;" d="M297.638,712.224
				C157.406,657.541,62.07,550.032,39.711,417.199c26.862-25.573,43.057-53.088,44.275-80.375
				c1.181-26.447-11.708-47.434-42.589-71.478l53.785-64.024c14.454,13.132,39.542,17.258,57.38,7.775
				c14.779-7.857,24.581-25.057,19.232-54.219c34.309-18.895,91.948-25.642,125.844-25.642c33.896,0,91.533,6.748,125.843,25.642
				c-5.349,29.162,4.453,46.362,19.233,54.219c17.839,9.483,42.926,5.357,57.381-7.775l53.785,64.024
				c-30.882,24.044-43.771,45.031-42.591,71.478c1.22,27.287,17.412,54.802,44.275,80.375
				C533.205,550.032,437.87,657.541,297.638,712.224L297.638,712.224z"/>
			<path style="fill-rule:evenodd;clip-rule:evenodd;" d="M168.957,149.728l-3.711,2.044l0.765,4.167
				c4.24,23.12-1.516,40.155-16.21,47.966c-15.223,8.093-37.478,5.046-50.666-6.935l-4.524-4.111l-61.642,73.378l4.815,3.749
				c29.721,23.14,41.405,42.429,40.327,66.576c-1.097,24.57-15.777,50.982-42.455,76.379l-2.263,2.154l0.519,3.081
				c11.273,66.967,40.254,127.436,86.14,179.722c44.854,51.11,105.523,92.538,175.449,119.807l2.136,0.831l2.136-0.831
				c69.926-27.268,130.594-68.697,175.448-119.807c45.886-52.286,74.867-112.755,86.141-179.722l0.518-3.081l-2.262-2.154
				c-26.678-25.396-41.358-51.807-42.455-76.379c-1.079-24.147,10.606-43.436,40.328-66.576l4.814-3.749l-61.641-73.378
				l-4.525,4.111c-13.187,11.981-35.443,15.028-50.665,6.935c-14.694-7.811-20.45-24.846-16.211-47.966l0.764-4.167l-3.711-2.044
				c-37.8-20.818-98.673-26.373-128.68-26.373C267.63,123.355,206.758,128.909,168.957,149.728L168.957,149.728z M297.638,135.115
				c36.086,0,87.902,7.263,119.441,23.099c-0.599,4.297-0.981,8.394-0.981,12.107c0,26.791,14.287,38.881,23.857,43.968
				c17.888,9.511,42.322,7.259,59.31-4.814c5.883,7.004,40.071,47.7,46.244,55.049c-27.911,22.872-40.173,43.924-40.173,69.014
				c0,1.173,0.026,2.356,0.08,3.549c1.2,26.892,16.4,55.199,43.807,82.048C526.544,547.29,435.071,651.579,297.638,705.881
				C160.205,651.579,68.731,547.29,46.052,419.134c27.406-26.85,42.608-55.158,43.808-82.048c0.053-1.193,0.08-2.375,0.08-3.549
				c0-25.089-12.262-46.142-40.173-69.014c6.173-7.349,40.361-48.045,46.244-55.049c16.988,12.072,41.421,14.324,59.311,4.814
				c9.569-5.088,23.856-17.178,23.856-43.968c0-3.713-0.384-7.809-0.983-12.107C209.735,142.377,261.551,135.115,297.638,135.115
				L297.638,135.115z"/>
			<path style="fill-rule:evenodd;clip-rule:evenodd;" d="M267.565,699.362c-16.047-7.488-31.422-15.706-46.064-24.615
				l240.741-71.296c-20.225,21.574-43.265,41.215-68.805,58.636L267.565,699.362L267.565,699.362z M182.445,648.054
				c-11.712-8.976-22.822-18.452-33.292-28.398l378.29-112.028c-7.404,15.874-15.986,31.183-25.678,45.86L182.445,648.054
				L182.445,648.054z M120.821,589.787c-8.544-10.026-16.509-20.433-23.873-31.186l457.571-135.507
				c-2.614,14.072-6.057,27.848-10.281,41.303L120.821,589.787L120.821,589.787z M77.172,526.199
				c-5.884-10.894-11.192-22.085-15.907-33.548l453.967-134.438c3.575,11.144,9.465,22.23,17.376,33.112L77.172,526.199
				L77.172,526.199z"/>
			<path style="fill-rule:evenodd;clip-rule:evenodd;" d="M40.959,424.155c-0.436-2.311-0.857-4.629-1.248-6.957
				c2.671-2.544,5.237-5.106,7.694-7.685l502.466-148.937l4.008,4.768c-4.564,3.554-8.732,7.041-12.523,10.486L40.959,424.155
				L40.959,424.155z"/>
			<path style="fill-rule:evenodd;clip-rule:evenodd;" d="M366.297,148.988v56.652h-2.733c-1.594-14.781-3.94-26.106-8.296-34.008
				c-4.337-7.865-10.798-11.02-16.303-11.02c-5.072,0-10.144,2.436-14.467,7.637c-4.321,5.202-7.891,13.169-9.954,24.23
				c-2.269,12.155-3.429,25.649-3.429,40.512c0,14.615,0.834,27.955,2.502,39.976c1.447,10.44,5.185,20.001,10.129,26.63
				c4.643,6.227,9.363,9.847,14.85,9.847c5.237,0,10.6-3.732,15.426-9.671c4.258-5.24,8.095-12.199,11.055-19.828l0.143,13.478
				c-4.135,9.553-10.13,16.629-14.595,20.921c-4.487,4.313-9.693,6.464-15.681,6.464c-7.839,0-14.828-3.499-20.926-10.498
				c-6.098-7-10.806-17.045-14.123-30.137c-3.299-13.134-4.967-27.091-4.967-41.871c0-15.604,1.835-30.384,5.523-44.383
				c3.67-13.998,8.624-24.851,14.865-32.566c6.25-7.723,13.502-11.569,20.529-11.569c5.17,0,11.547,1.676,17.31,6.656
				c3.336,2.883,5.451,4.421,6.36,4.364c3.141-0.198,3.012-6.356,3.055-11.796L366.297,148.988L366.297,148.988z"/>
			<path style="fill-rule:evenodd;clip-rule:evenodd;" d="M249.713,162.681v64.464h11.717c12.271,0,12.422-18.698,12.602-22.432
				h3.148v58.678l-2.87-0.049c-0.384-15.15-5.932-24.527-12.39-24.493l-12.208,0.067v51.859c0,8.485,0.333,13.708,0.633,15.928
				c0.838,6.207,4.882,7.984,7.846,7.984h2.458v4.515h-35.952v-4.515h2.458c2.141,0,3.872-0.877,5.177-2.591
				c0.949-1.129,1.675-3.093,2.178-5.895c0.41-1.923,0.596-7.065,0.596-15.427V181.535c0-8.487-0.187-13.796-0.596-15.929
				c-0.391-2.132-1.21-3.971-2.421-5.56c-1.229-1.589-2.867-2.383-4.935-2.383h-2.458v-4.557h61.489v31.469h-3.613
				c-0.702-15.666-6.009-21.896-18.761-21.896H249.713L249.713,162.681z"/>
			<path style="fill-rule:evenodd;clip-rule:evenodd;" d="M406.592,181.346l5.444,36.806h-7.716
				c-5.819-9.387-16.648-16.578-32.551-21.598c-15.836-4.994-33.837-7.504-53.935-7.504c-17.272,0-37.607-0.246-59.398,5.382
				c-13.825,3.57-24.758,8.019-32.991,13.067c-13.722,8.415-19.942,18.496-19.562,28.952c0.351,9.64,6.106,19.8,18.688,28.236
				c17.599,11.799,46.217,18.457,81.259,18.968c17.374,0.254,35.059-0.998,50.431-3.478c22.147-3.575,39.365-9.768,58.045-18.143
				l3.63,4.01c-24.385,9.802-40.903,16.557-61.666,20.547c-17.2,3.307-37.318,4.715-67.234,4.39
				c-39.943-0.436-74.033-4.052-100.179-16.645c-20.692-9.966-31.815-23.174-31.815-35.944c0-8.125,4.822-16.729,13.58-24.242
				c12.798-10.98,34.008-20.102,60.86-25.869c22.824-4.902,47.032-6.108,72.681-6.108c18.882,0,38.844,1.57,59.892,4.732
				c12.178,1.831,12.181,1.12,15.498,1.12c4.196,0,7.851-0.602,10.963-1.805c3.114-1.202,5.143-3.112,6.092-5.7L406.592,181.346
				L406.592,181.346z"/>
			<path style="fill-rule:evenodd;clip-rule:evenodd;stroke:#000000;stroke-width:0.6993;stroke-miterlimit:2.4142;" d="
				M254.291,370.066l-4.106,10.343l-4.709,1.379l2.033-9.776L254.291,370.066L254.291,370.066z M335.93,395.622l-10.011-33.796
				l14.878-4.407c4.247-1.257,7.724-1.294,10.444-0.116c2.719,1.177,4.605,3.544,5.656,7.087c1.025,3.465,0.742,6.484-0.843,9.055
				c-1.583,2.57-4.301,4.43-8.165,5.575l-6.491,1.923l3.555,12.005L335.93,395.622L335.93,395.622z M339.436,374.319l4.006-1.187
				c1.924-0.569,3.234-1.358,3.934-2.365c0.7-0.999,0.82-2.276,0.363-3.817c-0.445-1.509-1.225-2.479-2.332-2.907
				c-1.108-0.43-2.638-0.351-4.591,0.228l-4.006,1.187L339.436,374.319L339.436,374.319z M369.303,385.76l-10.011-33.796
				l14.662-4.342c4.02-1.191,7.263-1.36,9.725-0.499c2.468,0.851,4.124,2.718,4.973,5.588c0.698,2.354,0.598,4.442-0.311,6.259
				c-0.906,1.825-2.539,3.271-4.891,4.324l0.057,0.188c1.81-0.536,3.337-0.572,4.581-0.098c1.602,0.603,9.99,12.03,10.913,13.505
				l-9.71,2.876c-0.064-0.134-7.786-10.642-8.192-10.806c-0.828-0.341-1.929-0.305-3.304,0.102l-3.458,1.024l3.863,13.039
				L369.303,385.76L369.303,385.76z M209.117,433.194l-10.011-33.795l14.661-4.343c4.02-1.19,7.262-1.354,9.726-0.498
				c2.465,0.855,4.124,2.718,4.973,5.587c0.697,2.354,0.595,4.442-0.311,6.26c-0.909,1.824-2.538,3.27-4.889,4.324l0.055,0.188
				c1.81-0.537,3.336-0.568,4.58-0.098c1.602,0.607,9.991,12.03,10.913,13.505l-9.708,2.876c-0.065-0.133-7.788-10.64-8.193-10.806
				c-0.829-0.339-1.93-0.304-3.304,0.103l-3.457,1.023l3.862,13.038L209.117,433.194L209.117,433.194z M79.452,450.684l3.539-1.049
				c2.037-0.603,3.371-1.339,4.005-2.208c0.626-0.865,0.708-2.081,0.247-3.637c-0.42-1.416-1.127-2.313-2.122-2.69
				c-1.001-0.375-2.454-0.284-4.355,0.278l-3.743,1.107L79.452,450.684L79.452,450.684z M76.257,472.567l-10.01-33.795l14.66-4.343
				c4.019-1.19,7.263-1.36,9.725-0.499c2.467,0.851,4.124,2.718,4.974,5.588c0.697,2.354,0.596,4.442-0.312,6.261
				c-0.907,1.823-2.538,3.27-4.89,4.322l0.055,0.19c1.81-0.536,3.336-0.572,4.581-0.099c1.603,0.604,9.991,12.031,10.913,13.505
				l-9.708,2.877c-0.065-0.135-7.787-10.642-8.193-10.807c-0.829-0.342-1.929-0.305-3.304,0.103l-3.457,1.024l3.862,13.037
				L76.257,472.567L76.257,472.567z M110.145,462.529l-10.011-33.795l8.98-2.66l10.011,33.795L110.145,462.529L110.145,462.529z
				 M133.724,448.866l3.479-1.031c2.187-0.647,3.667-1.443,4.445-2.379c0.777-0.937,0.945-2.136,0.512-3.599
				c-0.403-1.36-1.196-2.215-2.388-2.567c-1.191-0.353-2.852-0.219-4.977,0.412l-3.48,1.03L133.724,448.866L133.724,448.866z
				 M129.591,434.912l3.479-1.029c1.939-0.574,3.259-1.306,3.97-2.188c0.711-0.883,0.877-1.978,0.487-3.292
				c-0.372-1.258-1.116-2.059-2.241-2.406c-1.126-0.349-2.615-0.247-4.463,0.3l-3.479,1.031L129.591,434.912L129.591,434.912z
				 M126.848,457.58l-10.01-33.794l12.173-3.606c4.9-1.451,8.732-1.812,11.495-1.091c2.758,0.732,4.582,2.583,5.465,5.562
				c0.588,1.987,0.492,3.785-0.285,5.384c-0.776,1.6-2.241,3.029-4.397,4.28c2.824-0.292,5.076,0.053,6.769,1.024
				c1.693,0.971,2.875,2.586,3.549,4.862c0.915,3.088,0.547,5.706-1.102,7.872c-1.657,2.157-4.608,3.866-8.861,5.125L126.848,457.58
				L126.848,457.58z M160.991,447.468l-10.01-33.795l23.948-7.094l1.92,6.484l-15.186,4.498l2.043,6.899l14.465-4.285l1.907,6.436
				l-14.465,4.284l2.138,7.219l15.629-4.629l2.002,6.757L160.991,447.468L160.991,447.468z M192.22,438.218l-10.01-33.796
				l8.979-2.66l10.011,33.795L192.22,438.218L192.22,438.218z M212.401,411.375l3.539-1.048c2.037-0.603,3.374-1.339,4.004-2.208
				c0.628-0.864,0.708-2.081,0.247-3.637c-0.419-1.416-1.126-2.315-2.121-2.69c-1.001-0.377-2.455-0.285-4.356,0.278l-3.742,1.108
				L212.401,411.375L212.401,411.375z M260.126,403.799l-8.282-12.869l-0.344,15.423L260.126,403.799L260.126,403.799z
				 M242.211,423.338l2.539-37.511l10.941-3.241l22.822,30l-10.062,2.98l-4.209-5.958l-12.767,3.781l-0.283,7.291L242.211,423.338
				L242.211,423.338z M274.396,395.508c-1.631-5.506-1.437-10.209,0.571-14.13c2.003-3.919,5.631-6.653,10.869-8.205
				c5.223-1.547,9.747-1.228,13.561,0.969c3.821,2.194,6.543,6.033,8.175,11.539c1.624,5.483,1.435,10.193-0.57,14.137
				c-1.996,3.935-5.612,6.682-10.835,8.229c-5.221,1.547-9.75,1.213-13.584-0.995C278.745,404.837,276.02,400.991,274.396,395.508
				L274.396,395.508z M283.67,392.71c1.03,3.481,2.422,5.918,4.169,7.315c1.746,1.397,3.831,1.733,6.251,1.016
				c2.404-0.712,3.956-2.125,4.644-4.243c0.689-2.118,0.521-4.919-0.51-8.399c-1.035-3.496-2.422-5.944-4.153-7.345
				c-1.731-1.402-3.802-1.741-6.207-1.029c-2.419,0.717-3.983,2.142-4.687,4.264C282.476,386.419,282.639,389.23,283.67,392.71
				L283.67,392.71z M372.542,363.867l3.539-1.049c2.037-0.603,3.372-1.339,4.006-2.207c0.627-0.866,0.709-2.081,0.246-3.638
				c-0.419-1.416-1.126-2.313-2.121-2.69c-1.001-0.375-2.454-0.285-4.356,0.278l-3.742,1.108L372.542,363.867L372.542,363.867z
				 M403.41,375.66l-10.011-33.795l23.947-7.094l1.92,6.484l-15.185,4.498l2.043,6.899l14.466-4.286l1.906,6.437l-14.465,4.285
				l2.138,7.219l15.63-4.63l2.002,6.757L403.41,375.66L403.41,375.66z M441.941,364.246l-8.022-27.084l-9.844,2.916l-1.988-6.711
				l28.689-8.498l1.987,6.71l-9.82,2.909l8.022,27.085L441.941,364.246L441.941,364.246z M459.166,340.777
				c-1.632-5.506-1.437-10.208,0.57-14.129c2.003-3.921,5.632-6.653,10.869-8.205c5.222-1.547,9.747-1.229,13.561,0.969
				c3.819,2.194,6.543,6.033,8.173,11.539c1.624,5.482,1.435,10.192-0.568,14.137c-1.996,3.935-5.614,6.683-10.837,8.23
				c-5.223,1.547-9.751,1.212-13.584-0.994C463.513,350.106,460.789,346.259,459.166,340.777L459.166,340.777z M468.438,337.979
				c1.031,3.48,2.423,5.918,4.17,7.315c1.746,1.397,3.831,1.731,6.251,1.015c2.405-0.712,3.957-2.124,4.645-4.243
				c0.688-2.118,0.52-4.919-0.51-8.398c-1.035-3.496-2.423-5.944-4.154-7.345c-1.731-1.401-3.801-1.742-6.205-1.029
				c-2.419,0.717-3.982,2.142-4.689,4.264C467.246,331.688,467.408,334.499,468.438,337.979L468.438,337.979z"/>
		</g>
	</g>
</g>
</svg>
