<?xml version="1.0" encoding="iso-8859-1"?>
<!-- Generator: Adobe Illustrator 23.0.1, SVG Export Plug-In . SVG Version: 6.00 Build 0)  -->
<svg version="1.1" xmlns="http://www.w3.org/2000/svg" xmlns:xlink="http://www.w3.org/1999/xlink" x="0px" y="0px"
	 viewBox="0 0 595.276 841.89" style="enable-background:new 0 0 595.276 841.89;" xml:space="preserve">
<g id="Grade" style="display:none;">
</g>
<g id="HQFL">
</g>
<g id="&#xC1;rea_de_trabalho">
</g>
<g id="Linhas-guia">
</g>
<g id="Page_1">
	<g id="HQFL_1_">
		<g>
			<path style="fill-rule:evenodd;clip-rule:evenodd;" d="M105.024,506.849c-43.658-87.292-64.798-182.826-65.713-286.156
				l-0.093-10.442l10.255,2.01c89.716,17.621,126.34-7.57,162.159-32.208c26.855-18.47,53.293-36.66,98.661-39.017l0.434-0.02
				l0.433,0.02c45.513,2.367,71.97,20.655,98.777,39.182c35.563,24.581,71.784,49.618,160.231,32.043l10.072-2l0.091,10.3
				c0.919,103.377-19.77,198.959-63.447,286.286c-43.627,87.228-110.155,166.105-200.959,236.158l-5.197,4.014l-5.199-4.014
				C214.72,672.946,148.65,594.069,105.024,506.849L105.024,506.849z"/>
			<path style="fill-rule:evenodd;clip-rule:evenodd;fill:#FFFFFF;" d="M56.4,230.88c2.167,96.787,22.745,186.381,63.752,268.373
				c41.659,83.287,104.438,158.843,190.441,226.25c86.026-67.407,149.238-142.963,190.892-226.25
				c41.008-81.991,61.161-171.589,61.666-268.383c-88.102,15.106-125.897-11.001-163.012-36.657
				c-24.666-17.045-49.012-33.869-89.546-36.088c-40.413,2.212-64.732,18.935-89.431,35.926
				C183.806,219.744,145.632,245.989,56.4,230.88L56.4,230.88z"/>
			<polygon style="fill-rule:evenodd;clip-rule:evenodd;" points="220.126,512.742 255.216,401.993 165.272,331.418 
				277.458,331.418 310.593,231.563 344.507,331.418 459.238,331.418 369.229,401.993 401.839,510.202 310.593,444.392 
				220.126,512.742 			"/>
			<polygon style="fill-rule:evenodd;clip-rule:evenodd;" points="138.872,468.434 138.859,389.43 195.048,389.43 195.048,402.799 
				154.165,402.799 154.165,420.302 192.201,420.302 192.201,433.629 154.165,433.629 154.165,455.126 196.491,455.126 
				196.491,468.434 138.872,468.434 			"/>
			<path style="fill-rule:evenodd;clip-rule:evenodd;" d="M432.138,389.417l30.282,0.013c5.994,0,10.466,0.263,13.409,0.775
				c2.94,0.518,5.58,1.623,7.906,3.273c2.32,1.646,4.276,3.855,5.815,6.593c1.539,2.754,2.323,5.839,2.323,9.253
				c0,3.697-0.963,7.095-2.858,10.176c-1.913,3.084-4.513,5.408-7.785,6.957c4.606,1.394,8.155,3.785,10.631,7.156
				c2.475,3.384,3.728,7.358,3.728,11.917c0,3.583-0.799,7.098-2.394,10.485c-1.596,3.381-3.795,6.108-6.56,8.129
				c-2.774,2.034-6.202,3.3-10.27,3.758c-2.546,0.283-8.704,0.472-18.442,0.532h-25.798L432.138,389.417L432.138,389.417z
				 M447.429,402.57v18.281h10.028c5.953,0,9.668-0.101,11.108-0.273c2.614-0.316,4.678-1.276,6.162-2.825
				c1.499-1.562,2.257-3.626,2.257-6.179c0-2.438-0.647-4.431-1.927-5.953c-1.293-1.519-3.218-2.452-5.774-2.765
				c-1.516-0.172-5.873-0.273-13.065-0.273L447.429,402.57L447.429,402.57z M447.429,433.986v21.14h14.153
				c5.513,0,9.02-0.175,10.492-0.491c2.269-0.432,4.125-1.476,5.553-3.139c1.432-1.664,2.146-3.913,2.146-6.711
				c0-2.368-0.549-4.388-1.651-6.038c-1.098-1.65-2.693-2.868-4.771-3.616c-2.088-0.744-6.614-1.131-13.57-1.131L447.429,433.986
				L447.429,433.986z"/>
			<path style="fill-rule:evenodd;clip-rule:evenodd;" d="M324.64,581.677l14.822,4.916c-2.269,8.621-6.051,15.032-11.331,19.208
				c-5.279,4.182-12.004,6.276-20.132,6.276c-10.064,0-18.344-3.583-24.808-10.742c-6.475-7.165-9.722-16.977-9.722-29.396
				c0-13.152,3.258-23.376,9.764-30.643c6.517-7.273,15.086-10.917,25.688-10.917c9.27,0,16.803,2.856,22.591,8.567
				c3.439,3.381,6.024,8.243,7.745,14.554l-15.142,3.771c-0.893-4.088-2.775-7.327-5.606-9.698
				c-2.836-2.364-6.301-3.556-10.357-3.556c-5.61,0-10.178,2.115-13.67,6.297c-3.494,4.202-5.253,11.031-5.253,20.433
				c0,9.981,1.732,17.113,5.172,21.343c3.438,4.243,7.933,6.364,13.436,6.364c4.069,0,7.576-1.347,10.488-4.041
				c2.93-2.693,5.048-6.943,6.315-12.722V581.677L324.64,581.677z"/>
		</g>
	</g>
</g>
</svg>
