<?xml version="1.0" encoding="iso-8859-1"?>
<!-- Generator: Adobe Illustrator 23.0.1, SVG Export Plug-In . SVG Version: 6.00 Build 0)  -->
<svg version="1.1" xmlns="http://www.w3.org/2000/svg" xmlns:xlink="http://www.w3.org/1999/xlink" x="0px" y="0px"
	 viewBox="0 0 595.276 841.89" style="enable-background:new 0 0 595.276 841.89;" xml:space="preserve">
<g id="Grade" style="display:none;">
</g>
<g id="HQFL">
</g>
<g id="&#xC1;rea_de_trabalho">
</g>
<g id="Linhas-guia">
</g>
<g id="Page_1">
	<g id="HQFL_1_">
		<g>
			<path style="fill-rule:evenodd;clip-rule:evenodd;fill:#ED1C24;" d="M574.338,459.697l-0.162-0.745
				c-1.313-5.99-3.478-15.534-5.63-25.032c-16.349-72.128-32.048-141.396,2.623-168.168l7.333-5.666l-90.432-90.783l-5.379,2.928
				c-83.31,45.331-167.687,58.041-253.126,38.12c-16.69-3.89-33.396-9.006-50.114-15.356c-16.673-6.326-33.487-13.938-50.438-22.825
				c-0.001,0-0.001,0-0.003-0.003c-0.022-0.009-0.042-0.021-0.063-0.033v0.003c-0.044-0.022-0.087-0.046-0.131-0.067l-5.257-2.629
				l-90.296,90.645l7.335,5.666c34.669,26.77,18.969,96.037,2.621,168.168c-2.151,9.489-4.314,19.03-5.628,25.032l-0.164,0.745
				l-0.028,0.599c-3.874,80.68,53.831,107.149,119.747,137.387c51.75,23.741,108.894,49.954,141.602,108.329l7.135,12.737
				l7.135-12.737c32.707-58.375,89.855-84.588,141.601-108.329c65.919-30.237,123.621-56.707,119.75-137.387L574.338,459.697
				L574.338,459.697z"/>
			<path style="fill-rule:evenodd;clip-rule:evenodd;fill:#FFFFFF;" d="M305.89,324.052c77.323-0.522,155.982-15.913,235.991-46.083
				c-16.682,38.469-3.193,98.025,10.747,159.532c1.575,6.939,3.15,13.904,5.392,24.119c0.012,0.309,0.006,0.602,0.018,0.907
				L305.889,360.304L53.744,462.527c0.011-0.306,0.003-0.599,0.017-0.907c2.24-10.215,3.819-17.179,5.392-24.116
				c13.94-61.51,27.432-121.065,10.746-159.534C149.913,308.14,228.569,323.53,305.89,324.052L305.89,324.052z"/>
			<path style="fill-rule:evenodd;clip-rule:evenodd;fill:#FFFFFF;" d="M305.876,377.969l251.535,101.975
				c-3.795,33.162-22.641,54.466-48.86,71.588l-202.589-82.458l-202.761,82.461c-26.218-17.125-45.066-38.426-48.861-71.591
				L305.876,377.969L305.876,377.969z"/>
			<path style="fill-rule:evenodd;clip-rule:evenodd;fill:#FFFFFF;" d="M306.012,686.251
				c-35.84-54.729-91.492-80.203-142.083-103.413c-15.156-6.951-29.833-13.689-43.277-20.978l185.297-75.121l185.295,75.121
				c-13.446,7.288-28.125,14.026-43.281,20.978C397.373,606.048,341.851,631.523,306.012,686.251L306.012,686.251z"/>
			<path style="fill-rule:evenodd;clip-rule:evenodd;fill:#ED1C24;" d="M337.069,413.379l13.358,5.398
				c3.01,1.215,5.227,2.375,6.616,3.468c1.865,1.481,3.239,3.334,4.109,5.532c0.87,2.21,1.236,4.635,1.09,7.266
				c-0.144,2.632-0.892,5.645-2.263,9.037c-1.203,2.983-2.614,5.401-4.22,7.263c-1.966,2.26-4.124,3.871-6.457,4.83
				c-1.767,0.721-3.871,0.995-6.305,0.818c-1.822-0.147-4.088-0.764-6.783-1.851l-13.754-5.55L337.069,413.379L337.069,413.379z
				 M341.911,422.455l-9.681,23.985l5.459,2.204c2.039,0.818,3.565,1.301,4.561,1.441c1.304,0.184,2.495,0.073,3.551-0.317
				c1.072-0.391,2.187-1.301,3.331-2.724c1.149-1.422,2.29-3.538,3.42-6.335c1.126-2.796,1.746-5.043,1.856-6.741
				c0.112-1.697-0.11-3.157-0.66-4.347c-0.55-1.2-1.447-2.229-2.695-3.075c-0.929-0.632-2.886-1.56-5.862-2.763L341.911,422.455
				L341.911,422.455z M364.752,445.857c1.483-3.682,3.288-6.558,5.4-8.616c1.564-1.508,3.364-2.717,5.373-3.603
				c2.013-0.892,4.015-1.355,5.996-1.374c2.639-0.043,5.441,0.531,8.384,1.72c5.331,2.149,8.934,5.529,10.802,10.127
				c1.866,4.601,1.609,9.858-0.766,15.744c-2.357,5.844-5.792,9.776-10.298,11.797c-4.507,2.015-9.425,1.961-14.744-0.189
				c-5.382-2.168-9.003-5.545-10.856-10.1C362.19,456.79,362.425,451.625,364.752,445.857L364.752,445.857z M372.391,448.651
				c-1.655,4.097-1.973,7.596-0.935,10.472c1.041,2.882,3.025,4.915,5.939,6.088c2.909,1.172,5.727,1.087,8.438-0.257
				c2.714-1.349,4.928-4.127,6.619-8.317c1.673-4.152,2.012-7.62,1.02-10.386c-0.992-2.769-3.004-4.772-6.015-5.987
				c-3.011-1.215-5.865-1.166-8.536,0.153c-2.675,1.325-4.857,4.07-6.54,8.234H372.391L372.391,448.651z M412.449,485.892
				l14.597-36.21l15.394,6.21c3.865,1.563,6.552,3.029,8.039,4.379c1.486,1.355,2.424,3.083,2.806,5.165
				c0.382,2.089,0.147,4.207-0.718,6.345c-1.096,2.717-2.806,4.641-5.107,5.77c-2.312,1.123-5.153,1.276-8.515,0.451
				c1.209,1.558,2.112,3.103,2.692,4.616c0.58,1.521,1.182,4.049,1.789,7.565l1.575,8.842l-8.75-3.529l-2.106-10.008
				c-0.739-3.565-1.306-5.868-1.704-6.875c-0.393-1.014-0.925-1.82-1.584-2.394c-0.669-0.587-1.841-1.222-3.523-1.899l-1.478-0.599
				l-6.1,15.119L412.449,485.892L412.449,485.892z M428.187,467.94l5.407,2.192c3.502,1.41,5.758,2.143,6.744,2.204
				c0.992,0.06,1.89-0.178,2.666-0.702c0.784-0.526,1.404-1.338,1.841-2.418c0.491-1.222,0.558-2.339,0.22-3.347
				c-0.352-1.014-1.078-1.856-2.184-2.527c-0.558-0.317-2.329-1.087-5.284-2.278l-5.706-2.302L428.187,467.94L428.187,467.94z
				 M448.732,500.528l14.608-36.203l7.306,2.949l-14.605,36.203L448.732,500.528L448.732,500.528z M468.738,487.809
				c1.485-3.682,3.288-6.558,5.401-8.622c1.566-1.508,3.364-2.711,5.373-3.597c2.012-0.897,4.015-1.356,5.993-1.373
				c2.64-0.043,5.443,0.524,8.387,1.716c5.331,2.15,8.934,5.532,10.802,10.124c1.862,4.603,1.609,9.861-0.767,15.747
				c-2.356,5.844-5.791,9.776-10.298,11.797c-4.506,2.016-9.425,1.96-14.743-0.189c-5.382-2.167-9.003-5.538-10.856-10.099
				C466.177,498.739,466.412,493.574,468.738,487.809L468.738,487.809z M476.377,490.6c-1.654,4.097-1.972,7.596-0.934,10.472
				c1.041,2.882,3.025,4.915,5.939,6.088c2.909,1.172,5.727,1.087,8.438-0.257c2.714-1.35,4.928-4.121,6.619-8.316
				c1.673-4.147,2.012-7.62,1.02-10.387c-0.992-2.773-3.005-4.774-6.015-5.99c-3.011-1.209-5.865-1.166-8.536,0.159
				c-2.675,1.318-4.86,4.066-6.54,8.237L476.377,490.6L476.377,490.6z"/>
			<path style="fill-rule:evenodd;clip-rule:evenodd;fill:#ED1C24;" d="M203.19,562.359l4.931-0.477
				c0.296,1.655,0.902,2.87,1.804,3.645c0.907,0.776,2.137,1.166,3.676,1.166c1.632,0,2.862-0.348,3.686-1.032
				c0.829-0.695,1.244-1.502,1.244-2.43c0-0.593-0.172-1.1-0.519-1.515c-0.346-0.415-0.961-0.776-1.827-1.087
				c-0.592-0.201-1.946-0.567-4.061-1.093c-2.714-0.678-4.624-1.502-5.717-2.485c-1.54-1.38-2.311-3.065-2.311-5.05
				c0-1.276,0.365-2.479,1.083-3.59c0.725-1.111,1.774-1.96,3.136-2.54c1.362-0.587,3.012-0.873,4.944-0.873
				c3.148,0,5.521,0.689,7.112,2.063c1.591,1.386,2.427,3.236,2.509,5.538l-5.069,0.22c-0.215-1.282-0.684-2.217-1.395-2.779
				c-0.71-0.567-1.786-0.849-3.211-0.849c-1.472,0-2.631,0.306-3.46,0.91c-0.537,0.385-0.806,0.909-0.806,1.557
				c0,0.593,0.255,1.1,0.757,1.521c0.638,0.537,2.191,1.1,4.656,1.673c2.466,0.587,4.292,1.191,5.472,1.814
				c1.18,0.617,2.11,1.472,2.774,2.553c0.665,1.074,1.003,2.412,1.003,3.999c0,1.435-0.401,2.785-1.198,4.036
				c-0.802,1.258-1.937,2.193-3.395,2.803c-1.458,0.611-3.285,0.916-5.462,0.916c-3.173,0-5.61-0.732-7.309-2.204
				C204.539,567.304,203.518,565.167,203.19,562.359L203.19,562.359z M226.838,558.127c0-2.553,0.384-4.702,1.149-6.436
				c0.569-1.276,1.352-2.43,2.337-3.438c0.985-1.02,2.068-1.776,3.244-2.266c1.563-0.659,3.372-0.988,5.413-0.988
				c3.695,0,6.657,1.147,8.875,3.438c2.22,2.296,3.332,5.489,3.332,9.574c0,4.048-1.102,7.224-3.305,9.507
				c-2.2,2.29-5.147,3.438-8.834,3.438c-3.732,0-6.703-1.142-8.902-3.414C227.941,565.265,226.838,562.126,226.838,558.127
				L226.838,558.127z M232.064,557.956c0,2.845,0.652,5.001,1.965,6.466c1.313,1.472,2.985,2.204,5.003,2.204
				c2.018,0,3.677-0.727,4.972-2.18c1.293-1.459,1.945-3.646,1.945-6.558c0-2.87-0.633-5.02-1.891-6.435
				c-1.256-1.411-2.937-2.125-5.025-2.125c-2.087,0-3.777,0.72-5.053,2.149c-1.276,1.429-1.919,3.595-1.919,6.484L232.064,557.956
				L232.064,557.956z M255.167,570.529l-0.005-25.103h10.672c2.679,0,4.633,0.227,5.845,0.672c1.212,0.452,2.188,1.258,2.915,2.406
				c0.729,1.153,1.098,2.479,1.098,3.956c0,1.887-0.556,3.444-1.658,4.672c-1.108,1.227-2.766,1.996-4.966,2.32
				c1.093,0.635,2.004,1.337,2.714,2.1c0.711,0.77,1.678,2.132,2.885,4.079l3.067,4.898h-6.065l-3.664-5.459
				c-1.298-1.954-2.192-3.187-2.67-3.694c-0.478-0.507-0.989-0.86-1.522-1.044c-0.538-0.189-1.389-0.287-2.557-0.287h-1.024v10.484
				H255.167L255.167,570.529z M260.233,556.038l3.749,0.007c2.429,0,3.951-0.11,4.554-0.312c0.604-0.202,1.083-0.556,1.421-1.056
				c0.34-0.501,0.513-1.136,0.513-1.887c0-0.843-0.228-1.526-0.674-2.046c-0.45-0.518-1.088-0.848-1.91-0.982
				c-0.409-0.056-1.649-0.092-3.7-0.092h-3.954V556.038L260.233,556.038z M279.448,558.127c0-2.553,0.383-4.702,1.148-6.436
				c0.569-1.276,1.354-2.43,2.338-3.438c0.985-1.02,2.068-1.776,3.244-2.266c1.563-0.659,3.372-0.988,5.412-0.988
				c3.696,0,6.657,1.147,8.875,3.438c2.22,2.296,3.331,5.489,3.331,9.574c0,4.048-1.103,7.224-3.304,9.507
				c-2.201,2.29-5.147,3.438-8.834,3.438c-3.732,0-6.703-1.142-8.903-3.414C280.551,565.265,279.448,562.126,279.448,558.127
				L279.448,558.127z M284.675,557.956c0,2.845,0.652,5.001,1.963,6.466c1.312,1.472,2.984,2.204,5.004,2.204
				c2.018,0,3.677-0.727,4.97-2.18c1.294-1.459,1.945-3.646,1.945-6.558c0-2.87-0.632-5.02-1.889-6.435
				c-1.258-1.411-2.939-2.125-5.025-2.125c-2.087,0-3.778,0.72-5.053,2.149c-1.276,1.429-1.919,3.595-1.919,6.484L284.675,557.956
				L284.675,557.956z M323.819,561.296l4.912,1.563c-0.751,2.735-2.006,4.774-3.755,6.1c-1.75,1.331-3.978,1.997-6.671,1.997
				c-3.334,0-6.079-1.142-8.219-3.414c-2.147-2.278-3.223-5.398-3.223-9.342c0-4.177,1.08-7.426,3.237-9.733
				c2.16-2.314,4.999-3.468,8.51-3.468c3.071,0,5.569,0.903,7.486,2.717c1.139,1.074,1.997,2.619,2.564,4.628l-5.016,1.197
				c-0.297-1.301-0.919-2.326-1.859-3.084c-0.938-0.751-2.086-1.129-3.429-1.129c-1.859,0-3.374,0.671-4.531,2.003
				c-1.157,1.337-1.74,3.505-1.74,6.49c0,3.175,0.574,5.435,1.713,6.784c1.139,1.35,2.629,2.021,4.451,2.021
				c1.35,0,2.513-0.427,3.478-1.282c0.971-0.86,1.67-2.21,2.092-4.042V561.296L323.819,561.296z M355.724,570.529h-5.514
				l-2.192-5.703h-10.035l-2.07,5.703h-5.376l9.772-25.103h5.364L355.724,570.529L355.724,570.529z M346.393,560.594l-3.459-9.313
				l-3.396,9.318L346.393,560.594L346.393,560.594z M358.434,545.42l10.035,0.006c1.985,0,3.466,0.079,4.442,0.244
				c0.974,0.165,1.85,0.513,2.62,1.038c0.768,0.525,1.416,1.227,1.926,2.1c0.51,0.873,0.769,1.85,0.769,2.938
				c0,1.172-0.317,2.253-0.946,3.236c-0.635,0.977-1.496,1.716-2.58,2.21c1.526,0.44,2.702,1.203,3.523,2.272
				c0.818,1.074,1.233,2.339,1.233,3.786c0,1.142-0.262,2.253-0.794,3.327c-0.524,1.081-1.255,1.942-2.174,2.59
				c-0.919,0.647-2.052,1.044-3.4,1.191c-0.843,0.092-2.886,0.152-6.112,0.171h-8.546L358.434,545.42L358.434,545.42z
				 M363.503,549.597v5.812h3.321c1.973,0,3.203-0.03,3.682-0.085c0.863-0.105,1.548-0.409,2.039-0.897
				c0.498-0.501,0.748-1.154,0.748-1.967c0-0.775-0.214-1.41-0.638-1.892c-0.428-0.482-1.065-0.775-1.915-0.879
				c-0.5-0.056-1.944-0.086-4.326-0.086L363.503,549.597L363.503,549.597z M363.503,559.58v6.717h4.69
				c1.825,0,2.989-0.056,3.474-0.153c0.754-0.139,1.367-0.47,1.841-1.001c0.473-0.525,0.711-1.239,0.711-2.131
				c0-0.751-0.183-1.393-0.546-1.917c-0.363-0.526-0.892-0.91-1.582-1.148c-0.692-0.238-2.191-0.361-4.497-0.361L363.503,559.58
				L363.503,559.58z M406.383,570.529h-5.514l-2.189-5.703h-10.038l-2.07,5.703h-5.376l9.772-25.103h5.364L406.383,570.529
				L406.383,570.529z M397.053,560.594l-3.459-9.313l-3.396,9.318L397.053,560.594L397.053,560.594z"/>
			<path style="fill-rule:evenodd;clip-rule:evenodd;fill:#EE3529;" d="M131.478,501.395l7.984-0.721
				c0.574,4.379,0.006,8.055-1.703,11.01c-1.705,2.968-4.499,5.263-8.36,6.888c-4.781,2.009-9.4,2.033-13.843,0.06
				c-4.45-1.971-7.87-5.788-10.252-11.448c-2.519-5.99-2.931-11.297-1.234-15.906c1.704-4.616,5.076-7.987,10.112-10.106
				c4.402-1.85,8.528-2.058,12.372-0.616c2.282,0.854,4.442,2.553,6.468,5.086l-6.471,4.745c-1.206-1.685-2.722-2.785-4.521-3.298
				c-1.8-0.513-3.674-0.36-5.601,0.452c-2.664,1.117-4.43,2.992-5.287,5.593c-0.855,2.614-0.383,6.076,1.42,10.362
				c1.913,4.543,4.102,7.449,6.545,8.69c2.447,1.245,4.989,1.312,7.602,0.214c1.933-0.812,3.342-2.132,4.209-3.938
				c0.876-1.814,1.067-4.171,0.562-7.059L131.478,501.395L131.478,501.395z M182.785,495.393l-7.903,3.321l-6.579-6.85
				l-14.392,6.057l0.472,9.416l-7.707,3.242l-1.127-41.882l7.69-3.229L182.785,495.393L182.785,495.393z M163.418,486.777
				l-10.576-11.265l0.752,15.406L163.418,486.777L163.418,486.777z M186.719,493.738l-15.137-35.989l7.068-2.974l24.839,17.836
				l-10.11-24.033l6.755-2.836l15.139,35.986l-7.297,3.065l-24.379-17.359l9.871,23.466L186.719,493.738L186.719,493.738z
				 M231.061,475.083l-12.577-29.898l-10.679,4.491l-2.562-6.084l28.598-12.032l2.562,6.088l-10.653,4.482l12.577,29.901
				L231.061,475.083L231.061,475.083z M243.816,448.797c-1.539-3.655-2.287-6.97-2.235-9.92c0.046-2.174,0.475-4.299,1.274-6.344
				c0.8-2.049,1.898-3.786,3.288-5.196c1.843-1.887,4.236-3.456,7.163-4.689c5.299-2.229,10.235-2.366,14.8-0.418
				c4.566,1.954,8.086,5.862,10.549,11.714c2.442,5.807,2.773,11.021,0.998,15.629c-1.775,4.603-5.31,8.029-10.594,10.252
				c-5.351,2.247-10.296,2.406-14.823,0.477C249.701,458.366,246.226,454.525,243.816,448.797L243.816,448.797z M251.204,445.399
				c1.714,4.076,3.952,6.781,6.718,8.094c2.766,1.312,5.606,1.356,8.5,0.135c2.894-1.216,4.831-3.261,5.81-6.125
				c0.975-2.873,0.591-6.402-1.162-10.566c-1.734-4.122-3.938-6.827-6.594-8.091c-2.653-1.267-5.494-1.27-8.485-0.012
				c-2.992,1.258-4.984,3.304-5.95,6.125c-0.966,2.821-0.581,6.308,1.16,10.451L251.204,445.399L251.204,445.399z"/>
			<path style="fill-rule:evenodd;clip-rule:evenodd;fill:#ED1C24;" d="M265.677,608.808h-4.812v-18.136
				c-1.759,1.643-3.831,2.864-6.219,3.652v-4.365c1.258-0.409,2.626-1.197,4.092-2.339c1.473-1.147,2.488-2.485,3.036-4.018h3.904
				V608.808L265.677,608.808z M273.351,602.116v-4.812h9.451v4.812H273.351L273.351,602.116z M284.62,602.354l4.793-0.495
				c0.136,1.087,0.542,1.948,1.212,2.577c0.673,0.629,1.453,0.952,2.333,0.952c1.003,0,1.857-0.415,2.551-1.227
				c0.693-0.818,1.044-2.052,1.044-3.694c0-1.539-0.347-2.693-1.035-3.463c-0.691-0.776-1.593-1.16-2.697-1.16
				c-1.38,0-2.624,0.617-3.717,1.838l-3.905-0.567l2.464-13.067h12.727v4.5h-9.075l-0.753,4.269c1.072-0.537,2.169-0.8,3.285-0.8
				c2.133,0,3.946,0.775,5.427,2.326c1.485,1.545,2.227,3.567,2.227,6.039c0,2.07-0.602,3.914-1.794,5.532
				c-1.632,2.217-3.902,3.322-6.799,3.322c-2.314,0-4.21-0.623-5.668-1.863C285.775,606.127,284.901,604.454,284.62,602.354
				L284.62,602.354z M304.535,602.116v-4.812h9.451v4.812H304.535L304.535,602.116z M315.805,602.354l4.794-0.495
				c0.134,1.087,0.54,1.948,1.212,2.577c0.675,0.629,1.453,0.952,2.332,0.952c1.002,0,1.859-0.415,2.55-1.227
				c0.693-0.818,1.044-2.052,1.044-3.694c0-1.539-0.345-2.693-1.035-3.463c-0.691-0.776-1.594-1.16-2.696-1.16
				c-1.38,0-2.625,0.617-3.718,1.838l-3.905-0.567l2.464-13.067h12.728v4.5h-9.077l-0.751,4.269c1.071-0.537,2.168-0.8,3.285-0.8
				c2.131,0,3.944,0.775,5.425,2.326c1.487,1.545,2.229,3.567,2.229,6.039c0,2.07-0.602,3.914-1.796,5.532
				c-1.63,2.217-3.898,3.322-6.799,3.322c-2.314,0-4.21-0.623-5.666-1.863C316.962,606.127,316.086,604.454,315.805,602.354
				L315.805,602.354z M335.311,602.354l4.794-0.495c0.134,1.087,0.54,1.948,1.212,2.577c0.675,0.629,1.453,0.952,2.332,0.952
				c1.002,0,1.86-0.415,2.553-1.227c0.693-0.818,1.041-2.052,1.041-3.694c0-1.539-0.345-2.693-1.032-3.463
				c-0.693-0.776-1.597-1.16-2.698-1.16c-1.38,0-2.626,0.617-3.719,1.838l-3.905-0.567l2.467-13.067h12.726v4.5h-9.077l-0.751,4.269
				c1.071-0.537,2.168-0.8,3.285-0.8c2.131,0,3.944,0.775,5.429,2.326c1.484,1.545,2.226,3.567,2.226,6.039
				c0,2.07-0.602,3.914-1.795,5.532c-1.631,2.217-3.899,3.322-6.797,3.322c-2.317,0-4.21-0.623-5.669-1.863
				C336.468,606.127,335.592,604.454,335.311,602.354L335.311,602.354z"/>
			<path style="fill-rule:evenodd;clip-rule:evenodd;fill:#FFFFFF;" d="M305.889,235.847c26.568-0.128,53.246-3.315,80.036-9.56
				c17.315-4.036,34.703-9.372,52.161-15.998c15.7-5.96,31.358-12.917,46.973-20.877l66.864,67.128
				c-83.549,33.501-165.551,50.571-246.035,51.127c-80.484-0.556-162.486-17.626-246.035-51.127l66.865-67.128
				c15.615,7.959,31.272,14.917,46.973,20.877c17.459,6.625,34.846,11.962,52.161,15.998
				C252.642,232.533,279.321,235.719,305.889,235.847L305.889,235.847z"/>
			<path style="fill-rule:evenodd;clip-rule:evenodd;fill:#ED1C24;" d="M88.937,253.728c6.812-6.973,13.663-13.949,20.475-20.919
				c6.807-6.967,13.62-13.946,20.385-20.923c5.184,2.381,10.5,4.851,15.992,7.382c-1.977,2.363-3.953,4.717-5.932,7.074
				c-4.216-1.85-8.391-3.663-12.434-5.428c-2.987,3.089-5.843,6.185-8.742,9.272c3.998,1.64,8.173,3.313,12.302,5.028
				c-2.021,2.345-4.042,4.683-6.019,7.028c-4.349-1.698-8.7-3.371-12.96-5.001c-1.758,1.899-3.56,3.798-5.361,5.694
				c-1.801,1.896-3.56,3.795-5.36,5.694c5.051,1.82,10.326,3.685,15.597,5.581c-1.977,2.357-3.998,4.702-5.975,7.05
				C103.436,258.69,96.055,256.177,88.937,253.728L88.937,253.728z M125.755,248.868c2.064,0.366,4.218,0.717,6.326,1.081
				c-3.514,5.529-3.421,8.866,0.439,10.057c1.894,0.58,3.775,0.512,5.668-0.226c1.928-0.751,3.434-1.926,4.569-3.529
				c0.664-0.934,1.011-1.814,1.142-2.589c0.133-0.776-0.047-1.502-0.482-2.171c-0.443-0.681-1.691-1.957-3.736-3.917
				c-1.778-1.71-2.833-3.285-3.074-4.705c-0.243-1.411-0.003-3.08,0.746-5.001c0.744-1.908,1.88-3.868,3.472-5.81
				c1.877-2.286,3.953-4.195,6.15-5.725c2.196-1.53,4.349-2.522,6.37-2.928c2.021-0.409,3.955-0.244,5.888,0.531
				c2.9,1.163,4.415,3.181,4.613,6.027c0.197,2.839-1.011,6.307-3.69,10.374c-1.978-0.556-3.867-1.111-5.801-1.673
				c1.319-2.311,1.934-4.067,1.801-5.251c-0.13-1.163-0.873-2.045-2.241-2.561c-1.442-0.547-2.813-0.559-4.173-0.076
				c-1.363,0.488-2.511,1.319-3.427,2.482c-0.885,1.126-1.229,2.22-1.142,3.251c0.087,1.032,1.078,2.504,3.032,4.354
				c2.131,2.021,3.427,3.786,3.954,5.337c0.528,1.545,0.551,3.331,0.044,5.318c-0.503,1.972-1.541,4.213-3.251,6.704
				c-2.464,3.59-5.581,6.302-9.402,8.097c-3.867,1.823-8.038,2.058-12.566,0.718c-3.951-1.17-6.083-3.258-6.239-6.274
				c-0.153-3.004,1.45-6.985,5.01-11.882V248.868L125.755,248.868z M146.669,271.723c4.436-6.876,8.976-13.751,13.443-20.633
				c4.451-6.858,8.963-13.748,13.357-20.629c2.943,0.992,5.977,2.002,9.007,3.032c3.383,1.142,5.563,2.131,6.371,2.852
				c1.387,1.236,2.131,3.04,2.196,5.468c0.066,2.372-0.649,5.187-2.328,8.423c-1.528,2.943-3.287,5.276-5.493,6.989
				c-2.189,1.7-4.346,2.754-6.415,3.105c-2.149,0.367-5.228-0.043-9.269-1.172c-1.452-0.409-2.856-0.8-4.306-1.2
				c-1.581,2.586-3.178,5.169-4.789,7.764c-1.595,2.571-3.207,5.166-4.789,7.754C151.281,272.887,148.952,272.297,146.669,271.723
				L146.669,271.723z M174.743,239.282c-1.188,1.948-2.45,3.878-3.647,5.843c-1.176,1.93-2.373,3.896-3.516,5.844
				c1.143,0.33,2.332,0.666,3.516,1.014c2.331,0.69,4,0.995,5.095,0.897c1.057-0.092,2.141-0.543,3.165-1.297
				c1.039-0.766,1.996-1.795,2.724-3.148c0.724-1.343,1.01-2.601,1.01-3.694c0-1.099-0.223-1.929-0.835-2.485
				c-0.617-0.565-2.15-1.27-4.657-2.064C176.636,239.886,175.708,239.58,174.743,239.282L174.743,239.282z M188.802,259.279
				c1.182-2.412,2.472-4.567,3.822-6.482c1.33-1.89,2.789-3.523,4.216-4.912c2.833-2.748,5.758-4.604,8.612-5.539
				c2.857-0.937,5.738-0.91,8.919-0.103c4.552,1.16,7.784,3.737,9.533,7.926c0.887,2.119,1.406,4.509,1.363,7.199
				c-0.044,2.693-0.599,5.682-1.67,8.976c-1.081,3.322-2.487,6.216-4.262,8.647c-1.783,2.445-3.955,4.445-6.501,6.002
				c-4.526,2.769-9.767,3.762-15.466,2.772c-5.725-0.995-9.423-3.602-11.028-7.626c-0.901-2.253-1.076-4.842-0.659-7.645
				C186.1,265.678,187.174,262.607,188.802,259.279L188.802,259.279z M196.139,260.711c-1.011,2.33-1.78,4.418-2.11,6.268
				c-0.33,1.85-0.287,3.493,0.177,4.851c0.943,2.769,2.984,4.467,6.017,5.01c3.073,0.549,6.074-0.159,8.964-2.113
				c1.415-0.959,2.63-2.296,3.778-3.963c1.136-1.652,2.113-3.66,2.987-6.015c1.718-4.628,1.994-8.231,1.098-10.777
				c-0.905-2.577-2.775-4.109-5.491-4.778c-2.688-0.663-5.344-0.137-8.04,1.664c-1.39,0.928-2.665,2.198-3.911,3.829
				C198.349,256.336,197.194,258.339,196.139,260.711C196.139,260.711,196.139,260.701,196.139,260.711L196.139,260.711z
				 M223.642,287.208c1.977-6.591,3.951-13.177,5.931-19.79c1.973-6.588,3.911-13.198,5.799-19.796
				c4.922,0.873,9.843,1.636,14.895,2.412c3.822,0.586,6.573,1.411,8.084,2.32c1.564,0.947,2.811,2.259,3.647,4.079
				c0.834,1.823,1.046,3.951,0.658,6.35c-0.49,3.035-1.716,5.422-3.822,7.132c-2.11,1.709-4.964,2.628-8.347,2.686
				c1.494,1.225,2.72,2.5,3.647,3.786c0.917,1.276,2.16,3.542,3.689,6.716c1.282,2.665,2.592,5.294,4,7.95
				c-3.384-0.235-6.899-0.476-10.37-0.717c-1.625-3.02-3.049-6.091-4.482-9.181c-1.554-3.346-2.566-5.456-3.119-6.332
				c-0.545-0.861-1.218-1.536-1.89-1.905c-0.778-0.43-2.152-0.72-3.954-0.964c-0.526-0.073-1.098-0.141-1.625-0.207
				c-0.747,2.735-1.47,5.477-2.197,8.219c-0.724,2.735-1.406,5.477-2.152,8.216C229.266,287.855,226.454,287.532,223.642,287.208
				L223.642,287.208z M238.008,265.465c1.89,0.256,3.823,0.506,5.757,0.772c3.47,0.48,5.755,0.663,6.808,0.526
				c0.968-0.126,1.792-0.553,2.549-1.243c0.78-0.709,1.311-1.704,1.537-3.01c0.214-1.233,0.151-2.29-0.264-3.12
				c-0.42-0.843-1.09-1.49-2.02-1.905c-0.696-0.312-2.636-0.681-5.975-1.166c-1.934-0.281-3.868-0.565-5.757-0.839
				C239.766,258.805,238.93,262.136,238.008,265.465L238.008,265.465z M276.409,292.05c0.439-5.367,0.922-10.723,1.362-16.093
				c0.438-5.359,0.835-10.726,1.273-16.096c-3.778-0.333-7.511-0.656-11.202-0.989c0.263-2.189,0.569-4.375,0.834-6.573
				c9.71,0.897,19.507,1.389,29.349,1.704c0.043,2.174,0.043,4.353,0.088,6.524c-3.735-0.116-7.557-0.223-11.291-0.333
				c-0.309,5.352-0.528,10.704-0.791,16.053c-0.264,5.352-0.484,10.704-0.746,16.053
				C282.339,292.234,279.396,292.166,276.409,292.05L276.409,292.05z M304.086,292.716c-0.176-6.424-0.395-12.847-0.57-19.271
				c-0.175-6.436-0.352-12.866-0.572-19.292c9.182-0.266,18.366-0.547,27.503-1.145c0.352,2.186,0.705,4.375,1.054,6.57
				c-6.809,0.495-13.794,0.702-20.649,0.892c0.132,2.854,0.395,5.71,0.528,8.564c6.677-0.183,13.355-0.357,19.988-0.724
				c0.309,2.18,0.659,4.36,1.011,6.54c-6.854,0.342-13.708,0.519-20.605,0.702c0.132,1.753,0.245,3.511,0.352,5.257
				c0.109,1.75,0.177,3.505,0.352,5.251c8.041-0.183,15.994-0.376,23.902-0.818c0.351,2.183,0.659,4.363,1.053,6.543
				C326.316,292.27,315.203,292.517,304.086,292.716L304.086,292.716z M382.905,272.303c2.722,0.391,5.492,0.781,8.393,1.166
				c0.659,4.659-0.095,8.28-2.11,10.759c-2.07,2.553-5.404,3.969-9.709,4.461c-5.45,0.626-10.365-0.504-14.676-3.328
				c-2.498-1.64-4.522-3.648-6.106-6.048c-1.578-2.4-2.787-5.172-3.559-8.341c-0.81-3.34-1.118-6.381-0.965-9.119
				c0.152-2.729,0.943-5.175,2.109-7.334c1.997-3.706,5.236-5.92,9.972-6.689c3.831-0.623,7.425-0.086,10.941,1.871
				c2.501,1.395,4.965,3.746,7.202,7.074c-2.064,1.099-4.259,2.204-6.325,3.297c-1.23-2.076-2.773-3.535-4.524-4.43
				c-1.72-0.876-3.515-1.218-5.358-0.95c-2.596,0.382-4.486,1.747-5.538,4.061c-0.528,1.166-0.834,2.638-0.745,4.415
				c0.085,1.771,0.518,3.847,1.184,6.222c0.696,2.483,1.557,4.559,2.507,6.277c0.939,1.704,2.048,3.047,3.248,3.951
				c2.534,1.902,5.272,2.644,8.216,2.29c2.198-0.262,3.828-1.13,4.922-2.696c1.059-1.517,1.272-3.856,0.922-6.9V272.303
				L382.905,272.303z M403.379,284.513c-2.943-6.592-5.841-13.217-8.741-19.83c-2.9-6.61-5.801-13.232-8.701-19.851
				c2.198-0.464,4.394-0.941,6.503-1.472c2.681,5.526,5.248,11.034,7.865,16.56c2.61,5.507,5.183,11.034,7.821,16.554
				c6.28-1.234,12.474-2.571,18.538-3.887c1.319,2.286,2.55,4.57,3.868,6.848C421.7,281.261,412.651,283.038,403.379,284.513
				L403.379,284.513z M411.948,237.608c1.975-0.59,3.865-1.231,5.752-1.872c2.33,3.704,4.632,7.398,6.943,11.11
				c2.302,3.694,4.561,7.413,6.854,11.11c2.144,3.453,3.624,5.694,4.439,6.683c1.426,1.735,3.038,2.913,4.833,3.621
				c1.721,0.675,3.603,0.787,5.446,0.305c1.625-0.422,2.653-1.096,3.163-2.07c0.501-0.959,0.525-2.122,0-3.456
				c-0.528-1.337-2.189-4.085-5.007-8.17c-2.629-3.811-5.23-7.608-7.864-11.413c-2.638-3.801-5.272-7.602-7.911-11.406
				c1.848-0.617,3.648-1.224,5.45-1.838c2.635,3.618,5.257,7.248,7.864,10.857c2.617,3.627,5.252,7.214,7.908,10.854
				c2.002,2.744,3.636,5.162,4.964,7.214c1.306,2.018,2.277,3.7,2.9,5.025c1.221,2.608,1.269,4.977,0.263,7.025
				c-1.014,2.061-3.298,3.533-6.855,4.418c-3.648,0.91-7.034,1.038-9.84,0.284c-2.906-0.778-5.517-2.262-7.777-4.302
				c-1.166-1.056-2.521-2.546-3.953-4.604c-1.423-2.036-3.057-4.604-4.833-7.639c-2.132-3.633-4.204-7.257-6.329-10.869
				C416.225,244.85,414.056,241.229,411.948,237.608L411.948,237.608z M439.493,228.107c3.298-1.325,6.595-2.632,9.844-3.938
				c2.549-1.026,4.698-1.423,6.325-1.163c1.67,0.266,3.61,1.124,5.887,2.555c2.244,1.404,4.391,3.23,6.329,5.407
				c1.795,2.018,3.199,3.953,3.996,5.84c0.785,1.86,0.922,3.407,0.483,4.555c2.198,0.183,4.573,0.977,7.031,2.396
				c2.461,1.42,4.809,3.411,7.074,5.902c2.787,3.065,4.607,5.831,5.227,8.335c0.61,2.479,0.137,4.25-1.185,5.276
				c-0.919,0.714-3.731,1.765-8.351,3.132c-3.642,1.077-7.29,2.146-10.939,3.246c-5.316-6.924-10.6-13.84-15.903-20.77
				C450.026,241.971,444.766,235.032,439.493,228.107L439.493,228.107z M449.996,233.035c2.592,3.212,5.138,6.414,7.688,9.626
				c1.185-0.424,2.418-0.851,3.645-1.279c2.155-0.76,3.435-1.276,3.868-1.557c0.751-0.492,1.056-1.258,0.876-2.265
				c-0.171-0.983-0.864-2.174-2.064-3.554c-1.084-1.246-2.159-2.161-3.206-2.772c-1.062-0.614-1.935-0.922-2.681-0.898
				c-0.705,0.024-2.409,0.568-5.096,1.576C451.977,232.302,451.003,232.656,449.996,233.035L449.996,233.035z M463.176,249.576
				c1.493,1.856,3.001,3.7,4.482,5.569c1.462,1.844,2.942,3.7,4.393,5.565c1.933-0.599,3.823-1.185,5.756-1.78
				c2.46-0.76,3.975-1.386,4.436-1.915c0.418-0.479,0.439-1.264,0.177-2.271c-0.266-1.022-0.998-2.195-2.152-3.501
				c-1.215-1.38-2.415-2.43-3.648-3.148c-1.27-0.739-2.457-1.136-3.471-1.2c-1.097-0.067-2.852,0.33-5.27,1.132
				C466.299,248.556,464.758,249.06,463.176,249.576L463.176,249.576z M502.585,260.079c-6.592-6.973-13.138-13.946-19.683-20.92
				c-6.545-6.973-13.091-13.949-19.637-20.932c5.269-2.421,10.411-4.812,15.418-7.113c2.549,2.363,5.01,4.717,7.559,7.071
				c-3.823,1.691-7.822,3.395-11.776,5.135c3.032,3.096,6.063,6.185,9.053,9.281c3.996-1.624,7.907-3.224,11.729-4.793
				c2.547,2.354,5.007,4.702,7.511,7.047c-4.042,1.575-8.213,3.172-12.39,4.793c1.891,1.905,3.737,3.804,5.581,5.703
				c1.845,1.896,3.645,3.792,5.535,5.682c5.011-1.804,9.975-3.578,14.896-5.316c2.546,2.345,5.053,4.702,7.599,7.046
				C516.952,255.145,509.833,257.581,502.585,260.079L502.585,260.079z"/>
		</g>
	</g>
</g>
</svg>
