<?xml version="1.0" encoding="iso-8859-1"?>
<!-- Generator: Adobe Illustrator 23.0.1, SVG Export Plug-In . SVG Version: 6.00 Build 0)  -->
<svg version="1.1" xmlns="http://www.w3.org/2000/svg" xmlns:xlink="http://www.w3.org/1999/xlink" x="0px" y="0px"
	 viewBox="0 0 595.276 841.89" style="enable-background:new 0 0 595.276 841.89;" xml:space="preserve">
<g id="Grade" style="display:none;">
</g>
<g id="HQFL">
</g>
<g id="&#xC1;rea_de_trabalho">
</g>
<g id="Linhas-guia">
</g>
<g id="Page_1">
	<g id="HQFL_1_">
		<g>
			<path style="fill-rule:evenodd;clip-rule:evenodd;fill:#2E3192;" d="M309.851,762.019c0,0,23.93-33.465,112.473-56.237
				c96.264-24.759,156.759-56.42,162.344-136.797c6.737-96.992-51.493-141.814-51.493-231.499
				c0-69.55,40.406-110.562,40.406-110.562l-84.288-98.722l-7.066,3.93c-57.639,32.085-115.207,48.123-172.705,48.123
				s-115.066-16.038-172.705-48.123l-7.063-3.93l-84.29,98.722c0,0,41.064,41.012,41.064,110.559
				c0,89.684-58.231,134.51-51.492,231.502c5.584,80.377,66.079,112.038,162.342,136.797
				C285.921,728.554,309.851,762.019,309.851,762.019L309.851,762.019z"/>
			<path style="fill-rule:evenodd;clip-rule:evenodd;fill:#FFFFFF;" d="M142.565,522.599c-5.993-1.141-11.899-2.459-17.618-4.152
				c4.302-10.087,10.263-20.266,17.618-30.518V522.599L142.565,522.599z"/>
			<path style="fill-rule:evenodd;clip-rule:evenodd;fill:#FFFFFF;" d="M188.258,438.641c13.995-12.436,29.876-24.97,47.452-37.596
				v122.888c-16.245,1.779-32.128,2.846-47.452,2.793V438.641L188.258,438.641z"/>
			<path style="fill-rule:evenodd;clip-rule:evenodd;fill:#FFFFFF;" d="M281.404,370.356c17.577-11.094,36.38-22.247,56.237-33.451
				v169.933c-18.877,3.751-37.691,7.417-56.237,10.572V370.356L281.404,370.356z"/>
			<path style="fill-rule:evenodd;clip-rule:evenodd;fill:#FFFFFF;" d="M383.337,311.995c15.307-8.065,31.148-16.159,47.45-24.273
				v202.046c-15.651,2.307-31.507,5.096-47.45,8.114V311.995L383.337,311.995z"/>
			<path style="fill-rule:evenodd;clip-rule:evenodd;fill:#FFFFFF;" d="M476.48,265.485c15.454-7.354,31.303-14.725,47.454-22.11
				v29.46c-7.483,20.303-11.224,41.829-11.224,64.647c0,22.705,3.768,46.661,11.224,71.906v68.493
				c-1.912,1.511-3.635,3.487-5.047,6.022c-13.749-0.627-27.929-0.299-42.407,0.723V265.485L476.48,265.485z"/>
			<path style="fill-rule:evenodd;clip-rule:evenodd;fill:#FFFFFF;" d="M400.192,187.461c-5.663,2.571-11.287,5.145-16.856,7.724
				v-3.451C388.954,190.469,394.572,189.011,400.192,187.461L400.192,187.461z"/>
			<path style="fill-rule:evenodd;clip-rule:evenodd;fill:#FFFFFF;" d="M309.522,200.066c9.375,0,18.747-0.447,28.118-1.251v18.226
				c-19.528,9.65-38.311,19.381-56.237,29.206v-47.433C290.776,199.619,300.147,200.066,309.522,200.066L309.522,200.066z"/>
			<path style="fill-rule:evenodd;clip-rule:evenodd;fill:#FFFFFF;" d="M95.113,640.127c0-5.59,0-12.426,0-20.262
				c14.643,5.825,30.561,9.302,47.452,11.02v35.955C125.047,659.73,108.769,651.214,95.113,640.127L95.113,640.127z"/>
			<path style="fill-rule:evenodd;clip-rule:evenodd;fill:#FFFFFF;" d="M202.949,686.826c-4.883-1.443-9.789-2.894-14.691-4.374
				v-50.768c15.346-0.81,31.214-2.543,47.452-4.906v70.051C225.05,693.37,214.059,690.11,202.949,686.826L202.949,686.826z"/>
			<path style="fill-rule:evenodd;clip-rule:evenodd;fill:#FFFFFF;" d="M309.522,733.816c-8.167-7.269-17.665-13.411-28.118-18.789
				v-96.119c18.098-3.508,36.448-7.406,54.856-11.322c0.462-0.099,0.92-0.197,1.381-0.293v107.734
				C327.188,720.405,317.69,726.546,309.522,733.816L309.522,733.816z"/>
			<path style="fill-rule:evenodd;clip-rule:evenodd;fill:#FFFFFF;" d="M416.098,686.826c-11.108,3.283-22.099,6.544-32.761,10.003
				v-99.046c15.954-3.177,31.816-6.108,47.45-8.544v93.213C425.885,683.932,420.982,685.383,416.098,686.826L416.098,686.826z"/>
			<path style="fill-rule:evenodd;clip-rule:evenodd;fill:#FFFFFF;" d="M476.48,666.844V583.71
				c15.596-1.247,30.803-1.705,45.461-1.052c0.687,0.137,1.331,0.229,1.993,0.341v57.129
				C510.279,651.214,493.998,659.73,476.48,666.844L476.48,666.844z"/>
			<path style="fill-rule:evenodd;clip-rule:evenodd;fill:#FFFFFF;" d="M542.156,576.395c-4.104,2.578-10.591,2.959-19.466,1.155
				l-0.267-0.056l-0.138-0.008c-0.845-0.038-0.862-0.007-1.711-0.038l2.021-6.914c0.976-4.205,2.997-7.283,5.522-9.227
				c1.897-1.459,4.113-2.275,6.378-2.431c2.272-0.147,4.582,0.359,6.67,1.55c2.486,1.416,4.659,3.853,6.191,7.233
				C546.667,571.725,544.941,574.649,542.156,576.395L542.156,576.395z"/>
			<path style="fill-rule:evenodd;clip-rule:evenodd;fill:#FFFFFF;" d="M522.75,487.659c1.223-2.613,2.797-4.551,4.575-5.895
				c2.057-1.55,4.431-2.325,6.86-2.438c2.519-0.12,5.086,0.443,7.449,1.55c2.377,1.105,4.55,2.761,6.266,4.817l-0.184,73.439
				c-1.247-1.261-2.571-2.37-4.008-3.192c-3.011-1.711-6.321-2.451-9.558-2.232c-3.24,0.226-6.427,1.401-9.185,3.521
				c-0.807,0.62-1.578,1.324-2.3,2.106v-71.497L522.75,487.659L522.75,487.659z"/>
			<path style="fill-rule:evenodd;clip-rule:evenodd;" d="M163.407,182.453h0.002c13.728,0,26.19,5.596,35.219,14.623
				c9.028,9.03,14.625,21.491,14.626,35.219v0.007c0,13.725-5.598,26.188-14.628,35.211c-9.026,9.03-21.489,14.63-35.213,14.63
				h-0.005c-13.728,0-26.188-5.6-35.218-14.63c-9.027-9.026-14.625-21.487-14.626-35.211v-0.007c0-13.728,5.6-26.188,14.628-35.219
				c9.029-9.026,21.489-14.623,35.213-14.623H163.407L163.407,182.453z"/>
			<path style="fill-rule:evenodd;clip-rule:evenodd;fill:#FFFFFF;" d="M163.409,185.947h-0.002h-0.003c-4.677,0-9.194,0.7-13.457,2
				l-5.163,12.502l9.981,17.469h16.685l8.563-18.469l-3.892-11.728C172.078,186.567,167.815,185.947,163.409,185.947
				L163.409,185.947z"/>
			<path style="fill-rule:evenodd;clip-rule:evenodd;fill:#FFFFFF;" d="M128.949,201.358c-5.029,5.593-8.722,12.408-10.567,19.934
				l6.901,10.685h19.858l6.589-12.334l-10.453-18.286H128.949L128.949,201.358z"/>
			<path style="fill-rule:evenodd;clip-rule:evenodd;fill:#FFFFFF;" d="M119.336,246.639c2.226,6.804,5.987,12.922,10.872,17.944
				h14.152l7.965-15.701l-6.836-13.411h-20.034L119.336,246.639L119.336,246.639z"/>
			<path style="fill-rule:evenodd;clip-rule:evenodd;fill:#FFFFFF;" d="M151.477,277.086c3.809,1.015,7.806,1.56,11.93,1.56h0.005
				c4.355,0,8.574-0.609,12.575-1.74l4.79-11.313l-9.539-16.063h-15.333l-8.893,17.532L151.477,277.086L151.477,277.086z"/>
			<path style="fill-rule:evenodd;clip-rule:evenodd;fill:#FFFFFF;" d="M195.405,265.777c0.252-0.243,0.503-0.486,0.75-0.732
				c5.712-5.713,9.948-12.904,12.071-20.938l-5.061-8.636h-22.776l-5.814,12.844l9.419,15.863L195.405,265.777L195.405,265.777z"/>
			<path style="fill-rule:evenodd;clip-rule:evenodd;fill:#FFFFFF;" d="M208.92,223.518c-1.693-8.759-5.86-16.651-11.746-22.913
				h-13.853l-9.099,19.623l6.728,11.749h22.35L208.92,223.518L208.92,223.518z"/>
			<path style="fill-rule:evenodd;clip-rule:evenodd;fill:#FFFFFF;" d="M517.496,489.056
				c-52.843-2.208-112.186,9.576-171.301,21.347c-80.164,15.964-159.868,31.813-223.197,12.826
				c-9.679,25.164-24.693,80.588-5.399,98.197c60.395,14.51,138.455-2.057,217.59-18.891
				c62.869-13.372,126.368-26.844,182.585-25.167l-0.278-7.41V489.056L517.496,489.056z"/>
			<path style="fill-rule:evenodd;clip-rule:evenodd;fill:#FFFFFF;" d="M55.17,587.659c15.22,15.295,33.396,25.315,53.784,31.436
				c-14.593-24.34,0.523-74.709,9.159-97.358l-0.065-0.022l1.034-2.585c18.8-46.988,70.761-95.457,146.841-144.995
				c75.08-48.884,173.745-98.905,287.233-149.644l-59.868-71.79c-100.588,41.96-191.583,84.49-262.951,129.39
				c-71.51,44.988-123.276,92.305-145.152,143.738l-0.079,0.169c-13.676,26.576-24.439,53.138-30.537,79.672
				c-5.624,24.47-7.285,48.919-3.601,73.354C51.634,583.925,55.17,587.659,55.17,587.659L55.17,587.659z"/>
			<g>
				<polygon style="fill-rule:evenodd;clip-rule:evenodd;" points="111.03,407.705 138.883,381.066 145.738,388.233 128.31,404.902 
					133.45,410.28 149.577,394.857 156.12,401.697 139.994,417.122 146.303,423.715 164.22,406.578 171.465,414.154 
					143.123,441.261 111.03,407.705 				"/>
				<polygon style="fill-rule:evenodd;clip-rule:evenodd;" points="168.068,400.573 178.66,391.807 186.924,401.788 
					176.332,410.558 168.068,400.573 				"/>
				<path style="fill-rule:evenodd;clip-rule:evenodd;" d="M206.601,362.931l12.413-4.431c1.418,3.35,2.099,6.515,2.043,9.502
					c-0.056,2.99-0.81,5.765-2.263,8.336c-1.453,2.568-3.855,5.086-7.206,7.558c-4.066,2.994-7.82,4.85-11.267,5.572
					c-3.448,0.718-7.202,0.282-11.263-1.314c-4.061-1.592-7.8-4.709-11.218-9.347c-4.556-6.181-6.413-12.146-5.568-17.891
					c0.844-5.744,4.276-10.836,10.296-15.274c4.709-3.473,9.113-5.247,13.209-5.333c4.096-0.088,8.25,1.356,12.46,4.325
					l-8.577,9.833c-1.196-0.88-2.182-1.441-2.961-1.684c-1.294-0.408-2.583-0.514-3.863-0.302c-1.282,0.207-2.499,0.732-3.649,1.581
					c-2.603,1.92-3.825,4.442-3.661,7.565c0.102,2.335,1.384,5.174,3.845,8.513c3.05,4.141,5.769,6.515,8.152,7.128
					c2.384,0.609,4.71,0.077,6.98-1.592c2.201-1.624,3.409-3.469,3.622-5.536C208.339,368.07,207.832,365.668,206.601,362.931
					L206.601,362.931z"/>
				<polygon style="fill-rule:evenodd;clip-rule:evenodd;" points="226.63,356.423 238.05,348.763 245.268,359.526 233.85,367.186 
					226.63,356.423 				"/>
				<path style="fill-rule:evenodd;clip-rule:evenodd;" d="M262.981,293.603l12.358-7.441l13.013,21.61
					c2.731,4.539,4.408,8.23,5.029,11.083c0.622,2.853,0.213,5.832-1.227,8.942c-1.439,3.11-4.058,5.804-7.852,8.09
					c-4.013,2.416-7.447,3.744-10.305,3.987c-2.86,0.239-5.517-0.32-7.977-1.69c-2.46-1.363-4.724-3.522-6.793-6.466l10.817-8.688
					c1.072,1.736,2.005,2.948,2.803,3.624c0.795,0.676,1.689,1.071,2.682,1.183c0.672,0.067,1.435-0.162,2.292-0.676
					c1.358-0.817,2.047-1.93,2.066-3.332c0.019-1.398-0.699-3.311-2.157-5.734L262.981,293.603L262.981,293.603z"/>
				<path style="fill-rule:evenodd;clip-rule:evenodd;" d="M326.955,301.471l-14.168,7.945l1.704,7.826l-12.793,7.177l-7.446-49.06
					l13.772-7.724l37.81,32.032l-13.112,7.353L326.955,301.471L326.955,301.471z M319.404,294.202l-12.56-12.101l3.714,17.063
					L319.404,294.202L319.404,294.202z"/>
				<path style="fill-rule:evenodd;clip-rule:evenodd;" d="M349.872,297.583l-21.603-41.1l21.177-11.133
					c3.927-2.064,7.103-3.307,9.533-3.722c2.431-0.416,4.759-0.049,6.991,1.106c2.229,1.155,4.032,3.043,5.409,5.663
					c1.201,2.282,1.747,4.508,1.638,6.677c-0.105,2.17-0.743,4.216-1.912,6.143c-0.746,1.229-1.954,2.557-3.627,3.986
					c1.774-0.289,3.138-0.359,4.092-0.218c0.642,0.095,1.697,0.461,3.163,1.102c1.465,0.637,2.504,1.18,3.12,1.624l12.422,8.636
					l-14.369,7.551l-13.352-8.991c-1.708-1.173-3.025-1.828-3.952-1.962c-1.246-0.151-2.447,0.07-3.603,0.68l-1.116,0.588
					l8.759,16.658L349.872,297.583L349.872,297.583z M349.795,266.428l5.35-2.81c0.581-0.307,1.602-1.085,3.067-2.331
					c0.75-0.609,1.212-1.402,1.381-2.374c0.165-0.972,0.014-1.909-0.458-2.81c-0.701-1.331-1.659-2.134-2.874-2.402
					c-1.215-0.271-2.979,0.201-5.297,1.419l-5.575,2.93L349.795,266.428L349.795,266.428z"/>
				<path style="fill-rule:evenodd;clip-rule:evenodd;" d="M373.701,232.753l19.071-9.502c3.761-1.874,7.051-2.877,9.875-3.008
					c2.821-0.134,5.466,0.38,7.928,1.536c2.462,1.155,4.663,2.828,6.607,5.022c1.941,2.19,3.62,4.705,5.032,7.537
					c2.212,4.444,3.424,8.143,3.631,11.09c0.208,2.955-0.172,5.702-1.141,8.248c-0.972,2.55-2.35,4.61-4.135,6.184
					c-2.438,2.159-4.804,3.807-7.086,4.948l-19.074,9.502L373.701,232.753L373.701,232.753z M391.187,235.753l11.309,22.695
					l3.148-1.571c2.684-1.338,4.444-2.585,5.283-3.747c0.838-1.162,1.208-2.642,1.112-4.445c-0.095-1.803-0.971-4.367-2.627-7.691
					c-2.194-4.402-4.413-7.058-6.66-7.967c-2.247-0.905-5.032-0.532-8.364,1.127L391.187,235.753L391.187,235.753z"/>
				<polygon style="fill-rule:evenodd;clip-rule:evenodd;" points="419.697,210.019 432.696,203.76 452.841,245.593 
					439.846,251.852 419.697,210.019 				"/>
				<polygon style="fill-rule:evenodd;clip-rule:evenodd;" points="442.251,199.105 459.399,191.124 477.899,213.657 
					472.581,184.989 489.659,177.037 509.255,219.133 498.626,224.082 483.675,191.952 490.349,227.931 480.734,232.408 
					457.519,204.127 472.472,236.253 461.843,241.198 442.251,199.105 				"/>
			</g>
			<path style="fill-rule:evenodd;clip-rule:evenodd;fill:#FFFFFF;" d="M188.258,177.646v11.52c3.79,2.194,7.292,4.832,10.37,7.91
				c9.028,9.03,14.625,21.491,14.626,35.219v0.007c0,13.725-5.598,26.188-14.628,35.211c-3.076,3.078-6.578,5.72-10.368,7.917
				v28.774c12.337-8.928,25.459-17.751,39.332-26.478c2.661-1.676,5.404-3.339,8.12-5.008v-80.985
				C219.887,188.173,204.071,183.496,188.258,177.646L188.258,177.646z"/>
			<path style="fill-rule:evenodd;clip-rule:evenodd;fill:#FFFFFF;" d="M113.562,232.302v-0.007c0-13.728,5.6-26.188,14.628-35.219
				c4.133-4.131,9.011-7.498,14.375-9.988v-29.556c-2.744-1.402-5.489-2.8-8.233-4.268L95.113,199.2c0,16.5,0,42.35,0,73.639
				c7.482,20.307,11.223,41.829,11.223,64.644c0,16.313-1.975,33.285-5.837,50.905c11.326-16.085,25.445-31.767,42.067-47.102
				v-63.784c-5.364-2.487-10.242-5.854-14.376-9.988C119.162,258.487,113.564,246.027,113.562,232.302L113.562,232.302z"/>
			<g>
				<path style="fill-rule:evenodd;clip-rule:evenodd;" d="M128.303,555.426l23.81,1.796c5.184,0.391,8.974,1.92,11.37,4.589
					c2.395,2.666,3.422,6.279,3.078,10.841c-0.354,4.694-2.039,8.252-5.052,10.682c-3.013,2.427-7.409,3.423-13.185,2.986
					l-7.841-0.592l-1.289,17.085l-14.385-1.088L128.303,555.426L128.303,555.426z M141.195,576.289l3.515,0.265
					c2.763,0.207,4.741-0.124,5.931-0.997c1.188-0.877,1.842-2.063,1.954-3.557c0.111-1.455-0.284-2.726-1.176-3.811
					c-0.895-1.084-2.68-1.729-5.361-1.93l-4.082-0.31L141.195,576.289L141.195,576.289z"/>
				<polygon style="fill-rule:evenodd;clip-rule:evenodd;" points="173.432,557.912 187.729,557.229 189.402,592.124 
					211.803,591.05 212.354,602.531 175.656,604.292 173.432,557.912 				"/>
				<path style="fill-rule:evenodd;clip-rule:evenodd;" d="M249.018,590.465l-16.112,2.032l-1.367,7.896l-14.552,1.835
					l11.552-48.257l15.665-1.975l22.987,43.9l-14.915,1.881L249.018,590.465L249.018,590.465z M244.757,580.893l-7.086-15.94
					l-2.978,17.208L244.757,580.893L244.757,580.893z"/>
				<polygon style="fill-rule:evenodd;clip-rule:evenodd;" points="265.321,549.027 278.512,546.516 300.578,568.513 
					295.766,543.23 309.052,540.702 317.731,586.317 304.449,588.845 282.503,566.963 287.289,592.11 274.003,594.638 
					265.321,549.027 				"/>
				<path style="fill-rule:evenodd;clip-rule:evenodd;" d="M353.106,570.883l-15.919,3.227l-0.774,7.976l-14.377,2.913l7.932-48.982
					l15.475-3.138l26.189,42.068l-14.732,2.986L353.106,570.883L353.106,570.883z M348.143,561.653l-8.251-15.366l-1.69,17.384
					L348.143,561.653L348.143,561.653z"/>
				<polygon style="fill-rule:evenodd;clip-rule:evenodd;" points="367.837,528.491 381.932,526.001 388.007,560.406 
					410.093,556.507 412.09,567.827 375.909,574.215 367.837,528.491 				"/>
				<polygon style="fill-rule:evenodd;clip-rule:evenodd;" points="405.095,521.852 448.263,515.636 449.904,527.011 435.401,529.1 
					440.381,563.681 426.216,565.72 421.236,531.143 406.732,533.231 405.095,521.852 				"/>
				<path style="fill-rule:evenodd;clip-rule:evenodd;" d="M454.849,537.999c-0.599-7.557,1.046-13.604,4.935-18.147
					c3.888-4.544,9.601-7.114,17.137-7.71c7.724-0.609,13.838,0.99,18.342,4.794c4.505,3.807,7.055,9.435,7.642,16.884
					c0.427,5.409-0.137,9.917-1.686,13.523c-1.554,3.607-3.98,6.512-7.277,8.71c-3.3,2.197-7.522,3.501-12.672,3.905
					c-5.234,0.412-9.632-0.073-13.192-1.465c-3.561-1.391-6.551-3.804-8.964-7.234C456.697,547.83,455.274,543.409,454.849,537.999
					L454.849,537.999z M469.119,536.925c0.373,4.689,1.515,7.984,3.431,9.893c1.916,1.909,4.381,2.743,7.402,2.504
					c3.103-0.243,5.424-1.436,6.967-3.575c1.542-2.141,2.109-5.807,1.701-10.998c-0.346-4.367-1.486-7.491-3.42-9.365
					c-1.938-1.877-4.424-2.694-7.463-2.454c-2.912,0.232-5.17,1.441-6.773,3.627C469.362,528.744,468.746,532.202,469.119,536.925
					L469.119,536.925z"/>
			</g>
		</g>
	</g>
</g>
</svg>
