<?xml version="1.0" encoding="iso-8859-1"?>
<!-- Generator: Adobe Illustrator 23.0.1, SVG Export Plug-In . SVG Version: 6.00 Build 0)  -->
<svg version="1.1" xmlns="http://www.w3.org/2000/svg" xmlns:xlink="http://www.w3.org/1999/xlink" x="0px" y="0px"
	 viewBox="0 0 595.276 841.89" style="enable-background:new 0 0 595.276 841.89;" xml:space="preserve">
<g id="Grade" style="display:none;">
</g>
<g id="HQFL">
</g>
<g id="&#xC1;rea_de_trabalho">
</g>
<g id="Linhas-guia">
</g>
<g id="Page_1">
	<g id="HQFL_1_">
		<g>
			<polygon style="fill-rule:evenodd;clip-rule:evenodd;" points="583.546,191.23 583.546,413.012 311.709,724.521 39.147,413.018 
				39.147,191.23 583.546,191.23 			"/>
			<polygon style="fill-rule:evenodd;clip-rule:evenodd;fill:#FFFFFF;" points="567.181,207.595 55.513,207.595 55.513,406.952 
				311.692,699.734 567.181,406.959 567.181,207.595 			"/>
			<polygon style="fill-rule:evenodd;clip-rule:evenodd;" points="78.874,234.1 544.529,234.1 544.529,396.961 78.874,396.961 
				78.874,234.1 			"/>
			<polygon style="fill-rule:evenodd;clip-rule:evenodd;fill:#ED1C24;" points="102.908,427.12 265.136,427.12 265.136,612.602 
				102.908,427.12 			"/>
			<polygon style="fill-rule:evenodd;clip-rule:evenodd;" points="520.495,427.12 358.267,427.12 358.267,612.602 520.495,427.12 
							"/>
			<path style="fill-rule:evenodd;clip-rule:evenodd;fill:#FFFFFF;" d="M106.887,373.19l-0.02-114.043h84.585v19.294H129.91v25.277
				h57.259v19.23H129.91v31.033h63.717v19.209H106.887L106.887,373.19z M286.142,331.248l22.317,7.1
				c-3.415,12.445-9.109,21.695-17.058,27.721c-7.948,6.044-18.072,9.069-30.306,9.069c-15.152,0-27.615-5.179-37.345-15.506
				c-9.751-10.352-14.637-24.512-14.637-42.441c0-18.979,4.907-33.741,14.699-44.238c9.813-10.497,22.71-15.754,38.67-15.754
				c13.955,0,25.297,4.12,34.012,12.36c5.176,4.886,9.067,11.907,11.655,21.012l-22.793,5.445
				c-1.345-5.899-4.179-10.579-8.444-13.994c-4.264-3.418-9.48-5.133-15.588-5.133c-8.446,0-15.319,3.041-20.578,9.088
				c-5.258,6.065-7.908,15.917-7.908,29.496c0,14.411,2.608,24.699,7.784,30.807c5.176,6.129,11.944,9.19,20.225,9.19
				c6.127,0,11.407-1.945,15.796-5.839c4.409-3.89,7.594-10.019,9.499-18.362V331.248L286.142,331.248z M322.415,336.073l22.4-2.154
				c1.344,7.514,4.099,13.044,8.198,16.562c4.12,3.518,9.707,5.3,16.704,5.3c7.411,0,13.001-1.573,16.749-4.698
				c3.767-3.149,5.651-6.834,5.651-11.036c0-2.692-0.787-4.991-2.359-6.873c-1.573-1.885-4.368-3.54-8.301-4.949
				c-2.692-0.91-8.843-2.589-18.446-4.967c-12.34-3.065-21.012-6.831-25.982-11.283c-6.997-6.274-10.493-13.934-10.493-22.957
				c0-5.796,1.654-11.241,4.928-16.293c3.291-5.049,8.052-8.921,14.241-11.553c6.189-2.65,13.686-3.975,22.461-3.975
				c14.305,0,25.089,3.149,32.314,9.402c7.224,6.274,11.035,14.677,11.407,25.15l-23.039,0.996
				c-0.974-5.839-3.107-10.062-6.334-12.629c-3.231-2.565-8.116-3.848-14.596-3.848c-6.686,0-11.946,1.386-15.712,4.12
				c-2.444,1.757-3.666,4.138-3.666,7.079c0,2.692,1.161,5.009,3.436,6.912c2.898,2.441,9.959,4.988,21.157,7.62
				c11.202,2.647,19.502,5.402,24.862,8.216c5.36,2.816,9.587,6.71,12.608,11.595c3.023,4.886,4.553,10.972,4.553,18.178
				c0,6.519-1.821,12.645-5.445,18.337c-3.642,5.717-8.796,9.959-15.418,12.736c-6.625,2.771-14.929,4.159-24.823,4.159
				c-14.408,0-25.483-3.334-33.206-9.998c-7.723-6.667-12.357-16.377-13.848-29.128V336.073L322.415,336.073z M434.534,373.19
				l-0.019-114.043h36.972c13.993,0,23.123,0.581,27.389,1.718c6.518,1.697,12.006,5.445,16.392,11.156
				c4.41,5.717,6.627,13.147,6.627,22.213c0,6.996-1.285,12.896-3.81,17.657c-2.527,4.762-5.776,8.531-9.687,11.241
				c-3.914,2.713-7.907,4.534-11.942,5.402c-5.487,1.077-13.459,1.64-23.892,1.64h-15.011v43.016H434.534L434.534,373.19z
				 M457.554,278.42v32.377h12.608c9.069,0,15.135-0.599,18.198-1.779c3.061-1.204,5.464-3.086,7.203-5.615
				c1.739-2.522,2.607-5.505,2.607-8.857c0-4.138-1.219-7.575-3.643-10.267c-2.44-2.692-5.548-4.41-9.274-5.07
				c-2.731-0.499-8.279-0.768-16.58-0.768L457.554,278.42L457.554,278.42z"/>
		</g>
	</g>
</g>
</svg>
