<?xml version="1.0" encoding="iso-8859-1"?>
<!-- Generator: Adobe Illustrator 23.0.1, SVG Export Plug-In . SVG Version: 6.00 Build 0)  -->
<svg version="1.1" xmlns="http://www.w3.org/2000/svg" xmlns:xlink="http://www.w3.org/1999/xlink" x="0px" y="0px"
	 viewBox="0 0 595.276 841.89" style="enable-background:new 0 0 595.276 841.89;" xml:space="preserve">
<g id="Grade" style="display:none;">
</g>
<g id="HQFL">
</g>
<g id="&#xC1;rea_de_trabalho">
</g>
<g id="Linhas-guia">
</g>
<g id="Page_1">
	<g id="HQFL_1_">
		<g>
			<path style="fill-rule:evenodd;clip-rule:evenodd;fill:#034EA2;" d="M10.533,422.887c0,157.664,128.271,285.939,285.938,285.939
				c157.663,0,285.939-128.276,285.939-285.939c0-157.666-128.275-285.937-285.939-285.937
				C138.804,136.951,10.533,265.221,10.533,422.887L10.533,422.887z"/>
			<path style="fill-rule:evenodd;clip-rule:evenodd;fill:#FFFFFF;" d="M18.033,422.887c0,153.533,124.907,278.439,278.438,278.439
				c153.532,0,278.439-124.906,278.439-278.439c0-153.53-124.906-278.437-278.439-278.437
				C142.94,144.45,18.033,269.358,18.033,422.887L18.033,422.887z"/>
			<path style="fill-rule:evenodd;clip-rule:evenodd;fill:#034EA2;" d="M86.47,422.887c0,115.799,94.206,210.002,210,210.002
				c115.798,0,210.001-94.203,210.001-210.002c0-115.793-94.203-209.999-210.001-209.999
				C180.677,212.888,86.47,307.094,86.47,422.887L86.47,422.887z"/>
			<path style="fill-rule:evenodd;clip-rule:evenodd;fill:#FFFFFF;" d="M93.97,422.887c0-111.659,90.84-202.499,202.5-202.499
				c111.659,0,202.501,90.84,202.501,202.499c0,111.66-90.842,202.502-202.501,202.502C184.811,625.389,93.97,534.547,93.97,422.887
				L93.97,422.887z"/>
			<path style="fill-rule:evenodd;clip-rule:evenodd;fill:#034EA2;" d="M415.872,428.348c-4.71-7.302-10.716-11.942-18.018-13.923
				c6.174-4.025,10.803-9.093,13.887-15.202c3.083-6.108,4.629-13.26,4.629-21.453c0-10.781-3.076-19.039-9.228-24.774
				s-14.964-8.603-26.448-8.603h-19.329c0.293-3.094,0.439-7.093,0.439-12.041c0-8.555-0.52-15.051-1.545-19.504
				c-1.026-4.448-2.842-8.095-5.435-10.952c-4.329-4.79-9.03-8.384-14.114-10.781c-5.082-2.393-10.656-3.594-16.713-3.594
				c-10.41,0-19.35,4.596-26.842,13.744c-2.099-2.172-4.488-3.853-8.364-6.182c-7.178-4.314-13.266-6.184-20.927-6.184
				c-10.906,0-24.055,7.804-32.8,17.179c-7.672,8.223-15.581,22.844-21.343,38.314h-34.219c-2.409,0-4.178,0.528-5.313,1.582
				c-1.135,1.055-1.703,2.699-1.703,4.94c0,2.582,0.996,4.79,2.996,6.625c0.275,0.271,0.516,0.509,0.721,0.714
				c1.102,1.157,1.772,2.142,2.014,2.955c0.242,0.813,0.362,2.106,0.362,3.871v109.122v1.025c0,2.321-0.223,3.926-0.666,4.812
				c-0.443,0.886-1.348,1.81-2.71,2.761c-1.706,1.23-2.783,2.352-3.226,3.377c-0.443,1.026-0.663,2.358-0.663,3.992
				c0,1.846,0.425,3.244,1.274,4.196c0.85,0.96,2.124,1.435,3.823,1.435h32.585c2.946,8.913,6.255,14.619,11.664,22.559
				c4.966,7.221,10.371,12.612,16.208,16.165c5.837,3.552,12.319,5.332,19.453,5.332c5.552,0,10.759-1.1,15.631-3.297
				c3.696,3.538,7.678,6.549,10.912,8.629c11.986,7.697,26.825,8.584,34.524,8.584c35.428,0,61.319-24.814,64.834-57.972h1.941
				c12.275,0,21.805-3.721,28.594-11.155c6.782-7.441,10.174-17.849,10.174-31.224C422.933,444.007,420.581,435.65,415.872,428.348
				L415.872,428.348z M390.391,365.019c3.099,2.97,4.651,8.071,4.651,15.304c0,8.664-6.754,15.71-12.752,21.138
				c-5.698,5.16-23.592,8.199-34.365,9.129c-0.278-0.242-0.556-0.479-0.893-0.75c-0.241-0.198-0.491-0.374-0.739-0.557v-41.755
				c0-2.864,0.512-4.743,1.537-5.629c1.018-0.886,3.779-1.333,8.284-1.333h17.659C381.748,360.566,387.285,362.053,390.391,365.019
				L390.391,365.019z M346.292,450.258c4.467,5.006,11.469,13.867,12.67,30.119c-1.215-0.029-2.387-0.044-3.457-0.044
				c-4.094,0-6.657-0.513-7.676-1.538c-1.026-1.026-1.537-3.377-1.537-7.068V450.258L346.292,450.258z M325.278,308.608
				c4.761,0,8.921,1.91,12.495,5.727c3.567,3.82,6.54,9.492,8.921,17.014c0.542,1.375,1.135,3.369,1.787,5.991
				c0.645,2.465,1.31,4.856,1.992,7.053h-22.772c-3.105,0-5.31,0.615-6.628,1.843c-1.311,1.23-1.97,3.277-1.97,6.141
				c0,2.732,1.377,5.087,4.137,7.065c0.74,0.545,1.348,0.989,1.816,1.329c0.469,0.41,0.806,1.128,1.011,2.15
				c0.197,1.025,0.301,2.559,0.301,4.607v32.67c-9.156-3.794-14.376-6.808-18.814-9.327c-8.709-4.948-15.646-15.615-11.883-39.716
				c1.406,7.987,3.497,11.986,6.288,11.986c1.728,0,3.032-1.289,3.897-3.882c0.864-2.585,1.296-6.467,1.296-11.653
				c0-16.172-0.329-22.939-0.974-27.795c-0.01-0.092-0.033-0.168-0.044-0.26C310.328,313.786,316.79,308.608,325.278,308.608
				L325.278,308.608z M195.689,373.885c0-6.006,0.564-9.844,1.692-11.514c1.128-1.67,3.296-2.509,6.508-2.509h4.975
				c-2.303,8.69-4.122,17.673-5.443,26.957c-0.841,5.877-1.465,11.902-1.908,18.043h-5.823V373.885L195.689,373.885z
				 M197.022,477.872c-0.89-1.018-1.333-3.083-1.333-6.204V422.91h5.111c-0.011,1.069-0.053,2.12-0.053,3.197
				c0,19.27,0.619,37.022,3.971,53.289h-1.445C199.992,479.396,197.908,478.891,197.022,477.872L197.022,477.872z M255.034,518.764
				c-10.126,0-18.34-7.721-24.697-22.962h24.613c0.055,5.391,1.062,11.579,3.061,18.597c0.581,2.035,1.02,3.369,1.427,4.416
				C257.888,518.852,256.425,518.764,255.034,518.764L255.034,518.764z M351.067,515.643
				c-11.631,15.887-25.358,17.314-33.033,17.314c-10.299,0-21.135-2.386-29.63-9.514c3.919-4.746,7.546-10.51,10.875-17.336
				c1.94-3.984,3.428-7.801,4.453-11.463c1.026-3.662,1.545-6.994,1.545-10.012c0-3.443-0.549-6.35-1.633-8.724
				c-1.084-2.366-2.337-3.552-3.75-3.552c-1.963,0-4.57,5.91-7.829,12.605c-1.304,2.593-2.336,4.541-3.098,5.837
				c-3.16,6.08-7.602,12.518-11.263,17.051c-1.025-2.52-1.963-5.222-2.811-8.122c-0.44-1.94-1.143-4.798-2.124-8.561
				c-1.776-7.691-3.761-12.517-5.954-14.524c0.081-2.183,0.124-4.564,0.124-7.178c0-2.175-0.479-3.882-1.432-5.105
				c-0.956-1.224-2.219-1.839-3.787-1.839c-2.252,0-4.537,1.999-6.855,5.999c-1.091,1.897-1.945,3.186-2.556,3.859
				c-2.457,2.578-5.068,4.387-7.83,5.441c-2.761,1.048-7.145,1.575-13.144,1.575h-6.337c-3.832-15.388-5.812-34.217-5.94-56.486
				h13.2c3.212,0,6.185,1.136,8.918,3.398c2.732,2.267,4.544,3.398,5.435,3.398c1.912,0,3.277-0.718,4.098-2.161
				c0.82-1.439,1.231-3.874,1.231-7.301v-13.022c0-2.6-0.461-4.622-1.384-6.061c-0.923-1.435-2.204-2.157-3.841-2.157
				c-1.641,0-3.384,0.996-5.23,2.981c-0.615,0.689-1.095,1.168-1.435,1.439c-0.615,0.41-1.575,0.755-2.871,1.029
				c-1.297,0.275-2.802,0.41-4.508,0.41h-13.118c1.062-17.483,3.789-32.468,7.3-44.963c4.938,0.092,9.033,0.575,12.186,1.498
				c3.49,1.025,6.193,2.662,8.111,4.914c0.82,0.886,1.846,2.183,3.08,3.889c2.805,3.889,5.233,5.833,7.288,5.833
				c1.297,0,2.256-0.644,2.871-1.937c0.615-1.293,0.926-3.3,0.926-6.024c0-10.137-0.755-16.618-2.263-19.442
				c-1.509-2.824-5.522-4.238-12.034-4.238h-14.939c7.116-16.642,21.455-35.271,31.307-35.271c6.592,0,14.281,1.621,19.525,8.374
				c0.943,1.214,1.824,2.53,2.673,3.893c-6.225,14.191-10.675,31.15-10.675,50.981c0,11.883,2.868,25.562,7.639,33.259
				c5.455,8.8,12.517,16.735,24.4,22.477c7.579,3.662,6.999,3.277,14.801,6.05c1.517,0.542,2.593,0.975,3.245,1.201
				c0.49,0.188,0.929,0.345,1.377,0.51v32.792c0,2.791-0.184,5.141-0.557,7.046c-0.374,1.904-0.96,3.164-1.773,3.772
				c-0.205,0.27-0.57,0.615-1.113,1.018c-3.171,2.791-4.76,5.647-4.76,8.569c0,2.109,0.593,3.765,1.772,4.951
				c1.187,1.195,2.857,1.787,5.018,1.787h33.742C357.959,502.819,356.025,508.875,351.067,515.643L351.067,515.643z
				 M393.877,473.214c-3.024,2.894-7.067,4.643-11.491,5.706c-1.692-27.934-10.973-43.212-18.729-52.137
				c4.16-0.549,8.664-1.204,11.309-1.97c6.072,1.366,13.125,1.864,21.563,10.306c4.072,4.068,5.076,9.36,5.076,16.53
				C401.604,461.284,398.938,468.373,393.877,473.214L393.877,473.214z"/>
			<path style="fill-rule:evenodd;clip-rule:evenodd;fill:#034EA2;" d="M150.188,590.643c-4.389,0.184-7.841,1.862-10.258,4.996
				c-2.217,2.871-2.875,6.254-1.956,10.062c0.877,3.641,3.477,8.284,7.727,13.792c3.016,3.911,4.788,6.826,5.272,8.672
				c0.583,2.315,0.249,4.248-1.018,5.896c-1.42,1.832-3.437,2.762-6.173,2.82c-2.772,0.067-5.723-1.098-8.774-3.457
				c-2.193-1.685-3.766-3.537-4.676-5.486c-0.915-1.955-1.342-3.962-1.267-5.961c0.002,0,1.325-5.354,1.325-5.354l-0.687-0.425
				l-6.304-2.791l-0.355,0.916c-1.047,2.725-1.54,5.178-1.463,7.303c0.097,3.069,0.977,6.13,2.618,9.082
				c1.635,2.936,3.948,5.566,6.874,7.829c4.702,3.626,9.45,5.405,14.113,5.288c4.739-0.125,8.465-1.896,11.073-5.281
				c2.329-3.017,3.191-6.394,2.56-10.033c-0.655-3.567-3.109-8.057-7.502-13.748c-3.468-4.497-5.402-7.837-5.748-9.917
				c-0.364-1.999-0.055-3.589,0.932-4.87c1.248-1.619,3.023-2.44,5.425-2.498c2.446-0.066,4.958,0.879,7.467,2.813
				c2.377,1.831,3.99,4.014,4.796,6.475c0.806,2.469,0.718,5.002-0.273,7.742l-0.308,0.842l7.031,2.871l0.33-0.923
				c0.862-2.409,1.229-4.665,1.091-6.716c-0.201-2.938-1.124-5.771-2.739-8.408c-1.595-2.601-3.697-4.915-6.248-6.885
				C158.854,592.028,154.518,590.467,150.188,590.643L150.188,590.643z"/>
			<path style="fill-rule:evenodd;clip-rule:evenodd;fill:#034EA2;" d="M210.53,633.336c-0.584-3.098-1.869-6.064-3.821-8.811
				c-1.959-2.762-4.698-5.047-8.139-6.79c-3.94-1.999-8.111-2.893-12.396-2.666c-4.319,0.234-8.428,1.882-12.217,4.899
				c-3.742,2.981-6.802,6.783-9.093,11.302c-3.651,7.207-4.419,14.319-2.283,21.138c1.855,5.845,5.772,10.32,11.648,13.293
				c1.772,0.895,3.968,1.598,6.524,2.08c2.587,0.498,5.164,0.514,7.657,0.052c1.89-0.345,3.97-1.062,6.176-2.139
				c2.214-1.077,4.475-2.702,6.722-4.827c2.248-2.123,4.277-4.958,6.026-8.401c1.594-3.149,2.684-6.387,3.237-9.609
				C211.121,639.614,211.109,636.413,210.53,633.336L210.53,633.336z M200.214,649.142c-2.99,5.903-6.727,9.704-11.106,11.294
				c-4.42,1.604-8.522,1.392-12.537-0.644c-3.737-1.89-6.156-4.951-7.399-9.367c-1.238-4.381-0.29-9.705,2.813-15.828
				c3.143-6.211,6.947-10.203,11.299-11.865c4.385-1.67,8.382-1.531,12.219,0.41c3.95,2,6.388,4.893,7.458,8.848
				C204.319,637.094,203.396,642.866,200.214,649.142L200.214,649.142z"/>
			<path style="fill-rule:evenodd;clip-rule:evenodd;fill:#034EA2;" d="M252.333,644.139c-1.028-2.754-2.881-5.148-5.512-7.103
				c-2.571-1.912-6.255-3.619-10.95-5.062l-17.027-5.23l-0.276,0.894l-14.973,48.728l6.943,2.139c0,0,6.14-19.973,6.644-21.621
				c1.52,0.462,12.269,3.772,13.177,4.051c0.226,1.018,5.674,25.4,5.674,25.4l7.459,2.293c0,0-5.482-25.078-5.901-27.005
				c3.813-0.052,7.07-0.726,9.511-2.204c2.757-1.663,4.618-4.021,5.531-6.995c0.343-1.113,0.527-2.233,0.555-3.369
				C253.228,647.428,252.943,645.78,252.333,644.139L252.333,644.139z M245.164,650.006c-0.513,1.67-1.406,2.951-2.735,3.911
				c-1.313,0.952-2.944,1.429-4.85,1.406c-2.846,0.007-5.616-0.395-8.247-1.201c0,0-8.808-2.71-10.325-3.171
				c0.474-1.539,4.488-14.605,4.96-16.136c1.557,0.476,12.197,3.75,12.197,3.75c3.895,1.195,6.583,2.864,7.993,4.958
				C245.543,645.582,245.873,647.7,245.164,650.006L245.164,650.006z"/>
			<path style="fill-rule:evenodd;clip-rule:evenodd;fill:#034EA2;" d="M297.745,659.008c-0.688-3.209-1.889-6.182-3.57-8.826
				c-1.694-2.658-3.988-4.937-6.821-6.76c-2.844-1.839-6.233-2.945-10.078-3.281c-4.4-0.389-8.606,0.322-12.499,2.131
				c-3.918,1.817-7.123,4.871-9.525,9.082c-2.369,4.152-3.797,8.826-4.245,13.872c-0.714,8.042,1.212,14.935,5.726,20.472
				c3.895,4.738,9.194,7.434,15.753,8.02c1.977,0.176,4.275,0.008,6.832-0.49c2.58-0.498,4.977-1.443,7.126-2.806
				c1.617-1.003,3.281-2.438,4.943-4.27c1.657-1.824,3.155-4.174,4.447-6.979c1.304-2.813,2.135-6.189,2.475-10.034
				C298.62,665.614,298.43,662.208,297.745,659.008L297.745,659.008z M290.465,668.69c-0.586,6.592-2.644,11.507-6.118,14.612
				c-3.506,3.128-7.392,4.46-11.881,4.057c-4.169-0.366-7.555-2.314-10.349-5.955c-2.775-3.603-3.873-8.898-3.267-15.739
				c0.617-6.937,2.666-12.056,6.09-15.212c3.449-3.172,7.209-4.534,11.497-4.153c4.409,0.388,7.749,2.168,10.209,5.442
				C289.8,655.983,291.087,661.681,290.465,668.69L290.465,668.69z"/>
			<path style="fill-rule:evenodd;clip-rule:evenodd;fill:#034EA2;" d="M320.312,639.686c-4.321,0.447-8.18,1.941-11.461,4.446
				c-3.303,2.513-5.705,6.065-7.149,10.554c-1.421,4.439-1.89,9.141-1.388,13.982c0.568,5.435,2.109,10.158,4.589,14.048
				c2.505,3.911,5.658,6.768,9.373,8.496c3.706,1.721,7.728,2.373,11.953,1.94c3.493-0.365,6.767-1.449,9.741-3.215
				c2.981-1.772,5.42-4.16,7.251-7.082c1.399-2.234,2.409-5.047,3.025-8.365l0.183-1.025l-7.713-0.6l-0.139,0.85
				c-0.418,2.461-0.996,4.394-1.729,5.734c-1.128,2.11-2.658,3.823-4.556,5.09c-1.911,1.275-4.145,2.051-6.65,2.308
				c-4.153,0.433-7.676-0.718-10.781-3.501c-3.759-3.436-6.033-8.716-6.755-15.703c-0.703-6.746,0.433-12.195,3.365-16.201
				c2.414-3.267,5.668-5.068,9.93-5.508c3.099-0.322,5.941,0.293,8.445,1.824c2.512,1.523,4.533,4.109,6.014,7.668l0.307,0.747
				l7.449-1.86l-0.395-0.996c-1.194-3.025-2.725-5.493-4.548-7.346c-2.461-2.52-5.215-4.315-8.196-5.34
				C327.513,639.614,324.092,639.291,320.312,639.686L320.312,639.686z"/>
			<path style="fill-rule:evenodd;clip-rule:evenodd;fill:#034EA2;" d="M362.412,631.842l-0.638,0.184l-8.773,2.555l-3.333,55.042
				l7.112-2.08c0,0,0.922-15.183,0.996-16.399c1.156-0.337,18.91-5.508,20.075-5.845c0.71,0.988,9.573,13.322,9.573,13.322
				l7.097-2.064L362.412,631.842L362.412,631.842z M358.208,663.944c0.132-2.175,1.201-19.885,1.45-23.979
				c2.396,3.324,12.73,17.725,13.989,19.482C371.618,660.04,360.244,663.351,358.208,663.944L358.208,663.944z"/>
			<path style="fill-rule:evenodd;clip-rule:evenodd;fill:#034EA2;" d="M432.249,641.694c-1.201-2.373-3.274-4.205-6.168-5.435
				c-2.357-0.996-5.258-1.311-8.547-1.091c1.721-2.241,2.996-4.476,3.457-6.651c0.205-0.96,0.308-1.89,0.308-2.783
				c0-1.714-0.374-3.304-1.106-4.753c-1.64-3.245-4.717-5.302-9.141-6.123c-4.336-0.799-9.558,0.322-15.519,3.347l-17.769,8.987
				l23.438,46.318l18.655-9.441c5.873-2.967,9.865-6.629,11.858-10.877C433.743,648.864,433.919,644.996,432.249,641.694
				L432.249,641.694z M387.102,629.557c1.457-0.74,11.565-5.852,11.565-5.852c3.817-1.934,7.061-2.674,9.624-2.19
				c2.505,0.469,4.189,1.604,5.134,3.486c0.439,0.872,0.667,1.765,0.667,2.702c0,1.217-0.374,2.506-1.128,3.883
				c-1.362,2.512-4.93,5.244-10.606,8.115c0,0-6.688,3.376-8.057,4.072C393.584,642.36,387.819,630.971,387.102,629.557
				L387.102,629.557z M425.078,650.981c-1.56,3.105-4.307,5.668-8.159,7.617c0,0-10.576,5.353-12.041,6.094
				c-0.725-1.435-7.053-13.939-7.778-15.374c1.442-0.726,10.649-5.391,10.657-5.391c2.746-1.392,5.404-2.292,7.888-2.681
				c2.402-0.373,4.424-0.22,6.006,0.469c1.567,0.681,2.681,1.707,3.398,3.135c0.527,1.047,0.791,2.072,0.791,3.097
				C425.84,648.959,425.591,649.962,425.078,650.981L425.078,650.981z"/>
			<path style="fill-rule:evenodd;clip-rule:evenodd;fill:#034EA2;" d="M430.872,595.763l-0.535,0.395l-7.339,5.457l16.069,52.748
				l5.939-4.424c0,0-4.431-14.552-4.782-15.717c0.967-0.719,15.806-11.756,16.781-12.48c1.01,0.687,13.607,9.154,13.607,9.154
				l5.941-4.408L430.872,595.763L430.872,595.763z M438.122,627.323c-0.637-2.087-5.808-19.057-7.002-22.982
				c3.406,2.292,18.105,12.172,19.9,13.389C449.329,618.989,439.821,626.056,438.122,627.323L438.122,627.323z"/>
			<path style="fill-rule:evenodd;clip-rule:evenodd;fill:#034EA2;" d="M81.453,462.293l-5.516,1.59c0,0,8.042,27.92,8.529,29.619
				c-1.547,0.447-15.231,4.387-16.78,4.834c-0.473-1.648-5.805-20.164-5.805-20.164l-6.42,1.854c0,0,5.334,18.516,5.806,20.156
				c-1.503,0.432-12.459,3.589-13.963,4.022c-0.484-1.685-7.784-27.027-7.784-27.027l-6.307,1.817l9.828,34.124l49.887-14.37
				l-10.575-36.709L81.453,462.293L81.453,462.293z"/>
			<path style="fill-rule:evenodd;clip-rule:evenodd;fill:#034EA2;" d="M64.544,419.467c-3.783,0.286-6.861,1.952-9.146,4.947
				c-2.238,2.963-3.938,7.947-5.202,15.234c-1.001,5.783-2.177,9.577-3.496,11.287c-1.24,1.655-2.631,2.515-4.261,2.64
				c-2.014,0.153-3.796-0.652-5.454-2.458c-1.692-1.842-2.677-4.439-2.926-7.72c-0.234-3.112,0.298-5.866,1.584-8.185
				c1.271-2.292,3.267-4.017,5.931-5.127l0.815-0.337l-2.573-7.391l-0.921,0.389c-2.366,1-4.29,2.277-5.722,3.801
				c-2.043,2.188-3.518,4.846-4.383,7.903c-0.857,3.021-1.165,6.236-0.914,9.559c0.417,5.496,2.168,9.909,5.206,13.112
				c3.089,3.259,6.648,4.768,10.579,4.467c3.622-0.27,6.577-2.102,8.787-5.427c2.147-3.224,3.796-8.274,5.041-15.445
				c0.87-5.017,1.842-8.396,2.893-10.045c1.35-2.051,3.025-3.131,5.112-3.288c2.32-0.176,4.369,0.736,6.266,2.794
				c1.926,2.084,3.056,5.153,3.356,9.122c0.216,2.853-0.106,5.336-0.956,7.379c-0.85,2.048-2.076,3.758-3.646,5.08
				c-0.941,0.783-2.355,1.553-4.199,2.285l-0.811,0.322l2.419,7.641l0.933-0.366c2.723-1.07,4.871-2.38,6.387-3.911
				c2.223-2.176,3.904-4.96,4.99-8.256c1.079-3.271,1.48-6.856,1.192-10.653c-0.461-6.105-2.324-10.972-5.537-14.473
				C72.617,420.786,68.801,419.145,64.544,419.467L64.544,419.467z"/>
			<path style="fill-rule:evenodd;clip-rule:evenodd;fill:#034EA2;" d="M57.974,401.501c0.216-1.589,1.553-11.371,1.553-11.371
				c0.287-2.099,0.43-4.04,0.43-5.812c0-1.392-0.088-2.68-0.267-3.856c-0.407-2.674-1.139-5.065-2.174-7.112
				c-1.051-2.087-2.388-3.765-3.971-4.988c-1.604-1.234-3.554-2.018-5.793-2.326c-3.893-0.527-7.542,0.868-10.847,4.149
				c-3.241,3.219-5.35,8.269-6.271,15.011l-2.688,19.651l51.436,7.031l1.001-7.317C80.382,404.563,59.68,401.736,57.974,401.501
				L57.974,401.501z M53.312,389.739c0,0-1.293,9.456-1.509,11.038c-1.587-0.22-15.132-2.069-16.719-2.285
				c0.212-1.563,1.401-10.254,1.401-10.254c0.694-5.064,1.804-8.686,3.301-10.763c1.906-2.593,4.217-3.669,7.061-3.278
				c2.498,0.341,4.327,1.633,5.596,3.952c0.839,1.531,1.258,3.687,1.258,6.449C53.7,386.128,53.57,387.845,53.312,389.739
				L53.312,389.739z"/>
			<path style="fill-rule:evenodd;clip-rule:evenodd;fill:#034EA2;" d="M95.792,331.295c-0.501-1.886-1.412-3.933-2.699-6.076
				c-1.291-2.142-3.124-4.266-5.444-6.314c-2.338-2.056-5.359-3.797-8.983-5.176c-3.303-1.26-6.641-1.987-9.921-2.161
				c-3.29-0.176-6.5,0.224-9.539,1.185c-3.062,0.973-5.909,2.648-8.465,4.982c-2.568,2.344-4.589,5.424-6.01,9.155
				c-1.632,4.279-2.143,8.659-1.518,13.018c0.632,4.399,2.663,8.414,6.034,11.941c3.33,3.486,7.426,6.171,12.176,7.976
				c7.538,2.875,14.721,2.802,21.352-0.212c5.671-2.604,9.776-7.156,12.204-13.535c0.734-1.924,1.231-4.257,1.48-6.932
				c0.065-0.72,0.101-1.434,0.101-2.142C96.56,335.045,96.303,333.134,95.792,331.295L95.792,331.295z M88.853,344.389
				c-1.555,4.078-4.413,6.941-8.738,8.751c-4.275,1.795-9.686,1.469-16.079-0.967c-6.483-2.472-10.819-5.888-12.885-10.153
				c-2.057-4.246-2.3-8.497-0.726-12.636c1.644-4.309,4.318-7.176,8.174-8.76c4.975-2.011,10.824-1.764,17.381,0.734
				c6.198,2.362,10.355,5.74,12.354,10.041C90.354,335.752,90.525,340,88.853,344.389L88.853,344.389z"/>
			<path style="fill-rule:evenodd;clip-rule:evenodd;fill:#034EA2;" d="M125.452,289.197l4.614-6.879c0,0-25.977-1.538-27.922-1.653
				c0.696-2.35,1.231-4.62,1.231-6.612c0-1.194-0.124-2.322-0.377-3.378c-0.766-3.192-2.466-5.693-5.061-7.431
				c-2.36-1.586-5.083-2.269-8.088-2.032c-2.972,0.234-5.835,1.392-8.515,3.436c-2.613,1.994-5.372,5.141-8.195,9.353L62.9,289.272
				l43.116,28.911l4.112-6.13c0,0-17.355-11.636-18.787-12.596c0.89-1.328,7.398-11.03,7.919-11.811
				C100.288,287.709,125.452,289.197,125.452,289.197L125.452,289.197z M96.15,278.901c-0.874,2.785-2.126,5.403-3.719,7.78
				c0,0-5.356,7.989-6.246,9.316c-1.331-0.893-12.684-8.505-14.016-9.399c0.912-1.358,7.377-11.002,7.377-11.002
				c2.354-3.512,4.792-5.706,7.246-6.519c2.4-0.795,4.539-0.529,6.537,0.809c1.463,0.983,2.424,2.223,2.937,3.792
				c0.238,0.727,0.357,1.494,0.357,2.3C96.622,276.907,96.465,277.883,96.15,278.901L96.15,278.901z"/>
			<path style="fill-rule:evenodd;clip-rule:evenodd;fill:#034EA2;" d="M121.535,218.273l-30.15,30.174l4.724,4.723
				c0,0,11.647-11.657,12.839-12.851c1.272,1.27,31.998,31.972,31.998,31.972l5.218-5.22c0,0-30.725-30.703-31.997-31.974
				c1.19-1.192,12.755-12.766,12.755-12.766l-4.724-4.721L121.535,218.273L121.535,218.273z"/>
			<path style="fill-rule:evenodd;clip-rule:evenodd;fill:#034EA2;" d="M162.662,189.494l-28.756,19.188l28.813,43.184
				l31.778-21.204l-3.706-5.557c0,0-24.174,16.13-25.639,17.108c-0.895-1.341-8.798-13.183-9.691-14.524
				c1.423-0.95,17.45-11.644,17.45-11.644l-3.707-5.555c0,0-16.025,10.691-17.448,11.642c-0.87-1.302-7.196-10.785-8.066-12.086
				c1.457-0.973,23.393-15.61,23.393-15.61l-3.64-5.46L162.662,189.494L162.662,189.494z"/>
			<path style="fill-rule:evenodd;clip-rule:evenodd;fill:#034EA2;" d="M222.773,163.722c-4.311,1.25-7.967,3.442-10.868,6.513
				c-2.921,3.092-4.749,7.042-5.436,11.737c-0.676,4.64-0.33,9.362,1.025,14.043c1.52,5.249,3.916,9.619,7.123,12.984
				c3.226,3.39,6.932,5.616,11.012,6.618c4.059,0.999,8.256,0.888,12.471-0.334c3.484-1.011,6.627-2.679,9.338-4.96
				c2.73-2.297,4.793-5.104,6.134-8.341c1.031-2.44,1.575-5.409,1.615-8.814l0.012-1.077l-7.89,1.003v0.826
				c-0.001,2.487-0.26,4.471-0.767,5.9c-0.789,2.254-2.058,4.215-3.772,5.833c-1.717,1.619-3.862,2.807-6.372,3.534
				c-4.158,1.205-7.952,0.727-11.602-1.461c-4.415-2.668-7.644-7.432-9.595-14.163c-1.893-6.53-1.69-12.1,0.603-16.56
				c1.893-3.694,4.891-6.091,9.164-7.328c3.105-0.901,6.114-0.83,8.941,0.21c2.827,1.039,5.332,3.203,7.449,6.429l0.436,0.666
				l7.234-3.215l-0.58-0.918c-1.747-2.758-3.739-4.912-5.92-6.407c-2.944-2.016-6.06-3.261-9.263-3.701
				C230.073,162.3,226.543,162.631,222.773,163.722L222.773,163.722z"/>
			<path style="fill-rule:evenodd;clip-rule:evenodd;fill:#034EA2;" d="M266.509,155.953l-6.425,0.52l4.201,51.746l34.691-2.817
				l-0.553-6.777c0,0-25.585,2.079-27.328,2.22c-0.147-1.791-3.652-44.969-3.652-44.969L266.509,155.953L266.509,155.953z"/>
			<path style="fill-rule:evenodd;clip-rule:evenodd;fill:#034EA2;" d="M303.007,154.553l-3.49,33.225
				c-0.26,2.488,0.099,5.295,1.074,8.342c0.995,3.122,3.131,5.861,6.342,8.143c3.176,2.259,7.381,3.679,12.494,4.213
				c6.379,0.67,11.748-0.513,15.959-3.514c4.248-3.027,6.717-7.511,7.332-13.329l3.508-33.487l-7.339-0.771l-3.522,33.515
				c-0.242,2.304-0.996,4.406-2.242,6.25c-1.237,1.827-2.908,3.093-5.098,3.867c-2.227,0.785-5.09,1.001-8.518,0.641
				c-4.307-0.451-7.623-1.923-9.856-4.372c-2.235-2.454-3.124-5.519-2.721-9.374l3.518-33.514l-7.342-0.77L303.007,154.553
				L303.007,154.553z"/>
			<path style="fill-rule:evenodd;clip-rule:evenodd;fill:#034EA2;" d="M399.847,178.904c-2.506-3.702-7.068-6.744-13.558-9.036
				l-19.314-6.821l-0.308,0.883l-16.985,48.067l20.324,7.176c6.394,2.259,11.946,2.668,16.494,1.214
				c4.645-1.485,7.625-4.012,8.856-7.509c0.389-1.081,0.578-2.208,0.578-3.378c0-1.565-0.344-3.206-1.032-4.903
				c-0.96-2.401-2.93-4.731-5.479-6.993c2.923-0.267,5.515-0.864,7.478-2.03c2.483-1.478,4.168-3.423,4.996-5.779
				c0.388-1.093,0.578-2.21,0.578-3.349C402.475,184.014,401.597,181.489,399.847,178.904L399.847,178.904z M387.886,209.764
				c-0.776,2.199-2.248,3.582-4.49,4.226c-3.428,0.998-7.295,0.747-11.514-0.742c0,0-11.608-4.101-13.161-4.649
				c0.534-1.516,5.2-14.729,5.735-16.245c1.523,0.54,11.644,4.116,11.644,4.116c3.004,1.058,5.582,2.384,7.669,3.936
				c2.015,1.505,3.355,3.096,3.978,4.731c0.336,0.872,0.505,1.714,0.505,2.54C388.252,208.384,388.128,209.076,387.886,209.764
				L387.886,209.764z M394.104,187.587c-0.748,2.113-2.447,3.484-5.185,4.197c-2.842,0.74-7.412,0.009-13.594-2.175
				c0,0-7.347-2.595-8.805-3.109c0.527-1.502,4.82-13.638,5.348-15.139c1.545,0.546,12.611,4.455,12.611,4.455
				c4.176,1.474,7.047,3.347,8.525,5.568C394.456,183.547,394.815,185.578,394.104,187.587L394.104,187.587z"/>
			<path style="fill-rule:evenodd;clip-rule:evenodd;fill:#034EA2;" d="M446.318,203.694c-4.489,0.132-7.983,1.784-10.378,4.913
				c-2.213,2.878-2.82,6.301-1.81,10.169c0.974,3.747,3.64,8.342,8.159,14.053c3.164,3.988,5.031,6.966,5.566,8.849
				c0.623,2.371,0.314,4.338-0.959,5.999c-1.414,1.85-3.465,2.77-6.256,2.816c-2.842,0.045-5.881-1.159-9.045-3.578
				c-2.271-1.739-3.904-3.634-4.863-5.63c-0.959-2.003-1.421-4.056-1.355-6.103c0.045-1.229,0.41-2.796,1.092-4.654l0.301-0.819
				l-7.31-3.288l-0.352,0.941c-1.018,2.749-1.472,5.228-1.34,7.37c0.146,3.109,1.098,6.216,2.834,9.221
				c1.722,2.981,4.124,5.669,7.148,7.987c4.863,3.724,9.734,5.577,14.481,5.513c4.842-0.065,8.613-1.818,11.199-5.206
				c2.314-3.01,3.119-6.414,2.409-10.117c-0.718-3.639-3.303-8.23-7.895-14.033c-3.641-4.594-5.684-7.999-6.079-10.123
				c-0.417-2.029-0.132-3.642,0.864-4.939c1.23-1.6,3.018-2.395,5.464-2.428c2.505-0.033,5.098,0.963,7.712,2.965
				c2.477,1.893,4.168,4.125,5.047,6.632c0.864,2.477,0.82,5.114-0.132,7.835l-0.293,0.835l7.229,3.007l0.322-0.945
				c0.834-2.43,1.164-4.717,0.981-6.799c-0.27-2.977-1.274-5.848-2.981-8.536c-1.678-2.653-3.875-5.024-6.512-7.048
				C455.189,205.203,450.735,203.568,446.318,203.694L446.318,203.694z"/>
			<polygon style="fill-rule:evenodd;clip-rule:evenodd;fill:#034EA2;" points="454.089,262.398 448.054,268.29 454.522,274.915 
				461.223,268.367 454.756,261.742 454.089,262.398 			"/>
			<path style="fill-rule:evenodd;clip-rule:evenodd;fill:#034EA2;" d="M516.741,269.513l-11.771-16.77l-0.768,0.538l-41.734,29.275
				l12.379,17.641c3.896,5.555,8.181,9.109,12.729,10.565c4.637,1.487,8.533,1.161,11.565-0.969
				c2.197-1.538,3.691-3.895,4.446-7.006c0.264-1.113,0.402-2.313,0.402-3.592c0-1.606-0.454-3.474-0.879-5.323
				c2.563,1.505,5.039,2.536,7.339,2.727c2.878,0.238,5.376-0.37,7.427-1.804c2.974-2.087,4.541-5.471,4.651-10.056
				C522.63,280.263,520.681,275.142,516.741,269.513L516.741,269.513z M497.441,299.074c-0.433,1.675-1.274,2.934-2.578,3.845
				c-1.904,1.339-3.903,1.611-6.108,0.832c-3.369-1.178-6.372-3.628-8.936-7.286c0,0-7.075-10.085-8.02-11.433
				c1.31-0.923,12.78-8.968,14.098-9.893c0.931,1.328,7.09,10.115,7.09,10.115c1.831,2.605,3.164,5.182,3.955,7.658
				c0.491,1.522,0.739,2.915,0.739,4.164C497.682,297.789,497.602,298.455,497.441,299.074L497.441,299.074z M515.517,282.783
				c-0.081,2.604-0.967,4.464-2.71,5.689c-1.838,1.285-4.014,1.419-6.665,0.408c-2.731-1.047-6.035-4.299-9.8-9.664
				c0,0-4.474-6.375-5.361-7.642c1.304-0.914,11.844-8.308,13.14-9.221c0.944,1.341,7.683,10.946,7.683,10.946
				c2.469,3.518,3.714,6.625,3.714,9.24C515.517,282.62,515.517,282.702,515.517,282.783L515.517,282.783z"/>
			<path style="fill-rule:evenodd;clip-rule:evenodd;fill:#034EA2;" d="M536.787,304.168l-46.999,19.745l14.795,35.222l6.159-2.589
				c0,0-11.25-26.788-11.939-28.413c1.486-0.624,14.611-6.139,16.099-6.764c0.667,1.578,8.122,19.34,8.122,19.34l6.16-2.587
				c0,0-7.463-17.763-8.123-19.34c1.443-0.606,11.953-5.022,13.397-5.628c0.682,1.615,10.891,25.93,10.891,25.93l6.051-2.54
				l-13.748-32.737L536.787,304.168L536.787,304.168z"/>
			<path style="fill-rule:evenodd;clip-rule:evenodd;fill:#034EA2;" d="M556.211,354.952l-50.215,8.778l1.274,7.273
				c0,0,37.756-6.603,42.964-7.511c-3.874,3.779-37.822,36.922-37.822,36.922l1.194,6.833l51.137-8.936l-1.273-7.273
				c0,0-33.135,5.789-38.255,6.683c3.823-3.728,33.677-32.871,33.677-32.871l-1.758-10.06L556.211,354.952L556.211,354.952z"/>
			<path style="fill-rule:evenodd;clip-rule:evenodd;fill:#034EA2;" d="M558.95,414.765c0,0-0.732,15.524-0.812,17.208
				c-1.795-0.084-45.184-2.135-45.184-2.135l-0.352,7.376c0,0,43.388,2.047,45.183,2.135c-0.081,1.681-0.85,18.03-0.85,18.03
				l6.672,0.314l2.059-43.551l-6.673-0.315L558.95,414.765L558.95,414.765z"/>
			<path style="fill-rule:evenodd;clip-rule:evenodd;fill:#034EA2;" d="M557.603,476.166c-1.143-4.293-3.625-8.05-7.383-11.162
				c-3.713-3.076-8.094-5.266-13.016-6.512c-7.815-1.984-14.941-1.076-21.182,2.688c-5.332,3.238-8.884,8.24-10.554,14.854
				c-0.505,1.992-0.732,4.373-0.667,7.061c0.067,2.725,0.594,5.325,1.568,7.721c0.717,1.809,1.853,3.734,3.383,5.72
				c1.531,1.977,3.597,3.874,6.146,5.64c2.556,1.773,5.757,3.15,9.514,4.102c3.442,0.871,6.84,1.209,10.107,0.996
				c3.288-0.205,6.43-0.975,9.338-2.277c2.93-1.319,5.566-3.319,7.83-5.934c2.277-2.621,3.933-5.918,4.914-9.785
				C558.724,484.838,558.724,480.428,557.603,476.166L557.603,476.166z M551.655,487.459c-1.121,4.41-3.508,7.654-7.104,9.647
				c-4.71,2.57-10.547,3.003-17.351,1.281c-6.432-1.625-10.95-4.504-13.434-8.539c-2.504-4.095-3.171-8.291-2.021-12.847
				c1.062-4.167,3.641-7.434,7.669-9.704c4.043-2.271,9.456-2.578,16.084-0.901c6.724,1.707,11.426,4.599,13.975,8.599
				C552.044,479.03,552.754,483.11,551.655,487.459L551.655,487.459z"/>
			<g>
				<path style="fill-rule:evenodd;clip-rule:evenodd;fill:#034EA2;" d="M111.606,568.055c0,6.219-5.036,11.25-11.25,11.25
					c-6.215,0-11.25-5.031-11.25-11.25c0-6.211,5.035-11.25,11.25-11.25C106.57,556.805,111.606,561.844,111.606,568.055
					L111.606,568.055z"/>
				<path style="fill-rule:evenodd;clip-rule:evenodd;fill:#034EA2;" d="M504.466,568.055c0,6.219-5.039,11.25-11.25,11.25
					c-6.219,0-11.25-5.031-11.25-11.25c0-6.211,5.031-11.25,11.25-11.25C499.427,556.805,504.466,561.844,504.466,568.055
					L504.466,568.055z"/>
			</g>
		</g>
	</g>
</g>
</svg>
