<?xml version="1.0" encoding="iso-8859-1"?>
<!-- Generator: Adobe Illustrator 23.0.1, SVG Export Plug-In . SVG Version: 6.00 Build 0)  -->
<svg version="1.1" xmlns="http://www.w3.org/2000/svg" xmlns:xlink="http://www.w3.org/1999/xlink" x="0px" y="0px"
	 viewBox="0 0 595.276 841.89" style="enable-background:new 0 0 595.276 841.89;" xml:space="preserve">
<g id="Grade" style="display:none;">
</g>
<g id="HQFL">
</g>
<g id="&#xC1;rea_de_trabalho">
</g>
<g id="Linhas-guia">
</g>
<g id="Page_1">
	<g id="HQFL_1_">
		<g>
			<path style="fill-rule:evenodd;clip-rule:evenodd;fill:#ED1C24;" d="M193.156,170.308
				c49.162,65.806,81.937,126.13,92.862,197.417c-71.012-10.967-131.1-43.868-196.65-93.223v230.318
				c65.55-49.351,125.638-82.253,196.65-93.223c-10.925,71.288-43.7,131.613-92.862,197.416h229.425
				c-49.163-65.803-81.937-126.128-92.863-197.416c71.013,10.97,131.101,43.871,196.65,93.223V274.501
				c-65.55,49.355-125.638,82.256-196.65,93.223c10.926-71.286,43.7-131.611,92.863-197.417H193.156L193.156,170.308z"/>
			<path style="fill-rule:evenodd;clip-rule:evenodd;fill:#ED1C24;" d="M62.888,570.309l33.013,19.071l-4.914,8.509l-20.671-11.936
				l-3.659,6.344l19.17,11.069l-4.697,8.135l-19.17-11.069l-4.538,7.858l21.27,12.279l-5.212,9.024l-33.625-19.408L62.888,570.309
				L62.888,570.309z M86.098,621.687l11.943,6.62l-6.209,11.207l-11.944-6.62L86.098,621.687L86.098,621.687z M134.687,639.833
				l9.7,8.688c-2.234,2.809-4.67,4.913-7.288,6.271c-2.617,1.365-5.399,2.026-8.318,1.979c-2.924-0.055-6.261-0.95-9.995-2.688
				c-4.531-2.112-7.934-4.504-10.189-7.161c-2.265-2.658-3.665-6.146-4.2-10.433c-0.544-4.293,0.395-9.037,2.811-14.214
				c3.222-6.908,7.537-11.358,12.931-13.354c5.405-1.996,11.474-1.426,18.183,1.701c5.257,2.453,8.893,5.447,10.904,8.965
				c2.017,3.523,2.734,7.841,2.144,12.921l-12.571-2.777c0.2-1.461,0.218-2.586,0.049-3.373c-0.26-1.318-0.789-2.495-1.58-3.512
				c-0.797-1.016-1.848-1.828-3.134-2.429c-2.917-1.359-5.71-1.227-8.366,0.397c-1.984,1.19-3.859,3.668-5.599,7.401
				c-2.157,4.63-2.936,8.136-2.334,10.505c0.612,2.368,2.185,4.154,4.723,5.333c2.47,1.154,4.665,1.328,6.566,0.535
				c1.898-0.788,3.765-2.381,5.556-4.756H134.687L134.687,639.833z M149.546,651.96l12.748,4.895l-4.59,11.959l-12.749-4.895
				L149.546,651.96L149.546,651.96z M191.347,632.955l14.555,3.103l3.249,34.566l16.87-30.291l14.133,3l-26.28,41.487l-15.09-3.211
				L191.347,632.955L191.347,632.955z M242.258,644.721l37.979,3.331l-0.856,9.789l-23.778-2.081l-0.638,7.294l22.054,1.93
				l-0.819,9.355l-22.053-1.93l-0.79,9.043l24.467,2.141l-0.908,10.378l-38.68-3.379L242.258,644.721L242.258,644.721z
				 M284.936,695.246l-0.804-46.033l23.706-0.414c4.395-0.078,7.768,0.24,10.104,0.949c2.336,0.716,4.232,2.075,5.687,4.089
				c1.455,2.015,2.219,4.498,2.271,7.426c0.045,2.555-0.46,4.768-1.516,6.638c-1.052,1.876-2.531,3.403-4.416,4.588
				c-1.199,0.752-2.86,1.389-4.958,1.912c1.699,0.529,2.956,1.076,3.731,1.629c0.527,0.361,1.308,1.155,2.318,2.375
				c1.017,1.221,1.699,2.165,2.048,2.826l7.109,13.222l-16.079,0.283l-7.839-13.932c-0.994-1.804-1.882-2.977-2.644-3.505
				c-1.033-0.698-2.208-1.034-3.502-1.011l-1.255,0.024l0.327,18.682L284.936,695.246L284.936,695.246z M298.746,667.612l6-0.109
				c0.644-0.006,1.901-0.24,3.758-0.691c0.932-0.198,1.7-0.703,2.28-1.485c0.58-0.775,0.866-1.678,0.848-2.682
				c-0.026-1.485-0.522-2.621-1.472-3.398c-0.949-0.781-2.737-1.148-5.327-1.105l-6.25,0.113L298.746,667.612L298.746,667.612z
				 M361.738,683.197l-16.054,2.267l-1.154,7.834l-14.4,2.02l10.732-47.999l15.36-2.158l23.546,43.183l-14.737,2.074
				L361.738,683.197L361.738,683.197z M357.397,673.756l-7.35-15.675l-2.702,17.094L357.397,673.756L357.397,673.756z
				 M429.729,656.56l13.018,0.192c0.159,3.584-0.304,6.771-1.386,9.513c-1.082,2.747-2.745,5.074-4.978,6.95
				c-2.243,1.876-5.348,3.392-9.308,4.527c-4.805,1.377-8.941,1.81-12.386,1.287c-3.455-0.524-6.798-2.237-10.015-5.123
				c-3.226-2.88-5.631-7.077-7.206-12.572c-2.098-7.323-1.762-13.517,1.001-18.562c2.766-5.051,7.721-8.603,14.84-10.643
				c5.573-1.598,10.284-1.725,14.111-0.391c3.833,1.335,7.206,4.125,10.095,8.352l-11.313,6.146
				c-0.806-1.232-1.53-2.093-2.174-2.573c-1.06-0.83-2.233-1.371-3.496-1.618c-1.269-0.246-2.595-0.168-3.962,0.223
				c-3.091,0.89-5.111,2.82-6.052,5.79c-0.716,2.201-0.505,5.298,0.628,9.26c1.41,4.906,3.124,8.069,5.132,9.458
				c2.015,1.383,4.374,1.701,7.065,0.926c2.618-0.752,4.389-2.057,5.306-3.902c0.911-1.846,1.277-4.268,1.07-7.233L429.729,656.56
				L429.729,656.56z M452.98,667.924l-15.747-43.261l22.283-8.111c4.128-1.503,7.423-2.303,9.861-2.387
				c2.441-0.091,4.677,0.583,6.71,2.014c2.032,1.425,3.562,3.529,4.564,6.277c0.874,2.405,1.118,4.666,0.727,6.771
				c-0.385,2.116-1.283,4.04-2.678,5.778c-0.894,1.1-2.255,2.242-4.069,3.415c1.778-0.049,3.142,0.06,4.059,0.33
				c0.613,0.169,1.614,0.668,2.965,1.491c1.355,0.824,2.311,1.491,2.853,2.003l11.027,10.191l-15.106,5.501l-11.95-10.618
				c-1.524-1.389-2.748-2.207-3.641-2.459c-1.203-0.32-2.424-0.253-3.641,0.186l-1.179,0.433l6.392,17.557L452.98,667.924
				L452.98,667.924z M457.042,637.301l5.64-2.05c0.604-0.223,1.72-0.848,3.325-1.882c0.818-0.493,1.38-1.221,1.675-2.146
				c0.295-0.926,0.27-1.87-0.072-2.808c-0.508-1.401-1.347-2.315-2.498-2.736c-1.151-0.427-2.961-0.198-5.393,0.691l-5.874,2.135
				L457.042,637.301L457.042,637.301z M505.071,595.646l12.759-6.211l12.034,24.67c1.191,2.441,1.937,4.942,2.237,7.479
				c0.3,2.544,0.026,5.039-0.803,7.45c-0.827,2.423-1.981,4.407-3.448,5.935c-2.032,2.122-4.795,4.046-8.279,5.748
				c-2.015,0.979-4.284,1.912-6.795,2.789c-2.52,0.878-4.792,1.287-6.791,1.233c-2.006-0.055-4.053-0.535-6.127-1.431
				c-2.071-0.896-3.764-2.038-5.051-3.438c-2.077-2.249-3.613-4.396-4.603-6.422l-12.034-24.67l12.762-6.23l12.323,25.272
				c1.1,2.249,2.591,3.71,4.458,4.371c1.867,0.661,3.92,0.451,6.136-0.631c2.201-1.076,3.626-2.55,4.267-4.407
				c0.637-1.852,0.399-3.944-0.716-6.235L505.071,595.646L505.071,595.646z M521.861,587.132l34.513-20.726l4.738,7.889
				l-8.246,36.395l22.935-13.781l5.093,8.472l-37.449,22.506l-4.916-8.184l8.156-36.01l-19.764,11.875L521.861,587.132
				L521.861,587.132z"/>
		</g>
	</g>
</g>
</svg>
