<?xml version="1.0" encoding="iso-8859-1"?>
<!-- Generator: Adobe Illustrator 23.0.1, SVG Export Plug-In . SVG Version: 6.00 Build 0)  -->
<svg version="1.1" xmlns="http://www.w3.org/2000/svg" xmlns:xlink="http://www.w3.org/1999/xlink" x="0px" y="0px"
	 viewBox="0 0 595.276 841.89" style="enable-background:new 0 0 595.276 841.89;" xml:space="preserve">
<g id="Grade" style="display:none;">
</g>
<g id="HQFL">
</g>
<g id="&#xC1;rea_de_trabalho">
</g>
<g id="Linhas-guia">
</g>
<g id="Page_1">
	<g id="HQFL_1_">
		<g>
			<path style="fill-rule:evenodd;clip-rule:evenodd;fill:#FFC425;" d="M538.012,191.779L434.089,80.059
				c-56.042,54.72-93.413,34.2-136.618-7.98c-43.204,42.18-80.569,62.7-136.62,7.98l-103.92,111.72
				c43.204,63.84,42.036,85.5,7.006,174.42c0,269.04,179.237,276.451,233.533,313.501c54.302-37.05,233.531-44.46,233.531-313.501
				C495.978,277.279,494.807,255.619,538.012,191.779L538.012,191.779z"/>
			<path style="fill-rule:evenodd;clip-rule:evenodd;fill:#126A3C;" d="M517.812,193.499
				c-12.741-13.699-69.127-74.318-84.739-91.102c-57.111,47.51-99.831,23.97-135.603-8.437
				c-35.77,32.404-78.49,55.944-135.601,8.435c-15.613,16.784-72,77.404-84.743,91.103c19.649,30.753,28.623,53.688,28.623,79.031
				c0,25.878-9.311,54.443-25.804,96.532c1.021,203.855,108.823,247.033,180.3,275.609c14.123,5.646,26.723,10.718,37.225,16.437
				c10.502-5.718,23.103-10.791,37.225-16.437c71.477-28.576,179.278-71.749,180.302-275.611
				c-16.494-42.09-25.801-70.654-25.801-96.533C489.196,247.184,498.165,224.25,517.812,193.499L517.812,193.499z"/>
			<path style="fill-rule:evenodd;clip-rule:evenodd;fill:#FFC425;" d="M510.42,369.861
				c-1.3,200.144-107.263,242.53-177.417,270.575c-12.879,5.148-25.023,10.055-35.535,15.564
				c-10.583-5.539-23.212-10.638-35.529-15.564c-70.158-28.05-176.118-70.435-177.415-270.573
				c16.713-42.723,25.785-70.999,25.785-97.333c0-24.456-8.073-47.435-27.485-78.46c3.742-4.023,74.361-79.944,79.544-85.515
				c57.594,45.513,102.169,20.467,135.103-8.545c32.937,29.013,77.512,54.061,135.104,8.547c5.121,5.505,75.57,81.244,79.542,85.513
				c-19.412,31.021-27.48,54-27.48,78.456C484.637,298.862,493.707,327.138,510.42,369.861L510.42,369.861z"/>
			<path style="fill-rule:evenodd;clip-rule:evenodd;fill:#126A3C;" d="M113.503,473.164l316.083-342.949
				c-59.84,38.638-107.805,10.09-132.116-9.309c-24.426,19.49-72.722,48.243-132.962,8.78
				c-11.93,12.826-52.425,56.361-61.844,66.487c16.42,28.539,23.604,51.902,23.604,76.358c0,28.262-9.065,57.287-25.722,100.123
				C101.018,412.464,105.726,445.51,113.503,473.164L113.503,473.164z"/>
			<path style="fill-rule:evenodd;clip-rule:evenodd;fill:#126A3C;" d="M483.523,212.742L161.748,561.861
				c32.346,34.24,72.247,50.214,106.116,63.756c8.982,3.589,19.669,7.9,29.578,12.593c8.819-4.186,18.452-8.122,29.634-12.593
				c69.754-27.886,165.113-66.08,167.318-252.965c-16.655-42.836-25.717-71.861-25.717-100.124
				C468.677,252.969,473.285,234.105,483.523,212.742L483.523,212.742z"/>
			<polygon style="fill-rule:evenodd;clip-rule:evenodd;fill:#FFC425;" points="155.635,185.366 177.438,185.366 177.438,196.624 
				168.745,196.624 168.745,207.311 176.868,207.311 176.868,218.141 168.745,218.141 168.745,230.681 178.435,230.681 
				178.435,241.938 155.635,241.938 155.635,185.366 			"/>
			<polygon style="fill-rule:evenodd;clip-rule:evenodd;fill:#FFC425;" points="190.03,230.396 190.03,241.938 180.483,241.938 
				180.483,230.396 190.03,230.396 			"/>
			<path style="fill-rule:evenodd;clip-rule:evenodd;fill:#FFC425;" d="M224.072,209.876h-13.11v-9.743
				c0-2.833-0.141-4.6-0.417-5.304c-0.276-0.704-0.886-1.056-1.83-1.056c-1.062,0-1.737,0.432-2.025,1.291
				c-0.289,0.861-0.431,2.723-0.431,5.584v26.249c0,2.748,0.142,4.54,0.431,5.377c0.288,0.837,0.926,1.256,1.92,1.256
				c0.966,0,1.601-0.423,1.901-1.27c0.298-0.846,0.45-2.834,0.45-5.963v-7.161h13.11v2.211c0,5.873-0.368,10.039-1.098,12.497
				c-0.73,2.458-2.356,4.611-4.874,6.459c-2.521,1.846-5.624,2.773-9.316,2.773c-3.83,0-6.994-0.779-9.49-2.338
				c-2.496-1.558-4.143-3.714-4.945-6.471c-0.801-2.756-1.2-6.902-1.2-12.437v-16.501c0-4.07,0.12-7.123,0.365-9.158
				c0.243-2.035,0.98-3.995,2.211-5.878c1.23-1.884,2.942-3.365,5.137-4.446c2.193-1.082,4.707-1.624,7.54-1.624
				c3.852,0,7.034,0.833,9.54,2.496c2.508,1.666,4.157,3.739,4.945,6.223c0.788,2.485,1.185,6.348,1.185,11.594V209.876
				L224.072,209.876z"/>
			<polygon style="fill-rule:evenodd;clip-rule:evenodd;fill:#FFC425;" points="236.651,230.396 236.651,241.938 227.103,241.938 
				227.103,230.396 236.651,230.396 			"/>
			<path style="fill-rule:evenodd;clip-rule:evenodd;fill:#FFC425;" d="M357.397,456.117c0.481-5.771,1.394-14.878,2.735-27.32
				c0.761,10.831,1.478,19.937,2.16,27.32H357.397L357.397,456.117z M349.266,414.507l-7.232,64.552h14.714l0.774-11.543h5.215
				l0.779,11.543h14.499l-8.157-64.552H349.266L349.266,414.507z"/>
			<path style="fill-rule:evenodd;clip-rule:evenodd;fill:#FFC425;" d="M414.379,414.507V457.6c0,4.885-0.134,8.318-0.401,10.295
				c-0.267,1.977-1.064,4.008-2.396,6.092c-1.336,2.084-3.095,3.665-5.281,4.743c-2.187,1.072-4.761,1.612-7.717,1.612
				c-3.282,0-6.172-0.641-8.68-1.91c-2.507-1.274-4.378-2.934-5.619-4.978c-1.238-2.045-1.973-4.205-2.2-6.476
				c-0.227-2.271-0.338-7.04-0.338-14.317v-38.154h14.25v48.298c0,2.81,0.129,4.609,0.387,5.388c0.254,0.784,0.789,1.176,1.6,1.176
				c0.916,0,1.505-0.433,1.763-1.291c0.254-0.864,0.383-2.899,0.383-6.11v-47.461H414.379L414.379,414.507z M409.819,401.682
				l-11.115,10.83h-6.84l5.986-10.83H409.819L409.819,401.682z"/>
			<polygon style="fill-rule:evenodd;clip-rule:evenodd;fill:#FFC425;" points="210.868,528.801 221.199,528.801 221.199,534.038 
				216.96,534.038 216.96,539.026 220.736,539.026 220.736,544.013 216.96,544.013 216.96,555.057 210.868,555.057 210.868,528.801 
							"/>
			<path style="fill-rule:evenodd;clip-rule:evenodd;fill:#FFC425;" d="M235.899,528.801v17.536c0,1.991-0.058,3.385-0.172,4.191
				c-0.113,0.806-0.457,1.63-1.031,2.48c-0.573,0.846-1.326,1.492-2.256,1.928c-0.931,0.436-2.03,0.655-3.296,0.655
				c-1.407,0-2.648-0.259-3.718-0.775c-1.073-0.52-1.874-1.193-2.404-2.026c-0.531-0.832-0.845-1.71-0.942-2.636
				c-0.098-0.922-0.146-2.864-0.146-5.825v-15.527h6.092v19.665c0,1.144,0.056,1.878,0.173,2.195
				c0.116,0.321,0.344,0.477,0.685,0.477c0.395,0,0.648-0.174,0.758-0.526c0.11-0.352,0.166-1.18,0.166-2.485v-19.326H235.899
				L235.899,528.801z"/>
			<polygon style="fill-rule:evenodd;clip-rule:evenodd;fill:#FFC425;" points="251.237,528.801 251.237,555.057 245.894,555.057 
				242.722,543.122 242.722,555.057 237.628,555.057 237.628,528.801 242.722,528.801 246.143,540.624 246.143,528.801 
				251.237,528.801 			"/>
			<path style="fill-rule:evenodd;clip-rule:evenodd;fill:#FFC425;" d="M260.514,533.526c0.242,0.156,0.395,0.405,0.46,0.739
				c0.064,0.334,0.098,1.096,0.098,2.29v10.201c0,1.755-0.101,2.828-0.299,3.22c-0.2,0.397-0.742,0.592-1.625,0.592V533.29
				C259.816,533.29,260.272,533.37,260.514,533.526L260.514,533.526z M253.056,555.057h7.692c1.447,0,2.533-0.089,3.256-0.268
				c0.724-0.178,1.331-0.49,1.822-0.939c0.491-0.45,0.837-1.069,1.036-1.866c0.201-0.793,0.301-2.37,0.301-4.725v-9.196
				c0-2.489-0.068-4.155-0.203-5.005c-0.135-0.846-0.472-1.617-1.012-2.312c-0.54-0.69-1.33-1.189-2.366-1.492
				c-1.037-0.303-3.023-0.454-5.96-0.454h-4.567V555.057L253.056,555.057z"/>
			<path style="fill-rule:evenodd;clip-rule:evenodd;fill:#FFC425;" d="M274.006,545.687c0.171-2.319,0.555-6.002,1.152-11.048
				c0.318,4.39,0.624,8.078,0.918,11.048H274.006L274.006,545.687z M270.518,528.801l-3.09,26.256h6.279l0.334-4.703h2.208
				l0.326,4.703h6.243l-3.482-26.256H270.518L270.518,528.801z"/>
			<path style="fill-rule:evenodd;clip-rule:evenodd;fill:#FFC425;" d="M290.704,533.526c0.241,0.156,0.394,0.405,0.459,0.739
				c0.064,0.334,0.098,1.096,0.098,2.29v10.201c0,1.755-0.1,2.828-0.298,3.22c-0.201,0.397-0.742,0.592-1.626,0.592V533.29
				C290.005,533.29,290.462,533.37,290.704,533.526L290.704,533.526z M283.245,555.057h7.693c1.447,0,2.534-0.089,3.257-0.268
				c0.724-0.178,1.329-0.49,1.822-0.939c0.49-0.45,0.837-1.069,1.035-1.866c0.2-0.793,0.3-2.37,0.3-4.725v-9.196
				c0-2.489-0.067-4.155-0.202-5.005c-0.134-0.846-0.472-1.617-1.011-2.312c-0.541-0.69-1.329-1.189-2.367-1.492
				c-1.036-0.303-3.021-0.454-5.96-0.454h-4.568V555.057L283.245,555.057z"/>
			<path style="fill-rule:evenodd;clip-rule:evenodd;fill:#FFC425;" d="M306.845,547.598c0,1.54-0.061,2.516-0.181,2.925
				c-0.12,0.41-0.385,0.615-0.799,0.615c-0.412,0-0.672-0.178-0.782-0.531c-0.109-0.356-0.163-1.295-0.163-2.814v-12.228
				c0-1.345,0.082-2.155,0.251-2.432c0.17-0.276,0.41-0.414,0.727-0.414c0.38,0,0.632,0.174,0.757,0.512
				c0.124,0.339,0.189,1.118,0.189,2.334V547.598L306.845,547.598z M312.937,539.689c0-2.703-0.058-4.591-0.173-5.669
				c-0.111-1.081-0.477-2.079-1.087-2.997c-0.61-0.918-1.417-1.608-2.41-2.066c-0.997-0.46-2.123-0.691-3.378-0.691
				c-1.332,0-2.494,0.245-3.489,0.73c-0.998,0.485-1.785,1.185-2.371,2.088c-0.583,0.909-0.93,1.911-1.039,3.006
				c-0.107,1.096-0.16,2.962-0.16,5.598v4.484c0,2.699,0.056,4.591,0.169,5.669c0.114,1.082,0.476,2.079,1.088,2.997
				c0.611,0.918,1.416,1.608,2.419,2.066c1.001,0.459,2.129,0.686,3.385,0.686c1.32,0,2.479-0.241,3.477-0.727
				c0.993-0.485,1.785-1.185,2.369-2.088c0.584-0.908,0.93-1.91,1.038-3.006c0.107-1.096,0.164-2.961,0.164-5.598V539.689
				L312.937,539.689z"/>
			<path style="fill-rule:evenodd;clip-rule:evenodd;fill:#FFC425;" d="M328.016,528.801v26.256h-5.843v-14.072
				c0-2.035-0.044-3.255-0.129-3.665c-0.084-0.409-0.325-0.721-0.712-0.935c-0.387-0.208-1.255-0.316-2.601-0.316h-0.583v-3.054
				c2.832-0.682,4.979-2.085,6.449-4.213H328.016L328.016,528.801z"/>
			<path style="fill-rule:evenodd;clip-rule:evenodd;fill:#FFC425;" d="M342.421,528.801v4.204h-7.268v4.471
				c0.909-1.198,2.08-1.799,3.51-1.799c1.611,0,2.832,0.507,3.656,1.519c0.828,1.006,1.242,2.947,1.242,5.82v3.745
				c0,1.858-0.081,3.22-0.24,4.088c-0.165,0.872-0.504,1.674-1.024,2.418c-0.516,0.739-1.243,1.304-2.169,1.701
				c-0.93,0.391-2.071,0.587-3.419,0.587c-1.501,0-2.824-0.294-3.969-0.881c-1.149-0.584-1.964-1.462-2.449-2.627
				c-0.485-1.163-0.73-2.962-0.73-5.397v-1.426h5.842v1.635c0,1.692,0.054,2.894,0.166,3.607c0.106,0.708,0.475,1.064,1.108,1.064
				c0.294,0,0.53-0.102,0.708-0.307c0.178-0.205,0.276-0.428,0.285-0.664c0.014-0.241,0.027-1.274,0.05-3.1v-5.21
				c0-0.984-0.09-1.653-0.276-2.008c-0.183-0.361-0.49-0.539-0.912-0.539c-0.272,0-0.499,0.094-0.687,0.281
				c-0.182,0.182-0.303,0.382-0.357,0.592c-0.058,0.213-0.084,0.708-0.084,1.479h-5.771l0.25-13.253H342.421L342.421,528.801z"/>
			<path style="fill-rule:evenodd;clip-rule:evenodd;fill:#FFC425;" d="M358.568,528.801v26.256h-5.843v-14.072
				c0-2.035-0.044-3.255-0.129-3.665c-0.089-0.409-0.325-0.721-0.713-0.935c-0.388-0.208-1.256-0.316-2.605-0.316H348.7v-3.054
				c2.828-0.682,4.978-2.085,6.448-4.213H358.568L358.568,528.801z"/>
			<path style="fill-rule:evenodd;clip-rule:evenodd;fill:#FFC425;" d="M369.234,528.801v26.256h-5.843v-14.072
				c0-2.035-0.045-3.255-0.13-3.665c-0.089-0.409-0.325-0.721-0.712-0.935c-0.388-0.208-1.256-0.316-2.6-0.316h-0.584v-3.054
				c2.828-0.682,4.979-2.085,6.448-4.213H369.234L369.234,528.801z"/>
			<path style="fill-rule:evenodd;clip-rule:evenodd;fill:#FFC425;" d="M388.066,550.567v4.49h-12.825l0.009-3.741
				c3.789-6.988,6.043-11.311,6.76-12.973c0.717-1.661,1.077-2.956,1.077-3.887c0-0.713-0.107-1.247-0.325-1.599
				c-0.213-0.353-0.543-0.53-0.98-0.53c-0.44,0-0.77,0.196-0.984,0.588c-0.213,0.388-0.32,1.163-0.32,2.325v2.502h-5.237v-0.958
				c0-1.469,0.067-2.627,0.201-3.478c0.133-0.85,0.467-1.683,0.993-2.507c0.53-0.819,1.216-1.442,2.067-1.866
				c0.846-0.418,1.861-0.633,3.046-0.633c2.32,0,4.074,0.646,5.263,1.938c1.194,1.291,1.791,2.926,1.791,4.903
				c0,1.501-0.338,3.09-1.011,4.765c-0.671,1.674-2.64,5.228-5.9,10.66H388.066L388.066,550.567z"/>
			<path style="fill-rule:evenodd;clip-rule:evenodd;fill:#FFC425;" d="M392.625,545.936l2.583-11.169v11.169H392.625
				L392.625,545.936z M393.32,528.801l-5.022,17.135v4.49h6.911v4.631h5.843v-4.631h1.675v-4.49h-1.675v-17.135H393.32
				L393.32,528.801z"/>
			<path style="fill-rule:evenodd;clip-rule:evenodd;fill:#FFC425;" d="M325.294,414.507v50.013c0,2.449-0.04,4.102-0.111,4.952
				c-0.075,0.85,0.343,2.872-2.249,2.872c-2.591,0-2.177-2.021-2.254-2.872c-0.07-0.85-0.111-2.503-0.111-4.952v-10.968h-13.215
				v4.097c0,6.457,0.058,10.612,0.169,12.461c0.111,1.848,0.6,3.513,1.464,5c0.859,1.492,2.017,2.521,3.469,3.09
				c1.452,0.575,3.629,0.86,6.532,0.86h1.283h5.322h1.282c2.904,0,5.081-0.285,6.533-0.86c1.452-0.57,2.61-1.599,3.469-3.09
				c0.864-1.487,1.354-3.152,1.465-5c0.111-1.848,0.17-6.004,0.17-12.461v-43.141H325.294L325.294,414.507z"/>
			<g>
				<path style="fill-rule:evenodd;clip-rule:evenodd;fill:#126A3C;" d="M137.508,476.428l15.99,21.521l29.451,17.069l-8.691,9.427
					c-5.398-2.912-11.68-6.831-18.841-11.742c2.573,2.89,5.201,5.994,7.883,9.307l6.322,7.467l-9.174,9.953l-20.953-26.287
					l-22.846-14.081l9.077-9.85c1.374,0.881,3.698,2.378,6.97,4.488c2.498,1.612,4.831,3.113,6.997,4.512l-10.007-13.297
					L137.508,476.428L137.508,476.428z"/>
				<path style="fill-rule:evenodd;clip-rule:evenodd;fill:#126A3C;" d="M162.513,449.299l39.043,45.53l-14.149,15.349
					l-49.232-34.472l9.852-10.687c13.166,9.927,24.221,18.467,33.163,25.624c-7.965-8.408-14.958-15.92-20.978-22.533l-7.551-8.124
					L162.513,449.299L162.513,449.299z"/>
				<path style="fill-rule:evenodd;clip-rule:evenodd;fill:#126A3C;" d="M191.26,434.029c0.64-0.164,1.286-0.049,1.944,0.356
					c0.656,0.405,1.975,1.514,3.952,3.34l16.956,15.625c2.911,2.686,4.541,4.498,4.886,5.438c0.345,0.944-0.17,2.16-1.545,3.652
					l-28.71-26.465C189.783,434.849,190.623,434.199,191.26,434.029L191.26,434.029z M215.63,479.558l11.851-12.86
					c2.227-2.414,3.752-4.364,4.569-5.852c0.814-1.483,1.229-2.979,1.236-4.489c0.007-1.509-0.496-3.046-1.514-4.6
					c-1.018-1.559-3.492-4.146-7.425-7.77l-15.339-14.139c-4.148-3.82-7.033-6.269-8.658-7.353c-1.624-1.077-3.429-1.7-5.414-1.86
					c-1.987-0.161-4.031,0.391-6.132,1.655c-2.1,1.269-5.415,4.356-9.939,9.263l-7.034,7.633L215.63,479.558L215.63,479.558z"/>
				<polygon style="fill-rule:evenodd;clip-rule:evenodd;fill:#126A3C;" points="196.845,412.049 212.394,395.18 221.196,403.29 
					215.015,409.997 223.293,417.629 229.087,411.341 237.47,419.067 231.676,425.35 241.211,434.14 248.067,426.699 
					256.869,434.813 240.644,452.416 196.845,412.049 				"/>
				<polygon style="fill-rule:evenodd;clip-rule:evenodd;fill:#126A3C;" points="244.415,360.436 288.215,400.804 279.909,409.819 
					255.168,396.704 275.08,415.055 267.257,423.542 223.459,383.176 231.377,374.584 256.315,387.102 236.593,368.924 
					244.415,360.436 				"/>
				<path style="fill-rule:evenodd;clip-rule:evenodd;fill:#126A3C;" d="M291.41,372.413c2.578,2.377,4.119,3.981,4.625,4.805
					c0.505,0.83,0.448,1.579-0.173,2.254c-0.624,0.677-1.314,0.83-2.073,0.458c-0.757-0.371-2.407-1.727-4.952-4.074l-20.448-18.846
					c-2.252-2.075-3.482-3.462-3.688-4.161c-0.207-0.699-0.075-1.307,0.401-1.821c0.573-0.623,1.239-0.773,1.996-0.454
					c0.755,0.321,2.151,1.416,4.188,3.295L291.41,372.413L291.41,372.413z M287.547,350.056c-4.512-4.16-7.76-6.977-9.739-8.452
					c-1.979-1.475-4.205-2.411-6.679-2.808c-2.472-0.395-4.855-0.12-7.15,0.83c-2.293,0.949-4.403,2.468-6.328,4.557
					c-2.042,2.215-3.417,4.527-4.132,6.932c-0.716,2.404-0.761,4.791-0.141,7.161c0.619,2.371,1.763,4.491,3.429,6.358
					c1.668,1.871,4.704,4.834,9.108,8.894l7.502,6.915c4.513,4.159,7.76,6.978,9.739,8.452c1.979,1.476,4.205,2.413,6.676,2.808
					c2.476,0.396,4.863,0.118,7.165-0.844c2.299-0.958,4.413-2.48,6.339-4.568c2.026-2.198,3.394-4.498,4.111-6.903
					c0.714-2.405,0.758-4.793,0.14-7.165c-0.619-2.369-1.762-4.486-3.429-6.356c-1.668-1.871-4.703-4.834-9.109-8.895
					L287.547,350.056L287.547,350.056z"/>
				<path style="fill-rule:evenodd;clip-rule:evenodd;fill:#126A3C;" d="M294.981,305.571l39.041,45.529l-14.147,15.35
					l-49.232-34.473l9.851-10.689c13.166,9.928,24.221,18.47,33.164,25.625c-7.965-8.41-14.959-15.922-20.978-22.536l-7.551-8.119
					L294.981,305.571L294.981,305.571z"/>
				<polygon style="fill-rule:evenodd;clip-rule:evenodd;fill:#126A3C;" points="296.398,304.039 311.949,287.168 320.748,295.281 
					314.567,301.987 322.845,309.616 328.639,303.329 337.024,311.055 331.227,317.343 340.764,326.13 347.619,318.69 
					356.422,326.803 340.199,344.407 296.398,304.039 				"/>
				<path style="fill-rule:evenodd;clip-rule:evenodd;fill:#126A3C;" d="M344.034,252.355l43.8,40.368l-8.211,8.907l-29.618-27.201
					l26.238,30.868l-5.602,6.077l-32.366-22.954l28.892,26.726l-8.212,8.907l-43.797-40.368l12.046-13.072
					c2.961,2.084,6.439,4.534,10.442,7.351l12.496,8.802L331.89,265.53L344.034,252.355L344.034,252.355z"/>
				<path style="fill-rule:evenodd;clip-rule:evenodd;fill:#126A3C;" d="M366.758,243.322c0.485-0.237,1.108-0.213,1.866,0.069
					c0.761,0.281,1.826,1.053,3.198,2.317c2.596,2.396,4.043,3.986,4.337,4.773c0.29,0.787-0.022,1.675-0.935,2.666
					c-0.232,0.254-0.539,0.604-0.918,1.053l-9.743-8.981C365.543,244.193,366.277,243.56,366.758,243.322L366.758,243.322z
					 M391.446,288.798l10.852-11.773c3.776-4.095,6.012-7.046,6.71-8.855c0.7-1.807,0.611-3.663-0.262-5.572
					c-0.877-1.908-2.788-4.224-5.744-6.949l-4.057-3.738c-2.845-2.625-5.347-4.155-7.489-4.593
					c-2.147-0.438-4.609,0.257-7.392,2.079c1.403-2.606,1.928-4.736,1.581-6.389c-0.343-1.651-1.799-3.657-4.365-6.021
					c-3.789-3.493-7.009-5.517-9.65-6.071c-2.645-0.554-5.005-0.264-7.085,0.868c-2.083,1.134-4.6,3.304-7.552,6.51l-9.343,10.137
					L391.446,288.798L391.446,288.798z M384.379,258.286c0.726,0.001,2.022,0.86,3.878,2.574l4.052,3.733
					c1.756,1.616,2.669,2.83,2.753,3.638c0.08,0.81-0.517,1.961-1.791,3.451l-12.157-11.203
					C382.566,259.015,383.653,258.284,384.379,258.286L384.379,258.286z"/>
				<path style="fill-rule:evenodd;clip-rule:evenodd;fill:#126A3C;" d="M392.479,216.231c0.846-0.046,1.964,0.571,3.353,1.85
					l2.405,2.22c1.932,1.78,2.859,3.065,2.783,3.854c-0.075,0.789-0.65,1.767-1.727,2.932l-9.744-8.982
					C390.658,216.905,391.633,216.279,392.479,216.231L392.479,216.231z M416.437,261.685l9.364-10.164l-19.696-18.156
					c1.309-1.421,2.4-2.042,3.268-1.866c0.868,0.177,2.472,1.344,4.81,3.499l14.517,13.38l8.693-9.429l-11.525-10.622
					c-3.526-3.251-5.762-5.15-6.702-5.701c-0.94-0.549-2.2-0.906-3.776-1.076c-1.573-0.168-3.563,0.492-5.967,1.981
					c1.808-2.435,2.476-4.573,1.999-6.415c-0.477-1.841-2.422-4.337-5.843-7.488c-3.741-3.449-6.96-5.423-9.659-5.925
					c-2.699-0.501-5.041-0.096-7.018,1.218c-1.982,1.312-5.183,4.37-9.605,9.169l-6.662,7.227L416.437,261.685L416.437,261.685z"/>
				<path style="fill-rule:evenodd;clip-rule:evenodd;fill:#126A3C;" d="M440.452,210.705c2.578,2.377,4.119,3.979,4.626,4.805
					c0.504,0.828,0.445,1.578-0.173,2.252c-0.624,0.677-1.314,0.831-2.075,0.459c-0.757-0.372-2.405-1.729-4.951-4.074
					l-20.445-18.845c-2.254-2.076-3.483-3.463-3.692-4.163c-0.205-0.699-0.071-1.306,0.405-1.822
					c0.57-0.622,1.238-0.772,1.994-0.453c0.753,0.321,2.151,1.417,4.186,3.294L440.452,210.705L440.452,210.705z M436.592,188.347
					c-4.516-4.159-7.762-6.976-9.739-8.452c-1.981-1.473-4.204-2.41-6.68-2.807c-2.472-0.395-4.854-0.12-7.152,0.83
					c-2.294,0.95-4.399,2.467-6.328,4.556c-2.039,2.216-3.415,4.526-4.132,6.931c-0.712,2.406-0.761,4.792-0.143,7.161
					c0.624,2.371,1.764,4.49,3.434,6.359c1.665,1.87,4.703,4.835,9.106,8.894l7.499,6.915c4.516,4.159,7.762,6.978,9.739,8.452
					c1.981,1.476,4.208,2.412,6.68,2.807c2.476,0.397,4.863,0.117,7.165-0.842c2.298-0.96,4.413-2.481,6.337-4.57
					c2.026-2.198,3.393-4.499,4.11-6.902c0.717-2.404,0.762-4.794,0.143-7.163c-0.62-2.371-1.764-4.489-3.429-6.359
					c-1.67-1.868-4.703-4.833-9.111-8.894L436.592,188.347L436.592,188.347z"/>
			</g>
		</g>
	</g>
</g>
</svg>
