<?xml version="1.0" encoding="iso-8859-1"?>
<!-- Generator: Adobe Illustrator 23.0.1, SVG Export Plug-In . SVG Version: 6.00 Build 0)  -->
<svg version="1.1" xmlns="http://www.w3.org/2000/svg" xmlns:xlink="http://www.w3.org/1999/xlink" x="0px" y="0px"
	 viewBox="0 0 595.276 841.89" style="enable-background:new 0 0 595.276 841.89;" xml:space="preserve">
<g id="Grade" style="display:none;">
</g>
<g id="HQFL">
</g>
<g id="&#xC1;rea_de_trabalho">
</g>
<g id="Linhas-guia">
</g>
<g id="Page_1">
	<g id="HQFL_1_">
		<g>
			<path style="fill-rule:evenodd;clip-rule:evenodd;" d="M507.757,305.816c0-28.64,10.004-53.892,23.234-76.723l-73.898-101.571
				c-60.588,21.864-119.483,24.929-175.955-11.698c-56.473,36.627-115.367,33.562-175.955,11.698L31.285,229.093
				c13.23,22.831,23.234,48.083,23.234,76.723c-0.081,65.67-47.356,89.227-47.356,186.28
				c-0.051,52.619,18.639,99.692,52.422,133.476c72.833,72.832,164.773,56.244,221.554,125.493
				c56.779-69.249,148.721-52.661,221.553-125.493c33.784-33.784,52.474-80.857,52.422-133.476
				C555.113,395.043,507.837,371.486,507.757,305.816L507.757,305.816z"/>
			<path style="fill-rule:evenodd;clip-rule:evenodd;fill:#FFFFFF;" d="M519.342,383.537c-10.833-23.669-21.065-46.023-21.105-77.71
				v-0.012c0-3.261,0.123-6.51,0.361-9.754L44.421,380.282c-0.495,1.083-0.989,2.167-1.487,3.254
				c-12.906,28.196-26.251,57.351-26.251,108.569c-0.001,0.068-0.001,0.136-0.001,0.204c0,3.448,0.095,6.87,0.264,10.271
				l512.918-94.967C526.516,399.217,522.913,391.339,519.342,383.537L519.342,383.537z"/>
			<path style="fill-rule:evenodd;clip-rule:evenodd;fill:#FFFFFF;" d="M144.392,488.627v179.264
				c11.309,4.507,22.664,8.455,33.905,12.359c17.423,6.052,34.43,11.977,50.562,19.618V472.977L144.392,488.627L144.392,488.627z"/>
			<path style="fill-rule:evenodd;clip-rule:evenodd;fill:#FFFFFF;" d="M333.416,453.614v246.255
				c16.132-7.642,33.14-13.567,50.563-19.618c11.241-3.904,22.597-7.853,33.905-12.359V437.963L333.416,453.614L333.416,453.614z"/>
			<path style="fill-rule:evenodd;clip-rule:evenodd;fill:#FFFFFF;" d="M228.86,336.392V148.636
				c-10.941,2.565-22.184,4.057-33.806,4.484c-16.21,0.596-33.001-0.922-50.662-4.55v203.473L228.86,336.392L228.86,336.392z"/>
			<path style="fill-rule:evenodd;clip-rule:evenodd;fill:#FFFFFF;" d="M417.884,301.298V148.57
				c-17.66,3.628-34.451,5.145-50.662,4.55c-11.622-0.427-22.864-1.918-33.806-4.484v168.313L417.884,301.298L417.884,301.298z"/>
			<polygon style="fill-rule:evenodd;clip-rule:evenodd;" points="106.878,466.2 151.331,457.969 148.829,444.174 120.512,449.418 
				117.043,430.621 145.28,425.377 142.779,411.662 114.461,416.906 111.557,401.417 139.874,396.092 137.374,382.539 
				92.921,390.767 106.878,466.2 			"/>
			<path style="fill-rule:evenodd;clip-rule:evenodd;" d="M178.034,445.466c0.887,4.76,5.566,8.066,10.487,7.099
				c5.001-0.887,8.148-5.566,7.261-10.406c-0.887-4.922-5.647-8.149-10.488-7.18C180.374,435.866,177.147,440.463,178.034,445.466
				L178.034,445.466z"/>
			<path style="fill-rule:evenodd;clip-rule:evenodd;" d="M274.765,377.375l-2.421-16.296c-6.697-1.775-14.603-2.743-24.123-0.968
				c-25.171,4.679-38.321,25.01-34.126,47.276c4.195,22.749,24.123,36.546,48.487,32.027c8.39-1.533,15.489-5.002,21.539-10.165
				l-2.984-16.618c-5.244,7.099-12.263,11.375-20.894,12.988c-15.652,2.904-26.703-5.647-29.609-21.298
				c-2.985-16.136,5.325-28.479,21.46-31.464C261.05,371.163,268.31,373.422,274.765,377.375L274.765,377.375z"/>
			<path style="fill-rule:evenodd;clip-rule:evenodd;" d="M308.89,421.263c0.888,4.76,5.567,8.068,10.488,7.18
				c5.002-0.968,8.148-5.647,7.26-10.487c-0.887-4.921-5.647-8.067-10.486-7.18C311.31,411.662,308.003,416.342,308.89,421.263
				L308.89,421.263z"/>
			<path style="fill-rule:evenodd;clip-rule:evenodd;" d="M385.29,373.503l2.501,13.231l18.152-3.307l0.161,0.806
				c1.453,7.907-4.68,14.845-15.328,16.861c-14.28,2.582-26.219-5.647-29.043-21.057c-2.904-15.57,4.922-27.349,19.846-30.172
				c8.794-1.613,14.844,0.968,20.653,6.05l9.439-10.085c-9.923-8.713-21.298-12.021-33.48-9.681
				c-23.234,4.276-37.272,24.042-33.077,46.954c4.276,22.831,24.042,36.627,47.761,32.27c20.008-3.791,31.947-21.379,27.672-44.533
				c-0.242-1.21-0.484-2.501-0.806-3.792L385.29,373.503L385.29,373.503z"/>
			<path style="fill-rule:evenodd;clip-rule:evenodd;" d="M445.878,395.85c0.887,4.76,5.486,8.067,10.488,7.18
				c5.002-0.968,8.148-5.566,7.261-10.407c-0.968-5.002-5.647-8.149-10.57-7.261C448.217,386.249,444.91,390.929,445.878,395.85
				L445.878,395.85z"/>
		</g>
	</g>
</g>
</svg>
