<?xml version="1.0" encoding="iso-8859-1"?>
<!-- Generator: Adobe Illustrator 23.0.1, SVG Export Plug-In . SVG Version: 6.00 Build 0)  -->
<svg version="1.1" xmlns="http://www.w3.org/2000/svg" xmlns:xlink="http://www.w3.org/1999/xlink" x="0px" y="0px"
	 viewBox="0 0 595.276 841.89" style="enable-background:new 0 0 595.276 841.89;" xml:space="preserve">
<g id="Grade" style="display:none;">
</g>
<g id="HQFL">
</g>
<g id="&#xC1;rea_de_trabalho">
</g>
<g id="Linhas-guia">
</g>
<g id="Page_1">
	<g id="HQFL_1_">
		<g>
			<path style="fill-rule:evenodd;clip-rule:evenodd;fill:#1B3889;" d="M281.137,209.11c-32.052,0-101.949-15.176-141.172-48.09
				l-14-11.749l0.888,20.236c1.29,29.372-16.29,43.384-35.917,47.338l-6.284,1.266l-1.551,7.109
				c-5.913,27.106-28.564,36.572-57.907,33.086l-15.394-1.829l11.546,20.335c13.737,24.193,23.809,46.601,23.809,76.862
				c0,58.49-41.787,99.456-41.787,167.374c0,62.992,43.327,118.712,93.794,137.438c38.188,14.171,77.294,13.037,120.328,24.467
				c19.279,5.12,36.295,16.084,49.874,25.309l13.772,9.357l13.772-9.357c13.58-9.225,30.595-20.19,49.875-25.309
				c43.033-11.43,82.141-10.296,120.328-24.467c50.467-18.725,93.795-74.445,93.795-137.438c0-67.918-41.787-108.883-41.787-167.374
				c0-30.261,10.072-52.669,23.808-76.862l11.547-20.335l-15.394,1.829c-29.342,3.485-51.994-5.98-57.906-33.086l-1.551-7.109
				l-6.285-1.266c-19.627-3.954-37.207-17.966-35.918-47.338l0.889-20.236l-14,11.749C383.087,193.933,313.19,209.11,281.137,209.11
				L281.137,209.11z"/>
			<path style="fill-rule:evenodd;clip-rule:evenodd;fill:#FFFFFF;" d="M281.137,226.363c-36.852,0-99.279-15.786-138.013-41.527
				c-4.016,23.728-19.326,41.274-44.151,47.794c-7.974,28.139-29.63,42.198-58.243,43.551
				c12.573,22.821,21.678,47.188,21.678,77.561c0,61.694-41.784,103.96-41.784,167.284c0,58.762,40.569,105.711,82.447,121.252
				c37.22,13.81,78.147,12.819,119.077,24.064c22.024,6.051,39.206,16.925,58.989,30.412c19.784-13.487,36.965-24.361,58.989-30.412
				c40.93-11.245,81.857-10.254,119.078-24.064c41.877-15.541,82.445-62.49,82.445-121.252c0-63.323-41.783-105.59-41.783-167.284
				c0-30.373,9.105-54.74,21.678-77.561c-28.613-1.353-50.268-15.412-58.242-43.551c-24.826-6.519-40.135-24.066-44.15-47.794
				C380.417,210.577,317.989,226.363,281.137,226.363L281.137,226.363z"/>
			<path style="fill-rule:evenodd;clip-rule:evenodd;fill:#1B3889;" d="M281.137,243.617c-34.212,0-88.815-12.661-128.298-33.204
				c-8.409,16.795-22.51,29.032-40.319,35.914c-8.465,21.052-25.053,36.056-46.294,42.799c8.606,20.342,13.437,41.664,13.437,64.682
				c0,66.417-41.783,108.628-41.783,167.193c0,17.506,4.207,33.682,11.054,47.92l345.145-351.223
				C356.692,233.909,311.099,243.617,281.137,243.617L281.137,243.617z"/>
			<path style="fill-rule:evenodd;clip-rule:evenodd;fill:#1D3B8F;" d="M57.891,584.419c13.9,20.357,33.085,35.094,51.089,41.646
				c12.716,4.628,25.911,7.504,39.461,9.785l342.508-348.538c-18.791-7.419-33.418-21.648-41.193-40.985
				c-14.031-5.422-25.764-14.168-34.221-25.849L57.891,584.419L57.891,584.419z"/>
			<path style="fill-rule:evenodd;clip-rule:evenodd;fill:#1B3889;" d="M169.495,639.037c18.668,2.65,37.866,5.284,57.311,10.693
				c19.95,5.551,36.541,14.473,54.332,26.262c17.793-11.789,34.381-20.711,54.332-26.262
				c41.299-11.489,81.506-10.447,117.826-23.665c33.498-12.19,71.1-52.694,71.1-105.064c0-58.565-41.783-100.776-41.783-167.193
				c0-13.191,1.584-25.829,4.559-38.041L169.495,639.037L169.495,639.037z"/>
			<path style="fill-rule:evenodd;clip-rule:evenodd;fill:#FFFFFF;" d="M357.644,572.782h8.994v-48.18h-6.617
				c-1.799,6.617-7.002,8.287-13.234,8.351v6.425h10.858V572.782L357.644,572.782z"/>
			<path style="fill-rule:evenodd;clip-rule:evenodd;fill:#FFFFFF;" d="M394.163,542.074c0,3.984,0,8.674-4.432,8.674
				c-4.049,0-4.369-3.727-4.369-6.939v-4.882c0-4.434,0.32-7.389,4.176-7.451h0.578c3.662,0,4.047,3.66,4.047,8.35V542.074
				L394.163,542.074z M403.157,542.717v-0.708c0-10.92-2.955-17.6-13.426-17.6c-10.408,0-13.363,6.23-13.363,18.308
				c0,9.893,3.277,15.096,10.922,15.096c4.176,0,5.588-1.67,7.066-3.213v3.084c-0.129,2.891,0.385,8.993-4.69,8.993h-0.387
				c-3.275,0-3.469-2.249-3.533-3.79h-8.35v0.578c0,7.195,5.01,10.289,11.883,10.289c9.51,0,13.877-4.122,13.877-19.475V542.717
				L403.157,542.717z"/>
			<path style="fill-rule:evenodd;clip-rule:evenodd;fill:#FFFFFF;" d="M417.063,572.782h8.994v-48.18h-6.617
				c-1.797,6.617-7,8.287-13.232,8.351v6.425h10.856V572.782L417.063,572.782z"/>
			<path style="fill-rule:evenodd;clip-rule:evenodd;fill:#FFFFFF;" d="M443.886,550.618c0.256-2.055,2.248-3.532,4.496-3.532
				c3.082,0,5.139,1.541,5.139,8.094v1.414c-0.129,4.625,0.194,10.085-4.689,10.085h-0.449c-4.883-0.257-4.369-5.588-4.496-9.058
				h-8.416v0.385c0,10.858,2.955,15.75,13.746,15.75c10.151,0,13.299-6.178,13.299-17.098c0-7.645-1.479-16.639-12.012-16.639
				c-3.021,0-4.82,0.578-7.004,2.698l0.578-10.279h16.254v-7.066H437.14l-1.221,25.245H443.886L443.886,550.618z"/>
			<polygon style="fill-rule:evenodd;clip-rule:evenodd;fill:#FFFFFF;" points="120.562,553.458 92.408,582.107 131.367,620.392 
				160.426,590.821 153.535,584.048 132.314,605.644 122.221,595.726 140.883,576.736 133.993,569.964 115.33,588.955 
				107.137,580.904 127.452,560.23 120.562,553.458 			"/>
			<polygon style="fill-rule:evenodd;clip-rule:evenodd;fill:#FFFFFF;" points="163.699,571.644 155.701,579.783 163.623,587.568 
				171.621,579.429 163.699,571.644 			"/>
			<path style="fill-rule:evenodd;clip-rule:evenodd;fill:#FFFFFF;" d="M182.63,515.804c-6.179-5.219-18.848-8.39-30.313,3.277
				c-9.864,10.037-10.65,24.729,2.97,38.113c13.457,13.224,27.769,12.678,37.954,2.314c9.597-9.767,9.113-21.121,2.249-31.067
				l-7.999,8.139c3.815,5.669,3.272,11.322-1.153,15.825c-6.772,6.892-15.785,3.474-22.785-3.405
				c-11.015-10.824-7.967-19.135-4.128-23.042c6.612-6.727,12.234-3.656,15.207-2.015L182.63,515.804L182.63,515.804z"/>
			<polygon style="fill-rule:evenodd;clip-rule:evenodd;fill:#FFFFFF;" points="211.683,522.814 203.685,530.953 211.607,538.739 
				219.605,530.599 211.683,522.814 			"/>
			<polygon style="fill-rule:evenodd;clip-rule:evenodd;fill:#FFFFFF;" points="193.442,479.295 185.444,487.434 224.402,525.718 
				251.435,498.209 244.382,491.277 225.346,510.647 193.442,479.295 			"/>
			<polygon style="fill-rule:evenodd;clip-rule:evenodd;fill:#FFFFFF;" points="243.507,428.348 215.354,456.996 254.313,495.281 
				283.372,465.71 276.481,458.938 255.26,480.533 245.167,470.615 263.829,451.625 256.938,444.853 238.277,463.843 
				230.083,455.792 250.398,435.119 243.507,428.348 			"/>
			<polygon style="fill-rule:evenodd;clip-rule:evenodd;fill:#FFFFFF;" points="284.99,386.136 273.419,397.911 297.304,435.034 
				297.196,435.144 259.555,412.019 247.878,423.901 286.835,462.185 294.3,454.589 261.744,422.597 261.851,422.488 
				301.391,447.373 309.229,439.396 283.819,400.133 283.925,400.025 316.481,432.017 323.946,424.42 284.99,386.136 			"/>
			<polygon style="fill-rule:evenodd;clip-rule:evenodd;fill:#FFFFFF;" points="318.151,352.389 289.999,381.038 328.956,419.322 
				358.017,389.751 351.124,382.979 329.903,404.575 319.812,394.657 338.473,375.666 331.583,368.895 312.921,387.886 
				304.728,379.834 325.042,359.161 318.151,352.389 			"/>
			<polygon style="fill-rule:evenodd;clip-rule:evenodd;fill:#FFFFFF;" points="373.38,350.457 373.272,350.566 330.946,339.37 
				322.523,347.943 361.479,386.227 368.944,378.63 341.163,351.331 341.27,351.222 384.675,362.624 392.673,354.485 
				353.714,316.201 346.249,323.797 373.38,350.457 			"/>
			<path style="fill-rule:evenodd;clip-rule:evenodd;fill:#FFFFFF;" d="M383.718,339.61c4.83,4.745,15.432,10.364,29.4-3.852
				c3.359-3.417,14.051-16.377,2.33-27.894c-7-6.879-13.969-4.128-20.496-0.09l-11.664,7.202c-1.979,1.255-5.084,3.111-8.123,0.125
				c-3.525-3.466-1.039-8.276,2-11.368c6.985-7.108,11.748-3.707,13.697-2.218l7.678-7.813c-4.826-4.638-15.787-9.115-27.517,2.823
				c-12.424,12.642-7.065,22.493-2.725,26.759c8.574,8.425,15.957,3.734,23.605-1.12l5.082-3.218
				c5.029-3.164,8.723-5.294,11.762-2.308c4.123,4.052,0.832,9.245-2.951,13.097c-6.987,7.108-12.176,4.141-14.399,2.063
				L383.718,339.61L383.718,339.61z"/>
			<polygon style="fill-rule:evenodd;clip-rule:evenodd;fill:#FFFFFF;" points="419.774,248.977 391.62,277.626 430.579,315.911 
				459.638,286.339 452.747,279.567 431.526,301.162 421.434,291.245 440.095,272.254 433.206,265.483 414.544,284.473 
				406.348,276.422 426.665,255.749 419.774,248.977 			"/>
		</g>
	</g>
</g>
</svg>
