<?xml version="1.0" encoding="iso-8859-1"?>
<!-- Generator: Adobe Illustrator 23.0.1, SVG Export Plug-In . SVG Version: 6.00 Build 0)  -->
<svg version="1.1" xmlns="http://www.w3.org/2000/svg" xmlns:xlink="http://www.w3.org/1999/xlink" x="0px" y="0px"
	 viewBox="0 0 595.276 841.89" style="enable-background:new 0 0 595.276 841.89;" xml:space="preserve">
<g id="Grade" style="display:none;">
</g>
<g id="HQFL">
</g>
<g id="&#xC1;rea_de_trabalho">
</g>
<g id="Linhas-guia">
</g>
<g id="Page_1">
	<g id="HQFL_1_">
		<g>
			<path style="fill-rule:evenodd;clip-rule:evenodd;fill:#ED1C24;" d="M490.341,211.011l-17.723,15.807
				c-2.637,2.347-4.422,3.649-5.382,3.908c-0.964,0.254-1.825-0.055-2.606-0.926c-0.772-0.863-0.984-1.748-0.658-2.656
				c0.337-0.906,1.846-2.555,4.522-4.945l17.727-15.807l-5.99-6.708l-15.225,13.578c-3.235,2.891-5.441,5.04-6.628,6.457
				c-1.178,1.416-1.979,2.767-2.409,4.05c-0.594,1.793-0.647,3.531-0.139,5.222c0.505,1.684,1.593,3.474,3.285,5.367
				c1.825,2.048,3.606,3.445,5.337,4.191c1.736,0.746,3.546,0.887,5.421,0.423c1.107-0.262,2.256-0.759,3.428-1.482
				c1.162-0.725,2.774-2.001,4.827-3.829l18.05-16.103L490.341,211.011L490.341,211.011z"/>
			<path style="fill-rule:evenodd;clip-rule:evenodd;fill:#ED1C24;" d="M101.914,217.723c-1.54-1.359-3.144-2.209-4.812-2.544
				c-1.67-0.335-3.383-0.152-5.142,0.55c0.03-1.869-0.222-3.467-0.753-4.799c-0.533-1.331-1.415-2.54-2.646-3.626
				c-1.376-1.217-2.805-2.011-4.272-2.378c-1.469-0.366-2.967-0.308-4.483,0.17c-1.018,0.333-2.026,0.893-3.032,1.683
				c-1.004,0.79-2.465,2.267-4.376,4.434l-6.299,7.131l28.454,25.127l6.965-7.887c2.003-2.268,3.327-4.087,3.963-5.458
				c0.635-1.367,0.894-2.766,0.772-4.192c-0.115-1.483-0.553-2.945-1.303-4.38C104.196,220.125,103.186,218.845,101.914,217.723
				L101.914,217.723z M83.433,221.099l-0.375,0.422l-6.413-5.693c0.044-0.073,0.107-0.162,0.188-0.263
				c0.079-0.104,0.203-0.25,0.365-0.435c1.014-1.146,2.059-1.788,3.138-1.933c1.082-0.145,2.117,0.225,3.115,1.104
				c1.147,1.011,1.717,2.068,1.717,3.178C85.164,218.584,84.588,219.789,83.433,221.099L83.433,221.099z M95.884,231.828
				l-0.507,0.576l-7.401-6.542l0.404-0.459c1.33-1.506,2.582-2.356,3.758-2.557c1.177-0.201,2.369,0.232,3.577,1.301
				c1.298,1.143,1.958,2.359,1.986,3.646C97.732,229.082,97.125,230.425,95.884,231.828L95.884,231.828z"/>
			<path style="fill-rule:evenodd;clip-rule:evenodd;fill:#ED1C24;" d="M161.875,142.992l8.23,37.967l8.129-3.706l-2.019-7.099
				l6.336-2.891l4.036,6.18l8.063-3.68l-23.191-31.139L161.875,142.992L161.875,142.992z M174.201,163.538l-4.545-16.113
				l9.179,13.998L174.201,163.538L174.201,163.538z"/>
			<path style="fill-rule:evenodd;clip-rule:evenodd;fill:#ED1C24;" d="M282.445,115.943l0.183,23.747
				c0.029,3.527-0.183,5.734-0.619,6.622c-0.435,0.89-1.246,1.341-2.419,1.347c-1.151,0.011-1.962-0.411-2.421-1.258
				c-0.461-0.852-0.705-3.073-0.732-6.665l-0.175-23.745l-8.991,0.066l0.149,20.4c0.035,4.337,0.192,7.417,0.478,9.241
				c0.285,1.822,0.766,3.313,1.453,4.476c0.948,1.64,2.222,2.826,3.826,3.56c1.598,0.74,3.663,1.094,6.197,1.075
				c2.745-0.018,4.97-0.436,6.676-1.248c1.702-0.807,2.998-2.071,3.893-3.79c0.534-1.007,0.921-2.189,1.143-3.548
				c0.232-1.359,0.337-3.411,0.317-6.157l-0.183-24.186L282.445,115.943L282.445,115.943z"/>
			<path style="fill-rule:evenodd;clip-rule:evenodd;fill:#ED1C24;" d="M398.498,142.277c-1.236-0.876-3.349-1.981-6.341-3.304
				l-9.126-4.05l-15.394,34.698l8.019,3.554l6.158-13.877l1.672,0.744c1.454,0.641,2.285,1.477,2.492,2.506
				c0.213,1.031-0.147,2.603-1.088,4.721c-0.108,0.241-0.346,0.747-0.727,1.522c-0.386,0.775-0.698,1.44-0.945,1.998
				c-0.396,0.902-0.727,1.766-0.975,2.598c-0.257,0.833-0.435,1.657-0.544,2.47l9.458,4.193c-0.777-1.532-0.327-4.26,1.345-8.192
				c0.352-0.83,0.618-1.471,0.797-1.913c0.005-0.015,0.02-0.052,0.044-0.114c1.717-4.219,1.558-7.44-0.45-9.666
				c1.85-0.219,3.433-0.848,4.728-1.889c1.302-1.042,2.395-2.561,3.28-4.562c0.727-1.638,1.103-3.158,1.143-4.561
				c0.034-1.403-0.258-2.731-0.891-3.983C400.605,144.12,399.72,143.158,398.498,142.277L398.498,142.277z M392.256,151.028
				c-0.717,1.608-1.573,2.599-2.577,2.964c-0.999,0.365-2.345,0.176-4.036-0.576c-0.108-0.047-0.266-0.124-0.479-0.236
				c-0.213-0.114-0.381-0.202-0.52-0.258l3.759-8.467c0.129,0.059,0.316,0.13,0.539,0.211c0.228,0.084,0.391,0.148,0.5,0.195
				c1.691,0.75,2.74,1.593,3.171,2.527C393.037,148.323,392.919,149.539,392.256,151.028L392.256,151.028z"/>
			<path style="fill-rule:evenodd;clip-rule:evenodd;fill:#ED1C24;" d="M495.544,281.297c-0.262-2.206-2.245-3.789-4.451-3.549
				c-13.785,1.503-27.946,2.27-42.093,2.27c-65.964,0-127.783-16.622-165.368-44.459c-0.021-0.015-0.213-0.153-0.213-0.153
				c-1.425-1.012-3.374-0.886-4.776,0.153c-37.587,27.837-99.405,44.459-165.364,44.459c-14.146,0-28.31-0.766-42.098-2.27
				c-2.206-0.24-4.194,1.343-4.449,3.549c-7.08,60.906,2.456,125.279,27.583,186.144c25.844,62.619,67.653,119.843,120.902,165.485
				c19.954,17.101,41.41,32.487,63.772,45.716c-0.005-0.005,0.168,0.101,0.168,0.101c1.274,0.78,2.841,0.66,4.128-0.101
				c22.366-13.233,43.823-28.614,63.776-45.716c53.247-45.643,95.058-102.866,120.902-165.485
				C493.086,406.572,502.622,342.203,495.544,281.297L495.544,281.297z"/>
			<path style="fill-rule:evenodd;clip-rule:evenodd;fill:#FFFFFF;" d="M102.667,293.02v159.24
				c10.336,27.015,23.725,53.267,39.944,78.154v-238.29c-9.655,0.715-19.451,1.086-29.332,1.086
				C109.738,293.21,106.201,293.131,102.667,293.02L102.667,293.02z"/>
			<path style="fill-rule:evenodd;clip-rule:evenodd;fill:#FFFFFF;" d="M175.702,521.239v53.442
				c14.596,17.119,30.657,33.278,48.097,48.227c1.078,0.925,2.174,1.825,3.26,2.737v-64.794
				C206.863,551.972,189.261,538.286,175.702,521.239L175.702,521.239z"/>
			<path style="fill-rule:evenodd;clip-rule:evenodd;fill:#FFFFFF;" d="M175.702,353.802c13.56-17.052,31.162-30.736,51.357-39.617
				v-38.423c-15.967,5.333-33.244,9.534-51.357,12.477V353.802L175.702,353.802z"/>
			<path style="fill-rule:evenodd;clip-rule:evenodd;fill:#FFFFFF;" d="M260.154,570.54v80.294
				c6.885,4.745,13.884,9.291,20.985,13.614c7.097-4.323,14.096-8.869,20.98-13.609v-80.296c-6.835,1.071-13.844,1.637-20.98,1.637
				C273.999,572.18,266.99,571.609,260.154,570.54L260.154,570.54z"/>
			<path style="fill-rule:evenodd;clip-rule:evenodd;fill:#FFFFFF;" d="M260.154,262.115v42.38
				c6.836-1.071,13.845-1.637,20.985-1.637c7.142,0,14.145,0.566,20.98,1.637v-42.385c-7.503-3.777-14.537-7.855-20.98-12.23
				C274.694,254.256,267.663,258.334,260.154,262.115L260.154,262.115z"/>
			<path style="fill-rule:evenodd;clip-rule:evenodd;fill:#FFFFFF;" d="M335.215,560.849v64.796c1.089-0.912,2.182-1.812,3.26-2.737
				c17.44-14.948,33.507-31.107,48.098-48.225v-53.444C373.01,538.284,355.416,551.975,335.215,560.849L335.215,560.849z"/>
			<path style="fill-rule:evenodd;clip-rule:evenodd;fill:#FFFFFF;" d="M335.215,314.185c20.196,8.879,37.8,22.562,51.358,39.612
				v-65.561c-18.113-2.94-35.391-7.142-51.358-12.474V314.185L335.215,314.185z"/>
			<path style="fill-rule:evenodd;clip-rule:evenodd;fill:#FFFFFF;" d="M449,293.21c-9.883,0-19.677-0.371-29.337-1.086v238.29
				c16.219-24.883,29.608-51.13,39.946-78.144V293.022C456.073,293.134,452.541,293.21,449,293.21L449,293.21z"/>
			<path style="fill-rule:evenodd;clip-rule:evenodd;fill:#ED1C24;" d="M158.624,713.892c-4.363,0-7.622,1.538-9.774,4.609
				c-2.157,3.077-3.235,7.702-3.235,13.882c0,6.198,1.073,10.825,3.22,13.882c2.146,3.057,5.411,4.585,9.789,4.585
				c4.378,0,7.642-1.523,9.799-4.572c2.151-3.05,3.23-7.664,3.23-13.843c0-6.183-1.085-10.817-3.257-13.908
				C166.224,715.438,162.967,713.892,158.624,713.892L158.624,713.892z M162.873,741.848c-0.896,1.993-2.31,2.987-4.249,2.987
				c-1.941,0-3.353-0.986-4.239-2.963c-0.886-1.973-1.331-5.143-1.331-9.514c0-4.367,0.445-7.536,1.331-9.502
				c0.885-1.966,2.297-2.95,4.239-2.95c1.939,0,3.353,0.989,4.249,2.963c0.895,1.974,1.34,5.139,1.34,9.489
				C164.214,736.694,163.768,739.857,162.873,741.848L162.873,741.848z"/>
			<path style="fill-rule:evenodd;clip-rule:evenodd;fill:#ED1C24;" d="M189.929,713.892c-1.189,0-2.179,0.653-2.965,1.953
				c-0.136,0.218-0.228,0.366-0.277,0.45c-0.052,0.084-0.126,0.208-0.225,0.376c-0.94,1.504-1.894,2.414-2.867,2.73
				c-0.888,0.3-1.921,0.515-3.094,0.649c-1.172,0.133-1.84,0.218-2.008,0.252c-0.455,0.119-0.816,0.391-1.083,0.821
				c-0.267,0.43-0.401,0.959-0.401,1.583c0,0.86,0.218,1.506,0.651,1.936c0.433,0.43,1.086,0.645,1.954,0.645h6.259v21.339
				c0,1.241,0.297,2.177,0.895,2.805c0.598,0.628,1.486,0.945,2.666,0.945c1.177,0,2.067-0.316,2.666-0.945
				c0.596-0.628,0.895-1.563,0.895-2.805v-29.653c0-1.004-0.264-1.766-0.791-2.292C191.676,714.154,190.919,713.892,189.929,713.892
				L189.929,713.892z"/>
			<path style="fill-rule:evenodd;clip-rule:evenodd;fill:#ED1C24;" d="M209.682,741.749c-1.177,0-2.187,0.425-3.027,1.273
				c-0.841,0.849-1.261,1.855-1.261,3.015c0,1.178,0.423,2.193,1.274,3.052c0.848,0.857,1.854,1.286,3.015,1.286
				c1.175,0,2.194-0.425,3.049-1.274c0.861-0.848,1.289-1.87,1.289-3.064c0-1.195-0.42-2.206-1.261-3.039
				C211.918,742.164,210.892,741.749,209.682,741.749L209.682,741.749z"/>
			<path style="fill-rule:evenodd;clip-rule:evenodd;fill:#ED1C24;" d="M238.631,713.892c-4.363,0-7.62,1.538-9.774,4.609
				c-2.157,3.077-3.233,7.702-3.233,13.882c0,6.198,1.073,10.825,3.22,13.882c2.147,3.057,5.409,4.585,9.786,4.585
				c4.377,0,7.642-1.523,9.798-4.572c2.154-3.05,3.232-7.664,3.232-13.843c0-6.183-1.085-10.817-3.257-13.908
				C246.233,715.438,242.973,713.892,238.631,713.892L238.631,713.892z M242.879,741.848c-0.893,1.993-2.31,2.987-4.249,2.987
				c-1.939,0-3.354-0.986-4.239-2.963c-0.885-1.973-1.328-5.143-1.328-9.514c0-4.367,0.443-7.536,1.328-9.502
				c0.886-1.966,2.3-2.95,4.239-2.95c1.939,0,3.356,0.989,4.249,2.963c0.895,1.974,1.343,5.139,1.343,9.489
				C244.222,736.694,243.775,739.857,242.879,741.848L242.879,741.848z"/>
			<path style="fill-rule:evenodd;clip-rule:evenodd;fill:#ED1C24;" d="M267.166,713.892c-3.784,0-6.828,1.162-9.138,3.489
				c-2.31,2.327-3.465,5.382-3.465,9.163c0,3.566,1.064,6.41,3.19,8.535c2.127,2.124,4.957,3.188,8.488,3.188
				c1.425,0,2.706-0.208,3.843-0.626c1.138-0.418,2.127-1.041,2.963-1.877c-0.133,3.26-0.687,5.664-1.667,7.217
				c-0.977,1.553-2.426,2.33-4.348,2.33c-0.635,0-1.236-0.106-1.805-0.322c-0.569-0.215-0.994-0.477-1.276-0.786
				c-0.118-0.139-0.302-0.352-0.554-0.643c-1.571-1.786-2.874-2.682-3.91-2.682c-0.918,0-1.679,0.302-2.28,0.901
				c-0.601,0.603-0.903,1.375-0.903,2.325c0,1.795,0.989,3.393,2.973,4.798c1.978,1.404,4.358,2.106,7.133,2.106
				c4.58,0,8.087-1.661,10.531-4.98c2.438-3.324,3.655-8.105,3.655-14.344c0-5.788-1.143-10.199-3.436-13.236
				C274.867,715.41,271.536,713.892,267.166,713.892L267.166,713.892z M271.464,730.885c-0.975,1.07-2.327,1.605-4.056,1.605
				c-1.763,0-3.131-0.547-4.105-1.642c-0.974-1.096-1.459-2.637-1.459-4.63c0-2.038,0.485-3.626,1.459-4.764
				c0.975-1.138,2.342-1.706,4.105-1.706c1.662,0,2.998,0.608,4.004,1.82c1.007,1.212,1.511,2.829,1.511,4.852
				C272.923,728.324,272.436,729.814,271.464,730.885L271.464,730.885z"/>
			<path style="fill-rule:evenodd;clip-rule:evenodd;fill:#ED1C24;" d="M289.685,741.749c-1.177,0-2.187,0.425-3.027,1.273
				c-0.841,0.849-1.261,1.855-1.261,3.015c0,1.178,0.425,2.193,1.27,3.052c0.852,0.857,1.856,1.286,3.018,1.286
				c1.178,0,2.191-0.425,3.051-1.274c0.855-0.848,1.286-1.87,1.286-3.064c0-1.195-0.42-2.206-1.262-3.039
				C291.92,742.164,290.892,741.749,289.685,741.749L289.685,741.749z"/>
			<path style="fill-rule:evenodd;clip-rule:evenodd;fill:#ED1C24;" d="M320.762,713.892c-1.191,0-2.181,0.653-2.968,1.953
				c-0.133,0.218-0.227,0.366-0.276,0.45c-0.05,0.084-0.124,0.208-0.223,0.376c-0.939,1.504-1.895,2.414-2.869,2.73
				c-0.885,0.3-1.919,0.515-3.091,0.649c-1.173,0.133-1.841,0.218-2.009,0.252c-0.455,0.119-0.816,0.391-1.083,0.821
				c-0.268,0.43-0.4,0.959-0.4,1.583c0,0.86,0.218,1.506,0.647,1.936c0.435,0.43,1.088,0.645,1.954,0.645h6.262v21.339
				c0,1.241,0.297,2.177,0.895,2.805c0.598,0.628,1.483,0.945,2.666,0.945c1.177,0,2.067-0.316,2.666-0.945
				c0.594-0.628,0.895-1.563,0.895-2.805v-29.653c0-1.004-0.268-1.766-0.792-2.292C322.508,714.154,321.751,713.892,320.762,713.892
				L320.762,713.892z"/>
			<path style="fill-rule:evenodd;clip-rule:evenodd;fill:#ED1C24;" d="M344.638,713.892c-3.784,0-6.831,1.162-9.141,3.489
				c-2.31,2.327-3.467,5.382-3.467,9.163c0,3.566,1.062,6.41,3.189,8.535c2.127,2.124,4.957,3.188,8.493,3.188
				c1.42,0,2.701-0.208,3.838-0.626c1.138-0.418,2.127-1.041,2.968-1.877c-0.133,3.26-0.693,5.664-1.666,7.217
				c-0.979,1.553-2.429,2.33-4.353,2.33c-0.633,0-1.236-0.106-1.805-0.322c-0.569-0.215-0.994-0.477-1.276-0.786
				c-0.119-0.139-0.302-0.352-0.549-0.643c-1.573-1.786-2.879-2.682-3.913-2.682c-0.92,0-1.682,0.302-2.28,0.901
				c-0.604,0.603-0.905,1.375-0.905,2.325c0,1.795,0.994,3.393,2.973,4.798c1.984,1.404,4.358,2.106,7.133,2.106
				c4.58,0,8.093-1.661,10.531-4.98c2.443-3.324,3.66-8.105,3.66-14.344c0-5.788-1.147-10.199-3.438-13.236
				C352.334,715.41,349.006,713.892,344.638,713.892L344.638,713.892z M348.932,730.885c-0.975,1.07-2.325,1.605-4.057,1.605
				c-1.761,0-3.131-0.547-4.101-1.642c-0.973-1.096-1.464-2.637-1.464-4.63c0-2.038,0.49-3.626,1.464-4.764
				c0.97-1.138,2.34-1.706,4.101-1.706c1.662,0,2.998,0.608,4.007,1.82c1.004,1.212,1.509,2.829,1.509,4.852
				C350.391,728.324,349.905,729.814,348.932,730.885L348.932,730.885z"/>
			<path style="fill-rule:evenodd;clip-rule:evenodd;fill:#ED1C24;" d="M376.581,713.892c-1.187,0-2.177,0.653-2.963,1.953
				c-0.139,0.218-0.228,0.366-0.277,0.45c-0.054,0.084-0.128,0.208-0.227,0.376c-0.94,1.504-1.894,2.414-2.863,2.73
				c-0.891,0.3-1.925,0.515-3.097,0.649c-1.172,0.133-1.84,0.218-2.008,0.252c-0.455,0.119-0.816,0.391-1.084,0.821
				c-0.267,0.43-0.401,0.959-0.401,1.583c0,0.86,0.218,1.506,0.653,1.936c0.43,0.43,1.083,0.645,1.953,0.645h6.258v21.339
				c0,1.241,0.297,2.177,0.894,2.805c0.599,0.628,1.489,0.945,2.666,0.945c1.178,0,2.068-0.316,2.666-0.945
				c0.598-0.628,0.895-1.563,0.895-2.805v-29.653c0-1.004-0.262-1.766-0.791-2.292C378.327,714.154,377.57,713.892,376.581,713.892
				L376.581,713.892z"/>
			<path style="fill-rule:evenodd;clip-rule:evenodd;fill:#ED1C24;" d="M413.401,718.527c-2.172-3.089-5.432-4.635-9.774-4.635
				c-4.362,0-7.617,1.538-9.774,4.609c-2.156,3.077-3.23,7.702-3.23,13.882c0,6.198,1.074,10.825,3.221,13.882
				c2.146,3.057,5.406,4.585,9.783,4.585c4.378,0,7.642-1.523,9.799-4.572c2.156-3.05,3.235-7.664,3.235-13.843
				C416.661,726.252,415.572,721.618,413.401,718.527L413.401,718.527z M407.876,741.848c-0.89,1.993-2.31,2.987-4.249,2.987
				c-1.938,0-3.354-0.986-4.238-2.963c-0.886-1.973-1.326-5.143-1.326-9.514c0-4.367,0.441-7.536,1.326-9.502
				c0.885-1.966,2.3-2.95,4.238-2.95c1.939,0,3.359,0.989,4.249,2.963c0.895,1.974,1.346,5.139,1.346,9.489
				C409.222,736.694,408.771,739.857,407.876,741.848L407.876,741.848z"/>
			<path style="fill-rule:evenodd;clip-rule:evenodd;fill:#FFFFFF;" d="M281.139,340.603c-53.437,0-96.915,43.478-96.915,96.917
				c0,53.438,43.478,96.913,96.915,96.913c53.438,0,96.911-43.476,96.911-96.913C378.05,384.081,334.577,340.603,281.139,340.603
				L281.139,340.603z"/>
			<path style="fill-rule:evenodd;clip-rule:evenodd;fill:#FFFFFF;" d="M281.139,311.999c-69.211,0-125.52,56.309-125.52,125.521
				c0,69.211,56.309,125.518,125.52,125.518c69.207,0,125.515-56.307,125.515-125.518
				C406.654,368.307,350.346,311.999,281.139,311.999L281.139,311.999z M281.139,543.574c-58.478,0-106.056-47.576-106.056-106.054
				c0-58.482,47.578-106.058,106.056-106.058c58.478,0,106.051,47.576,106.051,106.058
				C387.19,495.997,339.617,543.574,281.139,543.574L281.139,543.574z"/>
			<path style="fill-rule:evenodd;clip-rule:evenodd;fill:#ED1C24;" d="M238.534,400.935c4.259,0,7.726-3.512,7.726-7.832
				c0-4.313-3.467-7.825-7.726-7.825h-22.303c-4.259,0-7.726,3.512-7.726,7.825v89.921c0,4.315,3.467,7.827,7.726,7.827h22.303
				c4.259,0,7.726-3.512,7.726-7.827c0-4.319-3.467-7.83-7.726-7.83c0,0-12.433,0-14.577,0c0-2.238,0-27.063,0-29.302
				c2.004,0,10.209,0,10.209,0c4.259,0,7.726-3.512,7.726-7.827c0-4.316-3.467-7.828-7.726-7.828c0,0-8.205,0-10.209,0
				c0-2.238,0-27.063,0-29.302C226.101,400.935,238.534,400.935,238.534,400.935L238.534,400.935z"/>
			<path style="fill-rule:evenodd;clip-rule:evenodd;fill:#ED1C24;" d="M281.134,355.931c-13.826,0-25.079,11.933-25.079,26.599
				v100.926c0,14.666,11.253,26.599,25.079,26.599c13.833,0,25.086-11.933,25.086-26.599v-6.863c0-4.261-3.418-7.726-7.622-7.726
				c-4.199,0-7.612,3.465-7.612,7.726v6.863c0,6.148-4.422,11.149-9.852,11.149c-5.425,0-9.844-5.001-9.844-11.149V382.53
				c0-6.146,4.419-11.146,9.844-11.146c5.43,0,9.852,5.001,9.852,11.146v6.863c0,4.261,3.413,7.726,7.612,7.726
				c4.204,0,7.622-3.465,7.622-7.726v-6.863C306.22,367.864,294.967,355.931,281.134,355.931L281.134,355.931z"/>
			<path style="fill-rule:evenodd;clip-rule:evenodd;fill:#ED1C24;" d="M348.461,384.9c-4.258,0-7.72,3.465-7.72,7.724
				c0,0,0,28.266,0,40.406c-5.698-20.554-10.822-41.878-10.877-42.12c-1.078-3.73-4.738-6.092-8.522-5.555
				c-3.784,0.537-6.638,3.823-6.638,7.647v90.124c0,4.261,3.462,7.726,7.726,7.726c4.259,0,7.722-3.465,7.722-7.726
				c0,0,0-28.266,0-40.404c5.698,20.552,10.822,41.878,10.877,42.12c1.083,3.728,4.738,6.092,8.523,5.558
				c3.789-0.542,6.642-3.831,6.642-7.652v-90.124C356.192,388.364,352.725,384.9,348.461,384.9L348.461,384.9z"/>
		</g>
	</g>
</g>
</svg>
