<?xml version="1.0" encoding="iso-8859-1"?>
<!-- Generator: Adobe Illustrator 23.0.1, SVG Export Plug-In . SVG Version: 6.00 Build 0)  -->
<svg version="1.1" xmlns="http://www.w3.org/2000/svg" xmlns:xlink="http://www.w3.org/1999/xlink" x="0px" y="0px"
	 viewBox="0 0 595.276 841.89" style="enable-background:new 0 0 595.276 841.89;" xml:space="preserve">
<g id="Grade" style="display:none;">
</g>
<g id="HQFL">
</g>
<g id="&#xC1;rea_de_trabalho">
</g>
<g id="Linhas-guia">
</g>
<g id="Page_1">
	<g id="HQFL_1_">
		<g>
			<polygon style="fill-rule:evenodd;clip-rule:evenodd;" points="11.246,158.573 554.183,158.573 554.183,353.845 282.714,708.493 
				11.246,353.845 11.246,158.573 			"/>
			<polygon style="fill-rule:evenodd;clip-rule:evenodd;fill:#FFFFFF;" points="18.859,166.186 546.569,166.186 546.569,351.261 
				282.714,695.992 18.859,351.261 18.859,166.186 			"/>
			<polygon style="fill-rule:evenodd;clip-rule:evenodd;fill:#ED1C24;" points="234.385,596.54 40.858,343.788 234.385,343.788 
				234.385,596.54 			"/>
			<polygon style="fill-rule:evenodd;clip-rule:evenodd;" points="524.569,343.788 331.043,596.54 331.043,343.788 524.569,343.788 
							"/>
			<polygon style="fill-rule:evenodd;clip-rule:evenodd;" points="40.858,188.185 524.569,188.185 524.569,332.056 40.858,332.056 
				40.858,188.185 			"/>
			<polygon style="fill-rule:evenodd;clip-rule:evenodd;fill:#FFFFFF;" points="180.677,310.265 200.862,310.265 200.862,288.894 
				180.677,288.894 180.677,310.265 			"/>
			<polygon style="fill-rule:evenodd;clip-rule:evenodd;fill:#FFFFFF;" points="107.625,262.914 143.802,262.914 143.802,245.803 
				107.625,245.803 107.625,220.381 157.211,220.381 157.211,202.992 87.581,202.992 87.581,310.265 159.447,310.265 
				159.447,291.968 107.625,291.968 107.625,262.914 			"/>
			<path style="fill-rule:evenodd;clip-rule:evenodd;fill:#FFFFFF;" d="M271.54,294.202c-15.365,0-32.057-12.082-32.057-36.946
				c0-25.771,16.971-38.621,31.568-38.621c9.777,0,21.161,5.308,23.815,15.644l18.648-4.609c-4.192-18.158-22-28.076-41.276-28.076
				c-27.447,0-53.288,19.835-53.288,55.522c0,36.317,24.374,54.964,52.1,54.964c20.324,0,39.32-10.196,44.627-28.634l-18.577-5.168
				C294.308,288.126,281.387,294.202,271.54,294.202L271.54,294.202z"/>
			<polygon style="fill-rule:evenodd;clip-rule:evenodd;fill:#FFFFFF;" points="471.701,288.894 471.701,310.265 491.954,310.265 
				491.954,288.894 471.701,288.894 			"/>
			<path style="fill-rule:evenodd;clip-rule:evenodd;fill:#FFFFFF;" d="M432.381,202.992h-49.656v107.274h20.394v-43.371h31.218
				c23.326,0,33.943-11.244,33.943-32.056C468.278,213.328,457.523,202.992,432.381,202.992L432.381,202.992z M429.447,249.924
				h-26.329v-30.311h26.329c13.899,0,18.578,3.562,18.578,15.225C448.025,246.362,443.206,249.924,429.447,249.924L429.447,249.924z
				"/>
			<polygon style="fill-rule:evenodd;clip-rule:evenodd;fill:#FFFFFF;" points="336.001,310.265 356.255,310.265 356.255,288.894 
				336.001,288.894 336.001,310.265 			"/>
		</g>
	</g>
</g>
</svg>
