<?xml version="1.0" encoding="iso-8859-1"?>
<!-- Generator: Adobe Illustrator 23.0.1, SVG Export Plug-In . SVG Version: 6.00 Build 0)  -->
<svg version="1.1" xmlns="http://www.w3.org/2000/svg" xmlns:xlink="http://www.w3.org/1999/xlink" x="0px" y="0px"
	 viewBox="0 0 595.276 841.89" style="enable-background:new 0 0 595.276 841.89;" xml:space="preserve">
<g id="Grade" style="display:none;">
</g>
<g id="HQFL">
</g>
<g id="&#xC1;rea_de_trabalho">
</g>
<g id="Linhas-guia">
</g>
<g id="Page_1">
	<g id="HQFL_1_">
		<g>
			<path style="fill-rule:evenodd;clip-rule:evenodd;fill:#034EA2;" d="M2.533,430.887c0,157.664,128.271,285.939,285.938,285.939
				c157.663,0,285.939-128.275,285.939-285.939c0-157.666-128.275-285.937-285.939-285.937
				C130.804,144.95,2.533,273.221,2.533,430.887L2.533,430.887z"/>
			<path style="fill-rule:evenodd;clip-rule:evenodd;fill:#FFFFFF;" d="M10.033,430.887c0,153.533,124.907,278.439,278.438,278.439
				c153.532,0,278.439-124.906,278.439-278.439c0-153.53-124.906-278.437-278.439-278.437
				C134.94,152.45,10.033,277.358,10.033,430.887L10.033,430.887z"/>
			<path style="fill-rule:evenodd;clip-rule:evenodd;fill:#034EA2;" d="M78.47,430.887c0,115.799,94.206,210.002,210,210.002
				c115.798,0,210.001-94.203,210.001-210.002c0-115.793-94.203-209.999-210.001-209.999
				C172.676,220.888,78.47,315.094,78.47,430.887L78.47,430.887z"/>
			<path style="fill-rule:evenodd;clip-rule:evenodd;fill:#FFFFFF;" d="M85.971,430.887c0-111.659,90.84-202.499,202.5-202.499
				c111.659,0,202.501,90.84,202.501,202.499c0,111.66-90.842,202.502-202.501,202.502
				C176.811,633.389,85.971,542.547,85.971,430.887L85.971,430.887z"/>
			<path style="fill-rule:evenodd;clip-rule:evenodd;fill:#034EA2;" d="M407.872,436.348c-4.71-7.302-10.716-11.942-18.018-13.923
				c6.174-4.025,10.803-9.093,13.887-15.202c3.083-6.108,4.629-13.26,4.629-21.453c0-10.781-3.076-19.039-9.228-24.774
				c-6.152-5.735-14.964-8.603-26.448-8.603h-19.329c0.293-3.094,0.439-7.093,0.439-12.041c0-8.555-0.52-15.051-1.545-19.505
				c-1.026-4.448-2.842-8.095-5.435-10.952c-4.329-4.79-9.03-8.384-14.114-10.781c-5.082-2.393-10.656-3.594-16.713-3.594
				c-10.41,0-19.349,4.596-26.842,13.744c-2.098-2.172-4.488-3.853-8.364-6.182c-7.178-4.314-13.266-6.184-20.927-6.184
				c-10.906,0-24.055,7.804-32.8,17.179c-7.672,8.223-15.581,22.844-21.343,38.314h-34.219c-2.409,0-4.178,0.527-5.313,1.582
				c-1.135,1.055-1.703,2.699-1.703,4.94c0,2.582,0.996,4.79,2.996,6.625c0.275,0.271,0.517,0.509,0.722,0.714
				c1.102,1.157,1.773,2.142,2.014,2.955c0.242,0.813,0.362,2.106,0.362,3.871v109.122v1.025c0,2.321-0.223,3.926-0.667,4.812
				c-0.443,0.886-1.348,1.81-2.71,2.761c-1.706,1.231-2.783,2.352-3.226,3.377c-0.444,1.025-0.663,2.358-0.663,3.992
				c0,1.846,0.425,3.244,1.274,4.196c0.85,0.96,2.124,1.435,3.823,1.435h32.585c2.946,8.913,6.255,14.619,11.664,22.559
				c4.966,7.221,10.371,12.612,16.208,16.165c5.837,3.552,12.319,5.332,19.453,5.332c5.552,0,10.759-1.1,15.631-3.297
				c3.695,3.538,7.678,6.549,10.912,8.629c11.986,7.697,26.825,8.584,34.524,8.584c35.428,0,61.318-24.814,64.834-57.972h1.941
				c12.275,0,21.805-3.721,28.594-11.155c6.782-7.442,10.174-17.849,10.174-31.225C414.933,452.007,412.581,443.65,407.872,436.348
				L407.872,436.348z M382.391,373.019c3.099,2.97,4.651,8.071,4.651,15.304c0,8.665-6.754,15.71-12.752,21.138
				c-5.698,5.16-23.592,8.199-34.365,9.129c-0.278-0.242-0.557-0.479-0.893-0.75c-0.241-0.198-0.491-0.374-0.739-0.557v-41.755
				c0-2.864,0.512-4.743,1.537-5.629c1.019-0.886,3.779-1.333,8.284-1.333h17.659C373.748,368.566,379.285,370.053,382.391,373.019
				L382.391,373.019z M338.292,458.258c4.467,5.006,11.469,13.867,12.67,30.119c-1.215-0.029-2.387-0.044-3.457-0.044
				c-4.094,0-6.657-0.513-7.676-1.538c-1.025-1.026-1.537-3.377-1.537-7.068V458.258L338.292,458.258z M317.278,316.608
				c4.761,0,8.921,1.91,12.495,5.727c3.567,3.82,6.54,9.492,8.921,17.014c0.542,1.375,1.135,3.369,1.787,5.991
				c0.645,2.465,1.31,4.856,1.992,7.053h-22.772c-3.105,0-5.31,0.615-6.628,1.842c-1.312,1.231-1.97,3.277-1.97,6.141
				c0,2.732,1.377,5.087,4.138,7.065c0.739,0.545,1.348,0.989,1.816,1.329c0.469,0.41,0.806,1.128,1.011,2.15
				c0.197,1.026,0.301,2.56,0.301,4.607v32.67c-9.156-3.794-14.376-6.808-18.814-9.327c-8.708-4.948-15.646-15.615-11.884-39.716
				c1.406,7.987,3.497,11.986,6.288,11.986c1.729,0,3.032-1.289,3.896-3.882c0.864-2.585,1.296-6.467,1.296-11.653
				c0-16.172-0.329-22.939-0.974-27.795c-0.011-0.092-0.033-0.168-0.044-0.26C302.328,321.786,308.79,316.608,317.278,316.608
				L317.278,316.608z M187.689,381.885c0-6.006,0.564-9.844,1.692-11.514c1.128-1.67,3.296-2.509,6.508-2.509h4.975
				c-2.303,8.69-4.122,17.673-5.443,26.957c-0.841,5.877-1.465,11.902-1.908,18.043h-5.823V381.885L187.689,381.885z
				 M189.022,485.872c-0.889-1.018-1.333-3.083-1.333-6.204V430.91h5.111c-0.011,1.07-0.053,2.12-0.053,3.197
				c0,19.27,0.619,37.023,3.971,53.289h-1.445C191.993,487.396,189.908,486.891,189.022,485.872L189.022,485.872z M247.034,526.764
				c-10.126,0-18.34-7.72-24.697-22.962h24.613c0.055,5.391,1.062,11.579,3.061,18.597c0.581,2.035,1.02,3.369,1.427,4.416
				C249.888,526.852,248.426,526.764,247.034,526.764L247.034,526.764z M343.067,523.643
				c-11.631,15.887-25.357,17.315-33.033,17.315c-10.299,0-21.135-2.387-29.63-9.514c3.919-4.746,7.546-10.509,10.875-17.336
				c1.941-3.984,3.428-7.801,4.453-11.463c1.025-3.662,1.545-6.994,1.545-10.012c0-3.444-0.549-6.351-1.633-8.724
				c-1.084-2.366-2.337-3.552-3.75-3.552c-1.963,0-4.57,5.91-7.83,12.605c-1.304,2.593-2.337,4.541-3.098,5.837
				c-3.161,6.08-7.603,12.517-11.263,17.051c-1.025-2.519-1.963-5.222-2.811-8.122c-0.439-1.94-1.142-4.798-2.124-8.561
				c-1.776-7.691-3.761-12.517-5.954-14.524c0.081-2.183,0.124-4.564,0.124-7.178c0-2.175-0.479-3.882-1.432-5.105
				c-0.956-1.223-2.219-1.839-3.787-1.839c-2.252,0-4.538,1.999-6.856,5.999c-1.091,1.897-1.945,3.186-2.556,3.86
				c-2.457,2.578-5.068,4.387-7.83,5.441c-2.761,1.048-7.145,1.575-13.144,1.575h-6.337c-3.832-15.388-5.812-34.217-5.94-56.487
				h13.2c3.212,0,6.185,1.136,8.918,3.398c2.732,2.267,4.545,3.398,5.435,3.398c1.912,0,3.277-0.718,4.097-2.161
				c0.82-1.439,1.231-3.874,1.231-7.302v-13.022c0-2.6-0.461-4.622-1.384-6.061c-0.923-1.435-2.204-2.157-3.841-2.157
				c-1.641,0-3.384,0.996-5.23,2.981c-0.615,0.688-1.095,1.168-1.435,1.439c-0.615,0.41-1.575,0.754-2.871,1.029
				c-1.296,0.275-2.802,0.41-4.508,0.41h-13.118c1.062-17.483,3.789-32.468,7.3-44.963c4.938,0.092,9.033,0.575,12.186,1.498
				c3.49,1.025,6.193,2.662,8.111,4.914c0.82,0.886,1.846,2.183,3.08,3.889c2.805,3.889,5.233,5.834,7.288,5.834
				c1.296,0,2.256-0.645,2.871-1.937c0.615-1.293,0.926-3.3,0.926-6.024c0-10.137-0.754-16.618-2.263-19.442
				c-1.509-2.824-5.522-4.237-12.034-4.237h-14.939c7.116-16.643,21.455-35.272,31.307-35.272c6.592,0,14.281,1.621,19.525,8.374
				c0.943,1.214,1.824,2.53,2.673,3.893c-6.226,14.191-10.675,31.15-10.675,50.98c0,11.883,2.868,25.562,7.639,33.259
				c5.455,8.8,12.517,16.735,24.4,22.477c7.579,3.662,6.999,3.277,14.801,6.05c1.517,0.542,2.593,0.975,3.245,1.201
				c0.49,0.188,0.93,0.345,1.377,0.51v32.792c0,2.791-0.184,5.141-0.557,7.046c-0.374,1.904-0.96,3.164-1.773,3.772
				c-0.205,0.271-0.57,0.615-1.113,1.018c-3.171,2.791-4.76,5.647-4.76,8.569c0,2.109,0.593,3.765,1.772,4.951
				c1.187,1.194,2.857,1.787,5.018,1.787h33.742C349.959,510.819,348.025,516.876,343.067,523.643L343.067,523.643z
				 M385.877,481.214c-3.025,2.894-7.067,4.643-11.491,5.706c-1.692-27.934-10.973-43.212-18.728-52.137
				c4.16-0.549,8.664-1.204,11.309-1.97c6.072,1.366,13.125,1.864,21.562,10.306c4.073,4.069,5.076,9.361,5.076,16.53
				C393.604,469.284,390.938,476.374,385.877,481.214L385.877,481.214z"/>
			<path style="fill-rule:evenodd;clip-rule:evenodd;fill:#034EA2;" d="M142.188,598.643c-4.389,0.184-7.841,1.862-10.258,4.996
				c-2.217,2.871-2.874,6.254-1.955,10.063c0.877,3.641,3.477,8.284,7.727,13.792c3.015,3.911,4.788,6.826,5.272,8.672
				c0.583,2.315,0.249,4.248-1.018,5.896c-1.42,1.832-3.437,2.762-6.173,2.82c-2.772,0.066-5.723-1.099-8.774-3.457
				c-2.193-1.685-3.767-3.537-4.676-5.486c-0.915-1.955-1.342-3.962-1.267-5.961c0.002,0,1.326-5.355,1.326-5.355l-0.687-0.425
				l-6.304-2.791l-0.355,0.916c-1.047,2.725-1.54,5.178-1.463,7.303c0.097,3.068,0.977,6.13,2.618,9.082
				c1.635,2.936,3.948,5.566,6.874,7.829c4.702,3.626,9.45,5.405,14.113,5.288c4.74-0.125,8.465-1.896,11.073-5.281
				c2.329-3.017,3.191-6.394,2.559-10.033c-0.655-3.567-3.109-8.057-7.501-13.748c-3.468-4.497-5.402-7.837-5.748-9.917
				c-0.364-1.999-0.055-3.589,0.932-4.87c1.249-1.619,3.023-2.44,5.426-2.498c2.446-0.066,4.958,0.879,7.467,2.813
				c2.377,1.831,3.99,4.014,4.796,6.475c0.806,2.469,0.718,5.002-0.273,7.742l-0.308,0.842l7.031,2.871l0.33-0.923
				c0.862-2.409,1.229-4.665,1.091-6.716c-0.201-2.938-1.124-5.771-2.739-8.408c-1.594-2.601-3.697-4.915-6.248-6.885
				C150.854,600.028,146.518,598.467,142.188,598.643L142.188,598.643z"/>
			<path style="fill-rule:evenodd;clip-rule:evenodd;fill:#034EA2;" d="M202.53,641.336c-0.584-3.098-1.87-6.064-3.821-8.81
				c-1.959-2.762-4.699-5.047-8.139-6.79c-3.94-1.999-8.111-2.894-12.396-2.666c-4.319,0.234-8.428,1.882-12.217,4.899
				c-3.742,2.982-6.802,6.783-9.093,11.302c-3.652,7.207-4.419,14.319-2.283,21.138c1.854,5.845,5.772,10.32,11.648,13.293
				c1.773,0.895,3.968,1.598,6.524,2.08c2.587,0.498,5.163,0.514,7.657,0.052c1.89-0.345,3.97-1.062,6.176-2.139
				c2.214-1.077,4.475-2.702,6.722-4.827c2.248-2.123,4.277-4.958,6.026-8.4c1.595-3.15,2.684-6.387,3.237-9.609
				C203.121,647.614,203.109,644.412,202.53,641.336L202.53,641.336z M192.214,657.142c-2.99,5.903-6.728,9.704-11.106,11.294
				c-4.42,1.604-8.522,1.392-12.537-0.644c-3.737-1.89-6.156-4.951-7.4-9.367c-1.238-4.381-0.289-9.705,2.813-15.828
				c3.144-6.211,6.947-10.203,11.299-11.865c4.385-1.67,8.382-1.531,12.219,0.41c3.95,2,6.388,4.893,7.457,8.848
				C196.319,645.094,195.396,650.866,192.214,657.142L192.214,657.142z"/>
			<path style="fill-rule:evenodd;clip-rule:evenodd;fill:#034EA2;" d="M244.333,652.139c-1.027-2.754-2.88-5.149-5.512-7.104
				c-2.571-1.912-6.255-3.619-10.95-5.062l-17.027-5.229l-0.276,0.893l-14.973,48.728l6.943,2.139c0,0,6.14-19.973,6.644-21.621
				c1.52,0.462,12.269,3.773,13.177,4.051c0.226,1.017,5.674,25.4,5.674,25.4l7.459,2.293c0,0-5.482-25.078-5.901-27.005
				c3.813-0.052,7.07-0.726,9.511-2.204c2.757-1.663,4.618-4.022,5.531-6.995c0.343-1.113,0.527-2.233,0.555-3.369
				C245.228,655.428,244.943,653.78,244.333,652.139L244.333,652.139z M237.164,658.006c-0.513,1.67-1.406,2.951-2.735,3.911
				c-1.313,0.952-2.944,1.429-4.851,1.406c-2.846,0.007-5.616-0.395-8.247-1.201c0,0-8.808-2.71-10.325-3.171
				c0.474-1.539,4.488-14.606,4.96-16.136c1.557,0.476,12.197,3.75,12.197,3.75c3.895,1.194,6.582,2.864,7.993,4.958
				C237.543,653.583,237.873,655.7,237.164,658.006L237.164,658.006z"/>
			<path style="fill-rule:evenodd;clip-rule:evenodd;fill:#034EA2;" d="M289.745,667.008c-0.688-3.209-1.89-6.182-3.57-8.826
				c-1.694-2.658-3.988-4.937-6.821-6.76c-2.844-1.839-6.233-2.945-10.078-3.281c-4.4-0.389-8.606,0.322-12.499,2.131
				c-3.918,1.816-7.123,4.871-9.525,9.082c-2.37,4.152-3.797,8.826-4.245,13.872c-0.714,8.042,1.212,14.934,5.726,20.471
				c3.895,4.738,9.194,7.434,15.753,8.02c1.977,0.176,4.275,0.008,6.832-0.49c2.58-0.498,4.977-1.443,7.126-2.806
				c1.617-1.003,3.281-2.438,4.943-4.27c1.657-1.823,3.155-4.174,4.447-6.979c1.304-2.813,2.135-6.189,2.475-10.034
				C290.62,673.614,290.43,670.208,289.745,667.008L289.745,667.008z M282.465,676.69c-0.586,6.592-2.644,11.507-6.117,14.612
				c-3.506,3.128-7.392,4.46-11.881,4.058c-4.169-0.366-7.555-2.314-10.349-5.955c-2.774-3.604-3.873-8.898-3.267-15.739
				c0.617-6.936,2.666-12.056,6.09-15.212c3.45-3.172,7.209-4.534,11.497-4.153c4.409,0.388,7.749,2.168,10.208,5.442
				C281.8,663.983,283.087,669.681,282.465,676.69L282.465,676.69z"/>
			<path style="fill-rule:evenodd;clip-rule:evenodd;fill:#034EA2;" d="M312.312,647.686c-4.321,0.447-8.18,1.941-11.461,4.446
				c-3.302,2.513-5.705,6.064-7.148,10.554c-1.421,4.439-1.89,9.141-1.388,13.982c0.568,5.435,2.109,10.158,4.589,14.048
				c2.505,3.911,5.658,6.768,9.373,8.496c3.706,1.722,7.728,2.373,11.953,1.94c3.493-0.365,6.768-1.449,9.741-3.215
				c2.981-1.772,5.42-4.16,7.251-7.082c1.399-2.234,2.409-5.047,3.024-8.365l0.184-1.025l-7.713-0.6l-0.139,0.85
				c-0.418,2.461-0.996,4.395-1.728,5.734c-1.128,2.109-2.658,3.823-4.556,5.09c-1.911,1.276-4.145,2.051-6.65,2.308
				c-4.153,0.433-7.676-0.718-10.781-3.501c-3.759-3.436-6.033-8.716-6.755-15.703c-0.703-6.746,0.433-12.195,3.365-16.201
				c2.414-3.267,5.668-5.068,9.93-5.508c3.099-0.322,5.941,0.293,8.445,1.824c2.512,1.524,4.533,4.109,6.014,7.668l0.307,0.747
				l7.449-1.86l-0.395-0.996c-1.195-3.025-2.725-5.493-4.548-7.346c-2.461-2.52-5.215-4.315-8.196-5.34
				C319.513,647.614,316.092,647.291,312.312,647.686L312.312,647.686z"/>
			<path style="fill-rule:evenodd;clip-rule:evenodd;fill:#034EA2;" d="M354.412,639.842l-0.638,0.184l-8.773,2.556l-3.333,55.042
				l7.112-2.08c0,0,0.922-15.183,0.996-16.399c1.156-0.337,18.91-5.508,20.075-5.845c0.71,0.988,9.573,13.322,9.573,13.322
				l7.097-2.064L354.412,639.842L354.412,639.842z M350.208,671.944c0.132-2.175,1.201-19.885,1.45-23.979
				c2.396,3.324,12.73,17.725,13.989,19.482C363.618,668.04,352.244,671.351,350.208,671.944L350.208,671.944z"/>
			<path style="fill-rule:evenodd;clip-rule:evenodd;fill:#034EA2;" d="M424.249,649.694c-1.201-2.373-3.274-4.205-6.168-5.435
				c-2.358-0.996-5.258-1.311-8.547-1.091c1.721-2.241,2.996-4.476,3.457-6.65c0.205-0.96,0.308-1.89,0.308-2.783
				c0-1.714-0.374-3.304-1.106-4.753c-1.641-3.245-4.717-5.303-9.141-6.123c-4.336-0.799-9.558,0.322-15.52,3.347l-17.768,8.988
				l23.437,46.318l18.655-9.441c5.873-2.967,9.865-6.629,11.857-10.877C425.743,656.864,425.919,652.997,424.249,649.694
				L424.249,649.694z M379.102,637.557c1.457-0.74,11.565-5.852,11.565-5.852c3.817-1.934,7.061-2.674,9.624-2.19
				c2.505,0.469,4.189,1.604,5.134,3.486c0.44,0.872,0.667,1.765,0.667,2.702c0,1.217-0.374,2.506-1.128,3.883
				c-1.362,2.512-4.929,5.244-10.605,8.115c0,0-6.688,3.376-8.057,4.072C385.584,650.36,379.819,638.971,379.102,637.557
				L379.102,637.557z M417.078,658.981c-1.56,3.105-4.307,5.668-8.159,7.617c0,0-10.576,5.354-12.041,6.094
				c-0.725-1.435-7.053-13.939-7.778-15.374c1.442-0.725,10.649-5.391,10.657-5.391c2.746-1.392,5.404-2.292,7.888-2.68
				c2.402-0.373,4.424-0.22,6.006,0.469c1.567,0.682,2.68,1.707,3.398,3.135c0.528,1.047,0.791,2.072,0.791,3.098
				C417.84,656.959,417.591,657.962,417.078,658.981L417.078,658.981z"/>
			<path style="fill-rule:evenodd;clip-rule:evenodd;fill:#034EA2;" d="M422.872,603.763l-0.535,0.395l-7.339,5.457l16.069,52.748
				l5.939-4.424c0,0-4.431-14.553-4.782-15.717c0.967-0.719,15.806-11.756,16.78-12.48c1.01,0.687,13.607,9.154,13.607,9.154
				l5.941-4.408L422.872,603.763L422.872,603.763z M430.122,635.323c-0.637-2.087-5.808-19.057-7.002-22.982
				c3.406,2.292,18.105,12.172,19.9,13.389C441.329,626.989,431.821,634.056,430.122,635.323L430.122,635.323z"/>
			<path style="fill-rule:evenodd;clip-rule:evenodd;fill:#034EA2;" d="M73.453,470.293l-5.516,1.59c0,0,8.042,27.92,8.529,29.619
				c-1.547,0.447-15.231,4.387-16.78,4.834c-0.473-1.648-5.805-20.164-5.805-20.164l-6.42,1.854c0,0,5.334,18.516,5.806,20.156
				c-1.503,0.432-12.459,3.589-13.963,4.022c-0.483-1.686-7.784-27.027-7.784-27.027l-6.307,1.816l9.827,34.124l49.887-14.37
				l-10.575-36.709L73.453,470.293L73.453,470.293z"/>
			<path style="fill-rule:evenodd;clip-rule:evenodd;fill:#034EA2;" d="M56.544,427.467c-3.783,0.286-6.861,1.952-9.146,4.947
				c-2.238,2.963-3.938,7.947-5.202,15.235c-1.001,5.783-2.177,9.577-3.495,11.287c-1.24,1.655-2.631,2.515-4.261,2.64
				c-2.014,0.154-3.796-0.652-5.455-2.458c-1.692-1.842-2.677-4.439-2.926-7.72c-0.234-3.112,0.298-5.866,1.584-8.185
				c1.271-2.292,3.267-4.016,5.931-5.127l0.815-0.337l-2.573-7.391l-0.921,0.389c-2.366,1-4.29,2.277-5.722,3.801
				c-2.043,2.188-3.518,4.846-4.383,7.903c-0.857,3.021-1.164,6.236-0.914,9.559c0.417,5.496,2.168,9.909,5.206,13.112
				c3.089,3.259,6.648,4.768,10.579,4.467c3.622-0.27,6.577-2.102,8.787-5.427c2.146-3.224,3.796-8.274,5.041-15.445
				c0.87-5.017,1.842-8.396,2.893-10.045c1.35-2.051,3.025-3.131,5.112-3.288c2.32-0.176,4.369,0.736,6.266,2.794
				c1.926,2.084,3.056,5.152,3.357,9.122c0.216,2.852-0.106,5.336-0.956,7.379c-0.85,2.048-2.076,3.758-3.645,5.08
				c-0.942,0.783-2.355,1.553-4.199,2.285l-0.811,0.322l2.419,7.641l0.933-0.366c2.723-1.07,4.871-2.38,6.387-3.911
				c2.223-2.176,3.904-4.96,4.99-8.256c1.079-3.27,1.479-6.855,1.192-10.653c-0.461-6.105-2.324-10.972-5.537-14.473
				C64.617,428.786,60.801,427.145,56.544,427.467L56.544,427.467z"/>
			<path style="fill-rule:evenodd;clip-rule:evenodd;fill:#034EA2;" d="M49.974,409.501c0.216-1.589,1.553-11.371,1.553-11.371
				c0.287-2.098,0.43-4.039,0.43-5.812c0-1.392-0.088-2.681-0.267-3.856c-0.407-2.673-1.139-5.065-2.174-7.112
				c-1.051-2.087-2.388-3.765-3.971-4.988c-1.604-1.234-3.554-2.018-5.793-2.326c-3.893-0.528-7.542,0.868-10.847,4.149
				c-3.241,3.219-5.351,8.269-6.271,15.011l-2.688,19.651l51.436,7.031l1.001-7.317C72.382,412.563,51.68,409.736,49.974,409.501
				L49.974,409.501z M45.312,397.738c0,0-1.293,9.456-1.509,11.038c-1.587-0.22-15.132-2.069-16.719-2.285
				c0.213-1.564,1.401-10.254,1.401-10.254c0.694-5.064,1.804-8.686,3.301-10.763c1.906-2.593,4.217-3.669,7.061-3.278
				c2.498,0.341,4.327,1.633,5.596,3.952c0.839,1.531,1.258,3.687,1.258,6.449C45.7,394.128,45.57,395.846,45.312,397.738
				L45.312,397.738z"/>
			<path style="fill-rule:evenodd;clip-rule:evenodd;fill:#034EA2;" d="M87.792,339.295c-0.502-1.886-1.412-3.933-2.699-6.076
				c-1.291-2.142-3.124-4.266-5.444-6.314c-2.338-2.056-5.359-3.797-8.983-5.176c-3.303-1.26-6.641-1.987-9.921-2.161
				c-3.29-0.176-6.5,0.224-9.539,1.185c-3.062,0.973-5.909,2.648-8.465,4.982c-2.567,2.344-4.589,5.424-6.01,9.155
				c-1.631,4.279-2.142,8.659-1.518,13.019c0.632,4.398,2.663,8.414,6.034,11.94c3.331,3.486,7.427,6.171,12.176,7.976
				c7.539,2.875,14.722,2.802,21.352-0.213c5.671-2.603,9.776-7.155,12.204-13.535c0.734-1.924,1.231-4.257,1.48-6.932
				c0.065-0.72,0.1-1.434,0.1-2.142C88.56,343.045,88.303,341.133,87.792,339.295L87.792,339.295z M80.853,352.389
				c-1.555,4.078-4.413,6.942-8.738,8.751c-4.275,1.795-9.686,1.469-16.079-0.967c-6.483-2.472-10.819-5.889-12.885-10.153
				c-2.057-4.246-2.3-8.497-0.725-12.636c1.644-4.309,4.318-7.176,8.174-8.76c4.975-2.011,10.824-1.763,17.381,0.734
				c6.198,2.362,10.354,5.74,12.354,10.041C82.354,343.752,82.525,348,80.853,352.389L80.853,352.389z"/>
			<path style="fill-rule:evenodd;clip-rule:evenodd;fill:#034EA2;" d="M117.452,297.197l4.614-6.879c0,0-25.977-1.538-27.922-1.653
				c0.696-2.35,1.231-4.62,1.231-6.612c0-1.194-0.124-2.322-0.377-3.378c-0.766-3.192-2.466-5.693-5.061-7.431
				c-2.36-1.586-5.083-2.269-8.088-2.032c-2.972,0.234-5.835,1.392-8.515,3.436c-2.613,1.994-5.372,5.141-8.195,9.353L54.9,297.272
				l43.116,28.911l4.113-6.13c0,0-17.355-11.636-18.787-12.596c0.89-1.327,7.397-11.03,7.919-11.811
				C92.288,295.709,117.452,297.197,117.452,297.197L117.452,297.197z M88.15,286.901c-0.873,2.785-2.126,5.403-3.718,7.78
				c0,0-5.356,7.989-6.246,9.316c-1.331-0.893-12.684-8.505-14.017-9.399c0.912-1.358,7.377-11.002,7.377-11.002
				c2.354-3.512,4.791-5.706,7.246-6.519c2.4-0.795,4.539-0.529,6.537,0.809c1.463,0.984,2.424,2.223,2.937,3.792
				c0.238,0.727,0.357,1.494,0.357,2.3C88.622,284.907,88.465,285.883,88.15,286.901L88.15,286.901z"/>
			<path style="fill-rule:evenodd;clip-rule:evenodd;fill:#034EA2;" d="M113.535,226.273l-30.15,30.174l4.724,4.723
				c0,0,11.648-11.657,12.84-12.851c1.272,1.27,31.998,31.972,31.998,31.972l5.218-5.22c0,0-30.725-30.703-31.998-31.974
				c1.19-1.192,12.755-12.766,12.755-12.766l-4.724-4.721L113.535,226.273L113.535,226.273z"/>
			<path style="fill-rule:evenodd;clip-rule:evenodd;fill:#034EA2;" d="M154.662,197.494l-28.756,19.188l28.813,43.184
				l31.778-21.204l-3.706-5.557c0,0-24.174,16.13-25.639,17.108c-0.895-1.341-8.798-13.184-9.691-14.524
				c1.423-0.95,17.45-11.644,17.45-11.644l-3.707-5.555c0,0-16.026,10.691-17.448,11.642c-0.87-1.302-7.196-10.785-8.066-12.086
				c1.458-0.973,23.394-15.61,23.394-15.61l-3.64-5.46L154.662,197.494L154.662,197.494z"/>
			<path style="fill-rule:evenodd;clip-rule:evenodd;fill:#034EA2;" d="M214.773,171.722c-4.31,1.251-7.967,3.442-10.867,6.513
				c-2.921,3.092-4.75,7.042-5.436,11.737c-0.676,4.64-0.33,9.362,1.025,14.043c1.52,5.249,3.916,9.619,7.123,12.984
				c3.226,3.39,6.932,5.616,11.012,6.618c4.059,0.999,8.256,0.888,12.471-0.333c3.484-1.011,6.627-2.679,9.338-4.96
				c2.73-2.296,4.793-5.104,6.134-8.341c1.031-2.44,1.575-5.409,1.615-8.814l0.013-1.077l-7.89,1.003v0.826
				c-0.002,2.487-0.26,4.471-0.767,5.9c-0.789,2.254-2.058,4.215-3.772,5.833c-1.718,1.619-3.862,2.807-6.372,3.534
				c-4.158,1.205-7.952,0.727-11.601-1.461c-4.415-2.668-7.645-7.432-9.595-14.163c-1.893-6.53-1.69-12.099,0.602-16.56
				c1.893-3.694,4.891-6.09,9.165-7.328c3.105-0.901,6.114-0.83,8.941,0.21c2.827,1.039,5.332,3.203,7.449,6.429l0.435,0.666
				l7.235-3.215l-0.58-0.917c-1.747-2.758-3.739-4.913-5.92-6.407c-2.944-2.016-6.06-3.261-9.263-3.701
				C222.073,170.3,218.543,170.631,214.773,171.722L214.773,171.722z"/>
			<path style="fill-rule:evenodd;clip-rule:evenodd;fill:#034EA2;" d="M258.509,163.953l-6.425,0.52l4.201,51.746l34.691-2.816
				l-0.552-6.777c0,0-25.586,2.078-27.329,2.22c-0.147-1.791-3.651-44.969-3.651-44.969L258.509,163.953L258.509,163.953z"/>
			<path style="fill-rule:evenodd;clip-rule:evenodd;fill:#034EA2;" d="M295.007,162.552l-3.49,33.225
				c-0.26,2.488,0.099,5.295,1.074,8.342c0.995,3.122,3.131,5.861,6.342,8.143c3.176,2.259,7.381,3.679,12.494,4.213
				c6.379,0.67,11.748-0.513,15.959-3.514c4.248-3.027,6.717-7.511,7.332-13.329l3.508-33.486l-7.339-0.771l-3.523,33.515
				c-0.242,2.304-0.996,4.406-2.242,6.25c-1.237,1.828-2.907,3.093-5.098,3.867c-2.227,0.785-5.09,1.001-8.518,0.641
				c-4.307-0.451-7.623-1.923-9.857-4.373c-2.234-2.454-3.124-5.519-2.721-9.374l3.519-33.514l-7.341-0.77L295.007,162.552
				L295.007,162.552z"/>
			<path style="fill-rule:evenodd;clip-rule:evenodd;fill:#034EA2;" d="M391.847,186.904c-2.506-3.702-7.068-6.744-13.558-9.036
				l-19.314-6.821l-0.309,0.883l-16.984,48.067l20.324,7.176c6.395,2.259,11.946,2.668,16.494,1.214
				c4.645-1.485,7.625-4.012,8.855-7.51c0.389-1.08,0.578-2.208,0.578-3.378c0-1.565-0.344-3.206-1.032-4.903
				c-0.96-2.401-2.93-4.731-5.479-6.993c2.923-0.267,5.515-0.864,7.478-2.03c2.483-1.478,4.168-3.423,4.996-5.779
				c0.387-1.093,0.578-2.21,0.578-3.349C394.476,192.014,393.597,189.489,391.847,186.904L391.847,186.904z M379.886,217.764
				c-0.776,2.199-2.248,3.582-4.49,4.226c-3.428,0.998-7.295,0.747-11.514-0.742c0,0-11.608-4.101-13.161-4.649
				c0.534-1.516,5.2-14.729,5.735-16.245c1.523,0.54,11.644,4.116,11.644,4.116c3.004,1.058,5.582,2.384,7.669,3.936
				c2.015,1.505,3.355,3.096,3.978,4.731c0.336,0.872,0.505,1.714,0.505,2.54C380.252,216.384,380.128,217.076,379.886,217.764
				L379.886,217.764z M386.105,195.587c-0.748,2.113-2.447,3.484-5.186,4.197c-2.842,0.74-7.412,0.009-13.594-2.175
				c0,0-7.347-2.595-8.805-3.11c0.528-1.502,4.82-13.637,5.348-15.139c1.545,0.546,12.611,4.455,12.611,4.455
				c4.176,1.474,7.047,3.347,8.525,5.568C386.456,191.547,386.814,193.578,386.105,195.587L386.105,195.587z"/>
			<path style="fill-rule:evenodd;clip-rule:evenodd;fill:#034EA2;" d="M438.318,211.694c-4.49,0.132-7.983,1.784-10.378,4.913
				c-2.213,2.878-2.82,6.301-1.809,10.169c0.974,3.747,3.64,8.342,8.159,14.053c3.164,3.988,5.031,6.966,5.567,8.85
				c0.623,2.371,0.314,4.338-0.959,5.998c-1.414,1.85-3.465,2.771-6.256,2.816c-2.842,0.045-5.881-1.159-9.045-3.578
				c-2.271-1.739-3.904-3.634-4.863-5.63c-0.959-2.003-1.421-4.056-1.356-6.103c0.045-1.229,0.41-2.796,1.092-4.654l0.301-0.819
				l-7.311-3.288l-0.352,0.941c-1.018,2.748-1.472,5.227-1.34,7.37c0.147,3.109,1.099,6.216,2.834,9.221
				c1.722,2.981,4.124,5.669,7.148,7.987c4.863,3.724,9.734,5.577,14.481,5.513c4.842-0.065,8.613-1.818,11.199-5.206
				c2.314-3.01,3.119-6.414,2.409-10.117c-0.718-3.639-3.304-8.23-7.895-14.033c-3.641-4.594-5.684-7.999-6.079-10.123
				c-0.417-2.029-0.132-3.642,0.864-4.939c1.23-1.6,3.017-2.395,5.464-2.428c2.505-0.033,5.098,0.964,7.712,2.965
				c2.477,1.893,4.168,4.125,5.047,6.632c0.864,2.477,0.82,5.114-0.132,7.835l-0.293,0.835l7.229,3.007l0.322-0.945
				c0.834-2.43,1.164-4.717,0.98-6.799c-0.271-2.977-1.274-5.848-2.981-8.536c-1.678-2.653-3.875-5.024-6.512-7.048
				C447.188,213.203,442.735,211.568,438.318,211.694L438.318,211.694z"/>
			<polygon style="fill-rule:evenodd;clip-rule:evenodd;fill:#034EA2;" points="446.089,270.398 440.054,276.29 446.521,282.915 
				453.224,276.367 446.756,269.742 446.089,270.398 			"/>
			<path style="fill-rule:evenodd;clip-rule:evenodd;fill:#034EA2;" d="M508.741,277.514l-11.771-16.771l-0.768,0.538
				l-41.734,29.275l12.379,17.641c3.896,5.555,8.181,9.109,12.729,10.565c4.637,1.487,8.533,1.161,11.565-0.969
				c2.197-1.538,3.691-3.895,4.446-7.005c0.264-1.113,0.403-2.313,0.403-3.592c0-1.606-0.454-3.474-0.879-5.323
				c2.563,1.505,5.039,2.536,7.339,2.726c2.878,0.238,5.376-0.37,7.427-1.804c2.974-2.087,4.541-5.471,4.65-10.056
				C514.63,288.263,512.681,283.142,508.741,277.514L508.741,277.514z M489.441,307.074c-0.433,1.675-1.274,2.934-2.578,3.845
				c-1.904,1.338-3.903,1.611-6.108,0.831c-3.369-1.178-6.372-3.628-8.936-7.286c0,0-7.075-10.085-8.02-11.433
				c1.311-0.923,12.781-8.968,14.099-9.893c0.931,1.328,7.09,10.115,7.09,10.115c1.831,2.605,3.164,5.182,3.955,7.658
				c0.491,1.521,0.739,2.915,0.739,4.164C489.682,305.789,489.603,306.455,489.441,307.074L489.441,307.074z M507.518,290.783
				c-0.081,2.604-0.967,4.464-2.71,5.689c-1.838,1.285-4.014,1.419-6.665,0.408c-2.731-1.047-6.035-4.299-9.8-9.665
				c0,0-4.475-6.375-5.361-7.642c1.304-0.914,11.844-8.307,13.14-9.221c0.944,1.34,7.682,10.946,7.682,10.946
				c2.469,3.518,3.714,6.625,3.714,9.24C507.518,290.62,507.518,290.702,507.518,290.783L507.518,290.783z"/>
			<path style="fill-rule:evenodd;clip-rule:evenodd;fill:#034EA2;" d="M528.787,312.168l-46.999,19.745l14.795,35.222l6.159-2.589
				c0,0-11.25-26.788-11.939-28.413c1.486-0.624,14.611-6.139,16.099-6.764c0.667,1.578,8.122,19.34,8.122,19.34l6.16-2.587
				c0,0-7.463-17.763-8.123-19.34c1.443-0.606,11.953-5.022,13.397-5.628c0.682,1.615,10.89,25.93,10.89,25.93l6.051-2.54
				l-13.748-32.737L528.787,312.168L528.787,312.168z"/>
			<path style="fill-rule:evenodd;clip-rule:evenodd;fill:#034EA2;" d="M548.211,362.952l-50.215,8.778l1.274,7.273
				c0,0,37.756-6.602,42.964-7.511c-3.874,3.779-37.822,36.921-37.822,36.921l1.194,6.833l51.137-8.936l-1.274-7.273
				c0,0-33.134,5.789-38.255,6.683c3.823-3.728,33.677-32.871,33.677-32.871l-1.758-10.06L548.211,362.952L548.211,362.952z"/>
			<path style="fill-rule:evenodd;clip-rule:evenodd;fill:#034EA2;" d="M550.95,422.765c0,0-0.732,15.525-0.813,17.208
				c-1.795-0.084-45.183-2.135-45.183-2.135l-0.352,7.376c0,0,43.389,2.047,45.184,2.135c-0.081,1.681-0.85,18.03-0.85,18.03
				l6.672,0.314l2.059-43.551l-6.673-0.315L550.95,422.765L550.95,422.765z"/>
			<path style="fill-rule:evenodd;clip-rule:evenodd;fill:#034EA2;" d="M549.602,484.167c-1.142-4.293-3.625-8.05-7.383-11.162
				c-3.713-3.076-8.094-5.266-13.016-6.512c-7.814-1.984-14.941-1.076-21.182,2.688c-5.332,3.238-8.884,8.24-10.554,14.854
				c-0.505,1.992-0.732,4.373-0.667,7.061c0.066,2.725,0.594,5.325,1.568,7.721c0.717,1.809,1.852,3.734,3.383,5.72
				c1.531,1.977,3.597,3.874,6.146,5.64c2.555,1.773,5.757,3.15,9.514,4.102c3.442,0.871,6.84,1.209,10.107,0.996
				c3.288-0.205,6.43-0.975,9.338-2.277c2.93-1.318,5.566-3.319,7.83-5.934c2.277-2.621,3.933-5.918,4.914-9.785
				C550.723,492.838,550.723,488.428,549.602,484.167L549.602,484.167z M543.655,495.459c-1.121,4.41-3.508,7.654-7.104,9.647
				c-4.71,2.57-10.547,3.003-17.351,1.281c-6.432-1.625-10.95-4.504-13.434-8.539c-2.504-4.095-3.171-8.291-2.021-12.847
				c1.062-4.167,3.641-7.434,7.669-9.704c4.043-2.271,9.456-2.578,16.084-0.901c6.723,1.707,11.426,4.599,13.974,8.599
				C544.044,487.03,544.754,491.11,543.655,495.459L543.655,495.459z"/>
			<g>
				<path style="fill-rule:evenodd;clip-rule:evenodd;fill:#034EA2;" d="M103.606,576.055c0,6.219-5.036,11.25-11.25,11.25
					c-6.215,0-11.25-5.031-11.25-11.25c0-6.211,5.035-11.25,11.25-11.25C98.57,564.805,103.606,569.844,103.606,576.055
					L103.606,576.055z"/>
				<path style="fill-rule:evenodd;clip-rule:evenodd;fill:#034EA2;" d="M496.466,576.055c0,6.219-5.039,11.25-11.25,11.25
					c-6.219,0-11.25-5.031-11.25-11.25c0-6.211,5.031-11.25,11.25-11.25C491.427,564.805,496.466,569.844,496.466,576.055
					L496.466,576.055z"/>
			</g>
		</g>
	</g>
</g>
</svg>
