<?xml version="1.0" encoding="iso-8859-1"?>
<!-- Generator: Adobe Illustrator 23.0.1, SVG Export Plug-In . SVG Version: 6.00 Build 0)  -->
<svg version="1.1" xmlns="http://www.w3.org/2000/svg" xmlns:xlink="http://www.w3.org/1999/xlink" x="0px" y="0px"
	 viewBox="0 0 595.276 841.89" style="enable-background:new 0 0 595.276 841.89;" xml:space="preserve">
<g id="Grade" style="display:none;">
</g>
<g id="HQFL">
</g>
<g id="&#xC1;rea_de_trabalho">
</g>
<g id="Linhas-guia">
</g>
<g id="Page_1">
	<g id="HQFL_1_">
		<g>
			<path style="fill-rule:evenodd;clip-rule:evenodd;" d="M281.138,155.945c152.811,0,277.5,124.689,277.5,277.5
				c0,152.811-124.689,277.5-277.5,277.5c-152.812,0-277.5-124.688-277.5-277.5C3.638,280.634,128.326,155.945,281.138,155.945
				L281.138,155.945z"/>
			<path style="fill-rule:evenodd;clip-rule:evenodd;fill:#FFFFFF;" d="M281.138,166.517c147.031,0,266.928,119.896,266.928,266.928
				c0,147.032-119.896,266.927-266.928,266.927c-147.032,0-266.927-119.894-266.927-266.927
				C14.211,286.413,134.106,166.517,281.138,166.517L281.138,166.517z"/>
			<path style="fill-rule:evenodd;clip-rule:evenodd;" d="M281.138,258.783c96.141,0,174.662,78.521,174.662,174.662
				c0,96.142-78.521,174.662-174.662,174.662c-96.142,0-174.662-78.521-174.662-174.662
				C106.476,337.304,184.996,258.783,281.138,258.783L281.138,258.783z"/>
			<polygon style="fill-rule:evenodd;clip-rule:evenodd;" points="164.062,596.9 137.348,626.575 115.357,606.768 119.868,601.764 
				135.868,616.143 141.789,609.586 126.916,596.196 131.427,591.19 146.299,604.582 153.63,596.477 136.996,581.604 141.507,576.6 
				164.062,596.9 			"/>
			<path style="fill-rule:evenodd;clip-rule:evenodd;" d="M126.635,581.463l-5.428-5.709c1.833-1.973,2.749-3.947,2.819-5.85
				c0.071-1.903-0.634-3.807-2.114-5.709c-1.622-2.045-3.243-3.243-4.934-3.596c-1.692-0.423-3.101-0.141-4.23,0.776
				c-0.775,0.563-1.198,1.269-1.409,2.185c-0.211,0.775,0,1.902,0.423,3.313c0.353,0.916,1.198,3.031,2.608,6.133
				c1.833,4.088,2.608,7.26,2.467,9.655c-0.212,3.243-1.551,5.851-4.018,7.824c-1.621,1.269-3.454,1.974-5.568,2.114
				c-2.115,0.212-4.23-0.281-6.274-1.41c-2.044-1.127-4.018-2.889-5.92-5.356c-3.101-3.948-4.582-7.543-4.37-10.926
				c0.141-3.384,1.621-6.203,4.44-8.6l5.287,6.203c-1.41,1.48-2.114,2.961-2.114,4.44c-0.071,1.481,0.634,3.031,2.044,4.865
				c1.48,1.832,2.96,2.959,4.51,3.453c1.058,0.281,1.974,0.07,2.749-0.564c0.776-0.563,1.128-1.338,1.199-2.396
				c0-1.339-0.775-3.807-2.467-7.472c-1.691-3.665-2.749-6.555-3.101-8.67c-0.353-2.044-0.212-4.088,0.493-5.92
				c0.705-1.904,2.044-3.666,4.018-5.217c1.833-1.41,3.877-2.185,6.273-2.467c2.327-0.212,4.581,0.281,6.767,1.551
				c2.256,1.198,4.37,3.172,6.556,5.921c3.101,4.017,4.581,7.753,4.37,11.349C131.568,574.909,129.877,578.292,126.635,581.463
				L126.635,581.463z"/>
			<path style="fill-rule:evenodd;clip-rule:evenodd;" d="M112.256,541.358l-34.961,19.383l-6.273-11.348
				c-2.396-4.3-3.736-7.189-4.159-8.67c-0.564-2.256-0.353-4.581,0.635-6.907c1.057-2.325,2.96-4.23,5.709-5.78
				c2.186-1.197,4.159-1.832,6.062-1.832c1.903-0.071,3.594,0.281,5.074,1.057c1.481,0.705,2.749,1.621,3.666,2.749
				c1.269,1.481,2.819,3.807,4.581,7.049l2.537,4.582l13.181-7.331L112.256,541.358L112.256,541.358z M79.269,550.379l9.938-5.498
				l-2.115-3.805c-1.551-2.82-2.749-4.583-3.665-5.287c-0.846-0.775-1.833-1.198-2.961-1.269c-1.057-0.07-2.114,0.143-3.101,0.705
				c-1.269,0.705-2.114,1.692-2.537,2.891c-0.423,1.198-0.423,2.397,0,3.665c0.282,0.915,1.198,2.679,2.608,5.216L79.269,550.379
				L79.269,550.379z"/>
			<path style="fill-rule:evenodd;clip-rule:evenodd;" d="M75.673,514.573c-3.947,1.058-7.401,1.481-10.361,1.058
				c-2.255-0.353-4.299-0.987-6.344-2.045c-1.973-1.128-3.595-2.396-4.863-4.018c-1.692-2.115-2.961-4.723-3.876-7.823
				c-1.622-5.64-1.128-10.714,1.339-15.084c2.538-4.44,6.979-7.472,13.181-9.304c6.203-1.764,11.56-1.481,16,0.916
				c4.511,2.325,7.542,6.344,9.164,11.982c1.621,5.709,1.198,10.714-1.339,15.084C86.035,509.709,81.736,512.811,75.673,514.573
				L75.673,514.573z M73.066,506.609c4.37-1.199,7.4-3.173,9.022-5.85c1.692-2.608,2.115-5.498,1.199-8.599
				c-0.917-3.101-2.749-5.287-5.498-6.626c-2.819-1.34-6.414-1.41-10.925-0.141c-4.37,1.269-7.401,3.171-8.952,5.78
				c-1.621,2.537-1.973,5.427-1.057,8.599c0.916,3.172,2.748,5.427,5.498,6.766C65.101,507.877,68.696,507.877,73.066,506.609
				L73.066,506.609z"/>
			<path style="fill-rule:evenodd;clip-rule:evenodd;" d="M82.792,464.952l-39.823,2.749l-1.199-16.917
				c-0.282-4.229-0.141-7.33,0.423-9.304c0.634-1.974,1.762-3.665,3.524-4.934c1.762-1.268,3.806-2.044,6.132-2.184
				c3.031-0.213,5.568,0.493,7.612,2.113c2.044,1.621,3.454,4.159,4.229,7.613c0.916-1.762,1.903-3.313,3.031-4.512
				c1.128-1.197,3.172-2.889,6.132-5.004l7.472-5.357l0.634,9.515l-8.247,6.414c-2.961,2.326-4.793,3.877-5.568,4.652
				c-0.705,0.846-1.268,1.691-1.48,2.537c-0.211,0.917-0.282,2.256-0.141,4.088l0.07,1.621l16.635-1.127L82.792,464.952
				L82.792,464.952z M59.251,458.538l-0.423-5.992c-0.281-3.876-0.564-6.271-0.986-7.188c-0.423-0.916-0.987-1.622-1.833-2.114
				c-0.846-0.494-1.833-0.705-3.03-0.635c-1.34,0.141-2.397,0.564-3.172,1.34c-0.775,0.775-1.269,1.762-1.34,3.101
				c-0.07,0.704,0,2.608,0.212,5.92l0.493,6.274L59.251,458.538L59.251,458.538z"/>
			<polygon style="fill-rule:evenodd;clip-rule:evenodd;" points="81.877,414.837 49.031,410.255 47.409,422.026 40.713,421.04 
				45.083,389.604 51.78,390.59 50.158,402.291 83.004,406.872 81.877,414.837 			"/>
			<polygon style="fill-rule:evenodd;clip-rule:evenodd;" points="85.471,389.322 47.268,377.621 55.938,349.286 62.352,351.259 
				56.079,371.911 64.537,374.52 70.387,355.347 76.802,357.251 70.951,376.423 81.383,379.665 87.867,358.308 94.352,360.281 
				85.471,389.322 			"/>
			<path style="fill-rule:evenodd;clip-rule:evenodd;" d="M105.63,310.237l6.485-5.145c2.89,3.454,4.511,6.908,4.652,10.431
				c0.212,3.454-0.846,6.978-3.242,10.574c-2.961,4.37-6.907,6.978-11.841,7.753c-4.934,0.845-10.009-0.494-15.154-4.018
				c-5.568-3.735-8.881-8.035-10.009-12.969c-1.128-4.863-0.141-9.657,3.03-14.309c2.679-4.017,6.132-6.485,10.221-7.4
				c2.467-0.564,5.216-0.353,8.388,0.705l-2.89,7.683c-1.974-0.775-3.877-0.846-5.709-0.282c-1.833,0.564-3.313,1.692-4.511,3.525
				c-1.691,2.467-2.185,5.004-1.41,7.753c0.704,2.678,3.031,5.427,6.978,8.035c4.229,2.819,7.683,4.088,10.502,3.806
				c2.749-0.352,5.004-1.691,6.625-4.088c1.198-1.762,1.621-3.665,1.41-5.709C108.872,314.537,107.744,312.422,105.63,310.237
				L105.63,310.237z"/>
			<polygon style="fill-rule:evenodd;clip-rule:evenodd;" points="126.916,305.867 98.37,278.307 104.009,272.528 127.621,295.365 
				141.577,280.985 146.441,285.638 126.916,305.867 			"/>
			<path style="fill-rule:evenodd;clip-rule:evenodd;" d="M128.044,248.28l6.555-4.652l12.405,17.692
				c1.973,2.819,3.383,4.581,4.088,5.286c1.198,1.199,2.679,1.762,4.3,1.833c1.621,0.07,3.383-0.564,5.216-1.833
				c1.833-1.339,3.031-2.679,3.453-4.088c0.353-1.48,0.282-2.819-0.281-4.018c-0.634-1.269-1.833-3.171-3.595-5.779l-12.687-18.115
				l6.626-4.582l11.982,17.128c2.749,3.947,4.512,6.837,5.287,8.74c0.775,1.833,1.127,3.665,0.916,5.428
				c-0.141,1.832-0.846,3.595-1.973,5.356c-1.128,1.833-3.031,3.595-5.568,5.428c-3.172,2.185-5.78,3.524-7.894,3.877
				c-2.115,0.422-4.018,0.422-5.78-0.141c-1.762-0.493-3.242-1.269-4.37-2.327c-1.762-1.55-3.947-4.158-6.484-7.823L128.044,248.28
				L128.044,248.28z"/>
			<path style="fill-rule:evenodd;clip-rule:evenodd;" d="M168.361,221.144l14.59-6.555c2.89-1.269,5.075-2.114,6.625-2.467
				c1.551-0.422,3.031-0.493,4.512-0.211c1.409,0.282,2.819,0.916,4.158,1.833c1.269,0.916,2.255,2.185,2.96,3.736
				c0.776,1.691,1.057,3.524,0.776,5.357c-0.353,1.832-1.128,3.453-2.327,4.863c2.467-0.352,4.653,0,6.556,0.986
				c1.903,1.058,3.312,2.608,4.229,4.723c0.775,1.692,1.128,3.454,1.057,5.357c-0.07,1.903-0.634,3.665-1.48,5.145
				c-0.987,1.551-2.326,2.89-4.229,3.948c-1.128,0.704-4.088,2.114-8.74,4.229l-12.406,5.498L168.361,221.144L168.361,221.144z
				 M178.441,223.893l3.736,8.458l4.864-2.185c2.89-1.269,4.652-2.114,5.286-2.467c1.198-0.704,1.973-1.621,2.397-2.608
				c0.422-1.058,0.352-2.185-0.212-3.383c-0.493-1.128-1.198-1.903-2.114-2.326c-0.987-0.423-2.045-0.423-3.383,0
				c-0.775,0.212-2.89,1.128-6.344,2.679L178.441,223.893L178.441,223.893z M184.925,238.413l4.3,9.727l6.837-3.03
				c2.679-1.129,4.299-1.974,4.934-2.468c1.057-0.634,1.691-1.551,2.044-2.608c0.353-1.128,0.211-2.256-0.353-3.595
				c-0.493-1.057-1.127-1.903-2.044-2.396c-0.846-0.564-1.833-0.776-3.031-0.635c-1.127,0.071-3.383,0.846-6.767,2.397
				L184.925,238.413L184.925,238.413z"/>
			<polygon style="fill-rule:evenodd;clip-rule:evenodd;" points="222.565,241.585 213.613,202.676 242.441,196.051 
				243.922,202.606 222.987,207.469 224.961,216.069 244.485,211.558 245.966,218.113 226.442,222.624 228.908,233.267 
				250.618,228.192 252.168,234.748 222.565,241.585 			"/>
			<polygon style="fill-rule:evenodd;clip-rule:evenodd;" points="270.777,233.056 284.732,212.403 272.75,193.161 282.124,193.302 
				289.878,206.272 297.983,193.584 307.288,193.725 294.53,212.897 307.852,233.69 298.124,233.479 289.525,219.523 
				280.433,233.197 270.777,233.056 			"/>
			<polygon style="fill-rule:evenodd;clip-rule:evenodd;" points="322.653,237.708 317.015,195.629 325.542,197.461 
				329.278,228.474 344.997,201.549 353.385,203.382 331.111,239.47 322.653,237.708 			"/>
			<path style="fill-rule:evenodd;clip-rule:evenodd;" d="M382.706,215.717l12.828,7.119c2.961,1.621,5.005,3.03,6.273,4.37
				c1.762,1.691,2.891,3.735,3.525,6.132c0.562,2.326,0.634,4.863,0.211,7.471c-0.493,2.678-1.621,5.639-3.454,8.881
				c-1.621,2.89-3.312,5.145-5.216,6.837c-2.256,2.114-4.652,3.454-7.119,4.088c-1.903,0.564-4.088,0.564-6.555,0.071
				c-1.833-0.353-4.019-1.269-6.625-2.749l-13.252-7.331L382.706,215.717L382.706,215.717z M386.442,225.514l-12.828,23.119
				l5.287,2.89c1.973,1.128,3.453,1.833,4.439,2.044c1.339,0.353,2.538,0.423,3.665,0.141c1.128-0.281,2.326-1.056,3.736-2.326
				c1.339-1.339,2.749-3.313,4.23-5.991c1.48-2.749,2.396-4.934,2.748-6.625c0.282-1.692,0.282-3.243-0.141-4.511
				c-0.424-1.269-1.199-2.396-2.326-3.454c-0.916-0.775-2.749-1.973-5.638-3.524L386.442,225.514L386.442,225.514z"/>
			<polygon style="fill-rule:evenodd;clip-rule:evenodd;" points="398.354,271.329 424.081,240.739 446.707,259.77 442.408,264.986 
				425.914,251.1 420.204,257.937 435.57,270.765 431.2,275.982 415.905,263.082 408.857,271.4 425.984,285.708 421.614,290.854 
				398.354,271.329 			"/>
			<polygon style="fill-rule:evenodd;clip-rule:evenodd;" points="436.486,307.841 468.84,284.369 473.421,290.713 461.438,319.611 
				483.007,303.893 487.448,309.955 455.095,333.426 450.372,326.872 462.003,298.537 440.927,313.902 436.486,307.841 			"/>
			<path style="fill-rule:evenodd;clip-rule:evenodd;" d="M477.579,332.792c3.807-1.481,7.189-2.256,10.15-2.115
				c2.256,0.071,4.44,0.494,6.485,1.41c2.114,0.846,3.877,1.973,5.286,3.383c1.903,1.974,3.454,4.371,4.724,7.402
				c2.184,5.498,2.254,10.502,0.211,15.154c-2.115,4.652-6.133,8.176-12.194,10.643c-5.921,2.397-11.277,2.679-16,0.775
				c-4.651-1.903-8.106-5.568-10.29-10.996c-2.256-5.498-2.326-10.573-0.282-15.154
				C467.712,338.713,471.659,335.189,477.579,332.792L477.579,332.792z M480.963,340.405c-4.23,1.692-6.977,3.947-8.388,6.767
				c-1.41,2.819-1.481,5.709-0.282,8.67c1.198,3.031,3.312,5.004,6.202,6.062c2.891,1.057,6.556,0.705,10.856-1.057
				c4.228-1.691,6.977-3.947,8.316-6.625c1.34-2.679,1.41-5.568,0.143-8.669c-1.199-3.102-3.314-5.146-6.133-6.203
				C488.786,338.361,485.191,338.713,480.963,340.405L480.963,340.405z"/>
			<polygon style="fill-rule:evenodd;clip-rule:evenodd;" points="477.156,393.268 514.02,372.264 515.5,380.863 488.152,395.947 
				518.954,400.458 520.434,408.917 478.638,401.727 477.156,393.268 			"/>
			<polygon style="fill-rule:evenodd;clip-rule:evenodd;" points="481.315,420.687 521.28,421.392 520.787,450.926 514.02,450.784 
				514.373,429.357 505.562,429.216 505.21,449.163 498.442,449.022 498.796,429.075 487.94,428.864 487.518,451.137 
				480.821,450.996 481.315,420.687 			"/>
			<polygon style="fill-rule:evenodd;clip-rule:evenodd;" points="480.117,458.397 519.165,466.714 516.628,478.485 
				488.505,479.895 513.667,492.582 511.13,504.423 472.081,496.106 473.632,488.776 504.363,495.331 475.254,481.022 
				476.874,473.41 509.298,472.211 478.495,465.727 480.117,458.397 			"/>
			<path style="fill-rule:evenodd;clip-rule:evenodd;" d="M504.928,520.776l-6.485,14.591c-1.268,2.889-2.326,5.005-3.241,6.343
				c-0.847,1.27-1.903,2.326-3.173,3.102c-1.267,0.775-2.678,1.268-4.299,1.481c-1.621,0.141-3.172-0.07-4.793-0.776
				c-1.691-0.775-3.031-1.973-4.088-3.524c-0.986-1.55-1.48-3.241-1.551-5.145c-1.621,1.904-3.454,3.172-5.568,3.666
				c-2.115,0.493-4.159,0.281-6.273-0.705c-1.691-0.705-3.102-1.832-4.371-3.313c-1.197-1.409-1.973-3.03-2.325-4.792
				c-0.352-1.762-0.212-3.666,0.493-5.709c0.424-1.27,1.621-4.3,3.666-9.022l5.568-12.405L504.928,520.776L504.928,520.776z
				 M495.624,525.499l-8.459-3.806l-2.185,4.863c-1.268,2.819-1.974,4.651-2.255,5.427c-0.353,1.27-0.423,2.467,0,3.525
				c0.422,1.058,1.197,1.833,2.397,2.325c1.127,0.494,2.184,0.635,3.171,0.283c0.987-0.283,1.833-0.987,2.468-2.186
				c0.422-0.705,1.408-2.749,2.961-6.202L495.624,525.499L495.624,525.499z M481.103,519.014l-9.797-4.37l-3.03,6.837
				c-1.129,2.678-1.833,4.371-1.975,5.146c-0.282,1.197-0.211,2.325,0.211,3.313c0.494,1.057,1.34,1.832,2.68,2.466
				c1.057,0.424,2.114,0.635,3.101,0.424c1.058-0.212,1.903-0.706,2.749-1.551c0.776-0.847,1.902-2.961,3.383-6.344L481.103,519.014
				L481.103,519.014z"/>
			<path style="fill-rule:evenodd;clip-rule:evenodd;" d="M450.654,541.428l31.436,24.599l-10.431,13.393
				c-2.608,3.313-4.793,5.568-6.556,6.625c-1.762,1.128-3.735,1.551-5.921,1.339c-2.114-0.211-4.158-1.058-5.99-2.537
				c-2.398-1.833-3.807-4.018-4.23-6.626c-0.422-2.608,0.212-5.428,1.975-8.529c-1.903,0.776-3.666,1.199-5.287,1.34
				c-1.691,0.141-4.299,0.07-7.965-0.352l-9.162-0.917l5.99-7.612l10.433,0.775c3.665,0.212,6.132,0.352,7.188,0.212
				c1.129-0.071,2.045-0.353,2.82-0.847c0.775-0.492,1.691-1.479,2.89-2.961l0.987-1.267l-13.182-10.291L450.654,541.428
				L450.654,541.428z M463.835,562.01l-3.665,4.651c-2.398,3.102-3.736,5.075-4.088,6.062c-0.353,0.915-0.353,1.902-0.071,2.819
				c0.282,0.916,0.916,1.762,1.904,2.467c1.057,0.846,2.114,1.198,3.17,1.127c1.129,0,2.186-0.492,3.102-1.41
				c0.494-0.422,1.764-1.973,3.736-4.58l3.877-4.935L463.835,562.01L463.835,562.01z"/>
			<path style="fill-rule:evenodd;clip-rule:evenodd;" d="M438.672,586.891c2.679,3.031,4.511,5.921,5.498,8.811
				c0.634,2.115,0.986,4.299,0.845,6.556c-0.069,2.255-0.493,4.3-1.408,6.132c-1.129,2.467-2.891,4.793-5.357,6.979
				c-4.371,3.876-9.092,5.709-14.098,5.355c-5.074-0.351-9.797-2.959-14.166-7.753c-4.301-4.792-6.416-9.727-6.203-14.802
				c0.141-5.074,2.396-9.516,6.766-13.463c4.44-3.946,9.163-5.779,14.168-5.428C429.79,579.631,434.372,582.168,438.672,586.891
				L438.672,586.891z M432.681,592.671c-3.031-3.384-6.132-5.216-9.233-5.57c-3.101-0.352-5.851,0.565-8.247,2.68
				c-2.396,2.184-3.596,4.792-3.524,7.893c0,3.101,1.551,6.415,4.651,9.798c3.031,3.453,6.062,5.286,9.094,5.639
				c2.961,0.352,5.709-0.635,8.176-2.819c2.467-2.257,3.736-4.864,3.665-7.966C437.262,599.296,435.711,596.055,432.681,592.671
				L432.681,592.671z"/>
			<path style="fill-rule:evenodd;clip-rule:evenodd;" d="M239.833,671.543l-7.471-1.62l5.991-28.195
				c-3.313,1.975-6.908,3.173-10.925,3.595l1.481-6.766c2.114-0.213,4.44-0.987,7.119-2.326c2.678-1.269,4.722-3.031,6.062-5.216
				l6.061,1.268L239.833,671.543L239.833,671.543z"/>
			<path style="fill-rule:evenodd;clip-rule:evenodd;" d="M252.802,664.073l7.401-0.283c0.071,1.481,0.493,2.68,1.199,3.455
				c0.704,0.776,1.691,1.197,2.96,1.269c1.551,0.139,2.961-0.493,4.158-1.903c1.199-1.339,2.115-4.299,2.749-8.881
				c-2.115,2.113-4.581,3.031-7.471,2.888c-3.102-0.281-5.71-1.62-7.824-4.228c-2.115-2.608-3.031-5.779-2.749-9.656
				c0.282-4.088,1.691-7.26,4.299-9.516c2.538-2.326,5.71-3.383,9.445-3.101c4.018,0.282,7.189,2.114,9.586,5.427
				c2.396,3.242,3.312,8.529,2.819,15.648c-0.494,7.26-2.256,12.476-5.146,15.507c-2.961,3.031-6.555,4.371-10.925,4.088
				c-3.101-0.211-5.568-1.198-7.33-3.031C254.142,669.993,253.085,667.385,252.802,664.073L252.802,664.073z M271.199,648.566
				c0.212-2.468-0.282-4.37-1.268-5.85c-1.057-1.41-2.326-2.186-3.806-2.256c-1.41-0.141-2.608,0.354-3.595,1.41
				c-1.057,1.058-1.621,2.819-1.833,5.357c-0.141,2.607,0.211,4.511,1.128,5.779c0.987,1.268,2.185,1.973,3.665,2.044
				c1.48,0.141,2.749-0.353,3.876-1.48C270.424,652.513,271.058,650.821,271.199,648.566L271.199,648.566z"/>
			<path style="fill-rule:evenodd;clip-rule:evenodd;" d="M303.2,673.587l-7.613,0.847l-3.031-28.758
				c-2.537,2.89-5.568,5.215-9.233,6.837l-0.704-6.908c1.902-0.845,3.947-2.326,6.062-4.37c2.114-2.044,3.524-4.369,4.088-6.907
				l6.202-0.635L303.2,673.587L303.2,673.587z"/>
			<path style="fill-rule:evenodd;clip-rule:evenodd;" d="M312.786,662.875l7.047-2.538c0.635,1.763,1.551,3.031,2.82,3.807
				c1.198,0.705,2.537,0.916,4.018,0.564c1.481-0.353,2.679-1.199,3.454-2.608c0.776-1.41,0.986-3.101,0.493-5.075
				c-0.424-1.902-1.268-3.242-2.537-4.159c-1.268-0.845-2.608-1.127-4.089-0.775c-0.916,0.212-2.044,0.636-3.312,1.34l-0.565-6.274
				c2.045-0.423,3.454-1.198,4.3-2.396c0.847-1.129,1.127-2.539,0.775-4.018c-0.281-1.339-0.916-2.255-1.902-2.89
				c-0.987-0.564-2.115-0.776-3.384-0.423c-1.268,0.282-2.255,0.986-2.96,2.044c-0.705,1.128-0.917,2.537-0.775,4.299l-7.119,0.424
				c-0.071-2.468,0.211-4.512,0.846-6.203c0.705-1.621,1.762-3.031,3.313-4.228c1.551-1.198,3.383-2.045,5.498-2.537
				c3.666-0.847,6.907-0.353,9.656,1.48c2.256,1.479,3.665,3.454,4.228,5.85c0.776,3.383-0.492,6.555-3.734,9.444
				c2.326,0,4.369,0.635,6.061,1.975c1.764,1.339,2.891,3.241,3.384,5.567c0.847,3.384,0.212,6.625-1.691,9.586
				c-1.974,2.961-4.794,4.933-8.458,5.78c-3.524,0.775-6.697,0.493-9.516-0.986C315.887,668.372,313.913,666.046,312.786,662.875
				L312.786,662.875z"/>
			<path style="fill-rule:evenodd;clip-rule:evenodd;" d="M202.759,623.473c-5.075,0-9.234,4.158-9.234,9.234
				c0,5.075,4.159,9.233,9.234,9.233c5.075,0,9.233-4.158,9.233-9.233C211.992,627.631,207.833,623.473,202.759,623.473
				L202.759,623.473z"/>
			<path style="fill-rule:evenodd;clip-rule:evenodd;" d="M359.517,623.473c-5.074,0-9.234,4.158-9.234,9.234
				c0,5.075,4.159,9.233,9.234,9.233c5.076,0,9.234-4.158,9.234-9.233C368.751,627.631,364.593,623.473,359.517,623.473
				L359.517,623.473z"/>
			<path style="fill-rule:evenodd;clip-rule:evenodd;fill:#FFFFFF;" d="M170.123,547.279l17.833-19.737l6.414,5.78
				c2.397,2.185,3.948,3.666,4.511,4.51c0.846,1.34,1.198,2.82,1.057,4.512c-0.141,1.691-0.846,3.312-2.326,4.935
				c-1.057,1.198-2.185,2.044-3.383,2.466c-1.198,0.424-2.326,0.564-3.454,0.424c-1.127-0.141-2.044-0.424-2.89-0.916
				c-1.128-0.705-2.608-1.833-4.44-3.453l-2.608-2.397l-6.696,7.472L170.123,547.279L170.123,547.279z M188.943,534.45l-5.075,5.64
				l2.186,1.974c1.621,1.41,2.749,2.255,3.454,2.537c0.704,0.281,1.41,0.281,2.115,0.141c0.705-0.211,1.339-0.564,1.833-1.127
				c0.635-0.705,0.987-1.551,0.987-2.397c0-0.845-0.282-1.621-0.846-2.325c-0.352-0.494-1.269-1.41-2.749-2.678L188.943,534.45
				L188.943,534.45z"/>
			<polygon style="fill-rule:evenodd;clip-rule:evenodd;fill:#FFFFFF;" points="190.353,563.983 204.45,541.358 209.032,544.249 
				194.864,566.803 190.353,563.983 			"/>
			<path style="fill-rule:evenodd;clip-rule:evenodd;fill:#FFFFFF;" d="M202.124,571.314l12.123-23.753l10.009,5.145
				c2.537,1.27,4.299,2.467,5.215,3.455c0.987,0.986,1.481,2.255,1.622,3.664c0.141,1.481-0.141,2.89-0.846,4.3
				c-0.916,1.763-2.185,2.96-3.876,3.595c-1.621,0.635-3.524,0.564-5.78-0.211c0.705,1.127,1.269,2.255,1.551,3.313
				c0.282,1.056,0.564,2.818,0.775,5.216l0.564,6.132l-5.78-2.96l-0.776-6.908c-0.352-2.466-0.564-4.088-0.775-4.792
				c-0.211-0.705-0.493-1.27-0.916-1.692c-0.423-0.423-1.198-0.916-2.326-1.48l-0.916-0.494l-5.075,9.868L202.124,571.314
				L202.124,571.314z M213.895,560.036l3.524,1.833c2.326,1.127,3.806,1.762,4.44,1.902c0.705,0.07,1.339,0,1.903-0.352
				c0.565-0.282,0.987-0.776,1.339-1.551c0.424-0.776,0.564-1.552,0.353-2.256c-0.141-0.705-0.564-1.27-1.339-1.834
				c-0.353-0.281-1.48-0.844-3.454-1.832l-3.736-1.902L213.895,560.036L213.895,560.036z"/>
			<path style="fill-rule:evenodd;clip-rule:evenodd;fill:#FFFFFF;" d="M250.829,590.063l-5.639-1.621l-0.564-6.414l-10.22-2.961
				l-3.806,5.217l-5.498-1.551l17.339-22.768l5.498,1.551L250.829,590.063L250.829,590.063z M244.204,577.235l-0.776-10.502
				l-6.202,8.457L244.204,577.235L244.204,577.235z"/>
			<path style="fill-rule:evenodd;clip-rule:evenodd;fill:#FFFFFF;" d="M273.314,582.451l5.075,2.114
				c-1.058,2.819-2.608,4.863-4.582,6.133c-1.974,1.198-4.37,1.691-7.189,1.481c-3.524-0.282-6.344-1.764-8.388-4.371
				c-2.044-2.608-2.89-5.99-2.537-10.149c0.423-4.44,1.832-7.753,4.3-10.009c2.537-2.256,5.639-3.172,9.304-2.891
				c3.313,0.282,5.851,1.48,7.683,3.595c1.128,1.197,1.903,2.96,2.326,5.146l-5.427,0.774c-0.212-1.409-0.775-2.537-1.692-3.453
				c-0.917-0.846-2.115-1.34-3.525-1.481c-1.973-0.212-3.595,0.352-5.004,1.691c-1.339,1.268-2.114,3.525-2.396,6.695
				c-0.282,3.315,0.07,5.781,1.198,7.332c1.058,1.551,2.537,2.396,4.511,2.537c1.41,0.141,2.678-0.212,3.806-1.058
				C271.833,585.763,272.679,584.354,273.314,582.451L273.314,582.451z"/>
			<polygon style="fill-rule:evenodd;clip-rule:evenodd;fill:#FFFFFF;" points="283.323,592.319 282.407,565.675 287.763,565.463 
				288.68,592.108 283.323,592.319 			"/>
			<path style="fill-rule:evenodd;clip-rule:evenodd;fill:#FFFFFF;" d="M310.529,579.772l5.427,0.565
				c-0.211,3.031-1.127,5.427-2.678,7.119c-1.55,1.762-3.735,2.89-6.484,3.453c-3.525,0.705-6.555,0.07-9.304-1.902
				c-2.679-1.904-4.44-4.935-5.216-9.094c-0.846-4.299-0.353-7.895,1.409-10.784c1.763-2.819,4.51-4.581,8.177-5.286
				c3.172-0.635,5.92-0.211,8.317,1.27c1.409,0.915,2.608,2.325,3.595,4.299l-4.933,2.256c-0.635-1.268-1.481-2.185-2.608-2.819
				c-1.128-0.564-2.398-0.706-3.806-0.493c-1.904,0.422-3.384,1.409-4.301,3.031c-0.916,1.621-1.056,4.016-0.493,7.117
				c0.634,3.315,1.692,5.569,3.171,6.697c1.479,1.198,3.102,1.55,5.005,1.198c1.409-0.282,2.537-0.917,3.383-2.044
				C310.036,583.296,310.46,581.747,310.529,579.772L310.529,579.772z"/>
			<path style="fill-rule:evenodd;clip-rule:evenodd;fill:#FFFFFF;" d="M346.195,578.786l-5.498,1.974l-4.23-4.865l-10.008,3.596
				v6.484l-5.357,1.902l0.635-28.547l5.355-1.902L346.195,578.786L346.195,578.786z M333.297,572.231l-6.837-8.035v10.572
				L333.297,572.231L333.297,572.231z"/>
			<path style="fill-rule:evenodd;clip-rule:evenodd;fill:#FFFFFF;" d="M338.089,553.27l9.164-5.498
				c1.762-1.058,3.171-1.832,4.158-2.185c0.986-0.422,1.974-0.562,2.96-0.493c0.987,0.071,1.975,0.353,2.89,0.847
				c0.918,0.492,1.693,1.268,2.326,2.254c0.635,1.058,0.918,2.185,0.918,3.455c-0.071,1.268-0.424,2.396-1.199,3.453
				c1.691-0.492,3.172-0.423,4.512,0.141c1.339,0.494,2.396,1.41,3.172,2.75c0.633,1.056,0.986,2.184,1.056,3.453
				c0.141,1.268-0.07,2.468-0.564,3.525c-0.423,1.127-1.268,2.113-2.396,2.959c-0.704,0.564-2.537,1.692-5.498,3.525l-7.753,4.652
				L338.089,553.27L338.089,553.27z M344.997,554.256l3.172,5.287l3.03-1.764c1.763-1.127,2.89-1.832,3.313-2.114
				c0.705-0.564,1.198-1.198,1.34-1.902c0.211-0.775,0.069-1.479-0.353-2.256c-0.423-0.704-0.986-1.128-1.621-1.339
				c-0.705-0.212-1.409-0.141-2.255,0.211c-0.493,0.283-1.833,0.987-3.948,2.326L344.997,554.256L344.997,554.256z M350.495,563.349
				l3.665,6.132l4.23-2.607c1.691-0.987,2.678-1.621,3.101-1.974c0.564-0.563,0.986-1.198,1.127-1.974
				c0.141-0.705-0.07-1.48-0.564-2.326c-0.352-0.635-0.917-1.127-1.55-1.41c-0.564-0.281-1.271-0.352-2.045-0.211
				c-0.775,0.211-2.186,0.916-4.3,2.185L350.495,563.349L350.495,563.349z"/>
			<path style="fill-rule:evenodd;clip-rule:evenodd;fill:#FFFFFF;" d="M394.265,545.799l-4.44,3.735l-5.709-3.102l-8.105,6.838
				l2.185,6.06l-4.37,3.666l-9.162-27.067l4.369-3.665L394.265,545.799L394.265,545.799z M379.957,544.106l-9.162-5.215l3.595,9.867
				L379.957,544.106L379.957,544.106z"/>
			<polygon style="fill-rule:evenodd;clip-rule:evenodd;fill:#FFFFFF;" points="227.71,361.832 241.807,361.832 218.476,400.67 
				195.146,361.832 209.243,361.832 209.243,339.418 156.52,339.418 156.52,361.832 172.732,361.832 207.269,419.348 
				167.586,485.251 156.52,485.251 156.52,507.666 209.243,507.666 209.243,485.251 190,485.251 218.476,437.885 246.953,485.251 
				227.71,485.251 227.71,507.666 280.433,507.666 280.433,485.251 269.366,485.251 229.684,419.348 264.222,361.832 
				280.433,361.832 280.433,339.418 227.71,339.418 227.71,361.832 			"/>
			<polygon style="fill-rule:evenodd;clip-rule:evenodd;fill:#FFFFFF;" points="362.971,339.418 362.971,361.832 380.874,361.832 
				351.13,456.211 321.314,361.832 339.218,361.832 339.218,339.418 286.494,339.418 286.494,361.832 298.899,361.832 
				337.878,485.251 324.768,485.251 324.768,507.666 377.491,507.666 377.491,485.251 364.381,485.251 403.288,361.832 
				415.694,361.832 415.694,339.418 362.971,339.418 			"/>
		</g>
	</g>
</g>
</svg>
