<?xml version="1.0" encoding="iso-8859-1"?>
<!-- Generator: Adobe Illustrator 23.0.1, SVG Export Plug-In . SVG Version: 6.00 Build 0)  -->
<svg version="1.1" xmlns="http://www.w3.org/2000/svg" xmlns:xlink="http://www.w3.org/1999/xlink" x="0px" y="0px"
	 viewBox="0 0 595.276 841.89" style="enable-background:new 0 0 595.276 841.89;" xml:space="preserve">
<g id="Grade" style="display:none;">
</g>
<g id="HQFL">
</g>
<g id="&#xC1;rea_de_trabalho">
</g>
<g id="Linhas-guia">
</g>
<g id="Page_1">
	<g id="HQFL_1_">
		<g>
			<path style="fill-rule:evenodd;clip-rule:evenodd;fill:#549F73;" d="M474.899,160.683c-27.25,18.283-58.279,27.17-94.867,27.17
				c-36.373,0-68.076-8.551-94.226-25.415l-4.669-3.01l-4.666,3.01c-26.151,16.864-57.854,25.415-94.228,25.415
				c-36.584,0-67.614-8.887-94.864-27.17l-6.579-4.412l-77.43,96.778l5.183,5.448c24.989,26.268,41.633,52.455,41.633,94.885
				c0,23.911-9.287,46.334-19.12,70.069C19.407,451.608,7.35,480.72,7.35,517.283c0,60.772,32.938,98.433,43.032,108.526
				c23.323,23.325,51.89,34.188,89.904,34.188h52.15c28.047,0,55.397,3.102,81.648,40.557l7.053,10.065l7.053-10.065
				c26.25-37.454,53.601-40.557,81.648-40.557h52.15c38.014,0,66.58-10.862,89.902-34.188
				c10.098-10.094,43.033-47.755,43.033-108.526c0-36.562-12.059-65.675-23.717-93.831c-9.834-23.735-19.121-46.158-19.121-70.069
				c0-42.43,16.646-68.619,41.639-94.885l5.18-5.449l-77.43-96.777L474.899,160.683L474.899,160.683z"/>
			<path style="fill-rule:evenodd;clip-rule:evenodd;fill:#FFFFFF;" d="M84.553,179.159c28.287,17.134,61.07,25.923,97.69,25.923
				c37.658,0,70.854-8.614,98.894-25.409c28.039,16.795,61.237,25.409,98.895,25.409c36.625,0,69.406-8.789,97.694-25.923
				c7.629,9.535,51.168,63.956,58.486,73.102c-29.129,32.381-41.352,62.18-41.352,101.122c0,27.338,9.922,51.296,20.428,76.665
				c11.019,26.595,22.408,54.099,22.408,87.235c0,54.151-29.076,87.435-37.985,96.348c-19.883,19.88-44.58,29.138-77.723,29.138
				h-52.15c-29.09,0-59.76,3.235-88.701,38.64c-28.943-35.405-59.609-38.64-88.701-38.64h-52.15
				c-33.145,0-57.841-9.258-77.721-29.138c-8.913-8.912-37.987-42.197-37.987-96.348c0-33.136,11.392-60.64,22.407-87.235
				c10.507-25.369,20.431-49.327,20.431-76.665c0-38.941-12.223-68.739-41.35-101.12C33.382,243.117,76.925,188.694,84.553,179.159
				L84.553,179.159z"/>
			<polygon style="fill-rule:evenodd;clip-rule:evenodd;fill:#549F73;" points="173.6,313.756 116.348,313.756 116.348,236.195 
				172.844,236.195 172.844,245.485 126.827,245.485 126.827,269.251 169.281,269.251 169.281,278.539 126.827,278.539 
				126.827,304.466 173.6,304.466 173.6,313.756 			"/>
			<path style="fill-rule:evenodd;clip-rule:evenodd;fill:#549F73;" d="M435.019,259.527c-2.916-13.61-14.26-16.096-21.713-16.096
				c-14.041,0-25.383,10.371-25.383,30.788c0,18.256,6.482,32.299,25.707,32.299c6.807,0,18.582-3.241,22.147-21.28h10.152
				c-4.318,29.275-28.082,30.569-33.918,30.569c-17.605,0-34.893-11.449-34.893-41.264c0-23.875,13.613-40.402,36.188-40.402
				c19.986,0,30.357,12.423,31.871,25.386H435.019L435.019,259.527z"/>
			<polygon style="fill-rule:evenodd;clip-rule:evenodd;fill:#549F73;" points="183.877,496.326 186.772,500.6 154.11,522.724 
				150.752,517.766 165.89,483.288 165.828,483.198 139.444,501.069 136.547,496.795 169.21,474.67 172.753,479.902 
				157.429,514.103 157.491,514.194 183.877,496.326 			"/>
			<path style="fill-rule:evenodd;clip-rule:evenodd;fill:#549F73;" d="M177.069,545.973c-11.41-9.306-7.157-21.648-1.776-28.247
				c5.382-6.602,16.617-13.248,28.028-3.943c11.412,9.306,7.159,21.648,1.777,28.251
				C199.716,548.632,188.48,555.278,177.069,545.973L177.069,545.973z M200.336,517.446c-6.643-5.416-14.916-3.444-20.784,3.751
				c-5.869,7.195-6.139,15.696,0.504,21.113c6.642,5.42,14.916,3.444,20.786-3.751C206.709,531.364,206.978,522.863,200.336,517.446
				L200.336,517.446z"/>
			<polygon style="fill-rule:evenodd;clip-rule:evenodd;fill:#549F73;" points="240.759,536.38 246.225,538.828 216.956,568.942 
				211.793,566.627 214.786,524.74 220.203,527.166 216.731,562.459 216.831,562.502 240.759,536.38 			"/>
			<polygon style="fill-rule:evenodd;clip-rule:evenodd;fill:#549F73;" points="270.723,582.415 241.964,577.861 248.133,538.898 
				276.514,543.39 275.776,548.057 252.658,544.398 250.767,556.336 272.095,559.712 271.356,564.379 250.029,561.004 
				247.967,574.027 271.465,577.748 270.723,582.415 			"/>
			<path style="fill-rule:evenodd;clip-rule:evenodd;fill:#549F73;" d="M317.245,578.596l-3.18-23.081
				c-0.156-1.143-0.727-6.112-1.229-9.757l-0.109,0.014l-6.479,34.333l-5.225,0.72l-15.508-31.255l-0.105,0.019
				c0.492,3.59,1.285,8.53,1.441,9.672l3.176,23.078l-5.115,0.705l-5.379-39.083l7.567-1.04l15.703,31.502l0.109-0.015l6.559-34.565
				l7.512-1.033l5.377,39.08L317.245,578.596L317.245,578.596z"/>
			<path style="fill-rule:evenodd;clip-rule:evenodd;fill:#549F73;" d="M320.155,537.163l15.758-7.283
				c6.684-3.088,12.039-0.542,14.297,4.348c1.084,2.343,1.758,6.027-1.328,9.694c2.779-0.135,7.68-0.404,10.518,5.729
				c2.652,5.736,0.647,12.535-7.283,16.198l-15.412,7.123L320.155,537.163L320.155,537.163z M331.999,550.091l8.728-4.034
				c4.637-2.146,6.834-4.856,4.808-9.244c-1.547-3.343-4.467-4.292-9.855-1.804l-8.777,4.06L331.999,550.091L331.999,550.091z
				 M339.628,566.599l10.324-4.774c5.037-2.328,6.406-6.049,4.561-10.036c-2.328-5.038-7.227-3.984-11.166-2.164l-9.524,4.405
				L339.628,566.599L339.628,566.599z"/>
			<path style="fill-rule:evenodd;clip-rule:evenodd;fill:#549F73;" d="M379.759,549.28l-4.062,3.452l-25.549-30.059l13.901-11.815
				c4.939-4.197,11.338-6.682,16.748-0.316c3.771,4.438,2.898,7.992,1.932,10.757c2.32-0.745,4.678-1.451,8.406,2.594l4.875,5.227
				c1.467,1.641,2.209,2.092,4.07,1.735l0.568,0.669l-4.98,4.234c-2.154-1.342-6.154-5.802-7.115-6.93
				c-2.104-2.47-5.06-4.933-9.916-0.804l-9.838,8.359L379.759,549.28L379.759,549.28z M365.845,532.909l9.418-8.006
				c2.973-2.525,5.475-5.948,1.703-10.386c-3.951-4.645-7.662-2.142-9.674-0.433l-10.131,8.61L365.845,532.909L365.845,532.909z"/>
			<path style="fill-rule:evenodd;clip-rule:evenodd;fill:#549F73;" d="M418.981,508.588c-8.101,12.296-20.812,9.316-27.924,4.631
				c-7.111-4.685-14.863-15.187-6.762-27.482c8.104-12.296,20.815-9.316,27.926-4.631
				C419.329,485.791,427.081,496.293,418.981,508.588L418.981,508.588z M388.243,488.333c-4.715,7.159-1.914,15.191,5.838,20.299
				c7.756,5.107,16.238,4.514,20.957-2.642c4.715-7.158,1.912-15.191-5.84-20.298C401.444,480.582,392.96,481.178,388.243,488.333
				L388.243,488.333z"/>
			<path style="fill-rule:evenodd;clip-rule:evenodd;fill:#549F73;" d="M165.43,418.104c0,63.801,51.906,115.708,115.707,115.708
				s115.707-51.906,115.707-115.708c0-63.801-51.906-115.707-115.707-115.707S165.43,354.303,165.43,418.104L165.43,418.104z"/>
			<path style="fill-rule:evenodd;clip-rule:evenodd;fill:#FFFFFF;" d="M176.605,418.104c0-57.639,46.894-104.532,104.532-104.532
				c57.639,0,104.534,46.894,104.534,104.532c0,57.639-46.894,104.533-104.534,104.533
				C223.499,522.637,176.605,475.743,176.605,418.104L176.605,418.104z"/>
			<polygon style="fill-rule:evenodd;clip-rule:evenodd;fill:#549F73;" points="282.837,482.422 268.255,482.422 244.801,430.087 
				220.617,482.422 206.4,482.422 237.631,417.137 208.344,355.048 223.171,355.048 245.286,403.834 267.403,355.048 
				281.502,355.048 252.215,417.137 282.837,482.422 			"/>
			<polygon style="fill-rule:evenodd;clip-rule:evenodd;fill:#549F73;" points="349.432,355.048 362.677,355.048 330.835,482.422 
				318.321,482.422 286.482,355.048 299.606,355.048 324.516,463.616 324.761,463.616 349.432,355.048 			"/>
		</g>
	</g>
</g>
</svg>
