<?xml version="1.0" encoding="iso-8859-1"?>
<!-- Generator: Adobe Illustrator 23.0.1, SVG Export Plug-In . SVG Version: 6.00 Build 0)  -->
<svg version="1.1" xmlns="http://www.w3.org/2000/svg" xmlns:xlink="http://www.w3.org/1999/xlink" x="0px" y="0px"
	 viewBox="0 0 595.276 841.89" style="enable-background:new 0 0 595.276 841.89;" xml:space="preserve">
<g id="Grade" style="display:none;">
</g>
<g id="HQFL">
</g>
<g id="&#xC1;rea_de_trabalho">
</g>
<g id="Linhas-guia">
</g>
<g id="Page_1">
	<g id="HQFL_1_">
		<g>
			<polygon style="fill-rule:evenodd;clip-rule:evenodd;fill:#034EA2;" points="25.219,82.66 25.219,257.19 296.469,704.454 
				567.721,257.189 567.721,82.659 25.219,82.66 			"/>
			<path style="fill-rule:evenodd;clip-rule:evenodd;fill:#FFFFFF;" d="M37.469,94.91c0,20.735,0,152.743,0,158.855
				c3.369,5.556,239.77,395.358,259,427.063C315.7,649.123,552.101,259.32,555.471,253.764c0-6.111,0-138.12,0-158.855
				C548.724,94.909,60.701,94.91,37.469,94.91L37.469,94.91z"/>
			<polygon style="fill-rule:evenodd;clip-rule:evenodd;fill:#034EA2;" points="543.221,238.12 543.221,107.159 49.719,107.16 
				49.719,238.12 543.221,238.12 			"/>
			<path style="fill-rule:evenodd;clip-rule:evenodd;fill:#EF4423;" d="M290.344,647.107V250.37H49.736
				C53.319,256.274,250.051,580.668,290.344,647.107L290.344,647.107z"/>
			<path style="fill-rule:evenodd;clip-rule:evenodd;fill:#034EA2;" d="M543.2,250.37H302.594v396.737
				C342.846,580.743,539.598,256.312,543.2,250.37L543.2,250.37z"/>
			<polygon style="fill-rule:evenodd;clip-rule:evenodd;fill:#FFFFFF;" points="150.064,140.373 97.391,140.373 97.391,161.248 
				145.78,161.248 145.78,178.806 97.391,178.806 97.391,204.519 152.415,204.519 152.415,222.078 77.069,222.078 77.069,122.816 
				150.064,122.816 150.064,140.373 			"/>
			<path style="fill-rule:evenodd;clip-rule:evenodd;fill:#FFFFFF;" d="M256.101,155.304c-1.66-5.946-4.838-17.143-21.981-17.143
				c-9.955,0-24.608,6.636-24.608,34.701c0,17.833,7.049,33.871,24.608,33.871c11.474,0,19.492-6.498,21.981-18.664h20.735
				c-4.145,21.565-18.246,36.635-43.131,36.635c-26.406,0-45.345-17.834-45.345-52.119c0-34.701,20.045-52.396,45.621-52.396
				c29.722,0,41.751,20.46,42.854,35.115H256.101L256.101,155.304z"/>
			<path style="fill-rule:evenodd;clip-rule:evenodd;fill:#FFFFFF;" d="M395.592,187.377c0,26.13-15.757,37.328-40.783,37.328
				c-9.119,0-22.668-2.211-31.521-12.028c-5.387-6.082-7.465-14.1-7.738-24.054v-65.807h21.15v64.424
				c0,13.824,8.019,19.906,17.698,19.906c14.239,0,20.043-6.911,20.043-18.939v-65.391h21.15V187.377L395.592,187.377z"/>
			<path style="fill-rule:evenodd;clip-rule:evenodd;fill:#FFFFFF;" d="M454.21,191.524c0.137,5.53,2.905,16.037,21.014,16.037
				c9.816,0,20.74-2.35,20.74-12.857c0-7.742-7.465-9.816-17.972-12.305l-10.65-2.488c-16.037-3.732-31.52-7.326-31.52-29.171
				c0-11.059,5.947-30.551,38.158-30.551c30.413,0,38.575,19.908,38.712,32.073h-19.906c-0.554-4.423-2.215-14.93-20.324-14.93
				c-7.882,0-17.281,2.902-17.281,11.889c0,7.742,6.358,9.399,10.507,10.369l24.192,5.943c13.549,3.319,25.99,8.848,25.99,26.683
				c0,29.861-30.413,32.488-39.122,32.488c-36.224,0-42.444-20.875-42.444-33.18H454.21L454.21,191.524z"/>
		</g>
	</g>
</g>
</svg>
