<?xml version="1.0" encoding="iso-8859-1"?>
<!-- Generator: Adobe Illustrator 23.0.1, SVG Export Plug-In . SVG Version: 6.00 Build 0)  -->
<svg version="1.1" xmlns="http://www.w3.org/2000/svg" xmlns:xlink="http://www.w3.org/1999/xlink" x="0px" y="0px"
	 viewBox="0 0 595.276 841.89" style="enable-background:new 0 0 595.276 841.89;" xml:space="preserve">
<g id="Grade" style="display:none;">
</g>
<g id="HQFL">
</g>
<g id="&#xC1;rea_de_trabalho">
</g>
<g id="Linhas-guia">
</g>
<g id="Page_1">
	<g id="HQFL_1_">
		<g>
			<path style="fill-rule:evenodd;clip-rule:evenodd;fill:#E9E9EA;" d="M567.539,599.228c-22.131-7.874-46.686-13.313-73.537-16.335
				l6.299-7.139l-4.779-6.035c0,0-6.566-8.707-11.026-14.62c7.523-9.975,14.219-20.533,20.014-31.555
				c7.23,1.604,25.192,5.59,25.192,5.59l3.179-6.996c8.28-18.228,14.415-37.46,18.234-57.157l1.427-7.356
				c0,0-16.74-7.562-23.473-10.603c1.469-10.672,2.248-21.441,2.248-32.188c0-0.41-0.022-0.818-0.023-1.228
				c7.095-1.912,24.524-6.61,24.524-6.61l-0.493-7.737c-1.283-20.08-4.92-40.011-10.81-59.236l-2.194-7.163
				c0,0-18.047,1.16-25.324,1.628c-3.346-9.11-7.272-18.024-11.741-26.653c5.395-4.846,18.636-16.737,18.636-16.737l-3.973-6.69
				c-10.339-17.413-22.75-33.577-36.889-48.046l-5.216-5.337c0,0-15.303,9.113-21.5,12.803
				c-6.634-6.108-13.598-11.819-20.836-17.073c2.686-6.624,9.239-22.782,9.239-22.782l-6.62-4.248
				c-17.286-11.092-35.912-20.076-55.361-26.703l-7.049-2.402c0,0-9.415,14.778-13.238,20.778
				c-8.976-2.534-18.103-4.535-27.294-5.98c-0.768-7.01-2.648-24.164-2.648-24.164l-7.658-0.749
				c-20.524-2.009-41.272-1.559-61.668,1.337l-7.406,1.051c0,0-1.603,17.113-2.257,24.089c-10.009,1.968-19.882,4.591-29.519,7.843
				c-3.967-5.736-13.682-19.786-13.682-19.786l-7.024,2.823c-19.285,7.752-37.576,17.846-54.363,30.002l-6.084,4.406
				c0,0,6.599,15.766,9.289,22.193c-4.146,3.37-8.227,6.833-12.112,10.462c-3.874,3.615-7.611,7.448-11.264,11.358
				c-6.222-3.125-21.487-10.788-21.487-10.788l-4.814,5.766C89.13,267.218,77.79,284.762,68.75,303.405l-3.305,6.813
				c0,0,13.366,10.675,18.82,15.031c-3.905,9.387-7.201,19.055-9.855,28.908c-7.005,0.173-24.199,0.595-24.199,0.595l-1.549,7.331
				c-3.713,17.566-5.585,35.518-5.585,53.478c0,2.659,0.041,5.319,0.124,7.978l0.237,7.674c0,0,16.882,3.038,23.794,4.282
				c0.81,9.282,2.176,18.525,4.083,27.641c-6.209,3.38-21.48,11.691-21.48,11.691l1.914,7.198
				c5.266,19.808,12.876,38.911,22.622,56.782l3.721,6.823c0,0,16.624-5.183,23.419-7.302c4.069,6.509,8.502,12.824,13.226,18.933
				c-3.76-0.827-7.497-1.741-11.209-2.753c-7.123-1.941-18.152-1.454-25.534,4.201c-4.833,3.703-7.493,9.113-7.493,15.241
				c0,0.02,0.026,8.75,0.049,16.956c-17.797-4.917-39.488-13.782-49.856-20.767L6.132,560.33l-1.68,141.176l4.918,2.751
				c34.51,19.291,68.574,28.081,100.243,34.707c49.699,10.393,100.715,9.276,165.418-3.624l29.515-6.003
				c53.895-11.073,100.439-20.637,149.006-20.119c31.883,0.337,66.249,6.197,108.153,18.441l12.135,3.546V601.469L567.539,599.228
				L567.539,599.228z"/>
			<path style="fill-rule:evenodd;clip-rule:evenodd;fill:#FFFFFF;" d="M565.951,603.693c-24.275-8.636-51.537-14.301-81.614-17.016
				c0.041-0.043,0.083-0.086,0.123-0.13l9.668-10.957l-2.39-3.017c0,0-9.997-13.255-13.186-17.484
				c8.998-11.548,16.857-23.943,23.433-36.957c5.212,1.156,24.991,5.545,24.991,5.545l1.59-3.499
				c8.127-17.889,14.148-36.765,17.895-56.1l0.713-3.678c0,0-18.504-8.359-23.318-10.533c1.778-11.596,2.721-23.328,2.721-35.033
				c0-1.616-0.058-3.228-0.092-4.841c5.19-1.399,24.355-6.564,24.355-6.564l-0.247-3.869c-1.259-19.712-4.829-39.277-10.612-58.151
				l-1.097-3.581c0,0-19.912,1.28-25.146,1.617c-3.927-11.226-8.755-22.176-14.405-32.665c3.977-3.572,18.493-16.608,18.493-16.608
				l-1.986-3.345c-10.145-17.089-22.327-32.954-36.203-47.154l-2.608-2.669c0,0-16.873,10.048-21.357,12.717
				c-8.163-7.752-16.878-14.882-25.999-21.275c2.013-4.963,9.17-22.611,9.17-22.611l-3.309-2.124
				c-16.964-10.885-35.243-19.702-54.331-26.205l-3.523-1.201c0,0-10.363,16.267-13.147,20.635
				c-11.033-3.298-22.327-5.768-33.693-7.371c-0.573-5.219-2.627-23.975-2.627-23.975l-3.83-0.375
				c-20.148-1.972-40.517-1.531-60.54,1.313l-3.703,0.525c0,0-1.758,18.78-2.24,23.916c-12.165,2.197-24.153,5.384-35.756,9.505
				c-2.944-4.255-13.575-19.631-13.575-19.631l-3.512,1.412c-18.927,7.607-36.877,17.513-53.352,29.443l-3.042,2.203
				c0,0,7.23,17.271,9.218,22.021c-5.032,3.96-9.963,8.105-14.628,12.462c-4.65,4.34-9.126,8.974-13.435,13.73
				c-4.599-2.309-21.32-10.703-21.32-10.703l-2.407,2.882c-13.077,15.662-24.206,32.88-33.078,51.176l-1.652,3.408
				c0,0,14.627,11.682,18.671,14.911c-4.907,11.288-8.91,23.027-11.942,35.016c-5.155,0.126-24.017,0.59-24.017,0.59l-0.775,3.666
				c-3.643,17.245-5.482,34.868-5.482,52.498c0,2.611,0.04,5.222,0.121,7.832l0.118,3.837c0,0,18.458,3.321,23.616,4.249
				c0.818,11.47,2.504,22.908,5.03,34.122c-4.538,2.469-21.33,11.607-21.33,11.607l0.957,3.599
				c5.168,19.443,12.638,38.193,22.202,55.733l1.861,3.412c0,0,18.175-5.667,23.235-7.245c5.764,9.563,12.286,18.764,19.463,27.448
				c-0.52,0.751-1.293,1.867-2.211,3.19c-6.254-1.187-12.458-2.591-18.597-4.263c-6.225-1.697-15.576-1.077-21.407,3.389
				c-3.688,2.825-5.636,6.794-5.636,11.478c0,0.016,0.046,15.593,0.067,23.058c-19.11-4.528-45.355-14.916-57.26-22.937
				l-7.281-4.905L9.223,698.747l2.459,1.374c33.954,18.98,67.599,27.657,98.901,34.204c49.043,10.257,99.475,9.138,163.521-3.631
				l29.489-5.997c54.159-11.129,100.934-20.74,150.009-20.217c32.327,0.342,67.101,6.263,109.432,18.632l6.068,1.772v-120.07
				L565.951,603.693L565.951,603.693z"/>
			<path style="fill-rule:evenodd;clip-rule:evenodd;fill:#0A3F7F;" d="M521.68,406.38l24.185-6.518
				c-1.232-19.299-4.715-38.466-10.413-57.065l-24.969,1.605c-4.402-13.288-10.095-26.241-17.067-38.676l18.351-16.48
				c-9.786-16.483-21.618-32.038-35.518-46.261l-21.214,12.632c-9.749-9.56-20.186-18.065-31.161-25.476l9.101-22.441
				c-16.892-10.839-34.801-19.405-53.299-25.707l-13.056,20.491c-13.106-4.147-26.534-7.08-40.093-8.761l-2.606-23.786
				c-19.786-1.936-39.744-1.505-59.412,1.288l-2.224,23.742c-14.25,2.335-28.318,6.053-41.993,11.167l-13.469-19.477
				c-18.333,7.369-35.928,17.001-52.339,28.884l9.145,21.849c-5.894,4.484-11.617,9.303-17.143,14.462
				c-5.524,5.156-10.721,10.531-15.608,16.102l-21.151-10.619c-13.072,15.657-23.881,32.533-32.451,50.206l18.522,14.793
				c-6.038,13.287-10.715,27.069-14.029,41.124l-23.835,0.586c-4.12,19.501-5.874,39.39-5.261,59.203l23.437,4.217
				c0.747,13.646,2.739,27.237,5.977,40.6L60.908,479.59c5.018,18.876,12.279,37.252,21.783,54.681l23.053-7.188
				c6.641,11.459,14.403,22.455,23.271,32.841l-2.815,4.063c0.956,0.15,1.913,0.28,2.87,0.42l7.783-11.231
				c-8.46-9.906-15.862-20.396-22.198-31.321l-21.89,6.823c-9.062-16.633-15.983-34.165-20.762-52.18l20.091-10.937
				c-3.087-12.744-4.987-25.71-5.701-38.724l-22.213-3.997c-0.58-18.909,1.098-37.887,5.04-56.494l22.573-0.555
				c3.156-13.407,7.621-26.549,13.381-39.224l-17.53-14c8.18-16.865,18.501-32.97,30.981-47.908l20.007,10.045
				c4.658-5.314,9.617-10.443,14.886-15.361c5.269-4.92,10.729-9.514,16.349-13.793l-8.647-20.662
				c15.662-11.344,32.455-20.538,49.952-27.57l12.739,18.421c13.042-4.876,26.458-8.422,40.05-10.649l2.104-22.457
				c18.769-2.67,37.818-3.087,56.7-1.24l2.47,22.511c12.932,1.605,25.737,4.4,38.237,8.355l12.367-19.404
				c17.652,6.006,34.746,14.174,50.867,24.515l-8.626,21.269c10.467,7.069,20.42,15.182,29.72,24.301l20.123-11.986
				c13.27,13.565,24.566,28.403,33.909,44.126l-17.427,15.65c6.65,11.861,12.077,24.214,16.278,36.887l23.731-1.526
				c5.445,17.744,8.772,36.027,9.954,54.439l-23.008,6.199c0.559,14.776-0.416,29.592-2.893,44.188l22.056,9.968
				c-3.473,17.95-9.05,35.583-16.734,52.507l-23.617-5.238c-6.879,14.2-15.426,27.763-25.61,40.402l14.627,19.393
				c-2.166,2.555-4.38,5.083-6.673,7.566c-3.085,3.338-6.254,6.552-9.486,9.669c3.793,0.182,7.583,0.387,11.367,0.639
				c1.32,0.088,2.633,0.193,3.946,0.294c0.881-0.925,1.767-1.843,2.636-2.784c2.398-2.595,4.711-5.236,6.975-7.907l-15.345-20.346
				c10.679-13.25,19.641-27.474,26.851-42.362l24.79,5.501c8.06-17.742,13.91-36.223,17.559-55.042l-23.163-10.464
				C521.244,437.406,522.265,421.871,521.68,406.38L521.68,406.38z"/>
			<path style="fill-rule:evenodd;clip-rule:evenodd;fill:#F7D40A;" d="M187.551,567.577c-5.529-4.079-10.894-8.49-16.055-13.257
				C95.18,483.828,90.43,364.076,160.932,287.74c70.502-76.324,190.253-81.06,266.583-10.566
				c76.311,70.494,81.067,190.253,10.566,266.569c-17.266,18.695-37.489,33.085-59.302,43.139
				c27.989-2.477,56.22-3.043,84.251-1.697c3.232-3.117,6.401-6.331,9.486-9.669c2.293-2.483,4.507-5.012,6.673-7.566
				l-14.627-19.393c10.185-12.64,18.732-26.202,25.61-40.402l23.617,5.238c7.684-16.924,13.262-34.557,16.734-52.507l-22.056-9.967
				c2.477-14.596,3.452-29.412,2.893-44.188l23.008-6.2c-1.183-18.412-4.51-36.695-9.954-54.439l-23.731,1.526
				c-4.201-12.673-9.628-25.026-16.278-36.887l17.427-15.65c-9.343-15.723-20.64-30.561-33.909-44.126l-20.123,11.986
				c-9.3-9.12-19.253-17.232-29.72-24.301l8.626-21.269c-16.121-10.341-33.215-18.509-50.867-24.515l-12.367,19.404
				c-12.5-3.955-25.306-6.749-38.237-8.355l-2.47-22.511c-18.882-1.847-37.931-1.43-56.7,1.24l-2.104,22.457
				c-13.592,2.227-27.008,5.772-40.05,10.649l-12.739-18.421c-17.498,7.033-34.29,16.226-49.953,27.57l8.647,20.662
				c-5.62,4.279-11.079,8.873-16.349,13.793c-5.27,4.918-10.228,10.047-14.886,15.361l-20.007-10.045
				c-12.48,14.938-22.801,31.043-30.981,47.908l17.53,14c-5.76,12.675-10.225,25.817-13.381,39.224l-22.573,0.555
				c-3.942,18.607-5.62,37.585-5.04,56.493l22.213,3.998c0.714,13.014,2.614,25.979,5.701,38.724l-20.091,10.937
				c4.778,18.014,11.699,35.547,20.762,52.18l21.89-6.823c6.336,10.925,13.738,21.415,22.198,31.321l-7.8,11.256
				C148.384,567.265,167.934,568.049,187.551,567.577L187.551,567.577z"/>
			<path style="fill-rule:evenodd;clip-rule:evenodd;fill:#0A3F7F;" d="M363.072,594.565c-0.43-2.092-1.2-4.074-2.417-5.814
				c6.026-0.712,12.07-1.335,18.124-1.87c10.798-4.978,21.204-11.021,31.057-18.118c0.928,3.918-0.666,7.882-2.933,12.144
				c18.244,2.384,27.889-14.387,23.693-29.521c2.549-2.466,5.05-5.007,7.485-7.644c70.502-76.315,65.746-196.075-10.566-266.569
				c-76.33-70.494-196.081-65.758-266.583,10.566C90.43,364.076,95.18,483.828,171.496,554.321
				c5.161,4.767,10.526,9.178,16.055,13.257c6.513-0.157,13.033-0.466,19.555-0.87c-9.759-5.96-19.078-12.945-27.787-20.991
				c-71.625-66.162-76.094-178.555-9.916-250.192c66.163-71.632,178.553-76.101,250.191-9.937
				c71.625,66.174,76.09,178.569,9.921,250.204c-1.564,1.693-3.161,3.337-4.776,4.954c-0.303-0.323-0.612-0.633-0.929-0.932
				c-0.041-0.04-0.084-0.077-0.125-0.117c-0.586-0.545-1.189-1.051-1.81-1.52c-0.068-0.051-0.137-0.104-0.207-0.155
				c-1.014-0.745-2.066-1.392-3.147-1.943c-0.026-0.014-0.054-0.026-0.08-0.04c-0.729-0.367-1.466-0.692-2.21-0.973
				c2.01-1.968,3.982-3.995,5.912-6.084c62.418-67.575,58.205-173.597-9.359-236.019c-56.676-52.344-140.386-57.814-202.74-18.357
				c39.745,10.889,97.644,26.239,124.583,59.601c0.176-4.449-0.786-9.023-3.148-14.169c24.274,7.406,41.153,23.645,50.881,47.214
				c0.26-4.615-0.915-9.679-1.572-14.166c13.867,10.645,49.126,49.057,31.922,67.59c-6.914-1.554-17.8,1.927-24.58,4.799
				c-26.752-17.832-67.116-20.893-74.842-17.846c5.697,1.823,4.552,1.062,10.323,3.686c0.294,4.442-1.934,13.068-2.18,17.652
				c-23.373-9.403-38.581-14.959-64.444-8.214c-5.323-8.31-7.459-14.688-10.49-22.031c5.37,2.809,10.247,4.948,16.261,6.299
				c-3.818-6.22-22.799-36.349-29.828-41.891c21.433,6.744,31.28,12.788,37.092,14.533c-8.439-20.325-28.841-42.077-46.08-56.053
				c5.587,1.182,41.485,16.887,44.4,17.886c-15.601-28.519-39.631-46.687-69.687-57.01c-7.741,5.859-15.069,12.476-21.878,19.848
				c-23.965,25.942-38.097,57.551-42.606,90.183c51.441,11.414,114.536,19.887,132.262,66.222
				c-36.853-35.406-85.922-45.601-133.411-55.289c-3.533,48.99,14.371,99.111,53.109,134.894
				c12.017,11.1,25.257,20.07,39.244,26.973c28.424-2.544,56.775-6.636,84.603-9.916c1.478,2.164,2.948,4.329,4.426,6.493
				c-71.787,8.11-145.572,20.233-213.365,1.761c-7.275-1.982-21.088-0.178-21.059,10.33l0.084,28.896
				C61.046,599.338,29.744,587.665,15.399,578l-1.404,117.984c32.084,17.936,63.81,26.643,97.559,33.702
				c54.812,11.464,106.902,7.27,161.625-3.64c66.071-13.171,122.009-26.929,180.474-26.305
				c35.082,0.371,71.073,7.239,110.711,18.821V608.156C502.354,586.097,429.439,586.428,363.072,594.565L363.072,594.565z
				 M352.274,583.189c0.768-4.188,1.859-7.363,3.48-10.368c9.865-3.509,19.453-7.967,28.619-13.365
				c1.821,4.604,1.722,7.798-0.318,11.72c-9.554,5.178-19.503,9.411-29.702,12.715C353.7,583.628,353.015,583.389,352.274,583.189
				L352.274,583.189z"/>
			<polygon style="fill-rule:evenodd;clip-rule:evenodd;fill:#F7D40A;" points="293.035,654.888 280.583,655.739 276.432,644.382 
				272.282,656.518 259.829,658.006 269.716,664.654 266.172,676.929 276.432,668.903 286.694,675.001 283.148,663.393 
				293.035,654.888 			"/>
			<path style="fill-rule:evenodd;clip-rule:evenodd;fill:#FFFFFF;" d="M361.243,437.689c-6.386-3.51-11.499-6.336-19.023-8.344
				c-2.114,7.773,1.028,24.508,9.98,35.886C351.229,449.77,355.723,442.958,361.243,437.689L361.243,437.689z"/>
			<path style="fill-rule:evenodd;clip-rule:evenodd;fill:#FFFFFF;" d="M177.164,707.014c-2.606-0.035-5.211-0.138-7.765-0.274
				c-3.014-11.171-6.034-22.34-9.044-33.485c-3.018-11.182-6.027-22.478-9.043-33.761c-8.737-0.815-17.422-2.019-26.107-3.336
				c-3.219,10.444-6.441,20.938-9.657,31.405c-3.221,10.491-6.437,20.96-9.656,31.366c-2.657-0.59-5.313-1.18-7.97-1.768
				l-1.748,14.861c8.369,2.15,17.936,4.438,26.031,5.526c1.956-7.826,4.338-16.567,6.372-24.374
				c5.876,0.79,11.802,1.593,17.728,2.194c1.943,8.28,3.881,17.614,5.927,25.872c7.977,0.814,17.486,0.872,26.164,1.01
				L177.164,707.014L177.164,707.014z M132,679.272c0.92-3.574,1.888-7.135,2.81-10.719c0.917-3.56,1.941-7.12,2.912-10.694
				c0.868,3.823,1.737,7.648,2.605,11.459c0.868,3.811,1.737,7.608,2.656,11.397C139.306,680.261,135.628,679.774,132,679.272
				L132,679.272z"/>
			<path style="fill-rule:evenodd;clip-rule:evenodd;fill:#FFFFFF;" d="M151.261,635.812c0-1.742,0-3.485,0-5.254
				c-8.736-0.814-17.421-2.042-26.107-3.37c0,1.767,0,3.521,0.051,5.289C133.89,633.793,142.575,634.997,151.261,635.812
				L151.261,635.812z"/>
			<path style="fill-rule:evenodd;clip-rule:evenodd;fill:#FFFFFF;" d="M324.702,610.748c-9.533,2.11-19.068,4.361-28.599,6.74
				c0,5.114,0.052,10.204,0.102,15.307c2.606-0.652,5.212-1.305,7.817-1.956c0,7.358,0.051,21.142,0.051,28.499
				c0,7.359,0.056,14.461,0.103,21.807c0.004,0.677,0.026,1.344,0,2.019c-0.178,4.578,0.189,7.723-5.263,9.302
				c-5.244,1.519-10.485,2.177-15.889,2.987c-0.051-4.051-0.051-8.124-0.051-12.199c-6.284,1.379-12.568,2.758-18.853,3.91
				c0,8.909,0.003,17.447,0.103,26.354c14.607-2.126,30.119-4.752,44.551-8.441c7.047-1.801,11.907-7.148,13.897-14.179
				c0.201-0.714,0.408-1.467,0.56-2.23c0.153-0.77,0.255-1.548,0.359-2.358c0.102-0.81,0.154-1.638,0.204-2.494
				c0.052-0.85,0.052-1.716,0.052-2.596c0-8.111-0.154-15.952-0.154-24.075c0-8.124-0.051-22.683-0.051-30.807
				c2.657-0.575,5.364-1.152,8.071-1.729c-0.026-2.634-0.037-5.275-0.044-7.918C329.051,615.109,326.703,613.114,324.702,610.748
				L324.702,610.748z"/>
			<path style="fill-rule:evenodd;clip-rule:evenodd;fill:#FFFFFF;" d="M244.041,677.154c0-6.958,0.051-13.941-0.051-20.911
				c-0.042-2.869-0.01-5.606-0.868-8.349c-2.765-8.847-9.354-10.142-16.973-9.876c-11.418,0.399-25.561-0.008-36.037,4.316
				c-6.39,2.641-9.793,7.847-9.883,18.372c-0.014,1.648-0.101,3.292-0.101,4.939c0,5.327,0,10.656,0,15.971
				c0,5.316,0.074,10.655,0.101,15.971c0.022,4.217,0.311,8.415,1.329,12.513c1.674,6.73,5.683,9.731,12.261,10.993
				c3.87,0.741,7.707,0.899,11.65,0.751c4.805-0.177,9.604-0.522,14.458-0.776c3.165-0.166,6.191-0.597,9.247-1.393
				c8.144-2.122,12.623-6.052,14.356-14.668c0.468-2.33,0.588-4.573,0.614-6.945C244.215,691.093,244.041,684.123,244.041,677.154
				L244.041,677.154z M224.627,696.471c-0.218,5.799-0.159,9.189-7.05,9.628c-3.226,0.206-6.545,0.653-9.822,0.716
				c-6.742,0.125-7.655-2.285-7.703-8.876c-0.04-5.555-0.102-11.121-0.102-16.674c0-5.568-0.051-11.134-0.051-16.711
				c0-4.909-0.492-8.923,5.145-10.183c3.597-0.803,8.342-1.287,12.268-1.254c6.843,0.06,7.046,3.095,7.162,9.518
				c0.104,5.652,0.052,11.294,0.052,16.936C224.525,685.201,224.838,690.846,224.627,696.471L224.627,696.471z"/>
			<path style="fill-rule:evenodd;clip-rule:evenodd;fill:#FFFFFF;" d="M525.473,611.497c0-1.681,0-3.36,0-5.065
				c-8.736-1.968-17.423-3.686-26.108-5.254c0,1.719,0,3.409,0.051,5.116C508.101,607.834,516.788,609.553,525.473,611.497
				L525.473,611.497z"/>
			<path style="fill-rule:evenodd;clip-rule:evenodd;fill:#FFFFFF;" d="M544.147,670.654c-6.132-1.631-12.262-3.247-18.344-4.727
				c0,4.5,0.052,9.028,0.103,13.539c-7.357-1.491-14.715-2.984-22.07-4.087c-0.052-6.194-0.103-13.471-0.103-19.664
				c9.248,1.53,18.495,3.46,27.792,5.617c-0.05-4.728-0.05-9.429-0.05-14.129c-9.299-2.182-18.546-4.15-27.794-5.729
				c-0.05-5.741-0.101-11.471-0.101-17.213c7.051,1.203,14.1,2.709,21.151,4.239c0,3.923,0,7.834,0.052,11.759
				c6.13,1.466,12.261,3.108,18.444,4.738c-0.052-4.3-0.104-8.601-0.104-12.888c0-4.275,0-8.575,0-12.876
				c-22.275-5.641-44.55-9.979-66.774-12.961c0,4.774,0,9.552,0.052,14.341c2.553,0.202,5.109,0.501,7.663,0.827
				c0,8.414,0.103,16.85,0.103,25.248c0,8.413,0.103,17.922,0.152,26.347c-2.606-0.263-5.158-0.515-7.715-0.652
				c0,4.775,0.052,9.552,0.103,14.342c22.531,2.131,45.062,5.943,67.591,11.458C544.197,689.008,544.147,679.829,544.147,670.654
				L544.147,670.654z"/>
			<polygon style="fill-rule:evenodd;clip-rule:evenodd;fill:#F7D40A;" points="114.133,594.577 114.143,599.609 104.684,599.609 
				104.672,592.749 116.595,592.749 116.585,587.488 104.661,587.488 104.649,581.131 113.71,581.131 113.717,585.507 
				121.635,585.507 121.617,575.909 92.975,575.909 92.986,581.131 96.279,581.131 96.313,599.609 93.02,599.609 93.03,604.833 
				122.012,604.833 121.993,594.577 114.133,594.577 			"/>
			<polygon style="fill-rule:evenodd;clip-rule:evenodd;fill:#F7D40A;" points="313.396,594.577 305.537,594.577 305.546,599.609 
				296.088,599.609 296.074,592.749 307.999,592.749 307.99,587.488 296.066,587.488 296.053,581.131 305.114,581.131 
				305.122,585.507 313.039,585.507 313.021,575.909 284.38,575.909 284.39,581.131 287.682,581.131 287.717,599.609 
				284.425,599.609 284.434,604.833 313.416,604.833 313.396,594.577 			"/>
			<polygon style="fill-rule:evenodd;clip-rule:evenodd;fill:#F7D40A;" points="251.845,575.909 251.863,585.16 259.779,585.16 
				259.772,581.131 263.495,581.131 263.529,599.609 260.121,599.609 260.131,604.833 275.203,604.833 275.193,599.609 
				271.899,599.609 271.865,581.131 275.589,581.131 275.596,585.16 283.512,585.16 283.495,575.909 251.845,575.909 			"/>
			<path style="fill-rule:evenodd;clip-rule:evenodd;fill:#0D478C;" d="M381.176,407.809l-13.326-29.44
				c-9.45-0.354-18.719-0.041-27.135,3.477c4.168,0.263,8.412,1.148,12.066,4.248c-7.603,14.65,7.596,26.103,21.267,21.925
				c0.901,2.284,2.346,4.11,4.531,5.571c5.476,0.031,8.28-0.498,13.511-4.223C388.45,409.602,385.002,409.422,381.176,407.809
				L381.176,407.809z"/>
			<path style="fill-rule:evenodd;clip-rule:evenodd;fill:#FFFFFF;" d="M371.517,400.599c-2.298,1.715-5.797,1.38-8.092-0.874
				c-2.464-2.419-2.627-6.16-0.366-8.325c0.965-0.922,2.215-1.413,3.526-1.487c-0.531-1.151-1.064-2.304-1.596-3.456
				c-1.946,0.139-3.8,0.885-5.233,2.258c-3.452,3.304-3.202,9.014,0.557,12.709c3.467,3.405,8.732,3.941,12.24,1.418
				C372.209,402.094,371.862,401.348,371.517,400.599L371.517,400.599z"/>
			<path style="fill-rule:evenodd;clip-rule:evenodd;fill:#F7D40A;" d="M408.061,429.013c-8.735,0.78-14.966,3.066-20.751,6.256
				c-18.498-11.802-36.236-17.528-55.138-20.014c-6.087,37.836,7.007,55.435,27.414,64.952c-0.675-11.675,1.64-24.189,10.285-37.076
				c-1.257-0.94-2.092-1.553-3.245-2.234c-6.252,7.283-10.126,19.106-11.926,32.061c-12.952-10.564-19.447-26.285-17.014-50.613
				c6.912,1.248,29.861,5.244,46.64,19.884c10.473,9.137,21.673,28.552,13.11,39.751c10.4,1.689,26.277-0.882,31.674-9.026
				C437.087,460.921,418.016,437.255,408.061,429.013L408.061,429.013z"/>
			<path style="fill-rule:evenodd;clip-rule:evenodd;fill:#0D478C;" d="M402.138,437.833c-2.748,0.649-5.373,1.546-7.882,2.668
				c8.543,4.664,11.728,10.661,12.264,16.768C410.213,452.736,410.36,445.81,402.138,437.833L402.138,437.833z"/>
			<polygon style="fill-rule:evenodd;clip-rule:evenodd;fill:#FFFFFF;" points="227.042,478.678 217.872,458.401 208.704,478.678 
				186.58,481.243 202.946,496.169 197.939,517.918 217.872,506.935 237.055,518.168 232.674,496.169 249.165,481.118 
				227.042,478.678 			"/>
			<path style="fill-rule:evenodd;clip-rule:evenodd;fill:#FFFFFF;" d="M331.968,284.405l-22.123-2.442l-9.168-20.277l-9.17,20.277
				l-22.291,2.585c1.999,0.619,6.098,2.407,10.162,4.509c3.748,1.939,7.923,4.031,11.746,6.114
				c8.771,4.779,17.245,9.442,26.588,15.496l-2.233-11.213L331.968,284.405L331.968,284.405z"/>
			<path style="fill-rule:evenodd;clip-rule:evenodd;fill:#F7D40A;" d="M152.142,594.425c0-2.381-0.57-3.949-1.651-5.03
				c-1.283-1.283-4.046-2.061-8.414-2.061h-4.497c-1.737,0-2.827-0.186-3.055-0.412c-0.216-0.216-0.456-0.703-0.456-1.596
				l-0.005-2.112c0-0.963,0.166-1.539,0.386-1.758c0.091-0.091,0.867-0.325,2.549-0.325h6.178l0.007,3.911h8.031l-0.017-9.134
				h-15.25c-3.909,0-10.255,0.389-10.255,6.78l0.006,3.355c0,3.83,1.513,7.016,9.495,7.016h5.133c1.737,0,2.868,0.183,3.008,0.324
				c0.216,0.218,0.379,0.75,0.379,1.759l0.005,2.344c0,1.009-0.198,1.526-0.413,1.742c-0.204,0.204-1.683,0.38-3.636,0.38h-5.859
				l-0.008-4.182h-8.086l0.017,9.406h16.463c3.759,0,9.95-0.357,9.95-6.975L152.142,594.425L152.142,594.425z"/>
			<path style="fill-rule:evenodd;clip-rule:evenodd;fill:#F7D40A;" d="M184.314,582.301c0-4.443-2.72-6.392-10.207-6.392H155.49
				l0.01,5.223h3.293l0.035,18.478h-3.293l0.01,5.225h14.957l-0.01-5.225h-3.35l-0.013-6.51h7.239c3.4,0,6.563-0.402,8.228-2.066
				c1.042-1.042,1.725-2.667,1.725-5.065L184.314,582.301L184.314,582.301z M176.119,585.445c0,1.121-0.213,1.779-0.43,1.995
				c-0.105,0.105-0.805,0.359-2.543,0.359h-6.027l-0.012-6.473h5.499c1.833,0,2.949,0.141,3.177,0.369
				c0.216,0.216,0.334,0.746,0.334,1.639V585.445L176.119,585.445z"/>
			<path style="fill-rule:evenodd;clip-rule:evenodd;fill:#F7D40A;" d="M214.465,583.157c0-2.313-0.522-4.211-1.729-5.352
				c-1.596-1.508-5.17-2.013-8.706-2.013H197.2c-4.497,0-7.147,0.645-8.333,1.831c-1.447,1.447-1.792,4.207-1.792,7.169
				l0.021,11.429c0,3.374,0.632,5.53,1.858,6.757c1.37,1.369,4.547,1.972,8.924,1.972h6.199c3.987,0,7.081-0.5,8.622-2.042
				c1.152-1.151,1.792-2.843,1.792-5.166L214.465,583.157L214.465,583.157z M205.6,599.23c-0.135,0.135-0.831,0.379-2.513,0.379
				h-4.407c-1.737,0-2.477-0.236-2.598-0.357c-0.401-0.4-0.5-1.755-0.5-2.844l-0.022-11.88c0-2.003,0.32-2.874,0.536-3.09
				c0.329-0.329,1.945-0.5,3.74-0.5h2.424c1.737,0,2.999,0.164,3.326,0.491c0.185,0.185,0.511,1.113,0.511,3.061l0.022,11.916
				C206.118,598.247,205.849,598.981,205.6,599.23L205.6,599.23z"/>
			<path style="fill-rule:evenodd;clip-rule:evenodd;fill:#F7D40A;" d="M251.232,599.609h-3.407l-0.009-4.869
				c0-1.318-0.168-2.48-0.757-3.328c-0.445-0.641-1.117-1.011-2.165-1.367c1.629-0.919,2.28-2.363,2.28-4.427l-0.005-2.775
				c0-1.997-0.504-3.55-1.637-4.684c-1.288-1.289-4.091-2.251-8.624-2.251h-18.732l0.01,5.223h3.349l0.035,18.478h-3.349l0.01,5.225
				h11.721l-0.022-11.813h5.798c1.737,0,2.926,0.174,3.237,0.485c0.216,0.216,0.426,0.683,0.426,1.485l0.018,9.843h11.835
				L251.232,599.609L251.232,599.609z M238.803,585.789c0,0.758-0.146,1.316-0.362,1.532c-0.252,0.252-1.325,0.437-3.063,0.437
				h-5.46l-0.012-6.628h5.63c1.737,0,2.566,0.205,2.845,0.484c0.216,0.216,0.422,0.654,0.422,1.448V585.789L238.803,585.789z"/>
			<path style="fill-rule:evenodd;clip-rule:evenodd;fill:#FFFFFF;" d="M375.619,622.892c0.748-0.053,1.493-0.083,2.227-0.071
				c5.423,0.085,4.438,5.755,4.548,9.452c0.174,5.764,0.052,11.533,0.052,17.3c0,5.756,0.101,11.054,0.101,16.809
				c0,1.459-0.114,2.918-0.205,4.374c-0.257,4.115-1.45,4.933-5.415,5.792c-0.506,0.109-0.97,0.188-1.43,0.263
				c-3.422,0.563-6.846,1.116-10.27,1.693c-0.935,0.157-1.863,0.312-2.809,0.389c-2.876,0.232-3.668,0.069-4.088-2.784
				c-0.276-1.891-0.343-3.757-0.359-5.665c-0.044-5.806-0.102-11.13-0.102-16.922c0-5.643-0.047-11.287-0.05-16.93
				c-6.759,0.062-14.239-3.39-19.018-8.275c-0.723,4.417-0.821,9.028-0.754,12.217c0,5.615,0,11.231,0,16.85
				c0,5.601,0.056,10.74,0.101,16.329c0.025,3.427,0.219,6.836,0.766,10.217c1.499,9.223,6.338,12.163,15.378,11.673
				c3.072-0.163,6.068-0.609,9.094-1.155c4.803-0.863,9.604-1.687,14.458-2.507c0.56-0.095,1.125-0.176,1.686-0.287
				c0.562-0.113,1.126-0.228,1.687-0.352c1.02-0.227,2.048-0.417,3.065-0.666c8.121-1.989,14.149-5.388,16.707-13.862
				c0.86-2.859,1.073-6.049,1.073-9.016c0-6.983-0.103-13.497-0.103-20.48c0-6.983-0.007-13.979-0.05-20.973
				c-0.016-6.933-1.358-12.373-4.403-15.421c-3.193-3.193-11.097-4.495-20.019-3.234l-15.581,2.2
				c-0.121,0.426-0.246,0.841-0.371,1.237C359.549,617.341,367.163,621.598,375.619,622.892L375.619,622.892z"/>
			<path style="fill-rule:evenodd;clip-rule:evenodd;fill:#F7D40A;" d="M363.702,530.876c-11.365-0.986-20.326,4.207-22.02,15.208
				c-4.88-4.343-18.996-21.168-22.15-23.587c-1.533,4.408-1.687,9.025-0.687,13.482c-6.503-4.345-13.06-5.914-18.316-6.474
				c7.722,9.2,22.224,29.702,27.747,38.813c-8.315,9.386-9.906,32.295,6.511,41.776c4.64-8.105,11.405-9.196,19.676-5.286
				c2.49-8.335-4.094-17.063-10.08-18.566c0.649-7.198,4.48-18.366,9.554-24.147c-3.395-3.708-4.549-8.096-2.202-13.664
				c4.278,11.603,13.917,13.986,22.63,4.746C365.485,550.233,361.193,540.238,363.702,530.876L363.702,530.876z"/>
			<path style="fill-rule:evenodd;clip-rule:evenodd;fill:#FFFFFF;" d="M356.854,621.199c-1.945-4.306-2.072-10.377-8.278-11.656
				c-3.264-0.671-6.813,0.704-7.195,5.469c-1.043,12.971,16.361,19.773,24.983,11.077
				C362.265,625.939,358.627,625.12,356.854,621.199L356.854,621.199z"/>
			<path style="fill-rule:evenodd;clip-rule:evenodd;fill:#FFFFFF;" d="M377.307,529.364c-6.306,0.619-8.053,5.382-7.086,9.725
				c1.84,8.253,9.895,8.281,15.65,10.78c5.242,2.278,5.457,7.456,5.124,12.713C406.554,554.196,392.343,527.892,377.307,529.364
				L377.307,529.364z"/>
			<path style="fill-rule:evenodd;clip-rule:evenodd;fill:#FFFFFF;" d="M421.729,547.478c-3.109-5.209-10.038-10.151-18.337-5.982
				c1.397,3.885,2.477,9.26,1.551,13.376c8.472,2.296,13.514,9.518,10.939,18.29C426.736,569.436,427.053,556.398,421.729,547.478
				L421.729,547.478z"/>
			<path style="fill-rule:evenodd;clip-rule:evenodd;fill:#FFFFFF;" d="M403.067,500.12l-22.124-2.44l-9.169-20.278l-9.168,20.278
				l-22.125,2.566l16.366,14.927l-1.864,8.103c10.276-3.552,23.419-2.18,33.828,3.123l-2.235-11.227L403.067,500.12L403.067,500.12z
				"/>
			<path style="fill-rule:evenodd;clip-rule:evenodd;fill:#FFFFFF;" d="M92.864,666.245c-1.98-3.955-3.853-6.137-7.203-8.716
				c-3.964-3.047-9.425-5.003-14.05-6.547c-4.517-1.507-9.292-2.748-13.591-4.907c-3.311-1.661-5.009-2.831-5.057-7.109
				c-0.026-2.302-0.052-4.605-0.052-6.91c0-6.821,1.691-6.36,6.796-4.537c4.83,1.728,9.605,3.452,14.407,5.048
				c0,4.047,0,8.091,0.051,12.15c6.233,2.005,12.465,3.736,18.749,5.467c-0.101-9.397-0.101-18.796-0.101-28.196
				c-11.854-3.346-23.693-7.36-35.559-11.702c-6.283-2.298-12.843-4.08-17.481-2.347c-3.844,1.437-6.377,5.318-6.377,13.418
				c0,3.5,0,6.984,0,10.471c0,0.984,0.051,1.981,0.102,2.989c0.052,0.942,0.153,1.896,0.255,2.864
				c1.457,8.657,4.66,14.166,10.985,19.459c3.235,2.706,7.039,4.535,10.882,6.009c3.979,1.526,7.966,2.997,11.956,4.313
				c6.615,2.184,7.339,1.976,7.919,9.023c0.198,2.417,0.244,4.855,0.05,7.296c-0.532,6.713-1.486,5.92-7.713,4.095
				c-0.615-0.181-1.175-0.348-1.738-0.539c-4.546-1.52-9.094-3.234-13.641-4.96c-0.051-4.358-0.051-8.704-0.051-13.066
				c-6.335-2.534-12.62-5.33-18.903-8.127c0,9.812,0.052,19.629,0.153,29.437c12.773,5.711,25.401,11.116,38.369,14.847
				c6.516,1.876,12.896,2.438,17.356-0.933c4.211-3.188,5.726-9.101,5.788-14.327c0.041-3.525,0.039-7.054,0-10.579
				C95.165,674.992,94.541,669.596,92.864,666.245L92.864,666.245z"/>
			<path style="fill-rule:evenodd;clip-rule:evenodd;fill:#FFFFFF;" d="M470.934,656.755c0-3.335-0.496-7.723-1.431-9.651
				c-3.744-7.815-8.667-9.039-16.758-10.493c-0.869-0.074-1.737-0.151-2.604-0.239c-0.92-0.049-1.841-0.087-2.76-0.125
				c-3.525,0.024-7,0.063-10.474,0.113c-0.562-0.011-1.124-0.011-1.686-0.011c-3.871-0.191-6.487-0.157-6.487-4.627
				c0-0.287,0-0.565,0-0.866c-0.052-1.979-0.052-3.974-0.052-5.966c0-0.427,0-0.84,0-1.267c0-4.245,2.336-4.478,5.672-4.687
				c0.357-0.023,0.766-0.026,1.174-0.026c4.803-0.012,9.605,0.013,14.407,0.112c0,3.637,0,7.272,0.053,10.92
				c6.231,0.188,12.466,0.401,18.698,0.826c-0.052-4.198-0.102-8.398-0.102-12.599c0-4.186,0-8.387,0-12.586
				c-11.854-0.802-23.705-1.319-35.559-1.391c-2.894-0.017-5.647,0.248-8.482,0.816c-5.297,1.059-9.37,3.023-12.415,7.608
				c-0.354,0.534-0.664,1.116-0.92,1.693c-1.475,3.33-2.043,6.476-2.043,10.13c0,3.195,0,6.392,0.051,9.576
				c0,4.787,0.749,9.009,3.373,13.051c4.164,4.734,10.447,5.482,16.4,5.578c0.766-0.024,1.582-0.05,2.4-0.063
				c3.984-0.088,7.971-0.176,11.955-0.275c0.46,0,0.971,0,1.482-0.013c0.409,0.013,0.817,0.013,1.277,0.024
				c0.357,0.027,0.716,0.051,1.125,0.088c3.672,0.449,3.989,1.161,4.035,4.464c0.006,0.425,0,0.84,0,1.254
				c0,2.181,0.082,4.35,0.052,6.52c-0.06,4.243,0.026,5.046-4.803,5.729c-0.46,0.049-0.921,0.087-1.38,0.137
				c-0.511,0.038-1.021,0.076-1.533,0.112c-0.612,0.026-1.175,0.063-1.736,0.076c-4.547,0.163-9.095,0.326-13.641,0.564
				c-0.052-3.925-0.052-7.873-0.052-11.81c-6.284,0.402-12.569,0.815-18.853,1.403c0,4.489,0,8.976,0,13.465
				c0,4.476,0.051,8.963,0.103,13.426c12.772-1.203,25.545-2.092,38.368-2.619c1.022-0.024,1.932-0.084,2.953-0.116
				c1.171-0.036,2.157-0.073,2.922-0.197c8.038-1.31,12.608-3.36,16.144-10.818c0.751-1.672,1.176-4.414,1.176-7.787
				C470.934,663.061,470.934,659.903,470.934,656.755L470.934,656.755z"/>
		</g>
	</g>
</g>
</svg>
