<?xml version="1.0" encoding="iso-8859-1"?>
<!-- Generator: Adobe Illustrator 23.0.1, SVG Export Plug-In . SVG Version: 6.00 Build 0)  -->
<svg version="1.1" xmlns="http://www.w3.org/2000/svg" xmlns:xlink="http://www.w3.org/1999/xlink" x="0px" y="0px"
	 viewBox="0 0 595.276 841.89" style="enable-background:new 0 0 595.276 841.89;" xml:space="preserve">
<g id="Grade" style="display:none;">
</g>
<g id="HQFL">
</g>
<g id="&#xC1;rea_de_trabalho">
</g>
<g id="Linhas-guia">
</g>
<g id="Page_1">
	<g id="HQFL_1_">
		<g>
			<path style="fill-rule:evenodd;clip-rule:evenodd;fill:#00A651;" d="M309.726,165.585L309.726,165.585
				c75.315,0,143.683,30.713,193.221,80.251c49.537,49.537,80.248,117.899,80.248,193.215v0.003v0.003
				c0,75.31-30.714,143.678-80.251,193.215c-49.535,49.538-117.902,80.251-193.214,80.251h-0.004h-0.002
				c-75.314,0-143.68-30.713-193.219-80.251C66.97,582.734,36.258,514.371,36.257,439.056v-0.003v-0.003
				c0.001-75.312,30.713-143.681,80.251-193.218c49.537-49.535,117.902-80.247,193.213-80.247H309.726L309.726,165.585z"/>
			<path style="fill-rule:evenodd;clip-rule:evenodd;fill:#FFFFFF;" d="M309.726,173.674L309.726,173.674h-0.006
				c-73.077,0-139.419,29.805-187.493,77.88C74.153,299.628,44.348,365.972,44.348,439.05v0.003v0.003
				c0,73.079,29.805,139.423,77.878,187.495c48.076,48.073,114.418,77.881,187.498,77.881h0.002h0.004
				c73.077,0,139.421-29.808,187.494-77.881c48.076-48.072,77.881-114.416,77.881-187.495v-0.003v-0.003
				c-0.004-73.078-29.805-139.423-77.878-187.495C449.15,203.482,382.806,173.674,309.726,173.674L309.726,173.674z"/>
			<path style="fill-rule:evenodd;clip-rule:evenodd;fill:#00A651;" d="M309.724,251.09h0.004
				c51.88,0.003,98.975,21.155,133.098,55.278c34.123,34.124,55.278,81.218,55.281,133.098v0.003v0.003
				c-0.003,51.881-21.158,98.975-55.281,133.098c-34.123,34.123-81.218,55.281-133.097,55.281h-0.005h-0.001
				c-51.881,0-98.976-21.158-133.099-55.281c-34.123-34.123-55.279-81.218-55.279-133.095v-0.006
				c0-51.881,21.155-98.978,55.28-133.101c34.123-34.123,81.217-55.275,133.096-55.278H309.724L309.724,251.09z"/>
			<path style="fill-rule:evenodd;clip-rule:evenodd;fill:#FFFFFF;" d="M309.728,259.18h-0.004h-0.003
				c-49.645,0.003-94.717,20.25-127.375,52.908c-32.661,32.664-52.911,77.735-52.911,127.381v0.006
				c0,49.647,20.25,94.717,52.908,127.375c32.661,32.658,77.733,52.911,127.38,52.911h0.001h0.005
				c49.645,0,94.716-20.253,127.377-52.911c32.661-32.658,52.908-77.729,52.908-127.378v-0.003v-0.003
				c0-49.643-20.247-94.713-52.908-127.375C404.445,279.43,359.375,259.183,309.728,259.18L309.728,259.18z"/>
			<path style="fill-rule:evenodd;clip-rule:evenodd;fill:#00A651;" d="M118.444,384.824l-46.991-18.976l6.154-15.235
				c2.329-5.765,4.089-9.43,5.268-10.996c1.784-2.404,4.241-4.042,7.326-4.899c3.088-0.863,6.519-0.541,10.254,0.969
				c2.883,1.164,5.101,2.675,6.642,4.507c1.541,1.835,2.553,3.799,3.019,5.865c0.465,2.061,0.55,4.012,0.237,5.817
				c-0.47,2.443-1.566,5.817-3.304,10.117l-2.498,6.185l17.724,7.16L118.444,384.824L118.444,384.824z M83.229,359.562l13.34,5.388
				l2.097-5.194c1.509-3.735,2.272-6.336,2.296-7.795c0.016-1.459-0.36-2.763-1.112-3.902c-0.751-1.134-1.835-1.988-3.216-2.547
				c-1.704-0.687-3.325-0.76-4.838-0.207c-1.515,0.559-2.74,1.55-3.632,2.972c-0.661,1.045-1.695,3.288-3.077,6.707L83.229,359.562
				L83.229,359.562z M115.174,328.499c-4.167-3.027-7.226-6.206-9.153-9.512c-1.409-2.446-2.362-5.094-2.846-7.902
				c-0.491-2.814-0.441-5.483,0.159-7.98c0.776-3.337,2.38-6.686,4.802-10.02c4.385-6.039,9.774-9.51,16.15-10.415
				c6.385-0.9,12.92,1.075,19.588,5.92c6.618,4.805,10.49,10.37,11.614,16.678c1.125,6.31-0.498,12.488-4.873,18.509
				c-4.428,6.096-9.815,9.598-16.141,10.491C128.136,335.167,121.702,333.243,115.174,328.499L115.174,328.499z M121.094,319.759
				c4.644,3.374,8.946,4.874,12.898,4.47c3.954-0.404,7.136-2.264,9.532-5.558c2.395-3.301,3.173-6.875,2.334-10.71
				c-0.846-3.847-3.645-7.507-8.394-10.953c-4.697-3.416-8.959-4.929-12.76-4.553c-3.797,0.377-6.955,2.28-9.431,5.689
				c-2.476,3.41-3.313,7.017-2.492,10.801c0.825,3.781,3.597,7.398,8.315,10.826L121.094,319.759L121.094,319.759z M169.739,297.895
				l-31.209-39.928l16.976-13.263c4.264-3.331,7.655-5.397,10.138-6.194c2.489-0.79,5.045-0.717,7.63,0.201
				c2.594,0.93,4.823,2.571,6.665,4.929c2.344,3,3.396,6.17,3.165,9.491c-0.237,3.328-1.913,6.619-5.018,9.862
				c2.533-0.343,4.852-0.359,6.937-0.025c2.081,0.335,5.312,1.301,9.657,2.9l10.962,3.975l-9.649,7.537l-12.612-4.127
				c-4.492-1.489-7.447-2.346-8.836-2.556c-1.395-0.216-2.644-0.143-3.723,0.225c-1.089,0.374-2.562,1.279-4.419,2.726l-1.63,1.276
				l13.026,16.672L169.739,297.895L169.739,297.895z M159.789,268.547l5.972-4.653c3.864-3.021,6.154-5.078,6.861-6.145
				c0.71-1.082,1.029-2.237,0.942-3.459c-0.079-1.221-0.589-2.443-1.525-3.638c-1.045-1.34-2.258-2.142-3.614-2.416
				c-1.364-0.267-2.786,0.006-4.26,0.808c-0.72,0.42-2.732,1.909-5.995,4.459l-6.293,4.918L159.789,268.547L159.789,268.547z
				 M220.907,262.493l-17.124-38.466l-13.741,6.121l-3.488-7.835l36.791-16.381l3.488,7.835l-13.706,6.102l17.125,38.463
				L220.907,262.493L220.907,262.493z M241.801,224.926c-0.893-5.075-0.889-9.482,0.026-13.202c0.685-2.735,1.839-5.306,3.442-7.661
				c1.6-2.364,3.49-4.249,5.657-5.631c2.877-1.86,6.355-3.155,10.415-3.872c7.347-1.295,13.638-0.048,18.854,3.729
				c5.216,3.787,8.547,9.747,9.979,17.867c1.42,8.054,0.339,14.746-3.235,20.064c-3.574,5.319-9.031,8.637-16.361,9.926
				c-7.42,1.313-13.725,0.088-18.898-3.662C246.493,238.727,243.201,232.87,241.801,224.926L241.801,224.926z M252.131,222.75
				c0.997,5.653,3.051,9.719,6.174,12.175c3.123,2.458,6.705,3.331,10.719,2.623c4.013-0.708,7.054-2.738,9.117-6.081
				c2.062-3.355,2.589-7.932,1.571-13.712c-1.007-5.714-3.019-9.768-6.018-12.138c-2.993-2.365-6.585-3.191-10.735-2.456
				c-4.15,0.729-7.261,2.745-9.296,6.036c-2.035,3.294-2.553,7.822-1.539,13.566L252.131,222.75L252.131,222.75z M379.513,253.649
				l20.611-46.295l31.74,14.132l-3.485,7.829l-22.398-9.968l-4.878,10.956l19.338,8.61l-3.489,7.831l-19.335-8.609l-8.759,19.675
				L379.513,253.649L379.513,253.649z M418.134,273.109l31.193-39.941l29.619,23.14l-5.279,6.759l-21.553-16.84l-6.914,8.85
				l20.052,15.667l-5.261,6.732l-20.052-15.664l-8.488,10.865l22.31,17.436l-5.254,6.725L418.134,273.109L418.134,273.109z
				 M454.418,303.183l39.061-31.631l6.439,7.95l-32.427,26.258l16.013,19.776l-6.638,5.373L454.418,303.183L454.418,303.183z
				 M479.299,337.146l43.888-25.34l5.115,8.859l-43.891,25.34L479.299,337.146L479.299,337.146z M487.24,349.949l8.552-3.465
				l40.457,12.363l-8.847-21.893l7.95-3.209l13.898,34.397l-7.37,2.978l-42.104-12.934l10.801,26.732l-7.913,3.197L487.24,349.949
				L487.24,349.949z"/>
			<path style="fill-rule:evenodd;clip-rule:evenodd;fill:#00A651;" d="M82.421,540.064l45.518-22.203l16.463,33.752l-7.698,3.757
				l-11.98-24.568l-10.095,4.923l11.148,22.86l-7.67,3.744l-11.149-22.86l-12.392,6.042l12.409,25.437l-7.666,3.738L82.421,540.064
				L82.421,540.064z M120.222,574.211l7.125,6.996c-2.167,2.602-3.269,5.124-3.292,7.519c-0.025,2.413,0.968,4.814,2.962,7.19
				c2.115,2.523,4.246,3.975,6.384,4.357c2.141,0.377,3.937-0.03,5.362-1.222c0.913-0.771,1.474-1.695,1.665-2.766
				c0.19-1.07-0.035-2.498-0.682-4.236c-0.461-1.179-1.646-3.75-3.57-7.688c-2.486-5.075-3.675-9.1-3.582-12.06
				c0.133-4.17,1.736-7.549,4.808-10.133c1.974-1.653,4.296-2.638,6.95-2.972c2.664-0.322,5.334,0.188,7.993,1.55
				c2.667,1.356,5.262,3.531,7.76,6.504c4.084,4.868,6.093,9.434,6.023,13.676c-0.07,4.261-1.828,7.95-5.293,11.057l-6.913-7.543
				c1.71-2,2.539-3.94,2.486-5.763c-0.047-1.836-1.003-3.865-2.853-6.072c-1.905-2.267-3.875-3.665-5.887-4.163
				c-1.293-0.322-2.451-0.055-3.454,0.784c-0.912,0.766-1.375,1.81-1.379,3.13c-0.003,1.684,1.145,4.82,3.443,9.379
				c2.302,4.57,3.734,8.175,4.308,10.807c0.576,2.626,0.458,5.167-0.346,7.586c-0.796,2.425-2.432,4.687-4.881,6.741
				c-2.22,1.859-4.823,2.996-7.792,3.392c-2.978,0.395-5.896-0.141-8.725-1.611c-2.835-1.465-5.677-3.89-8.505-7.257
				c-4.117-4.905-6.146-9.628-6.085-14.156c0.058-4.528,2.048-8.881,5.952-13.026H120.222L120.222,574.211z M154.688,632.659
				l25.906-33.156l-11.85-9.264l5.273-6.746l31.722,24.787l-5.272,6.746l-11.819-9.232l-25.907,33.156L154.688,632.659
				L154.688,632.659z M185.141,655.088l21.394-45.902l19.509,9.098c4.901,2.279,8.282,4.359,10.11,6.219
				c1.837,1.859,2.938,4.157,3.288,6.887c0.351,2.728-0.097,5.464-1.36,8.169c-1.604,3.44-3.953,5.816-7.017,7.117
				c-3.063,1.295-6.763,1.301-11.058,0.006c1.459,2.103,2.515,4.164,3.165,6.17c0.647,2,1.25,5.318,1.799,9.913l1.43,11.561
				l-11.08-5.167l-2.045-13.11c-0.717-4.674-1.298-7.69-1.735-9.02c-0.445-1.337-1.078-2.413-1.892-3.209
				c-0.823-0.803-2.305-1.708-4.429-2.699l-1.88-0.875l-8.935,19.159L185.141,655.088L185.141,655.088z M206.758,632.915
				l6.854,3.203c4.443,2.072,7.307,3.173,8.587,3.318c1.282,0.14,2.456-0.103,3.503-0.723c1.052-0.626,1.907-1.636,2.551-3.015
				c0.72-1.544,0.889-2.985,0.514-4.316c-0.383-1.331-1.267-2.479-2.656-3.428c-0.705-0.456-2.937-1.563-6.686-3.313l-7.236-3.374
				L206.758,632.915L206.758,632.915z M238.478,676.782l12.251-49.136l36.439,9.08l-2.071,8.315l-26.521-6.613l-2.717,10.898
				l24.678,6.151l-2.065,8.278l-24.677-6.151l-3.336,13.378l27.46,6.845l-2.062,8.272L238.478,676.782L238.478,676.782z
				 M290.871,686.434l2.618-50.157l10.219,0.535l-2.182,41.641l25.388,1.331l-0.446,8.516L290.871,686.434L290.871,686.434z
				 M384.88,675.98l-10.795,2.692l-7.078-10.09l-19.638,4.899l-1.28,12.168l-10.518,2.626l6.89-53.914l10.49-2.613L384.88,675.98
				L384.88,675.98z M361.764,661.094l-11.323-16.551l-2.091,19.893L361.764,661.094L361.764,661.094z M443.446,649.162
				l-29.765-40.968l30.379-22.076l5.035,6.93l-22.112,16.065l6.601,9.087l20.575-14.952l5.018,6.905l-20.578,14.952l8.106,11.153
				l22.896-16.636l5.012,6.899L443.446,649.162L443.446,649.162z M484.809,615.926l-7.102-6.619l6.622-7.099l7.1,6.619
				L484.809,615.926L484.809,615.926z M506.414,559.915l8.376-6.169c3.576,4.474,5.418,8.941,5.507,13.372
				c0.094,4.437-1.459,8.862-4.653,13.263c-3.954,5.439-9.063,8.565-15.318,9.36c-6.261,0.809-12.633-1.142-19.076-5.823
				c-6.819-4.953-10.838-10.563-12.05-16.824c-1.213-6.261,0.27-12.272,4.436-18.01c3.642-5.009,8.084-8.011,13.32-8.984
				c3.101-0.596,6.638-0.171,10.586,1.288l-3.99,9.611c-2.472-1.052-4.891-1.265-7.23-0.615c-2.347,0.645-4.328,2.066-5.92,4.255
				c-2.204,3.039-2.909,6.297-2.103,9.768c0.808,3.476,3.653,6.99,8.537,10.54c5.173,3.756,9.543,5.507,13.086,5.245
				c3.553-0.273,6.422-1.896,8.586-4.875c1.596-2.194,2.274-4.6,2.03-7.196C510.295,565.526,508.918,562.785,506.414,559.915
				L506.414,559.915z M533.289,549.194l-8.868-3.945l3.947-8.867l8.868,3.944L533.289,549.194L533.289,549.194z"/>
			<path style="fill-rule:evenodd;clip-rule:evenodd;fill:#00A651;" d="M87.426,391.962c5.916,0,10.742,4.823,10.742,10.74
				c0,5.918-4.826,10.74-10.742,10.74c-5.919,0-10.743-4.823-10.743-10.74C76.683,396.785,81.507,391.962,87.426,391.962
				L87.426,391.962z"/>
			<path style="fill-rule:evenodd;clip-rule:evenodd;fill:#00A651;" d="M83.76,440.958c5.917,0,10.742,4.826,10.742,10.74
				c0,5.92-4.825,10.746-10.742,10.746s-10.743-4.826-10.743-10.746C73.016,445.785,77.842,440.958,83.76,440.958L83.76,440.958z"/>
			<path style="fill-rule:evenodd;clip-rule:evenodd;fill:#00A651;" d="M94.755,487.925c5.917,0,10.742,4.826,10.742,10.746
				c0,5.914-4.825,10.74-10.742,10.74c-5.918,0-10.743-4.826-10.743-10.74C84.012,492.751,88.838,487.925,94.755,487.925
				L94.755,487.925z"/>
			<path style="fill-rule:evenodd;clip-rule:evenodd;fill:#00A651;" d="M528.207,487.925c5.917,0,10.74,4.826,10.74,10.746
				c0,5.914-4.823,10.74-10.74,10.74c-5.92,0-10.743-4.826-10.743-10.74C517.464,492.751,522.287,487.925,528.207,487.925
				L528.207,487.925z"/>
			<path style="fill-rule:evenodd;clip-rule:evenodd;fill:#00A651;" d="M538.288,440.958c5.917,0,10.74,4.826,10.74,10.74
				c0,5.92-4.823,10.746-10.74,10.746c-5.917,0-10.743-4.826-10.743-10.746C527.545,445.785,532.371,440.958,538.288,440.958
				L538.288,440.958z"/>
			<path style="fill-rule:evenodd;clip-rule:evenodd;fill:#00A651;" d="M531.872,392.145c5.921,0,10.744,4.826,10.744,10.746
				c0,5.914-4.823,10.74-10.744,10.74c-5.917,0-10.74-4.826-10.74-10.74C521.132,396.971,525.955,392.145,531.872,392.145
				L531.872,392.145z"/>
			<path style="fill-rule:evenodd;clip-rule:evenodd;fill:#00A651;" d="M309.712,306.435c0.011,0,0.021,0,0.032,0
				C309.733,306.435,309.723,306.435,309.712,306.435L309.712,306.435z"/>
			<path style="fill-rule:evenodd;clip-rule:evenodd;fill:#00A651;" d="M309.744,306.435c6.062-0.03,11.544,0.748,16.662,2.11
				c5.112,1.361,9.783,3.285,14.254,5.562c5.691,2.896,11.138,6.418,16.778,10.072c2.796,1.811,5.647,3.653,8.732,5.537
				c4.34,2.654,8.898,5.227,13.844,7.5c4.908,2.255,10.284,4.258,16.341,5.811c6.009,1.543,12.686,2.623,20.235,3.045
				c7.628,0.432,16.083,0.189,25.559-0.921l4.27-0.501l0.232,4.31c0.771,14.345,0.783,28.264,0.02,41.745
				c-0.76,13.415-2.307,26.495-4.652,39.235c-2.334,12.655-5.458,24.878-9.385,36.652l0.009,0.006
				c-3.938,11.803-8.68,23.158-14.235,34.061c-5.537,10.862-11.922,21.317-19.161,31.364c-7.222,10.017-15.254,19.566-24.119,28.635
				c-8.868,9.08-18.581,17.705-29.148,25.868c-10.534,8.14-21.934,15.828-34.212,23.067l-2.037,1.197l-2.04-1.197
				c-12.28-7.239-23.683-14.927-34.22-23.067c-10.568-8.163-20.283-16.788-29.154-25.868c-8.865-9.069-16.902-18.618-24.121-28.635
				c-7.241-10.048-13.626-20.502-19.163-31.364c-5.556-10.903-10.299-22.259-14.234-34.061c-3.91-11.726-7.029-23.949-9.371-36.658
				c-2.346-12.74-3.891-25.82-4.647-39.235c-0.761-13.481-0.748-27.4,0.029-41.745l0.23-4.252l4.226,0.444
				c10.6,1.116,19.784,1.352,27.843,0.921c7.944-0.422,14.671-1.502,20.5-3.03c5.831-1.529,10.821-3.517,15.271-5.765
				c4.404-2.225,8.385-4.784,12.167-7.434c2.788-1.954,4.656-3.337,6.499-4.698c5.351-3.957,10.561-7.811,16.64-11.008
				c4.382-2.307,9.166-4.248,14.689-5.607c5.496-1.353,11.671-2.125,18.838-2.095H309.744L309.744,306.435z"/>
			<path style="fill-rule:evenodd;clip-rule:evenodd;fill:#FFFFFF;" d="M324.352,316.349c-4.437-1.179-9.238-1.85-14.608-1.823
				h-0.032c-6.535-0.027-12.069,0.65-16.91,1.842c-4.825,1.185-9.013,2.887-12.857,4.911c-5.572,2.933-10.519,6.589-15.597,10.345
				c-2.453,1.811-4.929,3.647-6.656,4.856c-3.954,2.771-8.215,5.495-13.181,8.005c-4.919,2.48-10.427,4.677-16.849,6.364
				c-6.423,1.684-13.703,2.863-22.145,3.315c-7.25,0.386-15.454,0.243-24.826-0.577c-0.549,12.573-0.493,24.796,0.178,36.673
				c0.747,13.269,2.241,26.015,4.489,38.226c2.255,12.238,5.29,24.1,9.119,35.582c3.802,11.402,8.387,22.381,13.761,32.926
				c5.396,10.582,11.559,20.696,18.499,30.324c6.961,9.659,14.746,18.897,23.362,27.717c8.608,8.808,18.039,17.183,28.302,25.109
				c9.706,7.501,20.146,14.594,31.327,21.286c11.178-6.692,21.614-13.785,31.321-21.286c10.26-7.926,19.687-16.302,28.294-25.109
				c8.616-8.819,16.396-18.058,23.358-27.723c6.939-9.628,13.103-19.736,18.496-30.318c5.377-10.545,9.963-21.523,13.764-32.926
				l0.015-0.018c3.811-11.422,6.842-23.28,9.108-35.567c2.249-12.211,3.741-24.954,4.492-38.222
				c0.672-11.865,0.732-24.076,0.188-36.627c-8.3,0.784-15.794,0.914-22.617,0.532c-8.059-0.452-15.253-1.626-21.784-3.3
				c-6.482-1.663-12.317-3.845-17.7-6.318c-5.349-2.459-10.166-5.173-14.697-7.938c-2.99-1.83-5.983-3.769-8.923-5.668
				c-5.373-3.479-10.558-6.835-16.053-9.631C332.959,319.255,328.801,317.534,324.352,316.349L324.352,316.349z"/>
			<path style="fill-rule:evenodd;clip-rule:evenodd;fill:#00A651;" d="M310.127,329.299c-45.671,2.51-42.6,40.044-115.491,38.965
				c2.475,107.779,48.671,171.619,115.491,215.558c65.993-43.939,111.367-107.779,114.668-215.558
				C355.011,369.342,355.011,331.809,310.127,329.299L310.127,329.299z"/>
			<polygon style="fill-rule:evenodd;clip-rule:evenodd;fill:#FFFFFF;" points="254.568,518.608 276.02,450.903 221.035,407.76 
				289.617,407.76 309.872,346.71 330.606,407.76 400.746,407.76 345.72,450.903 365.656,517.052 309.872,476.82 254.568,518.608 
							"/>
		</g>
	</g>
</g>
</svg>
