<?xml version="1.0" encoding="iso-8859-1"?>
<!-- Generator: Adobe Illustrator 23.0.1, SVG Export Plug-In . SVG Version: 6.00 Build 0)  -->
<svg version="1.1" xmlns="http://www.w3.org/2000/svg" xmlns:xlink="http://www.w3.org/1999/xlink" x="0px" y="0px"
	 viewBox="0 0 595.276 841.89" style="enable-background:new 0 0 595.276 841.89;" xml:space="preserve">
<g id="Grade" style="display:none;">
</g>
<g id="HQFL">
</g>
<g id="&#xC1;rea_de_trabalho">
</g>
<g id="Linhas-guia">
</g>
<g id="Page_1">
	<g id="HQFL_1_">
		<g>
			<path style="fill-rule:evenodd;clip-rule:evenodd;fill:#00A651;" d="M271.726,223.585h0.001
				c75.314,0,143.681,30.713,193.219,80.251c49.537,49.537,80.248,117.899,80.248,193.215v0.003v0.003
				c0,75.31-30.714,143.678-80.251,193.215c-49.535,49.538-117.903,80.251-193.214,80.251h-0.004h-0.002
				c-75.314,0-143.68-30.713-193.219-80.251C28.97,640.734-1.742,572.372-1.743,497.056v-0.003v-0.003
				c0.001-75.313,30.713-143.681,80.251-193.218c49.538-49.535,117.903-80.248,193.213-80.248H271.726L271.726,223.585z"/>
			<path style="fill-rule:evenodd;clip-rule:evenodd;fill:#FFFFFF;" d="M271.727,231.674h-0.001h-0.005
				c-73.077,0-139.42,29.805-187.494,77.88C36.153,357.628,6.348,423.972,6.348,497.05v0.003v0.003
				c0,73.079,29.805,139.423,77.877,187.495c48.076,48.073,114.418,77.881,187.498,77.881h0.002h0.004
				c73.077,0,139.421-29.808,187.494-77.881c48.076-48.072,77.881-114.416,77.881-187.495v-0.003v-0.003
				c-0.004-73.079-29.805-139.423-77.878-187.495C411.15,261.482,344.807,231.674,271.727,231.674L271.727,231.674z"/>
			<path style="fill-rule:evenodd;clip-rule:evenodd;fill:#00A651;" d="M271.725,309.09h0.004
				c51.879,0.003,98.974,21.155,133.097,55.278c34.123,34.124,55.278,81.218,55.281,133.098v0.003v0.003
				c-0.003,51.88-21.158,98.975-55.281,133.098c-34.123,34.123-81.218,55.281-133.097,55.281h-0.005h-0.001
				c-51.881,0-98.976-21.158-133.099-55.281c-34.124-34.123-55.279-81.218-55.279-133.095v-0.006
				c0-51.881,21.155-98.978,55.28-133.101c34.123-34.123,81.217-55.275,133.096-55.278H271.725L271.725,309.09z"/>
			<path style="fill-rule:evenodd;clip-rule:evenodd;fill:#FFFFFF;" d="M271.729,317.18h-0.004h-0.003
				c-49.645,0.003-94.717,20.25-127.375,52.908c-32.662,32.664-52.911,77.734-52.911,127.381v0.006
				c0,49.647,20.25,94.717,52.908,127.375c32.661,32.658,77.733,52.911,127.38,52.911h0.001h0.005
				c49.645,0,94.715-20.253,127.377-52.911c32.661-32.658,52.908-77.729,52.908-127.378v-0.003v-0.003
				c0-49.643-20.247-94.713-52.908-127.375C366.445,337.43,321.375,317.183,271.729,317.18L271.729,317.18z"/>
			<path style="fill-rule:evenodd;clip-rule:evenodd;fill:#00A651;" d="M80.444,442.823l-46.991-18.976l6.154-15.235
				c2.33-5.765,4.089-9.43,5.268-10.996c1.784-2.404,4.241-4.042,7.326-4.899c3.088-0.863,6.519-0.541,10.254,0.969
				c2.883,1.164,5.101,2.675,6.642,4.507c1.541,1.835,2.553,3.799,3.019,5.865c0.465,2.06,0.55,4.012,0.237,5.817
				c-0.47,2.443-1.566,5.817-3.304,10.117l-2.498,6.184l17.724,7.16L80.444,442.823L80.444,442.823z M45.229,417.562l13.34,5.388
				l2.097-5.194c1.509-3.735,2.272-6.336,2.296-7.795c0.017-1.459-0.36-2.763-1.112-3.902c-0.751-1.134-1.834-1.988-3.216-2.547
				c-1.705-0.687-3.325-0.76-4.838-0.207c-1.515,0.559-2.74,1.55-3.632,2.972c-0.661,1.045-1.694,3.288-3.077,6.707L45.229,417.562
				L45.229,417.562z M77.174,386.499c-4.167-3.027-7.226-6.206-9.152-9.512c-1.409-2.446-2.362-5.094-2.846-7.902
				c-0.491-2.814-0.441-5.482,0.159-7.98c0.775-3.337,2.38-6.686,4.802-10.02c4.385-6.039,9.774-9.51,16.15-10.415
				c6.385-0.9,12.92,1.076,19.589,5.92c6.617,4.805,10.49,10.37,11.614,16.679c1.124,6.309-0.498,12.488-4.873,18.508
				c-4.428,6.097-9.815,9.598-16.14,10.491C90.136,393.167,83.701,391.243,77.174,386.499L77.174,386.499z M83.094,377.759
				c4.644,3.374,8.946,4.874,12.898,4.47c3.954-0.404,7.136-2.264,9.532-5.558c2.395-3.301,3.173-6.875,2.334-10.71
				c-0.846-3.848-3.646-7.507-8.394-10.953c-4.697-3.416-8.959-4.929-12.76-4.552c-3.797,0.377-6.955,2.28-9.432,5.689
				c-2.476,3.41-3.312,7.017-2.492,10.801c0.825,3.781,3.597,7.398,8.315,10.826L83.094,377.759L83.094,377.759z M131.739,355.895
				l-31.209-39.928l16.977-13.263c4.264-3.331,7.655-5.397,10.138-6.194c2.489-0.79,5.045-0.717,7.63,0.201
				c2.594,0.93,4.823,2.571,6.665,4.93c2.344,2.999,3.396,6.169,3.165,9.491c-0.237,3.328-1.913,6.619-5.018,9.862
				c2.533-0.343,4.852-0.359,6.937-0.024c2.082,0.335,5.312,1.301,9.657,2.899l10.962,3.975l-9.649,7.537l-12.612-4.127
				c-4.492-1.489-7.447-2.346-8.836-2.556c-1.395-0.216-2.644-0.143-3.723,0.225c-1.089,0.374-2.562,1.279-4.419,2.726l-1.63,1.276
				l13.026,16.672L131.739,355.895L131.739,355.895z M121.789,326.547l5.971-4.653c3.864-3.021,6.154-5.078,6.861-6.145
				c0.71-1.082,1.029-2.237,0.942-3.458c-0.079-1.222-0.59-2.443-1.526-3.638c-1.045-1.34-2.258-2.143-3.614-2.417
				c-1.364-0.267-2.787,0.006-4.261,0.808c-0.72,0.42-2.732,1.909-5.995,4.459l-6.292,4.918L121.789,326.547L121.789,326.547z
				 M182.907,320.493l-17.124-38.466l-13.741,6.121l-3.488-7.835l36.791-16.381l3.488,7.835l-13.706,6.102l17.126,38.463
				L182.907,320.493L182.907,320.493z M203.801,282.927c-0.894-5.076-0.889-9.482,0.026-13.202c0.685-2.735,1.839-5.306,3.442-7.661
				c1.6-2.364,3.49-4.249,5.657-5.631c2.876-1.86,6.355-3.155,10.415-3.872c7.347-1.295,13.638-0.048,18.854,3.729
				c5.216,3.787,8.547,9.747,9.979,17.867c1.419,8.054,0.339,14.746-3.235,20.064c-3.574,5.319-9.031,8.637-16.361,9.926
				c-7.42,1.313-13.725,0.088-18.899-3.662C208.494,296.727,205.201,290.87,203.801,282.927L203.801,282.927z M214.131,280.75
				c0.997,5.653,3.051,9.719,6.174,12.175c3.123,2.458,6.705,3.331,10.719,2.623c4.013-0.708,7.054-2.738,9.117-6.081
				c2.062-3.356,2.589-7.932,1.571-13.713c-1.007-5.714-3.019-9.768-6.017-12.138c-2.993-2.365-6.585-3.191-10.735-2.456
				c-4.15,0.729-7.261,2.745-9.295,6.036c-2.035,3.294-2.553,7.822-1.539,13.566L214.131,280.75L214.131,280.75z M341.513,311.649
				l20.611-46.295l31.74,14.132l-3.485,7.828l-22.399-9.968l-4.878,10.956l19.338,8.61l-3.489,7.831l-19.335-8.609l-8.759,19.675
				L341.513,311.649L341.513,311.649z M380.134,331.109l31.194-39.941l29.619,23.14l-5.279,6.759l-21.553-16.84l-6.914,8.85
				l20.052,15.667l-5.261,6.732l-20.052-15.664l-8.488,10.865l22.31,17.436l-5.254,6.725L380.134,331.109L380.134,331.109z
				 M416.418,361.183l39.061-31.631l6.439,7.95l-32.427,26.258l16.013,19.776l-6.638,5.373L416.418,361.183L416.418,361.183z
				 M441.299,395.146l43.888-25.34l5.115,8.859l-43.891,25.34L441.299,395.146L441.299,395.146z M449.24,407.949l8.552-3.465
				l40.457,12.363l-8.847-21.893l7.95-3.209l13.897,34.397l-7.37,2.978l-42.104-12.934l10.801,26.732l-7.913,3.197L449.24,407.949
				L449.24,407.949z"/>
			<path style="fill-rule:evenodd;clip-rule:evenodd;fill:#00A651;" d="M44.421,598.064l45.519-22.203l16.463,33.752l-7.698,3.757
				l-11.98-24.568l-10.094,4.923l11.147,22.861l-7.67,3.744l-11.149-22.86l-12.392,6.042l12.409,25.438l-7.666,3.738L44.421,598.064
				L44.421,598.064z M82.221,632.211l7.125,6.996c-2.167,2.602-3.269,5.124-3.291,7.519c-0.025,2.413,0.968,4.814,2.962,7.19
				c2.115,2.523,4.245,3.975,6.384,4.357c2.141,0.377,3.937-0.03,5.362-1.222c0.913-0.771,1.474-1.695,1.666-2.765
				c0.19-1.07-0.035-2.498-0.682-4.236c-0.46-1.179-1.646-3.75-3.57-7.688c-2.486-5.075-3.674-9.099-3.582-12.06
				c0.132-4.17,1.735-7.549,4.808-10.133c1.974-1.653,4.296-2.638,6.95-2.972c2.664-0.322,5.334,0.189,7.993,1.55
				c2.667,1.356,5.262,3.531,7.76,6.504c4.084,4.868,6.093,9.434,6.024,13.676c-0.07,4.261-1.828,7.95-5.293,11.057l-6.913-7.543
				c1.71-2,2.539-3.94,2.486-5.763c-0.047-1.836-1.003-3.865-2.853-6.072c-1.905-2.267-3.875-3.665-5.887-4.163
				c-1.293-0.322-2.451-0.055-3.454,0.784c-0.912,0.766-1.375,1.811-1.38,3.13c-0.003,1.684,1.145,4.82,3.444,9.379
				c2.302,4.57,3.733,8.175,4.308,10.807c0.576,2.626,0.458,5.167-0.346,7.586c-0.797,2.425-2.432,4.687-4.881,6.741
				c-2.22,1.859-4.823,2.996-7.792,3.391c-2.978,0.395-5.896-0.141-8.725-1.611c-2.835-1.465-5.677-3.89-8.505-7.257
				c-4.116-4.905-6.146-9.628-6.084-14.156c0.058-4.528,2.048-8.881,5.952-13.026H82.221L82.221,632.211z M116.688,690.659
				l25.906-33.156l-11.849-9.264l5.273-6.746l31.722,24.787l-5.272,6.746l-11.819-9.232l-25.907,33.156L116.688,690.659
				L116.688,690.659z M147.141,713.088l21.394-45.902l19.509,9.099c4.901,2.279,8.282,4.358,10.11,6.219
				c1.837,1.859,2.938,4.157,3.288,6.887c0.351,2.728-0.097,5.464-1.36,8.169c-1.604,3.44-3.953,5.816-7.017,7.117
				c-3.063,1.295-6.764,1.301-11.058,0.006c1.459,2.103,2.515,4.164,3.166,6.17c0.647,2,1.25,5.318,1.799,9.913l1.43,11.561
				l-11.081-5.167l-2.045-13.11c-0.717-4.674-1.298-7.69-1.735-9.02c-0.445-1.337-1.077-2.413-1.892-3.209
				c-0.823-0.803-2.305-1.708-4.429-2.699l-1.88-0.875l-8.935,19.159L147.141,713.088L147.141,713.088z M168.759,690.915
				l6.853,3.203c4.443,2.072,7.307,3.173,8.587,3.319c1.282,0.139,2.456-0.103,3.503-0.723c1.052-0.626,1.907-1.636,2.551-3.015
				c0.72-1.544,0.889-2.985,0.514-4.316c-0.383-1.331-1.267-2.479-2.656-3.428c-0.705-0.456-2.937-1.562-6.686-3.312l-7.236-3.374
				L168.759,690.915L168.759,690.915z M200.478,734.782l12.251-49.135l36.439,9.08l-2.071,8.315l-26.521-6.613l-2.717,10.898
				l24.678,6.151l-2.065,8.278l-24.677-6.151l-3.336,13.378l27.46,6.845l-2.062,8.273L200.478,734.782L200.478,734.782z
				 M252.871,744.434l2.618-50.157l10.219,0.535l-2.182,41.642l25.388,1.331l-0.446,8.516L252.871,744.434L252.871,744.434z
				 M346.88,733.98l-10.795,2.692l-7.078-10.09l-19.639,4.899l-1.28,12.168l-10.517,2.626l6.889-53.914l10.49-2.613L346.88,733.98
				L346.88,733.98z M323.764,719.094l-11.323-16.551l-2.091,19.894L323.764,719.094L323.764,719.094z M405.446,707.162
				l-29.765-40.968l30.379-22.076l5.035,6.93l-22.112,16.064l6.6,9.087l20.575-14.952l5.018,6.905l-20.578,14.952l8.105,11.154
				l22.897-16.636l5.012,6.899L405.446,707.162L405.446,707.162z M446.808,673.926l-7.102-6.619l6.622-7.099l7.1,6.619
				L446.808,673.926L446.808,673.926z M468.414,617.915l8.376-6.169c3.576,4.474,5.418,8.941,5.507,13.372
				c0.094,4.437-1.459,8.862-4.653,13.263c-3.954,5.439-9.062,8.565-15.317,9.361c-6.261,0.808-12.633-1.143-19.076-5.823
				c-6.819-4.953-10.838-10.563-12.05-16.824c-1.213-6.261,0.271-12.272,4.436-18.01c3.642-5.009,8.084-8.011,13.32-8.984
				c3.101-0.596,6.638-0.171,10.586,1.288l-3.99,9.611c-2.472-1.052-4.891-1.265-7.231-0.614c-2.347,0.645-4.328,2.066-5.92,4.255
				c-2.204,3.039-2.909,6.297-2.104,9.768c0.809,3.477,3.654,6.99,8.537,10.54c5.173,3.756,9.543,5.507,13.086,5.245
				c3.553-0.273,6.422-1.896,8.586-4.875c1.596-2.194,2.273-4.6,2.03-7.196C472.295,623.526,470.918,620.785,468.414,617.915
				L468.414,617.915z M495.289,607.194l-8.868-3.946l3.947-8.867l8.868,3.944L495.289,607.194L495.289,607.194z"/>
			<path style="fill-rule:evenodd;clip-rule:evenodd;fill:#00A651;" d="M49.426,449.962c5.916,0,10.742,4.823,10.742,10.74
				c0,5.918-4.826,10.74-10.742,10.74c-5.918,0-10.743-4.823-10.743-10.74C38.683,454.785,43.508,449.962,49.426,449.962
				L49.426,449.962z"/>
			<path style="fill-rule:evenodd;clip-rule:evenodd;fill:#00A651;" d="M45.759,498.958c5.917,0,10.742,4.826,10.742,10.74
				c0,5.92-4.825,10.746-10.742,10.746c-5.917,0-10.743-4.826-10.743-10.746C35.016,503.785,39.843,498.958,45.759,498.958
				L45.759,498.958z"/>
			<path style="fill-rule:evenodd;clip-rule:evenodd;fill:#00A651;" d="M56.755,545.925c5.917,0,10.742,4.826,10.742,10.746
				c0,5.914-4.825,10.74-10.742,10.74c-5.918,0-10.743-4.826-10.743-10.74C46.012,550.751,50.838,545.925,56.755,545.925
				L56.755,545.925z"/>
			<path style="fill-rule:evenodd;clip-rule:evenodd;fill:#00A651;" d="M490.207,545.925c5.917,0,10.74,4.826,10.74,10.746
				c0,5.914-4.823,10.74-10.74,10.74c-5.92,0-10.743-4.826-10.743-10.74C479.464,550.751,484.287,545.925,490.207,545.925
				L490.207,545.925z"/>
			<path style="fill-rule:evenodd;clip-rule:evenodd;fill:#00A651;" d="M500.288,498.958c5.917,0,10.74,4.826,10.74,10.74
				c0,5.92-4.823,10.746-10.74,10.746c-5.917,0-10.743-4.826-10.743-10.746C489.545,503.785,494.371,498.958,500.288,498.958
				L500.288,498.958z"/>
			<path style="fill-rule:evenodd;clip-rule:evenodd;fill:#00A651;" d="M493.872,450.145c5.921,0,10.744,4.826,10.744,10.746
				c0,5.914-4.823,10.74-10.744,10.74c-5.917,0-10.74-4.826-10.74-10.74C483.132,454.971,487.955,450.145,493.872,450.145
				L493.872,450.145z"/>
			<path style="fill-rule:evenodd;clip-rule:evenodd;fill:#00A651;" d="M271.712,364.435c0.011,0,0.022,0,0.032,0
				C271.734,364.435,271.723,364.435,271.712,364.435L271.712,364.435z"/>
			<path style="fill-rule:evenodd;clip-rule:evenodd;fill:#00A651;" d="M271.744,364.435c6.062-0.03,11.544,0.748,16.662,2.11
				c5.112,1.361,9.783,3.285,14.254,5.562c5.691,2.896,11.138,6.418,16.778,10.072c2.796,1.811,5.646,3.653,8.731,5.537
				c4.34,2.654,8.898,5.227,13.844,7.501c4.908,2.255,10.284,4.258,16.341,5.811c6.009,1.544,12.686,2.623,20.234,3.045
				c7.628,0.431,16.083,0.188,25.56-0.921l4.27-0.501l0.231,4.31c0.772,14.344,0.783,28.263,0.02,41.745
				c-0.76,13.415-2.307,26.495-4.652,39.235c-2.334,12.655-5.458,24.878-9.385,36.652l0.009,0.006
				c-3.938,11.803-8.68,23.158-14.235,34.062c-5.537,10.862-11.922,21.316-19.161,31.364c-7.222,10.017-15.254,19.566-24.119,28.635
				c-8.868,9.08-18.581,17.705-29.147,25.868c-10.534,8.14-21.933,15.828-34.212,23.067l-2.037,1.197l-2.04-1.197
				c-12.28-7.239-23.683-14.928-34.22-23.067c-10.568-8.163-20.283-16.788-29.154-25.868c-8.865-9.069-16.902-18.618-24.121-28.635
				c-7.241-10.048-13.626-20.502-19.163-31.364c-5.556-10.903-10.298-22.259-14.234-34.062c-3.91-11.726-7.029-23.949-9.371-36.658
				c-2.346-12.74-3.892-25.82-4.647-39.235c-0.761-13.481-0.747-27.4,0.029-41.745l0.229-4.252l4.226,0.444
				c10.601,1.116,19.785,1.352,27.843,0.921c7.944-0.423,14.672-1.502,20.5-3.03c5.831-1.529,10.821-3.517,15.272-5.765
				c4.404-2.225,8.385-4.784,12.167-7.434c2.789-1.954,4.656-3.337,6.499-4.698c5.351-3.957,10.561-7.811,16.64-11.008
				c4.382-2.307,9.166-4.249,14.689-5.607c5.496-1.353,11.671-2.125,18.839-2.095H271.744L271.744,364.435z"/>
			<path style="fill-rule:evenodd;clip-rule:evenodd;fill:#FFFFFF;" d="M286.352,374.349c-4.437-1.179-9.238-1.85-14.607-1.823
				h-0.032c-6.535-0.027-12.069,0.65-16.91,1.842c-4.825,1.185-9.013,2.887-12.857,4.911c-5.572,2.933-10.519,6.589-15.596,10.345
				c-2.453,1.811-4.93,3.647-6.656,4.857c-3.954,2.771-8.215,5.494-13.181,8.005c-4.919,2.48-10.427,4.677-16.849,6.364
				c-6.423,1.684-13.703,2.863-22.145,3.315c-7.249,0.386-15.453,0.243-24.826-0.578c-0.549,12.573-0.493,24.796,0.178,36.673
				c0.747,13.269,2.241,26.015,4.489,38.226c2.255,12.238,5.289,24.1,9.118,35.582c3.802,11.402,8.387,22.381,13.761,32.926
				c5.396,10.582,11.559,20.696,18.499,30.324c6.961,9.659,14.746,18.897,23.362,27.717c8.609,8.807,18.039,17.184,28.302,25.109
				c9.706,7.501,20.146,14.594,31.327,21.286c11.178-6.692,21.614-13.785,31.321-21.286c10.26-7.926,19.687-16.302,28.294-25.109
				c8.616-8.819,16.396-18.058,23.358-27.723c6.938-9.628,13.103-19.736,18.496-30.318c5.377-10.545,9.963-21.523,13.764-32.926
				l0.015-0.018c3.811-11.422,6.842-23.28,9.109-35.567c2.249-12.211,3.741-24.954,4.492-38.223
				c0.672-11.865,0.732-24.076,0.189-36.627c-8.3,0.784-15.794,0.914-22.617,0.532c-8.059-0.453-15.253-1.626-21.784-3.3
				c-6.483-1.663-12.317-3.845-17.7-6.318c-5.349-2.459-10.166-5.173-14.697-7.938c-2.99-1.829-5.983-3.769-8.923-5.668
				c-5.373-3.48-10.558-6.835-16.053-9.631C294.959,377.254,290.801,375.534,286.352,374.349L286.352,374.349z"/>
			<path style="fill-rule:evenodd;clip-rule:evenodd;fill:#00A651;" d="M272.127,387.298c-45.671,2.51-42.6,40.043-115.492,38.965
				c2.475,107.779,48.671,171.619,115.492,215.558c65.993-43.939,111.367-107.779,114.668-215.558
				C317.011,427.342,317.011,389.809,272.127,387.298L272.127,387.298z"/>
			<polygon style="fill-rule:evenodd;clip-rule:evenodd;fill:#FFFFFF;" points="216.568,576.608 238.02,508.903 183.035,465.759 
				251.617,465.759 271.872,404.71 292.607,465.759 362.746,465.759 307.72,508.903 327.656,575.052 271.872,534.82 
				216.568,576.608 			"/>
		</g>
	</g>
</g>
</svg>
