<?xml version="1.0" encoding="iso-8859-1"?>
<!-- Generator: Adobe Illustrator 23.0.1, SVG Export Plug-In . SVG Version: 6.00 Build 0)  -->
<svg version="1.1" xmlns="http://www.w3.org/2000/svg" xmlns:xlink="http://www.w3.org/1999/xlink" x="0px" y="0px"
	 viewBox="0 0 595.276 841.89" style="enable-background:new 0 0 595.276 841.89;" xml:space="preserve">
<g id="Grade" style="display:none;">
</g>
<g id="HQFL">
</g>
<g id="&#xC1;rea_de_trabalho">
</g>
<g id="Linhas-guia">
</g>
<g id="Page_1">
	<g id="HQFL_1_">
		<g>
			<path style="fill-rule:evenodd;clip-rule:evenodd;fill:#1D56A7;" d="M574.622,430.885c0,158.035-128.108,286.153-286.152,286.153
				c-158.033,0-286.15-128.118-286.15-286.153c0-158.036,128.117-286.149,286.15-286.149
				C446.514,144.736,574.622,272.849,574.622,430.885L574.622,430.885z"/>
			<path style="fill-rule:evenodd;clip-rule:evenodd;fill:#FFFFFF;" d="M230.27,693.65c18.756,4.159,38.215,6.413,58.2,6.413
				c19.982,0,39.445-2.254,58.201-6.413v-525.53c-18.756-4.152-38.22-6.408-58.201-6.408c-19.985,0-39.444,2.257-58.2,6.408V693.65
				L230.27,693.65z"/>
			<path style="fill-rule:evenodd;clip-rule:evenodd;fill:#FFFFFF;" d="M120.781,641.219c8.497,6.782,17.387,13.091,26.675,18.831
				V201.726c-9.288,5.736-18.178,12.042-26.675,18.83V321.65H94.106v-76.69c-9.705,10.14-18.633,21.024-26.675,32.579v306.694
				c8.042,11.557,16.97,22.44,26.675,32.586v-56.713h26.675V641.219L120.781,641.219z"/>
			<path style="fill-rule:evenodd;clip-rule:evenodd;fill:#FFFFFF;" d="M456.157,641.219c-8.497,6.782-17.382,13.091-26.675,18.831
				V201.726c9.293,5.736,18.178,12.04,26.675,18.827V321.65h26.675v-76.69c9.71,10.14,18.633,21.024,26.675,32.577v306.696
				c-8.042,11.557-16.965,22.44-26.675,32.586v-56.713h-26.675V641.219L456.157,641.219z"/>
			<polygon style="fill-rule:evenodd;clip-rule:evenodd;fill:#EE3524;" points="142.404,376.21 142.404,366.112 120.781,342.26 
				94.106,342.26 72.479,366.112 72.479,376.21 101.579,376.21 101.579,522.12 94.106,527.376 94.106,536.669 120.781,536.669 
				120.781,527.376 113.304,522.12 113.304,376.21 142.404,376.21 			"/>
			<path style="fill-rule:evenodd;clip-rule:evenodd;fill:#EE3524;" d="M230.27,168.124c-11.813,2.723-21.631,5.617-29.465,8.324
				v508.875c7.929,2.747,16.468,5.589,29.465,8.412V168.124L230.27,168.124z"/>
			<polygon style="fill-rule:evenodd;clip-rule:evenodd;fill:#EE3524;" points="434.531,376.21 434.531,366.112 456.157,342.26 
				482.832,342.26 504.458,366.112 504.458,376.21 475.358,376.21 475.358,522.12 482.832,527.376 482.832,536.669 456.157,536.669 
				456.157,527.376 463.631,522.12 463.631,376.21 434.531,376.21 			"/>
			<path style="fill-rule:evenodd;clip-rule:evenodd;fill:#EE3524;" d="M346.672,168.122c11.813,2.723,21.627,5.617,29.46,8.327
				v508.875c-7.928,2.747-16.463,5.589-29.46,8.412V168.122L346.672,168.122z"/>
			<polygon style="fill-rule:evenodd;clip-rule:evenodd;fill:#1D56A7;" points="266.927,601.983 287.196,555.653 295.315,569.862 
				306.492,569.862 286.045,534.084 252.096,611.683 310.016,611.683 289.744,658.014 281.624,643.805 270.451,643.805 
				290.895,679.583 324.848,601.983 266.927,601.983 			"/>
			<path style="fill-rule:evenodd;clip-rule:evenodd;fill:#1D56A7;" d="M288.471,479.568c-7.642-15.281-18.067-36.131-23.107-46.21
				h23.107v-9.7h-23.107c5.04-10.078,15.464-30.923,23.107-46.207c2.216,4.433,4.674,9.345,7.161,14.323h10.846l-18.007-36.015
				l-36.375,72.75l36.375,72.752l18.007-36.012h-10.846C293.145,470.226,290.687,475.135,288.471,479.568L288.471,479.568z"/>
			<path style="fill-rule:evenodd;clip-rule:evenodd;fill:#1D56A7;" d="M288.471,255.689v9.7h20.678
				c-5.531,11.066-14.592,29.192-20.678,41.36c-9.274-18.547-22.668-45.333-25.531-51.06c2.863-5.726,16.257-32.512,25.531-51.059
				c2.562,5.122,5.437,10.875,8.322,16.636h10.841l-19.162-38.327l-36.375,72.75l36.375,72.75l36.377-72.75H288.471L288.471,255.689
				z"/>
		</g>
	</g>
</g>
</svg>
