<?xml version="1.0" encoding="iso-8859-1"?>
<!-- Generator: Adobe Illustrator 23.0.1, SVG Export Plug-In . SVG Version: 6.00 Build 0)  -->
<svg version="1.1" xmlns="http://www.w3.org/2000/svg" xmlns:xlink="http://www.w3.org/1999/xlink" x="0px" y="0px"
	 viewBox="0 0 595.276 841.89" style="enable-background:new 0 0 595.276 841.89;" xml:space="preserve">
<g id="Grade" style="display:none;">
</g>
<g id="HQFL">
</g>
<g id="&#xC1;rea_de_trabalho">
</g>
<g id="Linhas-guia">
</g>
<g id="Page_1">
	<g id="HQFL_1_">
		<g>
			<path style="fill-rule:evenodd;clip-rule:evenodd;" d="M461.751,156.077c-87.224,33.985-163.841,31.456-164.604,31.406h-0.685
				c-0.759,0.05-77.38,2.58-164.601-31.406l-3.7-1.442l-71.202,95.969l3.167,3.098c0.306,0.299,30.59,30.37,29.701,68.86
				c-0.531,22.89-11.912,44.414-33.833,63.974c-37.729,33.665-51.575,75.057-38.987,116.549
				c18.983,62.585,95.173,115.806,185.283,129.428c66.618,10.07,90.432,35.495,90.665,35.755l3.837,4.208l3.867-4.208
				c0.229-0.26,24.049-25.685,90.665-35.755c90.106-13.622,166.298-66.843,185.285-129.428
				c12.584-41.492-1.265-82.884-38.994-116.549c-21.917-19.56-33.297-41.084-33.825-63.974c-0.891-38.49,29.388-68.561,29.696-68.86
				l3.165-3.094l-2.627-3.551l-68.569-92.421L461.751,156.077L461.751,156.077z"/>
			<path style="fill-rule:evenodd;clip-rule:evenodd;fill:#FFFFFF;" d="M131.818,166.955
				c86.436,32.759,159.631,31.054,164.988,30.725c5.359,0.329,78.547,2.034,164.99-30.725c4.134,5.578,56.874,76.663,61.377,82.731
				c-8.154,9.068-29.727,36.339-29.727,71.168c0,0.614,0.008,1.231,0.02,1.849c0.568,25.84,13.099,49.864,37.236,71.402
				c26.606,23.742,40.199,50.553,40.199,78.707c0,8.995-1.387,18.129-4.181,27.343c-17.883,58.949-90.649,109.227-176.961,122.275
				c-56.35,8.517-83.63,27.468-92.955,35.437c-9.326-7.969-36.607-26.92-92.96-35.437C117.54,609.382,44.77,559.105,26.889,500.156
				c-2.795-9.214-4.184-18.348-4.184-27.343c0-28.154,13.597-54.965,40.204-78.707c24.139-21.538,36.668-45.562,37.235-71.402
				c0.014-0.619,0.02-1.234,0.02-1.848c0-34.829-21.575-62.101-29.728-71.17C74.937,243.618,127.678,172.534,131.818,166.955
				L131.818,166.955z"/>
			<path style="fill-rule:evenodd;clip-rule:evenodd;" d="M296.806,207.895c-10.013,0.563-78.422,1.014-161.25-28.727
				c-6.879,9.271-45.607,61.465-52.061,70.166c10.871,13.756,26.99,39.473,26.99,71.522l-0.023,2.073
				c-0.632,28.757-14.304,55.252-40.637,78.747c-24.418,21.789-36.8,45.722-36.8,71.137c0,8.004,1.261,16.217,3.751,24.414
				c16.775,55.309,86.121,102.648,168.631,115.119c49.114,7.426,77.539,22.795,91.399,32.602
				c13.86-9.807,42.283-25.176,91.399-32.602c82.507-12.472,151.854-59.81,168.634-115.119c2.483-8.197,3.748-16.415,3.748-24.414
				c0-25.415-12.382-49.348-36.796-71.137c-26.334-23.495-40.008-49.99-40.644-78.751c0-0.016-0.022-2.071-0.022-2.071
				c0-32.052,16.12-57.767,26.992-71.52c-7.413-9.995-44.859-60.464-52.059-70.166C375.225,208.911,306.818,208.458,296.806,207.895
				L296.806,207.895z"/>
			<path style="fill-rule:evenodd;clip-rule:evenodd;fill:#FFFFFF;" d="M115.622,322.983c-0.448,20.299-7.03,39.448-19.568,57.244
				l336.71-187.535c-71.567,20.822-128.093,20.733-135.959,20.308c-8.705,0.47-77.008,0.986-159.344-27.782
				c-3.712,5.004-22.176,29.89-22.176,29.89s-21.597,29.107-25.387,34.214c12.262,16.344,25.746,41.129,25.746,71.532
				L115.622,322.983L115.622,322.983z"/>
			<path style="fill-rule:evenodd;clip-rule:evenodd;fill:#F9E546;" d="M178.255,443.737l-48.359,26.935v113.49
				c14.97,7.142,31.239,13.028,48.359,17.432V443.737L178.255,443.737z"/>
			<path style="fill-rule:evenodd;clip-rule:evenodd;fill:#F9E546;" d="M274.973,389.87l-48.359,26.935v194.271
				c19.934,4.349,35.821,9.951,48.359,15.698V389.87L274.973,389.87z"/>
			<path style="fill-rule:evenodd;clip-rule:evenodd;fill:#F9E546;" d="M371.691,336.003l-48.357,26.933v261.752
				c12.762-5.449,28.717-10.624,48.357-14.583V336.003L371.691,336.003z"/>
			<path style="fill-rule:evenodd;clip-rule:evenodd;fill:#F9E546;" d="M468.409,282.135l-48.357,26.933v291.285
				c17.2-4.736,33.459-11.017,48.357-18.513V282.135L468.409,282.135z"/>
			<path style="fill-rule:evenodd;clip-rule:evenodd;fill:#F9E546;" d="M520.328,405.461c-1.223-1.091-2.388-2.196-3.559-3.299
				V548.77c17.059-15.922,29.352-33.976,35.125-53.007c2.341-7.72,3.526-15.444,3.526-22.95
				C555.421,448.902,543.614,426.245,520.328,405.461L520.328,405.461z"/>
			<path style="fill-rule:evenodd;clip-rule:evenodd;fill:#FFFFFF;" d="M107.57,384.401c-9.098,5.022-15.208,12.197-17.658,20.746
				c-2.567,8.955-1.09,19.077,4.164,28.508c5.348,9.603,12.831,16.003,21.641,18.514c8.249,2.346,17.28,1.141,25.429-3.398
				c8.7-4.846,12.017-10.663,13.687-15.59c0.966,1.187,3.374,4.145,3.374,4.145l12.362-6.885l-19.288-34.631l-29.252,16.294
				l7.737,13.89c0,0,9.08-5.057,12.847-7.157c0.079,0.67,0.317,1.442,0.317,2.057c0,7.392-5.242,10.989-7.135,12.042
				c-4.651,2.592-8.991,3.344-12.902,2.227c-4.393-1.249-8.305-4.906-11.629-10.876c-6.238-11.203-4.431-20.972,4.835-26.132
				c7.432-4.139,13.894-0.127,14.645,1.008l1.304,1.97l2.153-1.004l14.823-8.257l-1.552-2.304
				C140.999,379.984,125.752,374.274,107.57,384.401L107.57,384.401z"/>
			<polygon style="fill-rule:evenodd;clip-rule:evenodd;fill:#FFFFFF;" points="209.532,409.867 197.135,416.769 190.794,405.386 
				203.191,398.481 209.532,409.867 			"/>
			<path style="fill-rule:evenodd;clip-rule:evenodd;fill:#FFFFFF;" d="M266.606,299.15l-49.423,27.516l33.672,60.436l53.341-29.696
				l-8.001-14.359c0,0-31.272,17.411-35.444,19.734c-1.456-2.611-4.143-7.434-5.598-10.044c4.089-2.279,31.171-17.355,31.171-17.355
				l-7.999-14.357c0,0-27.081,15.077-31.171,17.353c-1.251-2.245-2.827-5.071-4.078-7.315c4.145-2.309,33.932-18.892,33.932-18.892
				l-8-14.357L266.606,299.15L266.606,299.15z"/>
			<path style="fill-rule:evenodd;clip-rule:evenodd;fill:#FFFFFF;" d="M408.945,220.901l-15.507,8.178
				c0,0,12.466,23.918,17.726,33.996c-10.975-5.967-40.469-22.003-40.469-22.003l-18.59,9.803l31.979,61.353l18.007-9.497
				c0,0-12.919-24.794-18.226-34.974c11.076,5.995,41.717,22.585,41.717,22.585l17.845-9.412l-31.979-61.351L408.945,220.901
				L408.945,220.901z"/>
			<polygon style="fill-rule:evenodd;clip-rule:evenodd;fill:#FFFFFF;" points="338.275,337.037 325.879,343.94 319.538,332.557 
				331.934,325.651 338.275,337.037 			"/>
			<polygon style="fill-rule:evenodd;clip-rule:evenodd;fill:#FFFFFF;" points="479.623,258.313 467.226,265.216 460.887,253.833 
				473.283,246.928 479.623,258.313 			"/>
			<path style="fill-rule:evenodd;clip-rule:evenodd;" d="M172.448,210.171c-29,0-52.594,23.593-52.594,52.595
				c0,29,23.594,52.593,52.594,52.593c29,0,52.594-23.593,52.594-52.593C225.042,233.764,201.448,210.171,172.448,210.171
				L172.448,210.171z"/>
			<path style="fill-rule:evenodd;clip-rule:evenodd;fill:#FFFFFF;" d="M172.448,312.171c-27.243,0-49.406-22.163-49.406-49.405
				c0-27.243,22.163-49.407,49.406-49.407c27.243,0,49.406,22.164,49.406,49.407C221.854,290.008,199.691,312.171,172.448,312.171
				L172.448,312.171z"/>
			<path style="fill-rule:evenodd;clip-rule:evenodd;" d="M127.605,255.288h0.51c3.442,0,4.36-2.268,4.436-3.984h2.932v22.993h-3.57
				V258.46h-4.309V255.288L127.605,255.288z"/>
			<path style="fill-rule:evenodd;clip-rule:evenodd;" d="M146.22,260.986h0.562c1.071,0,3.034-0.129,3.034-3.109
				c0-0.842-0.306-2.947-2.27-2.947c-2.448,0-2.448,2.947-2.448,3.756h-3.315c0-4.306,1.913-7.383,5.993-7.383
				c2.422,0,5.609,1.555,5.609,6.412c0,2.332-1.147,3.789-2.167,4.373v0.065c0.637,0.227,2.728,1.425,2.728,5.343
				c0,4.339-2.525,7.415-6.171,7.415c-1.708,0-6.299-0.486-6.299-7.675h3.494l-0.026,0.032c0,1.23,0.255,4.016,2.652,4.016
				c1.428,0,2.678-1.23,2.678-3.789c0-3.142-2.397-3.271-4.056-3.271V260.986L146.22,260.986z"/>
			<polygon style="fill-rule:evenodd;clip-rule:evenodd;" points="163.534,267.334 156.42,267.334 156.42,263.124 163.534,263.124 
				163.534,267.334 			"/>
			<path style="fill-rule:evenodd;clip-rule:evenodd;" d="M170.42,260.986h0.56c1.072,0,3.036-0.129,3.036-3.109
				c0-0.842-0.306-2.947-2.27-2.947c-2.448,0-2.448,2.947-2.448,3.756h-3.316c0-4.306,1.913-7.383,5.993-7.383
				c2.423,0,5.61,1.555,5.61,6.412c0,2.332-1.148,3.789-2.167,4.373v0.065c0.637,0.227,2.728,1.425,2.728,5.343
				c0,4.339-2.524,7.415-6.171,7.415c-1.708,0-6.298-0.486-6.298-7.675h3.493l-0.025,0.032c0,1.23,0.255,4.016,2.652,4.016
				c1.428,0,2.677-1.23,2.677-3.789c0-3.142-2.397-3.271-4.054-3.271V260.986L170.42,260.986z"/>
			<polygon style="fill-rule:evenodd;clip-rule:evenodd;" points="187.734,267.334 180.62,267.334 180.62,263.124 187.734,263.124 
				187.734,267.334 			"/>
			<path style="fill-rule:evenodd;clip-rule:evenodd;" d="M202.651,255.191c-1.733,2.396-6.17,9.196-6.604,19.106h-3.672
				c0.382-9.198,4.922-16.517,6.451-18.588h-9.001l0.076-4.017h12.75V255.191L202.651,255.191z"/>
			<path style="fill-rule:evenodd;clip-rule:evenodd;" d="M209.561,260.986h0.562c1.071,0,3.034-0.129,3.034-3.109
				c0-0.842-0.306-2.947-2.269-2.947c-2.448,0-2.448,2.947-2.448,3.756h-3.315c0-4.306,1.913-7.383,5.993-7.383
				c2.422,0,5.609,1.555,5.609,6.412c0,2.332-1.146,3.789-2.167,4.373v0.065c0.638,0.227,2.728,1.425,2.728,5.343
				c0,4.339-2.525,7.415-6.171,7.415c-1.708,0-6.299-0.486-6.299-7.675h3.493l-0.026,0.032c0,1.23,0.255,4.016,2.652,4.016
				c1.428,0,2.678-1.23,2.678-3.789c0-3.142-2.396-3.271-4.055-3.271V260.986L209.561,260.986z"/>
		</g>
	</g>
</g>
</svg>
