<?xml version="1.0" encoding="iso-8859-1"?>
<!-- Generator: Adobe Illustrator 23.0.1, SVG Export Plug-In . SVG Version: 6.00 Build 0)  -->
<svg version="1.1" xmlns="http://www.w3.org/2000/svg" xmlns:xlink="http://www.w3.org/1999/xlink" x="0px" y="0px"
	 viewBox="0 0 595.276 841.89" style="enable-background:new 0 0 595.276 841.89;" xml:space="preserve">
<g id="Grade" style="display:none;">
</g>
<g id="HQFL">
</g>
<g id="&#xC1;rea_de_trabalho">
</g>
<g id="Linhas-guia">
</g>
<g id="Page_1">
	<g id="HQFL_1_">
		<g>
			<path style="fill-rule:evenodd;clip-rule:evenodd;fill:#1D56A7;" d="M582.622,422.885c0,158.035-128.108,286.153-286.152,286.153
				c-158.033,0-286.15-128.118-286.15-286.153c0-158.036,128.118-286.149,286.15-286.149
				C454.514,136.736,582.622,264.849,582.622,422.885L582.622,422.885z"/>
			<path style="fill-rule:evenodd;clip-rule:evenodd;fill:#FFFFFF;" d="M238.27,685.65c18.756,4.159,38.215,6.413,58.2,6.413
				c19.982,0,39.445-2.254,58.201-6.413V160.119c-18.756-4.151-38.22-6.408-58.201-6.408c-19.985,0-39.444,2.257-58.2,6.408V685.65
				L238.27,685.65z"/>
			<path style="fill-rule:evenodd;clip-rule:evenodd;fill:#FFFFFF;" d="M128.781,633.219c8.497,6.782,17.387,13.091,26.675,18.831
				V193.726c-9.288,5.736-18.178,12.042-26.675,18.829V313.65h-26.675v-76.69c-9.705,10.141-18.633,21.025-26.675,32.579v306.694
				c8.042,11.557,16.97,22.44,26.675,32.586v-56.713h26.675V633.219L128.781,633.219z"/>
			<path style="fill-rule:evenodd;clip-rule:evenodd;fill:#FFFFFF;" d="M464.157,633.219c-8.497,6.782-17.382,13.091-26.675,18.831
				V193.726c9.293,5.736,18.178,12.04,26.675,18.827V313.65h26.675v-76.69c9.71,10.141,18.633,21.025,26.675,32.577v306.696
				c-8.042,11.557-16.965,22.44-26.675,32.586v-56.713h-26.675V633.219L464.157,633.219z"/>
			<polygon style="fill-rule:evenodd;clip-rule:evenodd;fill:#EE3524;" points="150.404,368.21 150.404,358.112 128.781,334.26 
				102.106,334.26 80.479,358.112 80.479,368.21 109.579,368.21 109.579,514.119 102.106,519.376 102.106,528.669 128.781,528.669 
				128.781,519.376 121.304,514.119 121.304,368.21 150.404,368.21 			"/>
			<path style="fill-rule:evenodd;clip-rule:evenodd;fill:#EE3524;" d="M238.27,160.124c-11.812,2.723-21.631,5.617-29.465,8.324
				v508.875c7.929,2.747,16.468,5.589,29.465,8.412V160.124L238.27,160.124z"/>
			<polygon style="fill-rule:evenodd;clip-rule:evenodd;fill:#EE3524;" points="442.531,368.21 442.531,358.112 464.157,334.26 
				490.832,334.26 512.458,358.112 512.458,368.21 483.358,368.21 483.358,514.119 490.832,519.376 490.832,528.669 
				464.157,528.669 464.157,519.376 471.631,514.119 471.631,368.21 442.531,368.21 			"/>
			<path style="fill-rule:evenodd;clip-rule:evenodd;fill:#EE3524;" d="M354.672,160.122c11.813,2.723,21.627,5.617,29.46,8.327
				v508.875c-7.928,2.747-16.463,5.589-29.46,8.412V160.122L354.672,160.122z"/>
			<polygon style="fill-rule:evenodd;clip-rule:evenodd;fill:#1D56A7;" points="274.927,593.983 295.196,547.653 303.314,561.862 
				314.492,561.862 294.045,526.083 260.095,603.683 318.016,603.683 297.744,650.014 289.624,635.805 278.451,635.805 
				298.895,671.583 332.848,593.983 274.927,593.983 			"/>
			<path style="fill-rule:evenodd;clip-rule:evenodd;fill:#1D56A7;" d="M296.47,471.568c-7.642-15.281-18.067-36.131-23.106-46.21
				h23.106v-9.699h-23.106c5.039-10.079,15.464-30.923,23.106-46.208c2.216,4.433,4.674,9.345,7.16,14.323h10.847l-18.007-36.015
				l-36.375,72.75l36.375,72.751l18.007-36.013h-10.847C301.145,462.226,298.686,467.135,296.47,471.568L296.47,471.568z"/>
			<path style="fill-rule:evenodd;clip-rule:evenodd;fill:#1D56A7;" d="M296.47,247.689v9.7h20.678
				c-5.531,11.066-14.592,29.193-20.678,41.36c-9.274-18.547-22.668-45.334-25.531-51.06c2.863-5.726,16.258-32.512,25.531-51.059
				c2.562,5.122,5.437,10.874,8.321,16.636h10.841l-19.162-38.327l-36.375,72.75l36.375,72.75l36.377-72.75H296.47L296.47,247.689z"
				/>
		</g>
	</g>
</g>
</svg>
