<?xml version="1.0" encoding="iso-8859-1"?>
<!-- Generator: Adobe Illustrator 23.0.1, SVG Export Plug-In . SVG Version: 6.00 Build 0)  -->
<svg version="1.1" xmlns="http://www.w3.org/2000/svg" xmlns:xlink="http://www.w3.org/1999/xlink" x="0px" y="0px"
	 viewBox="0 0 595.276 841.89" style="enable-background:new 0 0 595.276 841.89;" xml:space="preserve">
<g id="Grade" style="display:none;">
</g>
<g id="HQFL">
</g>
<g id="&#xC1;rea_de_trabalho">
</g>
<g id="Linhas-guia">
</g>
<g id="Page_1">
	<g id="HQFL_1_">
		<g>
			<path style="fill-rule:evenodd;clip-rule:evenodd;fill:#00A651;" d="M531.066,200.691l-67.516-72.03
				c-58.066,23.205-113.191,17.85-165.48-15.855c-52.394,33.705-107.625,39.06-165.584,15.855l-67.515,72.03
				c40.005,48.405,39.165,117.389-2.625,206.955c-41.79,89.249-2.31,166.424,118.125,231.314
				c46.725,25.517,85.89,55.966,117.6,91.455c31.605-35.489,70.771-65.938,117.496-91.455
				c120.329-64.784,159.81-141.959,118.543-231.314C492.005,318.187,491.06,249.201,531.066,200.691L531.066,200.691z"/>
			<path style="fill-rule:evenodd;clip-rule:evenodd;fill:#FFFFFF;" d="M509.435,202.056l-50.399-53.865
				c-56.28,19.635-109.935,14.385-160.965-15.855c-51.24,30.24-104.789,35.49-161.07,15.855l-49.98,53.865
				c35.595,51.45,32.445,122.325-9.555,212.625c-18.375,39.796-19.11,76.439-2.205,110.146
				c18.9,36.014,56.595,69.193,113.085,99.539c43.05,23.73,79.695,50.925,109.724,81.795
				c29.821-30.766,66.359-57.959,109.621-81.795c56.594-30.45,94.289-63.63,113.084-99.539
				c17.01-33.707,16.275-70.349-2.204-110.146C476.571,324.277,473.525,253.401,509.435,202.056L509.435,202.056z"/>
			<path style="fill-rule:evenodd;clip-rule:evenodd;fill:#00A651;" d="M372.726,260.856l-0.734-1.784
				c-18.795-31.92-42.315-47.881-70.561-47.775c-30.659-0.105-57.014,17.745-79.274,53.34c-18.585,30.03-29.505,66.99-32.865,110.88
				c-3.675,11.34-11.235,21.945-22.575,31.71c5.355,2.519,12.495,2.519,21.315,0c0,48.719,9.555,90.825,28.77,126.734
				c20.369,38.221,46.515,54.916,78.33,50.085c22.995-3.676,43.155-18.164,60.06-43.469c3.779,10.5,10.814,14.7,21.313,12.599
				c-9.238-4.62-13.439-17.324-12.599-38.011c5.25-23.729,6.3-46.096,3.361-67.096c1.68-16.589,10.918-27.089,27.613-31.708
				c-9.134-3.991-18.163-5.145-26.984-3.36c-8.925,2.1-16.695,0.525-23.519-4.831c-11.551-8.925-21.946-8.819-31.29,0.316
				c12.285,3.359,21.315,11.025,27.09,23.099c5.774,12.075,8.085,28.455,7.141,49.034c-0.841,15.436-3.361,28.982-7.666,40.426
				c-7.034,19.32-18.899,31.607-35.7,37.066c-26.88,8.82-47.669-1.891-62.684-32.13c-16.59-33.704-24.991-73.291-24.991-118.755
				c8.82,2.519,15.856,2.519,21.42,0c-12.495-8.085-19.32-18.69-20.475-31.71c3.36-39.795,12.915-73.92,28.665-102.165
				c17.22-29.82,37.59-45.045,61.319-45.465c22.155,0.42,38.431,12.6,48.721,36.225c8.399,20.055,2.625,33.81-17.43,41.265
				c-0.421-0.63-1.05-1.47-1.995-2.415c-2.415-2.31-5.04-3.466-8.085-3.466c-2.941,0-5.566,1.156-7.875,3.466
				c-2.205,2.309-3.361,4.934-3.255,7.875c-0.107,3.044,1.364,5.354,4.515,6.615c2.835,1.26,5.774,1.68,8.82,1.26
				c18.27,0,30.45-4.306,36.645-12.81C377.241,292.251,379.025,277.236,372.726,260.856L372.726,260.856z"/>
		</g>
	</g>
</g>
</svg>
