<?xml version="1.0" encoding="iso-8859-1"?>
<!-- Generator: Adobe Illustrator 23.0.1, SVG Export Plug-In . SVG Version: 6.00 Build 0)  -->
<svg version="1.1" xmlns="http://www.w3.org/2000/svg" xmlns:xlink="http://www.w3.org/1999/xlink" x="0px" y="0px"
	 viewBox="0 0 595.276 841.89" style="enable-background:new 0 0 595.276 841.89;" xml:space="preserve">
<g id="Grade" style="display:none;">
</g>
<g id="HQFL">
</g>
<g id="&#xC1;rea_de_trabalho">
</g>
<g id="Linhas-guia">
</g>
<g id="Page_1">
	<g id="HQFL_1_">
		<g>
			<path style="fill-rule:evenodd;clip-rule:evenodd;fill:#FFFFFF;stroke:#397032;stroke-width:8.25;stroke-miterlimit:2.4142;" d="
				M295.806,155.767c-142.006,0-257.13,115.118-257.13,257.119c0,142.006,115.124,257.125,257.13,257.125
				c142.001,0,257.124-115.119,257.124-257.125C552.931,270.886,437.808,155.767,295.806,155.767L295.806,155.767z"/>
			<path style="fill-rule:evenodd;clip-rule:evenodd;fill:none;stroke:#397032;stroke-width:8.25;stroke-miterlimit:2.4142;" d="
				M295.833,258.892c-85.051,0-154,68.949-154,154c0,85.052,68.949,154,154,154c85.046,0,154-68.948,154-154
				C449.833,327.841,380.879,258.892,295.833,258.892L295.833,258.892z"/>
			<path style="fill-rule:evenodd;clip-rule:evenodd;fill:none;" d="M257.951,539.376c-54.442-16.279-94.118-66.752-94.118-126.483
				c0-59.646,39.558-110.048,93.865-126.408"/>
			<g>
				<path style="fill-rule:evenodd;clip-rule:evenodd;fill:#397032;" d="M325.53,284.287c-9.599-2.224-19.428-3.395-29.697-3.395
					c-8.4,0-16.613,0.784-24.573,2.283l-0.016,259.558c7.756,1.418,16.425,2.159,24.589,2.159V422.517h29.697v-27.5h-29.697v-86.625
					c9.705,0,20.775,1.321,29.697,3.803V284.287L325.53,284.287z"/>
				<path style="fill-rule:evenodd;clip-rule:evenodd;fill:#397032;" d="M257.715,539.392
					c-54.441-16.28-93.865-66.747-93.865-126.484c0-59.641,39.558-110.048,93.871-126.409l-0.005,29.675
					c-38.054,15.614-66.381,53.034-66.381,96.717c0,36.067,18.401,67.869,46.197,86.651v-60.526h-16.5V410.83h36.685V539.392
					L257.715,539.392z"/>
				<path style="fill-rule:evenodd;clip-rule:evenodd;fill:#397032;" d="M414.356,354.723
					c-13.029-26.501-34.686-47.991-61.305-60.817l-0.022,237.837c31.871-15.442,56.885-43.334,68.143-77.354l-22.494-11.371
					c-4.055,13.492-13.524,25.841-22.285,36.433l0.012-133.192c5.574,6.725,13.014,14.158,16.773,22.145L414.356,354.723
					L414.356,354.723z"/>
			</g>
			<g>
				<path style="fill-rule:evenodd;clip-rule:evenodd;fill:#397032;stroke:#397032;stroke-width:2.2;stroke-miterlimit:2.4142;" d="
					M92.468,387.455l2.53-20.426l31.442,3.899l-0.51,4.082l-7.799,0.548c5.177,3.867,8.057,10.151,7.267,16.505
					c-0.988,7.976-5.156,11.408-8.4,13.444c-9.399,6.075-19.497,5.022-25.717,4.248c-14.33-1.778-29.605-10.651-27.725-25.824
					c1.079-8.685,8.502-17.58,21.849-17.306l-0.752,6.096c-10.484,0.741-13.46,7.288-14.094,12.407
					c-1.037,8.368,6.542,16.285,21.935,18.192c11.951,1.483,24.621-0.107,26.158-12.488c0.29-2.337,0.424-6.139-2.583-10.001
					c-3.588-4.592-8.701-6.279-15.007-7.063l-1.799,14.523L92.468,387.455L92.468,387.455z"/>
				<path style="fill-rule:evenodd;clip-rule:evenodd;fill:#397032;stroke:#397032;stroke-width:2.2;stroke-miterlimit:2.4142;" d="
					M87.295,308.376l35.626,14.454c11.236,4.56,18.455,13.976,13.616,25.905c-4.743,11.688-16.263,12.864-26.506,8.707
					l-36.615-14.862l2.385-5.871l34.552,14.024c11.924,4.839,17.542,0.419,19.68-4.85c2.191-5.387,1.509-12.713-10.414-17.553
					l-34.703-14.083L87.295,308.376L87.295,308.376z"/>
				<path style="fill-rule:evenodd;clip-rule:evenodd;fill:#397032;stroke:#397032;stroke-width:2.2;stroke-miterlimit:2.4142;" d="
					M129.931,305.272l-16.978-21.162l0.075-0.108l25.298,9.362L129.931,305.272L129.931,305.272z M145.443,295.582l16.763,6.145
					l3.991-5.661l-58.201-20.249l-4.141,5.876l38.248,48.549l3.765-5.339l-11.269-13.944L145.443,295.582L145.443,295.582z"/>
				<path style="fill-rule:evenodd;clip-rule:evenodd;fill:#397032;stroke:#397032;stroke-width:2.2;stroke-miterlimit:2.4142;" d="
					M139.089,250.18l11.924-10.377c2.369-2.062,6.848-4.974,12.859,1.934c5.742,6.596,3.019,10.93-0.478,13.975l-11.091,9.652
					L139.089,250.18L139.089,250.18z M156.797,270.531l11.58-10.082c5.72-4.974,10.049-1.192,13.245,2.476
					c1.461,1.681,7.509,8.336,10.587,10.473l5.865-5.102l-0.87-0.999c-2.395,0.231-3.459-0.489-5.672-2.933l-7.337-7.836
					c-5.613-6.053-8.61-5.414-11.548-4.71c0.806-3.652,1.354-8.4-4.388-14.996c-8.234-9.459-16.269-6.95-22.086-1.885
					l-16.366,14.239l38.887,44.682l4.78-4.157L156.797,270.531L156.797,270.531z"/>
				<path style="fill-rule:evenodd;clip-rule:evenodd;fill:#397032;stroke:#397032;stroke-width:2.2;stroke-miterlimit:2.4142;" d="
					M198.89,240.523l-5.242-26.619l0.113-0.065l18.084,20.013L198.89,240.523L198.89,240.523z M217.125,239.116l12.015,13.213
					l6.161-3.169l-42.206-44.902l-6.392,3.287l11.414,60.747l5.806-2.992l-3.529-17.574L217.125,239.116L217.125,239.116z"/>
				
					<polygon style="fill-rule:evenodd;clip-rule:evenodd;fill:#397032;stroke:#397032;stroke-width:2.2;stroke-miterlimit:2.4142;" points="
					254.331,183.772 260.309,182.354 273.935,240.002 267.007,241.64 232.787,200.562 232.658,200.595 243.669,247.156 
					237.691,248.569 224.065,190.926 231.375,189.197 265.213,230.367 265.342,230.334 254.331,183.772 				"/>
				
					<polygon style="fill-rule:evenodd;clip-rule:evenodd;fill:#397032;stroke:#397032;stroke-width:2.2;stroke-miterlimit:2.4142;" points="
					288.781,239.755 282.454,240.12 279.006,180.985 285.333,180.619 288.781,239.755 				"/>
				
					<polygon style="fill-rule:evenodd;clip-rule:evenodd;fill:#397032;stroke:#397032;stroke-width:2.2;stroke-miterlimit:2.4142;" points="
					322.248,241.452 316.034,240.206 327.684,182.129 359.523,188.515 358.127,195.476 332.501,190.336 328.93,208.13 
					351.483,212.653 350.087,219.608 327.533,215.086 322.248,241.452 				"/>
				
					<polygon style="fill-rule:evenodd;clip-rule:evenodd;fill:#397032;stroke:#397032;stroke-width:2.2;stroke-miterlimit:2.4142;" points="
					350.763,248.494 344.28,246.469 346.886,238.122 353.368,240.147 350.763,248.494 				"/>
				<path style="fill-rule:evenodd;clip-rule:evenodd;fill:#397032;stroke:#397032;stroke-width:2.2;stroke-miterlimit:2.4142;" d="
					M421.296,238.106c3.996-9.754-0.821-14.99-4.65-17.375c-7.214-4.485-17.221-1.391-25.459,11.849
					c-7.369,11.833-9.711,23.01,0.16,29.16c3.497,2.175,10.85,3.835,19.965-6.719l5.21,3.244
					c-14.034,17.601-26.759,10.845-29.756,8.981c-9.04-5.629-13.294-18.579-1.263-37.909c9.637-15.479,23.301-21.844,34.891-14.625
					c10.265,6.386,10.576,17.757,6.118,26.646L421.296,238.106L421.296,238.106z"/>
				
					<polygon style="fill-rule:evenodd;clip-rule:evenodd;fill:#397032;stroke:#397032;stroke-width:2.2;stroke-miterlimit:2.4142;" points="
					417.536,279.63 434.477,296.323 429.498,301.378 408.046,280.232 449.624,238.047 454.141,242.494 417.536,279.63 				"/>
				<path style="fill-rule:evenodd;clip-rule:evenodd;fill:#397032;stroke:#397032;stroke-width:2.2;stroke-miterlimit:2.4142;" d="
					M501.589,303.026l-32.355,20.765c-10.205,6.547-22.064,7.015-29.015-3.819c-6.811-10.613-1.128-20.705,8.175-26.673
					l33.258-21.345l3.427,5.334L453.69,297.43c-10.828,6.95-10.463,14.088-7.391,18.874c3.137,4.893,9.513,8.567,20.346,1.617
					l31.522-20.227L501.589,303.026L501.589,303.026z"/>
				<path style="fill-rule:evenodd;clip-rule:evenodd;fill:#397032;stroke:#397032;stroke-width:2.2;stroke-miterlimit:2.4142;" d="
					M506.025,330.043l3.712,10.882c2.277,6.682,0.172,10.227-5.061,12.01c-6.875,2.342-10.258-0.435-12.219-6.187l-3.689-10.823
					L506.025,330.043L506.025,330.043z M454.393,340.936l6.515,19.111c3.351,9.834,12.714,12.514,21.694,9.453
					c9.609-3.271,10.436-9.281,10.93-12.697c4.555,3.905,10.066,3.196,13.734,1.95c7.653-2.61,12.681-9.088,9.855-17.376
					l-6.654-19.54L454.393,340.936L454.393,340.936z M482.602,338.025l4.023,11.811c1.665,4.888,1.977,10.925-5.908,13.611
					c-6.247,2.127-11.306,0.333-13.433-5.914l-4.361-12.805L482.602,338.025L482.602,338.025z"/>
				
					<polygon style="fill-rule:evenodd;clip-rule:evenodd;fill:#397032;stroke:#397032;stroke-width:2.2;stroke-miterlimit:2.4142;" points="
					470.044,414.536 466.741,380.064 525.705,374.419 528.966,408.434 521.902,409.111 519.249,381.402 501.181,383.131 
					503.63,408.698 496.567,409.374 494.118,383.808 474.411,385.698 477.107,413.865 470.044,414.536 				"/>
				<path style="fill-rule:evenodd;clip-rule:evenodd;fill:#397032;stroke:#397032;stroke-width:2.2;stroke-miterlimit:2.4142;" d="
					M121.67,502.063c8.884-5.678,7.955-12.734,6.198-16.887c-3.314-7.82-13.283-11.054-27.639-4.974
					c-12.837,5.44-21.184,13.23-16.65,23.939c1.606,3.793,6.66,9.384,20.19,6l2.395,5.656c-21.608,6.31-28.123-6.543-29.498-9.792
					c-4.157-9.808-0.177-22.843,20.786-31.722c16.79-7.111,31.625-4.447,36.948,8.127c4.716,11.129-1.574,20.604-10.334,25.309
					L121.67,502.063L121.67,502.063z"/>
				<path style="fill-rule:evenodd;clip-rule:evenodd;fill:#397032;stroke:#397032;stroke-width:2.2;stroke-miterlimit:2.4142;" d="
					M120.365,532.431l25.454-9.393l0.075,0.107l-16.892,21.027L120.365,532.431L120.365,532.431z M124.64,550.215l-11.14,13.953
					l4.104,5.581l37.646-48.786l-4.254-5.784l-58.174,20.883l3.872,5.264l16.796-6.269L124.64,550.215L124.64,550.215z"/>
				<path style="fill-rule:evenodd;clip-rule:evenodd;fill:#397032;stroke:#397032;stroke-width:2.2;stroke-miterlimit:2.4142;" d="
					M158.742,606.321l22.166-27.065c1.096-1.338,5.957-7.063,9.458-11.338l-0.102-0.086l-41.734,30.126l-4.85-3.979l21.259-46.783
					l-0.102-0.08c-3.448,4.211-8.105,10.104-9.206,11.441l-22.161,27.06l-4.753-3.889l37.533-45.826l7.025,5.758l-21.366,47.229
					l0.102,0.08l42.04-30.293l6.977,5.709l-37.533,45.826L158.742,606.321L158.742,606.321z"/>
				<path style="fill-rule:evenodd;clip-rule:evenodd;fill:#397032;stroke:#397032;stroke-width:2.2;stroke-miterlimit:2.4142;" d="
					M209.434,575.825l11.671,5.424c4.737,2.203,7.407,6.08,4.238,12.886c-3.368,7.257-7.976,8.03-13.132,5.634l-11.435-5.316
					L209.434,575.825L209.434,575.825z M197.886,600.661l13.39,6.225c9.244,4.297,16.554-2.589,20.029-10.07
					c4.034-8.68,2.283-17.316-5.596-20.98l-19.137-8.895l-24.965,53.717l5.747,2.675L197.886,600.661L197.886,600.661z"/>
				
					<polygon style="fill-rule:evenodd;clip-rule:evenodd;fill:#397032;stroke:#397032;stroke-width:2.2;stroke-miterlimit:2.4142;" points="
					234.828,641.469 228.727,639.756 244.743,582.726 250.845,584.44 234.828,641.469 				"/>
				
					<polygon style="fill-rule:evenodd;clip-rule:evenodd;fill:#397032;stroke:#397032;stroke-width:2.2;stroke-miterlimit:2.4142;" points="
					289.705,590.487 295.817,591.121 289.716,650.036 282.631,649.306 263.838,599.252 263.703,599.243 258.778,646.835 
					252.666,646.201 258.767,587.286 266.244,588.059 284.645,638.07 284.78,638.08 289.705,590.487 				"/>
				<path style="fill-rule:evenodd;clip-rule:evenodd;fill:#397032;stroke:#397032;stroke-width:2.2;stroke-miterlimit:2.4142;" d="
					M315.727,624.266l4.131-26.813l0.134-0.016l10.189,24.975L315.727,624.266L315.727,624.266z M333.351,629.154l6.799,16.516
					l6.87-0.887L322.624,588.2l-7.127,0.912l-9.953,61l6.477-0.832l2.664-17.725L333.351,629.154L333.351,629.154z"/>
				<path style="fill-rule:evenodd;clip-rule:evenodd;fill:#397032;stroke:#397032;stroke-width:2.2;stroke-miterlimit:2.4142;" d="
					M373.961,591.545c-3.476-8.481-10.114-9.109-15.082-7.273c-3.738,1.375-9.566,5.022-6.45,13.46
					c1.74,4.721,4.946,5.296,7.809,5.119l13.906-1c6.332-0.402,12.219,2.348,15.48,11.172c4.855,13.16-3.491,20.367-11.026,23.155
					c-8.154,3.008-12.482,1.085-15.275-0.435c-5.307-2.874-7.762-7.246-9.674-12.434l5.58-2.058
					c3.712,10.061,11.296,10.604,16.936,8.524c4.291-1.585,11.011-5.65,8.067-13.621c-2.144-5.801-4.974-6.87-13.009-6.364
					l-9.98,0.692c-3.196,0.21-10.635,0.054-14.206-9.62c-3.201-8.668-1.869-18.83,8.797-22.767
					c15.389-5.678,21.205,5.365,23.709,11.387L373.961,591.545L373.961,591.545z"/>
				<path style="fill-rule:evenodd;clip-rule:evenodd;fill:#397032;stroke:#397032;stroke-width:2.2;stroke-miterlimit:2.4142;" d="
					M444.177,597.163l-4.865,3.749l-25.115-32.619l-8.492,6.537l-3.518-4.576c5.494-5.07,7.374-7.659,3.039-16.296l3.572-2.75
					L444.177,597.163L444.177,597.163z"/>
				<path style="fill-rule:evenodd;clip-rule:evenodd;fill:#397032;stroke:#397032;stroke-width:2.2;stroke-miterlimit:2.4142;" d="
					M453.002,553.067c-2.567,2.873-7.267,6.037-15.581-1.369c-5.785-5.162-7.381-11.313-3.815-15.309
					c4.389-4.925,10.484-3.082,15.41,1.306C457.578,545.327,455,550.822,453.002,553.067L453.002,553.067z M457.299,558.035
					c2.825-3.17,4.023-8.228,1.826-12.461l0.215,0.01c10.248,11.065,13.02,17.999,8.847,22.683
					c-3.132,3.507-7.665,3.142-12.258-0.511l-3.824,4.292c4.185,3.734,13.487,8.175,20.663,0.129
					c10.522-11.806-8.68-30.061-13.299-34.177c-7.021-6.262-21.033-16.827-30.771-5.902c-6.436,7.219-2.869,17.23,5.016,24.256
					C442.335,564.039,451.648,564.378,457.299,558.035L457.299,558.035z"/>
				<path style="fill-rule:evenodd;clip-rule:evenodd;fill:#397032;stroke:#397032;stroke-width:2.2;stroke-miterlimit:2.4142;" d="
					M501.433,529.965l-3.163,5.264l-35.288-21.199l-5.516,9.185l-4.953-2.97c3.271-6.725,4.077-9.824-3.115-16.28l2.32-3.867
					L501.433,529.965L501.433,529.965z"/>
				<path style="fill-rule:evenodd;clip-rule:evenodd;fill:#397032;stroke:#397032;stroke-width:2.2;stroke-miterlimit:2.4142;" d="
					M519.716,489.489l-2.121,5.764l-38.64-14.195l-3.695,10.055l-5.419-1.988c1.949-7.219,2.153-10.414-6.118-15.404l1.552-4.232
					L519.716,489.489L519.716,489.489z"/>
			</g>
			<g>
				<path style="fill-rule:evenodd;clip-rule:evenodd;fill:#397032;" d="M94.53,450.017c4.56,0,8.25-3.695,8.25-8.25
					c0-4.56-3.69-8.25-8.25-8.25c-4.555,0-8.25,3.69-8.25,8.25C86.28,446.322,89.975,450.017,94.53,450.017L94.53,450.017z"/>
				<path style="fill-rule:evenodd;clip-rule:evenodd;fill:#397032;" d="M503.823,450.017c4.555,0,8.25-3.695,8.25-8.25
					c0-4.56-3.695-8.25-8.25-8.25c-4.554,0-8.25,3.69-8.25,8.25C495.573,446.322,499.269,450.017,503.823,450.017L503.823,450.017z"
					/>
			</g>
		</g>
	</g>
</g>
</svg>
