<?xml version="1.0" encoding="iso-8859-1"?>
<!-- Generator: Adobe Illustrator 23.0.1, SVG Export Plug-In . SVG Version: 6.00 Build 0)  -->
<svg version="1.1" xmlns="http://www.w3.org/2000/svg" xmlns:xlink="http://www.w3.org/1999/xlink" x="0px" y="0px"
	 viewBox="0 0 595.276 841.89" style="enable-background:new 0 0 595.276 841.89;" xml:space="preserve">
<g id="Grade" style="display:none;">
</g>
<g id="HQFL">
</g>
<g id="&#xC1;rea_de_trabalho">
</g>
<g id="Linhas-guia">
</g>
<g id="Page_1">
	<g id="HQFL_1_">
		<g>
			<path style="fill-rule:evenodd;clip-rule:evenodd;fill:#00A651;" d="M499.693,623.571c55.891-55.485,83.7-122.713,84.106-201.689
				c-0.406-79.11-28.216-146.34-84.106-202.23c-55.484-55.89-122.85-83.7-201.824-83.7c-78.975,0-146.205,27.811-202.095,83.7
				c-56.025,55.89-83.7,123.12-83.43,202.23c-0.27,78.976,27.405,146.204,83.43,201.689
				c55.891,56.024,123.121,83.699,202.095,83.699C376.844,707.27,444.209,679.595,499.693,623.571L499.693,623.571z"/>
			<path style="fill-rule:evenodd;clip-rule:evenodd;fill:#FFFFFF;" d="M488.759,612.636
				c52.784-52.785,79.381-116.101,79.381-190.754c-0.406-74.79-26.597-138.51-79.381-191.295
				c-52.784-52.785-116.099-78.975-190.89-78.975c-74.654,0-138.375,26.19-191.16,78.975
				c-52.785,52.785-79.11,116.505-78.705,191.295c-0.405,74.654,25.92,137.969,78.705,190.754
				c52.785,52.784,116.506,78.975,191.16,78.975C372.659,691.611,435.974,665.42,488.759,612.636L488.759,612.636z"/>
			<path style="fill-rule:evenodd;clip-rule:evenodd;fill:#00A651;" d="M466.483,269.737c-2.834-2.836-5.534-5.941-8.235-8.64
				c-44.146-44.145-97.74-66.555-160.38-66.555c-62.91,0-116.504,22.41-160.65,66.555c-44.28,44.145-66.555,97.74-66.15,160.785
				c0,3.51,0,7.425,0,10.935c2.7,57.778,24.705,107.46,66.15,149.309c44.146,44.281,97.74,66.556,160.65,66.556
				c62.64,0,116.233-21.871,160.38-66.149l0.403-0.406c44.148-44.143,66.422-97.74,66.422-160.244
				c-0.406-5.806-0.406-11.34-0.675-16.47h-246.78v27.405h219.78c-2.835,49.95-22.006,93.016-57.51,129.466l-0.812,0.268
				c0,0,0,0-0.403,0.406l-0.406,0.81c-38.744,38.341-85.59,57.51-140.399,57.51c-55.08,0-102.465-19.575-141.21-58.726
				c-36.315-36.315-55.485-79.381-58.185-129.734c-0.405-3.51-0.405-7.425,0-10.935c-0.405-55.215,19.17-102.465,57.915-141.616
				c39.015-38.745,86.4-58.32,141.48-58.32c55.215,0,102.059,19.575,140.806,58.32h0.403v0.405c1.891,1.891,3.915,3.915,5.806,5.805
				L466.483,269.737L466.483,269.737z"/>
		</g>
	</g>
</g>
</svg>
