<?xml version="1.0" encoding="iso-8859-1"?>
<!-- Generator: Adobe Illustrator 23.0.1, SVG Export Plug-In . SVG Version: 6.00 Build 0)  -->
<svg version="1.1" xmlns="http://www.w3.org/2000/svg" xmlns:xlink="http://www.w3.org/1999/xlink" x="0px" y="0px"
	 viewBox="0 0 595.276 841.89" style="enable-background:new 0 0 595.276 841.89;" xml:space="preserve">
<g id="Grade" style="display:none;">
</g>
<g id="HQFL">
</g>
<g id="&#xC1;rea_de_trabalho">
</g>
<g id="Linhas-guia">
</g>
<g id="Page_1">
	<g id="HQFL_1_">
		<g>
			<path style="fill-rule:evenodd;clip-rule:evenodd;fill:#ED1C24;" d="M3.343,458.302c28.687,126.867,142.469,222.1,277.795,222.1
				c135.326,0,249.108-95.232,277.795-222.1h-78.295c6.25-19.805,9.631-40.861,9.631-62.684c0-115.185-93.946-209.13-209.131-209.13
				c-115.185,0-209.13,93.945-209.13,209.13c0,21.823,3.375,42.88,9.626,62.684H3.343L3.343,458.302z"/>
			<path style="fill-rule:evenodd;clip-rule:evenodd;fill:#FFFFFF;" d="M17.22,469.109h68.164
				c29.857,79.113,106.412,135.639,195.754,135.639c89.343,0,165.892-56.525,195.75-135.639h68.168
				c-32.254,115.405-138.46,200.485-263.918,200.485C155.681,669.594,49.475,584.514,17.22,469.109L17.22,469.109z"/>
			<path style="fill-rule:evenodd;clip-rule:evenodd;fill:#ED1C24;" d="M69.235,539.191l11.186,14.332l-6.062,8.738l6.886,8.809
				l28.138-44.016l-7.309-9.355l-49.631,16.506l6.668,8.533L69.235,539.191L69.235,539.191z M96.859,529.08l0.091,0.114
				L85.35,546.009l-7.732-9.896L96.859,529.08L96.859,529.08z"/>
			<path style="fill-rule:evenodd;clip-rule:evenodd;fill:#ED1C24;" d="M91.974,583.207l16.105,13.998
				c12.273,10.674,25.427,1.924,32.359-6.061c6.119-7.035,12.799-19.959,0.273-30.861l-16.414-14.264L91.974,583.207L91.974,583.207
				z M126.323,559.059l7.457,6.473c3.318,2.883,7.778,8.305-1.76,19.297c-5.319,6.107-12.97,10.637-19.296,5.147l-7.561-6.577
				L126.323,559.059L126.323,559.059z"/>
			<path style="fill-rule:evenodd;clip-rule:evenodd;fill:#ED1C24;" d="M149.955,614.855l15.899,8.818l-2.162,10.409l9.78,5.421
				l8.705-51.506l-10.386-5.754l-39.243,34.579l9.48,5.261L149.955,614.855L149.955,614.855z M171.448,594.757l0.113,0.069
				l-4.106,20.006l-10.981-6.097L171.448,594.757L171.448,594.757z"/>
			<polygon style="fill-rule:evenodd;clip-rule:evenodd;fill:#ED1C24;" points="247.02,610.978 232.643,607.122 214.1,642.352 
				213.975,642.318 215.406,602.502 200.891,598.613 188.147,646.207 197.423,648.689 208.073,608.917 208.21,608.952 
				206.242,651.056 215.977,653.664 235.513,616.273 235.651,616.306 224.99,656.078 234.266,658.572 247.02,610.978 			"/>
			<path style="fill-rule:evenodd;clip-rule:evenodd;fill:#ED1C24;" d="M264.042,651.56l18.174,0.32l2.985,10.213l11.175,0.195
				l-16.494-49.56l-11.872-0.207l-18.416,48.955l10.843,0.195L264.042,651.56L264.042,651.56z M273.581,623.73h0.137l5.764,19.594
				l-12.547-0.217L273.581,623.73L273.581,623.73z"/>
			<polygon style="fill-rule:evenodd;clip-rule:evenodd;fill:#ED1C24;" points="339.076,640.03 338.951,640.054 313.202,610.107 
				302.542,612.178 311.955,660.539 321.393,658.71 314.689,624.21 314.828,624.189 341.261,654.842 351.372,652.874 
				341.97,604.514 332.533,606.344 339.076,640.03 			"/>
			<polygon style="fill-rule:evenodd;clip-rule:evenodd;fill:#ED1C24;" points="374.077,601.015 387.884,595.433 384.624,587.357 
				347.448,602.365 350.721,610.439 364.526,604.871 379.727,642.467 389.267,638.613 374.077,601.015 			"/>
			<polygon style="fill-rule:evenodd;clip-rule:evenodd;fill:#ED1C24;" points="398.898,577.326 390.069,582.634 415.462,624.863 
				424.292,619.568 398.898,577.326 			"/>
			<polygon style="fill-rule:evenodd;clip-rule:evenodd;fill:#ED1C24;" points="453.688,577.601 453.585,577.691 416.308,564.63 
				408.13,571.745 440.454,608.918 447.707,602.628 424.646,576.115 424.75,576.023 462.989,589.348 470.755,582.587 
				438.431,545.413 431.167,551.716 453.688,577.601 			"/>
			<path style="fill-rule:evenodd;clip-rule:evenodd;fill:#ED1C24;" d="M481.815,553.649l11.199-14.333l9.94,3.766l6.885-8.809
				l-49.516-16.655l-7.297,9.356l28.012,44.164l6.668-8.532L481.815,553.649L481.815,553.649z M465.322,529.275l0.091-0.103
				l19.125,7.184l-7.744,9.893L465.322,529.275L465.322,529.275z"/>
			<path style="fill-rule:evenodd;clip-rule:evenodd;fill:#FFFFFF;" d="M281.138,197.295c109.232,0,198.322,89.091,198.322,198.323
				c0,109.232-89.09,198.322-198.322,198.322c-109.232,0-198.322-89.09-198.322-198.322
				C82.816,286.386,171.906,197.295,281.138,197.295L281.138,197.295z"/>
			<path style="fill-rule:evenodd;clip-rule:evenodd;fill:#ED1C24;" d="M281.138,216.749c54.745,0,103.867,24.817,136.722,63.77
				l-19.826,16.69c-28.09-33.303-70.09-54.522-116.896-54.522c-84.231,0-152.93,68.698-152.93,152.93
				c0,84.231,68.699,152.929,152.93,152.929c75.393,0,138.327-55.04,150.709-126.991H283.732v-25.937h176.274
				c0,98.516-80.351,178.868-178.868,178.868c-98.517,0-178.868-80.351-178.868-178.868
				C102.27,297.101,182.621,216.749,281.138,216.749L281.138,216.749z"/>
		</g>
	</g>
</g>
</svg>
