<?xml version="1.0" encoding="iso-8859-1"?>
<!-- Generator: Adobe Illustrator 23.0.1, SVG Export Plug-In . SVG Version: 6.00 Build 0)  -->
<svg version="1.1" xmlns="http://www.w3.org/2000/svg" xmlns:xlink="http://www.w3.org/1999/xlink" x="0px" y="0px"
	 viewBox="0 0 595.276 841.89" style="enable-background:new 0 0 595.276 841.89;" xml:space="preserve">
<g id="Grade" style="display:none;">
</g>
<g id="HQFL">
</g>
<g id="&#xC1;rea_de_trabalho">
</g>
<g id="Linhas-guia">
</g>
<g id="Page_1">
	<g id="HQFL_1_">
		<g>
			<path style="fill-rule:evenodd;clip-rule:evenodd;" d="M300.949,747.908c-32.758-52.92-66.777-57.206-102.057-61.485
				c-16.632-2.017-33.264-4.033-50.401-10.589c-28.728-10.835-59.473-25.45-83.665-46.115
				c-24.948-21.164-43.091-48.887-45.107-85.932c-3.274-54.684,16.379-89.207,36.289-124.234
				c15.624-27.468,31.247-55.441,35.28-93.996c1.258-10.081-3.025-21.673-9.83-32.761c-9.071-14.615-22.176-28.224-33.766-36.791
				l-5.797-4.284l4.286-5.795l65.519-88.454l3.78-5.04l5.544,3.276c70.81,42.084,124.992,62.496,179.17,62.245
				c54.683-0.253,110.629-21.167,185.22-61.236l5.543-3.023l3.531,5.039l65.516,88.199l4.285,5.797l-5.797,4.285
				c-11.59,8.567-24.693,22.176-33.515,36.791c-6.803,11.088-11.088,22.68-10.076,32.759c4.029,38.81,21.67,66.529,39.057,93.996
				c22.176,34.524,43.85,68.543,40.574,123.227c-2.016,37.045-20.162,64.768-44.857,85.932
				c-24.445,20.665-55.185,35.28-83.918,46.115c-16.885,6.303-33.516,8.572-49.895,10.336
				c-35.281,4.532-70.055,8.565-102.816,61.738l-6.047,9.827L300.949,747.908L300.949,747.908z"/>
			<path style="fill-rule:evenodd;clip-rule:evenodd;fill:#FFFFFF;" d="M421.152,203.84L48.447,465.163
				c5.797-13.607,12.852-25.956,19.91-38.555c16.379-28.728,33.011-57.962,37.293-99.541c1.514-13.607-3.527-28.224-11.843-41.831
				c-8.569-13.862-20.665-26.965-32.003-36.54l57.456-77.366c70.557,41.329,125.241,61.237,181.186,60.985
				C338.498,232.316,377.053,222.488,421.152,203.84L421.152,203.84z"/>
			<path style="fill-rule:evenodd;clip-rule:evenodd;fill:#EE3524;" d="M505.07,284.48v16.885
				c-3.527,8.82-5.291,18.144-4.535,26.711c1.008,8.82,2.517,17.389,4.535,25.201V642.57c-14.363,7.561-29.736,14.116-44.352,19.91
				c-11.088,4.033-22.43,6.299-33.517,7.809V340.927L505.07,284.48L505.07,284.48z"/>
			<path style="fill-rule:evenodd;clip-rule:evenodd;" d="M171.928,238.869c14.868,0,28.475,6.299,38.555,16.127
				c9.83,9.829,15.877,23.435,15.877,38.556c0,14.868-6.047,28.728-15.877,38.557c-10.08,9.827-23.687,15.875-38.555,15.875
				c-15.121,0-28.728-6.049-38.558-15.875c-9.827-9.828-16.126-23.689-16.126-38.557c0-15.121,6.299-28.728,16.126-38.556
				C143.2,245.168,156.807,238.869,171.928,238.869L171.928,238.869z"/>
			<path style="fill-rule:evenodd;clip-rule:evenodd;fill:#EE3524;" d="M106.658,641.059v-70.308l76.611-56.195v155.231
				c-10.083-1.51-19.91-3.776-29.737-7.307C137.909,656.433,121.779,649.378,106.658,641.059L106.658,641.059z"/>
			<path style="fill-rule:evenodd;clip-rule:evenodd;fill:#EE3524;" d="M264.158,689.191V457.352l82.154-59.471v293.832
				c-13.357,8.313-26.463,20.665-39.314,39.309C292.886,710.362,278.524,697.51,264.158,689.191L264.158,689.191z"/>
			<polygon style="fill-rule:evenodd;clip-rule:evenodd;fill:#FFFFFF;" points="353.619,377.469 301.202,303.884 317.58,292.292 
				383.103,322.785 383.355,322.532 347.064,271.375 361.43,261.296 413.592,334.881 398.225,345.716 330.938,314.72 
				367.982,367.137 353.619,377.469 			"/>
			<path style="fill-rule:evenodd;clip-rule:evenodd;fill:#FFFFFF;" d="M187.299,459.114l-35.027-49.138l15.623-11.088
				l34.019,47.628c2.523,3.529,5.295,6.048,8.067,7.309c3.021,1.259,5.793,1.764,8.316,1.259c2.772-0.504,5.038-1.512,7.308-3.024
				c9.827-7.055,11.341-15.119,4.789-24.695l-34.525-48.385l15.877-11.339l34.272,48.383c3.78,5.292,6.047,10.079,6.802,14.868
				c1.008,4.789,0.759,9.073-0.502,13.104c-1.261,4.032-3.275,7.812-6.299,11.087c-2.772,3.527-6.552,6.553-10.585,9.574
				c-5.291,3.531-10.582,6.05-16.126,7.561c-5.797,1.514-11.341,1.262-16.885-0.752
				C196.876,469.699,191.834,465.417,187.299,459.114L187.299,459.114z"/>
			<polygon style="fill-rule:evenodd;clip-rule:evenodd;fill:#FFFFFF;" points="157.313,517.076 114.219,456.596 92.043,472.218 
				82.972,459.114 142.694,416.781 152.018,429.632 129.59,445.508 172.683,506.241 157.313,517.076 			"/>
			<polygon style="fill-rule:evenodd;clip-rule:evenodd;fill:#FFFFFF;" points="111.194,550.086 58.779,476.251 74.15,465.417 
				126.568,538.999 111.194,550.086 			"/>
			<path style="fill-rule:evenodd;clip-rule:evenodd;fill:#FFFFFF;" d="M402.756,293.048l-2.016-2.772
				c-5.545-7.812-9.072-15.623-10.836-23.437c-1.764-7.559-1.258-15.119,1.764-22.176c2.775-7.055,8.32-13.607,16.379-19.655
				c4.539-3.276,9.324-5.544,14.619-7.056c5.291-1.512,10.586-1.763,16.129-1.008c5.545,0.755,11.088,3.025,16.633,6.804
				c5.291,3.529,10.582,8.82,15.371,15.625c4.281,6.048,7.307,12.096,9.07,17.891c1.514,6.048,2.018,11.845,1.262,17.389
				c-0.76,5.544-2.524,10.584-5.797,15.371c-3.022,4.789-7.309,9.073-12.6,12.851c-7.055,5.042-14.365,7.814-21.672,8.569
				c-7.309,0.504-14.367-0.755-20.916-4.031C413.342,304.137,407.545,299.348,402.756,293.048L402.756,293.048z M413.844,276.417
				c5.797,8.063,11.847,13.607,18.902,16.379c6.801,3.025,13.609,2.017,20.918-2.772c4.531-3.527,7.561-7.308,8.818-12.096
				c1.258-4.787,1.008-9.324-0.254-14.111c-1.258-4.535-3.273-8.82-6.045-12.6c-4.789-6.552-10.334-11.843-16.885-15.623
				c-6.807-3.78-14.113-2.521-22.68,3.276c-3.027,2.015-5.293,5.04-7.057,8.567c-2.017,3.529-2.519,7.812-2.017,12.852
				C408.047,265.329,410.064,270.62,413.844,276.417L413.844,276.417z"/>
			<path style="fill-rule:evenodd;clip-rule:evenodd;fill:#FFFFFF;" d="M273.735,434.167l-25.956-92.232l17.893-12.6l78.116,55.188
				l-16.885,11.845l-15.369-11.845l-26.965,19.153l5.544,18.899L273.735,434.167L273.735,434.167z M267.939,352.519l11.594,35.785
				l18.648-13.356l-29.989-22.68L267.939,352.519L267.939,352.519z"/>
			<path style="fill-rule:evenodd;clip-rule:evenodd;fill:#EE3524;" d="M218.296,307.413c1.258-4.285,2.017-9.073,2.017-13.86
				c0-0.757,0-1.512,0-2.268c-8.066-6.552-16.382-12.096-25.201-16.632c-8.316-4.033-17.138-6.805-26.209-8.065
				c0.253,7.559,1.511,15.372,3.278,22.931c8.316,1.513,16.379,4.033,23.939,7.057C203.681,299.601,210.989,303.128,218.296,307.413
				L218.296,307.413z"/>
			<path style="fill-rule:evenodd;clip-rule:evenodd;fill:#EE3524;" d="M154.79,338.913c5.294,2.015,11.088,3.023,17.138,3.023
				c13.354,0,25.45-5.291,34.272-14.111c4.03-4.285,7.561-9.324,10.079-14.868c-6.299-3.529-12.599-6.804-18.901-9.576
				c-4.789,9.071-11.843,17.134-19.906,23.435C170.414,332.109,162.857,336.14,154.79,338.913L154.79,338.913z"/>
			<path style="fill-rule:evenodd;clip-rule:evenodd;fill:#EE3524;" d="M131.859,321.019c1.764,2.268,3.527,4.789,5.797,6.806
				c2.772,2.772,5.797,5.04,9.071,7.056c9.577-2.017,18.901-6.552,26.964-12.853c7.561-5.544,13.86-12.851,18.143-20.663
				c-6.802-2.772-13.86-4.789-21.168-6.301c-5.544,5.797-11.843,11.09-18.898,15.877
				C145.719,314.72,138.914,318.248,131.859,321.019L131.859,321.019z"/>
			<path style="fill-rule:evenodd;clip-rule:evenodd;fill:#EE3524;" d="M141.939,255.501c-1.511,1.008-3.025,2.267-4.283,3.78
				c-8.822,8.82-14.366,20.916-14.366,34.272c0,8.063,2.017,15.624,5.544,22.176c5.797-2.017,11.341-4.788,16.382-7.811
				c-1.764-8.82-3.278-18.145-3.78-27.469C140.93,272.133,140.93,263.816,141.939,255.501L141.939,255.501z"/>
			<path style="fill-rule:evenodd;clip-rule:evenodd;fill:#EE3524;" d="M164.87,245.421c-5.793,1.007-11.337,2.773-16.379,5.544
				c-1.511,9.827-1.764,19.404-1.261,28.979c0.506,8.569,1.767,16.632,3.278,24.443c6.046-4.031,11.341-8.567,16.126-13.355
				c-2.266-8.316-3.527-16.885-3.777-25.201C162.857,259.028,163.359,252.224,164.87,245.421L164.87,245.421z"/>
			<path style="fill-rule:evenodd;clip-rule:evenodd;fill:#EE3524;" d="M206.2,259.281c-8.822-8.82-20.918-14.364-34.272-14.364
				c-0.253,0-0.506,0-0.755,0.251c-1.261,5.04-2.017,10.333-2.27,15.624c10.08,1.008,19.657,4.284,28.728,8.568
				c7.56,3.78,14.615,8.317,21.42,13.609C217.035,273.896,212.499,265.58,206.2,259.281L206.2,259.281z"/>
		</g>
	</g>
</g>
</svg>
