<?xml version="1.0" encoding="iso-8859-1"?>
<!-- Generator: Adobe Illustrator 23.0.1, SVG Export Plug-In . SVG Version: 6.00 Build 0)  -->
<svg version="1.1" xmlns="http://www.w3.org/2000/svg" xmlns:xlink="http://www.w3.org/1999/xlink" x="0px" y="0px"
	 viewBox="0 0 595.276 841.89" style="enable-background:new 0 0 595.276 841.89;" xml:space="preserve">
<g id="Grade" style="display:none;">
</g>
<g id="HQFL">
</g>
<g id="&#xC1;rea_de_trabalho">
</g>
<g id="Linhas-guia">
</g>
<g id="Page_1">
	<g id="HQFL_1_">
		<g>
			<path style="fill-rule:evenodd;clip-rule:evenodd;" d="M282.949,735.908c-32.758-52.92-66.777-57.206-102.057-61.485
				c-16.632-2.017-33.264-4.033-50.401-10.589c-28.728-10.835-59.473-25.45-83.665-46.115
				c-24.948-21.164-43.091-48.887-45.107-85.931c-3.274-54.684,16.379-89.207,36.289-124.234
				c15.624-27.468,31.247-55.441,35.28-93.995c1.258-10.081-3.025-21.673-9.83-32.761c-9.071-14.615-22.176-28.224-33.766-36.791
				l-5.797-4.284l4.286-5.795L93.7,145.471l3.78-5.04l5.544,3.276c70.81,42.084,124.992,62.496,179.17,62.245
				c54.683-0.253,110.628-21.167,185.22-61.236l5.543-3.023l3.531,5.039l65.515,88.199l4.285,5.797l-5.797,4.285
				c-11.59,8.567-24.693,22.176-33.515,36.791c-6.803,11.088-11.088,22.68-10.076,32.759c4.029,38.809,21.67,66.529,39.057,93.996
				c22.176,34.524,43.85,68.543,40.574,123.227c-2.016,37.045-20.162,64.767-44.857,85.931
				c-24.445,20.665-55.185,35.28-83.918,46.115c-16.885,6.303-33.516,8.572-49.895,10.336
				c-35.281,4.532-70.055,8.565-102.816,61.738l-6.047,9.827L282.949,735.908L282.949,735.908z"/>
			<path style="fill-rule:evenodd;clip-rule:evenodd;fill:#FFFFFF;" d="M403.152,191.839L30.447,453.163
				c5.797-13.607,12.852-25.956,19.91-38.554c16.379-28.728,33.011-57.962,37.293-99.541c1.514-13.607-3.527-28.224-11.843-41.831
				c-8.569-13.862-20.665-26.965-32.003-36.54l57.456-77.366c70.557,41.329,125.241,61.237,181.186,60.985
				C320.498,220.316,359.053,210.488,403.152,191.839L403.152,191.839z"/>
			<path style="fill-rule:evenodd;clip-rule:evenodd;fill:#EE3524;" d="M487.07,272.48v16.885
				c-3.527,8.82-5.291,18.144-4.535,26.712c1.008,8.82,2.517,17.389,4.535,25.201V630.57c-14.363,7.561-29.736,14.116-44.352,19.91
				c-11.088,4.033-22.43,6.299-33.517,7.809V328.927L487.07,272.48L487.07,272.48z"/>
			<path style="fill-rule:evenodd;clip-rule:evenodd;" d="M153.928,226.869c14.868,0,28.475,6.299,38.555,16.127
				c9.83,9.829,15.877,23.435,15.877,38.556c0,14.868-6.047,28.729-15.877,38.557c-10.08,9.827-23.687,15.875-38.555,15.875
				c-15.121,0-28.728-6.048-38.558-15.875c-9.827-9.828-16.126-23.689-16.126-38.557c0-15.121,6.299-28.727,16.126-38.556
				C125.2,233.168,138.807,226.869,153.928,226.869L153.928,226.869z"/>
			<path style="fill-rule:evenodd;clip-rule:evenodd;fill:#EE3524;" d="M88.658,629.059v-70.308l76.611-56.195v155.231
				c-10.083-1.51-19.91-3.777-29.737-7.307C119.909,644.433,103.779,637.378,88.658,629.059L88.658,629.059z"/>
			<path style="fill-rule:evenodd;clip-rule:evenodd;fill:#EE3524;" d="M246.158,677.191V445.352l82.154-59.471v293.833
				c-13.357,8.312-26.463,20.665-39.314,39.309C274.886,698.362,260.524,685.51,246.158,677.191L246.158,677.191z"/>
			<polygon style="fill-rule:evenodd;clip-rule:evenodd;fill:#FFFFFF;" points="335.619,365.469 283.202,291.883 299.58,280.292 
				365.103,310.785 365.355,310.532 329.064,259.375 343.43,249.296 395.592,322.881 380.225,333.716 312.938,302.72 
				349.982,355.136 335.619,365.469 			"/>
			<path style="fill-rule:evenodd;clip-rule:evenodd;fill:#FFFFFF;" d="M169.299,447.114l-35.027-49.138l15.623-11.088
				l34.019,47.628c2.523,3.529,5.295,6.048,8.067,7.309c3.021,1.259,5.793,1.764,8.316,1.259c2.772-0.504,5.038-1.512,7.308-3.024
				c9.827-7.055,11.341-15.119,4.789-24.695l-34.525-48.385l15.877-11.339l34.272,48.383c3.78,5.292,6.047,10.079,6.802,14.868
				c1.008,4.788,0.759,9.073-0.502,13.104c-1.261,4.032-3.275,7.812-6.299,11.087c-2.772,3.527-6.552,6.553-10.585,9.574
				c-5.291,3.531-10.582,6.05-16.126,7.56c-5.797,1.514-11.341,1.262-16.885-0.752C178.876,457.699,173.834,453.416,169.299,447.114
				L169.299,447.114z"/>
			<polygon style="fill-rule:evenodd;clip-rule:evenodd;fill:#FFFFFF;" points="139.313,505.076 96.219,444.596 74.043,460.218 
				64.972,447.114 124.694,404.781 134.018,417.633 111.59,433.508 154.683,494.241 139.313,505.076 			"/>
			<polygon style="fill-rule:evenodd;clip-rule:evenodd;fill:#FFFFFF;" points="93.194,538.086 40.779,464.251 56.15,453.416 
				108.568,526.998 93.194,538.086 			"/>
			<path style="fill-rule:evenodd;clip-rule:evenodd;fill:#FFFFFF;" d="M384.756,281.049l-2.016-2.772
				c-5.545-7.812-9.072-15.624-10.836-23.437c-1.764-7.559-1.258-15.119,1.764-22.176c2.775-7.055,8.32-13.607,16.379-19.655
				c4.539-3.276,9.324-5.544,14.619-7.056c5.291-1.512,10.586-1.764,16.129-1.008c5.545,0.755,11.088,3.025,16.633,6.804
				c5.291,3.529,10.582,8.82,15.371,15.625c4.281,6.048,7.307,12.096,9.07,17.892c1.514,6.048,2.018,11.845,1.262,17.389
				c-0.76,5.544-2.524,10.584-5.797,15.371c-3.022,4.789-7.309,9.073-12.6,12.851c-7.055,5.041-14.365,7.813-21.672,8.569
				c-7.309,0.504-14.367-0.755-20.916-4.031C395.342,292.136,389.545,287.348,384.756,281.049L384.756,281.049z M395.844,264.417
				c5.797,8.063,11.847,13.607,18.902,16.379c6.801,3.025,13.609,2.017,20.918-2.772c4.531-3.527,7.561-7.308,8.818-12.096
				c1.258-4.787,1.008-9.324-0.254-14.111c-1.258-4.535-3.273-8.82-6.045-12.6c-4.789-6.552-10.334-11.843-16.885-15.623
				c-6.807-3.78-14.113-2.521-22.68,3.276c-3.027,2.015-5.293,5.039-7.057,8.567c-2.017,3.529-2.519,7.812-2.017,12.852
				C390.047,253.329,392.064,258.62,395.844,264.417L395.844,264.417z"/>
			<path style="fill-rule:evenodd;clip-rule:evenodd;fill:#FFFFFF;" d="M255.735,422.167l-25.956-92.232l17.893-12.6l78.116,55.188
				l-16.885,11.845l-15.369-11.845l-26.965,19.153l5.544,18.9L255.735,422.167L255.735,422.167z M249.939,340.519l11.594,35.785
				l18.649-13.356l-29.989-22.68L249.939,340.519L249.939,340.519z"/>
			<path style="fill-rule:evenodd;clip-rule:evenodd;fill:#EE3524;" d="M200.296,295.413c1.258-4.285,2.017-9.073,2.017-13.861
				c0-0.757,0-1.512,0-2.267c-8.066-6.552-16.382-12.096-25.201-16.632c-8.316-4.033-17.138-6.805-26.209-8.064
				c0.253,7.559,1.511,15.372,3.278,22.931c8.316,1.513,16.379,4.033,23.939,7.057C185.681,287.601,192.989,291.128,200.296,295.413
				L200.296,295.413z"/>
			<path style="fill-rule:evenodd;clip-rule:evenodd;fill:#EE3524;" d="M136.79,326.913c5.294,2.015,11.088,3.023,17.138,3.023
				c13.354,0,25.45-5.291,34.272-14.111c4.03-4.285,7.561-9.324,10.079-14.868c-6.299-3.529-12.599-6.804-18.901-9.575
				c-4.789,9.071-11.843,17.134-19.906,23.435C152.414,320.109,144.857,324.14,136.79,326.913L136.79,326.913z"/>
			<path style="fill-rule:evenodd;clip-rule:evenodd;fill:#EE3524;" d="M113.859,309.019c1.764,2.268,3.527,4.789,5.797,6.806
				c2.772,2.771,5.797,5.039,9.071,7.056c9.577-2.017,18.901-6.552,26.964-12.853c7.561-5.544,13.86-12.852,18.143-20.664
				c-6.802-2.772-13.86-4.788-21.168-6.301c-5.544,5.797-11.843,11.09-18.898,15.877
				C127.719,302.72,120.914,306.248,113.859,309.019L113.859,309.019z"/>
			<path style="fill-rule:evenodd;clip-rule:evenodd;fill:#EE3524;" d="M123.939,243.501c-1.511,1.008-3.025,2.268-4.283,3.78
				c-8.822,8.82-14.366,20.916-14.366,34.271c0,8.064,2.017,15.624,5.544,22.176c5.797-2.017,11.341-4.788,16.382-7.812
				c-1.764-8.82-3.278-18.145-3.78-27.469C122.93,260.133,122.93,251.816,123.939,243.501L123.939,243.501z"/>
			<path style="fill-rule:evenodd;clip-rule:evenodd;fill:#EE3524;" d="M146.87,233.421c-5.793,1.007-11.337,2.773-16.379,5.544
				c-1.511,9.827-1.764,19.404-1.261,28.979c0.506,8.569,1.767,16.632,3.278,24.443c6.046-4.031,11.341-8.567,16.126-13.355
				c-2.266-8.316-3.527-16.885-3.777-25.201C144.857,247.028,145.359,240.224,146.87,233.421L146.87,233.421z"/>
			<path style="fill-rule:evenodd;clip-rule:evenodd;fill:#EE3524;" d="M188.2,247.281c-8.822-8.82-20.918-14.364-34.272-14.364
				c-0.253,0-0.506,0-0.755,0.251c-1.261,5.04-2.017,10.333-2.27,15.624c10.08,1.008,19.657,4.284,28.728,8.568
				c7.56,3.78,14.615,8.316,21.42,13.609C199.035,261.896,194.499,253.58,188.2,247.281L188.2,247.281z"/>
		</g>
	</g>
</g>
</svg>
