<?xml version="1.0" encoding="iso-8859-1"?>
<!-- Generator: Adobe Illustrator 23.0.1, SVG Export Plug-In . SVG Version: 6.00 Build 0)  -->
<svg version="1.1" xmlns="http://www.w3.org/2000/svg" xmlns:xlink="http://www.w3.org/1999/xlink" x="0px" y="0px"
	 viewBox="0 0 595.276 841.89" style="enable-background:new 0 0 595.276 841.89;" xml:space="preserve">
<g id="Grade" style="display:none;">
</g>
<g id="HQFL">
</g>
<g id="&#xC1;rea_de_trabalho">
</g>
<g id="Linhas-guia">
</g>
<g id="Page_1">
	<g id="HQFL_1_">
		<g>
			<path style="fill-rule:evenodd;clip-rule:evenodd;" d="M281.138,157.306l-14.398,6.487
				c-68.001,30.65-151.827,28.869-232.017,0.142L3.716,152.816l-0.285,34.142c-0.642,96.085,13.186,199.014,54.101,291.251
				c43.623,98.365,121.033,176.631,205.428,225.315l18.177,10.551l18.175-10.551c84.396-48.684,161.807-126.949,205.43-225.315
				c40.914-92.237,54.742-195.166,54.101-291.251l-0.285-34.142l-31.008,11.119c-80.189,28.726-164.015,30.508-232.015-0.142
				L281.138,157.306L281.138,157.306z"/>
			<path style="fill-rule:evenodd;clip-rule:evenodd;fill:#FFFFFF;" d="M281.138,194.87c-78.693,34.286-163.944,31.292-243.35,6.13
				c1.069,89.671,13.829,180.98,51.036,263.166c40.63,89.885,105.423,159.523,192.314,210.348
				c86.89-50.824,151.683-120.463,192.313-210.348c37.208-82.186,49.968-173.495,51.036-263.166
				C445.081,226.162,359.831,229.156,281.138,194.87L281.138,194.87z"/>
			<path style="fill-rule:evenodd;clip-rule:evenodd;" d="M239.154,276.629v308.714c-45.262-38.775-81.117-84.824-106.349-140.92
				c-3.137-7.129-3.565-18.89,4.419-23.951l17.179-10.834H90.963c5.132,15.468,11.049,30.65,17.749,45.619
				c34.428,76.912,86.605,136.145,156.887,183.617V226.447l-50.68,25.233C224.684,257.597,239.154,265.152,239.154,276.629
				L239.154,276.629z"/>
			<path style="fill-rule:evenodd;clip-rule:evenodd;" d="M296.677,226.447v412.569c8.482-5.488,17.392-11.762,26.444-18.676
				V436.082h94.375c-0.927,27.016-13.259,55.1-31.435,81.4c-5.274,7.699-8.839,10.123-13.258,5.988l-10.691-13.115v76.412
				c43.766-42.555,81.9-97.94,81.9-153.893C444.013,340.923,410.012,285.895,296.677,226.447L296.677,226.447z M323.121,409.637
				V272.495c48.471,29.794,86.748,64.793,93.448,137.143H323.121L323.121,409.637z"/>
		</g>
	</g>
</g>
</svg>
