<?xml version="1.0" encoding="iso-8859-1"?>
<!-- Generator: Adobe Illustrator 23.0.1, SVG Export Plug-In . SVG Version: 6.00 Build 0)  -->
<svg version="1.1" xmlns="http://www.w3.org/2000/svg" xmlns:xlink="http://www.w3.org/1999/xlink" x="0px" y="0px"
	 viewBox="0 0 595.276 841.89" style="enable-background:new 0 0 595.276 841.89;" xml:space="preserve">
<g id="Grade" style="display:none;">
</g>
<g id="HQFL">
</g>
<g id="&#xC1;rea_de_trabalho">
</g>
<g id="Linhas-guia">
</g>
<g id="Page_1">
	<g id="HQFL_1_">
		<g>
			<path style="fill-rule:evenodd;clip-rule:evenodd;fill:#2E3192;" d="M271.852,820.019c0,0,23.93-33.465,112.472-56.237
				c96.264-24.759,156.759-56.42,162.344-136.797c6.737-96.992-51.493-141.815-51.493-231.499
				c0-69.55,40.406-110.562,40.406-110.562l-84.288-98.722l-7.065,3.93c-57.639,32.085-115.207,48.123-172.705,48.123
				c-57.499,0-115.067-16.039-172.706-48.123l-7.064-3.93l-84.29,98.722c0,0,41.064,41.012,41.064,110.559
				c0,89.684-58.231,134.51-51.492,231.502c5.584,80.377,66.079,112.038,162.342,136.797
				C247.921,786.554,271.852,820.019,271.852,820.019L271.852,820.019z"/>
			<path style="fill-rule:evenodd;clip-rule:evenodd;fill:#FFFFFF;" d="M104.565,580.599c-5.993-1.142-11.898-2.459-17.618-4.152
				c4.302-10.087,10.263-20.266,17.618-30.518V580.599L104.565,580.599z"/>
			<path style="fill-rule:evenodd;clip-rule:evenodd;fill:#FFFFFF;" d="M150.257,496.641c13.996-12.436,29.876-24.97,47.452-37.596
				v122.888c-16.245,1.779-32.128,2.846-47.452,2.793V496.641L150.257,496.641z"/>
			<path style="fill-rule:evenodd;clip-rule:evenodd;fill:#FFFFFF;" d="M243.404,428.355c17.578-11.094,36.38-22.247,56.237-33.45
				v169.933c-18.876,3.751-37.691,7.417-56.237,10.572V428.355L243.404,428.355z"/>
			<path style="fill-rule:evenodd;clip-rule:evenodd;fill:#FFFFFF;" d="M345.337,369.995c15.307-8.065,31.147-16.159,47.45-24.273
				v202.046c-15.651,2.307-31.507,5.096-47.45,8.114V369.995L345.337,369.995z"/>
			<path style="fill-rule:evenodd;clip-rule:evenodd;fill:#FFFFFF;" d="M438.479,323.485c15.454-7.354,31.303-14.725,47.454-22.11
				v29.46c-7.483,20.303-11.224,41.829-11.224,64.647c0,22.705,3.768,46.661,11.224,71.905v68.493
				c-1.912,1.511-3.635,3.487-5.047,6.022c-13.749-0.627-27.929-0.299-42.407,0.723V323.485L438.479,323.485z"/>
			<path style="fill-rule:evenodd;clip-rule:evenodd;fill:#FFFFFF;" d="M362.192,245.461c-5.663,2.571-11.287,5.145-16.855,7.724
				v-3.451C350.954,248.469,356.572,247.011,362.192,245.461L362.192,245.461z"/>
			<path style="fill-rule:evenodd;clip-rule:evenodd;fill:#FFFFFF;" d="M271.523,258.066c9.375,0,18.747-0.447,28.118-1.251v18.226
				c-19.528,9.65-38.31,19.381-56.237,29.207v-47.433C252.776,257.619,262.147,258.066,271.523,258.066L271.523,258.066z"/>
			<path style="fill-rule:evenodd;clip-rule:evenodd;fill:#FFFFFF;" d="M57.112,698.127c0-5.59,0-12.426,0-20.262
				c14.643,5.825,30.561,9.302,47.452,11.02v35.955C87.047,717.73,70.769,709.214,57.112,698.127L57.112,698.127z"/>
			<path style="fill-rule:evenodd;clip-rule:evenodd;fill:#FFFFFF;" d="M164.949,744.827c-4.883-1.443-9.789-2.895-14.691-4.374
				v-50.768c15.346-0.81,31.215-2.543,47.452-4.906v70.051C187.051,751.37,176.059,748.11,164.949,744.827L164.949,744.827z"/>
			<path style="fill-rule:evenodd;clip-rule:evenodd;fill:#FFFFFF;" d="M271.523,791.816c-8.167-7.269-17.666-13.411-28.119-18.789
				v-96.119c18.099-3.508,36.448-7.406,54.856-11.322c0.462-0.099,0.92-0.197,1.381-0.293v107.734
				C289.188,778.405,279.69,784.546,271.523,791.816L271.523,791.816z"/>
			<path style="fill-rule:evenodd;clip-rule:evenodd;fill:#FFFFFF;" d="M378.098,744.827c-11.108,3.283-22.1,6.544-32.761,10.003
				v-99.046c15.954-3.177,31.816-6.107,47.45-8.544v93.213C387.885,741.932,382.982,743.383,378.098,744.827L378.098,744.827z"/>
			<path style="fill-rule:evenodd;clip-rule:evenodd;fill:#FFFFFF;" d="M438.479,724.844V641.71
				c15.596-1.247,30.803-1.705,45.461-1.052c0.687,0.137,1.331,0.228,1.993,0.341v57.129
				C472.279,709.214,455.998,717.73,438.479,724.844L438.479,724.844z"/>
			<path style="fill-rule:evenodd;clip-rule:evenodd;fill:#FFFFFF;" d="M504.156,634.395c-4.103,2.578-10.591,2.959-19.466,1.155
				l-0.268-0.056l-0.138-0.008c-0.845-0.038-0.862-0.007-1.711-0.038l2.022-6.914c0.975-4.205,2.997-7.283,5.522-9.227
				c1.898-1.459,4.113-2.275,6.378-2.431c2.271-0.147,4.582,0.359,6.67,1.55c2.486,1.416,4.659,3.853,6.191,7.233
				C508.667,629.725,506.941,632.649,504.156,634.395L504.156,634.395z"/>
			<path style="fill-rule:evenodd;clip-rule:evenodd;fill:#FFFFFF;" d="M484.75,545.659c1.223-2.613,2.797-4.551,4.575-5.896
				c2.057-1.55,4.431-2.325,6.86-2.438c2.519-0.12,5.086,0.443,7.449,1.55c2.377,1.105,4.55,2.761,6.266,4.817l-0.184,73.439
				c-1.247-1.261-2.571-2.37-4.008-3.192c-3.011-1.711-6.321-2.451-9.559-2.232c-3.24,0.226-6.427,1.401-9.185,3.521
				c-0.807,0.62-1.578,1.324-2.3,2.106v-71.497L484.75,545.659L484.75,545.659z"/>
			<path style="fill-rule:evenodd;clip-rule:evenodd;" d="M125.407,240.453h0.002c13.728,0,26.19,5.596,35.219,14.623
				c9.028,9.03,14.624,21.491,14.626,35.219v0.007c0,13.725-5.598,26.188-14.628,35.211c-9.026,9.03-21.489,14.63-35.213,14.63
				h-0.005c-13.728,0-26.188-5.6-35.219-14.63c-9.026-9.026-14.625-21.487-14.626-35.211v-0.007c0-13.728,5.6-26.188,14.628-35.219
				c9.028-9.026,21.489-14.623,35.213-14.623H125.407L125.407,240.453z"/>
			<path style="fill-rule:evenodd;clip-rule:evenodd;fill:#FFFFFF;" d="M125.409,243.947h-0.002h-0.003c-4.677,0-9.194,0.7-13.457,2
				l-5.163,12.502l9.981,17.469h16.685l8.563-18.469l-3.892-11.728C134.078,244.567,129.815,243.947,125.409,243.947
				L125.409,243.947z"/>
			<path style="fill-rule:evenodd;clip-rule:evenodd;fill:#FFFFFF;" d="M90.949,259.359c-5.03,5.592-8.722,12.408-10.567,19.934
				l6.901,10.685h19.858l6.589-12.334l-10.453-18.285H90.949L90.949,259.359z"/>
			<path style="fill-rule:evenodd;clip-rule:evenodd;fill:#FFFFFF;" d="M81.336,304.639c2.225,6.804,5.987,12.922,10.872,17.944
				h14.153l7.965-15.701l-6.836-13.411H87.455L81.336,304.639L81.336,304.639z"/>
			<path style="fill-rule:evenodd;clip-rule:evenodd;fill:#FFFFFF;" d="M113.477,335.086c3.809,1.015,7.806,1.56,11.93,1.56h0.005
				c4.355,0,8.574-0.609,12.575-1.74l4.79-11.313l-9.539-16.063h-15.332l-8.893,17.532L113.477,335.086L113.477,335.086z"/>
			<path style="fill-rule:evenodd;clip-rule:evenodd;fill:#FFFFFF;" d="M157.405,323.777c0.252-0.243,0.503-0.486,0.75-0.732
				c5.712-5.712,9.948-12.904,12.071-20.938l-5.061-8.636h-22.776l-5.814,12.844l9.42,15.863L157.405,323.777L157.405,323.777z"/>
			<path style="fill-rule:evenodd;clip-rule:evenodd;fill:#FFFFFF;" d="M170.92,281.518c-1.692-8.759-5.86-16.651-11.746-22.913
				h-13.853l-9.099,19.623l6.729,11.749h22.349L170.92,281.518L170.92,281.518z"/>
			<path style="fill-rule:evenodd;clip-rule:evenodd;fill:#FFFFFF;" d="M479.496,547.056
				c-52.843-2.208-112.187,9.576-171.301,21.347c-80.164,15.964-159.868,31.812-223.196,12.826
				c-9.68,25.164-24.693,80.588-5.399,98.197c60.395,14.51,138.455-2.057,217.59-18.891
				c62.869-13.372,126.368-26.844,182.585-25.167l-0.278-7.41V547.056L479.496,547.056z"/>
			<path style="fill-rule:evenodd;clip-rule:evenodd;fill:#FFFFFF;" d="M17.17,645.659c15.22,15.295,33.396,25.315,53.784,31.436
				c-14.593-24.34,0.523-74.709,9.159-97.358l-0.065-0.022l1.034-2.585c18.8-46.988,70.761-95.457,146.841-144.995
				c75.079-48.884,173.744-98.905,287.233-149.644l-59.868-71.79c-100.588,41.96-191.582,84.49-262.951,129.39
				c-71.51,44.988-123.276,92.304-145.152,143.738l-0.079,0.169c-13.676,26.576-24.439,53.138-30.537,79.672
				c-5.625,24.47-7.285,48.919-3.601,73.354C13.634,641.925,17.17,645.659,17.17,645.659L17.17,645.659z"/>
			<g>
				<polygon style="fill-rule:evenodd;clip-rule:evenodd;" points="73.03,465.704 100.882,439.065 107.738,446.232 90.31,462.901 
					95.45,468.279 111.577,452.857 118.12,459.696 101.994,475.122 108.303,481.715 126.221,464.577 133.465,472.153 
					105.123,499.261 73.03,465.704 				"/>
				<polygon style="fill-rule:evenodd;clip-rule:evenodd;" points="130.068,458.573 140.66,449.807 148.925,459.788 
					138.332,468.558 130.068,458.573 				"/>
				<path style="fill-rule:evenodd;clip-rule:evenodd;" d="M168.601,420.931l12.413-4.431c1.418,3.35,2.099,6.515,2.042,9.502
					c-0.056,2.99-0.81,5.765-2.263,8.336c-1.453,2.567-3.855,5.086-7.206,7.558c-4.066,2.994-7.82,4.85-11.267,5.572
					c-3.448,0.718-7.202,0.282-11.263-1.314c-4.061-1.592-7.799-4.709-11.217-9.347c-4.556-6.181-6.414-12.146-5.568-17.891
					c0.844-5.744,4.276-10.836,10.296-15.274c4.709-3.473,9.113-5.247,13.209-5.333c4.095-0.088,8.25,1.356,12.46,4.325
					l-8.577,9.833c-1.196-0.88-2.182-1.44-2.96-1.684c-1.294-0.409-2.583-0.514-3.863-0.303c-1.282,0.207-2.499,0.732-3.649,1.581
					c-2.602,1.92-3.825,4.442-3.661,7.565c0.102,2.335,1.384,5.173,3.846,8.512c3.05,4.141,5.769,6.515,8.151,7.128
					c2.385,0.609,4.711,0.077,6.981-1.592c2.201-1.624,3.409-3.469,3.622-5.536C170.339,426.07,169.832,423.668,168.601,420.931
					L168.601,420.931z"/>
				<polygon style="fill-rule:evenodd;clip-rule:evenodd;" points="188.63,414.423 200.049,406.763 207.268,417.526 195.85,425.186 
					188.63,414.423 				"/>
				<path style="fill-rule:evenodd;clip-rule:evenodd;" d="M224.981,351.603l12.358-7.441l13.013,21.61
					c2.731,4.539,4.408,8.23,5.03,11.083c0.621,2.852,0.213,5.832-1.227,8.942c-1.439,3.11-4.058,5.804-7.852,8.09
					c-4.013,2.416-7.447,3.743-10.305,3.987c-2.86,0.239-5.517-0.32-7.977-1.69c-2.46-1.363-4.725-3.522-6.794-6.466l10.818-8.688
					c1.072,1.736,2.005,2.948,2.803,3.624c0.794,0.676,1.689,1.071,2.682,1.183c0.673,0.067,1.435-0.162,2.293-0.676
					c1.358-0.817,2.046-1.93,2.065-3.332c0.02-1.398-0.699-3.311-2.157-5.734L224.981,351.603L224.981,351.603z"/>
				<path style="fill-rule:evenodd;clip-rule:evenodd;" d="M288.955,359.471l-14.168,7.945l1.704,7.826l-12.793,7.177l-7.447-49.06
					l13.772-7.724l37.809,32.032l-13.112,7.354L288.955,359.471L288.955,359.471z M281.405,352.202l-12.561-12.102l3.714,17.063
					L281.405,352.202L281.405,352.202z"/>
				<path style="fill-rule:evenodd;clip-rule:evenodd;" d="M311.872,355.583l-21.602-41.1l21.177-11.133
					c3.927-2.064,7.104-3.307,9.533-3.723c2.431-0.416,4.759-0.049,6.991,1.106c2.229,1.155,4.032,3.043,5.409,5.663
					c1.201,2.282,1.747,4.508,1.638,6.677c-0.105,2.17-0.743,4.216-1.912,6.143c-0.746,1.229-1.954,2.557-3.627,3.986
					c1.774-0.289,3.138-0.359,4.092-0.218c0.641,0.095,1.697,0.461,3.163,1.102c1.465,0.637,2.504,1.18,3.12,1.624l12.422,8.636
					l-14.369,7.551l-13.351-8.991c-1.708-1.173-3.025-1.828-3.952-1.962c-1.246-0.151-2.447,0.07-3.603,0.68l-1.116,0.588
					l8.759,16.658L311.872,355.583L311.872,355.583z M311.795,324.428l5.35-2.81c0.581-0.307,1.603-1.085,3.067-2.331
					c0.75-0.609,1.212-1.402,1.381-2.374c0.165-0.972,0.014-1.909-0.458-2.81c-0.701-1.332-1.659-2.134-2.874-2.402
					c-1.215-0.272-2.979,0.2-5.297,1.419l-5.575,2.93L311.795,324.428L311.795,324.428z"/>
				<path style="fill-rule:evenodd;clip-rule:evenodd;" d="M335.701,290.753l19.071-9.502c3.761-1.874,7.051-2.877,9.875-3.008
					c2.821-0.134,5.466,0.38,7.928,1.536c2.462,1.155,4.663,2.828,6.608,5.022c1.94,2.19,3.62,4.705,5.032,7.537
					c2.212,4.444,3.424,8.143,3.631,11.09c0.208,2.955-0.172,5.702-1.141,8.248c-0.971,2.55-2.349,4.61-4.135,6.184
					c-2.438,2.159-4.804,3.807-7.086,4.948l-19.074,9.502L335.701,290.753L335.701,290.753z M353.188,293.753l11.309,22.695
					l3.148-1.571c2.684-1.338,4.444-2.585,5.283-3.747c0.838-1.162,1.208-2.642,1.112-4.445c-0.095-1.803-0.972-4.366-2.627-7.691
					c-2.194-4.402-4.413-7.058-6.66-7.967c-2.247-0.905-5.032-0.532-8.364,1.127L353.188,293.753L353.188,293.753z"/>
				<polygon style="fill-rule:evenodd;clip-rule:evenodd;" points="381.697,268.019 394.696,261.761 414.841,303.593 
					401.846,309.852 381.697,268.019 				"/>
				<polygon style="fill-rule:evenodd;clip-rule:evenodd;" points="404.251,257.105 421.399,249.124 439.899,271.657 
					434.581,242.989 451.659,235.037 471.255,277.133 460.626,282.082 445.675,249.952 452.349,285.931 442.734,290.407 
					419.518,262.126 434.472,294.253 423.843,299.198 404.251,257.105 				"/>
			</g>
			<path style="fill-rule:evenodd;clip-rule:evenodd;fill:#FFFFFF;" d="M150.257,235.646v11.52c3.79,2.194,7.292,4.832,10.37,7.91
				c9.028,9.03,14.624,21.491,14.626,35.219v0.007c0,13.725-5.598,26.188-14.628,35.211c-3.076,3.078-6.579,5.72-10.368,7.917
				v28.774c12.337-8.928,25.46-17.75,39.332-26.478c2.661-1.676,5.404-3.339,8.12-5.008v-80.985
				C181.887,246.173,166.071,241.496,150.257,235.646L150.257,235.646z"/>
			<path style="fill-rule:evenodd;clip-rule:evenodd;fill:#FFFFFF;" d="M75.562,290.302v-0.007c0-13.728,5.6-26.188,14.628-35.219
				c4.133-4.131,9.011-7.498,14.374-9.988v-29.556c-2.744-1.402-5.489-2.8-8.232-4.268L57.112,257.2c0,16.5,0,42.35,0,73.639
				c7.483,20.307,11.223,41.829,11.223,64.644c0,16.313-1.976,33.285-5.838,50.905c11.326-16.085,25.445-31.767,42.067-47.101
				v-63.784c-5.364-2.487-10.242-5.854-14.376-9.988C81.162,316.487,75.564,304.027,75.562,290.302L75.562,290.302z"/>
			<g>
				<path style="fill-rule:evenodd;clip-rule:evenodd;" d="M90.303,613.426l23.81,1.796c5.184,0.391,8.974,1.92,11.37,4.589
					c2.395,2.666,3.422,6.279,3.078,10.841c-0.354,4.694-2.039,8.252-5.052,10.682c-3.013,2.427-7.409,3.423-13.185,2.986
					l-7.841-0.592l-1.289,17.085l-14.385-1.088L90.303,613.426L90.303,613.426z M103.194,634.289l3.515,0.265
					c2.763,0.207,4.741-0.124,5.931-0.997c1.189-0.877,1.842-2.063,1.954-3.556c0.111-1.455-0.283-2.727-1.176-3.812
					c-0.895-1.084-2.68-1.729-5.36-1.93l-4.082-0.31L103.194,634.289L103.194,634.289z"/>
				<polygon style="fill-rule:evenodd;clip-rule:evenodd;" points="135.432,615.913 149.729,615.229 151.402,650.125 
					173.803,649.05 174.354,660.531 137.656,662.293 135.432,615.913 				"/>
				<path style="fill-rule:evenodd;clip-rule:evenodd;" d="M211.018,648.465l-16.112,2.032l-1.367,7.896l-14.553,1.835
					l11.552-48.257l15.665-1.975l22.987,43.9l-14.915,1.881L211.018,648.465L211.018,648.465z M206.757,638.893l-7.086-15.94
					l-2.978,17.208L206.757,638.893L206.757,638.893z"/>
				<polygon style="fill-rule:evenodd;clip-rule:evenodd;" points="227.321,607.027 240.512,604.516 262.579,626.513 
					257.766,601.23 271.052,598.702 279.732,644.317 266.449,646.845 244.503,624.963 249.289,650.11 236.003,652.638 
					227.321,607.027 				"/>
				<path style="fill-rule:evenodd;clip-rule:evenodd;" d="M315.105,628.883l-15.919,3.227l-0.774,7.976l-14.376,2.913l7.932-48.982
					l15.474-3.138l26.188,42.068l-14.731,2.986L315.105,628.883L315.105,628.883z M310.143,619.653l-8.251-15.366l-1.69,17.384
					L310.143,619.653L310.143,619.653z"/>
				<polygon style="fill-rule:evenodd;clip-rule:evenodd;" points="329.837,586.491 343.932,584 350.007,618.406 372.093,614.507 
					374.09,625.827 337.909,632.215 329.837,586.491 				"/>
				<polygon style="fill-rule:evenodd;clip-rule:evenodd;" points="367.095,579.852 410.263,573.636 411.904,585.011 397.401,587.1 
					402.381,621.681 388.216,623.72 383.236,589.143 368.732,591.231 367.095,579.852 				"/>
				<path style="fill-rule:evenodd;clip-rule:evenodd;" d="M416.849,596c-0.599-7.558,1.046-13.605,4.935-18.148
					c3.888-4.544,9.601-7.114,17.137-7.71c7.724-0.609,13.838,0.99,18.342,4.794c4.505,3.807,7.055,9.435,7.643,16.884
					c0.427,5.409-0.137,9.917-1.687,13.523c-1.554,3.607-3.979,6.512-7.276,8.71c-3.3,2.197-7.523,3.501-12.672,3.905
					c-5.233,0.412-9.632-0.073-13.192-1.465c-3.561-1.391-6.551-3.804-8.964-7.234C418.697,605.83,417.274,601.409,416.849,596
					L416.849,596z M431.119,594.925c0.373,4.688,1.515,7.984,3.431,9.893c1.916,1.909,4.381,2.743,7.402,2.504
					c3.103-0.243,5.424-1.436,6.967-3.575c1.542-2.141,2.109-5.807,1.701-10.998c-0.346-4.367-1.486-7.491-3.42-9.365
					c-1.938-1.877-4.424-2.694-7.463-2.454c-2.912,0.232-5.17,1.441-6.773,3.627C431.362,586.744,430.746,590.202,431.119,594.925
					L431.119,594.925z"/>
			</g>
		</g>
	</g>
</g>
</svg>
