<?xml version="1.0" encoding="iso-8859-1"?>
<!-- Generator: Adobe Illustrator 23.0.1, SVG Export Plug-In . SVG Version: 6.00 Build 0)  -->
<svg version="1.1" xmlns="http://www.w3.org/2000/svg" xmlns:xlink="http://www.w3.org/1999/xlink" x="0px" y="0px"
	 viewBox="0 0 595.276 841.89" style="enable-background:new 0 0 595.276 841.89;" xml:space="preserve">
<g id="Grade" style="display:none;">
</g>
<g id="HQFL">
</g>
<g id="&#xC1;rea_de_trabalho">
</g>
<g id="Linhas-guia">
</g>
<g id="Page_1">
	<g id="HQFL_1_">
		<g>
			<path style="fill-rule:evenodd;clip-rule:evenodd;fill:#00AEEF;" d="M427.643,239.919
				c-22.557-54.282-76.057-92.469-138.505-92.469c-62.445,0-115.948,38.186-138.503,92.469H6.699v90.111l12.166,5.223
				c61.623,26.459,68.919,90.196,49.62,138.218l-0.456,1.136l-0.316,1.181c-19.76,74.12,2.035,118.447,20.15,145.339l0.206,0.3
				c28.827,41.171,67.764,54.213,102.117,65.718c12.485,4.182,24.277,8.131,35.455,13.24c18.84,8.607,36.411,28.286,47.987,42.338
				l15.452,18.757l15.519-18.702c12.726-15.334,29.686-34.012,48.031-42.392c11.182-5.109,22.974-9.059,35.458-13.24
				c34.352-11.507,73.288-24.547,102.116-65.718l0.206-0.3c18.114-26.892,39.911-71.216,20.15-145.339l-0.316-1.181l-0.456-1.136
				c-19.298-48.022-12.001-111.76,49.62-138.218l12.165-5.223v-90.111H427.643L427.643,239.919z"/>
			<path style="fill-rule:evenodd;clip-rule:evenodd;fill:#FFFFFF;" d="M434.39,260.013c3.068,11.953,4.701,24.48,4.701,37.391
				c0,82.817-67.136,149.953-149.953,149.953c-82.816,0-149.952-67.136-149.952-149.953c0-12.91,1.634-25.438,4.702-37.391H26.792
				v56.777c74.375,31.934,82.549,108.904,60.337,164.174c-16.972,63.663-0.352,102.581,17.399,128.938
				c34.499,49.27,85.228,51.99,129.465,72.205c21.457,9.806,40.482,30.042,55.144,47.839c14.8-17.835,33.582-37.988,55.145-47.839
				c44.236-20.215,94.964-22.935,129.463-72.205c17.754-26.357,34.374-65.275,17.401-128.938
				c-22.211-55.27-14.037-132.24,60.336-164.174v-56.777H434.39L434.39,260.013z"/>
			<polygon style="fill-rule:evenodd;clip-rule:evenodd;fill:#00AEEF;" points="45.165,305.256 118.955,305.256 118.955,278.387 
				45.165,278.387 45.165,305.256 			"/>
			<polygon style="fill-rule:evenodd;clip-rule:evenodd;fill:#00AEEF;" points="459.32,278.387 459.32,305.256 533.11,305.256 
				533.11,278.387 459.32,278.387 			"/>
			<path style="fill-rule:evenodd;clip-rule:evenodd;fill:#FFFFFF;" d="M289.138,164.853c-73.202,0-132.55,59.344-132.55,132.55
				c0,73.205,59.348,132.55,132.55,132.55c73.206,0,132.551-59.345,132.551-132.55C421.688,224.198,362.344,164.853,289.138,164.853
				L289.138,164.853z"/>
			<path style="fill-rule:evenodd;clip-rule:evenodd;fill:#00AEEF;" d="M376.11,340.394c-6.631,13.345-16.247,24.954-27.963,33.964
				V220.431c9.852,7.582,18.222,17.005,24.579,27.744h21.009c-12.779-27.003-35.714-48.318-63.827-58.972
				c0,72.128,0,144.257,0,216.394c30.242-11.461,54.496-35.262,66.552-65.204H376.11L376.11,340.394z"/>
			<path style="fill-rule:evenodd;clip-rule:evenodd;fill:#00AEEF;" d="M215.437,250.076l-12.818-29.25v0.003
				c-28.95,32.683-37.079,79.18-20.811,119.565h20.353c-12.944-26.036-13.205-56.129-1.827-81.991l15.104,34.305
				c6.313-14.71,12.413-27.526,18.613-42.274v148.582c5.8,3.161,11.893,5.844,18.235,7.985V187.8
				c-3.962,1.338-7.827,2.886-11.587,4.63L215.437,250.076L215.437,250.076z"/>
			<path style="fill-rule:evenodd;clip-rule:evenodd;fill:#00AEEF;" d="M261.815,185.043c0,74.901,0,149.809,0,224.72
				c5.916,1.44,12.007,2.426,18.235,2.917V305.503h22.094v106.806c6.238-0.707,12.33-1.909,18.238-3.575V186.063
				c-9.945-2.804-20.426-4.303-31.246-4.303C279.729,181.76,270.581,182.902,261.815,185.043L261.815,185.043z M302.144,288.471
				h-22.094v-87.703c2.995-0.284,6.021-0.425,9.085-0.425c4.412,0,8.753,0.296,13.008,0.872V288.471L302.144,288.471z"/>
			<path style="fill-rule:evenodd;clip-rule:evenodd;fill:#00AEEF;" d="M191.147,478.428l7.781,6.51
				c0.533,0.447,1.086,0.865,1.625,1.305v-49.786c-25.936-16.558-46.927-40.172-60.274-68.137v145.628l43.428-30.324
				L191.147,478.428L191.147,478.428z"/>
			<path style="fill-rule:evenodd;clip-rule:evenodd;fill:#00AEEF;" d="M140.28,621.248c17.43,13.968,37.778,21.02,60.274,28.56
				v-66.48c-22.265-9.729-42.721-23.112-60.274-39.697V621.248L140.28,621.248z"/>
			<path style="fill-rule:evenodd;clip-rule:evenodd;fill:#00AEEF;" d="M259.003,599.709v75.421
				c11.331,7.829,21.482,17.381,30.148,26.634c8.862-9.476,18.934-18.923,30.121-26.645v-75.41
				c-9.925,1.358-19.991,2.068-30.134,2.068C278.995,601.777,268.928,601.067,259.003,599.709L259.003,599.709z"/>
			<path style="fill-rule:evenodd;clip-rule:evenodd;fill:#00AEEF;" d="M319.272,515.595v-56.094
				c-9.77,1.806-19.841,2.757-30.134,2.757c-10.294,0-20.364-0.951-30.135-2.757v56.092c10.031,2.452,20.167,3.742,30.135,3.742
				S309.241,518.045,319.272,515.595L319.272,515.595z"/>
			<path style="fill-rule:evenodd;clip-rule:evenodd;fill:#00AEEF;" d="M377.722,649.81c22.496-7.542,42.844-14.594,60.275-28.562
				v-77.617c-17.554,16.584-38.011,29.968-60.275,39.696V649.81L377.722,649.81z"/>
			<path style="fill-rule:evenodd;clip-rule:evenodd;fill:#00AEEF;" d="M387.133,478.43l50.863,35.52V368.321
				c-13.348,27.964-34.338,51.579-60.275,68.136v49.786c0.54-0.439,1.092-0.857,1.626-1.305L387.133,478.43L387.133,478.43z"/>
			<path style="fill-rule:evenodd;clip-rule:evenodd;fill:#00AEEF;" d="M386.96,494.03c-28.201,23.618-63.855,37.163-97.822,37.163
				c-33.965,0-69.62-13.545-97.824-37.163l-0.818-0.686l-49.338,34.454l1.138,1.177c37.436,38.731,90.958,60.944,146.842,60.944
				s109.405-22.213,146.842-60.944l1.137-1.177l-49.337-34.454L386.96,494.03L386.96,494.03z"/>
			<path style="fill-rule:evenodd;clip-rule:evenodd;fill:#FFFFFF;" d="M190.381,496.827c28.565,23.604,64.481,37.156,98.757,37.156
				c34.277,0,70.193-13.552,98.756-37.156c1.567,1.096,42.358,29.58,44.907,31.36c-36.855,37.461-89.101,58.943-143.663,58.943
				c-54.563,0-106.807-21.482-143.662-58.943C148.025,526.407,188.814,497.922,190.381,496.827L190.381,496.827z"/>
			<polygon style="fill-rule:evenodd;clip-rule:evenodd;fill:#ED1C24;" points="301.69,539.868 303.622,542 312.68,539.396 
				309.53,535.919 301.69,539.868 			"/>
			<path style="fill-rule:evenodd;clip-rule:evenodd;fill:#ED1C24;" d="M385.752,513.297l-7.021,5.104l9.937,36.641l6.584-4.782
				l-2.431-7.553l11.118-8.078l6.77,4.401l6.979-5.071L385.752,513.297L385.752,513.297z M391.045,536.627l-3.553-11.408
				c-0.102-0.308-0.351-0.887-0.721-1.74c-0.389-0.854-0.832-1.801-1.332-2.855c0.861,0.859,1.606,1.563,2.227,2.125
				c0.636,0.56,1.09,0.946,1.384,1.155l9.954,6.94L391.045,536.627L391.045,536.627z"/>
			<polygon style="fill-rule:evenodd;clip-rule:evenodd;fill:#ED1C24;" points="352.387,532.726 366.819,565.143 373.749,562.057 
				359.318,529.64 352.387,532.726 			"/>
			<polygon style="fill-rule:evenodd;clip-rule:evenodd;fill:#ED1C24;" points="337.116,568.024 329.6,539.975 322.271,541.939 
				331.454,576.214 350.492,571.114 348.823,564.887 337.116,568.024 			"/>
			<polygon style="fill-rule:evenodd;clip-rule:evenodd;fill:#ED1C24;" points="300.97,544.039 303.443,579.437 311.013,578.907 
				308.537,543.51 300.97,544.039 			"/>
			<path style="fill-rule:evenodd;clip-rule:evenodd;fill:#ED1C24;" d="M284.109,560.895c1.591-1.622,2.472-3.652,2.641-6.085
				c0.234-3.353-0.66-5.945-2.692-7.76c-2.02-1.816-5.189-2.877-9.487-3.179l-10.839-0.758l-2.478,35.398l7.571,0.528l1.157-16.538
				l8.154,17.19l8.733,0.608l-8.646-16.785C280.562,563.392,282.529,562.519,284.109,560.895L284.109,560.895z M277.519,558.227
				c-1.026,0.6-3.07,0.797-6.134,0.581l-1.141-0.075l0.652-9.312l1.139,0.076c2.911,0.206,4.877,0.711,5.883,1.515
				c1.003,0.812,1.448,2.087,1.326,3.827C279.127,556.499,278.549,557.627,277.519,558.227L277.519,558.227z"/>
			<path style="fill-rule:evenodd;clip-rule:evenodd;fill:#ED1C24;" d="M234.517,534.688l-23.806,29.574l7.742,2.513l4.681-6.403
				l13.071,4.247l0.416,8.065l8.207,2.665l-2.056-37.977L234.517,534.688L234.517,534.688z M236.254,544.471
				c-0.08,0.841-0.129,1.437-0.124,1.796l0.236,12.136l-9.358-3.043l7.14-9.579c0.191-0.262,0.512-0.8,0.983-1.605
				c0.465-0.815,0.97-1.73,1.527-2.755C236.474,542.62,236.341,543.637,236.254,544.471L236.254,544.471z"/>
			<path style="fill-rule:evenodd;clip-rule:evenodd;fill:#ED1C24;" d="M208.378,522.913l-17.881,12.77
				c-0.361,0.241-0.856,0.667-1.495,1.265c-0.636,0.616-1.337,1.323-2.085,2.128c0.519-0.956,0.961-1.829,1.311-2.608
				c0.363-0.781,0.611-1.388,0.747-1.829l6.752-20.92l-6.432-4.672l-25.228,25.533l5.821,4.23l14.662-15.803l0.071-0.072
				c1.646-1.757,2.946-3.308,3.916-4.64l0.61-0.845c-0.757,1.706-1.325,3.014-1.713,3.911c-0.384,0.895-0.605,1.451-0.685,1.654
				l-7.349,22.703l3.446,2.504l19.421-13.933c0.445-0.315,1.053-0.813,1.822-1.507c0.772-0.687,1.655-1.528,2.676-2.504
				c-0.1,0.111-0.211,0.236-0.325,0.376c-0.113,0.143-0.278,0.373-0.5,0.671c-0.405,0.563-0.823,1.191-1.246,1.885
				c-0.425,0.683-1.021,1.735-1.791,3.128l-10.486,18.84l5.825,4.23l16.466-31.897L208.378,522.913L208.378,522.913z"/>
		</g>
	</g>
</g>
</svg>
