<?xml version="1.0" encoding="iso-8859-1"?>
<!-- Generator: Adobe Illustrator 23.0.1, SVG Export Plug-In . SVG Version: 6.00 Build 0)  -->
<svg version="1.1" xmlns="http://www.w3.org/2000/svg" xmlns:xlink="http://www.w3.org/1999/xlink" x="0px" y="0px"
	 viewBox="0 0 595.276 841.89" style="enable-background:new 0 0 595.276 841.89;" xml:space="preserve">
<g id="Grade" style="display:none;">
</g>
<g id="HQFL">
</g>
<g id="&#xC1;rea_de_trabalho">
</g>
<g id="Linhas-guia">
</g>
<g id="Page_1">
	<g id="HQFL_1_">
		<g>
			<path style="fill-rule:evenodd;clip-rule:evenodd;fill:#328D4E;" d="M575.638,431.555c0,157.953-128.047,286-286,286
				s-286-128.047-286-286c0-157.945,128.047-286,286-286S575.638,273.61,575.638,431.555L575.638,431.555z"/>
			<path style="fill-rule:evenodd;clip-rule:evenodd;fill:#FFE917;" d="M11.638,431.555c0,153.289,124.711,278,278,278
				c153.289,0,278-124.711,278-278s-124.711-278-278-278C136.349,153.555,11.638,278.266,11.638,431.555L11.638,431.555z"/>
			<path style="fill-rule:evenodd;clip-rule:evenodd;fill:#328D4E;" d="M39.638,431.555c0,137.851,112.148,250,250,250
				c137.851,0,250-112.148,250-250s-112.149-250-250-250C151.786,181.555,39.638,293.704,39.638,431.555L39.638,431.555z"/>
			<path style="fill-rule:evenodd;clip-rule:evenodd;fill:#FFE917;" d="M115.716,365.61c-7.805,20.508-12.078,42.734-12.078,65.945
				c0,56.93,25.781,107.883,66.203,142.008v53.984C103.857,587.086,59.638,514.469,59.638,431.555
				c0-62.484,25.055-119.203,65.633-160.68l19.57,69.563l42.594-114.836c13.141-6.547,26.992-11.871,41.406-15.828v443.562
				c-15.398-4.227-30.062-10.18-44-17.351V348.438l-22.617,75.82h-26.383L115.716,365.61L115.716,365.61z"/>
			<path style="fill-rule:evenodd;clip-rule:evenodd;fill:#FFE917;" d="M243.841,206.149v450.812c14.234,2.891,28.953,4.43,44,4.547
				v-209.07h43v-44h-43V245.61c0.602-0.004,1.195-0.055,1.797-0.055c27.148,0,52.929,5.894,76.203,16.394v-47.363
				c-11.594-4.082-23.617-7.234-35.961-9.434c-0.633-0.113-1.273-0.234-1.906-0.34c-5.758-0.977-11.586-1.731-17.476-2.27
				c-0.907-0.082-1.812-0.137-2.727-0.207c-5.992-0.473-12.023-0.781-18.133-0.781c-3.922,0-7.828,0.101-11.711,0.297
				C266.318,202.442,254.935,203.899,243.841,206.149L243.841,206.149z"/>
			<path style="fill-rule:evenodd;clip-rule:evenodd;fill:#FFE917;" d="M456.856,512.93c-8.203,16.773-18.875,32.125-31.516,45.617
				V304.673c11.055,11.805,20.664,24.977,28.367,39.344l37.625-22.891c-24.547-44.625-63.477-80.273-110.492-100.668v422.199
				c47.64-20.664,86.977-56.984,111.453-102.438L456.856,512.93L456.856,512.93z"/>
		</g>
	</g>
</g>
</svg>
