<?xml version="1.0" encoding="iso-8859-1"?>
<!-- Generator: Adobe Illustrator 23.0.1, SVG Export Plug-In . SVG Version: 6.00 Build 0)  -->
<svg version="1.1" xmlns="http://www.w3.org/2000/svg" xmlns:xlink="http://www.w3.org/1999/xlink" x="0px" y="0px"
	 viewBox="0 0 595.276 841.89" style="enable-background:new 0 0 595.276 841.89;" xml:space="preserve">
<g id="Grade" style="display:none;">
</g>
<g id="HQFL">
</g>
<g id="&#xC1;rea_de_trabalho">
</g>
<g id="Linhas-guia">
</g>
<g id="Page_1">
	<g id="HQFL_1_">
		<g>
			<path style="fill-rule:evenodd;clip-rule:evenodd;fill:#F05123;" d="M563.969,139.221
				c-177.331,17.5-264.831-51.331-264.831-51.331s-87.5,68.831-264.831,51.331c-40.834,372.165,264.831,560,264.831,560
				S604.804,511.386,563.969,139.221L563.969,139.221z"/>
			<path style="fill-rule:evenodd;clip-rule:evenodd;fill:#FFFFFF;" d="M46.301,153.269c-1.446,16.331-2.485,33.475-2.485,51.888
				c0,98.017,24.616,222.81,117.421,344.869c56.953,74.902,117.893,119.776,137.901,133.459
				c20.012-13.682,80.947-58.556,137.902-133.459c55.713-73.274,117.499-189.416,117.499-344.018c0-17.069-0.98-34.733-2.576-52.736
				c-144.188,11.085-227.736-33.25-252.824-49.434C274.05,120.022,190.498,164.357,46.301,153.269L46.301,153.269z"/>
			<path style="fill-rule:evenodd;clip-rule:evenodd;fill:#F05123;" d="M330.983,290.647v351.822
				c18.996-16.01,42.314-37.642,66.336-64.761V290.647H330.983L330.983,290.647z"/>
			<path style="fill-rule:evenodd;clip-rule:evenodd;fill:#F05123;" d="M463.655,290.647v196.355
				c30.535-51.434,58.863-117.253,71.222-196.355H463.655L463.655,290.647z"/>
			<path style="fill-rule:evenodd;clip-rule:evenodd;fill:#F05123;" d="M198.311,290.647v284.013
				c23.823,27.245,47.124,49.164,66.336,65.54V290.647H198.311L198.311,290.647z"/>
			<path style="fill-rule:evenodd;clip-rule:evenodd;fill:#F05123;" d="M131.975,290.647H63.397
				c10.374,67.816,33.298,132.098,68.578,192.244V290.647L131.975,290.647z"/>
			<path style="fill-rule:evenodd;clip-rule:evenodd;fill:#F05123;" d="M536.745,277.522c2.994-22.801,4.668-46.634,4.668-71.514
				c0-12.008-0.506-24.849-1.518-38.897c-130.173,7.195-210.789-30.338-240.758-47.909
				c-29.968,17.572-110.588,55.104-240.772,47.909c-0.96,13.528-1.425,25.871-1.425,38.045c0,24.531,1.552,48.655,4.594,72.365
				H536.745L536.745,277.522z"/>
			<path style="fill-rule:evenodd;clip-rule:evenodd;fill:#FFFFFF;" d="M70.77,180.585c-0.417,8.442-0.704,16.663-0.704,24.572
				c0,19.848,1.302,39.676,3.391,59.24c22.083,0,429.365,0,451.394,0c2.119-19.363,3.438-38.917,3.438-58.389
				c0-7.981-0.315-16.526-0.776-25.426c-118.279,3.931-195.225-28.26-228.375-46.324C265.994,152.322,189.052,184.512,70.77,180.585
				L70.77,180.585z"/>
			<path style="fill-rule:evenodd;clip-rule:evenodd;fill:#F05123;" d="M203.961,244.221c3.497,0,7,2.786,7,7c0,4.293-3.503,7-7,7
				c-3.5,0-7-2.707-7-7C196.961,247.006,200.461,244.221,203.961,244.221L203.961,244.221z"/>
			<polygon style="fill-rule:evenodd;clip-rule:evenodd;fill:#F05123;" points="363.211,227.141 342.156,227.141 342.156,244.754 
				366.752,244.754 367.381,237.898 378.27,237.898 378.27,258.221 322.271,258.221 322.271,244.754 330.644,244.754 
				330.644,198.912 322.271,198.912 322.271,185.442 377.224,185.442 377.847,205.639 366.752,205.639 365.918,198.912 
				342.156,198.912 342.156,213.674 363.211,213.674 363.211,227.141 			"/>
			<path style="fill-rule:evenodd;clip-rule:evenodd;fill:#F05123;" d="M469.94,247.027c-8.545,6.812-18.389,11.194-31.596,11.194
				c-23.83,0-37.687-16.553-37.687-36.999c0-19.835,14.376-35.779,36.005-35.779c6.993,0,13.077,1.828,18.908,5.356l0.643-4.139
				l13.726,2.191c-1.162,4.382-1.941,8.887-1.941,11.929c0,3.773,0.649,7.301,2.331,12.168l-14.246,2.314l-0.903-6.573
				c-1.299-7.667-12.175-10.585-17.616-10.585c-12.687,0-21.882,8.518-21.882,22.88c0,14.482,7.513,24.216,23.83,24.216
				c7.376,0,13.857-2.068,22.401-7.424L469.94,247.027L469.94,247.027z"/>
			<polygon style="fill-rule:evenodd;clip-rule:evenodd;fill:#F05123;" points="237.051,209.799 236.767,209.799 236.767,244.754 
				244.293,244.754 244.293,258.221 213.34,258.221 213.34,244.754 221.15,244.754 221.15,198.912 213.34,198.912 213.34,185.442 
				243.582,185.442 256.219,222.219 268.855,185.442 299.09,185.442 299.09,198.912 291.283,198.912 291.283,244.754 
				299.09,244.754 299.09,258.221 268.14,258.221 268.14,244.754 275.663,244.754 275.663,209.799 275.383,209.799 261.472,247.352 
				250.962,247.352 237.051,209.799 			"/>
			<path style="fill-rule:evenodd;clip-rule:evenodd;fill:#F05123;" d="M311.408,244.221c3.5,0,7,2.786,7,7c0,4.293-3.5,7-7,7
				s-7-2.707-7-7C304.408,247.006,307.908,244.221,311.408,244.221L311.408,244.221z"/>
			<polygon style="fill-rule:evenodd;clip-rule:evenodd;fill:#F05123;" points="131.859,209.799 131.575,209.799 131.575,244.754 
				139.102,244.754 139.102,258.221 108.149,258.221 108.149,244.754 115.959,244.754 115.959,198.912 108.149,198.912 
				108.149,185.442 138.391,185.442 151.027,222.219 163.663,185.442 193.899,185.442 193.899,198.912 186.092,198.912 
				186.092,244.754 193.899,244.754 193.899,258.221 162.949,258.221 162.949,244.754 170.472,244.754 170.472,209.799 
				170.192,209.799 156.281,247.352 145.77,247.352 131.859,209.799 			"/>
			<path style="fill-rule:evenodd;clip-rule:evenodd;fill:#F05123;" d="M389.461,244.221c3.493,0,7,2.786,7,7c0,4.293-3.507,7-7,7
				c-3.5,0-7-2.707-7-7C382.461,247.006,385.961,244.221,389.461,244.221L389.461,244.221z"/>
			<path style="fill-rule:evenodd;clip-rule:evenodd;fill:#F05123;" d="M483.127,244.221c3.5,0,7,2.786,7,7c0,4.293-3.5,7-7,7
				c-3.5,0-7-2.707-7-7C476.127,247.006,479.627,244.221,483.127,244.221L483.127,244.221z"/>
		</g>
	</g>
</g>
</svg>
