<?xml version="1.0" encoding="iso-8859-1"?>
<!-- Generator: Adobe Illustrator 23.0.1, SVG Export Plug-In . SVG Version: 6.00 Build 0)  -->
<svg version="1.1" xmlns="http://www.w3.org/2000/svg" xmlns:xlink="http://www.w3.org/1999/xlink" x="0px" y="0px"
	 viewBox="0 0 595.276 841.89" style="enable-background:new 0 0 595.276 841.89;" xml:space="preserve">
<g id="Grade" style="display:none;">
</g>
<g id="HQFL">
</g>
<g id="&#xC1;rea_de_trabalho">
</g>
<g id="Linhas-guia">
</g>
<g id="Page_1">
	<g id="HQFL_1_">
		<g>
			<path style="fill-rule:evenodd;clip-rule:evenodd;fill:#E41F26;" d="M113.121,157.351
				c-22.138,45.362-40.608,101.547-40.608,161.594c0,163.61,125.625,286.063,225.624,365.063
				c100-79,225.625-201.453,225.625-365.063c0-60.047-18.471-116.232-40.608-161.594H113.121L113.121,157.351z"/>
			<path style="fill-rule:evenodd;clip-rule:evenodd;fill:#0072B0;" d="M507.432,263.004c-6.519-34.89-18.304-67.059-31.298-94.653
				H297.575v94.653H507.432L507.432,263.004z"/>
			<path style="fill-rule:evenodd;clip-rule:evenodd;fill:#FFFFFF;" d="M297.575,368.658h211.07
				c2.731-16.524,4.117-33.104,4.117-49.713c0-15.324-1.258-30.345-3.473-44.941H297.575V368.658L297.575,368.658z"/>
			<path style="fill-rule:evenodd;clip-rule:evenodd;fill:#0072B0;" d="M298.138,669.92c33.371-26.755,62.365-52.938,87.394-78.955
				H210.744C235.773,616.983,264.767,643.166,298.138,669.92L298.138,669.92z"/>
			<path style="fill-rule:evenodd;clip-rule:evenodd;fill:#0072B0;" d="M506.632,379.658H89.644
				c6.432,31.839,17.927,63.45,34.409,94.654h348.171C488.704,443.108,500.199,411.497,506.632,379.658L506.632,379.658z"/>
			<path style="fill-rule:evenodd;clip-rule:evenodd;fill:#FFFFFF;" d="M466.201,485.312H130.075
				c7.897,13.912,16.788,27.739,26.676,41.463c12.801,17.766,27.303,35.454,43.631,53.19h195.513
				c16.327-17.736,30.83-35.424,43.631-53.19C449.413,513.051,458.304,499.224,466.201,485.312L466.201,485.312z"/>
			<polygon style="fill-rule:evenodd;clip-rule:evenodd;fill:#FFFFFF;" points="135.216,329.986 135.216,203.441 118.503,203.441 
				118.503,189.115 157.9,189.115 223.56,296.56 223.56,203.441 206.846,203.441 206.846,189.115 259.374,189.115 259.374,203.441 
				242.66,203.441 242.66,344.312 224.753,344.312 155.512,227.318 155.512,329.986 172.225,329.986 172.225,344.312 
				118.503,344.312 118.503,329.986 135.216,329.986 			"/>
		</g>
	</g>
</g>
</svg>
