<?xml version="1.0" encoding="iso-8859-1"?>
<!-- Generator: Adobe Illustrator 23.0.1, SVG Export Plug-In . SVG Version: 6.00 Build 0)  -->
<svg version="1.1" xmlns="http://www.w3.org/2000/svg" xmlns:xlink="http://www.w3.org/1999/xlink" x="0px" y="0px"
	 viewBox="0 0 595.276 841.89" style="enable-background:new 0 0 595.276 841.89;" xml:space="preserve">
<g id="Grade" style="display:none;">
</g>
<g id="HQFL">
</g>
<g id="&#xC1;rea_de_trabalho">
</g>
<g id="Linhas-guia">
</g>
<g id="Page_1">
	<g id="HQFL_1_">
		<g>
			<path style="fill-rule:evenodd;clip-rule:evenodd;" d="M0.05,151.069c-0.073,34.272,0.144,71.784,3.095,109.872
				c2.881,38.16,8.496,76.968,19.009,113.76c11.303,39.672,26.856,79.343,45.864,115.704c19.008,36.288,41.4,70.128,68.904,102.456
				c20.807,24.481,44.352,46.656,69.119,67.176c24.697,20.448,50.401,39.313,75.673,57.96c25.271-18.647,50.975-37.512,75.671-57.96
				c24.768-20.519,48.312-42.695,69.12-67.176c27.504-32.328,49.895-66.168,68.904-102.456
				c19.008-36.36,34.559-76.031,45.863-115.704c10.513-36.792,16.128-75.6,19.008-113.76c2.952-38.088,3.169-75.6,3.097-109.872
				H0.05L0.05,151.069z"/>
			<path style="fill-rule:evenodd;clip-rule:evenodd;fill:#FFFFFF;" d="M15.746,166.765c-0.216,40.392,1.872,87.12,5.256,117.576
				c4.609,41.544,11.377,69.12,16.273,86.184c11.304,39.528,26.064,76.248,44.784,112.968
				c16.488,32.184,41.112,69.12,67.536,100.152c19.08,22.391,40.464,42.552,62.856,61.344c22.392,18.72,45.792,36.288,69.264,53.496
				c23.471-17.208,46.872-34.776,69.263-53.496c22.393-18.792,43.777-38.952,62.857-61.344
				c26.424-31.032,51.048-67.968,67.536-100.152c18.72-36.72,33.479-73.44,44.783-112.968c4.897-17.064,11.664-44.64,16.273-86.184
				c3.384-30.456,5.471-77.184,5.256-117.576H15.746L15.746,166.765z"/>
			<path style="fill-rule:evenodd;clip-rule:evenodd;fill:#ED1C24;" d="M204.17,616.909c-14.832-13.392-28.008-26.64-40.032-40.464
				c-5.976-6.912-11.88-14.112-17.712-21.6h270.576c-5.832,7.487-11.736,14.688-17.712,21.6
				c-12.024,13.824-25.2,27.072-40.032,40.464H204.17L204.17,616.909z"/>
			<path style="fill-rule:evenodd;clip-rule:evenodd;fill:#ED1C24;" d="M105.026,492.781c-2.592-4.609-5.184-9.36-7.704-14.112
				c-8.281-15.552-15.768-31.536-22.536-47.88h413.856c-6.768,16.344-14.256,32.328-22.536,47.88
				c-2.519,4.752-5.111,9.504-7.775,14.112H105.026L105.026,492.781z"/>
			<path style="fill-rule:evenodd;clip-rule:evenodd;fill:#ED1C24;" d="M223.034,306.661h300.672
				c-3.097,21.096-7.416,41.544-13.032,60.912c-0.072,0.36-0.216,0.792-0.288,1.152H223.034V306.661L223.034,306.661z"/>
			<path style="fill-rule:evenodd;clip-rule:evenodd;fill:#ED1C24;" d="M223.034,182.461h308.88
				c-0.145,21.384-0.721,42.048-1.945,62.064H223.034V182.461L223.034,182.461z"/>
			<path style="fill-rule:evenodd;clip-rule:evenodd;fill:#ED1C24;" d="M50.882,360.877c-6.696-24.696-11.304-50.976-14.257-78.048
				c-3.455-31.752-4.823-65.088-5.112-100.368h183.672v178.416H50.882L50.882,360.877z"/>
			<path style="fill-rule:evenodd;clip-rule:evenodd;" d="M223.034,244.525H529.97c-0.792,13.032-1.8,25.776-3.168,38.304
				c-0.865,7.992-1.872,15.912-3.096,23.832H223.034V244.525L223.034,244.525z"/>
			<path style="fill-rule:evenodd;clip-rule:evenodd;" d="M74.786,430.788c-8.28-20.015-15.48-40.679-21.744-62.064h457.344
				c-6.263,21.384-13.464,42.048-21.744,62.064H74.786L74.786,430.788z"/>
			<path style="fill-rule:evenodd;clip-rule:evenodd;" d="M281.714,679.044c-19.945-14.76-39.24-29.447-56.737-44.064
				c-7.343-6.12-14.256-12.096-20.807-18.072h155.088c-6.552,5.976-13.464,11.952-20.808,18.072
				C320.954,649.597,301.657,664.284,281.714,679.044L281.714,679.044z"/>
			<path style="fill-rule:evenodd;clip-rule:evenodd;" d="M146.426,554.845c-14.688-18.864-28.584-39.601-41.4-62.064H458.33
				c-12.744,22.464-26.712,43.2-41.328,62.064H146.426L146.426,554.845z"/>
			<path style="fill-rule:evenodd;clip-rule:evenodd;fill:#FFFFFF;" d="M198.986,253.957v-17.713
				c0-11.015-9.072-20.015-20.089-20.015h-7.272c-0.575-10.512-9.36-18.864-20.015-18.864H58.946v11.16h22.32v7.704h-6.624
				c-11.016,0-20.016,9-20.016,20.015v80.208c0,11.016,9,20.089,20.016,20.089h6.624v11.16h11.232v-11.16h5.4
				c11.016,0,20.089-9.072,20.089-20.089v-35.856h4.392v35.856c0,11.016,9,20.089,20.016,20.089h36.504
				c11.016,0,20.089-9.072,20.089-20.089v-17.639h-11.232v17.639c0,4.896-3.96,8.857-8.857,8.857h-36.504
				c-4.824,0-8.856-3.961-8.856-8.857v-35.856h15.264v-11.16h-15.264v-33.193c0-4.824,4.032-8.856,8.856-8.856h18.072v7.704h11.232
				v-7.704h7.199c4.897,0,8.857,4.032,8.857,8.856v17.713H198.986L198.986,253.957z M81.266,269.437h-8.928v11.16h8.928v44.712
				h-6.624c-4.896,0-8.856-3.961-8.856-8.857v-80.208c0-4.824,3.96-8.856,8.856-8.856h6.624V269.437L81.266,269.437z
				 M106.754,316.453c0,4.896-3.961,8.857-8.857,8.857h-5.4v-44.712h14.256V316.453L106.754,316.453z M106.754,269.437H92.498
				v-42.049h5.4c4.896,0,8.857,4.032,8.857,8.856V269.437L106.754,269.437z M142.394,216.229c-11.016,0-20.016,9-20.016,20.015
				v33.193h-4.392v-33.193c0-11.015-9.072-20.015-20.089-20.015h-5.4v-7.704h59.112c4.464,0,8.208,3.384,8.784,7.704H142.394
				L142.394,216.229z"/>
		</g>
	</g>
</g>
</svg>
