<?xml version="1.0" encoding="iso-8859-1"?>
<!-- Generator: Adobe Illustrator 23.0.1, SVG Export Plug-In . SVG Version: 6.00 Build 0)  -->
<svg version="1.1" xmlns="http://www.w3.org/2000/svg" xmlns:xlink="http://www.w3.org/1999/xlink" x="0px" y="0px"
	 viewBox="0 0 595.276 841.89" style="enable-background:new 0 0 595.276 841.89;" xml:space="preserve">
<g id="Grade" style="display:none;">
</g>
<g id="HQFL">
</g>
<g id="&#xC1;rea_de_trabalho">
</g>
<g id="Linhas-guia">
</g>
<g id="Page_1">
	<g id="HQFL_1_">
		<g>
			<path style="fill-rule:evenodd;clip-rule:evenodd;fill:#FFD600;" d="M295.929,138.749c151.201,0,274.681,123.479,274.681,274.68
				c0,151.453-123.481,274.931-274.681,274.931c-151.45,0-274.931-123.477-274.931-274.931
				C20.998,262.228,144.479,138.749,295.929,138.749L295.929,138.749z"/>
			<path style="fill-rule:evenodd;clip-rule:evenodd;fill:#EE3524;" d="M296.182,152.609c143.64,0,260.569,116.927,260.569,260.82
				c0,143.387-116.929,260.316-260.569,260.316S35.615,556.816,35.615,413.429C35.615,269.536,152.542,152.609,296.182,152.609
				L296.182,152.609z"/>
			<path style="fill-rule:evenodd;clip-rule:evenodd;fill:#FFD600;" d="M198.408,564.123l-27.47,43.85c0,0-0.755,3.024-0.755,3.779
				c0,1.764,6.553,6.3,8.063,7.059l-5.038,8.06c-11.341-6.046-21.923-14.615-32.761-22.425l5.042-8.316
				c1.764,1.008,6.046,4.785,8.063,4.535c1.008-0.252,2.269-1.008,3.278-2.772l26.458-42.841
				c-11.843-7.308-15.876-7.055-24.948-1.009l-3.025-9.07l17.64-12.35c16.885,11.088,31.247,19.656,52.668,27.471l-1.764,23.685
				h-11.341C215.542,569.415,206.973,566.899,198.408,564.123L198.408,564.123z"/>
			<path style="fill-rule:evenodd;clip-rule:evenodd;fill:#FFD600;" d="M461.745,556.313c-7.308,6.806-14.865,13.607-22.426,20.16
				c2.267,5.294,4.536,10.332,6.803,15.121c1.261,2.519,1.764,4.535,3.779,2.519c0,0,1.262-0.253,3.025-1.764
				c4.033,0,5.291,1.764,5.291,7.307c-8.565,7.308-15.877,13.859-24.192,18.396c-3.78-0.506-5.544-3.78-5.038-9.071
				c3.527-3.025,5.797-3.527,4.789-6.802c-6.806-17.644-13.861-35.03-20.918-52.924c-1.764-4.532-4.789,1.764-12.852-3.527
				c7.307-2.773,35.533-22.682,40.068-29.483c3.527,7.308-1.008,9.577,1.262,10.582c14.615,8.066,29.231,16.129,43.846,23.943
				c1.514,0.755,7.058,0,10.079-4.283c3.527-1.764,5.797-0.253,7.308,5.544c-8.063,9.324-16.126,20.915-24.441,27.72
				c-5.797,0-7.815-2.775-7.815-7.059c1.515-1.261,8.067-6.805,5.797-8.569C471.828,560.596,468.298,558.327,461.745,556.313
				L461.745,556.313z"/>
			<path style="fill-rule:evenodd;clip-rule:evenodd;fill:#FFD600;" d="M269.973,627.629c-10.582-1.764-21.67-3.527-32.758-5.291
				c-2.27,4.029-4.536,8.063-7.058,12.093c-1.763,3.024-2.519,4.539,0.759,5.042c0,0,0.755,0.755,3.527,1.261
				c3.527,5.291,2.519,8.312-2.519,10.582c-12.096-2.27-22.429-6.3-31.5-11.088c-2.269-3.021-1.008-6.046,3.527-8.565
				c4.536,1.258,6.802,2.519,8.818-0.253c10.333-18.143,20.665-36.039,30.745-54.182c3.274-5.291-3.275-5.038-5.797-13.606
				c7.814,2.265,38.052,7.307,46.621,7.809c-4.033,5.042-9.324,3.527-8.316,8.319c5.544,21.67,10.835,43.09,16.379,64.763
				c1.008,2.52,2.522,5.797,8.315,5.291c3.277,3.274,3.527,6.802,0.253,9.826c-12.851,0.756-23.939,1.515-36.289-1.509
				c-3.78-4.283-3.527-8.317,0.506-11.844c2.266,0.502,9.324,2.769,9.324-0.506C274.512,639.725,272.998,634.182,269.973,627.629
				L269.973,627.629z"/>
			<path style="fill-rule:evenodd;clip-rule:evenodd;fill:#FFD600;" d="M338.77,644.008c13.609-1.511,24.947-6.05,27.47-21.42
				c1.764,1.261,3.776,2.27,5.794,3.53l-4.03,22.928c-18.901,7.058-38.052,10.336-56.954,10.585
				c-2.771-2.771-1.261-5.543,0.254-6.552c1.258-1.258,7.055-3.274,7.055-5.797c0-0.503,0.506-2.515,0.506-4.03
				c-2.017-17.893-4.287-35.782-6.553-53.426c-0.506-4.532-1.008-7.811-4.033-7.811c-1.763,0-4.535-0.755-6.805-0.755
				c-5.038-3.274-5.038-6.05-1.258-8.569c13.104-0.249,22.931-1.261,36.288-3.779c4.536,2.016,5.291,5.041,2.267,8.821
				c-1.764,0.755-3.527,1.511-5.039,1.763c-2.771,0.755-3.779,2.773-3.277,6.046L338.77,644.008L338.77,644.008z"/>
			<path style="fill-rule:evenodd;clip-rule:evenodd;fill:#FFD600;" d="M360.946,573.448c-5.545-2.769-5.545-5.797-4.283-8.565
				c11.088-3.527,22.176-8.066,33.011-13.105c3.527,0.756,4.788,3.78,4.286,8.565c-3.025,1.261-6.303,7.058-5.295,9.577
				c5.042,12.852,14.869,31.5,21.674,45.613c2.52,5.291,4.789,3.024,9.577,0.755c4.282,0.506,5.544,3.024,4.282,8.569
				c-10.834,6.805-22.176,12.096-33.01,15.876c-4.536-1.009-6.303-4.033-4.033-8.569c4.535-2.266,8.315-3.025,6.046-8.315
				c-6.802-14.868-16.882-34.273-21.923-47.879C370.017,572.19,364.474,572.19,360.946,573.448L360.946,573.448z"/>
			<path style="fill-rule:evenodd;clip-rule:evenodd;fill:#ED1C24;" d="M267.454,616.289c-2.772-9.83-5.797-19.151-8.818-29.231
				c-5.041,8.565-10.079,16.885-15.374,24.944C251.578,613.516,259.644,615.031,267.454,616.289L267.454,616.289z"/>
			<path style="fill-rule:evenodd;clip-rule:evenodd;fill:#FFD600;" d="M296.182,168.737c107.102,0,194.543,87.192,194.543,194.544
				c0,107.102-87.441,194.544-194.543,194.544c-107.099,0-194.544-87.442-194.544-194.544
				C101.638,255.929,189.084,168.737,296.182,168.737L296.182,168.737z"/>
			<path style="fill-rule:evenodd;clip-rule:evenodd;fill:#FFFFFF;" d="M295.68,181.841c100.044,0,181.692,81.648,181.692,181.944
				c0,100.042-81.649,181.69-181.692,181.69c-100.297,0-181.692-81.649-181.692-181.69
				C113.988,263.489,195.383,181.841,295.68,181.841L295.68,181.841z"/>
			<path style="fill-rule:evenodd;clip-rule:evenodd;fill:#FFD600;" d="M296.182,537.665
				c-62.747-51.156-108.613-115.92-101.301-213.696c38.301-0.504,72.573-9.324,101.301-38.808
				c28.475,29.483,62.747,38.304,101.052,38.808C404.542,421.745,358.68,486.508,296.182,537.665L296.182,537.665z"/>
			<path style="fill-rule:evenodd;clip-rule:evenodd;fill:#00813E;" d="M205.968,358.492l-0.506-16.379l0.253-6.552
				c31.753-1.764,66.274-11.843,89.964-34.019c23.686,22.176,58.212,32.255,89.712,34.019
				c1.51,52.165-13.357,101.052-46.115,142.129c-13.357,15.873-28.227,30.741-43.597,44.604
				c-26.462-23.436-49.393-48.132-66.278-79.382C215.795,414.941,208.488,389.237,205.968,358.492L205.968,358.492z"/>
			<polygon style="fill-rule:evenodd;clip-rule:evenodd;fill:#FFD600;" points="401.268,304.816 448.894,306.582 452.927,320.945 
				412.608,346.649 408.828,332.536 416.638,327.749 413.364,316.157 404.289,315.653 401.268,304.816 			"/>
			<path style="fill-rule:evenodd;clip-rule:evenodd;fill:#FFD600;" d="M402.778,240.556l16.632,17.136
				c1.763,2.017,3.278,4.285,4.033,5.797c0.755,1.764,1.511,4.032,1.764,5.544c0,1.764-0.253,3.78-1.009,5.291
				c-0.755,1.764-2.016,3.529-3.527,5.041c-1.514,1.764-4.033,3.023-6.299,3.274c-2.523,0.757-5.041,0.253-8.067-1.008l-8.063,19.91
				l-11.088-11.341l7.812-17.136l-2.521-3.023l-12.851,12.348l-9.827-10.08L402.778,240.556L402.778,240.556z"/>
			<polygon style="fill-rule:evenodd;clip-rule:evenodd;fill:#FFD600;" points="346.331,257.441 362.962,227.201 354.646,222.412 
				359.937,212.837 388.163,228.462 382.872,238.036 374.556,233.753 358.174,263.992 346.331,257.441 			"/>
			<path style="fill-rule:evenodd;clip-rule:evenodd;fill:#FFD600;" d="M295.68,232.241l12.851-1.007
				c0,2.015,1.009,3.527,2.518,4.535c1.512,1.008,3.279,2.015,5.291,2.266c1.262,0,2.773,0,3.531-0.251
				c1.258-0.756,2.013-1.26,2.013-2.015c0.252-1.261-2.267-3.529-7.309-5.041c-5.037-1.764-9.07-4.031-11.843-6.046
				c-2.519-2.521-3.275-6.805-2.267-11.845c0.25-2.771,1.764-5.292,3.777-6.552c2.017-1.764,4.539-3.023,7.311-3.779
				c3.021-0.757,6.047-1.008,9.072-0.757c3.779,0.504,7.561,2.015,10.582,4.032c3.277,2.269,5.041,5.544,6.303,9.577l-11.848,2.015
				c0-1.513-1.258-2.773-2.519-3.527c-1.009-1.009-2.519-1.764-4.282-1.764c-1.262-0.253-2.523,0-3.781,0.251
				c-0.755,0.504-1.514,0.755-1.514,1.764c0,1.261,0.759,2.52,3.025,3.276c2.519,1.008,5.543,2.017,9.07,3.276
				c3.025,1.008,5.797,3.025,7.814,5.293c2.016,2.268,3.025,5.795,2.519,9.829c-0.253,3.275-1.511,6.047-3.527,8.063
				c-2.27,1.764-5.042,3.276-8.315,4.033c-3.025,0.755-6.553,1.007-9.827,0.502c-5.042-0.502-9.577-2.268-12.855-5.039
				C297.444,240.556,295.929,236.778,295.68,232.241L295.68,232.241z"/>
			<polygon style="fill-rule:evenodd;clip-rule:evenodd;fill:#FFD600;" points="256.114,253.41 243.768,209.814 276.526,200.741 
				279.298,210.316 259.644,215.86 261.657,222.412 277.534,217.877 280.056,227.705 264.429,232.241 266.446,239.297 
				285.85,233.753 288.875,244.086 256.114,253.41 			"/>
			<polygon style="fill-rule:evenodd;clip-rule:evenodd;fill:#FFD600;" points="223.609,270.797 199.416,232.241 211.512,224.933 
				229.908,254.165 245.026,244.841 250.57,254.165 223.609,270.797 			"/>
			<polygon style="fill-rule:evenodd;clip-rule:evenodd;fill:#FFD600;" points="190.847,306.582 165.144,266.261 174.718,254.921 
				218.82,273.316 209.496,284.153 200.927,280.626 193.114,289.948 198.155,297.509 190.847,306.582 			"/>
			<path style="fill-rule:evenodd;clip-rule:evenodd;fill:#FFD600;" d="M180.262,342.113l-44.099-12.096l5.038-19.151
				c1.514-5.797,4.033-10.333,7.311-12.349c3.274-2.268,7.307-2.772,12.096-1.764c2.772,0.755,5.544,2.268,7.055,4.032
				c1.511,2.017,2.519,4.284,2.772,6.803c0.502,2.269,0.502,5.041-0.253,7.309l-2.266,9.071l15.873,4.285L180.262,342.113
				L180.262,342.113z"/>
			<path style="fill-rule:evenodd;clip-rule:evenodd;fill:#FFD600;" d="M166.152,375.881c-3.531,39.061,7.055,77.617,28.222,108.611
				c2.017,2.775-1.511,4.788-3.274,2.269c-21.421-25.45-39.314-65.269-40.824-110.881
				C149.77,358.745,167.41,358.998,166.152,375.881L166.152,375.881z"/>
			<path style="fill-rule:evenodd;clip-rule:evenodd;fill:#FFD600;" d="M425.962,375.881c3.278,39.061-7.055,77.617-28.475,108.611
				c-2.017,2.775,1.511,4.788,3.527,2.269c21.168-25.45,39.06-65.269,40.571-110.881
				C442.341,358.745,424.452,358.998,425.962,375.881L425.962,375.881z"/>
			<path style="fill-rule:evenodd;clip-rule:evenodd;fill:#FFD600;" d="M505.092,294.737c5.544,0,9.827,4.285,9.827,9.577
				c0,5.291-4.283,9.827-9.827,9.827c-5.294,0-9.577-4.535-9.577-9.827C495.515,299.021,499.798,294.737,505.092,294.737
				L505.092,294.737z"/>
			<path style="fill-rule:evenodd;clip-rule:evenodd;fill:#FFD600;" d="M515.171,332.536c6.047,0,10.836,5.042,10.836,11.09
				c0,6.048-4.789,10.837-10.836,10.837c-6.049,0-11.088-4.789-11.088-10.837C504.083,337.577,509.122,332.536,515.171,332.536
				L515.171,332.536z"/>
			<path style="fill-rule:evenodd;clip-rule:evenodd;fill:#FFD600;" d="M518.952,372.1c6.801,0,12.597,5.797,12.597,12.601
				c0,6.805-5.797,12.601-12.597,12.601c-6.806,0-12.603-5.795-12.603-12.601C506.35,377.897,512.146,372.1,518.952,372.1
				L518.952,372.1z"/>
			<path style="fill-rule:evenodd;clip-rule:evenodd;fill:#FFD600;" d="M515.927,417.965c7.561,0,13.859,6.048,13.859,13.608
				c0,7.559-6.299,13.859-13.859,13.859c-7.561,0-13.859-6.3-13.859-13.859C502.067,424.012,508.366,417.965,515.927,417.965
				L515.927,417.965z"/>
			<path style="fill-rule:evenodd;clip-rule:evenodd;fill:#FFD600;" d="M85.511,294.737c-5.293,0-9.576,4.285-9.576,9.577
				c0,5.291,4.283,9.827,9.576,9.827c5.544,0,9.828-4.535,9.828-9.827C95.339,299.021,91.055,294.737,85.511,294.737L85.511,294.737
				z"/>
			<path style="fill-rule:evenodd;clip-rule:evenodd;fill:#FFD600;" d="M75.682,332.536c-6.046,0-11.088,5.042-11.088,11.09
				c0,6.048,5.041,10.837,11.088,10.837c6.05,0,10.837-4.789,10.837-10.837C86.519,337.577,81.732,332.536,75.682,332.536
				L75.682,332.536z"/>
			<path style="fill-rule:evenodd;clip-rule:evenodd;fill:#FFD600;" d="M71.651,372.1c-6.803,0-12.347,5.797-12.347,12.601
				c0,6.805,5.544,12.601,12.347,12.601c7.057,0,12.601-5.795,12.601-12.601C84.251,377.897,78.707,372.1,71.651,372.1L71.651,372.1
				z"/>
			<path style="fill-rule:evenodd;clip-rule:evenodd;fill:#FFD600;" d="M74.674,417.965c-7.559,0-13.607,6.048-13.607,13.608
				c0,7.559,6.048,13.859,13.607,13.859c7.561,0,13.86-6.3,13.86-13.859C88.534,424.012,82.235,417.965,74.674,417.965
				L74.674,417.965z"/>
			<path style="fill-rule:evenodd;clip-rule:evenodd;fill:#FFD600;" d="M128.35,503.393c2.017-1.763,4.033-4.033,6.05-5.797
				c7.81,9.071,17.89,17.892,27.973,27.467c-2.27,1.764-5.544,4.286-7.561,6.303c-1.008-1.262-2.017-2.523-3.025-3.277
				c-1.008-1.512-3.274-2.267-4.033-2.267c-1.008,0-2.519,0.755-3.527,1.511c-10.332,9.577-20.915,19.154-31.5,28.225
				c-1.008,1.258-2.017,2.769-1.763,3.527c0,0.755,0.755,2.519,2.519,4.033c0.759,1.005,1.764,2.013,2.772,3.274
				c-2.266,1.764-5.793,4.033-8.063,6.299c-9.577-9.07-16.885-19.151-22.931-29.483c2.017-2.017,5.795-4.789,7.81-6.553
				c1.261,1.008,3.025,3.025,3.531,3.527c0.502,0.759,3.274,2.523,4.03,2.523c0.506,0,4.033-1.515,4.535-2.017
				c10.333-9.071,17.391-16.885,27.217-25.453c0.755-0.756,2.017-2.773,2.017-4.03c-0.253-1.012-1.261-2.017-2.519-3.78
				C130.872,505.913,129.611,504.651,128.35,503.393L128.35,503.393z"/>
			<path style="fill-rule:evenodd;clip-rule:evenodd;fill:#FFFFFF;" d="M261.155,357.234v84.417
				c-14.615-1.007-20.412,9.577-12.096,13.863c2.017,1.258,8.316-2.269,11.088-2.269c0,0,4.789,0.756,4.535,2.269
				c-2.266,7.561-0.502,17.135,12.602,19.401c5.544,0.759,11.337-4.283,10.835-10.076c-0.506-4.539-6.299-8.822-12.851-7.308
				v-40.068c8.063,5.29,19.906,11.087,29.736,11.339c23.687,0.755,49.14-14.364,49.39-42.084
				c0.506-27.217-19.151-42.588-39.817-46.621c-12.346-2.268-28.977,2.52-37.799,10.585c-4.033-4.789-8.818-4.033-12.349-1.009
				c-6.299-5.293-21.67-4.033-18.645,6.047C248.303,363.785,256.366,360.509,261.155,357.234L261.155,357.234z"/>
			<polygon style="fill-rule:evenodd;clip-rule:evenodd;fill:#FFFFFF;" points="425.46,322.962 437.304,316.157 423.696,315.653 
				425.46,322.962 			"/>
			<polygon style="fill-rule:evenodd;clip-rule:evenodd;fill:#FFFFFF;" points="191.603,276.088 179.507,270.544 187.32,281.632 
				191.603,276.088 			"/>
			<path style="fill-rule:evenodd;clip-rule:evenodd;fill:#FFFFFF;" d="M158.592,321.448l1.258-5.291
				c0.506-1.513,0.253-2.772-0.249-3.78c-0.506-1.26-1.767-2.017-2.772-2.519c-1.261-0.253-2.523,0-3.531,0.755
				c-0.755,0.504-1.764,1.763-2.013,3.276l-1.514,5.293L158.592,321.448L158.592,321.448z"/>
			<path style="fill-rule:evenodd;clip-rule:evenodd;fill:#FFFFFF;" d="M405.55,257.441l-6.299,6.048l4.535,4.789
				c1.009,1.007,2.27,1.764,3.527,1.764c1.009,0.251,2.27-0.253,3.025-1.008c0.756-0.755,1.511-2.017,1.511-3.025
				c0-1.26-1.009-2.772-1.764-4.031L405.55,257.441L405.55,257.441z"/>
			<path style="fill-rule:evenodd;clip-rule:evenodd;fill:#ED1C24;" d="M452.425,551.525c-7.561-3.78-14.869-7.561-22.682-11.341
				c2.016,8.818,3.779,17.391,5.797,26.209C441.083,561.355,446.88,556.563,452.425,551.525L452.425,551.525z"/>
			<path style="fill-rule:evenodd;clip-rule:evenodd;fill:#EE3524;" d="M286.609,370.086c2.013-12.601,13.607-12.851,20.662,2.772
				c1.764-3.276,5.041-6.048,7.813-5.797c3.527,0.253,9.072,4.536,8.063,8.065c-2.267,6.048-12.599-2.017-12.599,8.567v56.197
				c0,13.103,6.047,12.849,6.047,19.152c0,2.771-4.789,5.544-7.055,4.033c-4.033-2.775-5.797-8.066-5.545-13.863
				c-6.049,5.797-10.838,5.291-13.859-1.005c3.527-0.506,9.574-3.278,9.574-9.326v-60.479
				C299.71,366.053,292.655,366.305,286.609,370.086L286.609,370.086z"/>
			<path style="fill-rule:evenodd;clip-rule:evenodd;fill:#00813E;" d="M275.268,403.6v-39.311
				c7.561-8.063,19.151-15.877,29.736-15.624c19.653,1.008,35.28,14.868,34.273,36.289c-0.506,19.151-13.357,30.743-28.729,32.002
				v-33.264c0-10.583,10.332-2.519,12.599-8.567c1.009-3.529-4.536-7.812-8.063-8.065c-2.772-0.251-6.049,2.521-7.813,5.797
				c-7.055-15.623-18.649-15.373-20.662-2.772c6.046-3.78,13.101-4.033,13.101,8.316v37.799
				C290.638,414.184,280.812,409.397,275.268,403.6L275.268,403.6z"/>
		</g>
	</g>
</g>
</svg>
