<?xml version="1.0" encoding="iso-8859-1"?>
<!-- Generator: Adobe Illustrator 23.0.1, SVG Export Plug-In . SVG Version: 6.00 Build 0)  -->
<svg version="1.1" xmlns="http://www.w3.org/2000/svg" xmlns:xlink="http://www.w3.org/1999/xlink" x="0px" y="0px"
	 viewBox="0 0 595.276 841.89" style="enable-background:new 0 0 595.276 841.89;" xml:space="preserve">
<g id="Grade" style="display:none;">
</g>
<g id="HQFL">
</g>
<g id="&#xC1;rea_de_trabalho">
</g>
<g id="Linhas-guia">
</g>
<g id="Page_1">
	<g id="HQFL_1_">
		<g>
			<g>
				<path style="fill-rule:evenodd;clip-rule:evenodd;" d="M280.066,687.189l-6.552-3.905l-6.93-3.527l-7.182-3.402l-7.559-3.025
					l-7.812-2.896l-7.938-2.648l-16.632-4.913c-17.64-4.789-35.28-9.071-52.794-13.733l-17.893-5.166l-8.82-2.898l-8.694-3.023
					l-8.694-3.402l-8.442-3.654l-8.316-3.906l-8.19-4.409l-7.938-4.662l-7.686-5.166l-7.434-5.671l-7.056-6.173l-6.678-6.805
					l-6.427-7.309l-5.922-7.811l-5.544-8.568l-5.04-9.198l-4.537-9.953l-3.654-9.701l-3.024-9.702l-2.268-9.451l-1.512-9.45
					l-0.882-9.322l-0.378-9.073l0.252-9.071l0.882-8.82l1.134-8.82l1.764-8.568l2.017-8.316l2.393-8.315l2.646-8.19l2.898-8.065
					l3.151-7.938l6.678-15.371c6.678-14.49,13.734-28.727,20.412-43.092l5.796-13.231l2.52-6.552l2.268-6.173l1.89-6.175
					l1.511-6.048l1.134-5.795c1.26-10.71,2.017-21.674,1.512-32.509c-0.252-3.906-0.756-7.686-1.386-11.592
					c-0.629-3.149-1.512-6.175-2.394-9.198c-0.882-2.394-1.764-4.789-2.772-7.056c-1.26-2.521-2.52-4.915-3.779-7.183
					c-1.638-2.519-3.15-5.039-4.914-7.434c-2.898-3.906-5.923-7.434-9.072-11.088l78.624-80.765
					c5.544,3.276,11.214,6.426,16.884,9.575c6.047,3.15,12.222,6.299,18.522,9.324c6.299,2.898,12.6,5.67,19.026,8.442
					c6.426,2.519,12.726,4.913,19.278,7.308c6.3,2.142,12.726,4.158,19.153,6.048c6.299,1.638,12.6,3.276,19.026,4.536
					c4.662,1.008,9.198,1.763,13.86,2.52c4.536,0.629,9.071,1.133,13.608,1.511c4.41,0.253,8.694,0.504,13.103,0.504
					c4.158,0,8.568-0.251,12.979-0.504c4.536-0.378,8.944-1.008,13.48-1.637c4.662-0.757,9.324-1.512,13.986-2.521
					c6.426-1.386,12.601-3.023,18.901-4.787c6.553-1.89,12.851-4.033,19.277-6.174c6.426-2.395,12.851-4.914,19.15-7.561
					c6.426-2.646,12.728-5.544,19.028-8.441c6.3-3.151,12.472-6.301,18.647-9.451c5.546-3.149,11.215-6.299,16.759-9.575
					l80.136,79.379l-7.434,8.442c-1.89,2.394-3.654,4.788-5.291,7.308c-1.512,2.394-2.898,4.788-4.159,7.307
					c-1.26,2.394-2.267,4.788-3.274,7.183c-0.882,2.395-1.639,4.789-2.395,7.308c-1.008,4.031-1.765,7.938-2.267,12.096
					c-0.504,4.032-0.756,8.065-0.882,12.222c0,6.552,0.378,13.229,0.755,19.782l0.629,5.795l1.135,5.797l1.513,5.922l1.89,6.174
					l2.142,6.299l5.417,12.978c6.301,14.238,13.232,28.099,19.909,42.21l6.929,15.119l3.278,7.813l3.023,7.936l3.023,8.064
					l2.646,8.19l2.396,8.316l2.015,8.315l1.765,8.695l1.134,8.694l0.882,8.946l0.251,8.944l-0.376,9.198l-0.884,9.324l-1.513,9.324
					l-2.266,9.575l-2.898,9.703l-3.78,9.702l-4.536,9.827l-5.041,9.199l-5.544,8.567l-5.922,7.939l-6.299,7.307l-6.804,6.68
					l-7.059,6.172l-7.432,5.671l-7.686,5.293l-7.939,4.662l-8.063,4.409l-8.315,3.906l-8.569,3.654l-8.693,3.4l-8.694,3.025
					l-17.766,5.544c-14.742,4.157-29.61,8.065-44.352,11.843c-8.569,2.269-17.137,4.662-25.703,7.184l-8.191,2.519l-8.065,2.773
					l-7.81,2.898l-7.434,3.15l-7.309,3.402l-6.804,3.653l-6.679,3.907l-8.946,6.3L280.066,687.189L280.066,687.189z"/>
			</g>
			<path style="fill-rule:evenodd;clip-rule:evenodd;fill:#FFFFFF;" d="M263.307,667.281l-7.937-3.15l-8.065-3.023l-8.19-2.772
				l-17.01-5.04c-17.64-4.789-35.279-9.073-52.794-13.735l-17.514-5.166l-8.694-2.772l-8.442-2.897l-8.316-3.276l-8.19-3.402
				l-7.938-3.78l-7.685-4.158l-7.561-4.535l-7.182-4.789l-6.93-5.291l-6.552-5.797l-6.299-6.173l-5.922-6.805l-5.418-7.308
				l-5.166-7.938l-4.662-8.693l-4.285-9.198l-3.527-9.197l-2.772-8.946l-2.142-8.947l-1.386-8.693l-0.882-8.693l-0.252-8.442
				l0.252-8.442l0.755-8.316l1.134-8.315l1.638-8.063l1.89-7.938l2.269-7.938l2.645-7.939l2.772-7.685l6.174-15.246l6.805-14.868
				c5.67-11.971,11.466-23.815,17.01-35.658c3.024-6.805,5.922-13.482,8.568-20.412l2.394-6.679l2.017-6.553l1.638-6.552l1.26-6.426
				l0.882-8.945c0.631-7.686,1.009-15.246,0.757-23.059c-0.126-3.401-0.378-6.803-0.757-10.206
				c-0.504-3.654-1.259-7.055-2.015-10.458c-0.757-2.771-1.638-5.417-2.52-8.065c-1.134-2.646-2.268-5.291-3.528-7.936
				c-1.511-2.772-3.024-5.546-4.662-8.192c-2.268-3.527-4.788-6.93-7.434-10.331l67.032-68.67
				c15.75,9.071,32.13,17.01,48.888,24.066c6.552,2.645,13.104,5.039,19.782,7.434c4.914,1.637,9.828,3.277,14.868,4.787
				c6.552,1.89,12.978,3.655,19.656,5.166c4.914,1.135,9.702,2.017,14.616,2.898c4.789,0.755,9.45,1.386,14.238,1.89
				c4.787,0.504,9.324,0.755,13.985,0.882c4.662,0.126,9.072,0,13.734-0.126c4.662-0.378,9.451-0.755,14.113-1.26
				c4.913-0.755,9.7-1.512,14.488-2.394c4.916-1.008,9.704-2.141,14.617-3.276c4.914-1.26,9.955-2.645,14.867-4.158
				c8.315-2.646,16.507-5.544,24.697-8.567l9.827-4.033c16.759-7.181,33.138-15.119,48.888-24.19l68.168,67.409
				c-2.772,3.15-5.168,6.426-7.434,9.828c-1.764,2.772-3.278,5.418-4.788,8.189c-1.262,2.773-2.52,5.42-3.654,8.191
				c-0.882,2.772-1.764,5.418-2.646,8.19c-0.882,3.527-1.639,7.181-2.269,10.835c-0.378,3.529-0.755,7.057-1.009,10.586
				c-0.251,7.055-0.124,13.985,0.254,21.041l0.377,5.166l0.631,6.299l1.26,6.553l1.639,6.426l2.015,6.679l2.395,6.552l5.417,13.482
				c6.426,14.364,13.357,28.351,20.161,42.588l6.677,14.868l6.302,15.246l2.771,7.811l2.646,7.812l2.267,7.938l1.891,7.938
				l1.637,8.19l1.135,8.189l0.756,8.317l0.253,8.44l-0.253,8.569l-0.882,8.567l-1.384,8.819l-2.144,8.82l-2.772,9.073l-3.527,9.071
				l-4.159,9.324l-4.787,8.567l-5.04,7.938l-5.543,7.434l-5.924,6.679l-6.299,6.299l-6.553,5.671l-6.93,5.292l-7.182,4.914
				l-7.434,4.535l-7.813,4.031l-7.938,3.781l-8.191,3.528l-8.317,3.277l-8.441,3.023l-17.388,5.417
				c-14.615,4.158-29.356,7.939-44.099,11.719c-8.695,2.267-17.389,4.662-26.082,7.182l-8.443,2.646l-8.19,2.898l-8.064,3.023
				l-7.938,3.277l-7.686,3.527l-7.309,3.906l-7.055,4.285l-3.78,2.644l-3.78-2.644l-7.055-4.158l-7.309-3.78L263.307,667.281
				L263.307,667.281z"/>
			<polygon style="fill-rule:evenodd;clip-rule:evenodd;" points="289.263,401.801 334.245,365.134 334.245,663.25 289.263,685.551 
				289.263,401.801 			"/>
			<polygon style="fill-rule:evenodd;clip-rule:evenodd;" points="378.472,330.485 423.958,293.818 423.327,639.057 
				378.472,652.287 378.472,330.485 			"/>
			<path style="fill-rule:evenodd;clip-rule:evenodd;" d="M468.561,262.696l45.108-36.793
				c-39.94,50.526-24.316,100.675-0.631,150.697l-0.502,214.451l-43.975,32.76V262.696L468.561,262.696z"/>
			<polygon style="fill-rule:evenodd;clip-rule:evenodd;" points="110.344,537.375 154.947,502.977 154.947,641.074 
				110.344,623.433 110.344,537.375 			"/>
			<polygon style="fill-rule:evenodd;clip-rule:evenodd;" points="199.552,468.454 244.03,434.182 244.03,664.131 199.552,651.657 
				199.552,468.454 			"/>
			<polygon style="fill-rule:evenodd;clip-rule:evenodd;" points="433.913,260.679 413.374,196.671 421.186,190.498 
				477.759,226.281 470.577,231.951 454.198,221.117 434.542,236.74 440.841,255.262 433.913,260.679 			"/>
			<path style="fill-rule:evenodd;clip-rule:evenodd;" d="M393.718,292.432l-39.061-49.518l22.428-17.641
				c2.519-2.143,5.04-3.402,7.813-3.906c3.023-0.378,5.795-0.251,8.566,0.755c2.396,1.009,4.789,2.772,6.68,5.166
				c1.261,1.512,2.269,3.151,2.771,5.166c0.756,1.639,0.756,3.402,0.756,5.04c-0.377,1.89-0.756,3.276-1.638,5.039
				c3.151-1.133,6.679-1.511,9.828-1.006c3.023,0.377,5.544,2.015,7.812,4.914c2.394,3.149,4.033,6.426,4.662,10.206
				c0.378,3.276,0,6.679-1.386,9.828c-1.259,2.896-3.528,5.795-6.301,7.811L393.718,292.432L393.718,292.432z"/>
			<polygon style="fill-rule:evenodd;clip-rule:evenodd;" points="345.963,329.98 325.3,265.846 333.111,259.798 389.811,295.582 
				382.503,301.126 366.375,290.416 346.468,306.039 352.767,324.561 345.963,329.98 			"/>
			<path style="fill-rule:evenodd;clip-rule:evenodd;" d="M280.695,342.075c0,0-0.378-0.378-0.63-0.629
				c-0.125-0.378-0.377-0.504-0.504-0.757c-3.15-4.032-5.418-8.441-6.93-13.48c-1.26-5.042-1.26-10.082,0.252-15.246
				c1.512-5.166,4.788-9.828,10.079-14.49c2.521-2.268,5.923-3.907,9.702-5.419c3.654-1.259,7.56-1.888,11.718-1.259
				c4.158,0.757,8.442,2.772,12.221,6.174l-6.677,5.166c-3.403-2.647-7.308-3.907-10.964-3.78c-3.527,0.251-7.431,1.89-10.456,4.535
				c-0.63,0.127-1.135,0.756-1.89,1.639c-0.882,0.755-1.512,1.511-1.89,1.888c-2.142,2.144-3.528,5.293-4.284,8.695
				c-0.503,3.023-0.378,6.677,0.756,10.206c1.134,3.527,3.15,6.93,5.922,10.458c2.773,3.654,5.671,6.426,8.442,8.316
				c3.025,2.017,5.797,3.529,8.568,4.031c2.773,0.631,5.165,0.631,7.56,0c2.648-0.629,4.913-1.637,6.93-3.275v-0.379l0.126-0.252
				c4.536-3.529,6.93-7.434,7.688-11.97c0.756-4.285-0.253-8.947-3.025-13.735l6.68-5.291c2.519,4.158,4.156,8.189,4.535,12.725
				c0.378,4.158-0.253,8.695-1.891,12.727c-1.89,4.158-4.788,7.812-8.568,11.214c-3.906,2.896-7.811,4.913-11.717,5.922
				c-3.906,0.882-7.94,1.133-11.341,0c-3.653-0.757-7.434-2.394-10.584-4.789C287.121,348.754,283.846,345.73,280.695,342.075
				L280.695,342.075z"/>
			<polygon style="fill-rule:evenodd;clip-rule:evenodd;" points="253.984,322.167 292.792,371.811 286.491,376.726 
				247.432,327.209 253.984,322.167 			"/>
			<path style="fill-rule:evenodd;clip-rule:evenodd;" d="M215.68,393.358c0,0-0.252-0.631-0.378-0.757
				c-0.379-0.378-0.504-0.629-0.756-0.756c-3.151-3.906-5.418-8.567-6.805-13.356c-1.386-5.293-1.386-10.206,0.126-15.246
				c1.512-5.419,4.787-10.079,10.079-14.741c2.52-2.017,6.049-3.654,9.829-5.293c3.654-1.386,7.559-1.763,11.717-1.386
				c4.158,0.755,8.442,2.771,12.222,6.174l-6.551,5.418c-3.528-2.772-7.182-4.158-11.088-3.907
				c-3.528,0.126-7.309,1.765-10.585,4.411c-0.63,0.378-1.134,0.756-1.638,1.638c-1.134,0.757-1.764,1.512-2.142,1.89
				c-2.017,2.394-3.276,5.419-4.284,8.695c-0.505,3.15-0.378,6.677,0.756,10.206c1.134,3.527,3.15,6.93,5.922,10.458
				c3.024,3.78,5.796,6.552,8.568,8.316c3.024,2.142,5.796,3.527,8.568,4.158c2.772,0.504,5.166,0.504,7.812,0
				c2.394-0.756,4.662-1.638,6.678-3.403V395.5l0.252-0.127c4.41-3.4,7.056-7.434,7.685-12.094c0.631-4.285-0.251-8.947-3.15-13.735
				l6.678-5.166c2.646,4.033,4.158,8.191,4.537,12.6c0.503,4.285,0,8.694-1.89,12.978c-1.89,4.158-4.662,7.687-8.568,10.961
				c-3.906,3.151-7.561,5.042-11.719,5.924c-3.906,1.008-7.686,1.133-11.213,0.251c-3.78-1.008-7.434-2.645-10.71-4.913
				C222.358,399.784,218.829,396.886,215.68,393.358L215.68,393.358z"/>
			<polygon style="fill-rule:evenodd;clip-rule:evenodd;" points="189.094,453.459 168.682,389.451 176.242,383.278 
				232.942,418.936 225.634,424.731 209.506,413.895 189.849,429.52 196.024,448.042 189.094,453.459 			"/>
			<path style="fill-rule:evenodd;clip-rule:evenodd;" d="M146.254,487.227l-39.061-49.518l23.563-18.522
				c3.024-2.521,5.796-3.907,9.071-4.914c3.276-0.504,6.427-0.504,9.324,0.378c3.15,1.008,5.922,2.772,8.19,5.795
				c4.283,5.419,5.039,10.964,2.645,16.758c2.017-1.009,4.284-1.009,6.048-0.252c2.142,0.756,3.906,2.016,5.418,3.527
				c1.638,1.64,3.78,4.032,5.921,7.057c2.269,2.394,3.78,4.285,5.293,5.418c1.26,1.135,2.772,1.26,4.031,0.757l0.757,1.133
				l-7.812,5.922c-1.89-1.133-4.285-3.277-7.057-6.677c-2.646-3.151-4.788-5.671-6.173-6.93c-1.134-1.513-3.151-2.269-5.292-2.394
				c-2.143-0.504-4.914,0.755-7.686,3.023l-17.262,13.355l16.506,21.043L146.254,487.227L146.254,487.227z"/>
			<polygon style="fill-rule:evenodd;clip-rule:evenodd;" points="96.987,445.648 136.048,495.166 129.622,500.206 90.436,450.688 
				96.987,445.648 			"/>
			<path style="fill-rule:evenodd;clip-rule:evenodd;" d="M75.064,509.026l16.506,21.042l-6.426,5.04l-39.061-49.645l22.05-17.262
				c2.898-2.269,6.173-3.654,8.945-4.285c3.403-0.502,6.3-0.125,9.072,0.758c3.024,1.259,5.67,3.15,7.686,5.921
				c2.016,2.394,3.15,5.293,3.906,8.442c0.756,2.898,0.505,5.671-0.629,9.071c-0.882,3.149-3.151,6.175-6.426,8.694L75.064,509.026
				L75.064,509.026z"/>
			<g>
				<path style="fill-rule:evenodd;clip-rule:evenodd;" d="M129.243,296.968c0,0-0.378,0.378-0.378,0.63c0,0.251,0,0.629,0,1.007
					c0,0.757,0.378,1.135,1.134,1.513c0.757,0.378,2.268,0.504,4.158,0.504v10.206h-26.46v-10.206h2.268
					c3.024,0,5.544-1.26,7.056-4.031h0.378l14.112-25.452l-12.978-28.477c-0.755-1.638-1.889-3.15-2.646-3.654
					c-1.134-0.377-2.142-0.755-3.654-0.755c-0.378,0-0.378,0-0.756,0c-0.378,0-0.756,0-0.756,0v-10.206h29.484v10.206
					c-1.638,0-2.772,0.378-3.528,0.755c-0.63,0.378-1.009,0.882-1.009,1.638c0,0,0,0.379,0,0.757s0.379,0.755,0.379,1.133
					l5.669,11.972l6.3-11.972c0-0.377,0-0.755,0.377-1.133c0-0.378,0-0.378,0-0.757c0-0.756-0.377-1.26-1.134-1.638
					c-0.63-0.377-1.764-0.755-3.276-0.755v-10.206h24.444v10.206c-0.252,0-0.63,0-1.008,0c-0.378,0-0.378,0-0.755,0
					c-1.513,0-2.646,0-3.78,0.755c-0.756,0.378-1.763,1.638-2.898,3.654l-13.103,22.806l14.489,31.122
					c0.756,1.259,1.89,2.772,2.646,3.527c1.134,0.504,2.646,0.882,4.158,0.882c0.252,0,0.63,0,1.008,0c0,0,0.378-0.378,0.756-0.378
					v10.206h-32.13v-10.206c2.394,0,4.284,0,5.04-0.126c1.134-0.378,1.513-1.133,1.513-1.89c0-0.378,0-1.007-0.378-1.637
					l-6.552-15.12L129.243,296.968L129.243,296.968z M220.342,243.039v-0.377c0-0.127,0-0.127,0-0.504
					c0-1.133-0.379-1.89-1.134-2.268c-0.756-0.377-2.268-0.504-4.41-0.504v-10.206h23.31v10.206h-1.512
					c-1.765,0-2.898,0.126-3.654,0.504c-0.378,0.378-1.134,1.513-1.512,2.773l-15.624,69.301h-18.018l-14.868-69.805
					c-0.251-1.133-0.629-1.89-1.386-2.268c-0.755-0.504-1.889-0.504-3.024-0.504c0,0-0.378,0-0.755,0c-0.379,0-0.756,0-0.756,0
					v-10.206h30.996v10.206c-2.142,0-4.031,0.126-4.788,0.504c-1.26,0.378-1.638,1.135-1.638,2.268c0,0,0,0.377,0,0.504v0.377
					l8.316,48.889L220.342,243.039L220.342,243.039z"/>
			</g>
			<polygon style="fill-rule:evenodd;clip-rule:evenodd;fill:#FFFFFF;" points="431.895,229.179 447.142,217.21 422.698,201.082 
				431.895,229.179 			"/>
			<path style="fill-rule:evenodd;clip-rule:evenodd;fill:#FFFFFF;" d="M377.841,258.412l12.978-10.206
				c3.529-2.773,5.417-5.167,5.67-7.812c0.379-2.521-0.378-4.536-1.511-6.679c-2.269-2.772-4.662-4.283-7.057-4.283
				c-2.393-0.126-5.545,1.008-8.945,3.527l-13.231,10.457L377.841,258.412L377.841,258.412z"/>
			<path style="fill-rule:evenodd;clip-rule:evenodd;fill:#FFFFFF;" d="M396.111,281.848l15.75-12.476
				c2.015-1.637,3.529-3.527,4.411-5.544c0.756-1.888,1.008-3.653,0.376-5.795c-0.125-1.639-0.882-3.527-2.015-4.536
				c-2.268-3.025-4.787-4.662-7.813-5.039c-2.898-0.38-6.678,1.259-11.34,4.787l-13.481,10.837L396.111,281.848L396.111,281.848z"/>
			<polygon style="fill-rule:evenodd;clip-rule:evenodd;fill:#FFFFFF;" points="343.821,298.354 359.067,286.385 334.624,270.382 
				343.821,298.354 			"/>
			<polygon style="fill-rule:evenodd;clip-rule:evenodd;fill:#FFFFFF;" points="187.078,421.709 202.324,409.863 177.754,393.862 
				187.078,421.709 			"/>
			<path style="fill-rule:evenodd;clip-rule:evenodd;fill:#FFFFFF;" d="M131.386,455.098l17.388-13.482
				c1.891-1.512,3.15-3.402,3.906-5.041c1.008-1.889,1.134-3.654,0.756-5.418c-0.504-2.015-1.134-3.527-2.268-4.913
				c-2.017-2.52-4.032-3.906-6.679-4.535c-2.52-0.505-5.292,0.251-8.316,2.392l-18.018,14.364L131.386,455.098L131.386,455.098z"/>
			<path style="fill-rule:evenodd;clip-rule:evenodd;fill:#FFFFFF;" d="M57.046,486.219l13.734,17.516l13.608-10.586
				c6.804-5.418,7.811-11.213,2.898-17.136c-4.283-5.418-9.827-5.796-16.506-0.505L57.046,486.219L57.046,486.219z"/>
			<g>
				<polygon style="fill-rule:evenodd;clip-rule:evenodd;" points="32.551,470.58 29.047,465.819 435.976,152.938 439.479,157.696 
					32.551,470.58 				"/>
			</g>
			<g>
				<polygon style="fill-rule:evenodd;clip-rule:evenodd;" points="60.322,579.837 56.794,575.05 512.409,223.509 515.936,228.298 
					60.322,579.837 				"/>
			</g>
		</g>
	</g>
</g>
</svg>
