<?xml version="1.0" encoding="iso-8859-1"?>
<!-- Generator: Adobe Illustrator 23.0.1, SVG Export Plug-In . SVG Version: 6.00 Build 0)  -->
<svg version="1.1" xmlns="http://www.w3.org/2000/svg" xmlns:xlink="http://www.w3.org/1999/xlink" x="0px" y="0px"
	 viewBox="0 0 595.276 841.89" style="enable-background:new 0 0 595.276 841.89;" xml:space="preserve">
<g id="Grade" style="display:none;">
</g>
<g id="HQFL">
</g>
<g id="&#xC1;rea_de_trabalho">
</g>
<g id="Linhas-guia">
</g>
<g id="Page_1">
	<g id="HQFL_1_">
		<g>
			<path style="fill-rule:evenodd;clip-rule:evenodd;fill:#E9E9E4;" d="M37.801,116.159v385.688
				c0,112.84,89.802,205.954,240.221,249.081l4.119,1.181l4.119-1.183C436.675,707.712,526.476,614.6,526.476,501.847V116.159
				H37.801L37.801,116.159z"/>
			<path style="fill-rule:evenodd;clip-rule:evenodd;" d="M282.137,736.578C143.758,696.904,52.729,611.332,52.729,501.847V131.086
				h458.818v370.761C511.547,611.332,420.238,696.904,282.137,736.578L282.137,736.578z"/>
			<path style="fill-rule:evenodd;clip-rule:evenodd;fill:#D0181F;" d="M462.195,522.03c7.299,9.09,17.346,18.318,28.082,27.408
				c1.083-3.806,2.045-7.646,2.864-11.52C482.778,532.53,472.419,527.28,462.195,522.03L462.195,522.03z"/>
			<path style="fill-rule:evenodd;clip-rule:evenodd;fill:#D0181F;" d="M494.095,533.062c0.437-2.396,0.812-4.806,1.147-7.226
				c-9.497-4.677-18.99-9.218-28.485-13.759C475.869,519.118,484.982,526.022,494.095,533.062L494.095,533.062z"/>
			<path style="fill-rule:evenodd;clip-rule:evenodd;fill:#D0181F;" d="M496.064,518.574l0.024,0.018
				c0.232-2.439,0.424-4.887,0.555-7.349c-10.7-6.035-21.398-12.069-31.959-18.104C473.806,501.986,484.865,510.279,496.064,518.574
				L496.064,518.574z"/>
			<path style="fill-rule:evenodd;clip-rule:evenodd;fill:#D0181F;" d="M67.382,236.012c0,106.034,0,265.835,0,265.835
				c0,79.412,52.806,148.215,144.554,192.583c1.222-3.324,2.424-6.667,3.637-10.001c-0.092,0.196-0.182,0.389-0.274,0.585
				c13.408-45.342,24.191-82.114,45.204-123.448c12.296-23.91,8.918-58.74,0.028-82.638c-0.615-0.615-1.244-1.243-1.863-1.862
				c-4.865,1.204-9.985,1.901-15.324,2.131c-4.783,2.387-9.301,4.105-13.807,5.094c-6.663,1.6-13.328,1.514-20.484-0.103
				c-7.479,10.099-18.394,11.171-23.062,15.172c3.872,15.067-6.773,26.957-22.532,23.916c-11.475-2.074-23.64-2.488-36.634-0.554
				c-3.142,0.548-4.654-2.683-0.823-3.96c-5.269-0.587-10.352-2.062-14.937-3.09c16.03-5.611,24.595-9.943,40.123-18.212
				c-0.731,0.124-1.478,0.21-2.246,0.24c3.595-0.553,6.36-3.595,6.36-7.327c0-4.009-3.456-7.326-7.603-7.326
				c-3.18,0-6.083,1.659-7.189,4.563c-8.295,0-13.824,17.833-21.013,23.085c-5.529,4.01-14.378,4.425-19.629,3.732v-4.34
				c-5.99-2.072-9.687-5.003-12.796-8.16c-1.131-0.377-2.15-1.045-2.964-2.152c-0.822-1.149-1.438-2.344-1.904-3.566
				c-2.325-3.813-3.487-7.86-3.487-12.332v-1.106c0.113-4.838,1.341-10.052,3.502-15.921c-0.717-3.897-0.92-7.651,1.336-11.036
				c3.421-5.308,10.565-7.993,16.968-8.925c3.019-1.62,6.032-3.241,9.091-4.861c-0.758,0.126-1.527,0.252-2.281,0.377
				c18.386-34.559,39.953-52.254,62.209-66.492c-2.905-3.595-4.701-3.18-4.009-10.645c0.829-7.466,4.838-15.208,10.781-19.77
				c12.103-9.042,23.72-14.987,37.876-18.382c0.001-0.001,0.001-0.001,0.003-0.002c-5.656-22.211-9.519-45.797-9.949-70.209
				c-0.002-0.006-0.003-0.011-0.005-0.017c0.002,0.002,0.003,0.005,0.005,0.007c-0.001-0.049-0.003-0.097-0.005-0.146
				c0.518,0.727,1.021,1.441,1.535,2.165c13.774,18.218,26.887,28.873,39.665,36.244c6.365-14.362,4.554-28.597-0.279-42.832
				c2.349,0.276,4.562,0.69,6.775,1.243c23.292,5.48,33.681,25.363,41.535,47.521c75.628,30.225,140.377,41.335,186.836,79.798
				c-25.858-4.986-47.301-7.582-63.683-7.594c25.123,12.298,50.607,23.064,76.264,33.306c-32.234-6.877-63.092-15.134-92.582-24.757
				c24.668,14.48,56.2,25.178,90.509,34.434c-18.248-1.521-36.634-3.18-54.882-4.701c17.142,8.709,30.413,17.418,42.717,26.128
				c0.006,0.004,0.009,0.008,0.015,0.013c6.038,1.832,12.114,3.581,18.23,5.241V236.012H67.382L67.382,236.012z"/>
			<path style="fill-rule:evenodd;clip-rule:evenodd;fill:#D0181F;" d="M448.633,481.098c4.424,1.652,9.006,3.04,13.147,3.607
				c11.73,7.176,23.325,14.49,35.056,21.668c0.037-1.506,0.056-3.014,0.056-4.526v-3.733c-25.156-14.1-50.181-28.337-75.337-42.436
				C431.03,466.25,441.181,473.416,448.633,481.098L448.633,481.098z"/>
			<path style="fill-rule:evenodd;clip-rule:evenodd;fill:#FFFFFF;" d="M299.9,655.985c11.198-29.169,45.896-46.173,56.816-76.861
				c11.197-30.966,12.718-65.803,8.573-98.428c-6.498-50.457-17.558-105.476-75.341-126.49
				c-13.963-5.115-26.957,2.766-38.016,15.069c-3.734,4.009-7.189,8.432-10.508,13.132c-0.967-13.41,6.774-24.469,10.508-35.391
				c1.935-5.944,2.625-11.748,0.137-18.108c-0.137-0.139-0.137-0.139-0.137-0.276c-0.553-0.967-1.106-1.798-1.798-2.627
				c-7.05,2.074-14.1,4.285-20.597,7.326c-14.102,6.36-26.267,16.176-33.039,36.081c-0.04,0.019-0.082,0.033-0.122,0.052
				c11.002-1.752,21.049,0.291,31.088,4.649c-15.623,3.455-21.428,17.558-31.658,23.64c-1.382,0.967-5.53,0.829-4.838-1.245
				c2.861-9.131,4.769-16.659,3.897-26.406c-5.279,2.129-11.153,3.218-15.786,6.223c-1.107,0.69-2.074,1.382-3.042,2.35
				c-19.629,19.492-35.805,41.887-47.417,64.144c-3.817,7.144-5.218,11.777-5.381,20.52c1.274,4.241-1.75,9.88-7.613,13.211
				c2.488-6.498,2.763-15.483-6.636-14.102c-7.327,1.106-7.188,7.742-5.806,12.857c-0.124,0-0.256,0-0.381,0
				c1.655,24.048,15.543,24.406,31.347,13.824c-0.453,0.958-0.958,1.882-1.506,2.784l0.051-0.038
				c1.27-1.944,2.147-3.942,2.147-5.788c0-7.188,6.082-13.132,13.41-13.132c3.701,0,7.027,1.464,9.441,3.813
				c-2.294-6.223-4.522-11.423-15.109-13.629c-4.286-0.829-4.009-9.538-1.384-13.133c11.197-15.07,24.607-27.096,37.879-35.527
				c5.943-3.733,11.75-6.914,17.418-9.263c-8.666,17.81-12.399,34.678-0.545,49.052c-0.259-0.948-0.514-1.901-0.7-2.88
				c3.318-0.414,6.774-0.968,10.091-1.382c2.213,9.399,11.337,18.247,25.3,20.321c19.905,2.902,42.439-4.84,57.505-26.266
				c10.785-15.208,1.384-36.633-0.274-54.744c-0.277-3.594,1.381-7.742,4.283-9.952c4.841-3.872,8.156-4.562,14.654-6.913
				c-4.56,3.872-6.221,5.531-8.846,8.434c-2.213,2.627-2.629,6.636-2.351,10.23c2.074,19.907,12.442,39.812,0.968,57.922
				c-4.472,7.251-9.799,13.063-15.823,17.619c6.809,16.33,13.99,41.727,10.019,58.273c-8.433,35.666-23.639,67.324-38.845,98.704
				c-7.881,16.174-15.623,32.21-22.395,48.66c-3.574,8.523-6.873,17.045-9.763,25.837c6.564,3.002,13.306,5.892,20.242,8.645
				c4.009-0.685,7.9-1.61,11.917-2.548c46.861-14.102,94.003-63.591,186.346-82.115C402.06,603.176,344.829,616.31,299.9,655.985
				L299.9,655.985z"/>
			<path style="fill-rule:evenodd;clip-rule:evenodd;fill:#FFFFFF;" d="M282.133,721.277
				c66.274-19.611,119.351-49.414,156.165-86.293c-40.854,3.347-92.181,25.71-163.316,84.119
				C277.35,719.84,279.73,720.568,282.133,721.277L282.133,721.277z"/>
			<path style="fill-rule:evenodd;clip-rule:evenodd;fill:#E9E9E4;" d="M225.665,478.346c-4.423-0.554-8.432-1.659-11.887-3.317
				c-1.274,3.713-2.901,6.696-4.725,9.158c7.156,1.616,13.822,1.702,20.485,0.103c4.507-0.988,9.025-2.707,13.809-5.094
				C237.686,479.43,231.788,479.152,225.665,478.346L225.665,478.346z"/>
			<path style="fill-rule:evenodd;clip-rule:evenodd;fill:#E9E9E4;" d="M195.953,454.269c-11.854-14.374-8.121-31.241,0.545-49.052
				c-5.668,2.349-11.475,5.53-17.418,9.263c-13.272,8.431-26.682,20.458-37.879,35.527c-2.625,3.595-2.902,12.303,1.384,13.133
				c10.587,2.206,12.815,7.406,15.109,13.629c2.454,2.39,3.967,5.694,3.967,9.318c0,6.281-4.505,10.361-10.473,11.372
				c-15.528,8.269-24.093,12.601-40.123,18.212c4.584,1.027,9.667,2.503,14.935,3.09c0.046-0.014,0.084-0.033,0.132-0.049
				c18.11-5.668,32.072-1.384,37.048-0.278c9.124,2.074,5.254-25.021,13.963-27.371c14.1-3.87,23.362-2.488,36.495-16.035
				C204.139,470.779,198.402,463.235,195.953,454.269L195.953,454.269z"/>
			<path style="fill-rule:evenodd;clip-rule:evenodd;fill:#E9E9E4;" d="M83.97,476.826c-0.189-3.342-1.15-6.711-1.752-9.98
				c-2.161,5.869-3.39,11.085-3.502,15.923v1.106c0,4.474,1.164,8.525,3.49,12.337C79.925,490.235,81.56,483.484,83.97,476.826
				L83.97,476.826z"/>
			<path style="fill-rule:evenodd;clip-rule:evenodd;fill:#E9E9E4;" d="M433.303,477.378c3.595,1.659,10.231,3.041,15.483,3.87
				c-7.465-7.74-17.694-14.929-27.232-25.573c-9.815-20.046-20.599-40.089-32.764-60.134c26.957,19.767,57.646,32.347,89.857,42.163
				c-12.303-8.71-25.575-17.419-42.717-26.128c18.248,1.521,36.634,3.18,54.882,4.701c-34.309-9.255-65.841-19.954-90.509-34.434
				c-10.22-3.335-20.283-6.829-30.176-10.493c-11.751-25.022-31.934-47.417-77.967-61.794c0.277-2.902,0.416-5.805,0.691-8.709
				c0.206,0.082,0.411,0.161,0.617,0.243c-7.855-22.158-18.243-42.04-41.535-47.521c-2.212-0.552-4.425-0.968-6.775-1.243
				c4.834,14.235,6.644,28.47,0.279,42.832c3.105,1.79,6.189,3.391,9.259,4.861c-4.284,4.009-8.709,8.156-12.994,12.165
				c-16.862-15.064-30.682-32.478-37.459-55.279c0.43,24.413,4.293,47.998,9.949,70.209c-0.001,0.001-0.002,0.001-0.003,0.002
				c0.559-0.134,1.095-0.293,1.662-0.418c-28.478,20.321-33.317,22.948-44.237,50.736c-19.354,14.653-36.912,36.91-49.215,62.484
				c-4.222,0.703-8.533,1.406-12.787,2.111c-3.059,1.62-6.071,3.24-9.091,4.861c1.101-0.159,2.182-0.276,3.216-0.336
				c-4.285,3.456-9.953,5.529-12.994,10.092c-1.66,2.35,2.21,6.221,0.553,8.57c-3.041,4.284-5.529,9.677-6.083,15.898
				c-0.692,14.375,4.977,18.801,13.686,19.49c-3.276,0.636-8.161,2.55-11.828,1.324c3.115,3.159,6.792,6.103,12.795,8.175v-1.066
				c8.709,0.554,17.833-1.521,25.297-8.709c1.86-1.781,4.673-4.476,6.789-7.376c0.807-1.231,1.566-2.488,2.197-3.821
				c-15.804,10.582-29.692,10.223-31.347-13.824c-2.651,0-5.412,0-8.051,0c-0.829-4.977-0.277-10.783,1.796-13.687
				c6.36-8.432,22.258-9.401,26.542,1.245c0.06,0.156,0.101,0.317,0.149,0.475c0.163-8.743,1.564-13.376,5.381-20.52
				c11.612-22.257,27.788-44.652,47.417-64.144c0.968-0.968,1.935-1.66,3.042-2.35c4.633-3.005,10.506-4.095,15.786-6.223
				c-0.012-0.141-0.012-0.271-0.026-0.412c0.518-0.099,1.023-0.145,1.537-0.226c0.04-0.018,0.082-0.033,0.122-0.052
				c6.773-19.905,18.938-29.721,33.039-36.081c6.497-3.041,13.547-5.252,20.597-7.326c0.692,0.829,1.245,1.66,1.798,2.627
				c0,0.137,0,0.137,0.137,0.276c2.488,6.36,1.799,12.164-0.137,18.108c-3.734,10.922-11.475,21.981-10.508,35.391
				c3.319-4.701,6.774-9.124,10.508-13.132c11.059-12.303,24.052-20.184,38.016-15.069c57.783,21.013,68.842,76.032,75.341,126.49
				c4.145,32.625,2.625,67.462-8.573,98.428c-10.92,30.688-45.618,47.692-56.816,76.861
				c44.929-39.675,102.159-52.809,138.379-33.869c-92.344,18.524-139.485,68.014-186.346,82.115
				c-4.017,0.937-7.908,1.863-11.917,2.548c11.182,4.444,22.848,8.556,34.966,12.324c71.135-58.409,122.461-80.772,163.316-84.119
				c13.973-13.997,25.6-29.015,34.714-44.881c-10.745-8.27-21.357-16.674-31.967-24.942c0.691-7.19,0.968-14.239,0-21.428
				c13.916,8.82,27.972,17.639,41.892,26.458c1.655-3.897,3.17-7.834,4.537-11.815c-16.58-11.057-33.165-22.111-49.886-33.306
				C437.588,509.726,435.93,492.723,433.303,477.378L433.303,477.378z M279.165,307.759c-5.115,0.414-10.369,0.69-15.484,1.106
				c1.245-7.466,4.7-14.792,3.595-22.259c-1.382-9.952-5.252-18.937-10.645-28.477C275.156,270.847,280.686,287.99,279.165,307.759
				L279.165,307.759z"/>
			<path style="fill-rule:evenodd;clip-rule:evenodd;fill:#E9E9E4;" d="M427.357,368.722c-9.952-2.351-19.905-4.839-31.933-6.221
				c7.031,3.744,14.102,7.319,21.196,10.792c16.382,0.011,37.824,2.608,63.683,7.594c-36.357-18.111-72.714-32.21-109.07-41.473
				C389.896,349.23,408.695,359.046,427.357,368.722L427.357,368.722z"/>
			<path style="fill-rule:evenodd;clip-rule:evenodd;fill:#E9E9E4;" d="M260.531,478.927c-0.105-0.28-0.2-0.579-0.306-0.857
				c5.529-0.554,11.198-1.245,16.727-1.799c7.742,17.005,13.685,48.246,2.627,72.992c-18.038,39.795-40.604,85.078-64.005,135.163
				c-1.216,3.339-2.421,6.69-3.646,10.024c2.583,1.249,5.202,2.474,7.846,3.682c2.89-8.792,6.189-17.313,9.763-25.837
				c6.773-16.45,14.514-32.486,22.395-48.66c15.206-31.38,30.412-63.038,38.845-98.704c3.971-16.547-3.21-41.943-10.019-58.273
				c-6.56,4.962-13.968,8.393-22.09,10.404C259.287,477.682,259.917,478.312,260.531,478.927L260.531,478.927z"/>
			<path style="fill-rule:evenodd;clip-rule:evenodd;fill:#D0181F;" d="M496.894,481.387v9.263
				c-15.345-9.816-30.551-19.632-45.897-29.584C466.343,467.84,481.549,474.613,496.894,481.387L496.894,481.387z"/>
			<path style="fill-rule:evenodd;clip-rule:evenodd;fill:#D0181F;" d="M496.894,462.172v4.284
				c-9.263-4.423-18.524-8.985-27.649-13.408C478.369,456.089,487.631,459.131,496.894,462.172L496.894,462.172z"/>
			<path style="fill-rule:evenodd;clip-rule:evenodd;fill:#FFFFFF;" d="M97.448,148.782c-3.041-2.212-6.774-3.318-10.922-3.318
				H71.045v75.064h8.846v-34.144h6.635c4.148,0,7.881-1.244,10.922-3.457c2.903-2.35,4.423-5.114,4.423-8.294v-17.557
				C101.872,153.897,100.351,151.133,97.448,148.782L97.448,148.782z M93.162,174.633c0,1.382-0.69,2.626-1.935,3.595
				c-1.382,0.967-2.902,1.382-4.701,1.382h-6.635V152.1h6.635c1.798,0,3.319,0.415,4.701,1.382c1.245,0.968,1.935,2.212,1.935,3.595
				V174.633L93.162,174.633z"/>
			<path style="fill-rule:evenodd;clip-rule:evenodd;fill:#FFFFFF;" d="M185.645,208.916c0,1.383-0.552,2.488-1.796,3.457
				c-1.384,0.967-2.904,1.521-4.701,1.521c-1.935,0-3.455-0.553-4.701-1.521c-1.382-0.968-1.935-2.074-1.935-3.457v-63.452h-8.848
				v63.452c0,3.18,1.521,5.945,4.562,8.156c2.904,2.35,6.636,3.456,10.922,3.456c4.147,0,7.878-1.105,10.92-3.456
				c2.904-2.211,4.425-4.976,4.425-8.156v-63.452h-8.848V208.916L185.645,208.916z"/>
			<path style="fill-rule:evenodd;clip-rule:evenodd;fill:#FFFFFF;" d="M141.547,148.782c-3.041-2.212-6.774-3.318-10.922-3.318
				h-15.481v75.064h8.846v-34.144h6.635c1.798,0,3.319,0.415,4.701,1.383c1.245,0.967,1.935,2.211,1.935,3.594v29.168h8.709V191.36
				c0-3.319-1.52-6.082-4.562-8.433c3.042-2.211,4.562-4.977,4.562-8.294v-17.557C145.97,153.897,144.45,151.133,141.547,148.782
				L141.547,148.782z M137.261,174.633c0,1.382-0.69,2.626-1.935,3.595c-1.382,0.967-2.902,1.382-4.701,1.382h-6.635V152.1h6.635
				c1.798,0,3.319,0.415,4.701,1.382c1.245,0.968,1.935,2.212,1.935,3.595V174.633L137.261,174.633z"/>
			<polygon style="fill-rule:evenodd;clip-rule:evenodd;fill:#FFFFFF;" points="346.559,152.1 357.617,152.1 357.617,220.528 
				366.324,220.528 366.324,152.1 376.277,152.1 376.277,145.464 346.559,145.464 346.559,152.1 			"/>
			<path style="fill-rule:evenodd;clip-rule:evenodd;fill:#FFFFFF;" d="M238.452,148.782c-2.902-2.212-6.636-3.318-10.783-3.318
				h-15.482v75.064h15.482c4.148,0,7.881-1.105,10.783-3.456c3.042-2.211,4.562-4.976,4.562-8.156v-51.84
				C243.014,153.897,241.494,151.133,238.452,148.782L238.452,148.782z M234.168,208.916c0,1.383-0.553,2.488-1.799,3.457
				c-1.382,0.967-2.902,1.521-4.701,1.521h-6.634V152.1h6.634c1.798,0,3.319,0.415,4.701,1.382c1.245,0.968,1.799,2.212,1.799,3.595
				V208.916L234.168,208.916z"/>
			<polygon style="fill-rule:evenodd;clip-rule:evenodd;fill:#FFFFFF;" points="435.86,188.457 422.59,145.464 413.739,145.464 
				413.739,220.528 422.59,220.528 422.59,177.536 435.86,220.528 444.707,220.528 444.707,145.464 435.86,145.464 435.86,188.457 
							"/>
			<path style="fill-rule:evenodd;clip-rule:evenodd;fill:#FFFFFF;" d="M488.668,148.782c-3.041-2.212-6.638-3.318-10.924-3.318
				c-4.282,0-7.879,1.106-10.92,3.318c-3.041,2.35-4.56,5.115-4.56,8.294v51.84c0,3.18,1.519,5.945,4.56,8.156
				c3.041,2.35,6.638,3.456,10.92,3.456c4.286,0,7.883-1.105,10.924-3.456c3.041-2.211,4.56-4.976,4.56-8.156v-51.84
				C493.228,153.897,491.709,151.133,488.668,148.782L488.668,148.782z M484.382,208.916c0,1.383-0.689,2.488-1.934,3.457
				c-1.245,0.967-2.903,1.521-4.703,1.521c-1.796,0-3.453-0.553-4.698-1.521c-1.245-0.968-1.936-2.074-1.936-3.457v-51.84
				c0-1.382,0.69-2.627,1.936-3.595c1.245-0.967,2.902-1.382,4.698-1.382c1.8,0,3.458,0.415,4.703,1.382
				c1.245,0.968,1.934,2.212,1.934,3.595V208.916L484.382,208.916z"/>
			<polygon style="fill-rule:evenodd;clip-rule:evenodd;fill:#FFFFFF;" points="387.336,220.528 396.186,220.528 396.186,145.464 
				387.336,145.464 387.336,220.528 			"/>
			<polygon style="fill-rule:evenodd;clip-rule:evenodd;fill:#FFFFFF;" points="326.649,188.457 313.378,145.464 304.671,145.464 
				304.671,220.528 313.517,220.528 313.517,177.536 326.649,220.528 335.496,220.528 335.496,145.464 326.649,145.464 
				326.649,188.457 			"/>
			<polygon style="fill-rule:evenodd;clip-rule:evenodd;fill:#FFFFFF;" points="260.709,220.528 286.975,220.528 286.975,213.893 
				269.557,213.893 269.557,186.384 286.975,186.384 286.975,179.61 269.557,179.61 269.557,152.1 286.975,152.1 286.975,145.464 
				260.709,145.464 260.709,220.528 			"/>
		</g>
	</g>
</g>
</svg>
