<?xml version="1.0" encoding="iso-8859-1"?>
<!-- Generator: Adobe Illustrator 23.0.1, SVG Export Plug-In . SVG Version: 6.00 Build 0)  -->
<svg version="1.1" xmlns="http://www.w3.org/2000/svg" xmlns:xlink="http://www.w3.org/1999/xlink" x="0px" y="0px"
	 viewBox="0 0 595.276 841.89" style="enable-background:new 0 0 595.276 841.89;" xml:space="preserve">
<g id="Grade" style="display:none;">
</g>
<g id="HQFL">
</g>
<g id="&#xC1;rea_de_trabalho">
</g>
<g id="Linhas-guia">
</g>
<g id="Page_1">
	<g id="HQFL_1_">
		<g>
			<path style="fill-rule:evenodd;clip-rule:evenodd;fill:#00A651;" d="M296.47,690.754c153.089,0,277.202-124.104,277.202-277.199
				c0-153.091-124.113-277.202-277.202-277.202c-153.091,0-277.2,124.111-277.2,277.202
				C19.27,566.65,143.379,690.754,296.47,690.754L296.47,690.754z"/>
			<path style="fill-rule:evenodd;clip-rule:evenodd;fill:#FFFFFF;" d="M296.47,662.405c137.216,0,248.851-111.632,248.851-248.85
				S433.685,164.703,296.47,164.703c-137.216,0-248.85,111.634-248.85,248.852S159.254,662.405,296.47,662.405L296.47,662.405z"/>
			<path style="fill-rule:evenodd;clip-rule:evenodd;fill:#00A651;" d="M60.22,413.555c0-130.27,105.982-236.252,236.25-236.252
				c130.267,0,236.252,105.983,236.252,236.252s-105.985,236.25-236.252,236.25C166.202,649.805,60.22,543.825,60.22,413.555
				L60.22,413.555z"/>
			<path style="fill-rule:evenodd;clip-rule:evenodd;fill:#FFFFFF;" d="M230.441,274.92h87.598c20.335,0,35.248,5.201,44.752,15.594
				c9.503,10.401,14.261,23.666,14.261,39.794c0,11.025-2.469,21.23-7.399,30.614c-4.93,9.384-12.067,16.209-21.41,20.475
				c-9.352,4.266-22.369,6.398-39.071,6.398h-78.729V274.92L230.441,274.92z M230.441,579.422V427.17h42.583
				c9.311,0,16.035,0.549,20.18,1.641c5.767,1.723,11.384,4.773,16.853,9.154c5.472,4.381,11.641,12.027,18.515,22.937
				c6.87,10.91,15.636,26.645,26.283,47.218l36.586,71.302h45.699l-47.763-93.278c-9.536-18.243-19.634-33.444-30.29-45.595
				c-5.028-5.603-12.362-11.287-21.976-17.055c26.459-4.519,46.048-15.126,58.763-31.811c12.719-16.685,19.076-37.193,19.076-61.524
				c0-18.867-3.851-36.094-11.533-51.688c-7.69-15.594-17.965-26.471-30.823-32.632c-12.867-6.161-31.562-9.245-56.105-9.245
				H193.539v342.827H230.441L230.441,579.422z"/>
		</g>
	</g>
</g>
</svg>
