<?xml version="1.0" encoding="iso-8859-1"?>
<!-- Generator: Adobe Illustrator 23.0.1, SVG Export Plug-In . SVG Version: 6.00 Build 0)  -->
<svg version="1.1" xmlns="http://www.w3.org/2000/svg" xmlns:xlink="http://www.w3.org/1999/xlink" x="0px" y="0px"
	 viewBox="0 0 595.276 841.89" style="enable-background:new 0 0 595.276 841.89;" xml:space="preserve">
<g id="Grade" style="display:none;">
</g>
<g id="HQFL">
</g>
<g id="&#xC1;rea_de_trabalho">
</g>
<g id="Linhas-guia">
</g>
<g id="Page_1">
	<g id="HQFL_1_">
		<g>
			<path style="fill-rule:evenodd;clip-rule:evenodd;fill:#5E8A66;" d="M573.472,257.388l-73.805-79
				c-51.563,36-136.484-5-143.563-66H238.831c-7.076,61-91.998,102-143.559,66l-73.803,79c44.988,44.5,69.758,106,42.463,176
				c-29.938,76.768-20.6,188.322,116.262,229.002c67.736,20.133,117.276,71,117.276,71s49.541-50.867,117.275-71
				c136.86-40.68,146.195-152.234,116.266-229.002C503.714,363.387,528.479,301.887,573.472,257.388L573.472,257.388z"/>
			<path style="fill-rule:evenodd;clip-rule:evenodd;fill:#FFFFFF;" d="M406.995,195.233
				c-31.594-14.217-54.555-39.895-62.391-68.846c-16.68,0-77.588,0-94.269,0c-7.834,28.951-30.799,54.629-62.389,68.846
				c-31.07,13.982-63.807,14.053-90.047,0.85c-10.588,11.334-45.131,48.309-57.291,61.326c32.141,35.607,48.77,75.805,48.77,117.615
				c0,20.89-4.103,42.168-12.402,63.449c-8.713,22.338-13.065,45.182-13.065,67.065c0,22.617,4.651,44.219,13.939,63.203
				c1.809,3.695,3.832,7.258,5.971,10.75l412.666-383.152C470.347,209.268,437.847,209.12,406.995,195.233L406.995,195.233z"/>
			<path style="fill-rule:evenodd;clip-rule:evenodd;fill:#5E8A66;" d="M217.782,450.598c22.844-21.719,37.016-51.703,37.016-84.875
				c0-61.553-48.648-112.276-111.328-119.197v277.582l28-25.992v-19.461c8.199-2.813,15.961-6.469,23.274-10.758l2.642,6.156
				l21.783-20.229L217.782,450.598L217.782,450.598z M171.47,448.481V282.979c32.703,14.926,55.328,46.377,55.328,82.744
				C226.798,402.091,204.173,433.551,171.47,448.481L171.47,448.481z"/>
			<path style="fill-rule:evenodd;clip-rule:evenodd;fill:#5E8A66;" d="M324.136,246.524v109.84l28-25.996v-47.391
				c11.039,5.035,20.883,11.988,29.141,20.338l20.602-19.129C381.995,263.751,354.753,249.905,324.136,246.524L324.136,246.524z"/>
			<polygon style="fill-rule:evenodd;clip-rule:evenodd;fill:#FFFFFF;" points="143.47,524.108 143.47,586.061 171.47,586.061 
				171.47,498.116 143.47,524.108 			"/>
			<polygon style="fill-rule:evenodd;clip-rule:evenodd;fill:#FFFFFF;" points="197.384,474.053 248.376,592.701 274.087,581.616 
				219.167,453.824 197.384,474.053 			"/>
			<path style="fill-rule:evenodd;clip-rule:evenodd;fill:#FFFFFF;" d="M381.276,303.315c16.219,16.402,26.195,38.307,26.195,62.404
				c0,36.371-22.625,67.832-55.336,82.758V330.368l-28,25.996v229.689h28V478.655c48.586-16.656,83.336-60.928,83.336-112.935
				c0-31.49-12.758-60.129-33.594-81.535L381.276,303.315L381.276,303.315z"/>
		</g>
	</g>
</g>
</svg>
