<?xml version="1.0" encoding="iso-8859-1"?>
<!-- Generator: Adobe Illustrator 23.0.1, SVG Export Plug-In . SVG Version: 6.00 Build 0)  -->
<svg version="1.1" xmlns="http://www.w3.org/2000/svg" xmlns:xlink="http://www.w3.org/1999/xlink" x="0px" y="0px"
	 viewBox="0 0 595.276 841.89" style="enable-background:new 0 0 595.276 841.89;" xml:space="preserve">
<g id="Grade" style="display:none;">
</g>
<g id="HQFL">
</g>
<g id="&#xC1;rea_de_trabalho">
</g>
<g id="Linhas-guia">
</g>
<g id="Page_1">
	<g id="HQFL_1_">
		<g>
			<path style="fill-rule:evenodd;clip-rule:evenodd;" d="M297.365,724.89c-186.047-144-237.891-287.418-251.133-430.847
				c95.617-16.703,179.711-66.812,251.133-156.672c72.578,89.859,156.671,139.969,252.867,156.672
				C536.411,437.472,485.145,580.89,297.365,724.89L297.365,724.89z"/>
			<path style="fill-rule:evenodd;clip-rule:evenodd;fill:#FFFFFF;" d="M140.693,524.453
				c-23.609-40.906-42.047-82.953-54.719-129.035c-6.906-27.063-12.094-55.867-16.125-84.094
				c11.516-3.453,23.609-6.328,35.133-9.219c40.32-12.672,78.336-33.406,111.742-57.016c30.531-21.891,57.601-46.078,80.641-74.313
				c29.375,32.836,62.211,62.219,97.921,85.828c32.828,20.734,67.969,37.437,105.985,48.391l17.281,4.602l7.484,1.727
				c-7.484,61.633-23.039,118.656-50.109,174.535c-42.047,85.25-105.406,151.484-178.562,210.813
				C237.458,647.14,182.161,591.265,140.693,524.453L140.693,524.453z"/>
			<path style="fill-rule:evenodd;clip-rule:evenodd;" d="M307.739,235.871v350.207l59.898-12.094v-27.078l-32.258,5.187V410.402
				h32.258v-28.805H335.38V285.98l32.258,23.617v-27.07C347.473,268.699,327.895,251.418,307.739,235.871L307.739,235.871z"/>
			<path style="fill-rule:evenodd;clip-rule:evenodd;" d="M381.458,293.472v268.996c28.805-36.875,54.149-75.453,70.852-118.078
				v-35.722l-46.656,77.769V331.488l23.039,9.789v38.016h23.617v-52.414C427.544,317.089,403.927,305.566,381.458,293.472
				L381.458,293.472z"/>
			<path style="fill-rule:evenodd;clip-rule:evenodd;" d="M181.013,312.48c2.305-0.578,11.523,2.297,11.523,5.758v67.391
				c0,4.609-5.765,5.187-10.945,9.219c4.609,2.305,10.945,5.758,10.945,9.789v128.457l-19.586-29.953v-91.011
				c0-1.727-2.305-4.609-4.031-4.609h-14.399v64.511l-17.859-43.777v-97.914L181.013,312.48L181.013,312.48z M154.521,341.855
				v47.234h12.672c3.453,0,5.758-3.461,5.758-5.765v-41.469c0-2.875-3.461-5.766-5.758-5.187L154.521,341.855L154.521,341.855z"/>
			<path style="fill-rule:evenodd;clip-rule:evenodd;" d="M273.177,249.121c12.672-9.797,15.547,9.219,15.547,14.969v123.266
				c0,5.766-9.219,9.797-13.82,13.828c4.601,4.609,13.82,8.641,13.82,14.398v151.496c0,9.781-19.578,20.156-28.797,14.969
				l-49.531-29.375V293.472C229.974,281.371,250.13,266.402,273.177,249.121L273.177,249.121z M239.193,382.746h16.125
				c3.453,0,5.766-4.601,5.766-7.484v-80.063c0-1.727-3.461-6.336-4.609-4.609l-17.281,12.094V382.746L239.193,382.746z
				 M239.193,413.277v126.723l15.547,5.766c4.031,1.141,6.344-5.766,6.344-9.797V420.761c0-2.875-3.461-7.485-6.344-7.485H239.193
				L239.193,413.277z"/>
		</g>
	</g>
</g>
</svg>
