<?xml version="1.0" encoding="iso-8859-1"?>
<!-- Generator: Adobe Illustrator 23.0.1, SVG Export Plug-In . SVG Version: 6.00 Build 0)  -->
<svg version="1.1" xmlns="http://www.w3.org/2000/svg" xmlns:xlink="http://www.w3.org/1999/xlink" x="0px" y="0px"
	 viewBox="0 0 595.276 841.89" style="enable-background:new 0 0 595.276 841.89;" xml:space="preserve">
<g id="Grade" style="display:none;">
</g>
<g id="HQFL">
</g>
<g id="&#xC1;rea_de_trabalho">
</g>
<g id="Linhas-guia">
</g>
<g id="Page_1">
	<g id="HQFL_1_">
		<g>
			<polygon style="fill-rule:evenodd;clip-rule:evenodd;" points="295.803,678.999 285.435,668.201 279.712,663.449 273.34,658.913 
				266.536,654.917 259.084,651.03 251.307,647.247 242.776,643.902 234.028,640.553 224.956,637.421 215.452,634.503 
				205.623,631.697 195.795,628.782 185.644,625.972 175.383,622.949 165.232,620.034 154.863,616.902 144.388,613.553 
				134.235,609.988 124.191,606.1 114.148,601.995 104.319,597.569 94.708,592.6 85.635,587.309 76.671,581.368 68.14,575.104 
				60.04,568.084 52.371,560.417 45.567,552.1 39.088,543.243 33.472,533.417 28.503,522.833 24.4,511.492 22.131,503.933 
				20.728,496.263 19.54,488.705 19.216,481.468 19.431,474.015 19.972,466.995 21.051,459.868 22.563,453.065 24.4,446.154 
				26.452,439.457 29.044,432.976 31.635,426.495 34.66,420.232 37.792,413.86 40.923,407.813 44.487,401.657 47.728,395.501 
				51.292,389.561 54.856,383.621 58.311,377.681 61.875,371.848 65.224,366.017 68.571,360.292 71.704,354.569 74.728,348.845 
				77.427,343.228 80.02,337.505 82.288,331.889 84.34,326.381 85.96,320.765 87.255,315.257 88.228,309.641 88.551,307.265 
				88.768,304.781 88.983,302.405 88.983,299.813 88.983,297.437 88.983,294.845 88.768,292.36 88.551,289.769 88.228,287.393 
				87.795,284.8 87.472,282.424 86.931,279.833 86.392,277.24 85.852,274.757 85.096,272.381 84.34,269.788 83.367,267.305 
				82.503,264.929 81.532,262.552 80.452,259.961 79.264,257.693 78.183,255.317 76.888,252.833 75.592,250.457 74.295,248.296 
				72.784,246.029 71.379,243.761 69.867,241.6 68.14,239.333 66.52,237.281 64.792,235.121 58.528,227.885 141.472,146.777 
				150.544,151.42 154.863,153.472 159.292,155.633 163.72,157.577 168.148,159.521 172.576,161.465 177.22,163.3 181.755,165.137 
				186.4,166.757 190.828,168.484 195.472,170.104 200.115,171.616 204.759,173.129 209.404,174.424 214.047,175.721 
				218.799,177.017 223.443,178.097 228.303,179.285 232.947,180.149 237.699,181.228 242.559,181.984 247.204,182.957 
				252.063,183.713 256.815,184.253 261.675,184.792 266.644,185.333 271.503,185.765 276.363,186.089 281.115,186.521 
				286.191,186.629 290.943,186.845 295.803,186.845 300.663,186.845 305.415,186.629 310.491,186.521 315.243,186.089 
				320.101,185.765 324.964,185.333 329.933,184.792 334.79,184.253 339.542,183.713 344.405,182.957 349.046,181.984 
				353.909,181.228 358.661,180.149 363.302,179.285 368.165,178.097 372.806,177.017 377.557,175.721 382.204,174.424 
				386.845,173.129 391.491,171.616 396.138,170.104 400.778,168.484 405.208,166.757 409.849,165.137 414.39,163.3 419.03,161.465 
				423.46,159.521 427.89,157.577 432.314,155.633 436.743,153.472 441.062,151.42 450.138,146.777 533.077,227.885 
				526.814,235.121 525.085,237.281 523.468,239.333 521.739,241.6 520.227,243.761 518.821,246.029 517.31,248.296 
				516.015,250.457 514.72,252.833 513.425,255.317 512.341,257.693 511.157,259.961 510.073,262.552 509.106,264.929 
				508.239,267.305 507.267,269.788 506.511,272.381 505.755,274.757 505.216,277.24 504.677,279.833 504.138,282.424 503.81,284.8 
				503.382,287.393 503.054,289.769 502.837,292.36 502.626,294.845 502.626,297.437 502.626,299.813 502.626,302.405 
				502.837,304.781 503.054,307.265 503.382,309.641 504.349,315.257 505.649,320.765 507.267,326.381 509.317,331.889 
				511.585,337.505 514.181,343.228 516.882,348.845 519.905,354.569 523.034,360.292 526.386,366.017 529.732,371.848 
				533.294,377.681 536.751,383.621 540.314,389.561 543.882,395.501 547.122,401.657 550.685,407.813 553.814,413.86 
				556.948,420.232 559.972,426.495 562.562,432.976 565.157,439.457 567.208,446.154 569.042,453.065 570.554,459.868 
				571.638,466.995 572.177,474.015 572.393,481.468 572.065,488.705 570.882,496.263 569.476,503.933 567.208,511.492 
				563.106,522.833 558.138,533.417 552.519,543.243 546.038,552.1 539.235,560.417 531.565,568.084 523.468,575.104 
				514.936,581.368 505.972,587.309 496.685,592.6 487.286,597.569 477.46,601.995 467.417,606.1 457.374,609.988 447.22,613.553 
				436.743,616.902 426.378,620.034 416.223,622.949 405.964,625.972 395.81,628.782 385.983,631.697 376.157,634.503 
				366.653,637.421 357.577,640.553 348.829,643.902 340.298,647.247 332.522,651.03 325.069,654.917 318.267,658.913 
				311.897,663.449 306.173,668.201 295.803,678.999 			"/>
			<path style="fill-rule:evenodd;clip-rule:evenodd;fill:#FFFFFF;" d="M276.58,648.112l-4.645-2.807l-7.992-4.213l-8.531-3.888
				l-8.748-3.565l-9.072-3.346l-3.673-1.298V456.088l42.661-32.077V648.112L276.58,648.112z M189.964,489.352v126.469l-1.296-0.325
				l-10.26-3.023l-10.153-2.915l-10.26-3.132l-7.236-2.484v-85.105L189.964,489.352L189.964,489.352z M108.856,550.371v37.26
				l-8.857-4.643l-8.748-4.969l-8.316-5.613l-1.835-1.298L108.856,550.371L108.856,550.371z M31.528,463.755l0.215-1.942
				l1.405-6.264l1.727-6.158l1.837-6.264l2.376-6.155l2.591-6.047l2.808-5.941l3.025-6.155l3.132-5.94l3.132-5.94l3.564-5.94
				l3.347-5.94l3.457-5.94l3.564-5.725l3.564-5.94l3.455-5.94l3.349-5.94l3.132-5.725l3.132-5.94l3.023-6.155l2.593-5.94l2.591-5.94
				l2.052-6.157l1.835-6.047l1.512-6.157l1.081-6.264l0.432-2.808l0.107-2.808l0.217-2.808l0.215-2.7v-3.025l-0.215-2.807
				l-0.217-2.701l-0.107-2.808l-0.432-2.808l-0.324-2.915l-0.541-2.808l-0.647-2.808l-0.541-2.808l-0.756-2.7l-0.649-2.808
				l-0.971-2.808l-0.973-2.808l-1.08-2.591l-1.079-2.808l-1.188-2.593l-1.081-2.591l-1.512-2.701l-1.295-2.591l-1.405-2.484
				l-1.512-2.591l-1.512-2.593l-1.62-2.376l-1.729-2.483l-1.835-2.376l-1.837-2.376l-1.512-1.837l69.984-68.471l2.161,1.08
				l4.535,2.268l4.428,2.161l4.643,2.052l4.645,2.051l4.644,1.837l4.643,2.052l4.537,1.836l4.643,1.728l4.861,1.62l4.86,1.727
				l4.644,1.62l4.752,1.512l4.861,1.296l4.859,1.512l4.752,1.081l5.077,1.295l4.752,1.081l4.859,1.188l4.969,0.863l5.076,0.973
				l4.752,0.864l5.076,0.756l4.969,0.539l5.076,0.757l4.969,0.539l4.967,0.432l5.076,0.324l4.969,0.217l4.967,0.324h5.077h5.183
				h4.968h5.182l5.08-0.324l4.969-0.217l5.074-0.324l4.969-0.432l4.969-0.539l5.074-0.757l4.969-0.539l4.969-0.756l5.074-0.864
				l4.969-0.973l4.857-0.863l4.969-1.188l4.863-1.081l4.857-1.295l4.752-1.081l5.074-1.512l4.647-1.296l4.752-1.512l4.857-1.62
				l4.752-1.727l4.647-1.62l4.647-1.728l4.857-1.836l4.647-2.052l1.617-0.541L31.528,463.755L31.528,463.755z M468.929,278.969
				v314.604l-5.508,2.376l-9.832,3.779l-10.043,3.349l-10.043,3.349l-10.154,3.132l-1.723,0.322V314.608L468.929,278.969
				L468.929,278.969z M371.188,352.625v271.944l-7.992,2.593l-9.287,3.132l-9.287,3.346l-8.643,3.565l-8.426,3.888l-3.668,2.051
				V388.265L371.188,352.625L371.188,352.625z M519.794,376.709l0.328,0.756l3.563,5.94l3.562,5.725l3.457,5.94l3.563,5.94
				l3.351,5.94l3.346,5.94l3.129,5.94l2.918,6.155l2.807,5.941l2.596,6.047l2.268,6.155l2.051,6.264l1.617,6.158l1.301,6.264
				l0.973,6.372l0.539,6.481l0.217,6.477l-0.433,6.697l-0.867,6.697l-1.295,6.694l-1.945,7.019l-3.885,10.368l-4.646,9.613
				l-5.18,8.965l-5.725,8.314l-6.481,7.67l-6.914,7.019l-4.213,3.457V376.709L519.794,376.709z"/>
			<path style="fill-rule:evenodd;clip-rule:evenodd;fill:none;stroke:#000000;stroke-width:3.348;stroke-miterlimit:2.4142;" d="
				M169.66,205.529c31.752,0,58.211,25.597,58.211,57.349s-26.459,57.779-58.211,57.779c-31.428,0-57.349-25.921-57.349-57.779
				C112.311,231.125,138.232,205.529,169.66,205.529L169.66,205.529z"/>
			<path style="fill-rule:evenodd;clip-rule:evenodd;fill:none;stroke:#000000;stroke-width:3.348;stroke-miterlimit:2.4142;" d="
				M187.912,275.837c6.804-4.752,14.58-5.725,17.711-1.296c2.917,3.996-0.324,11.341-7.343,15.984
				c-6.589,4.752-14.364,5.508-17.496,1.297C177.867,287.608,181.107,280.589,187.912,275.837L187.912,275.837z"/>
			<path style="fill-rule:evenodd;clip-rule:evenodd;fill:none;stroke:#000000;stroke-width:3.348;stroke-miterlimit:2.4142;" d="
				M192.123,293.873c1.405,8.423,0.324,16.415-2.915,23.543"/>
			<path style="fill-rule:evenodd;clip-rule:evenodd;fill:none;stroke:#000000;stroke-width:3.348;stroke-miterlimit:2.4142;" d="
				M203.571,285.988c7.345,1.513,12.961,3.349,18.684,2.917"/>
			<path style="fill-rule:evenodd;clip-rule:evenodd;fill:none;stroke:#000000;stroke-width:3.348;stroke-miterlimit:2.4142;" d="
				M205.84,274.54c9.828-3.456,17.603-11.556,21.707-17.928"/>
			<path style="fill-rule:evenodd;clip-rule:evenodd;fill:none;stroke:#000000;stroke-width:3.348;stroke-miterlimit:2.4142;" d="
				M200.332,271.193c5.508-20.089,5.508-39.744-5.293-59.077"/>
			<path style="fill-rule:evenodd;clip-rule:evenodd;fill:none;stroke:#000000;stroke-width:3.348;stroke-miterlimit:2.4142;" d="
				M191.691,274.108c-9.287-23.543-18.576-46.332-35.748-66.527"/>
			<path style="fill-rule:evenodd;clip-rule:evenodd;fill:none;stroke:#000000;stroke-width:3.348;stroke-miterlimit:2.4142;" d="
				M182.295,282.317c-24.083-11.773-44.387-28.405-60.587-49.572"/>
			<path style="fill-rule:evenodd;clip-rule:evenodd;fill:none;stroke:#000000;stroke-width:3.348;stroke-miterlimit:2.4142;" d="
				M180.567,289.337c-26.783,7.236-48.708-2.376-68.039-14.796"/>
			<path style="fill-rule:evenodd;clip-rule:evenodd;fill:none;stroke:#000000;stroke-width:3.348;stroke-miterlimit:2.4142;" d="
				M182.943,293.116c-8.316,13.932-24.407,21.601-35.748,22.68"/>
			<path style="fill-rule:evenodd;clip-rule:evenodd;fill:#FFFFFF;" d="M124.191,485.034l14.473-8.857
				c0,3.563,1.297,6.694,5.616,7.775c3.672,0.973,17.172-7.992,20.304-13.608c4.211-7.667,2.915-21.059-2.269-21.059
				c-6.155,0-19.979,15.12-28.835,15.12c-1.08,0-6.696,1.834-8.748-6.697c-0.541-2.159-0.541-23.543-0.541-27.756
				c0-17.496,6.589-20.951,20.845-30.24c4.967-3.132,17.279-8.856,25.704-10.583l2.376-8.965l9.18-4.967l0.109,31.967l-13.824,5.293
				c0-3.132-2.593-3.996-3.672-3.888c-5.616,0.971-15.12,6.804-20.628,13.391c0,0-3.781,14.364,0.756,18.035
				c2.591,2.162,23.76-17.171,31.967-15.011c0,0,6.696,2.267,7.236,4.104c2.593,7.236,2.267,35.317,0,40.069
				c-4.32,9.935-22.787,21.706-31.86,25.919c-0.432,0-13.392,3.671-16.308,7.345v7.45l-11.987,6.914L124.191,485.034
				L124.191,485.034z M203.032,445.503c0.971-0.539,1.835-0.97,2.808-1.512c0.864,0,1.62,0.217,2.159,0.756
				c0.324,0.542,0.756,1.298,0.756,2.593c0,1.081-0.432,2.159-0.756,3.457c-0.539,1.295-1.295,2.376-2.159,3.779
				c-0.973,1.295-1.837,2.376-2.808,3.132c-1.62,1.081-2.917,1.403-4.213,1.081c-0.863-0.542-1.403-1.406-1.403-2.918
				c0-1.295,0.215-2.59,0.541-3.671c0.756-1.403,1.295-2.484,2.159-3.779C201.088,447.34,201.952,446.154,203.032,445.503
				L203.032,445.503z M231.759,341.608l65.881-48.384v27.973l-13.176,8.531v-3.779c0-2.161-0.756-6.264-0.756-6.589
				c0-0.756-1.081-0.863-2.161-0.863c-1.512,0-18.252,13.607-22.789,18.252v26.027l14.797-10.583v16.308l-15.012,10.151
				l0.215,12.853c0,1.727-0.756,7.992,3.673,7.667c0.864,0,6.157-5.184,9.612-7.02l0.324,12.312l-40.068,29.484v-12.205
				c5.293-3.454,8.207-5.074,8.207-13.498v-52.381c0-6.047-2.591-7.452-8.639-5.291L231.759,341.608L231.759,341.608z
				 M295.371,376.492c0.973-0.756,1.837-1.08,2.808-1.512c0.864,0,1.621,0.217,2.16,0.649c0.324,0.647,0.756,1.403,0.756,2.7
				c0,0.864-0.432,2.159-0.756,3.24c-0.539,1.512-1.295,2.591-2.16,3.996c-0.971,1.295-1.835,2.268-2.808,2.915
				c-1.62,1.296-2.915,1.512-4.211,1.296c-0.865-0.541-1.405-1.403-1.405-3.023c0-1.188,0.217-2.376,0.54-3.672
				c0.756-1.296,1.297-2.376,2.161-3.888C293.427,378.329,294.507,377.249,295.371,376.492L295.371,376.492z M382.96,257.153
				l0.65-6.264c0.539-4.32-2.273-5.616-6.053-3.564c-3.457,1.944-9.504,4.535-16.307,10.045c-3.457,2.915-4.101,10.692-4.101,16.739
				v37.368c0,10.045,4.641,9.504,4.641,9.504c8.426-0.539,21.387-10.583,21.17-14.58l-0.539-16.632l16.629-11.665l-0.756,25.597
				c-0.322,10.692-15.445,20.411-26.244,28.403c-7.881,5.725-15.656,10.26-19.652,12.312c-9.399,4.645-16.096,1.405-16.096-16.091
				l-0.217-39.853c0-35.207,9.182-41.039,32.508-53.568c2.918-1.729,10.371-4.428,15.123-3.888
				c1.078-2.161,0.434-9.504,2.807-12.529l12.527-6.803l-0.322,33.264L382.96,257.153L382.96,257.153z M423.026,282.1
				c0.867-0.647,1.729-1.079,2.701-1.403c0.861,0,1.617,0.215,2.162,0.539c0.427,0.756,0.756,1.405,0.756,2.701
				c0,0.971-0.328,2.268-0.756,3.347c-0.545,1.405-1.301,2.484-2.162,3.781c-0.973,1.512-1.834,2.376-2.701,3.132
				c-1.729,1.295-2.912,1.403-4.213,1.295c-0.973-0.756-1.512-1.512-1.512-3.132c0-1.295,0.217-2.376,0.539-3.671
				c0.545-1.296,1.301-2.376,2.274-3.781C420.975,283.937,421.837,282.856,423.026,282.1L423.026,282.1z"/>
		</g>
	</g>
</g>
</svg>
