<?xml version="1.0" encoding="iso-8859-1"?>
<!-- Generator: Adobe Illustrator 23.0.1, SVG Export Plug-In . SVG Version: 6.00 Build 0)  -->
<svg version="1.1" xmlns="http://www.w3.org/2000/svg" xmlns:xlink="http://www.w3.org/1999/xlink" x="0px" y="0px"
	 viewBox="0 0 595.276 841.89" style="enable-background:new 0 0 595.276 841.89;" xml:space="preserve">
<g id="Grade" style="display:none;">
</g>
<g id="HQFL">
</g>
<g id="&#xC1;rea_de_trabalho">
</g>
<g id="Linhas-guia">
</g>
<g id="Page_1">
	<g id="HQFL_1_">
		<g>
			<g>
				<path style="fill-rule:evenodd;clip-rule:evenodd;fill:#0073BD;" d="M23.738,460.333l2.994,12.69l-3.573,0.845
					c-1.668,0.389-2.696,0.8-3.089,1.227c-0.388,0.435-0.499,1.02-0.324,1.752c0.19,0.808,0.64,1.341,1.348,1.615
					c0.708,0.267,1.687,0.259,2.933-0.046c1.588-0.365,2.731-0.892,3.431-1.569c0.708-0.647,1.387-2.163,2.034-4.547
					c1.885-6.833,3.694-11.297,5.431-13.368c1.745-2.072,4.97-3.664,9.685-4.776c3.405-0.8,6.022-0.96,7.853-0.465
					c1.836,0.487,3.588,1.858,5.268,4.099c1.676,2.254,2.91,5.034,3.694,8.363c0.861,3.641,0.963,6.901,0.32,9.78
					c-0.647,2.88-1.851,4.937-3.61,6.2c-1.756,1.257-4.43,2.309-8.017,3.154l-3.158,0.746l-2.997-12.69l5.85-1.386
					c1.809-0.427,2.929-0.869,3.348-1.348c0.423-0.48,0.525-1.165,0.312-2.064c-0.213-0.906-0.693-1.508-1.447-1.79
					c-0.75-0.289-1.771-0.281-3.069,0.024c-2.826,0.67-4.574,1.523-5.241,2.559c-0.682,1.066-1.634,3.535-2.853,7.389
					c-1.261,3.87-2.225,6.468-2.891,7.785c-0.667,1.31-1.733,2.529-3.203,3.634c-1.466,1.104-3.482,1.965-6.044,2.566
					c-3.66,0.868-6.463,0.99-8.406,0.366c-1.942-0.617-3.66-1.95-5.156-4.007c-1.497-2.049-2.624-4.692-3.386-7.914
					c-0.834-3.527-1.017-6.65-0.56-9.377c0.461-2.734,1.39-4.692,2.792-5.873c1.405-1.181,4.01-2.225,7.823-3.123L23.738,460.333
					L23.738,460.333z"/>
				<path style="fill-rule:evenodd;clip-rule:evenodd;fill:#0073BD;" d="M33.407,418.484c4.936-0.419,8.436-0.59,10.508-0.514
					c2.072,0.08,4.011,0.712,5.82,1.9c1.812,1.184,3.264,2.875,4.361,5.069c1.097,2.19,1.774,4.795,2.034,7.811
					c0.244,2.864,0.038,5.477-0.613,7.823c-0.651,2.354-1.779,4.296-3.378,5.834c-1.6,1.531-3.401,2.514-5.408,2.956
					c-2.003,0.442-5.526,0.868-10.572,1.303l-8.395,0.716c-4.935,0.419-8.436,0.594-10.508,0.51c-2.072-0.076-4.01-0.7-5.819-1.889
					c-1.813-1.189-3.271-2.879-4.38-5.073c-1.108-2.186-1.79-4.791-2.049-7.816c-0.243-2.856-0.034-5.469,0.632-7.818
					c0.662-2.354,1.794-4.296,3.393-5.831c1.604-1.535,3.398-2.521,5.389-2.959c1.996-0.434,5.526-0.868,10.592-1.303
					L33.407,418.484L33.407,418.484z M18.448,433.832c-2.297,0.19-3.752,0.449-4.373,0.776c-0.613,0.328-0.887,0.906-0.815,1.744
					c0.057,0.701,0.366,1.227,0.914,1.555c0.552,0.335,2.099,0.388,4.639,0.175l22.951-1.965c2.868-0.244,4.624-0.518,5.268-0.823
					c0.639-0.297,0.922-0.906,0.845-1.805c-0.08-0.922-0.51-1.479-1.295-1.676c-0.785-0.19-2.632-0.168-5.546,0.091L18.448,433.832
					L18.448,433.832z"/>
				<path style="fill-rule:evenodd;clip-rule:evenodd;fill:#0073BD;" d="M28.083,378.051l-0.933,13.986l-8.535-0.571
					c-2.483-0.164-4.041-0.118-4.677,0.134c-0.636,0.251-0.986,0.876-1.051,1.874c-0.076,1.131,0.251,1.873,0.982,2.228
					c0.735,0.354,2.346,0.613,4.845,0.781l22.886,1.531c2.388,0.156,3.953,0.11,4.704-0.144c0.75-0.255,1.162-0.914,1.234-1.981
					c0.068-1.021-0.255-1.714-0.971-2.076c-0.716-0.366-2.438-0.64-5.16-0.823l-6.231-0.415l0.937-13.985l1.931,0.129
					c5.1,0.343,8.695,0.975,10.782,1.901c2.091,0.929,3.843,2.788,5.26,5.575c1.417,2.792,1.996,6.151,1.733,10.078
					c-0.274,4.086-1.173,7.411-2.692,9.971c-1.523,2.555-3.516,4.189-5.979,4.886c-2.464,0.705-6.098,0.892-10.908,0.571
					l-14.362-0.96c-3.554-0.24-6.201-0.548-7.949-0.929c-1.744-0.385-3.398-1.288-4.955-2.712c-1.558-1.424-2.723-3.333-3.508-5.724
					c-0.781-2.392-1.07-5.1-0.868-8.124c0.274-4.105,1.227-7.45,2.853-10.024c1.63-2.575,3.554-4.208,5.774-4.902
					c2.22-0.697,5.626-0.891,10.218-0.583L28.083,378.051L28.083,378.051z"/>
				<polygon style="fill-rule:evenodd;clip-rule:evenodd;fill:#0073BD;" points="10.941,353.566 59.481,362.516 56.941,376.299 
					8.4,367.349 10.941,353.566 				"/>
				<polygon style="fill-rule:evenodd;clip-rule:evenodd;fill:#0073BD;" points="12.875,344.422 19.305,322.05 28.791,324.777 
					26.232,333.681 35.251,336.271 37.643,327.957 46.661,330.547 44.273,338.865 54.698,341.863 57.524,332.021 67.01,334.748 
					60.311,358.06 12.875,344.422 				"/>
				<path style="fill-rule:evenodd;clip-rule:evenodd;fill:#0073BD;" d="M22.511,312.395l4.197-9.552
					c2.711-6.166,4.81-10.219,6.292-12.161c1.482-1.939,3.066-3.215,4.749-3.828c1.687-0.609,3.321-0.735,4.905-0.377
					c1.584,0.362,4.517,1.478,8.798,3.359l15.821,6.958c4.06,1.783,6.68,3.18,7.868,4.201c1.188,1.017,1.939,2.205,2.255,3.576
					c0.316,1.371,0.297,2.879-0.065,4.528c-0.362,1.653-1.215,4.003-2.555,7.054l-7.08,16.103L22.511,312.395L22.511,312.395z
					 M35.849,302.95l29.79,13.094c0.781-1.783,0.922-3.024,0.423-3.736c-0.499-0.713-2.254-1.729-5.263-3.051l-17.592-7.732
					c-2.053-0.903-3.401-1.413-4.04-1.531c-0.636-0.118-1.204,0.008-1.695,0.378C36.984,300.741,36.443,301.602,35.849,302.95
					L35.849,302.95z"/>
				<path style="fill-rule:evenodd;clip-rule:evenodd;fill:#0073BD;" d="M53.509,252.901l46.069,19.447l-7.594,12.104l-7.937-4.091
					l-2.712,4.323l7.118,5.393l-7.659,12.207l-38.006-32.297L53.509,252.901L53.509,252.901z M76.365,276.095
					c-5.016-2.411-11.243-5.518-18.681-9.315c7.332,6.261,12.717,10.705,16.156,13.337L76.365,276.095L76.365,276.095z"/>
				<path style="fill-rule:evenodd;clip-rule:evenodd;fill:#0073BD;" d="M62.646,239.666l6.768-7.941
					c4.372-5.126,7.545-8.405,9.525-9.841c1.977-1.432,3.862-2.197,5.648-2.3c1.79-0.099,3.39,0.251,4.807,1.051
					c1.413,0.8,3.9,2.715,7.457,5.747l13.159,11.212c3.371,2.875,5.481,4.966,6.326,6.284c0.842,1.314,1.219,2.674,1.131,4.075
					c-0.091,1.405-0.545,2.845-1.367,4.319c-0.823,1.478-2.316,3.485-4.475,6.021l-11.411,13.387L62.646,239.666L62.646,239.666z
					 M78.14,234.452l24.767,21.107c1.261-1.481,1.752-2.632,1.478-3.459c-0.274-0.822-1.661-2.3-4.163-4.433l-14.625-12.465
					c-1.706-1.455-2.853-2.331-3.428-2.628c-0.579-0.294-1.158-0.336-1.733-0.126C79.861,232.662,79.095,233.329,78.14,234.452
					L78.14,234.452z"/>
				<polygon style="fill-rule:evenodd;clip-rule:evenodd;fill:#0073BD;" points="91.054,207.891 108.361,192.325 114.961,199.665 
					108.075,205.858 114.351,212.835 120.785,207.046 127.061,214.023 120.628,219.812 127.884,227.875 135.493,221.027 
					142.097,228.366 124.067,244.587 91.054,207.891 				"/>
				<polygon style="fill-rule:evenodd;clip-rule:evenodd;fill:#0073BD;" points="126.859,178.28 146.454,165.715 151.783,174.025 
					143.986,179.022 149.052,186.925 156.338,182.252 161.403,190.151 154.117,194.824 159.975,203.953 168.594,198.427 
					173.922,206.738 153.504,219.831 126.859,178.28 				"/>
				<path style="fill-rule:evenodd;clip-rule:evenodd;fill:#0073BD;" d="M188.231,161.636l-11.788,5.575l-1.569-3.321
					c-0.735-1.55-1.352-2.468-1.851-2.765c-0.499-0.29-1.093-0.275-1.778,0.049c-0.747,0.354-1.181,0.907-1.295,1.653
					c-0.114,0.751,0.103,1.703,0.651,2.86c0.697,1.474,1.447,2.487,2.25,3.032c0.785,0.556,2.411,0.903,4.875,1.04
					c7.077,0.419,11.815,1.261,14.203,2.529c2.392,1.272,4.624,4.094,6.691,8.474c1.497,3.161,2.194,5.69,2.095,7.583
					c-0.099,1.897-1.07,3.9-2.917,6.01c-1.847,2.106-4.315,3.892-7.4,5.351c-3.39,1.604-6.559,2.384-9.503,2.35
					c-2.951-0.034-5.222-0.777-6.817-2.235c-1.596-1.455-3.184-3.851-4.757-7.187l-1.39-2.933l11.792-5.572l2.567,5.431
					c0.796,1.683,1.47,2.681,2.023,2.993c0.552,0.317,1.245,0.274,2.087-0.122c0.838-0.4,1.322-0.994,1.447-1.79
					c0.125-0.796-0.095-1.794-0.667-2.998c-1.242-2.628-2.441-4.159-3.595-4.593c-1.181-0.445-3.789-0.86-7.819-1.249
					c-4.048-0.427-6.787-0.83-8.211-1.208c-1.428-0.381-2.834-1.169-4.224-2.377c-1.39-1.2-2.647-2.994-3.774-5.374
					c-1.608-3.401-2.312-6.116-2.11-8.143c0.202-2.03,1.15-3.991,2.849-5.884c1.695-1.889,4.041-3.542,7.034-4.959
					c3.275-1.55,6.292-2.38,9.061-2.502c2.765-0.118,4.871,0.385,6.318,1.508c1.451,1.127,3.013,3.462,4.685,7L188.231,161.636
					L188.231,161.636z"/>
				<path style="fill-rule:evenodd;clip-rule:evenodd;fill:#0073BD;" d="M192.039,144.151l13.44-4.17
					c3.637-1.124,6.513-1.725,8.634-1.801c2.117-0.08,3.82,0.225,5.107,0.902c1.287,0.682,2.323,1.668,3.112,2.971
					c0.785,1.299,1.638,3.432,2.556,6.395l1.272,4.098c0.929,3.005,1.276,5.31,1.032,6.905c-0.247,1.592-1.158,3.035-2.735,4.327
					c-1.573,1.291-3.816,2.384-6.725,3.287l-3.573,1.108l5.884,18.974l-13.387,4.148L192.039,144.151L192.039,144.151z
					 M207.917,148.031l3.743,12.073c0.381-0.095,0.705-0.183,0.979-0.267c1.208-0.377,1.962-0.914,2.258-1.611
					c0.301-0.697,0.175-1.934-0.373-3.702l-1.208-3.896c-0.502-1.619-1.1-2.586-1.793-2.91
					C210.827,147.396,209.627,147.502,207.917,148.031L207.917,148.031z"/>
				<path style="fill-rule:evenodd;clip-rule:evenodd;fill:#0073BD;" d="M266.162,156.685c0.766,4.894,1.185,8.375,1.254,10.447
					c0.064,2.072-0.431,4.049-1.485,5.938c-1.059,1.889-2.64,3.458-4.749,4.707c-2.11,1.25-4.662,2.11-7.652,2.579
					c-2.841,0.446-5.458,0.423-7.85-0.061c-2.392-0.487-4.406-1.474-6.052-2.963c-1.646-1.489-2.754-3.214-3.329-5.183
					c-0.579-1.969-1.261-5.454-2.045-10.459l-1.306-8.322c-0.766-4.894-1.185-8.375-1.253-10.447
					c-0.068-2.068,0.427-4.049,1.485-5.937c1.055-1.889,2.64-3.466,4.746-4.723c2.11-1.261,4.658-2.125,7.651-2.594
					c2.837-0.446,5.454-0.419,7.85,0.076c2.392,0.499,4.41,1.493,6.056,2.978c1.642,1.489,2.75,3.215,3.328,5.168
					c0.575,1.958,1.257,5.45,2.046,10.474L266.162,156.685L266.162,156.685z M249.804,142.841c-0.358-2.274-0.72-3.71-1.085-4.304
					c-0.365-0.594-0.963-0.827-1.793-0.693c-0.705,0.111-1.2,0.45-1.493,1.025c-0.289,0.571-0.24,2.117,0.156,4.635l3.569,22.757
					c0.45,2.845,0.846,4.578,1.192,5.195c0.347,0.621,0.967,0.857,1.862,0.716c0.914-0.141,1.439-0.609,1.577-1.405
					c0.141-0.796-0.019-2.64-0.472-5.53L249.804,142.841L249.804,142.841z"/>
				<path style="fill-rule:evenodd;clip-rule:evenodd;fill:#0073BD;" d="M272.56,127.294l9.891-0.076
					c6.593-0.049,11.061,0.152,13.398,0.598c2.339,0.449,4.251,1.627,5.736,3.538c1.485,1.912,2.247,4.966,2.277,9.164
					c0.03,3.824-0.473,6.394-1.509,7.72c-1.028,1.321-3.069,2.125-6.124,2.415c2.772,0.621,4.638,1.458,5.598,2.506
					c0.96,1.047,1.561,2.019,1.798,2.902c0.236,0.887,0.373,3.328,0.403,7.328l0.1,13.029l-13.041,0.099l-0.122-16.438
					c-0.019-2.643-0.255-4.281-0.7-4.909c-0.45-0.628-1.611-0.941-3.489-0.926l0.168,22.303l-14.016,0.103L272.56,127.294
					L272.56,127.294z M286.641,135.596l0.08,10.969c1.531-0.011,2.605-0.217,3.214-0.62c0.613-0.4,0.915-1.684,0.895-3.851
					l-0.019-2.715c-0.012-1.569-0.316-2.594-0.914-3.078C289.299,135.821,288.214,135.585,286.641,135.596L286.641,135.596z"/>
				<polygon style="fill-rule:evenodd;clip-rule:evenodd;fill:#0073BD;" points="342.787,131.59 341.507,141.378 333.288,140.3 
					328.154,179.452 314.253,177.628 319.387,138.476 311.176,137.398 312.455,127.61 342.787,131.59 				"/>
				<polygon style="fill-rule:evenodd;clip-rule:evenodd;fill:#0073BD;" points="363.392,136.556 351.95,184.571 338.323,181.322 
					349.757,133.308 363.392,136.556 				"/>
				<path style="fill-rule:evenodd;clip-rule:evenodd;fill:#0073BD;" d="M404.228,150.225l-23.446,44.016l-19.881-7.183
					l9.164-49.169l13.87,5.008c-3.062,13.383-5.858,24.646-8.379,33.79c3.931-8.757,7.557-16.453,10.862-23.088l3.938-8.383
					L404.228,150.225L404.228,150.225z"/>
				<path style="fill-rule:evenodd;clip-rule:evenodd;fill:#0073BD;" d="M431.694,164.473l-15.95,47.394l-12.629-6.669l3.48-8.218
					l-4.516-2.385l-4.845,7.503l-12.751-6.726l29.372-40.314L431.694,164.473L431.694,164.473z M410.275,188.997
					c2.026-5.18,4.661-11.62,7.892-19.321c-5.698,7.777-9.727,13.478-12.097,17.105L410.275,188.997L410.275,188.997z"/>
				<path style="fill-rule:evenodd;clip-rule:evenodd;fill:#0073BD;" d="M490.949,208.566l-31.894,37.674l-9.301-7.872l21.473-25.46
					l-25.197,22.311l-6.688-5.671l17.184-28.13l-21.1,24.824l-9.293-7.876l31.886-37.675l13.833,11.715
					c-1.584,2.594-3.428,5.633-5.545,9.114l-6.582,10.835l17.383-15.501L490.949,208.566L490.949,208.566z"/>
				<path style="fill-rule:evenodd;clip-rule:evenodd;fill:#0073BD;" d="M514.486,235.805l-32.549,37.968l-9.217-10.919l6.315-6.315
					l-3.298-3.9l-7.297,5.142l-9.3-11.011l42.328-26.374L514.486,235.805L514.486,235.805z M485.441,250.521
					c3.817-4.044,8.669-9.03,14.549-14.96c-8.196,5.077-14.062,8.851-17.618,11.327L485.441,250.521L485.441,250.521z"/>
				<polygon style="fill-rule:evenodd;clip-rule:evenodd;fill:#0073BD;" points="536.903,268.208 528.661,273.647 524.099,266.73 
					491.147,288.485 483.423,276.789 516.383,255.034 511.813,248.118 520.054,242.679 536.903,268.208 				"/>
				<path style="fill-rule:evenodd;clip-rule:evenodd;fill:#0073BD;" d="M528.769,316.885c-4.464,2.129-7.687,3.523-9.651,4.178
					c-1.973,0.655-4.007,0.743-6.116,0.271c-2.118-0.476-4.068-1.547-5.865-3.211c-1.798-1.668-3.351-3.866-4.654-6.6
					c-1.234-2.594-1.958-5.107-2.179-7.537c-0.221-2.434,0.16-4.647,1.112-6.646c0.96-2,2.3-3.557,4.021-4.673
					c1.722-1.112,4.867-2.761,9.438-4.936l7.61-3.626c4.471-2.133,7.685-3.527,9.65-4.178c1.966-0.659,4.007-0.747,6.124-0.274
					c2.102,0.476,4.069,1.542,5.881,3.203c1.798,1.664,3.359,3.858,4.662,6.596c1.233,2.594,1.957,5.107,2.163,7.545
					c0.205,2.438-0.168,4.654-1.128,6.653c-0.959,2-2.3,3.554-4.006,4.662c-1.714,1.112-4.861,2.761-9.453,4.947L528.769,316.885
					L528.769,316.885z M537.376,297.256c2.079-0.99,3.351-1.744,3.823-2.266c0.457-0.518,0.511-1.158,0.153-1.916
					c-0.305-0.643-0.776-1.021-1.409-1.139c-0.632-0.114-2.103,0.377-4.402,1.47l-20.787,9.91c-2.606,1.242-4.159,2.114-4.647,2.624
					c-0.495,0.51-0.549,1.173-0.152,1.988c0.395,0.838,0.99,1.207,1.797,1.112c0.8-0.095,2.521-0.773,5.165-2.03L537.376,297.256
					L537.376,297.256z"/>
				<polygon style="fill-rule:evenodd;clip-rule:evenodd;fill:#0073BD;" points="567.845,344.563 520.61,358.875 517.076,347.21 
					536.431,333.708 514.95,340.213 511.561,329.016 558.795,314.703 562.192,325.901 543.18,339.813 564.455,333.365 
					567.845,344.563 				"/>
				<polygon style="fill-rule:evenodd;clip-rule:evenodd;fill:#0073BD;" points="569.978,355.021 573.732,377.994 563.99,379.587 
					562.497,370.442 553.234,371.954 554.636,380.497 545.374,382.009 543.972,373.47 533.269,375.218 534.923,385.322 
					525.173,386.91 521.272,362.977 569.978,355.021 				"/>
				<polygon style="fill-rule:evenodd;clip-rule:evenodd;fill:#0073BD;" points="575.888,419.124 526.56,420.647 526.179,408.463 
					548.383,400.465 525.95,401.155 525.599,389.462 574.929,387.939 575.294,399.635 553.311,408.117 575.53,407.431 
					575.888,419.124 				"/>
				<path style="fill-rule:evenodd;clip-rule:evenodd;fill:#0073BD;" d="M557.149,458.024l1.463-12.956l3.656,0.411
					c1.698,0.198,2.803,0.152,3.321-0.115c0.51-0.266,0.808-0.785,0.899-1.539c0.092-0.814-0.152-1.477-0.732-1.973
					c-0.578-0.487-1.492-0.808-2.772-0.952c-1.614-0.183-2.871-0.084-3.763,0.32c-0.884,0.373-2.034,1.568-3.45,3.595
					c-4.083,5.797-7.29,9.377-9.629,10.74c-2.338,1.363-5.918,1.776-10.733,1.227c-3.474-0.397-5.987-1.135-7.549-2.217
					c-1.561-1.081-2.749-2.963-3.572-5.644c-0.814-2.681-1.036-5.72-0.647-9.109c0.419-3.726,1.425-6.833,3.009-9.316
					c1.585-2.491,3.413-4.029,5.492-4.616c2.079-0.59,4.943-0.678,8.615-0.263l3.222,0.37l-1.47,12.956l-5.972-0.677
					c-1.852-0.213-3.055-0.167-3.611,0.137c-0.556,0.305-0.883,0.921-0.99,1.843c-0.107,0.922,0.145,1.646,0.755,2.171
					c0.609,0.525,1.576,0.868,2.901,1.014c2.88,0.327,4.814,0.114,5.797-0.633c0.998-0.776,2.728-2.772,5.18-5.987
					c2.491-3.222,4.281-5.339,5.356-6.352c1.066-1.005,2.482-1.79,4.234-2.338c1.76-0.545,3.946-0.671,6.566-0.374
					c3.732,0.427,6.414,1.257,8.028,2.499c1.615,1.233,2.788,3.077,3.504,5.515c0.716,2.438,0.884,5.302,0.503,8.592
					c-0.403,3.596-1.287,6.605-2.636,9.02c-1.356,2.414-2.894,3.945-4.616,4.577c-1.721,0.641-4.524,0.739-8.424,0.298
					L557.149,458.024L557.149,458.024z"/>
				<polygon style="fill-rule:evenodd;clip-rule:evenodd;fill:#0073BD;" points="569.97,469.998 564.394,492.599 554.812,490.238 
					557.028,481.242 547.918,478.994 545.846,487.396 536.735,485.149 538.807,476.747 528.28,474.15 525.828,484.09 
					516.238,481.721 522.05,458.176 569.97,469.998 				"/>
			</g>
			<path style="fill-rule:evenodd;clip-rule:evenodd;fill:#0073BD;" d="M290.24,628.078c-15.162-21.343-48.857-24.146-74.69-39.311
				c-28.645-15.729-56.721-38.186-70.764-64.587c-30.887-58.408-21.339-76.934,1.684-101.087
				c20.22-21.899,52.791-46.05,38.752-90.979c-6.178-20.216-26.394-39.309-55.038-37.065c7.301-20.216,19.096-36.501,34.822-49.421
				c19.652,7.865,39.309,19.097,56.722-19.656c18.533,19.656,38.188,19.656,44.366-10.108c15.721,0,32.011,0,48.296,0
				c5.614,29.764,25.274,29.764,44.363,10.108c17.412,38.752,36.509,27.52,56.161,19.656c15.729,12.919,28.085,29.204,34.818,49.421
				c-28.641-2.243-48.857,16.849-55.034,37.065c-14.039,44.93,18.532,69.08,39.313,90.979
				c22.463,24.154,32.007,42.679,1.127,101.087c-14.046,26.401-41.56,48.857-70.2,64.587
				C338.536,603.931,305.401,606.735,290.24,628.078L290.24,628.078z"/>
			<path style="fill-rule:evenodd;clip-rule:evenodd;fill:#FFFFFF;" d="M378.412,264.723l-185.89,122.427
				c6.178-11.791,8.985-24.71,8.425-39.872c-1.124-11.795-3.931-21.903-9.548-32.011c-9.548-15.725-24.71-26.957-42.119-30.888
				c4.49-8.988,11.231-16.849,18.533-23.586c2.807,2.807,17.969,5.614,22.463,5.614c16.85-0.56,25.274-7.301,35.382-20.216
				c21.34,12.355,41.56,6.737,49.98-17.409h29.2c8.988,24.147,28.641,29.764,49.984,17.409
				C362.127,255.735,368.868,261.912,378.412,264.723L378.412,264.723z"/>
			<path style="fill-rule:evenodd;clip-rule:evenodd;fill:#FFFFFF;" d="M400.876,264.723L170.06,417.478
				c-10.672,10.668-21.903,21.344-28.644,34.262c-7.301,16.842-0.56,35.938,7.301,52.787l230.816-152.758
				c0.564-31.448,19.097-60.652,51.675-67.39c-5.058-8.988-11.235-16.849-18.54-23.586
				C408.736,262.476,404.806,263.6,400.876,264.723L400.876,264.723z"/>
			<path style="fill-rule:evenodd;clip-rule:evenodd;fill:#0073BD;" d="M233.519,278.761c17.973,0,32.575,14.603,32.575,32.575
				c0,17.969-14.602,32.571-32.575,32.571c-17.969,0-32.572-14.602-32.572-32.571C200.947,293.364,215.55,278.761,233.519,278.761
				L233.519,278.761z"/>
			<path style="fill-rule:evenodd;clip-rule:evenodd;fill:#FFFFFF;" d="M212.179,293.924c0,2.811,0,5.058,0.56,7.865
				c3.371,0.56,6.177,2.247,9.548,3.931c2.807-2.807,5.054-4.494,8.985-6.178c-1.123-3.371-1.123-6.737-1.123-10.671
				c-2.807-0.56-6.738-2.244-9.545-3.367C217.233,287.746,212.739,289.993,212.179,293.924L212.179,293.924z"/>
			<path style="fill-rule:evenodd;clip-rule:evenodd;fill:#FFFFFF;" d="M238.573,288.31l-2.247,0.56c0,3.934,0,6.741-1.12,10.671
				c3.931,1.684,6.178,3.371,8.984,6.178c3.371-1.684,6.178-3.37,9.548-3.931c1.12-3.93,0.56-6.177,0.56-9.548
				C249.244,286.626,245.314,283.815,238.573,288.31L238.573,288.31z"/>
			<path style="fill-rule:evenodd;clip-rule:evenodd;fill:#FFFFFF;" d="M211.056,327.058c1.684,0.564,3.931,1.124,6.178,1.124
				c1.683-2.807,3.93-5.614,6.737-7.861c-2.243-3.37-2.807-6.741-3.367-10.672c-3.934,0-6.741-1.123-10.112-1.683
				c-2.243,1.683-4.49,5.054-6.178,7.301C204.878,320.881,206.002,324.252,211.056,327.058L211.056,327.058z"/>
			<path style="fill-rule:evenodd;clip-rule:evenodd;fill:#FFFFFF;" d="M248.68,309.649h-2.807
				c-0.56,3.931-1.124,7.301-3.371,10.672c2.811,2.247,5.058,5.054,6.741,7.861c9.548-1.124,11.795-3.93,12.915-12.915
				c-1.684-2.247-3.367-5.618-6.178-7.301C253.738,308.526,250.928,309.649,248.68,309.649L248.68,309.649z"/>
			<path style="fill-rule:evenodd;clip-rule:evenodd;fill:#FFFFFF;" d="M243.067,329.869c-1.683-2.247-3.371-4.494-3.93-6.741
				c-3.931,0-7.301,0.564-11.232,0c-1.124,2.807-3.371,5.618-5.618,8.424c3.931,7.861,6.178,10.108,16.286,7.861
				c1.687-2.243,4.494-5.054,5.618-7.861L243.067,329.869L243.067,329.869z"/>
			<path style="fill-rule:evenodd;clip-rule:evenodd;fill:#FFFFFF;" d="M372.235,371.424l-15.723,10.672v197.688
				c5.614-2.818,10.664-6.185,15.723-9.552V371.424L372.235,371.424z"/>
			<path style="fill-rule:evenodd;clip-rule:evenodd;fill:#FFFFFF;" d="M345.834,388.834l-10.664,7.301v192.631
				c3.931-1.12,7.297-2.812,10.664-4.494V388.834L345.834,388.834z"/>
			<path style="fill-rule:evenodd;clip-rule:evenodd;fill:#FFFFFF;" d="M227.905,466.898l-11.235,6.734v102.215
				c3.934,2.247,7.865,3.938,11.235,5.613V466.898L227.905,466.898z"/>
			<path style="fill-rule:evenodd;clip-rule:evenodd;fill:#FFFFFF;" d="M238.573,459.601v126.918h0.564
				c5.054,1.683,10.108,3.93,15.162,5.621V449.486L238.573,459.601L238.573,459.601z"/>
			<polygon style="fill-rule:evenodd;clip-rule:evenodd;fill:#0073BD;" points="253.738,377.042 267.777,367.494 285.75,383.22 
				286.309,383.22 278.448,360.757 292.488,351.209 311.023,379.849 303.162,384.904 287.433,361.317 295.294,389.957 
				287.433,395.575 264.407,376.479 280.132,400.069 272.271,405.123 253.738,377.042 			"/>
			<polygon style="fill-rule:evenodd;clip-rule:evenodd;fill:#0073BD;" points="205.438,408.494 230.148,392.768 234.082,398.382 
				218.357,408.494 222.287,414.108 236.326,404.559 240.26,410.177 225.657,419.725 229.588,425.903 245.314,415.231 
				248.68,420.849 224.534,437.13 205.438,408.494 			"/>
			<path style="fill-rule:evenodd;clip-rule:evenodd;fill:#0073BD;" d="M166.689,462.404l8.984-5.613
				c0.564,0.556,1.124,1.684,2.807,1.684c1.124,0.563,2.811,0,4.494-1.128c1.683-1.119,2.807-2.239,3.37-3.366
				c0.56-1.128,0.56-2.24,0-2.804c-0.564-0.563-1.123-1.127-1.687-1.127c-0.56,0-1.683,0-2.243,0c-0.564,0-1.687,0.564-2.247,0.564
				c-1.124,0.563-2.247,1.127-2.807,1.127c-2.811,1.112-5.058,2.24-7.301,2.804c-1.687,0.564-3.934,0.564-5.618,0
				c-1.683,0-3.37-1.691-4.494-3.367c-1.684-2.255-2.243-3.931-1.684-6.184c0-1.676,1.123-4.494,2.807-6.17
				c1.687-2.255,3.934-3.931,6.741-5.622c4.49-2.803,7.861-4.49,11.231-4.49c2.807,0,5.614,1.687,7.301,3.927
				c0,0.564,0,0.564,0.56,1.127l-8.984,5.622c-1.123-1.128-1.683-1.691-2.807-1.691c-1.687,0-2.811,0.564-3.931,1.128
				c-1.124,1.119-2.247,1.676-2.811,2.803c0,1.127,0,2.247,0.564,2.811c0.56,1.12,3.366,1.12,7.301-0.564
				c2.807-1.12,4.49-1.684,6.177-2.247c1.684-0.564,2.807-1.127,4.49-1.127c1.688-0.556,3.371,0,4.494,0.564
				c1.123,0.564,2.807,1.127,3.931,2.811c1.124,2.247,1.687,4.494,1.687,6.741c-0.564,2.239-1.687,4.494-3.371,6.178
				c-1.687,2.247-3.93,3.931-6.741,6.178c-2.807,1.683-6.177,3.366-8.424,3.93c-2.243,0.564-5.054,0.564-6.737,0
				C169.496,466.334,167.813,464.651,166.689,462.404L166.689,462.404z"/>
			<path style="fill-rule:evenodd;clip-rule:evenodd;fill:#0073BD;" d="M323.378,330.993l11.229-7.301l31.451,19.656l-10.108,6.737
				l-5.621-3.931l-13.475,8.425l1.683,7.301l-8.988,5.614L323.378,330.993L323.378,330.993z M344.158,341.66l-11.799-8.424
				l3.374,14.602L344.158,341.66L344.158,341.66z"/>
			<path style="fill-rule:evenodd;clip-rule:evenodd;fill:#0073BD;" d="M550.264,518.002c-23.026,5.613-41.56,20.779-53.351,34.817
				c-3.931-10.107,2.239-17.969-1.127-26.394c-34.263,17.405-12.355,65.714-37.065,82.556c-10.109-12.356,1.684-19.66-3.931-33.691
				c-26.401,16.849-23.583,64.016-49.42,70.2c-1.691-13.482,11.791-21.907,7.86-37.066c-31.443,10.101-42.686,53.351-64.578,56.718
				c-5.058-18.524,13.474-27.513,15.158-46.617c-34.819,3.93-45.49,38.192-68.517,57.281c-1.684,0-3.367,0.564-5.054,1.128
				c-1.684-0.564-3.371-1.128-4.49-1.128c-23.027-19.089-33.699-52.787-68.517-56.718c1.683,18.541,20.216,27.529,15.162,46.054
				c-21.903-3.366-33.135-46.617-64.583-56.718c-3.931,15.158,9.548,23.583,7.861,37.066c-25.834-5.621-22.463-53.351-49.42-69.644
				c-5.614,13.475,6.178,20.779-3.371,33.135c-25.27-16.842-3.367-64.586-38.188-81.991c-2.807,7.86,3.371,15.722-0.56,25.829
				c-11.231-14.038-30.328-29.204-52.791-34.817c0,39.311,56.162,43.806,59.528,73.574c-9.544-1.128-17.969-5.622-28.641-3.375
				c13.479,31.452,56.722,28.649,76.378,52.232c-9.548,1.684-17.969-5.058-28.081-0.563c38.752,38.192,59.532,16.849,89.296,25.273
				c-7.301,11.228-14.042,5.622-25.274,14.611c27.521,24.146,64.586-5.622,96.598,0c2.247,0.548,4.49,1.111,7.301,1.676
				c-13.478,7.86-23.59,19.652-33.135,33.698c2.807,1.691,5.054,2.803,7.861,3.931c9.548-15.158,22.463-25.838,37.065-33.135
				c14.598,7.297,27.517,18.54,38.189,33.135c2.247-1.128,5.05-2.24,7.305-3.367c-9.552-14.609-20.216-26.965-33.698-34.261
				c2.803-0.565,5.613-1.128,7.86-1.676c32.008-5.622,69.074,24.146,96.602,0c-10.68-8.988-17.976-3.383-25.273-14.611
				c29.76-8.988,51.104,12.919,89.288-25.837c-10.107-3.931-18.524,2.254-28.077,1.127c19.652-23.583,62.903-20.779,76.378-52.232
				c-11.235-2.81-19.097,2.247-28.641,2.812C493.539,561.808,550.264,557.314,550.264,518.002L550.264,518.002z"/>
		</g>
	</g>
</g>
</svg>
