<?xml version="1.0" encoding="iso-8859-1"?>
<!-- Generator: Adobe Illustrator 23.0.1, SVG Export Plug-In . SVG Version: 6.00 Build 0)  -->
<svg version="1.1" xmlns="http://www.w3.org/2000/svg" xmlns:xlink="http://www.w3.org/1999/xlink" x="0px" y="0px"
	 viewBox="0 0 595.276 841.89" style="enable-background:new 0 0 595.276 841.89;" xml:space="preserve">
<g id="Grade" style="display:none;">
</g>
<g id="HQFL">
</g>
<g id="&#xC1;rea_de_trabalho">
</g>
<g id="Linhas-guia">
</g>
<g id="Page_1">
	<g id="HQFL_1_">
		<g>
			<path style="fill-rule:evenodd;clip-rule:evenodd;fill:#C9252C;" d="M27.456,116.058v400.862
				c0,62.254,29.111,119.104,72.737,160.715c50.642,48.304,117.654,73.303,181.521,73.303c63.866,0,130.878-24.999,181.52-73.303
				c43.626-41.61,72.737-98.461,72.737-160.715V116.058H27.456L27.456,116.058z"/>
			<path style="fill-rule:evenodd;clip-rule:evenodd;fill:#FFFFFF;" d="M40.923,516.274c0,54.835,24.434,110.316,70.238,153.216
				c46.61,43.626,108.219,67.979,170.554,67.979c62.335,0,123.943-24.353,170.553-67.979c45.803-42.9,70.237-98.381,70.237-153.216
				V256.21H40.923V516.274L40.923,516.274z"/>
			<polygon style="fill-rule:evenodd;clip-rule:evenodd;fill:#FFFFFF;" points="40.923,129.605 40.923,242.743 522.505,242.743 
				522.505,129.605 40.923,129.605 			"/>
			<path style="fill-rule:evenodd;clip-rule:evenodd;fill:#C9252C;" d="M353.161,716.18c33.788-10.725,65.398-29.03,91.93-53.868
				c43.948-41.126,67.253-93.3,67.253-146.602V266.371H353.161V716.18L353.161,716.18z"/>
			<path style="fill-rule:evenodd;clip-rule:evenodd;fill:#0DB14B;" d="M51.083,266.371v249.339
				c0,53.303,23.305,105.477,67.254,146.602c26.531,24.838,58.142,43.144,91.93,53.868V266.371H51.083L51.083,266.371z"/>
			<polygon style="fill-rule:evenodd;clip-rule:evenodd;fill:#C9252C;" points="258.006,204.762 257.683,204.762 207.848,138.718 
				180.188,138.718 180.188,233.55 204.703,233.55 204.703,165.974 205.025,165.974 256.232,233.55 282.44,233.55 282.44,138.718 
				258.006,138.718 258.006,204.762 			"/>
			<path style="fill-rule:evenodd;clip-rule:evenodd;fill:#C9252C;" d="M123.418,179.521l-30.643-5.645
				c-5.241-0.968-13.225-2.5-13.225-9.919c0-8.548,11.854-11.37,21.854-11.37c22.902,0,24.998,10.08,25.724,14.273h25.16
				c-0.161-11.612-10.483-30.643-48.949-30.643c-40.804,0-48.303,18.628-48.303,29.192c0,20.886,19.596,24.272,39.917,27.82
				l13.467,2.419c13.225,2.338,22.66,4.355,22.66,11.774c0,9.999-13.789,12.257-26.208,12.257c-22.902,0-26.369-9.999-26.611-15.322
				H53.099c0,11.774,7.903,31.691,53.707,31.691c11.047,0,49.513-2.499,49.513-31.046
				C156.319,187.989,140.594,182.747,123.418,179.521L123.418,179.521z"/>
			<path style="fill-rule:evenodd;clip-rule:evenodd;fill:#C9252C;" d="M463.073,218.873c-22.176,0-31.127-15.321-31.127-32.337
				c0-26.772,18.548-33.143,31.127-33.143c21.692,0,25.724,10.726,27.82,16.37h26.208c-1.371-14.032-16.611-33.546-54.189-33.546
				c-32.337,0-57.739,16.934-57.739,50.078c0,32.74,24.031,49.754,57.417,49.754c31.449,0,49.271-14.354,54.512-34.997h-26.208
				C487.749,212.664,477.588,218.873,463.073,218.873L463.073,218.873z"/>
			<polygon style="fill-rule:evenodd;clip-rule:evenodd;fill:#C9252C;" points="310.986,233.55 337.274,233.55 337.274,193.634 
				392.513,193.634 392.513,176.86 337.274,176.86 337.274,155.491 400.415,155.491 400.415,138.718 310.986,138.718 
				310.986,233.55 			"/>
		</g>
	</g>
</g>
</svg>
