<?xml version="1.0" encoding="iso-8859-1"?>
<!-- Generator: Adobe Illustrator 23.0.1, SVG Export Plug-In . SVG Version: 6.00 Build 0)  -->
<svg version="1.1" xmlns="http://www.w3.org/2000/svg" xmlns:xlink="http://www.w3.org/1999/xlink" x="0px" y="0px"
	 viewBox="0 0 595.276 841.89" style="enable-background:new 0 0 595.276 841.89;" xml:space="preserve">
<g id="Grade" style="display:none;">
</g>
<g id="HQFL">
</g>
<g id="&#xC1;rea_de_trabalho">
</g>
<g id="Linhas-guia">
</g>
<g id="Page_1">
	<g id="HQFL_1_">
		<g>
			<path style="fill-rule:evenodd;clip-rule:evenodd;fill:#02804D;" d="M297.139,108.537c-78.491,0-145.7,27.727-201.159,83.191
				c-55.461,55.459-83.191,122.2-83.191,201.159c0,78.02,27.73,145.224,83.191,200.688c55.459,55.464,122.668,83.664,201.159,83.664
				c78.49,0,145.7-28.2,200.69-83.664c55.928-55.464,83.659-122.2,83.659-200.688c0-78.959-27.731-146.173-83.659-201.159
				C442.37,136.264,375.629,108.537,297.139,108.537L297.139,108.537z"/>
			<path style="fill-rule:evenodd;clip-rule:evenodd;fill:#FFFFFF;" d="M297.139,126.396c-73.791,0-136.771,25.85-188.471,78.019
				c-51.7,51.7-78.021,114.682-78.021,188.473c0,73.32,26.321,136.301,78.021,188.47c51.7,51.699,114.68,78.018,188.471,78.018
				c73.791,0,136.767-26.318,188.468-78.018c52.173-52.169,78.022-115.15,78.022-188.47c0-73.791-25.849-136.773-78.022-188.473
				C433.906,152.246,370.93,126.396,297.139,126.396L297.139,126.396z"/>
			<path style="fill-rule:evenodd;clip-rule:evenodd;fill:#02804D;" d="M48.039,392.888c0-68.15,24.441-127.373,72.85-176.25
				c49.35-48.878,108.1-72.85,176.25-72.85c68.618,0,127.368,23.973,175.781,72.85c48.878,48.409,72.851,107.159,72.851,176.25
				c0,69.088-23.973,127.37-72.851,175.774c-48.413,48.882-106.69,73.328-175.781,73.328c-68.621,0-127.371-24.446-176.25-73.328
				C72.48,519.79,48.039,461.507,48.039,392.888L48.039,392.888z"/>
			<path style="fill-rule:evenodd;clip-rule:evenodd;fill:#FFFFFF;" d="M327.688,186.087c-3.291,0-6.11,0-9.4,0
				c-25.849,1.877-48.879,10.341-69.09,25.377c-4.7,3.295-8.459,6.582-11.75,9.872c-3.759,3.759-6.579,7.523-8.93,11.75
				c0-0.473-0.471-0.941-0.939-1.409c-0.471-0.468-0.941-1.414-1.882-1.882c-16.45-18.332-34.309-23.032-53.58-14.1
				c13.629,5.168,24.441,17.391,32.429,37.6v292.342c-5.638,12.219-18.8,16.918-40.418,13.623
				c7.989,17.863,26.789,21.627,56.4,11.281c41.83,51.233,78.959,58.282,111.859,20.683c-39.95-3.764-70.029-21.618-89.77-53.582
				v-283.88c26.32-27.727,62.511-35.718,108.102-23.968c16.449,7.518,28.199,18.8,35.718,32.9c8.932,13.632,13.159,29.614,13.159,47
				c0,23.031-7.519,43.241-23.028,59.691c0,0,0,0-0.473,0c-22.56,31.022-60.159,35.25-112.329,11.75c-2.82,0-5.17,0-7.05,0.473
				c-5.171,1.878-6.579,7.05-4.7,15.036c14.1,14.101,36.191,23.969,66.27,29.614c10.809,1.404,20.682,1.877,30.551,1.404
				c18.331-1.878,35.718-8.927,51.231-20.205c0.468-0.473,0.468-0.473,0.937-0.473c4.7-3.291,8.932-7.05,13.632-10.809
				c0.941-0.941,1.882-1.882,2.818-2.818c24.913-23.973,37.6-52.173,37.6-86.014c0-16.45-3.286-32.432-9.4-46.532
				c-6.577-14.568-15.509-27.254-28.199-39.478c-15.509-14.573-33.368-24.909-53.109-30.55
				C353.07,187.496,340.379,186.087,327.688,186.087L327.688,186.087z"/>
		</g>
	</g>
</g>
</svg>
