<?xml version="1.0" encoding="iso-8859-1"?>
<!-- Generator: Adobe Illustrator 23.0.1, SVG Export Plug-In . SVG Version: 6.00 Build 0)  -->
<svg version="1.1" xmlns="http://www.w3.org/2000/svg" xmlns:xlink="http://www.w3.org/1999/xlink" x="0px" y="0px"
	 viewBox="0 0 595.276 841.89" style="enable-background:new 0 0 595.276 841.89;" xml:space="preserve">
<g id="Grade" style="display:none;">
</g>
<g id="HQFL">
</g>
<g id="&#xC1;rea_de_trabalho">
</g>
<g id="Linhas-guia">
</g>
<g id="Page_1">
	<g id="HQFL_1_">
		<g>
			<g>
				<path style="fill-rule:evenodd;clip-rule:evenodd;fill:#0073BD;" d="M31.738,448.332l2.994,12.69l-3.573,0.845
					c-1.668,0.389-2.696,0.8-3.089,1.227c-0.388,0.435-0.499,1.02-0.324,1.752c0.19,0.808,0.64,1.341,1.349,1.615
					c0.708,0.266,1.687,0.259,2.933-0.046c1.588-0.365,2.73-0.892,3.431-1.569c0.708-0.647,1.387-2.163,2.034-4.547
					c1.885-6.833,3.694-11.297,5.431-13.368c1.745-2.072,4.97-3.664,9.686-4.776c3.405-0.8,6.021-0.96,7.853-0.465
					c1.836,0.487,3.588,1.858,5.268,4.099c1.676,2.254,2.91,5.034,3.694,8.363c0.861,3.641,0.963,6.902,0.32,9.78
					c-0.647,2.88-1.851,4.937-3.61,6.2c-1.756,1.257-4.43,2.309-8.017,3.154l-3.158,0.746l-2.997-12.69l5.85-1.386
					c1.809-0.427,2.929-0.869,3.348-1.348c0.423-0.48,0.526-1.165,0.312-2.065c-0.213-0.906-0.693-1.508-1.447-1.79
					c-0.75-0.289-1.771-0.281-3.069,0.023c-2.826,0.67-4.574,1.524-5.241,2.559c-0.682,1.066-1.634,3.535-2.852,7.389
					c-1.261,3.87-2.225,6.468-2.891,7.785c-0.667,1.31-1.733,2.529-3.203,3.633c-1.466,1.105-3.482,1.965-6.045,2.566
					c-3.66,0.868-6.463,0.99-8.406,0.366c-1.943-0.617-3.66-1.95-5.157-4.007c-1.497-2.049-2.624-4.692-3.386-7.914
					c-0.834-3.527-1.017-6.65-0.56-9.377c0.461-2.734,1.39-4.692,2.792-5.873c1.405-1.181,4.01-2.225,7.822-3.123L31.738,448.332
					L31.738,448.332z"/>
				<path style="fill-rule:evenodd;clip-rule:evenodd;fill:#0073BD;" d="M41.407,406.484c4.936-0.419,8.436-0.59,10.508-0.514
					c2.072,0.08,4.011,0.712,5.82,1.9c1.812,1.185,3.264,2.875,4.361,5.069c1.097,2.191,1.774,4.795,2.034,7.812
					c0.244,2.864,0.038,5.476-0.613,7.823c-0.651,2.353-1.779,4.296-3.379,5.834c-1.6,1.531-3.401,2.513-5.408,2.956
					c-2.003,0.441-5.526,0.868-10.572,1.303l-8.395,0.716c-4.936,0.419-8.436,0.594-10.508,0.51c-2.072-0.076-4.01-0.7-5.82-1.889
					c-1.813-1.188-3.271-2.879-4.38-5.073c-1.108-2.186-1.79-4.791-2.049-7.815c-0.244-2.856-0.034-5.468,0.632-7.818
					c0.663-2.354,1.794-4.296,3.394-5.831c1.603-1.535,3.397-2.521,5.389-2.96c1.996-0.434,5.526-0.868,10.592-1.303L41.407,406.484
					L41.407,406.484z M26.448,421.832c-2.297,0.19-3.751,0.449-4.373,0.776c-0.613,0.328-0.887,0.906-0.815,1.744
					c0.057,0.701,0.366,1.227,0.914,1.555c0.552,0.335,2.099,0.388,4.639,0.175l22.951-1.965c2.868-0.244,4.624-0.519,5.268-0.823
					c0.64-0.297,0.922-0.906,0.845-1.805c-0.08-0.922-0.51-1.478-1.295-1.676c-0.785-0.19-2.632-0.168-5.545,0.091L26.448,421.832
					L26.448,421.832z"/>
				<path style="fill-rule:evenodd;clip-rule:evenodd;fill:#0073BD;" d="M36.083,366.051l-0.933,13.985l-8.535-0.571
					c-2.483-0.164-4.041-0.118-4.677,0.133c-0.636,0.252-0.986,0.876-1.051,1.874c-0.076,1.131,0.251,1.874,0.983,2.228
					c0.735,0.354,2.346,0.613,4.845,0.781l22.886,1.531c2.388,0.156,3.953,0.11,4.704-0.145c0.75-0.255,1.162-0.914,1.234-1.98
					c0.069-1.021-0.255-1.714-0.971-2.076c-0.716-0.366-2.438-0.64-5.16-0.823l-6.231-0.415l0.937-13.985l1.931,0.129
					c5.1,0.343,8.695,0.975,10.782,1.901c2.091,0.929,3.843,2.788,5.26,5.576c1.417,2.792,1.996,6.151,1.733,10.078
					c-0.274,4.086-1.173,7.411-2.693,9.971c-1.523,2.556-3.516,4.19-5.979,4.886c-2.464,0.705-6.098,0.891-10.908,0.571
					l-14.362-0.96c-3.554-0.24-6.201-0.548-7.949-0.929c-1.744-0.385-3.398-1.287-4.955-2.712c-1.557-1.424-2.723-3.332-3.508-5.724
					c-0.781-2.392-1.07-5.1-0.868-8.124c0.274-4.105,1.227-7.45,2.853-10.024c1.63-2.575,3.554-4.209,5.774-4.902
					c2.22-0.697,5.626-0.891,10.218-0.583L36.083,366.051L36.083,366.051z"/>
				<polygon style="fill-rule:evenodd;clip-rule:evenodd;fill:#0073BD;" points="18.941,341.566 67.481,350.516 64.941,364.3 
					16.4,355.349 18.941,341.566 				"/>
				<polygon style="fill-rule:evenodd;clip-rule:evenodd;fill:#0073BD;" points="20.875,332.422 27.304,310.05 36.791,312.777 
					34.232,321.681 43.251,324.271 45.643,315.957 54.661,318.547 52.273,326.865 62.698,329.863 65.524,320.021 75.011,322.748 
					68.311,346.06 20.875,332.422 				"/>
				<path style="fill-rule:evenodd;clip-rule:evenodd;fill:#0073BD;" d="M30.511,300.395l4.197-9.552
					c2.711-6.166,4.81-10.219,6.291-12.161c1.482-1.938,3.066-3.214,4.749-3.828c1.687-0.609,3.321-0.735,4.905-0.377
					c1.585,0.362,4.517,1.478,8.798,3.36l15.821,6.958c4.059,1.783,6.68,3.18,7.868,4.201c1.189,1.017,1.939,2.205,2.255,3.576
					c0.316,1.371,0.297,2.879-0.065,4.529c-0.362,1.653-1.215,4.003-2.555,7.054l-7.081,16.103L30.511,300.395L30.511,300.395z
					 M43.849,290.95l29.791,13.094c0.781-1.783,0.922-3.024,0.423-3.736c-0.499-0.712-2.254-1.729-5.263-3.051l-17.592-7.732
					c-2.053-0.903-3.401-1.413-4.04-1.531c-0.636-0.118-1.204,0.008-1.695,0.378C44.984,288.741,44.443,289.602,43.849,290.95
					L43.849,290.95z"/>
				<path style="fill-rule:evenodd;clip-rule:evenodd;fill:#0073BD;" d="M61.509,240.901l46.069,19.447l-7.594,12.104l-7.937-4.091
					l-2.712,4.323l7.118,5.393l-7.659,12.207l-38.006-32.297L61.509,240.901L61.509,240.901z M84.364,264.095
					c-5.016-2.411-11.242-5.518-18.681-9.315c7.332,6.261,12.717,10.706,16.156,13.338L84.364,264.095L84.364,264.095z"/>
				<path style="fill-rule:evenodd;clip-rule:evenodd;fill:#0073BD;" d="M70.646,227.666l6.768-7.941
					c4.372-5.126,7.545-8.405,9.525-9.841c1.977-1.432,3.862-2.197,5.648-2.3c1.79-0.099,3.39,0.251,4.807,1.051
					c1.413,0.8,3.9,2.715,7.457,5.747l13.159,11.212c3.371,2.875,5.481,4.966,6.326,6.284c0.842,1.314,1.219,2.674,1.131,4.075
					c-0.091,1.405-0.545,2.845-1.367,4.319c-0.823,1.478-2.316,3.485-4.475,6.022l-11.411,13.387L70.646,227.666L70.646,227.666z
					 M86.139,222.452l24.767,21.108c1.261-1.481,1.752-2.632,1.478-3.459c-0.274-0.822-1.661-2.3-4.163-4.433l-14.625-12.465
					c-1.706-1.455-2.853-2.331-3.428-2.628c-0.579-0.293-1.158-0.335-1.733-0.126C87.861,220.662,87.095,221.329,86.139,222.452
					L86.139,222.452z"/>
				<polygon style="fill-rule:evenodd;clip-rule:evenodd;fill:#0073BD;" points="99.054,195.891 116.36,180.325 122.961,187.665 
					116.075,193.858 122.351,200.835 128.784,195.046 135.061,202.023 128.628,207.812 135.884,215.875 143.493,209.027 
					150.097,216.367 132.067,232.587 99.054,195.891 				"/>
				<polygon style="fill-rule:evenodd;clip-rule:evenodd;fill:#0073BD;" points="134.859,166.279 154.454,153.715 159.782,162.025 
					151.986,167.022 157.052,174.925 164.338,170.252 169.403,178.151 162.117,182.824 167.975,191.953 176.594,186.427 
					181.922,194.738 161.504,207.831 134.859,166.279 				"/>
				<path style="fill-rule:evenodd;clip-rule:evenodd;fill:#0073BD;" d="M196.231,149.636l-11.788,5.576l-1.569-3.321
					c-0.735-1.55-1.352-2.468-1.851-2.765c-0.499-0.289-1.093-0.274-1.778,0.049c-0.746,0.355-1.181,0.907-1.295,1.653
					c-0.114,0.751,0.103,1.702,0.651,2.86c0.697,1.474,1.447,2.487,2.25,3.032c0.785,0.556,2.411,0.903,4.875,1.04
					c7.077,0.419,11.815,1.261,14.203,2.529c2.392,1.272,4.624,4.094,6.691,8.474c1.497,3.161,2.194,5.69,2.095,7.582
					c-0.099,1.897-1.07,3.9-2.917,6.01c-1.847,2.106-4.315,3.892-7.4,5.351c-3.39,1.603-6.559,2.384-9.503,2.349
					c-2.951-0.034-5.222-0.777-6.817-2.235c-1.596-1.455-3.184-3.851-4.757-7.187l-1.39-2.933l11.792-5.572l2.567,5.431
					c0.796,1.683,1.47,2.681,2.023,2.993c0.552,0.316,1.245,0.274,2.087-0.122c0.838-0.4,1.322-0.994,1.447-1.79
					c0.126-0.796-0.095-1.794-0.666-2.997c-1.242-2.628-2.441-4.159-3.595-4.594c-1.181-0.445-3.79-0.86-7.819-1.249
					c-4.048-0.427-6.787-0.83-8.211-1.208c-1.428-0.381-2.834-1.169-4.224-2.376c-1.39-1.2-2.647-2.994-3.774-5.374
					c-1.608-3.401-2.312-6.116-2.11-8.143c0.202-2.03,1.15-3.991,2.849-5.884c1.695-1.889,4.041-3.542,7.034-4.959
					c3.275-1.55,6.292-2.381,9.061-2.502c2.765-0.118,4.871,0.385,6.318,1.508c1.451,1.127,3.013,3.462,4.685,7L196.231,149.636
					L196.231,149.636z"/>
				<path style="fill-rule:evenodd;clip-rule:evenodd;fill:#0073BD;" d="M200.039,132.151l13.44-4.17
					c3.637-1.124,6.513-1.725,8.634-1.801c2.117-0.08,3.82,0.225,5.107,0.902c1.287,0.682,2.323,1.668,3.112,2.971
					c0.785,1.299,1.638,3.432,2.556,6.395l1.272,4.097c0.929,3.006,1.276,5.31,1.032,6.905c-0.247,1.592-1.158,3.035-2.735,4.327
					c-1.573,1.291-3.816,2.384-6.725,3.287l-3.573,1.108l5.884,18.974l-13.387,4.148L200.039,132.151L200.039,132.151z
					 M215.917,136.032l3.744,12.073c0.381-0.095,0.704-0.183,0.979-0.267c1.207-0.377,1.961-0.914,2.258-1.611
					c0.301-0.697,0.175-1.934-0.373-3.702l-1.208-3.896c-0.502-1.619-1.1-2.586-1.793-2.91
					C218.827,135.396,217.627,135.502,215.917,136.032L215.917,136.032z"/>
				<path style="fill-rule:evenodd;clip-rule:evenodd;fill:#0073BD;" d="M274.162,144.685c0.766,4.894,1.185,8.375,1.253,10.447
					c0.064,2.072-0.431,4.049-1.485,5.938c-1.059,1.889-2.64,3.458-4.749,4.707c-2.11,1.25-4.662,2.11-7.652,2.579
					c-2.841,0.446-5.458,0.423-7.849-0.061c-2.392-0.487-4.407-1.473-6.052-2.963c-1.646-1.489-2.754-3.214-3.328-5.184
					c-0.579-1.969-1.261-5.454-2.045-10.458l-1.306-8.322c-0.766-4.894-1.185-8.375-1.253-10.447
					c-0.069-2.068,0.427-4.049,1.485-5.937c1.055-1.889,2.64-3.466,4.746-4.723c2.11-1.261,4.658-2.125,7.651-2.594
					c2.837-0.446,5.454-0.419,7.85,0.076c2.392,0.499,4.411,1.492,6.056,2.978c1.642,1.489,2.75,3.215,3.329,5.168
					c0.575,1.958,1.257,5.45,2.045,10.473L274.162,144.685L274.162,144.685z M257.804,130.84c-0.358-2.274-0.72-3.709-1.085-4.304
					c-0.365-0.594-0.963-0.827-1.793-0.693c-0.705,0.111-1.2,0.45-1.493,1.025c-0.289,0.571-0.24,2.117,0.156,4.635l3.568,22.756
					c0.45,2.845,0.846,4.578,1.192,5.195c0.347,0.621,0.967,0.857,1.862,0.716c0.914-0.141,1.439-0.609,1.577-1.405
					c0.141-0.797-0.019-2.64-0.472-5.53L257.804,130.84L257.804,130.84z"/>
				<path style="fill-rule:evenodd;clip-rule:evenodd;fill:#0073BD;" d="M280.56,115.294l9.891-0.076
					c6.593-0.049,11.06,0.152,13.398,0.598c2.339,0.449,4.251,1.627,5.736,3.538c1.485,1.912,2.247,4.966,2.277,9.164
					c0.03,3.824-0.473,6.394-1.509,7.72c-1.028,1.321-3.069,2.125-6.124,2.415c2.773,0.621,4.639,1.458,5.599,2.506
					c0.96,1.047,1.562,2.019,1.798,2.902c0.236,0.887,0.373,3.329,0.403,7.328l0.1,13.029l-13.041,0.099l-0.122-16.438
					c-0.018-2.643-0.255-4.281-0.7-4.909c-0.45-0.628-1.611-0.941-3.489-0.926l0.168,22.303l-14.016,0.103L280.56,115.294
					L280.56,115.294z M294.641,123.596l0.08,10.969c1.531-0.011,2.605-0.217,3.214-0.62c0.613-0.4,0.914-1.684,0.895-3.851
					l-0.019-2.715c-0.012-1.569-0.316-2.594-0.914-3.078C297.299,123.822,296.214,123.585,294.641,123.596L294.641,123.596z"/>
				<polygon style="fill-rule:evenodd;clip-rule:evenodd;fill:#0073BD;" points="350.787,119.59 349.507,129.378 341.288,128.3 
					336.154,167.452 322.253,165.628 327.387,126.476 319.176,125.398 320.455,115.61 350.787,119.59 				"/>
				<polygon style="fill-rule:evenodd;clip-rule:evenodd;fill:#0073BD;" points="371.392,124.556 359.95,172.572 346.323,169.322 
					357.757,121.308 371.392,124.556 				"/>
				<path style="fill-rule:evenodd;clip-rule:evenodd;fill:#0073BD;" d="M412.227,138.225l-23.446,44.016l-19.881-7.183
					l9.164-49.169l13.87,5.008c-3.061,13.383-5.858,24.646-8.379,33.79c3.931-8.757,7.557-16.453,10.862-23.088l3.938-8.383
					L412.227,138.225L412.227,138.225z"/>
				<path style="fill-rule:evenodd;clip-rule:evenodd;fill:#0073BD;" d="M439.694,152.473l-15.95,47.394l-12.629-6.669l3.48-8.219
					l-4.516-2.384l-4.845,7.503l-12.751-6.726l29.372-40.314L439.694,152.473L439.694,152.473z M418.275,176.997
					c2.026-5.179,4.661-11.62,7.892-19.321c-5.698,7.777-9.727,13.478-12.097,17.104L418.275,176.997L418.275,176.997z"/>
				<path style="fill-rule:evenodd;clip-rule:evenodd;fill:#0073BD;" d="M498.949,196.566l-31.893,37.674l-9.301-7.872l21.473-25.46
					l-25.197,22.31l-6.688-5.671l17.184-28.13l-21.1,24.824l-9.293-7.876l31.886-37.675l13.833,11.715
					c-1.584,2.594-3.428,5.633-5.545,9.114l-6.582,10.836l17.383-15.501L498.949,196.566L498.949,196.566z"/>
				<path style="fill-rule:evenodd;clip-rule:evenodd;fill:#0073BD;" d="M522.486,223.804l-32.549,37.968l-9.217-10.919l6.314-6.315
					l-3.298-3.9l-7.297,5.141l-9.301-11.011l42.328-26.375L522.486,223.804L522.486,223.804z M493.441,238.521
					c3.817-4.044,8.669-9.03,14.549-14.96c-8.196,5.077-14.061,8.851-17.618,11.327L493.441,238.521L493.441,238.521z"/>
				<polygon style="fill-rule:evenodd;clip-rule:evenodd;fill:#0073BD;" points="544.903,256.208 536.661,261.647 532.098,254.73 
					499.147,276.485 491.423,264.789 524.383,243.034 519.813,236.118 528.054,230.679 544.903,256.208 				"/>
				<path style="fill-rule:evenodd;clip-rule:evenodd;fill:#0073BD;" d="M536.768,304.885c-4.464,2.129-7.686,3.523-9.651,4.178
					c-1.973,0.655-4.007,0.743-6.116,0.27c-2.118-0.476-4.069-1.546-5.865-3.211c-1.798-1.668-3.351-3.866-4.654-6.6
					c-1.234-2.594-1.958-5.107-2.179-7.537c-0.221-2.434,0.16-4.647,1.112-6.646c0.96-2,2.3-3.557,4.022-4.673
					c1.721-1.112,4.867-2.761,9.437-4.936l7.61-3.625c4.471-2.133,7.686-3.527,9.65-4.178c1.966-0.659,4.007-0.747,6.124-0.274
					c2.103,0.476,4.069,1.543,5.881,3.203c1.798,1.665,3.359,3.859,4.662,6.597c1.233,2.594,1.957,5.107,2.163,7.545
					c0.205,2.438-0.168,4.654-1.128,6.653c-0.959,1.999-2.3,3.554-4.006,4.662c-1.714,1.112-4.861,2.761-9.453,4.947
					L536.768,304.885L536.768,304.885z M545.376,285.256c2.079-0.99,3.352-1.744,3.823-2.266c0.457-0.518,0.511-1.158,0.152-1.916
					c-0.305-0.643-0.776-1.021-1.409-1.139c-0.632-0.114-2.103,0.377-4.402,1.47l-20.787,9.91c-2.605,1.242-4.159,2.114-4.647,2.624
					c-0.495,0.51-0.549,1.173-0.152,1.988c0.395,0.838,0.99,1.207,1.797,1.112c0.8-0.095,2.521-0.773,5.165-2.03L545.376,285.256
					L545.376,285.256z"/>
				<polygon style="fill-rule:evenodd;clip-rule:evenodd;fill:#0073BD;" points="575.845,332.563 528.61,346.875 525.076,335.21 
					544.431,321.708 522.95,328.213 519.56,317.016 566.795,302.703 570.192,313.901 551.18,327.813 572.455,321.365 
					575.845,332.563 				"/>
				<polygon style="fill-rule:evenodd;clip-rule:evenodd;fill:#0073BD;" points="577.977,343.021 581.732,365.994 571.99,367.587 
					570.497,358.442 561.234,359.954 562.636,368.497 553.374,370.009 551.972,361.47 541.269,363.218 542.923,373.323 
					533.173,374.91 529.273,350.977 577.977,343.021 				"/>
				<polygon style="fill-rule:evenodd;clip-rule:evenodd;fill:#0073BD;" points="583.888,407.124 534.559,408.647 534.179,396.463 
					556.383,388.465 533.95,389.155 533.6,377.462 582.929,375.939 583.294,387.635 561.311,396.117 583.53,395.431 
					583.888,407.124 				"/>
				<path style="fill-rule:evenodd;clip-rule:evenodd;fill:#0073BD;" d="M565.149,446.024l1.463-12.956l3.656,0.411
					c1.698,0.198,2.803,0.152,3.321-0.114c0.51-0.266,0.808-0.785,0.899-1.539c0.092-0.814-0.152-1.478-0.732-1.973
					c-0.578-0.487-1.492-0.808-2.772-0.952c-1.614-0.183-2.871-0.084-3.763,0.32c-0.884,0.373-2.034,1.568-3.45,3.595
					c-4.083,5.797-7.29,9.377-9.629,10.74c-2.338,1.363-5.918,1.775-10.733,1.227c-3.474-0.396-5.987-1.135-7.549-2.217
					c-1.561-1.081-2.749-2.963-3.572-5.645c-0.814-2.681-1.036-5.72-0.647-9.109c0.419-3.726,1.425-6.833,3.009-9.316
					c1.585-2.49,3.413-4.029,5.492-4.616c2.079-0.59,4.943-0.678,8.615-0.262l3.222,0.37l-1.47,12.956l-5.972-0.678
					c-1.852-0.213-3.055-0.167-3.611,0.138c-0.556,0.305-0.883,0.921-0.99,1.843c-0.107,0.922,0.145,1.646,0.755,2.171
					c0.609,0.525,1.576,0.868,2.901,1.014c2.88,0.327,4.815,0.114,5.797-0.633c0.998-0.776,2.727-2.772,5.179-5.987
					c2.491-3.222,4.281-5.339,5.356-6.352c1.066-1.005,2.482-1.79,4.234-2.338c1.76-0.545,3.946-0.671,6.566-0.374
					c3.732,0.427,6.414,1.257,8.028,2.499c1.615,1.233,2.788,3.077,3.504,5.514s0.884,5.302,0.503,8.592
					c-0.403,3.596-1.287,6.604-2.636,9.02c-1.356,2.414-2.894,3.945-4.616,4.577c-1.721,0.641-4.524,0.739-8.424,0.298
					L565.149,446.024L565.149,446.024z"/>
				<polygon style="fill-rule:evenodd;clip-rule:evenodd;fill:#0073BD;" points="577.97,457.999 572.393,480.599 562.812,478.238 
					565.028,469.242 555.918,466.995 553.846,475.396 544.735,473.149 546.808,464.748 536.28,462.15 533.828,472.09 
					524.238,469.721 530.05,446.176 577.97,457.999 				"/>
			</g>
			<path style="fill-rule:evenodd;clip-rule:evenodd;fill:#0073BD;" d="M298.24,616.078c-15.162-21.343-48.856-24.147-74.69-39.312
				c-28.644-15.729-56.721-38.186-70.764-64.587c-30.887-58.408-21.339-76.933,1.684-101.087
				c20.22-21.899,52.791-46.05,38.752-90.979c-6.178-20.216-26.394-39.309-55.038-37.066c7.301-20.216,19.096-36.501,34.822-49.42
				c19.652,7.865,39.309,19.097,56.722-19.656c18.533,19.656,38.188,19.656,44.366-10.108c15.721,0,32.011,0,48.296,0
				c5.614,29.764,25.275,29.764,44.363,10.108c17.412,38.752,36.509,27.52,56.161,19.656c15.729,12.919,28.085,29.204,34.818,49.42
				c-28.641-2.243-48.856,16.849-55.034,37.066c-14.039,44.93,18.532,69.08,39.312,90.979
				c22.463,24.154,32.007,42.679,1.127,101.087c-14.046,26.401-41.56,48.857-70.2,64.587
				C346.536,591.931,313.401,594.735,298.24,616.078L298.24,616.078z"/>
			<path style="fill-rule:evenodd;clip-rule:evenodd;fill:#FFFFFF;" d="M386.412,252.723L200.523,375.151
				c6.178-11.792,8.985-24.71,8.425-39.873c-1.123-11.795-3.931-21.903-9.548-32.011c-9.548-15.725-24.71-26.957-42.119-30.888
				c4.49-8.988,11.231-16.849,18.533-23.587c2.807,2.807,17.969,5.614,22.463,5.614c16.85-0.559,25.274-7.301,35.382-20.216
				c21.34,12.355,41.56,6.737,49.98-17.409h29.2c8.988,24.146,28.641,29.764,49.984,17.409
				C370.127,243.735,376.868,249.912,386.412,252.723L386.412,252.723z"/>
			<path style="fill-rule:evenodd;clip-rule:evenodd;fill:#FFFFFF;" d="M408.876,252.723L178.06,405.478
				c-10.672,10.668-21.903,21.343-28.645,34.262c-7.301,16.842-0.56,35.938,7.301,52.787l230.816-152.758
				c0.564-31.448,19.097-60.652,51.675-67.39c-5.058-8.988-11.235-16.849-18.54-23.587
				C416.736,250.476,412.806,251.6,408.876,252.723L408.876,252.723z"/>
			<path style="fill-rule:evenodd;clip-rule:evenodd;fill:#0073BD;" d="M241.519,266.761c17.973,0,32.575,14.602,32.575,32.575
				c0,17.969-14.602,32.571-32.575,32.571c-17.969,0-32.572-14.602-32.572-32.571C208.947,281.364,223.549,266.761,241.519,266.761
				L241.519,266.761z"/>
			<path style="fill-rule:evenodd;clip-rule:evenodd;fill:#FFFFFF;" d="M220.179,281.924c0,2.811,0,5.058,0.56,7.865
				c3.371,0.56,6.177,2.247,9.548,3.931c2.807-2.807,5.054-4.494,8.985-6.178c-1.124-3.371-1.124-6.737-1.124-10.672
				c-2.807-0.56-6.738-2.244-9.545-3.367C225.233,275.746,220.739,277.993,220.179,281.924L220.179,281.924z"/>
			<path style="fill-rule:evenodd;clip-rule:evenodd;fill:#FFFFFF;" d="M246.572,276.31l-2.247,0.56c0,3.934,0,6.741-1.12,10.672
				c3.931,1.684,6.178,3.37,8.984,6.178c3.371-1.684,6.178-3.371,9.548-3.931c1.12-3.93,0.56-6.177,0.56-9.548
				C257.244,274.626,253.314,271.816,246.572,276.31L246.572,276.31z"/>
			<path style="fill-rule:evenodd;clip-rule:evenodd;fill:#FFFFFF;" d="M219.055,315.058c1.684,0.564,3.931,1.123,6.178,1.123
				c1.683-2.807,3.93-5.614,6.737-7.861c-2.243-3.371-2.807-6.741-3.367-10.672c-3.934,0-6.741-1.123-10.112-1.683
				c-2.243,1.683-4.49,5.054-6.178,7.301C212.878,308.881,214.002,312.252,219.055,315.058L219.055,315.058z"/>
			<path style="fill-rule:evenodd;clip-rule:evenodd;fill:#FFFFFF;" d="M256.681,297.649h-2.807
				c-0.56,3.931-1.123,7.301-3.371,10.672c2.811,2.247,5.058,5.054,6.741,7.861c9.548-1.123,11.795-3.93,12.915-12.915
				c-1.684-2.247-3.367-5.618-6.178-7.301C261.738,296.526,258.928,297.649,256.681,297.649L256.681,297.649z"/>
			<path style="fill-rule:evenodd;clip-rule:evenodd;fill:#FFFFFF;" d="M251.067,317.869c-1.683-2.247-3.37-4.494-3.93-6.741
				c-3.931,0-7.301,0.564-11.232,0c-1.124,2.807-3.371,5.618-5.618,8.424c3.931,7.861,6.178,10.108,16.286,7.861
				c1.687-2.243,4.494-5.054,5.618-7.861L251.067,317.869L251.067,317.869z"/>
			<path style="fill-rule:evenodd;clip-rule:evenodd;fill:#FFFFFF;" d="M380.235,359.425l-15.723,10.672v197.688
				c5.614-2.818,10.664-6.185,15.723-9.552V359.425L380.235,359.425z"/>
			<path style="fill-rule:evenodd;clip-rule:evenodd;fill:#FFFFFF;" d="M353.834,376.834l-10.664,7.301v192.631
				c3.931-1.12,7.297-2.811,10.664-4.494V376.834L353.834,376.834z"/>
			<path style="fill-rule:evenodd;clip-rule:evenodd;fill:#FFFFFF;" d="M235.905,454.898l-11.235,6.735v102.215
				c3.934,2.247,7.865,3.938,11.235,5.613V454.898L235.905,454.898z"/>
			<path style="fill-rule:evenodd;clip-rule:evenodd;fill:#FFFFFF;" d="M246.572,447.601v126.918h0.564
				c5.054,1.683,10.108,3.93,15.162,5.621V437.486L246.572,447.601L246.572,447.601z"/>
			<polygon style="fill-rule:evenodd;clip-rule:evenodd;fill:#0073BD;" points="261.738,365.042 275.777,355.494 293.75,371.22 
				294.309,371.22 286.448,348.757 300.487,339.209 319.023,367.849 311.162,372.904 295.433,349.316 303.294,377.957 
				295.433,383.575 272.407,364.479 288.132,388.069 280.271,393.123 261.738,365.042 			"/>
			<polygon style="fill-rule:evenodd;clip-rule:evenodd;fill:#0073BD;" points="213.438,396.494 238.148,380.768 242.082,386.382 
				226.357,396.494 230.287,402.108 244.325,392.559 248.26,398.177 233.658,407.725 237.588,413.903 253.314,403.231 
				256.681,408.849 232.534,425.13 213.438,396.494 			"/>
			<path style="fill-rule:evenodd;clip-rule:evenodd;fill:#0073BD;" d="M174.689,450.404l8.984-5.613
				c0.564,0.556,1.124,1.684,2.807,1.684c1.123,0.564,2.81,0,4.494-1.128c1.683-1.119,2.807-2.239,3.371-3.366
				c0.56-1.128,0.56-2.24,0-2.804c-0.564-0.564-1.124-1.127-1.688-1.127c-0.56,0-1.683,0-2.243,0c-0.564,0-1.687,0.564-2.247,0.564
				c-1.123,0.564-2.247,1.127-2.807,1.127c-2.811,1.112-5.058,2.24-7.301,2.804c-1.687,0.563-3.934,0.563-5.618,0
				c-1.684,0-3.371-1.691-4.494-3.367c-1.683-2.255-2.243-3.931-1.683-6.185c0-1.676,1.123-4.494,2.807-6.17
				c1.687-2.255,3.934-3.931,6.741-5.622c4.49-2.803,7.861-4.49,11.232-4.49c2.807,0,5.613,1.687,7.301,3.927
				c0,0.563,0,0.563,0.56,1.127l-8.984,5.622c-1.124-1.128-1.683-1.691-2.807-1.691c-1.687,0-2.811,0.564-3.931,1.128
				c-1.123,1.119-2.247,1.676-2.811,2.803c0,1.127,0,2.247,0.564,2.81c0.56,1.12,3.367,1.12,7.301-0.563
				c2.807-1.12,4.49-1.684,6.177-2.247c1.684-0.564,2.807-1.127,4.49-1.127c1.687-0.557,3.37,0,4.494,0.564
				c1.124,0.564,2.807,1.127,3.931,2.811c1.124,2.247,1.687,4.494,1.687,6.741c-0.564,2.239-1.687,4.494-3.371,6.178
				c-1.687,2.247-3.93,3.931-6.741,6.178c-2.807,1.683-6.177,3.366-8.424,3.93c-2.243,0.565-5.054,0.565-6.737,0
				C177.496,454.334,175.813,452.651,174.689,450.404L174.689,450.404z"/>
			<path style="fill-rule:evenodd;clip-rule:evenodd;fill:#0073BD;" d="M331.378,318.993l11.229-7.301l31.451,19.656l-10.108,6.737
				l-5.621-3.931l-13.475,8.425l1.683,7.301l-8.988,5.614L331.378,318.993L331.378,318.993z M352.158,329.66l-11.799-8.424
				l3.374,14.602L352.158,329.66L352.158,329.66z"/>
			<path style="fill-rule:evenodd;clip-rule:evenodd;fill:#0073BD;" d="M558.264,506.002c-23.026,5.613-41.56,20.779-53.351,34.817
				c-3.931-10.107,2.239-17.969-1.127-26.394c-34.263,17.405-12.355,65.714-37.065,82.556c-10.108-12.355,1.683-19.66-3.931-33.691
				c-26.401,16.85-23.583,64.016-49.42,70.2c-1.691-13.482,11.791-21.907,7.86-37.065c-31.443,10.1-42.686,53.351-64.578,56.718
				c-5.058-18.524,13.475-27.513,15.158-46.617c-34.819,3.931-45.49,38.192-68.517,57.281c-1.684,0-3.367,0.564-5.054,1.128
				c-1.684-0.564-3.371-1.128-4.49-1.128c-23.027-19.089-33.699-52.787-68.517-56.718c1.683,18.541,20.216,27.529,15.162,46.054
				c-21.903-3.366-33.135-46.617-64.583-56.718c-3.931,15.158,9.549,23.583,7.861,37.065c-25.833-5.621-22.463-53.351-49.42-69.644
				c-5.614,13.475,6.178,20.779-3.37,33.135c-25.27-16.842-3.367-64.586-38.189-81.991c-2.807,7.86,3.371,15.721-0.56,25.829
				c-11.231-14.038-30.328-29.204-52.791-34.817c0,39.311,56.162,43.806,59.528,73.574c-9.544-1.128-17.969-5.622-28.641-3.375
				c13.479,31.452,56.722,28.649,76.378,52.231c-9.549,1.684-17.969-5.058-28.081-0.564c38.752,38.193,59.532,16.849,89.296,25.273
				c-7.301,11.228-14.043,5.622-25.274,14.61c27.521,24.147,64.586-5.622,96.598,0c2.247,0.548,4.49,1.111,7.301,1.676
				c-13.478,7.86-23.59,19.652-33.134,33.698c2.807,1.69,5.054,2.803,7.861,3.931c9.548-15.158,22.463-25.838,37.065-33.135
				c14.598,7.297,27.517,18.54,38.189,33.135c2.247-1.128,5.05-2.24,7.305-3.367c-9.552-14.609-20.216-26.965-33.698-34.262
				c2.803-0.564,5.613-1.128,7.86-1.676c32.008-5.622,69.073,24.147,96.601,0c-10.68-8.988-17.976-3.383-25.273-14.61
				c29.76-8.988,51.104,12.919,89.288-25.837c-10.108-3.931-18.524,2.254-28.077,1.127c19.652-23.583,62.903-20.779,76.378-52.231
				c-11.235-2.811-19.097,2.247-28.64,2.812C501.539,549.808,558.264,545.314,558.264,506.002L558.264,506.002z"/>
		</g>
	</g>
</g>
</svg>
