<?xml version="1.0" encoding="iso-8859-1"?>
<!-- Generator: Adobe Illustrator 23.0.1, SVG Export Plug-In . SVG Version: 6.00 Build 0)  -->
<svg version="1.1" xmlns="http://www.w3.org/2000/svg" xmlns:xlink="http://www.w3.org/1999/xlink" x="0px" y="0px"
	 viewBox="0 0 595.276 841.89" style="enable-background:new 0 0 595.276 841.89;" xml:space="preserve">
<g id="Grade" style="display:none;">
</g>
<g id="HQFL">
</g>
<g id="&#xC1;rea_de_trabalho">
</g>
<g id="Linhas-guia">
</g>
<g id="Page_1">
	<g id="HQFL_1_">
		<g>
			<path style="fill-rule:evenodd;clip-rule:evenodd;fill:#007446;" d="M307.168,720.821c156.76,0,284.47-127.71,284.47-284.469
				c0-156.571-127.71-284.28-284.47-284.28c-156.57,0-284.28,127.709-284.28,284.28C22.889,593.111,150.598,720.821,307.168,720.821
				L307.168,720.821z"/>
			<path style="fill-rule:evenodd;clip-rule:evenodd;fill:#FFFFFF;" d="M307.168,711.577c-75.644,0-144.309-30.936-194.298-80.739
				C63.069,580.85,32.132,512.185,32.132,436.351c0-75.645,30.938-144.31,80.739-194.298
				c49.989-49.802,118.654-80.739,194.298-80.739c75.834,0,144.686,30.938,194.487,80.739
				c49.803,49.988,80.738,118.653,80.738,194.298c0,75.834-30.936,144.499-80.738,194.486
				C451.854,680.641,383.003,711.577,307.168,711.577L307.168,711.577z"/>
			<path style="fill-rule:evenodd;clip-rule:evenodd;fill:#007446;" d="M307.168,705.917c74.325,0,141.669-30.371,190.526-79.229
				c48.67-48.667,79.04-116.201,79.04-190.337c0-73.946-30.37-141.48-79.04-190.148c-48.857-48.857-116.201-79.229-190.526-79.229
				c-73.945,0-141.29,30.372-190.148,79.229c-48.858,48.668-79.229,116.202-79.229,190.148c0,74.135,30.372,141.669,79.229,190.337
				C165.878,675.546,233.223,705.917,307.168,705.917L307.168,705.917z"/>
			<polygon style="fill-rule:evenodd;clip-rule:evenodd;fill:#FFFFFF;" points="161.916,243.374 158.521,251.107 164.746,256.766 
				156.257,255.823 152.862,263.558 150.976,255.257 142.864,254.314 150.032,250.164 148.334,241.864 154.559,247.524 
				161.916,243.374 			"/>
			<polygon style="fill-rule:evenodd;clip-rule:evenodd;fill:#FFFFFF;" points="142.864,266.011 139.846,276.197 148.711,282.234 
				137.959,282.611 135.129,292.797 131.356,282.988 120.793,283.176 129.093,276.762 125.508,266.576 134.376,272.612 
				142.864,266.011 			"/>
			<polygon style="fill-rule:evenodd;clip-rule:evenodd;fill:#FFFFFF;" points="122.679,299.022 122.302,312.038 134.753,316.189 
				122.113,320.149 122.113,332.977 114.379,322.602 102.118,326.186 109.851,315.999 102.306,305.059 114.756,309.397 
				122.679,299.022 			"/>
			<polygon style="fill-rule:evenodd;clip-rule:evenodd;fill:#FFFFFF;" points="108.154,340.334 111.549,359.009 130.414,361.651 
				113.436,370.706 116.831,389.381 103.061,376.364 86.271,385.231 94.571,368.253 80.801,354.671 99.854,357.312 108.154,340.334 
							"/>
			<polygon style="fill-rule:evenodd;clip-rule:evenodd;fill:#FFFFFF;" points="452.612,243.374 456.194,251.107 449.782,256.766 
				458.269,255.823 461.664,263.558 463.553,255.257 471.853,254.314 464.494,250.164 466.382,241.864 459.968,247.524 
				452.612,243.374 			"/>
			<polygon style="fill-rule:evenodd;clip-rule:evenodd;fill:#FFFFFF;" points="471.853,266.011 474.683,276.197 465.814,282.234 
				476.568,282.611 479.398,292.797 483.172,282.988 493.733,283.176 485.434,276.762 489.019,266.576 480.152,272.612 
				471.853,266.011 			"/>
			<polygon style="fill-rule:evenodd;clip-rule:evenodd;fill:#FFFFFF;" points="492.035,299.022 492.223,312.038 479.963,316.189 
				492.413,320.149 492.602,332.977 500.148,322.602 512.409,326.186 504.674,315.999 512.222,305.059 499.772,309.397 
				492.035,299.022 			"/>
			<polygon style="fill-rule:evenodd;clip-rule:evenodd;fill:#FFFFFF;" points="506.373,340.334 503.165,359.009 484.113,361.651 
				501.092,370.706 497.694,389.381 511.654,376.364 528.254,385.231 519.954,368.253 533.914,354.671 514.673,357.312 
				506.373,340.334 			"/>
			<path style="fill-rule:evenodd;clip-rule:evenodd;fill:#FFFFFF;" d="M213.416,475.587c-0.567-0.376-1.698-0.376-2.265,0.19
				l-90.358,119.788c-1.132,1.51-0.755,3.582,0.377,4.903c15.468,16.978,31.313,31.317,49.8,44.33
				c1.132,0.758,3.208,2.454,4.15,0.19l9.62-22.636c0.567-1.32,0.189-3.206-0.943-3.964c-9.62-6.411-17.92-13.957-26.032-21.691
				c-1.132-1.131-0.943-3.961,0-5.47l71.117-103.375c0.378-0.376,0-1.32-0.565-1.51
				C223.036,482.946,217.943,479.362,213.416,475.587L213.416,475.587z"/>
			<path style="fill-rule:evenodd;clip-rule:evenodd;fill:#FFFFFF;" d="M297.361,686.676c1.32,0,1.32-0.941,1.32-1.698l1.32-175.057
				c0-0.566-0.755-1.134-1.32-1.134c-4.339-0.187-8.866-0.752-13.394-1.32c-0.565-0.187-1.32,0.189-1.697,0.944l-21.128,48.67
				c-0.565,1.133-0.943,0.943-1.132-0.188l-1.698-54.707c0-0.753-0.188-1.132-0.566-1.132c-5.282-1.888-10.187-3.96-15.28-6.414
				c-0.377-0.187-1.132-0.187-1.51,0.565l-63.571,152.988c-0.377,0.753,0,1.697,0.566,2.073c6.225,3.963,12.45,7.358,18.864,10.754
				c0.754,0.376,2.263,0.754,2.641-0.566l39.048-109.41c0.377-1.32,0.755-1.51,0.755,0.189l1.698,92.811
				c0,4.902,0.378,4.902,2.452,0.376l37.162-82.625c0.378-1.131,0.755-1.131,0.567,0.189l-9.622,120.73
				c-0.188,0.755,0.754,1.699,1.509,1.886C282.081,685.735,289.814,686.3,297.361,686.676L297.361,686.676z"/>
			<path style="fill-rule:evenodd;clip-rule:evenodd;fill:#FFFFFF;" d="M361.122,519.917c-7.924,2.454-16.601,4.718-28.677,6.793
				c-0.564,0-1.32,0.945-1.32,1.696l1.133,46.029c0,0.755,0.565,1.889,1.886,1.699c11.509-1.699,22.828-3.774,34.144-6.227
				c1.51-0.376,2.075,0,2.454,2.077l2.83,18.109c0.187,0.943,0.376,2.263-0.944,2.641c-12.453,3.02-25.09,5.471-37.729,7.357
				c-0.944,0.189-2.075,0.565-2.075,2.265l1.131,47.724c0,2.454,1.51,3.775,2.83,3.585c14.528-0.944,29.051-4.905,43.199-8.489
				c0.944-0.189,2.265-0.566,2.64,1.51l3.775,24.9c0.376,1.32-0.945,2.64-2.644,3.019c-23.767,7.356-46.403,11.695-72.247,12.261
				c-1.887,0-3.395-0.565-3.395-2.265l1.131-173.925c0-0.941,1.696-1.51,2.829-1.51c16.601-1.131,30.561-3.396,45.085-8.865
				c1.696-0.565,2.265-0.377,2.265,0.376l2.83,17.544C362.442,519.355,362.063,519.542,361.122,519.917L361.122,519.917z"/>
			<path style="fill-rule:evenodd;clip-rule:evenodd;fill:#FFFFFF;" d="M398.094,669.322c-0.565,0.19-1.51,0.19-1.699-0.755
				l-31.313-170.72c-0.189-0.376,0-0.563,0.566-0.752c4.716-2.078,9.432-4.529,13.958-6.98c0.378-0.19,1.322-0.378,1.322,0.189
				l43.386,164.492c0.379,1.32,0.189,1.889-0.376,2.265C415.448,661.587,407.148,665.547,398.094,669.322L398.094,669.322z"/>
			<path style="fill-rule:evenodd;clip-rule:evenodd;fill:#FFFFFF;" d="M534.482,447.105c-1.133,5.66-2.643,10.94-4.339,16.222
				c-0.189,0.379-0.568,1.32-1.699,0.945l-3.771-2.075c-0.568-0.379-1.32,0.189-1.699,0.565l-5.85,14.526
				c-0.376,0.943-0.376,1.888,0.945,2.829l26.221,17.545c0.944,0.565,2.642,0.755,3.206-1.51
				c5.094-21.126,7.359-42.066,7.169-63.573c0-0.942-0.376-1.883-1.51-2.262l-43.386-15.09c-1.696-0.757-4.34-0.568-5.471,1.696
				c-3.773,7.356-7.356,13.394-10.754,18.864c-0.566,0.566-1.509,1.699-3.017,0.941l-21.315-10.373
				c-0.944-0.568-1.699-1.133-0.944-2.83l3.395-7.548c0.379-0.942,1.699-0.752,2.451-0.376l7.358,2.83
				c0.752,0.376,1.699,0.376,2.075-0.755l3.396-9.055c0.379-0.755-0.755-1.698-1.51-2.075l-28.484-9.81
				c-1.132-0.376-1.886,0.377-2.265,1.132c-3.206,9.808-7.167,18.866-12.071,28.107c-0.944,1.699-0.189,3.02,0.755,3.772
				l53.95,36.409c0.944,0.568,2.64,0.568,3.584-1.131c5.471-8.679,10.562-17.545,15.47-26.221c0.376-0.568,0.941-1.134,2.262-0.568
				l14.904,6.603C534.292,445.027,534.669,445.785,534.482,447.105L534.482,447.105z"/>
			<path style="fill-rule:evenodd;clip-rule:evenodd;fill:#FFFFFF;" d="M74.388,520.296c-0.377-0.941,0.753-2.075,1.508-2.641
				l109.035-69.041c0.566-0.379,1.698,0,2.075,0.376c3.208,3.774,6.414,7.546,9.809,11.316c0.377,0.758,0.944,1.699,0.567,2.454
				l-79.795,130.727c-0.566,0.757-2.453,0.188-3.018-0.564c-3.207-4.149-6.414-8.113-9.244-12.64
				c-0.565-0.757-0.377-2.077,0.19-2.829l18.675-29.995c0.943-1.696,0.943-2.64,0.378-4.339c-3.208-8.487-6.037-16.787-8.678-25.276
				c-0.19-0.758-1.887-0.945-2.641-0.569l-29.806,19.998c-0.753,0.376-2.263,0.189-2.641-0.567
				C78.538,531.426,76.273,525.766,74.388,520.296L74.388,520.296z M163.426,483.887l-30.938,20.75
				c-0.755,0.379-1.132,1.51-0.755,2.454c1.51,5.471,3.207,10.564,5.282,15.28c0.378,1.32,1.51,2.075,2.263,0.755l24.335-39.05
				C163.803,483.887,163.614,483.701,163.426,483.887L163.426,483.887z"/>
			<path style="fill-rule:evenodd;clip-rule:evenodd;fill:#FFFFFF;" d="M492.792,601.788c-0.569,0.568-1.51,1.134-2.265,0.189
				l-48.103-58.29c-0.379-0.565-1.131-1.131-1.886-0.565l-8.3,5.849c-0.755,0.565-1.699,1.32-1.134,2.827l29.807,79.04
				c0.376,0.947,0,1.51-0.568,2.078c-7.732,6.035-15.656,11.695-23.956,16.977c-0.566,0.376-1.51,0.754-1.698-0.188l-47.726-163.174
				l0.942-1.323c12.452-8.11,21.318-14.712,31.128-25.842c3.582-3.961,7.731-1.32,9.431,1.51l31.69,52.252
				c3.019,4.718,2.83,11.508-0.752,15.848l-0.944,1.131l47.347,52.63c0.947,0.943,0.758,1.889,0.19,2.451
				C501.655,591.037,497.505,596.13,492.792,601.788L492.792,601.788z M434.502,515.767l-13.018-25.652
				c-0.376-0.943-1.131-1.133-2.073-0.568c-2.829,1.888-5.659,4.339-8.679,6.227c-0.378,0.376-0.378,0.752-0.188,1.131
				l10.751,28.672c0.189,0.378,0.567,0.757,1.133,0.378l11.317-8.11C434.313,517.466,435.065,516.711,434.502,515.767
				L434.502,515.767z"/>
			<path style="fill-rule:evenodd;clip-rule:evenodd;fill:#FFFFFF;" d="M539.384,522.747c-0.189,0.567-0.565,1.134-1.32,0.757
				l-25.842-17.734c-0.567-0.187-1.32-0.187-1.698,0.376l-10.752,27.167c-0.188,0.753,0,1.508,0.377,2.073l17.92,29.807
				c0.376,0.563,0.376,1.32,0.189,1.697c-3.206,5.094-6.414,9.996-9.81,14.903c-0.189,0.376-0.944,0.564-1.32,0l-79.229-131.67
				c-0.376-0.568-0.376-1.134,0-1.699c3.396-4.34,6.414-8.679,9.434-13.205c0.187-0.377,0.752-0.755,1.32-0.377l106.013,68.286
				c0.379,0.376,0.757,0.944,0.568,1.696C543.534,510.676,541.648,516.711,539.384,522.747L539.384,522.747z M492.602,492.376
				l-29.239-19.805c-1.131-0.755-1.32-0.566-0.755,0.565l22.825,37.918c0.379,0.564,1.32,1.884,2.075,0.188
				c0.755-1.886,4.715-11.13,6.225-16.411C493.923,493.697,493.168,492.945,492.602,492.376L492.602,492.376z"/>
			<path style="fill-rule:evenodd;clip-rule:evenodd;fill:#FFFFFF;" d="M122.679,478.795c-8.3-10.564-15.657-22.448-22.636-35.465
				c-0.567-1.32-1.699-1.32-2.642-0.944l-34.521,11.887c-2.075,0.753-2.452-0.568-2.452-1.509
				c-0.755-8.114-0.567-16.224-0.567-24.148c0-1.886,0.945-2.641,2.075-2.83l99.037-19.618c1.132-0.188,2.075,0.378,2.263,0.945
				c4.905,12.072,10.564,22.258,17.355,33.012c0.566,0.752,0,2.072-0.566,2.451l-53.952,36.974
				C124.943,480.305,123.811,480.116,122.679,478.795L122.679,478.795z M154.371,439.557c-3.017-4.336-5.848-8.863-8.489-13.392
				c-0.188-0.19-0.566-0.19-0.943,0l-25.466,8.866c-1.132,0.19-0.944,0.944-0.755,1.32c3.206,6.414,6.98,12.263,11.318,17.922
				c0.566,0.753,1.887,1.131,2.64,0.564l21.694-14.523C154.559,440.126,154.559,439.747,154.371,439.557L154.371,439.557z"/>
			<path style="fill-rule:evenodd;clip-rule:evenodd;fill:#FFFFFF;" d="M307.168,486.155c79.417,0,144.31-64.707,144.31-144.311
				c0-79.417-64.894-144.31-144.31-144.31c-79.417,0-144.12,64.892-144.12,144.31C163.049,421.448,227.751,486.155,307.168,486.155
				L307.168,486.155z"/>
			<path style="fill-rule:evenodd;clip-rule:evenodd;fill:#007446;" d="M307.168,480.305c-37.915,0-72.625-15.658-97.714-40.748
				c-25.09-24.9-40.558-59.42-40.558-97.714c0-76.21,62.063-138.462,138.272-138.462c38.105,0,72.626,15.657,97.715,40.747
				c25.09,25.088,40.748,59.61,40.748,97.715C445.632,418.242,383.379,480.305,307.168,480.305L307.168,480.305z"/>
			<path style="fill-rule:evenodd;clip-rule:evenodd;fill:#FFFFFF;" d="M267.012,233.093c14.813-8.704,26.647-18.187,34.989-25.618
				c-39.083,1.499-73.984,19.89-97.621,48.055C225.254,252.549,246.296,245.052,267.012,233.093L267.012,233.093z"/>
			<path style="fill-rule:evenodd;clip-rule:evenodd;fill:#FFFFFF;" d="M347.513,233.092c20.658,11.927,41.641,19.417,62.604,22.48
				c-2.508-2.978-5.122-5.864-7.873-8.615c-23.312-23.312-54.815-38.072-89.633-39.475
				C320.816,214.862,332.668,224.368,347.513,233.092L347.513,233.092z"/>
			<path style="fill-rule:evenodd;clip-rule:evenodd;fill:#FFFFFF;" d="M221.987,380.659
				c-19.234-38.956-28.824-81.699-25.878-114.224c-14.659,21.548-23.251,47.522-23.251,75.408c0,37.162,15.09,70.741,39.425,94.884
				c22.922,22.925,54.049,37.8,88.485,39.454C259.663,445.933,235.292,407.831,221.987,380.659L221.987,380.659z"/>
			<path style="fill-rule:evenodd;clip-rule:evenodd;fill:#FFFFFF;" d="M418.649,266.821c2.663,32.465-6.98,75.093-26.11,113.837
				c-18.722,38.424-45.843,71.293-78.824,95.521c70.94-3.439,127.953-62.401,127.953-134.335
				C441.669,314.101,433.172,288.27,418.649,266.821L418.649,266.821z"/>
			<path style="fill-rule:evenodd;clip-rule:evenodd;fill:#FFFFFF;" d="M307.168,475.777c37.164-26.221,63.95-61.12,81.683-96.96
				c21.503-43.953,29.237-88.661,24.711-118.278c-26.788-3.207-49.801-13.016-68.1-23.768
				c-17.544-10.375-30.749-21.505-38.294-28.485c-7.356,6.98-20.372,18.11-37.915,28.485c-18.299,10.752-41.502,20.373-68.287,23.58
				c-4.339,29.805,3.206,74.512,24.9,118.466C243.409,414.468,270.196,449.556,307.168,475.777L307.168,475.777z"/>
			<path style="fill-rule:evenodd;clip-rule:evenodd;fill:#007446;" d="M307.168,470.685c-3.583-2.641-7.167-5.283-10.752-8.11
				c-29.05-23.204-50.933-52.82-66.213-83.192c-18.11-36.219-26.975-73.381-27.541-101.489c0-4.905,0.188-9.998,0.755-14.903
				c6.979-0.755,13.958-1.886,20.938-3.772c11.885-2.83,23.014-7.168,33.2-12.073c15.847-7.735,28.862-16.79,37.917-23.958
				c4.15-3.395,8.112-6.791,11.695-10.564c3.772,3.584,7.546,7.169,11.698,10.377c9.053,7.356,22.068,16.411,38.106,24.146
				c11.506,5.47,24.332,10.375,38.102,13.205c5.283,1.32,10.754,2.075,16.224,2.64c0.377,4.717,0.566,9.244,0.566,13.771
				c-0.189,28.107-9.055,65.836-27.54,102.621c-15.28,30.559-37.351,60.174-66.59,83.568
				C314.338,465.591,310.753,468.232,307.168,470.685L307.168,470.685z"/>
			<path style="fill-rule:evenodd;clip-rule:evenodd;fill:#FFFFFF;" d="M322.638,231.111c-6.79-5.093-12.074-9.62-15.469-13.016
				c-3.206,3.395-8.488,7.923-15.28,13.016H322.638L322.638,231.111z"/>
			<path style="fill-rule:evenodd;clip-rule:evenodd;fill:#FFFFFF;" d="M347.725,246.769c-7.166-3.772-13.77-7.923-19.43-11.695
				h-42.064c-5.66,3.772-12.262,7.923-19.43,11.695H347.725L347.725,246.769z"/>
			<path style="fill-rule:evenodd;clip-rule:evenodd;fill:#FFFFFF;" d="M387.342,262.614c-11.508-3.018-22.26-7.168-31.88-11.883
				h-96.396c-9.81,4.715-20.562,8.866-32.068,11.883H387.342L387.342,262.614z"/>
			<path style="fill-rule:evenodd;clip-rule:evenodd;fill:#FFFFFF;" d="M407.903,278.648c0-4.15,0-8.112-0.379-11.884H207.001
				c-0.377,3.773-0.377,7.734-0.377,11.884H407.903L407.903,278.648z"/>
			<path style="fill-rule:evenodd;clip-rule:evenodd;fill:#FFFFFF;" d="M406.772,294.494c0.376-3.961,0.752-7.923,0.941-11.883
				H206.813c0.188,3.961,0.566,7.922,1.131,11.883H406.772L406.772,294.494z"/>
			<path style="fill-rule:evenodd;clip-rule:evenodd;fill:#FFFFFF;" d="M404.132,310.341c0.941-3.962,1.507-7.924,2.072-11.697
				H208.322c0.567,3.773,1.321,7.735,2.075,11.697H404.132L404.132,310.341z"/>
			<path style="fill-rule:evenodd;clip-rule:evenodd;fill:#FFFFFF;" d="M400.545,326.186c0.943-3.962,1.888-7.923,2.829-11.885
				H211.151c0.943,3.962,1.887,7.923,3.018,11.885H400.545L400.545,326.186z"/>
			<path style="fill-rule:evenodd;clip-rule:evenodd;fill:#FFFFFF;" d="M395.643,342.031c1.32-3.961,2.64-7.922,3.771-11.883
				H215.302c1.132,3.961,2.264,7.923,3.584,11.883H395.643L395.643,342.031z"/>
			<path style="fill-rule:evenodd;clip-rule:evenodd;fill:#FFFFFF;" d="M389.793,358.066c1.51-4.15,3.019-8.112,4.529-11.884
				H220.394c1.321,3.772,2.83,7.734,4.527,11.884H389.793L389.793,358.066z"/>
			<path style="fill-rule:evenodd;clip-rule:evenodd;fill:#FFFFFF;" d="M382.624,373.912c1.889-3.961,3.775-7.923,5.471-11.883
				H226.62c1.698,3.961,3.396,7.923,5.281,11.883H382.624L382.624,373.912z"/>
			<path style="fill-rule:evenodd;clip-rule:evenodd;fill:#FFFFFF;" d="M374.324,389.758c2.265-3.962,4.339-7.923,6.414-11.885
				H233.976c1.887,3.962,4.15,7.922,6.225,11.885H374.324L374.324,389.758z"/>
			<path style="fill-rule:evenodd;clip-rule:evenodd;fill:#FFFFFF;" d="M364.515,405.604c2.64-3.962,5.094-7.923,7.548-11.885
				H242.654c2.264,3.962,4.717,7.923,7.357,11.885H364.515L364.515,405.604z"/>
			<path style="fill-rule:evenodd;clip-rule:evenodd;fill:#FFFFFF;" d="M353.198,421.448c3.015-3.961,5.846-7.732,8.676-11.882
				H252.653c2.829,4.15,5.658,7.921,8.676,11.882H353.198L353.198,421.448z"/>
			<path style="fill-rule:evenodd;clip-rule:evenodd;fill:#FFFFFF;" d="M339.614,437.106c3.585-3.584,7.169-7.545,10.378-11.695
				h-85.456c3.395,4.15,6.792,8.111,10.375,11.695H339.614L339.614,437.106z"/>
			<path style="fill-rule:evenodd;clip-rule:evenodd;fill:#FFFFFF;" d="M323.393,452.951c4.34-3.774,8.489-7.735,12.45-11.885
				h-57.159c3.962,4.15,8.112,8.11,12.639,11.885H323.393L323.393,452.951z"/>
			<path style="fill-rule:evenodd;clip-rule:evenodd;fill:#FFFFFF;" d="M307.168,465.778c3.96-2.827,7.735-5.657,11.508-8.676
				h-22.826C299.623,460.121,303.396,462.951,307.168,465.778L307.168,465.778z"/>
			<path style="fill-rule:evenodd;clip-rule:evenodd;fill:#007446;" d="M254.539,405.604c5.66,0,12.45,0.188,15.845-5.282
				c2.075-2.83,2.075-6.225,2.075-6.98v-67.155c0-0.755-0.565-1.887-1.698-2.83c-2.263-2.075-7.168-3.773-9.998-4.15
				c2.83-0.566,7.734-2.263,10.187-4.15c0.943-0.943,1.508-1.886,1.508-2.641v-40.935c0-1.32-0.189-2.265-0.754-3.207
				c-0.754-1.509-1.887-2.64-3.396-3.585c-3.773-1.886-9.997-1.32-13.77-0.377c0.378-1.508,2.075-4.715,2.64-5.658
				c4.717-8.112,10.376-9.81,15.847-9.055c5.093,0.566,9.808,3.584,13.016,5.848c4.905-4.527,10.564-7.923,16.034-10.187
				c7.735-3.017,15.468-4.15,21.503-4.15c13.963,0,26.789,6.037,36.033,15.657c9.62,9.621,15.467,22.637,15.467,36.597
				c0,12.261-6.226,26.408-16.411,36.973c-9.055,9.433-21.126,16.223-34.334,16.412c-6.79,0.188-13.581-1.698-18.485-5.282
				c-4.528-3.207-7.735-8.112-7.735-13.959c0-0.755,0-1.51,0.189-2.263c0.188-4.527,1.698-8.677,4.527-11.697
				c2.83-3.018,6.79-5.093,12.449-5.093c0.568,0,1.134,0,1.889,0.189c3.96,0.188,6.977,1.32,8.865,3.017
				c2.451,2.263,3.208,5.093,3.208,7.923c0,4.715-2.829,9.621-7.924,9.998c0.941,0.378,2.075,0.567,3.396,0.755
				c8.489,0.188,19.809-7.922,21.505-16.412c0.755-3.395-0.189-6.225-1.134-9.243c-0.942-2.453-1.697-5.093-1.697-8.112
				c-0.189-4.715,1.134-7.545,2.454-10.186c1.507-3.019,2.83-5.66,0.941-10.942c-1.886-5.093-5.092-9.808-9.62-13.016
				c-4.15-2.83-9.244-4.527-15.846-4.527c-5.094,0-11.13,2.64-15.657,6.603c-4.339,3.584-7.546,8.111-7.546,12.45v146.574
				c-4.715-1.134-8.865-2.454-12.45-6.038c-1.886-1.696-3.395-3.96-4.338-6.036c-3.018,2.454-6.225,4.15-9.81,4.339
				C265.669,416.167,256.614,411.451,254.539,405.604L254.539,405.604z"/>
			<path style="fill-rule:evenodd;clip-rule:evenodd;fill:#FFFFFF;" d="M262.651,408.998c3.206,2.078,6.036,3.019,8.678,2.83
				c5.093-0.376,9.997-5.281,12.072-8.111c0.189,3.019,1.508,7.735,4.905,10.941c1.697,1.509,3.583,2.64,5.848,3.585V276.951
				c0-5.66,3.772-11.318,8.865-15.468c5.282-4.527,12.45-7.734,18.299-7.546c7.356,0,13.395,2.075,18.107,5.282
				c5.283,3.772,8.868,9.055,11.13,14.902c2.454,6.79,0.758,10.187-1.131,13.96c-0.941,2.263-2.261,4.715-2.075,8.3
				c0,2.641,0.755,4.905,1.51,6.98c1.134,3.584,2.265,6.98,1.32,11.507c-2.265,10.375-15.091,19.618-25.655,19.43
				c-2.83-0.189-5.283-1.132-7.166-2.264c-4.719-3.207-5.095-7.923-4.34-10.941c0.752,1.32,3.206,3.583,5.471,4.15
				c0.565,0.378,1.131,0.378,1.886,0.378c3.395,0,4.904-3.019,4.904-6.037c0-1.887-0.376-3.584-1.886-4.905
				c-1.322-1.132-3.396-1.886-6.604-2.075c-0.566-0.188-1.131-0.188-1.51-0.188c-4.526,0-7.544,1.508-9.431,3.773
				c-2.263,2.452-3.396,5.848-3.585,9.432c-0.188,0.566-0.188,1.32-0.188,1.886c0,4.527,2.453,8.112,5.848,10.753
				c4.339,3.017,10.375,4.717,16.411,4.527c12.074-0.188,23.204-6.413,31.504-15.28c9.434-9.81,15.28-22.825,15.28-34.143
				c0-12.828-5.471-24.902-14.336-33.955c-8.489-8.678-20.374-14.337-33.203-14.337c-5.659,0-12.826,0.943-19.994,3.961
				c-5.66,2.264-11.13,5.66-15.847,10.377l-1.131,1.32l-1.322-0.944c-3.017-2.075-7.922-5.658-12.827-6.413
				c-3.773-0.378-7.733,0.943-11.13,6.225c3.019-0.377,6.225,0.188,8.867,1.697c2.263,1.132,4.15,3.018,5.093,5.282
				c0.755,1.51,1.132,3.018,1.132,4.905v40.935c0,1.886-0.943,3.961-2.83,5.659c-0.565,0.377-1.132,0.754-1.697,1.132
				c0.565,0.377,1.132,0.755,1.509,1.132c2.075,1.886,3.018,4.15,3.018,5.848v67.155c0,1.132-0.188,5.282-2.64,9.244
				C271.894,405.604,268.498,408.245,262.651,408.998L262.651,408.998z"/>
		</g>
	</g>
</g>
</svg>
