<?xml version="1.0" encoding="iso-8859-1"?>
<!-- Generator: Adobe Illustrator 23.0.1, SVG Export Plug-In . SVG Version: 6.00 Build 0)  -->
<svg version="1.1" xmlns="http://www.w3.org/2000/svg" xmlns:xlink="http://www.w3.org/1999/xlink" x="0px" y="0px"
	 viewBox="0 0 595.276 841.89" style="enable-background:new 0 0 595.276 841.89;" xml:space="preserve">
<g id="Grade" style="display:none;">
</g>
<g id="HQFL">
</g>
<g id="&#xC1;rea_de_trabalho">
</g>
<g id="Linhas-guia">
</g>
<g id="Page_1">
	<g id="HQFL_1_">
		<g>
			<path style="fill-rule:evenodd;clip-rule:evenodd;" d="M281.139,155.945c152.84,0,277.499,124.659,277.499,277.5
				c0,152.842-124.658,277.5-277.499,277.5c-152.842,0-277.501-124.658-277.501-277.5
				C3.638,280.604,128.297,155.945,281.139,155.945L281.139,155.945z"/>
			<path style="fill-rule:evenodd;clip-rule:evenodd;fill:#FFF200;" d="M281.139,177.881c140.758,0,255.562,114.804,255.562,255.563
				S421.897,689.008,281.139,689.008c-140.761,0-255.564-114.804-255.564-255.563S140.378,177.881,281.139,177.881L281.139,177.881z
				"/>
			<path style="fill-rule:evenodd;clip-rule:evenodd;" d="M120.339,599.023l11.598,10.09l-3.618,8.23l7.14,6.211l16.251-41.083
				l-7.573-6.588l-38.539,21.708l6.915,6.007L120.339,599.023L120.339,599.023z M141.65,586.176l0.088,0.077l-6.918,15.825
				l-8.01-6.974L141.65,586.176L141.65,586.176z"/>
			<path style="fill-rule:evenodd;clip-rule:evenodd;" d="M192.688,609.807l-7.691-4.439l-13.716,23.776
				c-2.526,4.373-6.085,5.668-11.26,2.68c-3.522-2.031-5.156-5.939-2.254-10.959l13.514-23.421l-7.691-4.439l-13.805,23.925
				c-1.992,3.674-2.919,7.021-2.234,10.379c1.151,5.416,5.611,9.063,8.928,10.979c9.104,5.252,17.181,4.488,22.667-5.002
				L192.688,609.807L192.688,609.807z"/>
			<path style="fill-rule:evenodd;clip-rule:evenodd;" d="M185.289,652.818l8.068,2.786l5.311-15.431l8.503,2.922
				c6.084,2.099,5.698,4.294,3.85,9.681c-1.403,4.065-1.771,6.213-1.867,8.264l9.113,3.133l0.357-1.045
				c-1.529-1.258-1.035-2.69,0.949-8.443c2.524-7.363,1.189-9.173-1.558-11.716c4.352,0.019,7.825-2.95,9.325-7.282
				c1.17-3.406,1.915-11.803-8.571-15.412l-19.918-6.86L185.289,652.818L185.289,652.818z M200.951,633.528l3.628-10.534
				l10.262,3.541c4.827,1.662,4.702,5.049,3.977,7.138c-1.336,3.898-3.928,4.652-8.213,3.183L200.951,633.528L200.951,633.528z"/>
			<polygon style="fill-rule:evenodd;clip-rule:evenodd;" points="246.621,627.599 238.05,626.079 230.815,667.125 239.386,668.632 
				246.621,627.599 			"/>
			<polygon style="fill-rule:evenodd;clip-rule:evenodd;" points="262.884,654.634 281.205,655.273 281.467,647.912 
				263.145,647.273 263.474,637.871 284.409,638.606 284.659,631.244 255.028,630.208 253.578,671.853 262.275,672.153 
				262.884,654.634 			"/>
			<polygon style="fill-rule:evenodd;clip-rule:evenodd;" points="299.771,630.035 291.112,630.954 295.466,672.386 324.729,669.31 
				323.944,661.812 303.339,663.98 299.771,630.035 			"/>
			<path style="fill-rule:evenodd;clip-rule:evenodd;" d="M342.925,655.369l14.627-4.748l5.194,7.342l8.996-2.922l-26.833-35.086
				l-9.549,3.096l-1.257,44.219l8.716-2.835L342.925,655.369L342.925,655.369z M342.895,630.49l0.116-0.039l10.002,14.075
				l-10.099,3.29L342.895,630.49L342.895,630.49z"/>
			<polygon style="fill-rule:evenodd;clip-rule:evenodd;" points="397.079,594.572 386.071,600.676 395.492,633.005 
				395.395,633.062 372.865,607.998 361.751,614.152 381.96,650.593 389.06,646.655 372.179,616.203 372.275,616.154 
				395.811,642.911 403.269,638.781 393.2,604.556 393.296,604.508 410.177,634.949 417.278,631.013 397.079,594.572 			"/>
			<path style="fill-rule:evenodd;clip-rule:evenodd;" d="M430.067,608.938l11.6-10.089l7.652,4.73l7.138-6.21l-38.424-21.805
				l-7.573,6.588l16.135,41.18l6.917-6.006L430.067,608.938L430.067,608.938z M420.309,586.04l0.085-0.078l14.714,9.055
				l-8.009,6.965L420.309,586.04L420.309,586.04z"/>
			<path style="fill-rule:evenodd;clip-rule:evenodd;" d="M54.884,442.494v13.774c0,17.047,11.708,32.572,39.43,32.572
				c25.14,0,38.914-13.803,38.914-38.599c0-15.669-4.132-24.278-11.192-30.821c-7.059-6.543-16.874-11.02-28.238-18.251
				c-6.027-4.133-9.988-8.094-9.127-15.842c0.689-5.683,4.306-9.126,10.503-8.609c9.988,0.689,9.643,11.02,9.988,18.596h27.894
				c1.378-24.279-12.053-41.841-38.397-41.841c-23.418,0-38.054,12.397-38.054,36.676c0,11.365,3.271,19.285,8.781,25.828
				c5.681,6.542,13.603,11.536,22.901,16.873c7.92,4.821,16.874,8.953,16.874,19.802c0,6.543-3.099,12.913-10.159,12.913
				c-9.643,0-12.054-6.542-12.054-13.946v-9.126H54.884L54.884,442.494z"/>
			<path style="fill-rule:evenodd;clip-rule:evenodd;" d="M196.938,447.144c0,7.402-0.689,18.423-10.503,18.423
				c-9.815,0-11.02-11.021-11.02-18.423V394.11c0-7.921,1.205-17.391,10.847-17.391c9.987,0,10.676,9.47,10.676,17.391V447.144
				L196.938,447.144z M227.243,392.044c0-24.796-14.291-38.569-40.808-38.569c-26.517,0-41.326,13.774-41.326,38.569v52.516
				c0,29.1,10.677,44.281,41.326,44.281c30.65,0,40.808-15.181,40.808-44.281V392.044L227.243,392.044z"/>
			<path style="fill-rule:evenodd;clip-rule:evenodd;" d="M271.495,379.818c14.809-0.344,21.179,0.345,21.179,15.669
				c0,7.921-2.067,16.014-10.848,16.014h-10.332V379.818L271.495,379.818z M271.495,434.746h9.987
				c7.061,0.518,9.471,5.683,10.331,13.603c0.861,7.92,0.172,18.596,0.69,29.961c0.172,2.582,0.86,4.992,1.721,7.404h33.06v-1.723
				c-1.377-1.205-2.238-2.755-2.927-4.478c-1.722-8.264-1.896-30.476-2.755-40.808c-0.518-8.954-6.545-14.808-14.981-16.702v-0.344
				c12.741-5.854,16.015-15.669,16.015-29.445c0-25.655-12.398-35.643-37.193-35.643H241.19v129.141h30.305V434.746L271.495,434.746
				z"/>
			<polygon style="fill-rule:evenodd;clip-rule:evenodd;" points="409.073,485.714 409.073,459.885 367.92,459.885 367.92,431.991 
				405.801,431.991 405.801,406.163 367.92,406.163 367.92,382.401 407.007,382.401 407.007,356.573 337.614,356.573 
				337.614,485.714 409.073,485.714 			"/>
			<path style="fill-rule:evenodd;clip-rule:evenodd;" d="M447.815,485.714l3.615-25.14h23.762l4.305,25.14h30.65l-28.066-129.141
				h-36.504l-28.239,129.141H447.815L447.815,485.714z M472.265,437.846h-17.562l8.78-57.856h0.345L472.265,437.846L472.265,437.846
				z"/>
		</g>
	</g>
</g>
</svg>
