<?xml version="1.0" encoding="utf-8"?>
<!-- Generator: Adobe Illustrator 23.0.1, SVG Export Plug-In . SVG Version: 6.00 Build 0)  -->
<svg version="1.1" id="Layer_1" xmlns="http://www.w3.org/2000/svg" xmlns:xlink="http://www.w3.org/1999/xlink" x="0px" y="0px"
	 viewBox="0 0 540.3 685.9" style="enable-background:new 0 0 540.3 685.9;" xml:space="preserve">
<style type="text/css">
	.st0{display:none;}
	.st1{fill-rule:evenodd;clip-rule:evenodd;fill:#EE3524;}
	.st2{fill-rule:evenodd;clip-rule:evenodd;fill:#FFFFFF;}
	.st3{fill-rule:evenodd;clip-rule:evenodd;}
	.st4{fill-rule:evenodd;clip-rule:evenodd;fill:#00549E;}
</style>
<g>
	<g id="Grade" class="st0">
	</g>
	<g id="HQFL">
	</g>
	<g id="Ãrea_de_trabalho">
	</g>
	<g id="Linhas-guia">
	</g>
	<path class="st1" d="M537.3,127.2c-19.3-28.5-36.4-46.6-63-67l-0.4-0.3l-0.3,0.4L403,141.5c-2.4,1.7-4.9,9.4-5,14.1
		c-0.1,4.2,0.2,7.1,0.4,9.8c0.3,3.7,0.6,6.6-0.3,11.2c0,0-0.3,1.9-0.3,1.9c-0.6,3.4-1,5.9-2.8,9.3L381.5,201c5.6,4.3,11,8.9,16,13.7
		c5-4.7,12.7-12.1,12.9-12.2c0.2-0.1,2.4-0.7,2.4-0.7c2.9-0.9,5.3-1.6,8.8-2.1c4.7-0.7,7.5-0.3,11.2,0.1c2.6,0.3,5.6,0.7,9.8,0.7
		c4.7,0,12.5-2.2,14.4-4.6l80.6-68.4L537.3,127.2L537.3,127.2z"/>
	<path class="st1" d="M109.3,202c3.7-0.4,6.6-0.7,11.2,0.1l1.9,0.3c3.4,0.5,5.9,0.9,9.2,2.6c0.1,0.1,7.7,7.5,12.6,12.4
		c5-5,10.2-9.7,15.7-14c-4.6-4.7-13.6-13.9-13.8-14.1c-0.1-0.2-0.7-2.4-0.7-2.4c-0.9-2.9-1.7-5.2-2.2-8.8c-0.3-2.1-0.5-3.8-0.5-5.4
		c0-2,0.2-3.8,0.4-5.8c0.3-2.5,0.5-5.3,0.5-9.1c0-0.2,0-0.5,0-0.7c0-4.6-2.4-12.2-4.8-14.2c0,0-69.8-79.5-69.8-79.5l-0.4,0.3
		c-28.1,19.8-46,37.2-65.9,64.2l-0.3,0.4c0,0,82.8,69.4,82.9,69.4c2,2.4,9.6,4.8,14.2,4.8C103.7,202.5,106.7,202.2,109.3,202
		L109.3,202z"/>
	<path class="st1" d="M519.5,395.9l-0.4-1.5l-0.7,1.5c-0.1,0.3-14.6,31.5-67.2,69.6l-1,0.7c0,0,21.3,5.7,22.7,6.1
		c-7.2,11.8-12,18.6-20.9,29.5c-3.8,4.7-7.4,9.1-10.9,13.3l-39.8-44.2c-4.4,4.5-9,8.8-13.9,12.8l41,45.5c-10.6,10.8-22.2,20-39.2,29
		l-5.5,2.9c-14.3,7.7-24.7,13.2-42.2,13.8l-1.3,0c-9.2,0.3-15.3,0.6-24.2-3c-10-4-15.6-8.5-22.1-17.6c-3.5-5-3.3-10.9-3.1-16.6
		c0.2-4.8,0.3-9.5-1.8-13.3c-5.6,0.5-11.2,0.8-16.9,0.8c-6.3,0-12.6-0.3-18.8-1c-1.6,2.8-2,6.1-2,9.6c0,1.3,0,2.6,0.1,3.9
		c0,1.3,0.1,2.7,0.1,4c0,4.4-0.5,8.8-3.2,12.6c-6.5,9.2-12,13.6-22.1,17.6c-8.9,3.5-15,3.3-24.2,3l-1.3,0
		c-17.5-0.6-27.9-6.2-42.2-13.8l-5.5-2.9c-14.9-7.8-25.6-15.8-35.1-24.8l42.2-46.9c-4.9-3.9-9.7-8.1-14.2-12.5l-0.2,0.2l-40.9,45.4
		c-4.7-5.4-9.5-11.3-14.8-17.7c-8.9-10.9-13.7-17.7-20.9-29.5c1.4-0.4,22.7-6.1,22.7-6.1l-1-0.7c-52.6-38.1-67.1-69.3-67.2-69.6
		l-0.7-1.5l-0.4,1.5c-0.2,0.7-18.2,71.1,7.8,115.9l0.5,0.8c0,0,11.2-17.9,12.1-19.3c11.2,19.2,18.7,30,33,47.3
		c1.6,1.9,3.1,3.8,4.7,5.6l-40.6,45.1l0,0.2c0,0.3-0.4,6.5,3.7,10.2c2.4,2.2,5.8,3,10.2,2.3l0.2,0l38.9-43.2
		c18.1,20.5,34.5,35.3,63.1,50.9c21.3,11.6,35,15.8,59.3,22.8c3.2,0.9,6,1.4,8.7,1.9c4.1,0.7,7.9,1.3,12.5,3.6
		c10.3,4.9,15.2,9.8,21.6,18.2c6.8,8.9,9.2,15.1,12,25.6l0.5,2l0.6-2c3.1-11,5.4-17,12-25.6c6.5-8.4,11.4-13.3,21.6-18.2
		c4.7-2.2,8.5-2.9,12.5-3.6c2.7-0.5,5.5-0.9,8.7-1.9c24.3-7,38-11.2,59.3-22.8c30.6-16.8,47.4-32.6,67-55.4l39.2,43.5l0.2,0
		c4.3,0.7,7.8-0.1,10.2-2.3c4-3.7,3.7-9.9,3.7-10.2l0-0.2l-40.9-45.4c0.3-0.4,0.6-0.7,0.9-1.1c14.4-17.3,21.9-28.1,33-47.3
		c0.9,1.5,12.1,19.3,12.1,19.3l0.5-0.8C537.7,467,519.7,396.6,519.5,395.9L519.5,395.9z"/>
	<path class="st2" d="M146.2,203.4c-7.3-6.5-18.7-16.6-18.7-16.6s-7.7-9.8-19.9,2.4c4.2-4.2,7.8-13.3,0.9-21.3L73,130.2l37.6,35.5
		c8,6.9,17.1,3.2,21.3-0.9c-12.1,12.1-2.3,19.9-2.3,19.9S139.7,196.1,146.2,203.4L146.2,203.4z"/>
	<path class="st2" d="M15.4,125.9L92,189.5c4.9,3.3,11.4,4.3,11.4,4.3s-7.2,2-12.7-2.1c0,0-77.5-63.9-77.4-63.4L15.4,125.9
		L15.4,125.9z"/>
	<path class="st2" d="M396,202.3c6.6-7.2,16.9-18.4,16.9-18.4s9.9-7.5-2-19.9c4.1,4.2,13.2,8.1,21.3,1.3l38.2-34.9l-36.2,37
		c-7.1,7.8-3.5,17.1,0.5,21.3c-11.9-12.4-19.8-2.7-19.8-2.7S403.4,196,396,202.3L396,202.3z"/>
	<path class="st2" d="M475.8,73l-64.9,75.4c-3.3,4.8-4.5,11.3-4.5,11.3s-1.8-7.2,2.3-12.7c0,0,65.2-76.4,64.7-76.2L475.8,73
		L475.8,73z"/>
	<path class="st1" d="M205.3,129.4c0,0-0.7-28.6,0-29.1c17-13.2,47.6-19.3,47.6-19.3c-14.7-6.5-23.5-20.2-23.5-37.3
		c0-23.1,18.7-41.9,41.9-41.9c23.1,0,41.7,18.7,41.7,41.9c0,17.1-8.8,30.8-23.5,37.3c0,0,30.7,6.1,47.6,19.3c0.7,0.5,0,29.1,0,29.1
		s-12.7,13.5-39.4,15.4c-2.3,0.2-5.5,13.6-6.9,20.3c-6.1-0.6-12.3-0.9-18.5-0.9c-7,0-13.8,0.4-20.6,1.2c-1.4-6.7-4.6-20.4-7-20.6
		C217.9,142.9,205.3,129.4,205.3,129.4L205.3,129.4z M250.3,43.6c0,11.6,9.4,20.9,20.9,20.9c11.6,0,20.9-9.4,20.9-20.9
		s-9.4-20.9-20.9-20.9C259.7,22.7,250.3,32.1,250.3,43.6L250.3,43.6z"/>
	<path class="st2" d="M238.8,25.4c-3.1,5.5-4.8,11.9-4.8,18.3c0,5.5,1.2,10.8,3.4,15.7c0.2,0.2,0.9,0.8,1.4,0.6
		c0.4-0.1,0.6-0.7,0.7-1.2c-2.3-4.7-3.4-9.8-3.4-15.1c0-7.1,2.2-14,6.2-19.9c-0.2-0.1-0.6-0.3-1-0.3
		C240.5,23.6,239.6,24.2,238.8,25.4L238.8,25.4z"/>
	<path class="st2" d="M296,32.1c-1.1-1.2-1.8-1.5-2.1-1.3c-0.3,0.1-0.4,0.8-0.4,1.2c1.9,3.6,2.9,7.6,2.9,11.6c0,6.4-2.5,12.4-6.9,17
		c0,0,0,0.1,0,0.1c0,0.3,0.1,0.5,0.2,0.6c0.5,0.3,1.8-0.1,2.5-0.5c4.1-4.8,6.4-11,6.4-17.4C298.5,39.6,297.7,35.7,296,32.1L296,32.1
		z"/>
	<path class="st2" d="M218.2,127.2c-0.6,0-1.1,0.5-1.1,1.1c0,0.6,0.5,1.1,1.1,1.1h112.6c0.6,0,1.1-0.5,1.1-1.1
		c0-0.6-0.5-1.1-1.1-1.1H218.2L218.2,127.2z"/>
	<path class="st2" d="M213.7,100h-1.1v22c0,0.6,0.5,1.1,1.1,1.1c0.6,0,1.1-0.5,1.1-1.1c0,0,0-17.7,0-19.7c2.2,0,115.9,0,115.9,0
		c0.6,0,1.1-0.5,1.1-1.1s-0.5-1.1-1.1-1.1H213.7L213.7,100z"/>
	<path class="st2" d="M114.7,530l31.7-35.2l-1-1.9l-32.1,35.7C113.8,529,114.2,529.5,114.7,530L114.7,530z"/>
	<path class="st2" d="M88.9,555.6l-36.8,40.9c0,0-8.8,2.2,1,1.9l37.1-41.3C89.8,556.7,89.4,556.1,88.9,555.6L88.9,555.6z"/>
	<path class="st2" d="M433.2,524.2l-32-35.6l-1,1.9l31.6,35.2C432.2,525.2,432.7,524.7,433.2,524.2L433.2,524.2z"/>
	<path class="st2" d="M494.4,592.4l-37-41.3c-0.4,0.5-0.9,1.1-1.3,1.6l37.4,41.6C503.2,594.5,494.4,592.4,494.4,592.4L494.4,592.4z"
		/>
	<path class="st2" d="M49.2,477.4c1.6,3.2,3.4,6.5,5.3,9.8c15.3,27,26.4,41.4,49,62.4c26.9,25.2,45,38.5,79.5,50.5
		c19.5,6.8,35.4,10.1,58.7,11c0,0,25,4.3,29.6,39.8v-85c-1,41.6-28.1,42.1-28.1,42.1c-23.3-0.9-36.7-3.4-58.7-11
		c-34.7-12-52.6-25.3-79.5-50.5c-22.5-21.1-33.6-35.5-49-62.4c-1.5-2.7-3-5.4-4.4-8c-7.9-15.7,19-11.8,25.4-12.2l-1.6-1.2l-31.7-2.2
		c-5.4-12.5-10.1-27.1-13.9-39.3c0,0-1.9,0.3-1,3.1c3.5,11.4,8.1,25.7,12.9,37.4l-8.4,33.9l0.8,1.9
		C35.8,491.3,43.1,464.6,49.2,477.4L49.2,477.4z"/>
	<path class="st2" d="M493.2,477.4c-1.6,3.2-3.4,6.5-5.3,9.8c-15.3,27-26.4,41.4-49,62.4c-26.9,25.2-45,38.5-79.5,50.5
		c-19.5,6.8-35.4,10.1-58.7,11l-1.5-3.1c23.3-0.9,36.7-3.4,58.7-11c34.7-12,52.6-25.3,79.5-50.5c22.5-21.1,33.6-35.5,49-62.4
		c1.6-2.7,3-5.4,4.4-8c7.9-15.7-19-11.8-25.4-12.2l1.6-1.2l31.7-2.2c5.4-12.5,10.1-27.1,13.9-39.3c0,0,1.9,0.3,1,3.1
		c-3.5,11.4-8.1,25.7-12.9,37.4l8.4,33.9l-0.8,1.9C506.6,491.3,499.3,464.6,493.2,477.4L493.2,477.4z"/>
	<path class="st3" d="M470,353.7c1.6-1.3,2.5-2.9,2.6-4.5c0.3-5.2-5.1-7.9-10.2-8.2c-0.8-0.1-1.9-0.1-3,0c0-0.5,0-0.9,0-1.4
		c3.8,0.4,8-0.8,10.7-3c1.6-1.3,2.5-2.9,2.6-4.5c0.3-5.2-5.1-7.9-10.2-8.2c-1.7-0.1-4.7-0.1-7.7,0.3c0.2-0.4,0.2-0.9,0.2-1.3
		c0-0.2,0-0.3,0-0.4c0.2-0.5,1-3.6,1-7.9c0-3.3-0.5-7.3-2.1-11.3c-1.1-2.6-2.3-4.5-3.6-6.1c0,0,0,0,0,0c0.7-0.3,0.9-1,0.9-1.7
		c0-0.5-0.1-1-0.2-1.3c0-0.2,0-0.6,0-1.4c0-3.1-0.5-10.5-5-17.1c-2-3-4.1-5-6.1-6.5c0,0,0,0,0,0c0.5-0.3,0.6-0.8,0.6-1.4
		c0-0.7-0.3-1.4-0.4-1.8c-0.1-1-0.9-10.2-7.7-17.6c-3.1-3.4-6-5.1-8.7-6.4c0.1,0,0.2-0.1,0.3-0.1c0.3-0.3,0.5-0.7,0.5-1.1
		c0-0.8-0.4-1.5-0.7-2c-0.2-0.9-2.4-10-10.2-16.3c-2.6-2.1-5.1-3.4-7.4-4.3c0.2-0.3,0.3-0.6,0.3-0.9c0-0.9-0.7-1.7-1.1-2.1
		c-0.4-0.9-4.1-9.4-12.8-14.3c-3.9-2.2-7.1-2.8-10.1-3.1c0-0.1,0-0.1,0-0.2c0-0.9-0.9-1.7-1.4-2.2c-0.5-0.8-5.4-8.7-14.8-12.2
		c-2.6-1-4.8-1.4-6.9-1.5c0,0,0,0,0,0c0-0.1,0.1-0.3,0.1-0.4c0-1.1-1.3-1.8-1.8-2.1c-0.7-0.8-7.1-7.4-16.9-9c-3.6-0.6-6.4-0.4-8.9,0
		c0,0,0,0,0,0c0-0.1,0-0.2,0-0.2c0-1.2-1.5-1.8-2.2-2.1c-0.8-0.6-8.1-6.3-18.1-6.4c-4.6,0-7.8,0.9-10.6,2c0-0.1,0-0.2,0-0.3v0
		c0-1.4-1.7-1.8-2.4-1.9c-0.3-0.2-1.1-0.6-2.4-1.2c0-0.2,0-0.4,0-0.5c0-3.4-1.1-6.8-3.1-9.1c-1.3-1.6-2.9-2.5-4.5-2.6
		c-5-0.3-7.7,4.7-8.2,9.7c-0.2,0-0.4,0-0.7,0.1c-0.3,0-0.6,0.1-0.9,0.2c-0.3-2.8-1.3-5.4-2.9-7.4c-1.3-1.6-2.9-2.5-4.5-2.6
		c-5.2-0.3-7.9,5.1-8.2,10.2c-0.2,0-0.4,0.1-0.6,0.1c-0.2,0.1-0.4,0.1-0.6,0.2c-0.2-3-1.3-6-3.1-8.1c-1.4-1.6-3-2.6-4.6-2.7
		c-5.3-0.3-8.1,5.2-8.4,10.4c0,0.6-0.1,1.3-0.1,2.1c0,0.3,0,0.6,0,1c-3.7-0.3-9-0.2-14.4,2c-2.6,1.1-4.5,2.3-6.1,3.6c0,0,0,0,0,0
		c-0.6-1.2-2.3-0.9-3-0.7c-0.8-0.1-10.2-0.7-18.6,5c-3,2-5,4.1-6.5,6.1c0,0,0,0,0,0c-0.8-1.1-2.4-0.5-3.1-0.2
		c-1,0.1-10.2,0.9-17.6,7.7c-3.4,3.1-5.1,6-6.4,8.7c0-0.1-0.1-0.2-0.1-0.3c-0.9-1-2.4-0.2-3.1,0.3c-0.9,0.2-10,2.4-16.3,10.2
		c-2.1,2.6-3.4,5.1-4.3,7.4c-1.1-0.8-2.4,0.3-3,0.8c-0.9,0.4-9.4,4.1-14.3,12.8c-2.1,3.9-2.8,7.1-3.1,10c-1-0.1-1.9,0.8-2.3,1.4
		c-0.8,0.5-8.7,5.4-12.2,14.8c-1,2.6-1.4,4.8-1.5,6.9c0,0,0,0,0,0c-1.3-0.4-2.2,1.1-2.6,1.8c-0.8,0.7-7.4,7.1-9,16.9
		c-0.3,1.6-0.4,3.1-0.4,4.4c0,1.6,0.2,3.1,0.4,4.5c0,0,0,0,0,0c-1.4-0.2-2,1.4-2.3,2.1c-0.6,0.8-6.3,8.1-6.4,18.1c0,0.1,0,0.2,0,0.3
		c0,4.4,0.9,7.5,2,10.2c-0.1,0-0.2,0-0.3,0c-1.4,0-1.8,1.7-1.9,2.5c-0.3,0.4-1.4,2.5-2.4,5.5c-2.7-0.3-5.2-0.3-6.8-0.2
		c-5.2,0.3-10.6,3-10.2,8.2c0.1,1.6,1,3.2,2.6,4.5c2.7,2.3,7,3.4,10.8,3c1-0.1,1.8-0.3,2.6-0.6c0.1,0.6,0.3,1.3,0.4,1.9
		c0,0.1,0,0.2-0.1,0.4c-2.3-0.2-4.5-0.2-6.1-0.1c-5.2,0.3-10.6,3-10.2,8.2c0.1,1.6,1,3.2,2.6,4.5c2.7,2.3,7,3.4,10.8,3
		c1.2-0.1,2.2-0.5,3.1-0.8c0.2,0.9,0.5,1.8,0.8,2.5c-2.6-0.3-5.3-0.4-7.1-0.3c-5.2,0.3-10.5,3-10.2,8.2c0.1,1.6,1,3.2,2.6,4.5
		c2.7,2.3,7,3.4,10.8,3c1.7-0.2,3-0.7,4.2-1.2c0,0,1-0.3,1.7-0.6c-0.1,0.9-0.1,1.9-0.1,3.1c0,3.3,0.5,7.3,2.1,11.3
		c1.1,2.6,2.3,4.5,3.6,6.1c0,0,0,0,0,0c-0.7,0.3-0.9,1-0.9,1.7c0,0.5,0.1,1,0.2,1.3c0,0.2,0,0.6,0,1.4c0,3.1,0.5,10.5,5,17.1
		c2,3,4.1,5,6.1,6.5c0,0,0,0,0,0c-0.5,0.3-0.7,0.8-0.7,1.4c0,0.7,0.3,1.4,0.4,1.8c0.1,1,0.9,10.2,7.7,17.6c3.1,3.4,6,5.1,8.7,6.4
		c-0.1,0-0.2,0.1-0.3,0.1c-0.3,0.3-0.5,0.7-0.5,1.1c0,0.8,0.4,1.5,0.7,2c0.2,1,2.4,10,10.2,16.3c2.6,2.1,5.1,3.4,7.4,4.3
		c-0.2,0.3-0.3,0.6-0.3,0.9c0,0.9,0.7,1.7,1.1,2.1c0.4,0.9,4.1,9.4,12.8,14.3c3.9,2.2,7.1,2.8,10,3.1c0,0.1,0,0.1,0,0.2
		c0,0.9,0.9,1.7,1.4,2.2c0.5,0.8,5.4,8.7,14.8,12.2c2.6,1,4.8,1.4,6.9,1.5c0,0,0,0,0,0c0,0.1-0.1,0.3-0.1,0.4c0,1.1,1.3,1.8,1.8,2.1
		c0.7,0.8,7.1,7.4,16.9,9c3.6,0.6,6.4,0.4,8.9,0c0,0,0,0,0,0c0,0.1,0,0.2,0,0.2c0,1.2,1.5,1.8,2.2,2c0.8,0.6,8.1,6.3,18.1,6.4
		c4.6,0.1,7.8-0.9,10.6-2c0,0.1,0,0.2,0,0.2c0,1.4,1.7,1.8,2.4,1.9c0.1,0.1,0.3,0.2,0.6,0.3c-0.9,3-1.3,6.8-1.3,9.7
		c0,0.8,0,1.4,0.1,2c0.3,5.2,3,10.6,8.2,10.2c1.6-0.1,3.2-1,4.5-2.6c1.9-2.3,3.1-5.8,3.1-9.1c0-0.6,0-1.1-0.1-1.7
		c-0.2-1.7-0.7-3-1.2-4.2c0,0-0.1-0.4-0.3-0.9c1.1,0.1,2.3,0,3.4-0.1c-0.3,2.1-0.5,4.4-0.5,6.2c0,0.8,0,1.5,0.1,2.1
		c0.3,5.2,3,10.6,8.2,10.2c1.6-0.1,3.2-1,4.5-2.6c1.9-2.3,3.1-5.8,3.1-9.1c0-0.6,0-1.1-0.1-1.7c-0.2-1.7-0.7-3-1.2-4.1
		c0,0-0.1-0.4-0.3-0.9c1.1-0.1,2.3-0.2,3.5-0.4c-0.4,2.3-0.5,4.7-0.5,6.5c0,0.8,0,1.5,0.1,2.1c0.3,5.2,3,10.6,8.2,10.2
		c1.6-0.1,3.2-1,4.5-2.6c1.9-2.3,3.1-5.8,3.1-9.2c0-0.6,0-1.1-0.1-1.7c-0.2-1.7-0.7-3-1.2-4.2c0,0-0.6-1.6-0.7-2.2
		c0.8-0.9,1.3-1.9,1.8-3c2.9,0.6,10.3,1.7,17.9-1.5c2.6-1.1,4.5-2.3,6.1-3.6c0,0,0,0,0,0c0.6,1.2,2.3,0.9,3,0.7
		c0.8,0.1,10.2,0.7,18.6-5c3-2,5-4.1,6.5-6.1c0,0,0,0,0,0c0.8,1.1,2.4,0.5,3.1,0.2c1-0.1,10.2-0.9,17.6-7.7c3.4-3.1,5.1-6,6.4-8.7
		c0,0.1,0.1,0.2,0.1,0.3c0.9,1,2.4,0.2,3.1-0.3c0.9-0.2,10-2.4,16.3-10.2c2.1-2.6,3.4-5.1,4.3-7.4c1.1,0.8,2.4-0.3,3-0.8
		c0.9-0.4,9.4-4.1,14.3-12.8c2.1-3.9,2.8-7.1,3.1-10c1,0.1,1.9-0.8,2.3-1.4c0.8-0.5,8.7-5.4,12.2-14.8c1-2.6,1.4-4.8,1.5-6.9
		c0,0,0,0,0,0c1.3,0.4,2.2-1.1,2.6-1.8c0.8-0.7,7.4-7.1,9-16.9c0.3-1.6,0.4-3.1,0.4-4.4c0-1.6-0.2-3.1-0.4-4.4c0,0,0,0,0,0
		c1.4,0.2,2-1.4,2.3-2.1c0.6-0.8,6.3-8.1,6.4-18.1c0-0.1,0-0.2,0-0.4c0-4.4-0.9-7.5-2-10.2c0.1,0,0.2,0,0.2,0c0.7,0,1.1-0.4,1.4-1
		c0,0,0.1,0,0.1,0c1.2,0.5,2.5,1,4.1,1.2c3.8,0.5,8.1-0.7,10.8-3c1.6-1.3,2.5-2.9,2.6-4.5c0.3-5.2-5.1-7.9-10.2-8.2
		c-0.8-0.1-1.9-0.1-3,0c0-0.5,0.1-0.9,0.1-1.4C463.1,357.1,467.3,355.9,470,353.7L470,353.7z M296.7,177.6c0-1.5-0.1-2.9-0.3-4.1
		c4.7,1,9.8,1.8,13.1,1.7c0.1,0,1.7-0.1,4.1-0.3c3.5,2.7,16.5,7.8,23,8.5c0,0,0.9,0.1,2.3,0.2c3.5,3.2,14.8,10.1,20.7,11.9
		c0.1,0,2.6,0.8,5.9,1.6c3.2,4,13.1,12.3,18.6,15c0,0,1.2,0.6,3,1.4c2.3,4.4,11.1,14.9,16.3,18.6c0.1,0,2.1,1.5,4.8,3.2
		c1.2,4.4,8.1,16.5,12.8,21.1c0,0,1.2,1.2,3,2.8c0.5,4.4,5.5,17.4,9.5,22.7c0,0,0.6,0.7,1.4,1.8c0,4.8,2.7,17.7,5.4,23.3
		c0,0.1,1.2,2.4,2.9,5.5c-0.4,2.5-0.4,7.1-0.1,11.7c-0.1,0-0.1,0-0.2,0c-1.9,0.2-3.6,0.6-5.5,1.5c-0.8-0.3-1.7-0.5-2.7-0.7
		c-8.9-73.3-66.3-131.6-139.2-141.9C296.2,181.2,296.7,179.1,296.7,177.6L296.7,177.6z M444.8,340.3c0,0.3,0,0.7,0,1
		c-0.6-0.1-1.2-0.1-1.9,0c-1.9,0.2-3.6,0.6-5.5,1.5c-0.5-0.2-1-0.3-1.5-0.5c0-1.3-0.1-2.5-0.1-3.8c1.9,0.8,5,1.8,7,1.8
		C443.5,340.4,444.2,340.3,444.8,340.3L444.8,340.3z M279.8,171.4c0,0,0.8-0.2,1.9-0.4c-0.4,0.9-1.2,3-1.2,5.6c0,0.3,0,0.6,0,0.9
		c0.1,1.4,0.4,2.7,0.9,4c-0.8,0-1.7-0.1-2.5-0.1c0.4-1.4,0.7-2.8,0.7-3.9c0-2.4-0.2-4.4-0.7-6C279.1,171.5,279.5,171.5,279.8,171.4
		L279.8,171.4z M262,172.4c0.7-0.2,1.4-0.3,2-0.5c0,0,0,0,0.1,0c-0.4,1.1-0.9,2.8-0.9,4.8c0,0.3,0,0.6,0,0.9c0.1,1.4,0.4,2.7,0.9,4
		c-0.8,0-1.6,0.1-2.4,0.1c0.4-1.4,0.7-2.9,0.7-4.1C262.5,175.5,262.3,173.8,262,172.4L262,172.4z M102.7,303.1
		c2.7-3.5,7.8-16.5,8.5-23c0,0,0.1-0.9,0.2-2.3c3.2-3.5,10.1-14.8,11.9-20.7c0-0.1,0.8-2.6,1.6-5.9c4-3.2,12.3-13.1,15-18.5
		c0,0,0.6-1.2,1.4-3c4.4-2.3,14.9-11.1,18.6-16.3c0-0.1,1.5-2.1,3.2-4.8c4.4-1.2,16.5-8.1,21.1-12.8c0,0,1.2-1.2,2.8-3
		c4.4-0.5,17.4-5.5,22.7-9.5c0,0,0.7-0.6,1.8-1.4c4.8,0,17.7-2.7,23.3-5.4c0.1,0,2.4-1.2,5.5-2.9c1.4,0.2,3.5,0.3,5.9,0.3
		c-0.2,0.8-0.3,1.8-0.3,2.8c0,0.3,0,0.6,0,0.9c0.1,1.9,0.6,3.6,1.5,5.5c0,0.1,0,0.2-0.1,0.2c-71.8,11-128.3,68.8-137.3,141.3
		c-1.8,0.2-3.6,0.5-5.1,1.1c-1.5-0.7-2.9-1.2-4.5-1.4c1.5-5.6,2.8-12.7,2.6-17C103,307.2,102.9,305.5,102.7,303.1L102.7,303.1z
		 M178.8,289.7l53.6,169.6c-47.3-16.5-81.2-61.5-81.2-114.4c0-25.9,8.2-50,22.1-69.7l0.7,16.7L178.8,289.7L178.8,289.7z M99.7,340.4
		c2.4-0.1,6.2-1.4,7.8-2.2c0.4,0.1,0.9,0.3,1.4,0.4c0,1.1-0.1,2.2-0.1,3.4c-1.4,0.2-2.7,0.5-3.9,0.9c-1.7-0.8-3.3-1.3-5.1-1.5
		C99.7,341,99.7,340.7,99.7,340.4L99.7,340.4z M100.6,357.5c2.4-0.3,5.5-1.4,6.9-2.2c0.5,0.2,1.1,0.3,1.6,0.5
		c0.1,1.1,0.2,2.1,0.2,3.2c-1.6,0.2-3.1,0.5-4.5,1c-1.4-0.7-2.7-1.1-4.1-1.4C100.7,358.3,100.7,357.9,100.6,357.5L100.6,357.5z
		 M247.4,515.9c-4.5-0.9-9.2-1.6-12.3-1.5c-0.1,0-1.7,0.1-4.1,0.3c-3.5-2.7-16.5-7.8-23-8.5c0,0-0.9-0.1-2.3-0.2
		c-3.5-3.2-14.8-10.1-20.7-11.9c-0.1,0-2.6-0.8-5.9-1.6c-3.2-4-13.1-12.3-18.5-15c0,0-1.2-0.6-3-1.4c-2.3-4.4-11.1-14.9-16.3-18.6
		c-0.1,0-2.1-1.5-4.8-3.2c-1.2-4.4-8.1-16.5-12.8-21.1c0,0-1.2-1.2-3-2.8c-0.5-4.4-5.5-17.4-9.5-22.7c0,0-0.6-0.7-1.4-1.8
		c0-4.7-2.7-17.7-5.4-23.3c0-0.1-1.2-2.4-2.9-5.4c0.1-0.7,0.2-1.7,0.2-2.7c2.2-0.4,4.7-1.3,5.9-2c1.1,0.4,2.4,0.7,3.7,0.9
		c12,68.3,66.3,121.9,134.9,133c0.1,3.2,0.5,6.5,1.4,9.1C247.5,515.7,247.4,515.8,247.4,515.9L247.4,515.9z M263.7,518.5
		c-0.4,0.1-1,0.2-1.6,0.4c-0.4-2.2-1.4-4.7-2-5.9c0.5-1.4,0.8-3,1.1-4.7c0.8,0.1,1.5,0.1,2.3,0.1c0.2,2.6,0.5,5.1,1.3,7.2
		C264.3,516.5,263.9,517.5,263.7,518.5L263.7,518.5z M281.1,517.6c-0.2,0.1-0.4,0.1-0.5,0.1c0,0-0.2,0.1-0.4,0.1
		c-0.4,0-0.8-0.1-1.2-0.1c-0.5-1.9-1.2-3.9-1.8-4.9c0.4-1.4,0.8-2.8,1.1-4.5c0.8,0,1.5,0,2.3-0.1c0.2,2.6,0.5,5.1,1.3,7.2
		C281.6,516.2,281.3,516.9,281.1,517.6L281.1,517.6z M272.4,466.1c-9,0-17.7-1-26.1-2.8l0.1-0.1l-58.5-177.6l4.3-2L179,267.7
		c22.2-26.9,55.8-44,93.4-44c66.9,0,121.2,54.2,121.2,121.2c0,13.7-2.3,26.8-6.5,39.1c-22.9-36.7-33.2-78.1-31.4-126.5l-0.6-0.4
		c-20.5,6.9-34,13.6-48,21c0.1-1.3,0.2-2.6,0.2-4.1c0-7.5-2.5-16.5-19.8-17.9c-23.3-2.1-55,9.1-97.1,34.1l-0.1,0.6
		c15,19.9,37.5,95.9,42.1,128.7l0.7,0.3c12.4-9.7,25.8-17.5,36.1-21l0,0c-0.4,3.4-0.8,7.9-0.8,12.6c0,8.1,1.4,16.8,7.2,21.5
		c5.3,4.3,13.6,4.8,24.7,1.3c13.7-4.3,26.8-12.7,40.7-21.5c14.1-9,28.6-18.3,44-23.1C367.1,434.5,323.5,466.1,272.4,466.1
		L272.4,466.1z M441.9,386.5c-2.7,3.6-7.8,16.5-8.5,23c0,0-0.1,0.9-0.2,2.3c-3.2,3.5-10.1,14.8-11.9,20.7c0,0.1-0.8,2.6-1.6,5.9
		c-4,3.2-12.3,13.1-15,18.6c0,0-0.6,1.2-1.4,3c-4.4,2.3-14.9,11.1-18.6,16.3c0,0.1-1.5,2.1-3.2,4.8c-4.4,1.2-16.5,8.1-21.1,12.8
		c0,0-1.2,1.2-2.8,3c-4.4,0.5-17.4,5.5-22.7,9.5c0,0-0.7,0.6-1.8,1.4c-4.8,0-17.7,2.7-23.3,5.4c-0.1,0-2.4,1.2-5.5,2.9
		c-2-0.3-5.2-0.4-8.7-0.2c-0.4-1.2-0.8-2.3-1.2-3c0.6-1.8,1-3.8,1.3-6c70.1-10.1,125.8-64.5,137.8-134c0.4-0.1,0.8-0.2,1.2-0.3
		c1.5,0.8,5,2,7.4,2.2c-0.5,2.9-0.7,5.6-0.6,7.7C441.6,382.5,441.7,384.1,441.9,386.5L441.9,386.5z M446.4,358.7
		c-1-0.2-2.2-0.4-3.5-0.3c-1.9,0.1-3.6,0.6-5.5,1.5c-0.7-0.2-1.4-0.4-2.1-0.6c0.1-1.2,0.2-2.5,0.3-3.7c1.9,0.8,5.2,1.9,7.2,1.9
		c1.3,0,2.5-0.1,3.6-0.2c0.1,0.3,0.2,0.6,0.2,0.9C446.6,358.4,446.5,358.6,446.4,358.7L446.4,358.7z"/>
	<path class="st2" d="M170.4,196.6c1.5-3.5,2.9-6.9,7.1-10.7c7.1-6.5,16.5-7.2,16.6-7.2l0.2,0l0.2-0.1c0.4-0.2,0.7-0.3,0.8-0.3
		c-0.4,2.3-7.2,10.9-12.3,16c-4.2,4.3-13.8,9.6-18.3,11.6C167.7,202.7,169.1,199.6,170.4,196.6L170.4,196.6z"/>
	<path class="st2" d="M146.3,216.7c1-3.9,1.9-7.6,5.4-12c6.1-7.5,15.3-9.5,15.4-9.6l0.2,0l0.1-0.1c0.4-0.2,0.6-0.3,0.8-0.4
		c-0.2,2.3-5.4,11.5-9.8,17.7c-3.6,5-11.9,11.7-16.2,14.6C144.6,223.2,145.5,219.9,146.3,216.7L146.3,216.7z"/>
	<path class="st2" d="M127.3,237.9c0.2-3.9,0.4-7.6,3.1-12.5c4.7-8.4,13.4-12,13.5-12.1l0.2-0.1l0.1-0.1c0.3-0.3,0.6-0.4,0.7-0.5
		c0,0.1,0,0.1,0,0.2c0,2.7-3.5,12.5-6.6,18.9c-2.5,5.3-9.5,13.3-13.2,16.8C126.8,244.6,127.1,241.2,127.3,237.9L127.3,237.9z"/>
	<path class="st2" d="M112.3,269.5c0-1.9-0.2-3.6-0.5-5.3c-0.2-1.7-0.4-3.4-0.4-5.2c0-2.2,0.3-4.6,1.4-7.6
		c3.4-9,11.4-13.9,11.5-13.9l0.1-0.1l0.1-0.1c0.3-0.3,0.4-0.5,0.6-0.6c0.1,0.3,0.1,0.5,0.1,1c0,3.5-1.8,12.4-3.8,18.9
		c-1.7,5.6-7,14.1-10,18.2C112,272.8,112.3,271.1,112.3,269.5L112.3,269.5z"/>
	<path class="st2" d="M102.5,298.1c0-3.5-0.8-6.2-1.5-8.8c-0.8-2.7-1.5-5.2-1.5-8.5c0-1.3,0.1-2.6,0.3-4.2c1.5-9.5,8.5-15.9,8.5-16
		l0.1-0.1l0.1-0.1c0.2-0.4,0.3-0.6,0.5-0.7c0.6,1.1,0.9,4.9,0.9,9.4c0,3.6-0.2,7.6-0.5,10.8c-0.6,5.9-4.7,15.9-7.1,20.3
		C102.4,299.5,102.5,298.8,102.5,298.1L102.5,298.1z"/>
	<path class="st2" d="M222.2,167.9c0.5-0.1,0.7-0.1,0.9-0.1c-0.8,2.2-8.7,9.7-14.5,14c-4.8,3.5-14.9,7.4-19.7,8.7
		c3.5-2.8,5.3-5.6,7-8.4c2-3.3,3.8-6.3,8.5-9.5c8-5.4,17.4-4.7,17.5-4.6l0.2,0L222.2,167.9L222.2,167.9z"/>
	<path class="st2" d="M327.4,173.1c3.7-1,7.1-2,12.7-1.1c9.5,1.5,15.9,8.5,16,8.5l0.1,0.1l0.1,0.1c0.4,0.2,0.6,0.3,0.7,0.5
		c-2,1.1-13,1.2-20.2,0.4c-5.9-0.7-15.9-4.7-20.3-7.1C321,174.8,324.3,174,327.4,173.1L327.4,173.1z"/>
	<path class="st2" d="M352.6,184c3.8-0.5,7.5-1,12.7,1c9,3.4,13.9,11.4,13.9,11.5l0.1,0.1l0.1,0.1c0.3,0.3,0.5,0.4,0.6,0.6
		c-2.2,0.6-12.5-1.4-19.8-3.7c-5.6-1.7-14.1-7-18.2-10C346.1,184.7,349.4,184.4,352.6,184L352.6,184z"/>
	<path class="st2" d="M385,210.4c-5.2-2.5-13.3-9.5-16.8-13.2c4,1.8,7.4,2,10.6,2.2c3.9,0.2,7.6,0.4,12.5,3.1
		c8.4,4.7,12,13.4,12.1,13.5l0.1,0.2l0.1,0.1c0.3,0.3,0.4,0.6,0.6,0.7C401.8,217.3,391.7,213.6,385,210.4L385,210.4z"/>
	<path class="st2" d="M404.5,230.5c-5-3.6-11.7-11.9-14.6-16.2c3.6,2.4,7,3.3,10.2,4.1c3.9,1,7.6,1.9,12,5.4
		c7.5,6.1,9.5,15.3,9.6,15.4l0,0.2l0.1,0.1c0.2,0.4,0.3,0.6,0.4,0.8C419.9,240.2,410.7,234.9,404.5,230.5L404.5,230.5z"/>
	<path class="st2" d="M422.3,255.1c-4.3-4.2-9.6-13.8-11.6-18.3c3.3,3.1,6.4,4.5,9.4,5.8c3.5,1.5,6.9,2.9,10.7,7.1
		c6.5,7.1,7.2,16.5,7.2,16.6l0,0.2l0.1,0.2c0.2,0.4,0.3,0.7,0.3,0.8C436.1,267,427.5,260.2,422.3,255.1L422.3,255.1z"/>
	<path class="st2" d="M435,280.7c-3.5-4.8-7.4-14.9-8.7-19.6c2.8,3.5,5.6,5.3,8.4,7c3.3,2,6.3,3.8,9.5,8.5
		c4.2,6.3,4.7,13.4,4.7,16.2c0,0.8,0,1.2,0,1.2l0,0.2l0,0.2c0.1,0.5,0.1,0.7,0.1,0.9C446.8,294.5,439.3,286.5,435,280.7L435,280.7z"
		/>
	<path class="st2" d="M442,306.1c-2.6-5.2-4.5-15-5.1-20c2,3.7,4.5,5.8,7,7.8c3,2.5,5.8,4.8,8,10c1.5,3.7,2,7.4,2,10.5
		c0,4.4-0.9,7.5-0.9,7.5l0,0.2l0,0.2c0,0.2,0,0.3,0,0.5c0,0.2,0,0.3,0,0.4C451,321.9,445.4,313,442,306.1L442,306.1z"/>
	<path class="st2" d="M434.7,420.6c0-3.6,0.2-7.6,0.5-10.9c0.7-5.9,4.7-15.9,7.1-20.3c-0.1,0.7-0.2,1.4-0.2,2.1
		c0,3.5,0.8,6.2,1.5,8.8c0.8,2.7,1.5,5.2,1.5,8.5c0,1.3-0.1,2.6-0.3,4.2c-1.5,9.5-8.5,15.9-8.5,16l-0.1,0.1l-0.1,0.1
		c-0.2,0.4-0.3,0.6-0.5,0.7C435,428.8,434.7,425.1,434.7,420.6L434.7,420.6z"/>
	<path class="st2" d="M419.3,452c0-3.5,1.8-12.4,3.8-18.9c1.7-5.6,7-14.1,10-18.2c-0.5,1.9-0.8,3.6-0.8,5.2c0,1.9,0.2,3.6,0.5,5.3
		c0.2,1.7,0.4,3.4,0.4,5.2c0,2.2-0.3,4.6-1.4,7.6c-3.4,9-11.5,13.9-11.5,13.9l-0.1,0.1l-0.1,0.1c-0.3,0.3-0.4,0.5-0.6,0.6
		C419.3,452.7,419.3,452.5,419.3,452L419.3,452z"/>
	<path class="st2" d="M399.7,476.8c0-2.7,3.5-12.5,6.6-18.9c2.6-5.4,9.5-13.2,13.2-16.7c-1.7,4-2,7.3-2.2,10.6
		c-0.2,3.9-0.4,7.6-3.1,12.5c-4.7,8.4-13.4,12-13.5,12.1l-0.2,0.1l-0.1,0.1c-0.3,0.3-0.6,0.4-0.7,0.6
		C399.7,476.9,399.7,476.9,399.7,476.8L399.7,476.8z"/>
	<path class="st2" d="M386.2,477.4c3.6-5,11.9-11.7,16.2-14.6c-2.4,3.6-3.3,7-4.1,10.2c-1,3.9-1.9,7.6-5.4,12
		c-6.1,7.5-15.3,9.5-15.4,9.6l-0.2,0l-0.1,0.1c-0.4,0.2-0.6,0.3-0.8,0.4C376.6,492.8,381.8,483.6,386.2,477.4L386.2,477.4z"/>
	<path class="st2" d="M361.7,495.2c4.2-4.3,13.8-9.6,18.3-11.6c-3.1,3.3-4.5,6.4-5.8,9.4c-1.5,3.5-2.9,6.9-7.1,10.7
		c-7.1,6.5-16.5,7.2-16.6,7.2l-0.2,0l-0.2,0.1c-0.4,0.2-0.7,0.3-0.8,0.3C349.8,509,356.6,500.4,361.7,495.2L361.7,495.2z"/>
	<path class="st2" d="M336,507.9c4.8-3.5,14.9-7.4,19.7-8.7c-3.5,2.8-5.3,5.6-7,8.4c-2,3.3-3.8,6.3-8.5,9.5
		c-8,5.4-17.4,4.7-17.5,4.6l-0.2,0l-0.2,0c-0.5,0.1-0.7,0.1-0.9,0.1C322.3,519.7,330.3,512.1,336,507.9L336,507.9z"/>
	<path class="st2" d="M207.7,508.1c5.9,0.6,15.9,4.7,20.3,7.1c-4.5-0.4-7.7,0.5-10.9,1.3c-3.7,1-7.1,2-12.7,1.1
		c-9.5-1.5-15.9-8.4-16-8.5l-0.1-0.1l-0.1-0.1c-0.4-0.2-0.6-0.3-0.7-0.5C189.6,507.4,200.6,507.3,207.7,508.1L207.7,508.1z"/>
	<path class="st2" d="M184.4,495.9c5.6,1.7,14.1,7,18.2,10c-4.1-1-7.4-0.7-10.5-0.3c-3.8,0.5-7.5,1-12.7-1
		c-9-3.4-13.9-11.5-13.9-11.5l-0.1-0.1l-0.1-0.1c-0.3-0.3-0.5-0.4-0.6-0.6C166.7,491.7,177.1,493.7,184.4,495.9L184.4,495.9z"/>
	<path class="st2" d="M159.6,479.2c5.3,2.5,13.3,9.5,16.8,13.2c-4-1.8-7.4-2-10.6-2.2c-3.9-0.2-7.6-0.4-12.5-3.1
		c-8.4-4.7-12-13.4-12.1-13.5l-0.1-0.2l-0.1-0.1c-0.3-0.3-0.4-0.6-0.6-0.7C142.8,472.4,152.9,476,159.6,479.2L159.6,479.2z"/>
	<path class="st2" d="M144.5,471.2c-3.9-1-7.6-1.9-12-5.4c-7.5-6.1-9.5-15.3-9.6-15.4l0-0.2l-0.1-0.1c-0.2-0.4-0.3-0.6-0.4-0.8
		c2.3,0.2,11.5,5.4,17.7,9.8c5,3.6,11.7,11.9,14.6,16.2C151.1,472.9,147.7,472,144.5,471.2L144.5,471.2z"/>
	<path class="st2" d="M124.5,447.1c-3.5-1.5-6.9-2.9-10.7-7.1c-6.5-7.1-7.2-16.5-7.2-16.6l0-0.2l-0.1-0.2c-0.2-0.4-0.3-0.7-0.3-0.8
		c2.3,0.4,10.9,7.2,16,12.3c4.3,4.2,9.6,13.8,11.6,18.3C130.6,449.8,127.5,448.4,124.5,447.1L124.5,447.1z"/>
	<path class="st2" d="M109.9,421.6c-3.3-2-6.3-3.8-9.5-8.5c-4.2-6.3-4.7-13.4-4.7-16.2c0-0.8,0-1.2,0-1.2l0-0.2l0-0.2
		c-0.1-0.5-0.1-0.7-0.1-0.9c2.2,0.8,9.7,8.8,14,14.5c3.5,4.8,7.4,14.9,8.7,19.6C115.5,425,112.7,423.2,109.9,421.6L109.9,421.6z"/>
	<path class="st2" d="M246.8,526.5L246.8,526.5c-0.1-0.2-0.1-0.4-0.2-0.7c-0.3,0.2-0.5,0.3-0.6,0.4
		C246.2,526.4,246.4,526.4,246.8,526.5L246.8,526.5z"/>
	<path class="st2" d="M246.1,523.2c0-0.4-0.1-0.9-0.1-1.3c0-0.3,0-0.6,0-0.9c0.1-1.1,0.3-2.2,0.7-3.2c-4.1-0.9-8.4-1.5-11.5-1.4
		c-7.3,0.3-18.1,2-19.9,3.3c0.2,0.1,0.4,0.2,0.8,0.4l0.2,0.1l0.1,0.1c0.1,0.1,7.4,6,17,6.1c5.7,0.1,9-1.4,12.5-3
		C245.9,523.2,246,523.2,246.1,523.2L246.1,523.2z"/>
	<path class="st2" d="M255.1,518c-4,1.4-7.8,15.6-7.4,22.2c0.2,3,1.7,8.6,6,8.3c1.3-0.1,2.4-1.1,3-1.8c1.9-2.3,2.9-6,2.5-9.2
		c-0.2-1.4-0.6-2.5-1.1-3.6l-0.4-1.1c-1.6,2.4-3.3,4.3-4.6,5.4l-1.5-1.7c2.9-2.5,8.4-10,8.4-15.5c0-1.3-0.4-3.3-0.9-5
		c-0.3-0.9-0.6-1.6-0.9-2.1c-0.8,1.4-1.8,2.8-2.8,3.9L255.1,518L255.1,518z"/>
	<path class="st2" d="M296.7,520.6c1.6-1.1,3.4-2.1,5.7-2.9c-1.6-0.1-3.8-0.1-6.2,0C296.5,518.8,296.7,519.8,296.7,520.6
		L296.7,520.6z"/>
	<path class="st2" d="M263.7,527.9l0.1,0.1c0,0,0.2,0.1,0.4,0.2c0.1-0.2,0.1-0.4,0.2-0.6c-0.1-0.2-0.2-0.5-0.4-0.9
		c-0.7,0.4-1.2,0.8-1.4,1.1c0.2,0.1,0.4,0.1,0.8,0.1L263.7,527.9L263.7,527.9z"/>
	<path class="st2" d="M280.4,521.8c0-0.3,0-0.6,0-0.9c0-0.4,0.1-0.8,0.2-1.2c-0.4,0.1-0.7,0.2-1.1,0.4c0,0.3,0,0.5,0,0.8
		c0,4.4-0.7,7.1-2.4,9.4c1.2-0.1,2.5-0.2,3.8-0.5c0.2-0.8,0.4-1.5,0.7-2.2C281.3,526.8,280.4,524.6,280.4,521.8L280.4,521.8z"/>
	<path class="st2" d="M263.7,530c-0.2-0.1-0.4-0.2-0.5-0.2c-0.6-0.1-1.8-0.2-2.4-1c-0.3,0.5-0.6,1-0.9,1.5c1.2,0.1,2.5,0,3.7-0.1
		C263.7,530.1,263.7,530.1,263.7,530L263.7,530z"/>
	<path class="st2" d="M263.6,524.9c-0.2-0.9-0.4-1.9-0.4-3c0-0.3,0-0.6,0-0.9c0-0.2,0-0.3,0.1-0.5c-0.3,0.1-0.7,0.1-1,0.2
		c0,0.1,0,0.1,0,0.2c0,2.1-0.2,3.8-0.5,5.2C262.3,525.7,262.9,525.3,263.6,524.9L263.6,524.9z"/>
	<path class="st2" d="M272.4,518c-4,1.4-7.8,15.6-7.4,22.2c0.2,3,1.7,8.6,6,8.3c1.3-0.1,2.4-1.1,3-1.8c1.9-2.3,2.9-6,2.5-9.2
		c-0.2-1.4-0.6-2.5-1.1-3.6l-0.4-1.1c-1.6,2.4-3.3,4.3-4.6,5.4l-1.5-1.7c2.9-2.5,8.4-10,8.4-15.5c0-1.3-0.4-3.3-0.9-5
		c-0.3-0.9-0.6-1.6-0.9-2.1c-0.8,1.4-1.8,2.8-2.8,3.9L272.4,518L272.4,518z"/>
	<path class="st2" d="M289.5,518c-4,1.4-7.8,15.6-7.4,22.2c0.2,3,1.7,8.6,6,8.3c1.3-0.1,2.4-1.1,3-1.8c1.9-2.3,2.9-6,2.5-9.2
		c-0.2-1.4-0.6-2.5-1.1-3.6l-0.4-1.1c-1.6,2.4-3.3,4.3-4.6,5.4l-1.5-1.7c2.9-2.5,8.4-10,8.4-15.5c0-1.3-0.4-3.3-0.9-5
		c-0.3-0.9-0.6-1.6-0.9-2.1c-0.8,1.4-1.8,2.8-2.8,3.9L289.5,518L289.5,518z"/>
	<path class="st2" d="M310.7,514.9c-4.8,2.3-10.5,5.7-14,8.2c-0.1,1.1-0.2,2.1-0.4,3c2.9,0.6,9.8,1.4,16.7-1.4c5.2-2.1,7.5-5,10-8
		c2-2.4,4.2-4.9,7.8-7C325.6,510.4,315.9,512.4,310.7,514.9L310.7,514.9z"/>
	<path class="st2" d="M97.7,374.7c-3-0.2-5.1-0.7-6.9-1.8c-0.1,0.7-0.1,1.5-0.1,2.3c0,3.1,0.4,6.8,2,10.5c2.1,5.2,5,7.5,8,10
		c2.4,2,4.9,4.2,7,7.8c-0.6-5.1-2.5-14.8-5.1-20C101.2,380.7,99.4,377.6,97.7,374.7L97.7,374.7z"/>
	<path class="st2" d="M99.5,374.8c0.1,0.2,0.1,0.3,0.2,0.5c0-0.2,0-0.4,0-0.5C99.7,374.8,99.6,374.8,99.5,374.8L99.5,374.8z"/>
	<path class="st2" d="M89.5,354.7c-0.3,0.1-1,0.3-1.5,0.5c0.4,1.3,0.8,2.5,1.2,3.5c1.3,0.2,2.5,0.6,3.6,1c0.8-0.4,3.2-1.4,6.1-1.3
		c-0.1-0.3-0.1-0.6-0.2-0.9C94.4,357.5,91.7,356.6,89.5,354.7L89.5,354.7z"/>
	<path class="st2" d="M89.5,337.5c-0.1,0-0.2,0.1-0.4,0.1c-0.3,0.8-0.7,2.1-1.1,3.7c1.7,0.3,3.4,0.7,4.8,1.2
		c0.2-0.1,0.4-0.2,0.6-0.3c-0.5-1.2-1-2.3-1.5-3.2C91.1,338.7,90.2,338.2,89.5,337.5L89.5,337.5z"/>
	<path class="st2" d="M92.8,325.4c0.3-0.1,0.7-0.3,1.3-0.5c-1.1-3.3-2.2-5.9-2.9-6.7c-0.1,0.2-0.1,0.4-0.2,0.8l0,0.2l-0.1,0.1
		c0,0-1.1,1.9-2.1,5C90.2,324.5,91.6,324.9,92.8,325.4L92.8,325.4z"/>
	<path class="st2" d="M94.5,339.9c0.3,0.6,0.5,1.2,0.8,1.8c0.8-0.2,1.6-0.3,2.6-0.4c0-0.3-0.1-0.6-0.1-1
		C96.6,340.3,95.5,340.1,94.5,339.9L94.5,339.9z"/>
	<path class="st2" d="M96.4,324.2c0.6-0.1,1.3-0.2,2-0.2c1.3-4.9,2.7-11.5,2.7-16c0-0.3,0-0.5,0-0.8c-0.3-7.3-2-18.1-3.3-19.9
		c-0.1,0.2-0.2,0.4-0.4,0.8l-0.1,0.2l-0.1,0.1c-0.1,0.1-6,7.4-6.1,17c0,0.1,0,0.2,0,0.3c0,5.5,1.4,8.7,3,12.2
		C95,319.9,95.9,321.9,96.4,324.2L96.4,324.2z"/>
	<path class="st2" d="M102.4,333.2c-1.4-4-15.6-7.8-22.2-7.4c-3,0.2-8.6,1.7-8.3,6c0.1,1.3,1.1,2.4,1.8,3c2.3,1.9,6,2.9,9.2,2.5
		c1.4-0.2,2.5-0.6,3.6-1.1l1.1-0.4c-2.4-1.6-4.3-3.3-5.4-4.6l1.7-1.5c2.5,2.9,10,8.4,15.5,8.4c1.3,0,3.3-0.4,4.9-0.9
		c0.9-0.3,1.7-0.6,2.2-0.9c-1.4-0.8-2.8-1.8-3.9-2.9L102.4,333.2L102.4,333.2z"/>
	<path class="st2" d="M102.4,350.4c-1.4-4-15.6-7.8-22.2-7.4c-3,0.2-8.6,1.7-8.3,6c0.1,1.3,1.1,2.4,1.8,3c2.3,1.9,6,2.9,9.2,2.5
		c1.4-0.2,2.5-0.6,3.6-1.1l1.1-0.4c-2.4-1.6-4.3-3.3-5.4-4.6l1.7-1.5c2.5,2.9,10,8.4,15.5,8.4c1.3,0,3.3-0.4,4.9-0.9
		c0.9-0.3,1.7-0.6,2.2-0.9c-1.4-0.8-2.8-1.8-3.9-2.9L102.4,350.4L102.4,350.4z"/>
	<path class="st2" d="M102.4,367.6c-1.4-4-15.6-7.8-22.2-7.4c-3,0.2-8.6,1.7-8.3,6c0.1,1.3,1.1,2.4,1.8,3c2.3,1.9,6,2.9,9.2,2.5
		c1.4-0.2,2.5-0.6,3.6-1.1l1.1-0.4c-2.4-1.6-4.3-3.3-5.4-4.6l1.7-1.5c2.5,2.9,10,8.4,15.5,8.4c1.3,0,3.3-0.4,4.9-0.9
		c0.9-0.3,1.7-0.6,2.2-0.9c-1.4-0.8-2.8-1.8-3.9-2.8L102.4,367.6L102.4,367.6z"/>
	<path class="st2" d="M449.5,325.4c0.6-0.2,1.3-0.4,1.9-0.6c-0.3-0.4-0.6-0.7-0.9-1.1c-2.1-2.5-4.2-5.2-5.6-9.3
		c-0.1,1-0.1,2.2-0.1,3.5c0,1.9,0.1,4.1,0.2,6.3C447.2,324.3,448.8,325,449.5,325.4L449.5,325.4z"/>
	<path class="st2" d="M449.5,342.6c2.2-0.9,5.2-1.4,8-1.5c0-0.6,0-1.3-0.1-1.9c-0.9-0.2-1.7-0.6-2.4-0.8c0,0-1.7-0.6-2.2-0.7
		c-1.3,1.1-2.8,1.9-4.7,2.3c0.3,0.8,0.6,1.7,0.9,2.5C449.2,342.4,449.4,342.5,449.5,342.6L449.5,342.6z"/>
	<path class="st2" d="M446.8,341.6c0-0.1-0.1-0.2-0.1-0.2C446.7,341.5,446.7,341.5,446.8,341.6C446.7,341.6,446.7,341.6,446.8,341.6
		L446.8,341.6z"/>
	<path class="st2" d="M449.5,359.8c2.2-0.9,5.2-1.4,7.9-1.5c0.1-0.6,0.1-1.2,0.1-1.9c-0.5-0.1-1-0.3-1.5-0.5
		c-0.2,0.2-0.5,0.3-0.8,0.3c-0.7,0.1-1.4-0.5-2.1-1.4c-0.1,0-0.2-0.1-0.3-0.1c-1.3,1.1-2.8,1.8-4.6,2.3c0.2,0.8,0.4,1.7,0.7,2.5
		C449.2,359.6,449.4,359.7,449.5,359.8L449.5,359.8z"/>
	<path class="st2" d="M444.1,374.7c-0.4,2.5-0.7,4.8-0.7,6.8c0,0.3,0,0.5,0,0.8c0.3,7.3,2,18.1,3.3,19.9c0.1-0.2,0.2-0.4,0.4-0.8
		l0.1-0.2l0.1-0.1c0.1-0.1,6-7.4,6.1-17c0-0.1,0-0.2,0-0.3c0-4.7-1.1-7.7-2.3-10.7C449.3,374.1,447.1,374.6,444.1,374.7L444.1,374.7
		z"/>
	<path class="st2" d="M458.3,329.9l1.7,1.5c-1.1,1.2-3,3-5.4,4.6l1.1,0.4c1.1,0.5,2.2,0.9,3.6,1.1c3.3,0.4,7-0.6,9.2-2.5
		c0.8-0.7,1.8-1.7,1.8-3c0.3-4.3-5.3-5.8-8.3-6c-6.7-0.4-20.8,3.3-22.2,7.4l-0.3,0.5c-1.2,1.1-2.5,2-3.9,2.8
		c0.5,0.3,1.3,0.6,2.2,0.9c1.7,0.5,3.7,0.9,5,0.9C448.3,338.3,455.8,332.9,458.3,329.9L458.3,329.9z"/>
	<path class="st2" d="M458.3,347.1l1.7,1.5c-1.1,1.2-3,3-5.4,4.6l1.1,0.4c1.1,0.5,2.2,0.9,3.6,1.1c3.3,0.4,7-0.6,9.2-2.5
		c0.8-0.7,1.8-1.7,1.8-3c0.3-4.3-5.3-5.8-8.3-6c-6.7-0.4-20.8,3.3-22.2,7.4l-0.3,0.5c-1.2,1.1-2.5,2-3.9,2.8
		c0.5,0.3,1.3,0.6,2.2,0.9c1.7,0.5,3.7,0.9,5,0.9C448.3,355.5,455.8,350.1,458.3,347.1L458.3,347.1z"/>
	<path class="st2" d="M458.3,364.4l1.7,1.5c-1.1,1.2-3,3-5.4,4.6l1.1,0.4c1.1,0.5,2.2,0.9,3.6,1.1c3.3,0.4,7-0.6,9.2-2.5
		c0.8-0.7,1.8-1.7,1.8-3c0.3-4.3-5.3-5.9-8.3-6c-6.7-0.4-20.8,3.3-22.2,7.4l-0.3,0.5c-1.2,1.1-2.5,2-3.9,2.8
		c0.5,0.3,1.3,0.6,2.2,0.9c1.7,0.5,3.7,0.9,5,0.9C448.3,372.7,455.8,367.3,458.3,364.4L458.3,364.4z"/>
	<path class="st2" d="M294.6,165.3c2-0.7,3.4-1.4,4-2c-0.2-0.1-0.4-0.1-0.8-0.2l-0.2,0l-0.1-0.1c0,0-0.7-0.4-1.8-0.9
		C295.4,163.3,295,164.4,294.6,165.3L294.6,165.3z"/>
	<path class="st2" d="M328.6,169.6l-0.2-0.1l-0.1-0.1c-0.1-0.1-7.4-6-17-6.1c-5.7-0.1-9,1.4-12.5,3c-1.4,0.6-2.9,1.3-4.5,1.8
		c0.7,1,1.3,2.1,1.7,3.4c4.6,1.1,9.9,2,13.5,1.8c7.3-0.3,18.1-2,19.9-3.3C329.2,169.9,329,169.8,328.6,169.6L328.6,169.6z"/>
	<path class="st2" d="M278.6,161.2c-0.2,1.7-0.7,3-1.2,4.1c0,0-0.6,1.7-0.7,2.2c0.6,0.7,1.1,1.4,1.4,2.2c0.4-0.1,0.9-0.1,1.3-0.2
		c0.6-0.1,1.2-0.2,1.7-0.4c-0.8-2.9-1.1-6.5-1.1-9.1c0-0.2,0-0.5,0-0.7c-0.1,0-0.2,0-0.3,0c-0.4,0-0.7,0.1-1,0.2
		C278.7,160.2,278.7,160.7,278.6,161.2L278.6,161.2z"/>
	<path class="st2" d="M245.6,163.1c-3.5-0.4-8.7-0.3-13.8,1.8c-5.2,2.1-7.5,5-10,8c-2,2.4-4.2,4.9-7.8,7c5.1-0.6,14.8-2.5,20-5.1
		c4-2,8.7-4.7,12.2-7C245.9,166.2,245.7,164.6,245.6,163.1L245.6,163.1z"/>
	<path class="st2" d="M260.9,169.4c1,0.1,2,0.2,3.2,0.3c-0.3-1.1-0.6-2.3-0.8-3.5c-1.1,0.5-2.2,1-3.5,1.5
		C260.2,168.3,260.6,168.8,260.9,169.4L260.9,169.4z"/>
	<path class="st2" d="M261.6,161.3c-0.2,1.7-0.7,3-1.2,4.2c0,0,0,0,0,0.1c0.9-0.4,1.8-0.8,2.7-1.2c-0.2-1.5-0.2-2.9-0.2-4.2
		c0,0,0-0.1,0-0.1c0,0-0.1,0-0.1,0c-0.4,0.1-0.7,0.2-1.1,0.3C261.6,160.6,261.6,161,261.6,161.3L261.6,161.3z"/>
	<path class="st2" d="M247.1,170.9c-0.1-0.4-0.3-0.7-0.4-1.1c-1.3,0.8-2.8,1.5-4.5,2.1c1.2,0.1,2.8,0.1,4.5,0.1
		C246.8,171.5,247,171.1,247.1,170.9L247.1,170.9z"/>
	<path class="st2" d="M249.4,182.5l0.2,0.4l0,0c1.5-0.2,2.9-0.4,4.4-0.6c-2.2-1.1-4.1-4.1-5.5-7.8c-0.2,1-0.4,2-0.4,2.9
		c0,0.6,0,1.2,0.1,1.8C248.4,180.3,248.8,181.3,249.4,182.5L249.4,182.5z"/>
	<path class="st2" d="M266.1,181.4c1.2,0,2.4-0.1,3.6-0.1c-1.6-1.5-2.9-3.9-4-6.8c-0.2,1-0.4,2-0.4,2.9c0,0.6,0,1.2,0.1,1.8
		C265.5,180,265.8,180.7,266.1,181.4L266.1,181.4z"/>
	<path class="st2" d="M283.4,181.7c1.5,0.1,2.9,0.2,4.4,0.4c-2-1.3-3.7-4.1-4.9-7.5c-0.2,1-0.4,2-0.4,2.9c0,0.6,0,1.2,0.1,1.8
		C282.8,180,283.1,180.9,283.4,181.7L283.4,181.7z"/>
	<path class="st2" d="M442.9,326.2c-0.6,0-1.2,0-1.8,0.1c-1.1,0.2-2.1,0.6-3.3,1.2l-0.4,0.2l-0.4-0.2c-0.1-0.1-0.3-0.1-0.4-0.1
		c-0.6,0.2-1.1,0.4-1.6,0.7c0.2,1.9,0.4,3.9,0.5,5.9c0.9-0.6,1.7-1.2,2.4-1.8c1-2.2,4.1-4.1,7.8-5.5
		C444.9,326.4,443.8,326.2,442.9,326.2L442.9,326.2z"/>
	<path class="st2" d="M442.9,343.4c-0.6,0-1.2,0-1.8,0.1c-1.1,0.2-2.1,0.6-3.3,1.2l-0.4,0.2l-0.4-0.2c-0.1-0.1-0.3-0.1-0.4-0.1
		c-0.3,0.1-0.5,0.2-0.7,0.3c0,0,0,0,0,0.1c0,2,0,4-0.1,6c0.8-0.5,1.5-1.1,2.2-1.7c1-2.2,4.1-4.1,7.8-5.5
		C444.9,343.6,443.8,343.4,442.9,343.4L442.9,343.4z"/>
	<path class="st2" d="M442.9,360.6c-0.6,0-1.2,0-1.8,0.1c-1.1,0.2-2.1,0.6-3.3,1.2l-0.4,0.2l-0.4-0.2c-0.1-0.1-0.3-0.1-0.4-0.1
		c-0.6,0.2-1.2,0.5-1.7,0.7c-0.2,2.2-0.5,4.5-0.9,6.7c1.4-0.8,2.7-1.7,3.8-2.7c1-2.2,4.1-4.1,7.8-5.5
		C444.9,360.8,443.8,360.6,442.9,360.6L442.9,360.6z"/>
	<path class="st2" d="M282.9,511.2c0.7-1.2,1.4-2.3,2.2-3.2c-0.8,0.1-1.7,0.1-2.5,0.2C282.6,509.2,282.7,510.3,282.9,511.2
		L282.9,511.2z"/>
	<path class="st2" d="M287.1,507.9l0.6,0.8c-1.3,1-2.9,3.3-4,6.1c0,0.1,0.1,0.3,0.1,0.4l0.2,0.4l-0.2,0.4c-0.6,1.2-1,2.2-1.2,3.3
		c-0.1,0.6-0.1,1.2-0.1,1.8c0,0.9,0.2,1.9,0.4,2.9c1.4-3.7,3.3-6.8,5.5-7.8c1.2-1.3,3.5-4.4,4.8-8.9
		C291.2,507.5,289.2,507.7,287.1,507.9L287.1,507.9z"/>
	<path class="st2" d="M267.6,508.5c-0.7,0-1.4-0.1-2.1-0.1c0.1,1,0.2,1.9,0.3,2.8C266.3,510.2,267,509.3,267.6,508.5L267.6,508.5z"
		/>
	<path class="st2" d="M272.4,508.5c-0.6,0-1.3,0-1.9,0l0.1,0.1c-1.3,1-2.9,3.3-4,6.1c0,0.1,0.1,0.3,0.1,0.4l0.2,0.4l-0.2,0.4
		c-0.6,1.2-1,2.2-1.2,3.3c-0.1,0.6-0.1,1.2-0.1,1.8c0,0.9,0.2,1.9,0.4,2.9c1.4-3.7,3.3-6.8,5.5-7.8c1.1-1.2,3.1-3.8,4.4-7.6
		C274.6,508.5,273.5,508.5,272.4,508.5L272.4,508.5z"/>
	<path class="st2" d="M248.5,511.2c0.9-1.7,2-3.1,3-4c-1.1-0.1-2.3-0.3-3.4-0.5C248.1,508.2,248.2,509.8,248.5,511.2L248.5,511.2z"
		/>
	<path class="st2" d="M252.3,507.3l1,1.3c-1.3,1-2.9,3.3-4,6.1c0,0.1,0.1,0.3,0.1,0.4l0.2,0.4l-0.2,0.4c-0.6,1.2-1,2.2-1.2,3.3
		c-0.1,0.6-0.1,1.2-0.1,1.8c0,0.9,0.2,1.9,0.4,2.9c1.4-3.7,3.3-6.8,5.5-7.8c1.1-1.3,3.3-4,4.6-8.1
		C256.5,507.8,254.4,507.6,252.3,507.3L252.3,507.3z"/>
	<path class="st2" d="M109.5,360.9c-0.1,0-0.2,0-0.4,0c0.1,0.1,0.2,0.2,0.4,0.2C109.5,361.1,109.5,361,109.5,360.9L109.5,360.9z"/>
	<path class="st2" d="M109.9,364c-1.1-0.8-2.6-1.6-4.3-2.3c-0.1,0-0.3,0.1-0.4,0.1l-0.4,0.2l-0.4-0.2c-1.2-0.6-2.2-1-3.3-1.2
		c-0.6-0.1-1.2-0.1-1.8-0.1c-0.9,0-1.9,0.2-2.9,0.4c3.7,1.4,6.8,3.3,7.9,5.5c1.8,1.6,4,3,6.4,4C110.4,368.3,110.1,366.2,109.9,364
		L109.9,364z"/>
	<path class="st2" d="M108.8,346.1c-0.9-0.6-2-1.1-3.2-1.5c-0.1,0-0.3,0.1-0.4,0.1l-0.4,0.2l-0.4-0.2c-1.2-0.6-2.2-1-3.3-1.2
		c-0.6-0.1-1.2-0.1-1.8-0.1c-0.9,0-1.9,0.2-2.9,0.4c3.7,1.4,6.8,3.3,7.9,5.5c1.4,1.2,2.9,2.3,4.6,3.1
		C108.8,350.3,108.8,348.2,108.8,346.1L108.8,346.1z"/>
	<path class="st2" d="M109.8,326.5c-0.2,0-0.4,0-0.6,0.1c0.2,0.1,0.4,0.2,0.6,0.3C109.8,326.7,109.8,326.6,109.8,326.5L109.8,326.5z
		"/>
	<path class="st2" d="M109.5,329.3c-1.1-0.7-2.4-1.4-3.9-2c-0.1,0-0.3,0.1-0.4,0.1l-0.4,0.2l-0.4-0.2c-1.2-0.6-2.2-1-3.3-1.2
		c-0.6-0.1-1.2-0.1-1.8-0.1c-0.9,0-1.9,0.2-2.9,0.4c3.7,1.4,6.8,3.3,7.9,5.5c1.4,1.2,3,2.3,4.7,3.2
		C109.2,333.3,109.3,331.3,109.5,329.3L109.5,329.3z"/>
	<path class="st2" d="M255.1,180.4l0.5,0.3c0.4,0.4,0.7,0.9,1.1,1.3c1-0.1,1.9-0.2,2.9-0.3c0.4-1.5,0.7-3.1,0.7-4.2
		c0-5.4-5.4-13-8.4-15.5l1.5-1.7c1.2,1.1,3,3,4.6,5.4l0.4-1.1c0.5-1.1,0.9-2.2,1.1-3.6c0.4-3.3-0.6-7-2.5-9.2
		c-0.7-0.8-1.7-1.8-3-1.8c-4.3-0.3-5.9,5.3-6,8.3C247.3,164.9,251.1,179,255.1,180.4L255.1,180.4z"/>
	<path class="st2" d="M272.3,180.4l0.5,0.3c0.2,0.2,0.3,0.4,0.5,0.6c1.2,0,2.4,0,3.6,0.1c0.3-1.4,0.6-2.8,0.6-3.8
		c0-5.4-5.5-13-8.4-15.5l1.5-1.7c1.2,1.1,3,3,4.6,5.4l0.4-1.1c0.5-1.1,0.9-2.2,1.1-3.6c0.4-3.3-0.6-7-2.5-9.2
		c-0.7-0.8-1.7-1.8-3-1.8c-4.3-0.3-5.9,5.3-6,8.3C264.5,164.9,268.3,179,272.3,180.4L272.3,180.4z"/>
	<path class="st2" d="M289.5,180.4l0.5,0.3c0.5,0.5,0.9,1.1,1.3,1.7c0.8,0.1,1.6,0.2,2.3,0.3c0-0.1,0.1-0.2,0.1-0.3
		c0.5-1.6,0.9-3.6,0.9-4.8c0-5.4-5.5-13-8.4-15.5l1.5-1.7c1.2,1.1,3,3,4.6,5.4l0.4-1.1c0.5-1.1,0.9-2.2,1.1-3.6
		c0.4-3.3-0.6-7-2.5-9.2c-0.7-0.8-1.7-1.8-3-1.8c-4.3-0.3-5.9,5.3-6,8.3C281.7,164.9,285.5,179,289.5,180.4L289.5,180.4z"/>
	<polygon class="st2" points="347,470.4 337.3,468.5 346.2,463.9 345.1,453.5 352.9,460.4 361.7,455.8 357.4,465 364.8,472.2 
		354.2,471.2 348.9,480.4 	"/>
	<polygon class="st2" points="205.3,472.2 215,470.4 206.1,465.7 207.2,455.4 199.3,462.2 190.6,457.7 194.8,466.8 187.5,474 
		198.1,473 203.4,482.2 	"/>
	<path class="st2" d="M176.2,443.4c0.8-0.8,3.2-3.1-0.2-6.7c-0.5-0.5-3-3.2-5.4-1c-1,0.9-1.3,2-0.3,3.8l3.7,6.6
		c1,1.9,3.7,6.7-0.7,10.8c-3.4,3.1-9,3.4-15.1-3.1c-8-8.6-3.9-13-1.7-15.1l5.7,6.2c-0.6,0.6-2.9,2.7-0.2,5.6c1.6,1.8,3.6,2,4.9,0.8
		c1.5-1.4,0.7-3.1,0.1-4.2l-2.8-5c-2-3.6-4.3-7.8,0.1-12c4.7-4.3,10.6-2.1,15.7,3.4c2.1,2.3,5.2,6.3,4.9,10.3
		c-0.2,3.2-2.2,5.1-3.1,6L176.2,443.4L176.2,443.4z"/>
	<polygon class="st2" points="164,424 159.9,417.9 164.8,414.6 168.9,420.7 	"/>
	<path class="st2" d="M136,401.1c-2.5,1.5-2.6,3.9-1.6,6c2,4.6,6.7,4.2,11.4,2.1c1.6-0.7,8.1-3.7,5.5-9.5c-1.8-4-4.7-3.2-5.8-2.9
		l-3.5-7.9c8.2-3.6,12.7,4.8,14.3,8.4c1.2,2.7,2.8,7.5,1.1,11.9c-1.7,4.3-5.6,6.7-8.3,7.9c-3.6,1.6-7.5,2.3-11.5,1
		c-4.3-1.5-6.7-4.7-8.4-8.7c-2-4.4-2.5-8.2-1.2-11.4c1.3-3.2,3.6-4.3,4.5-4.7L136,401.1L136,401.1z"/>
	<polygon class="st2" points="144.3,383.1 142.5,376 148.3,374.6 150,381.7 	"/>
	<path class="st2" d="M125.6,344.3c-2.9,0.4-3.9,2.6-3.8,4.9c0.1,5,4.5,6.4,9.7,6.3c1.7,0,8.9-0.2,8.8-6.7c-0.1-4.4-3.2-4.8-4.3-4.9
		l-0.2-8.6c8.9-0.2,9.9,9.4,10,13.2c0.1,2.9-0.3,8.1-3.5,11.4c-3.2,3.4-7.8,4-10.7,4.1c-3.9,0.1-7.8-0.8-10.9-3.5
		c-3.4-3-4.3-6.9-4.4-11.3c-0.1-4.8,0.9-8.6,3.2-11c2.4-2.5,5-2.6,6-2.6L125.6,344.3L125.6,344.3z"/>
	<path class="st2" d="M132.8,322.7c-4.8-1.1-8.9-3.5-7.7-8.8c0.4-1.8,1.3-3.6,3.1-4.4c1.4-0.6,3.6-1.2,7.5-0.3
		c3.9,0.8,8.7,2.9,7.5,8.7C142,323.3,137.3,323.7,132.8,322.7L132.8,322.7z M131,331.1c10.4,2.3,16.1-4.1,17.8-11.8
		c1.5-7,0-16-11.1-18.4c-6.8-1.5-15.5-0.1-18,11.6c-0.5,2.1-1.4,7.8,1.3,12.3C123.7,329.1,129.2,330.7,131,331.1L131,331.1z"/>
	<path class="st2" d="M135.6,283.6l1.4-2.8c1.1-2.2,2.5-5.1,5.6-3.5c0.8,0.4,2.2,1.5,1.9,3.4c-0.1,0.7-0.5,1.6-1.3,3.2l-1.4,2.8
		L135.6,283.6L135.6,283.6z M152.8,301.3l3.7-7.5l-10-4.9l1.5-3.1c1.6-3.4,2.8-2.9,6.1-1.7c2.4,0.9,4.4,1.6,6.2,1.9l4-8.1
		c-2.1-0.3-5.1-1.2-6.9-1.8c-4.2-1.3-6.6-2.1-9.3,3l-0.1-0.1c0.3-0.8,0.9-2.5,0.7-4.7c-0.1-1.6-0.7-3.4-3.5-4.8
		c-2.8-1.4-4.7-1-5.9-0.6c-2.3,0.8-3.5,2.5-5.9,7.4l-6.1,12.4L152.8,301.3L152.8,301.3z"/>
	<polygon class="st2" points="142.9,259.6 147.9,252.7 171.1,269.2 166.2,276.1 	"/>
	<polygon class="st2" points="191.2,219.9 183.4,224.6 180.5,219.8 203.4,205.8 206.3,210.7 198.3,215.5 210.2,235 203.1,239.4 	"/>
	<polygon class="st2" points="210.5,202.5 218.5,199.8 222,210.4 231.5,207.2 227.9,196.7 235.9,194 245,221 237,223.7 233.4,212.8 
		223.8,215.9 227.5,226.9 219.6,229.5 	"/>
	<polygon class="st2" points="244.7,192.6 253.1,191.3 257.5,219.5 249,220.8 	"/>
	<path class="st2" d="M272.1,207.6l4.5-11.8l0.1,0l3.5,12.1L272.1,207.6L272.1,207.6z M259.5,218.2l8.3,0.2l2.2-5.7l12,0.3l1.9,5.8
		l9.4,0.2l-11.1-28.8l-10.1-0.3L259.5,218.2L259.5,218.2z"/>
	<polygon class="st2" points="302.6,192.2 313.6,195.4 317.4,218.6 323.2,198.2 330.2,200.2 322.3,227.6 311.5,224.5 307.8,200.3 
		301.7,221.6 294.7,219.6 	"/>
	<path class="st2" d="M336.8,225.2c-0.5,1-2.1,3.9,2.2,6.4c0.6,0.3,3.8,2.2,5.5-0.6c0.7-1.2,0.6-2.2-0.9-3.7l-5.5-5.2
		c-1.5-1.5-5.5-5.3-2.6-10.5c2.3-4,7.6-5.9,15.4-1.5c10.1,5.8,7.6,11.3,6.1,14l-7.3-4.2c0.4-0.8,2-3.4-1.5-5.4
		c-2.1-1.2-4.1-0.8-4.9,0.6c-1,1.8,0.3,3.2,1.2,4l4.2,4c3,2.8,6.5,6.2,3.5,11.5c-3.2,5.5-9.5,5.1-16,1.4c-2.7-1.5-6.8-4.5-7.7-8.3
		c-0.8-3.1,0.6-5.5,1.2-6.6L336.8,225.2L336.8,225.2z"/>
	<path class="st2" d="M383.5,243.3l2.4,2.7c1.6,1.8,3.4,4.1,0.8,6.4c-2.9,2.5-5,0.1-6.4-1.4l-2.5-2.8L383.5,243.3L383.5,243.3z
		 M360.6,252.5l5.5,6.2l7.7-6.8l3.6,4c1.1,1.2,3.5,3.9,5.9,4.8c1.2,0.5,5.1,1.5,8.8-1.8c2.8-2.5,3.6-5.4,3-8.3
		c-0.5-2.8-2.6-5.1-4.1-6.8l-9.2-10.3L360.6,252.5L360.6,252.5z"/>
	<path class="st2" d="M391.4,273.7l12.4-2.3l0.1,0.1l-8.5,9.3L391.4,273.7L391.4,273.7z M375.8,268.5l4.1,7.2l6-1.1l5.9,10.4
		l-3.9,4.6l4.6,8.1l18.9-24.4l-5-8.8L375.8,268.5L375.8,268.5z"/>
	<path class="st2" d="M421.8,297.6l-16.3,4.7c-1.5,0.4-3,1-3.9,2.1c-1.2,1.5-1.4,3.6-0.8,5.5c1.5,5.1,5.6,4.6,8.3,3.8l16-4.6
		l2.2,7.8l-15.9,4.6c-3,0.9-6.5,1.4-9,0.2c-4.1-1.9-6.2-6.8-7.2-10.4c-3.9-13.6,4.1-15.9,8.6-17.2l15.6-4.4L421.8,297.6L421.8,297.6
		z"/>
	<polygon class="st2" points="428.6,327.4 429.1,335.8 406.2,337.1 407,350.5 401.4,350.8 400.1,329 	"/>
	<polygon class="st2" points="429.2,355.4 428.5,363.9 400.1,361.5 400.8,353 	"/>
	<path class="st2" d="M407.1,375.4c-1.1-0.2-4.3-1-5.5,3.8c-0.2,0.7-1.1,4.3,2.1,5.1c1.3,0.3,2.3,0,3.3-1.8l3.6-6.7
		c1-1.9,3.6-6.7,9.4-5.3c4.5,1.1,7.8,5.7,5.6,14.4c-2.9,11.3-8.8,10.3-11.8,9.6l2.1-8.2c0.8,0.2,3.8,1,4.8-2.9
		c0.6-2.3-0.3-4.1-1.9-4.6c-2-0.5-3,1.1-3.6,2.2l-2.7,5.1c-1.9,3.6-4.2,7.9-10.1,6.4c-6.2-1.6-7.5-7.8-5.7-15.1c0.8-3,2.5-7.8,6-9.7
		c2.8-1.6,5.5-0.9,6.7-0.7L407.1,375.4L407.1,375.4z"/>
	<polygon class="st2" points="410.4,408.8 414.4,400.7 419.5,403.1 407.7,427.2 402.6,424.7 406.7,416.4 386.2,406.3 389.9,398.8 	
		"/>
	<path class="st2" d="M386.4,426.8l7,10.5l-0.1,0.1l-11.9-4.2L386.4,426.8L386.4,426.8z M385.1,410.4l-5,6.6l3.3,5.1l-7.3,9.5
		l-5.8-1.8l-5.7,7.5l29.8,7.9l6.1-8L385.1,410.4L385.1,410.4z"/>
	<path class="st2" d="M235.2,475.9c-2.6,1.1-6.2,1.5-7.6,1.5l1.5-5.9c3.5-0.1,5.5-0.5,9.1-2.2l6.5,1.7l-6.9,26.5l-7.7-2L235.2,475.9
		L235.2,475.9z"/>
	<path class="st2" d="M261.3,486.2c-3.3-0.2-4.2-2.6-4.1-4.6c0.2-2.4,1.7-4.2,4.8-3.9c3.5,0.2,4.3,2.8,4.2,4.6
		C265.9,484.7,264.4,486.5,261.3,486.2L261.3,486.2z M249.1,493c0,1.1,0,3,1.5,4.7c2.2,2.5,5.5,3.5,9.2,3.7
		c3.6,0.2,7.3-0.2,10.2-3.2c2.7-2.9,3.6-7,3.8-10.1c0.2-2.8,0-5.7-1-8.4c-0.9-2.4-2.9-6.5-10.5-7c-7.2-0.5-12.2,3.1-12.6,8.7
		c-0.2,2.5,0.6,4.8,2.2,6.5c1.4,1.6,3.3,2.7,7.1,3c3.5,0.2,5.4-0.9,6.9-2.3c-0.4,4.9-1.2,8.3-5.6,8c-2.3-0.2-3.7-1.4-3.6-3
		L249.1,493L249.1,493z"/>
	<path class="st2" d="M287.1,480.1c-2,2-5.2,3.7-6.5,4.2l-0.8-6c3.2-1.4,5-2.5,7.7-5.4l6.7-0.8l3.4,27.2l-7.9,1L287.1,480.1
		L287.1,480.1z"/>
	<path class="st2" d="M311.4,482.1c-2.5-7.9-0.9-9.4,1.4-10.1c2.5-0.8,3.7,0.7,4.3,1.6c1.2,1.7,2.2,4.8,2.7,6.1
		c0.2,0.6,1.6,4.9,1,7.3c-0.3,1.2-1.3,2.1-2.6,2.5C314.9,490.5,313.1,487.7,311.4,482.1L311.4,482.1z M303.6,484.5
		c0.8,2.6,2.7,7.1,6.8,9.5c2.8,1.6,6.2,1.5,9.4,0.5c8.8-2.8,9.9-10,7.5-17.5c-1.6-5.2-4-7.7-6.5-9.2c-1.6-1.1-4.6-2.3-9.8-0.6
		c-2.5,0.8-5.8,2.5-7.4,6C301.8,477.3,302.8,482,303.6,484.5L303.6,484.5z"/>
	<path class="st2" d="M322.1,400.5c-15.8,9.7-29.5,18.1-46.2,23.2c4.1,6,10.8,4.9,12.8,4.4c13.5-4.2,26.8-12.7,41-21.6
		c15-9.5,30.6-19.3,49.2-26.4c-0.9-1.5-1.3-2.9-1.8-4.3c-0.4-1.2-0.8-2.4-1.4-3.6C353.7,381.1,336.9,391.4,322.1,400.5L322.1,400.5z
		"/>
	<path class="st2" d="M302.6,389.5c-10.6,3.1-20.6,7.9-30,12.6c-0.7,2-1,3.8-1,5.6c0,1,0.1,2,0.3,3c0.7-0.3,2.3-1.1,2.3-1.1
		c10.2-4.6,19.8-9,29.5-16.7c0.5-1,0.8-1.8,0.8-2.3c0-0.2,0-0.4-0.1-0.6C304.2,389.7,303.6,389.5,302.6,389.5L302.6,389.5z"/>
	<path class="st2" d="M370.7,361.2c-0.4-0.8-2.1-4.4-2.1-4.4s-1.1-2.4-1.3-3c-21.1,6.2-40.9,15.5-57.3,27c0,0.5,0.7,7.5,0.9,8.7
		C332.2,375.3,351.8,366,370.7,361.2L370.7,361.2z"/>
	<path class="st2" d="M174.9,266c2.9,3.4,12.6,15.2,14,16.8c-1.9,0.9-10.9,5-13,6C175.8,286.4,175.1,270.5,174.9,266L174.9,266z"/>
	<polygon class="st2" points="172.7,263.1 172.6,260.1 175.3,263.3 178.5,260.1 162.9,244.4 185.8,253 193.8,245.2 173.9,224.8 
		168.7,229.9 183.6,245 161.5,236.9 153.3,244.9 172.8,264.8 	"/>
	<path class="st2" d="M214.9,374.7c-0.7-0.2-5.7-2.1-8.1-3c1,3,4.7,14.7,5,15.5c0.7,0.3,5.8,2.2,8.3,3.1
		C219,387.3,215.1,375.5,214.9,374.7L214.9,374.7z"/>
	<path class="st2" d="M204.5,343.6c-0.6-0.2-5.2-2-7.6-2.9c1,3.1,4.7,15.1,5,15.9c0.7,0.3,5.6,2,8.1,2.9
		C208.9,356.4,204.8,344.3,204.5,343.6L204.5,343.6z"/>
	<path class="st2" d="M225.2,405.6c-0.7-0.3-6.4-2.3-8.9-3.2c1,3,4.7,15,5,15.8c0.7,0.3,6.5,2.4,9.1,3.4
		C229.3,418.5,225.4,406.4,225.2,405.6L225.2,405.6z"/>
	<path class="st2" d="M194.5,312.6c-0.7-0.2-4.9-1.8-7.2-2.7c0.9,3,4.5,14.7,4.8,15.5c0.7,0.3,5.2,2,7.6,2.9
		C198.6,325.2,194.7,313.4,194.5,312.6L194.5,312.6z"/>
	<path class="st2" d="M186,286.6c-1.3,0.6-4.3,1.9-5.3,2.4c0.4,1.2,1.6,5.5,1.8,6.3c0.7,0.3,4.8,1.8,7.1,2.7
		C188.8,295.2,186.5,288.2,186,286.6L186,286.6z"/>
	<path class="st2" d="M235.2,436.5c-0.7-0.3-6.5-2.5-9.1-3.4c1,3.1,4.7,15,5,15.8c0.7,0.3,6.6,2.6,9.3,3.6
		C239.4,449.3,235.5,437.3,235.2,436.5L235.2,436.5z"/>
	<path class="st1" d="M192.3,290.7C192.3,290.7,192.4,290.8,192.3,290.7c0,0.1,2,4.2,2,4.2c4.9,8.2,10.6,21.5,17.7,41.7
		c0.1-0.1,10.3-5.6,10.3-5.6c12.8-7.4,26.8-14.7,42.6-17.8c2.8-0.7,5.3-1.1,7.8-1.3c-1.3-11.3-3-22.4-4.7-33.1c0,0-2.7-18-2.9-19.8
		C245.3,262.9,221.5,273.3,192.3,290.7L192.3,290.7z"/>
	<polygon class="st2" points="255.2,271.9 255.3,275.9 258,272.8 262,273.8 259.7,270.5 261.9,267.2 258.2,268.4 255.6,265.2 
		255.3,269.3 251.5,270.5 	"/>
	<polygon class="st2" points="262.7,306.8 262.7,310.8 265.5,307.5 269.5,308.7 267.1,305.4 269.4,302 265.7,303.2 263.1,300 
		262.8,304.1 259,305.3 	"/>
	<polygon class="st2" points="215.4,327.4 215.5,331.5 218.2,328.3 222.2,329.4 219.8,326.1 222.1,322.8 218.4,324 215.8,320.7 
		215.5,324.9 211.7,326 	"/>
	<polygon class="st2" points="202.1,295.9 202.2,300 204.9,296.8 208.9,297.9 206.6,294.6 208.9,291.2 205.1,292.4 202.5,289.2 
		202.2,293.3 198.4,294.5 	"/>
	<path class="st2" d="M257.2,297.6c-0.6-27.8-44.9-27.8-44.3,0C213.4,325.3,257.8,325.3,257.2,297.6L257.2,297.6z"/>
	<path class="st4" d="M218.3,299.7c0-0.2,0.1-0.3,0.1-0.6c0.1,0,0.1-0.2,0.2-0.2l0-0.3h0.1c0.3-0.8-0.3-0.8,0.4-1.5l0-0.1
		c0.4-0.1,0.8-0.4,0.9-0.6c0.1,0,0.2-0.1,0.2-0.2l1.1-0.4c-0.1-0.5,0.3-1.5,0.2-2.1c0.1-0.2,0-0.6,0-0.9l-0.1-0.1c0,0-0.3,0-0.3,0
		c-0.1-0.2-0.2-0.3-0.4-0.3l-0.1-0.1l0-0.4l0.2-0.1c0-0.1,0.1,0,0.1-0.2l0.3-0.1l0-0.3l-0.3,0.1c0-0.1-0.1-0.3-0.2-0.3l0-0.2
		c0.5-0.2,1.7-1,2.2-0.5c0.4-0.1,2.4,0.3,2.6-0.4l0.2-0.1c0-0.1,0.1-0.3,0.3-0.3c0-0.3,0.3-0.5,0.1-0.9c-0.1,0-0.2-0.1-0.4,0
		c0-0.1-0.1-0.1-0.1-0.2c-0.1,0-0.1,0-0.3,0l0,0l0-0.2c-0.1,0-0.2-0.1-0.2,0c0,0-0.1-0.4,0.1-0.4c0-0.1,0.1-0.2,0.1-0.2l2.7-1
		c0-0.1,0-0.2,0-0.3c0,0,0.1-0.1,0.2-0.1c0-0.2,0.1-0.3,0.3-0.4l0-0.2l0.2-0.1l0-0.2c0.3-0.1,0.6,0.2,0.9,0.2c0,0,0,0.2,0.2,0.1
		c0,0.2,0.1,0.4,0.1,0.6c-0.1,0.1-0.4,0.5-0.5,0.6l-0.1,0.2l0.1,0.7c0.2,0,0.3,0.3,0.4,0.3c-0.2-0.3,0-0.1,0,0.2
		c0.1-0.1,0.2,0,0.2,0.1c-0.1-0.1,0-0.1,0.1-0.1c-0.2-0.1-0.1-0.1,0,0.1c0.2-0.1,0.5-0.2,0.7-0.3c0,0,0.1-0.1,0.1-0.2
		c0.3-0.1,0.7-0.3,1.1-0.5c0-0.2,0-0.2,0-0.4c0.1,0,0.2-0.1,0.2-0.2c0.2,0,0.1-0.2,0.1-0.2c0.4-0.1,1.2-0.7,1.6-0.4l0.8-0.3l0.1-0.1
		c0.1-0.1,0.4-0.2,0.5-0.3c0-0.1,0.1-0.1,0.1-0.2c0-0.1,0.1-0.1,0.2-0.1l0.1-0.1l0-0.2c0.1,0,0.1-0.1,0.1-0.2c0,0,0-0.1,0-0.2
		c0.1,0,0.3-0.1,0.3-0.2c0.1-0.1,0.1-0.3,0.2-0.3l-0.1-0.3l0.1-0.1l0.3-0.1c0,0,0.1,0.1,0.2,0.1l0,0.2c0.1,0.1,0.2,0.3,0.2,0.5
		c0.1,0,0.1,0.2,0.1,0.4c0,0,0.3,0.3,0.3,0.5c0.2,0,0.6,0.2,0.8,0.1c0,0.2,0,0.3,0,0.5c-0.1,0.1-0.8,0.9-0.8,1.1
		c-0.1,0-0.1,0.2-0.2,0.2l-0.1,0.1c0.1-0.1,0,0,0,0.1l-0.1,0.2c-0.1,0-0.1,0.1-0.1,0.1l0,0.2c0.1,0,0.1,0,0.1,0.1
		c0.1,0,0.2,0.1,0.2,0.2c0.1,0,0.2,0.1,0.3,0l0.1,0.1c0,0.2,0,0.2,0.2,0.1c0,0.1,0.3-0.1,0.4,0.1c0.6-0.2,1.1-0.5,1.4-1.1
		c0.1,0,0.2-0.1,0.2-0.1c0.2-0.1,1-0.7,1.1-0.2c0.1,0,0.9-0.2,0.9-0.1l0.2-0.1l0.1,0.1c0.3,0.1,0.8-0.2,1-0.1l0,0.2
		c0.1,0,0.5,0.3,0.5,0.4c0,0,1-0.7,1-0.4l0.5-0.2c0.2,0.2,1.1-0.1,1.5-0.2c0,0.2,0.7-0.4,0.7,0c0.3-0.1,0.3-0.1,0.4,0.1
		c0.1,0,0.3,0,0.4,0l0.1,0c0.1,0.1,0.2,0.2,0.4,0.1c0,0,0.4,0.2,0.6,0.1c0,0.2,0.5,0.2,0.7,0.1c0,0.2,0.7,0,0.9-0.1
		c0,0.1,0,0.1,0.1,0.1c0,0,0.3,0.2,0.4,0.1c0,0.1,0.2,0.2,0.4,0.2h0.2c0,0.2,0.2,0.4,0.2,0.4c0.1,0.5,0.2,2.6-0.4,2.7
		c0,0.2,0,0.2-0.1,0.2c0,0.2-0.1,0.4-0.2,0.4l0,0.2c-0.2,0.1-0.2,0.2-0.3,0.3l-0.2,0.2c0,0.1,0,0.1,0,0.2c-0.1,0-0.2,0.1-0.2,0.1
		c0,0-0.2,0.5-0.3,0.5c0,0.1-0.1,0.4-0.3,0.4c0,0.1-0.1,0.2,0,0.3l-0.2,0c0,0.2-0.3,0.5-0.4,0.7l-0.6,0.2l-0.1,0.1l0.1,1.5
		c-0.1,0.3,0.2,1.1,0,1.4c0,0.5-0.4,1-0.3,1.5c-0.3,0.4-0.1,1.1-0.3,1.3l0,0.2c-0.1,0-0.1,0.2-0.2,0.3c0.1-0.3,0.1-0.1,0,0.1
		c-0.1,0-0.1,0.2-0.1,0.2c-0.1,0.2-0.2,0.2-0.2,0.4l-0.1,0.1l-0.1,0.1l-0.2,0.1l0,0.2c-0.2,0.1,0.1,0.1-0.2,0.2
		c0,0.2-0.1,0.4-0.1,0.6l-0.1,0.1c0,0-0.2,0.2-0.2,0.3c-0.1,0-0.3,0.2-0.3,0.4c-0.3,0.1-1.6,0.2-1.5,0.6c-0.2,0.1-0.8,0.2-0.8,0.5
		c-0.4,0.2-1.3,0.5-1.5,0.9c-0.1,0-0.3,0.3-0.4,0.4c-0.1,0-0.3,0.1-0.3,0.3c-0.2,0-0.2,0.3-0.3,0.4c0,0.1-0.1,0.1-0.1,0.2
		c-0.1,0-0.2,0.2-0.3,0.2c0,0-0.2,0.7-0.2,0.7c0.1,0.8,0.2,1.7,0,2.5c-0.2,0.1-0.3,0.2-0.3,0.4c-0.1,0,0,0.1-0.1,0.1l0,0.2
		c-0.1,0-0.2,0.3-0.1,0.5c0-0.5,0-0.2-0.1,0l0,0.2c-0.1,0.1-0.1,0.1-0.1,0.2c-0.1,0-0.3,0.4-0.3,0.4l0,0.1c-0.1,0-0.3,0.4-0.3,0.4
		c-0.1,0,0,0.1-0.2,0.2c0,0.1,0,0.2,0,0.2l-0.2,0.1c0-0.1-0.1-0.3-0.1-0.5c0.2-0.1,0-0.1,0.2-0.1c0-0.1,0,0,0-0.2
		c0.2,0,0.2-0.2,0.2-0.2c0-0.2,0.1-0.3,0.2-0.4l-0.5,0.2c0,0.1-0.1,0,0,0.2c-0.2,0.1-0.2,0.2-0.2,0.2c0,0.1-0.1,0.2,0,0.4
		c-0.2,0-0.1,0.1-0.2,0.1c0,0.2-0.2,1-0.3,1.1c0,0.1,0.1,0.3-0.1,0.4c0,0.2-0.1,0.4-0.2,0.5l-0.3,0.1l0-0.4c0.3-0.1-0.4-0.7-0.5-0.7
		c0-0.2-0.1-0.1-0.1-0.1c-0.1,0-0.5-0.2-0.5-0.2l-0.2,0.1c-0.1-0.1-0.5,0.1-0.6,0.2c0-0.2-0.2-0.2-0.3-0.2c-0.4,0.1-0.7,0-1.1,0.1
		c-0.1-0.4,0.5-0.8,0.5-1c0.2,0,0.4-0.1,0.4-0.3c0.1,0,0.3-0.1,0.3-0.2l0.2-0.1c0-0.1,0.1-0.2,0.1-0.2c0.3-0.1,0.2-0.8,0.6-0.9
		c0-0.1,0.3-0.3,0.3-0.5c0.1,0,0.2-0.1,0.2-0.2c0.3-0.1,0.2-0.4,0.4-0.4l-0.1-0.7c-0.1,0-0.2-0.2-0.3-0.2c-0.3,0.1-0.5-0.2-0.6-0.1
		l-0.2-1.1c-0.3,0.1-0.6,0.1-0.8,0.2c0-0.1,0-0.1-0.1-0.1l-0.1-0.8c0,0-0.2-0.1-0.2-0.1c0-0.2-0.2-0.2-0.2-0.3
		c-0.1,0.1-0.2,0-0.2-0.1c-0.3,0.1-0.9,0.1-1.3,0.2h-0.1c-0.2-0.4-0.1-2-0.4-2.1c-0.1-0.8-0.7-1.2-0.8-1.9c-0.1,0.1-0.3-0.2-0.3-0.4
		c-0.1,0-0.2,0-0.2-0.1c-0.4,0.1-0.7,0.1-1,0.3l-0.1-0.1l-0.1-0.1l-0.2-1.2c-0.3,0.1-1.1,0.2-1.6,0.4c-0.1-0.1-0.2-0.1-0.3,0
		c0-0.1-0.2,0.1-0.2-0.1c-0.2,0.1-0.5-0.1-0.6-0.2c-0.2,0.1-1-0.1-1.1-0.3c-0.1,0-0.1,0-0.1-0.1l-0.1-0.1c-0.1,0-0.3-0.1-0.3-0.1
		c0-0.1-0.1-0.2-0.1-0.2l-0.2-0.6l0-0.2l-0.1,0c-0.3,0.1-0.7,0.1-1,0.2c-0.1,0.1-0.2,0.3-0.2,0.4c-0.1,0.1-0.3,0.1-0.2,0.2
		c-0.1,0.1-0.3,0.4-0.5,0.4l-0.1,0.3h-0.1c0,0-0.2,0.3-0.2,0.3l-0.2,0.1c-0.1,0.3-0.9,0.4-1.1,0.4v-0.1c-0.1,0-0.3,0-0.4,0
		c0-0.1-0.1-0.5-0.1-0.5c0-0.2-0.1-0.2-0.1-0.3l-0.7,0.2c0,0-0.2,0.2-0.2,0.3c-0.2,0-0.6,0.3-0.6,0c-0.1,0.1-0.3,0-0.3,0l-0.2,0.1
		l0-0.1l-0.1-0.1c0-0.1,0-0.1-0.1-0.1c0-0.1-0.1-0.5-0.3-0.5c0-0.1,0-0.1-0.1-0.1C218.5,299.9,218.4,299.7,218.3,299.7L218.3,299.7z
		 M239.1,286.2c-0.1,0.1-1.5,0.1-1.4,0.4l-0.3,0.1l0,0.2c-0.1,0.1-0.1,0.3,0,0.3l-0.1,0.1l0.1,0l0,0.1l0.1,0.1l0.2-0.1
		c0,0.1,0.1,0,0.1,0.1c0.1-0.1,0.4-0.2,0.4,0c0.4-0.1,0.6-0.4,0.9-0.5c0,0,0.1-0.2,0.1-0.2c0-0.1,0-0.2,0.1-0.2l-0.1-0.3l-0.2,0.1
		l0-0.2L239.1,286.2L239.1,286.2z"/>
	<path class="st2" d="M305.1,276.9c-10.5-11.6-23.5-9.4-37.1-5.7c0.3,1.3,0.4,2.6,0.5,3.9c0.1,1.6,0.2,3.2,0.6,4.7
		c12-4.6,23.3-4,35.2,2.1C304.5,280.3,304.8,278.6,305.1,276.9L305.1,276.9z"/>
	<path class="st2" d="M303.1,290.1c-10.8-3.7-22.2-3.4-32.2,0.7c0.1,0.6,0.9,4.7,0.9,4.7s0.7,3.9,0.9,4.9c3.7-1.8,21.4-5.3,29.3,0
		C302.2,297.1,302.6,293.6,303.1,290.1L303.1,290.1z"/>
	<path class="st2" d="M305.5,289.3c-0.5,3.7-0.9,7.3-1.3,11c2.4-1.4,7-4.1,7-4.1c8.5-5.2,16.6-10.1,40.3-17.7
		c0-0.5,0.6-8.9,0.7-10.1C330.8,276.2,320,280.5,305.5,289.3L305.5,289.3z"/>
	<path class="st2" d="M302.8,322.9c1.1-0.8,2.5-1.7,2.5-1.7c11.4-7.7,25.5-17.3,48-19.9c-0.1-0.7-1.2-8.8-1.3-9.7
		c-20.9,4.8-33,11.2-48.8,21.8C303,316.5,302.8,319.7,302.8,322.9L302.8,322.9z"/>
	<path class="st2" d="M300.9,313.8c-5.7-0.9-14.5-1.5-17.3-1.5c-24.7,0-45,11.2-64.6,22c0,0-5.2,2.8-5.8,3.2c0.3,0.6,2.7,6.6,3,7.3
		c0.8-0.4,12.8-6.4,12.8-6.4c22.5-11.4,47.9-24.3,71.5-16.3C300.6,319.4,300.7,316.6,300.9,313.8L300.9,313.8z"/>
	<path class="st2" d="M303.1,344.9c0.9-0.6,1.6-1,1.6-1c15.7-9.8,31.9-20,52.1-22.7c-0.6-1.8-0.7-3.7-0.8-5.5c0-1.5-0.1-2.9-0.4-4.2
		c-18.5,4.3-34.5,11.2-52.9,23.1C302.8,338,302.9,341.4,303.1,344.9L303.1,344.9z"/>
	<path class="st2" d="M300.5,335.8L300.5,335.8c-27.3-9.6-53.8,6-79.4,21.1c0.4,1.3,0.5,2.7,0.7,4.1c0.1,1.5,0.3,3.1,0.8,4.6
		c24.6-15.2,49.2-28,78.4-19.8C300.7,342.5,300.6,339.1,300.5,335.8L300.5,335.8z"/>
	<path class="st2" d="M359.8,333.5c-22.1,5.9-38.2,14.7-55.4,26.1c0.3,3.1,0.7,6.1,1.2,9.2c1.4-0.8,5.8-3.5,5.8-3.5
		c15-9.2,32-19.5,51.9-22.5C363,341.9,360,334.2,359.8,333.5L359.8,333.5z"/>
	<path class="st2" d="M301.7,355.8c-27.3-5.5-47.3,6.1-72.4,20.9c0,0-2.2,1.3-2.7,1.6c0.2,0.5,0.5,1.7,0.5,1.7s2,5.8,2.3,6.6
		c0.8-0.5,9.3-5.6,9.3-5.6c19.1-11.7,37.3-22.7,63.9-17C302.3,361.2,301.9,358.5,301.7,355.8L301.7,355.8z"/>
	<path class="st2" d="M304,373.4c-23.6-4.4-41.1,6.1-61.3,18.3c0,0-10.9,6.5-11.5,6.8c0.1,0.4,0.3,1.1,0.3,1.1s2.2,6.3,2.5,7.2
		c0.8-0.5,9.7-6.2,9.7-6.2c19.4-12.5,36.3-23.2,61.7-19.7C304.9,378.5,304.4,375.9,304,373.4L304,373.4z"/>
</g>
</svg>
