<?xml version="1.0" encoding="utf-8"?>
<!-- Generator: Adobe Illustrator 23.0.1, SVG Export Plug-In . SVG Version: 6.00 Build 0)  -->
<svg version="1.1" id="Layer_1" xmlns="http://www.w3.org/2000/svg" xmlns:xlink="http://www.w3.org/1999/xlink" x="0px" y="0px"
	 viewBox="0 0 455.3 514.9" style="enable-background:new 0 0 455.3 514.9;" xml:space="preserve">
<style type="text/css">
	.st0{display:none;}
	.st1{fill-rule:evenodd;clip-rule:evenodd;}
	.st2{fill-rule:evenodd;clip-rule:evenodd;fill:#FFFFFF;}
	.st3{fill-rule:evenodd;clip-rule:evenodd;fill:#EE3524;}
</style>
<g id="Grade" class="st0">
</g>
<g id="HQFL">
</g>
<g id="Ãrea_de_trabalho">
</g>
<g id="Linhas-guia">
</g>
<g id="Page_1">
	<g id="HQFL_1_">
		<g>
			<polygon class="st1" points="1.9,53.9 1.9,217.5 227.6,461 453.4,217.5 453.4,53.9 			"/>
			<path class="st2" d="M438.5,68.7c0,13.2,0,137.6,0,143c-3.8,4.1-200.6,216.4-210.9,227.5C217.4,428,20.5,215.8,16.8,211.7
				c0-5.4,0-129.7,0-143C30.9,68.7,424.4,68.7,438.5,68.7L438.5,68.7z"/>
			<polygon class="st3" points="37,211.7 204,391.9 204,211.7 			"/>
			<polygon class="st1" points="423.6,196.8 31.7,196.8 31.7,83.6 423.6,83.6 			"/>
			<polygon class="st1" points="418.2,211.7 251.2,391.9 251.2,211.7 			"/>
			<polygon class="st2" points="304.6,108.5 245,108.5 245,171.9 257.4,171.9 257.4,143.9 289.7,143.9 289.7,136.4 257.4,136.4 
				257.4,115.9 304.6,115.9 			"/>
			<path class="st2" d="M68.9,118.2c0-1.3,1-2.4,2.4-2.4H116v-7.4H60.3c-2.1,0-3.7,1.7-3.7,3.7v28c0,2.1,1.7,3.7,3.7,3.7h41.1
				c1.3,0,2.4,1,2.4,2.4V162c0,1.3-1,2.4-2.4,2.4H56.5v7.4h55.8c2.1,0,3.7-1.7,3.7-3.7v-28c0-2.1-1.7-3.7-3.7-3.7H71.2
				c-1.3,0-2.4-1-2.4-2.4C68.9,134.1,68.9,118.2,68.9,118.2L68.9,118.2z"/>
			<path class="st2" d="M210.3,140.2c0,2.1-1.7,3.7-3.7,3.7h-43.4v28h-12.4v-63.5h55.8c2.1,0,3.7,1.7,3.7,3.7V140.2L210.3,140.2z
				 M163.1,136.4h32.4c1.3,0,2.4-1,2.4-2.4v-15.8c0-1.3-1-2.4-2.4-2.4h-32.4V136.4L163.1,136.4z"/>
			<path class="st2" d="M386.4,157v5c0,1.3-1,2.4-2.4,2.4h-30c-1.3,0-2.4-1-2.4-2.4v-43.8c0-1.3,1-2.4,2.4-2.4h30
				c1.3,0,2.4,1,2.4,2.4v5h12.4v-11.1c0-2.1-1.7-3.7-3.7-3.7H343c-2.1,0-3.7,1.7-3.7,3.7v56.1c0,2.1,1.7,3.7,3.7,3.7h52.1
				c2.1,0,3.7-1.7,3.7-3.7V157H386.4L386.4,157z"/>
		</g>
	</g>
</g>
</svg>
