<?xml version="1.0" encoding="iso-8859-1"?>
<!-- Generator: Adobe Illustrator 23.0.1, SVG Export Plug-In . SVG Version: 6.00 Build 0)  -->
<svg version="1.1" xmlns="http://www.w3.org/2000/svg" xmlns:xlink="http://www.w3.org/1999/xlink" x="0px" y="0px"
	 viewBox="0 0 595.276 841.89" style="enable-background:new 0 0 595.276 841.89;" xml:space="preserve">
<g id="Grade" style="display:none;">
</g>
<g id="HQFL">
</g>
<g id="&#xC1;rea_de_trabalho">
</g>
<g id="Linhas-guia">
</g>
<g id="Page_1">
	<g id="HQFL_1_">
		<g>
			<path style="fill-rule:evenodd;clip-rule:evenodd;fill:#EE3524;" d="M192.747,620.7c-4.788-2.269-9.324-4.789-13.86-7.309
				c-4.537-2.646-8.947-5.419-13.357-8.315c-3.275-2.269-6.426-4.537-9.575-6.932c-4.284-3.274-8.316-6.552-12.348-10.079
				l-1.512-1.512c-3.655-3.906-7.182-7.813-10.585-11.971c-4.158-5.293-8.189-10.584-11.97-16.128
				c-1.89-2.773-3.78-5.544-5.67-8.442c-1.637-3.4-3.15-6.804-4.662-10.332c-2.017-4.662-3.78-9.323-5.544-14.111
				c-1.135-3.402-2.142-6.804-3.15-10.206c-1.386-4.913-2.519-9.702-3.528-14.617c-0.755-3.653-1.386-7.181-2.016-10.835
				c-0.252-2.268-0.63-4.535-0.882-6.804l-1.512-21.925V152.735c14.742-5.292,29.484-10.71,44.478-15.498
				c5.041-1.638,10.08-3.15,15.247-4.536c5.921-1.638,11.97-3.024,18.018-4.41c7.686-1.512,15.371-2.898,23.184-4.032l11.97-1.764
				c6.048-0.756,12.097-1.386,18.145-2.016c6.174-0.504,12.222-1.007,18.27-1.386c6.174-0.378,12.222-0.756,18.395-1.007
				c6.048-0.127,12.223-0.253,18.27-0.379c6.174-0.126,12.223-0.126,18.396,0c8.191,0.126,16.253,0.252,24.443,0.63
				c8.066,0.252,16.129,0.631,24.318,1.135c7.938,0.503,15.877,1.133,23.939,1.763c5.797,0.504,11.468,1.008,17.265,1.638
				c8.44,1.007,16.757,2.268,25.072,3.906c5.671,1.134,11.339,2.394,17.01,3.78c2.773,0.755,5.671,1.386,8.442,2.016
				c5.924,1.512,11.719,3.15,17.514,4.914c15.75,4.788,31.249,10.458,46.748,16.003v309.077l-0.506,10.584
				c-0.252,3.527-0.503,6.93-0.756,10.459c-0.378,3.4-0.882,6.803-1.385,10.079c-0.506,3.401-1.135,6.804-1.765,10.079
				c-0.757,3.277-1.513,6.553-2.394,9.829c-0.882,3.277-1.764,6.552-2.773,9.702l-2.267,6.426l-2.521,6.299l-2.773,6.301
				l-3.147,6.175l-3.279,6.173l-3.653,6.048l-4.031,6.048c-3.023,3.781-6.048,7.435-9.198,11.088
				c-2.646,2.898-5.293,5.797-8.065,8.569c-3.274,3.149-6.679,6.3-10.08,9.324c-2.519,2.142-5.039,4.156-7.561,6.173
				c-3.779,2.898-7.685,5.67-11.59,8.316l-6.932,3.779l-6.928,3.654c-3.404,1.637-6.932,3.277-10.459,4.789
				c-3.404,1.51-6.931,2.898-10.586,4.282c-3.527,1.261-7.055,2.521-10.709,3.655c-3.527,1.133-7.181,2.142-10.836,3.15
				c-3.654,0.881-7.307,1.764-10.837,2.644c-3.78,0.756-7.435,1.387-11.213,2.144c-3.655,0.503-7.434,1.133-11.214,1.638
				c-3.78,0.379-7.559,0.755-11.466,1.135c-6.048,0.502-12.222,1.008-18.27,1.008c-5.544-0.127-11.214-0.253-16.758-0.506
				c-6.3-0.376-12.6-0.756-19.026-1.385c-5.292-0.63-10.584-1.261-16.002-2.015c-4.41-0.756-8.82-1.513-13.23-2.395
				c-4.41-0.882-8.694-1.89-13.103-3.023l-5.292-1.388c-8.694-2.896-17.388-5.795-25.831-9.449L192.747,620.7L192.747,620.7z"/>
			<path style="fill-rule:evenodd;clip-rule:evenodd;fill:#FFFFFF;" d="M194.89,616.289c-4.662-2.269-9.072-4.661-13.609-7.182
				c-4.41-2.648-8.693-5.292-12.978-8.19c-4.284-2.899-8.316-5.922-12.474-9.072c-3.527-2.898-6.93-5.797-10.332-8.819
				c-4.158-4.411-8.064-9.073-11.844-13.86c-4.662-5.795-9.072-11.845-13.23-18.145c-0.756-1.135-1.512-2.268-2.268-3.4
				c-1.512-3.277-3.024-6.553-4.41-9.83c-1.89-4.535-3.654-9.197-5.292-13.859c-1.134-3.275-2.142-6.551-3.15-9.953
				c-1.386-4.662-2.52-9.451-3.527-14.238c-0.631-3.529-1.261-7.057-1.891-10.584c-0.252-2.142-0.629-4.41-0.882-6.552
				l-1.512-21.547V156.264c11.971-4.41,23.941-8.694,36.037-12.726c6.678-2.142,13.356-4.158,20.034-6.049
				c5.04-1.386,10.206-2.646,15.246-3.78l5.166-1.008c6.678-1.386,13.482-2.52,20.286-3.527l11.844-1.765
				c6.048-0.63,11.971-1.386,18.018-2.016c6.048-0.504,12.096-1.009,18.144-1.386c6.048-0.377,12.096-0.63,18.145-0.882
				c6.048-0.252,12.096-0.378,18.269-0.504c6.049,0,12.097,0,18.27,0c6.047,0.126,12.097,0.252,18.144,0.378
				c10.079,0.378,20.16,0.882,30.24,1.513c8.065,0.504,15.876,1.007,23.941,1.638c6.928,0.63,13.859,1.26,20.914,2.142
				c5.041,0.63,10.08,1.386,15.248,2.269c7.434,1.386,14.867,2.898,22.3,4.788c2.773,0.756,5.671,1.386,8.567,2.142
				c5.797,1.386,11.467,3.025,17.264,4.662c9.953,3.15,19.78,6.552,29.736,10.08c4.41,1.512,8.945,3.149,13.355,4.787v305.55
				c0,3.402-0.251,6.93-0.378,10.332c-0.251,3.402-0.504,6.804-0.882,10.206c-0.378,3.276-0.757,6.551-1.259,9.953
				c-0.505,3.276-1.135,6.428-1.764,9.702c-0.631,3.276-1.389,6.426-2.269,9.577c-0.883,3.149-1.764,6.3-2.773,9.449l-2.142,6.175
				c-1.26,3.15-2.394,6.172-3.778,9.197l-2.773,6.048l-3.15,6.048l-3.401,5.922l-3.78,5.795l-1.891,2.898
				c-2.898,3.654-5.797,7.184-8.821,10.586c-2.646,2.898-5.291,5.67-7.937,8.442c-3.654,3.527-7.307,7.055-11.215,10.331
				c-3.024,2.394-6.048,4.787-9.07,7.182c-2.646,1.89-5.293,3.78-8.065,5.544c-3.276,1.891-6.552,3.78-9.954,5.544
				c-3.401,1.638-6.803,3.275-10.207,4.913c-3.4,1.513-6.801,2.896-10.33,4.285c-3.402,1.384-6.93,2.645-10.457,3.779
				c-3.529,1.26-7.059,2.267-10.586,3.275c-3.527,1.008-7.055,1.89-10.709,2.771c-3.528,0.757-7.058,1.513-10.711,2.269
				c-3.654,0.629-7.309,1.26-10.962,1.764c-3.78,0.502-7.435,0.882-11.214,1.26c-3.781,0.377-7.561,0.631-11.34,0.882l-7.561,0.378
				c-6.426,0-12.851-0.127-19.277-0.378c-5.418-0.251-10.71-0.631-16.128-1.134c-5.292-0.506-10.458-1.135-15.75-1.89
				c-5.291-0.755-10.458-1.764-15.623-2.772c-3.402-0.63-6.93-1.387-10.333-2.27c-3.15-0.755-6.299-1.384-9.323-2.519
				c-8.19-2.645-16.381-5.417-24.193-9.071L194.89,616.289L194.89,616.289z"/>
			<path style="fill-rule:evenodd;clip-rule:evenodd;fill:#EE3524;" d="M287.373,629.897l-9.323-0.504l-9.199-0.758l-9.198-1.006
				l-9.072-1.513l-8.82-1.638l-8.82-2.143l-8.568-2.392l-8.442-2.648l-8.316-3.022l-7.938-3.403l-7.811-3.654l-7.687-4.031
				l-7.308-4.411l-7.056-4.662l-6.804-5.04l-6.552-5.418l-6.174-5.67l-5.922-6.175l-5.544-6.426l-5.166-6.677l-4.787-7.183
				l-4.41-7.435l-4.032-7.811l-3.654-8.19l-3.15-8.442l-2.646-8.946l-2.268-9.198l-1.765-9.575l-1.386-9.955l-0.755-10.206
				l-0.252-10.584V161.051l7.56-3.024l6.048-2.268l5.922-2.267l6.048-2.017l6.049-1.889l5.922-1.891l6.047-1.764l11.971-3.15
				l11.97-2.772l11.844-2.268l11.97-2.142l11.971-1.638l11.844-1.386l11.843-1.134c5.922-0.378,11.971-0.882,17.892-1.134
				c5.922-0.252,11.844-0.504,17.766-0.631c5.922-0.126,11.844-0.252,17.766-0.252c11.97,0,23.814,0.252,35.783,0.504
				c7.939,0.379,15.877,0.631,23.813,1.134c6.051,0.378,11.972,0.756,17.893,1.26l11.843,1.26c6.051,0.63,11.971,1.386,18.02,2.269
				l11.844,1.89l11.97,2.141l11.97,2.647l11.97,3.024l6.05,1.638l5.92,1.764l6.05,1.763l6.046,2.017l5.924,2.142l6.047,2.268
				l6.049,2.268l7.434,3.15v300.006l-0.253,10.71l-0.756,10.206l-1.261,9.953l-1.764,9.577l-2.267,9.198l-2.773,8.819l-3.149,8.44
				l-3.654,8.192l-4.033,7.812l-4.41,7.434l-4.788,7.057l-5.165,6.677l-5.543,6.426l-5.924,6.05l-6.173,5.669l-6.552,5.292
				l-6.806,5.04l-7.181,4.662l-7.309,4.284l-7.686,3.905l-7.81,3.655l-8.066,3.275l-8.317,3.025l-8.44,2.645l-8.694,2.268
				l-8.696,2.017l-8.944,1.638l-9.071,1.386l-9.199,1.009l-9.322,0.755l-9.324,0.38h-9.451L287.373,629.897L287.373,629.897z"/>
			<path style="fill-rule:evenodd;clip-rule:evenodd;fill:#FFFFFF;" d="M287.499,624.982l-9.072-0.503l-9.072-0.757l-9.072-1.007
				l-8.82-1.387l-8.693-1.764l-8.568-2.018l-8.442-2.265l-8.19-2.648l-8.064-3.022l-7.813-3.278l-7.686-3.527l-7.308-4.031
				l-7.182-4.158l-6.93-4.536l-6.552-4.914l-6.3-5.291l-6.047-5.545l-5.671-5.797l-5.292-6.172l-5.04-6.553l-4.662-6.93
				l-4.284-7.184l-3.78-7.561l-3.528-7.936l-3.024-8.189l-2.646-8.569l-2.268-8.946l-1.638-9.322l-1.259-9.704l-0.756-9.953
				l-0.378-10.459V164.453l10.332-4.032l6.048-2.142l5.922-2.142l5.796-1.89l5.923-1.764l11.844-3.402l11.843-2.898l11.844-2.52
				l11.719-2.142l11.844-1.89l11.718-1.511l11.844-1.26c5.921-0.505,11.717-0.882,17.64-1.259
				c5.921-0.378,11.718-0.631,17.639-0.882c5.922-0.127,11.844-0.252,17.64-0.252l11.844-0.126
				c11.844,0.126,23.689,0.379,35.658,0.756c5.922,0.252,11.843,0.63,17.766,0.882c5.92,0.377,11.843,0.882,17.639,1.386
				c5.921,0.504,11.845,1.134,17.767,1.764l11.845,1.638l11.843,1.764l11.717,2.267l11.846,2.52l11.845,3.024l5.92,1.638
				l5.923,1.638l5.922,1.89l5.922,2.016l5.924,2.016l5.92,2.142l10.332,4.158v296.73l-0.251,10.457l-0.757,9.955l-1.26,9.701
				l-1.764,9.198l-2.142,8.946l-2.646,8.567l-3.151,8.19l-3.402,7.94l-3.906,7.559l-4.284,7.057l-4.662,6.93l-5.04,6.426
				l-5.291,6.174l-5.67,5.797l-6.049,5.545l-6.301,5.164l-6.677,4.789l-6.804,4.535l-7.183,4.158l-7.434,3.904l-7.686,3.529
				l-7.813,3.15l-8.063,2.898l-8.315,2.645l-8.444,2.269l-8.441,1.891l-8.818,1.637l-8.949,1.387l-8.944,1.006l-9.198,0.633
				l-9.197,0.376l-9.324,0.126L287.499,624.982L287.499,624.982z"/>
			
				<path style="fill-rule:evenodd;clip-rule:evenodd;fill:#FFF200;stroke:#000000;stroke-width:0.252;stroke-miterlimit:2.4142;" d="
				M196.276,333.545c-37.927,22.176-50.526,59.094-51.408,101.305c-4.789-10.081-9.828-20.16-14.994-30.492
				c-1.764,80.891,40.068,109.115,94.248,115.543c-8.316,4.409-21.798,4.409-46.62-2.773c17.64,13.104,27.72,12.346,41.958,13.607
				c-7.308,3.4-16.254,2.52-24.066,2.898c18.774,7.561,45.486,12.852,73.08,7.434c0.252-19.153,2.898-33.643,3.402-52.667
				C177.249,490.918,140.709,414.689,196.276,333.545L196.276,333.545z"/>
			
				<path style="fill-rule:evenodd;clip-rule:evenodd;fill:#00A651;stroke:#000000;stroke-width:0.6299;stroke-miterlimit:2.4142;" d="
				M124.203,474.665c23.184,49.266,55.314,84.672,99.036,89.965c-6.049-3.656-17.766-6.679-23.058-12.348
				c40.446,7.559,84.167,13.733,119.321-10.206c6.551,6.046,13.23,11.97,19.908,18.143c-16.506,16.885-73.08,50.777-127.89,28.099
				C150.789,563.243,129.747,494.573,124.203,474.665L124.203,474.665z"/>
			
				<path style="fill-rule:evenodd;clip-rule:evenodd;fill:#FFF200;stroke:#000000;stroke-width:0.252;stroke-miterlimit:2.4142;" d="
				M427.485,563.243c10.961-13.732,21.42-36.414,22.554-59.473c3.149,6.553,2.015,19.783,3.653,30.871
				c12.347-45.109,15.625-97.146-40.949-127.009C451.298,454.001,446.89,508.432,427.485,563.243L427.485,563.243z"/>
			
				<path style="fill-rule:evenodd;clip-rule:evenodd;fill:#EE3524;stroke:#000000;stroke-width:0.504;stroke-miterlimit:2.4142;" d="
				M313.455,306.329c-21.925-10.081-108.738,4.41-129.78,49.77c-44.478,98.28,32.508,137.212,88.956,132.301
				c21.924,23.434,44.225,47.879,66.276,71.44c-52.29,43.975-96.264,40.949-133.812,26.334
				c72.071,36.162,165.689,11.088,175.642-70.811c3.025,13.482,0.506,26.964-3.4,40.446c6.93-11.97,12.851-24.445,18.395-36.415
				c-1.009,47.881-30.996,78.876-84.672,95.888c52.163,10.457,119.07-51.536,126.127-86.06
				c13.482-66.778-5.04-96.767-24.444-122.723c23.435,11.34,41.453,35.406,54.432,59.346
				c-1.511-32.381-11.592-76.859-59.975-119.195c-8.569-7.561-23.941-6.427-34.022-1.008c-7.434,4.033-6.93,15.373-6.426,23.31
				c0,16.002,22.051,42.084,7.434,47.502c-17.766,6.426-36.289-19.404-49.266-33.516c5.039-0.504,11.465,3.528,16.883,6.552
				c-4.409-5.922-10.961-12.474-17.889-17.514c3.905,1.512,8.44,2.898,12.978,4.537c-7.434-10.081-17.515-17.893-29.737-20.412
				c-8.064-8.947-22.05-10.962-38.556-9.45c9.072,11.97,10.962,31.374-0.503,43.344c2.898,1.386,7.434,0.882,10.458,2.52v25.83
				c-3.906,5.543-4.536,9.575-9.954,10.584c-28.979,7.434-65.016-12.474-57.959-51.534
				C220.719,320.567,261.165,312.63,313.455,306.329L313.455,306.329z"/>
			<path style="fill-rule:evenodd;clip-rule:evenodd;fill:none;stroke:#000000;stroke-width:0.3779;stroke-miterlimit:2.4142;" d="
				M249.951,374.747c-9.072-14.49-3.15-28.098,18.396-27.09c10.206,11.592,9.576,27.973,0.251,41.706
				c-6.552,0.756-10.332-2.52-11.843-9.702c6.173,3.528,13.985,1.89,11.843-11.214C268.221,364.667,256.125,360.509,249.951,374.747
				L249.951,374.747z"/>
			
				<path style="fill-rule:evenodd;clip-rule:evenodd;fill:#EE3524;stroke:#000000;stroke-width:0.3779;stroke-miterlimit:2.4142;" d="
				M264.693,381.299c-1.764-2.016-7.182-3.528-5.796-6.048c1.513-2.898,6.427-1.007,9.702-1.638
				C269.607,376.385,268.473,378.905,264.693,381.299L264.693,381.299z"/>
			<path style="fill-rule:evenodd;clip-rule:evenodd;" d="M478.642,211.829c0,5.544-1.008,10.458-2.898,14.742
				c-1.764,4.536-5.041,8.694-8.441,11.97c-3.404,3.654-7.939,6.679-12.477,8.694c-5.037,1.89-10.079,2.898-15.623,2.898
				c-5.038,0-10.582-0.882-15.371-3.149c-4.41-2.143-8.696-6.049-12.349-10.584c-3.527-4.284-6.679-9.828-8.442-15.75
				c-1.763-5.796-2.771-12.096-2.771-19.152c0-6.678,1.008-13.104,2.771-18.774c1.764-5.544,4.535-10.206,8.442-14.112
				c3.402-3.402,7.939-6.048,12.349-7.182c4.789-1.007,10.08-1.386,15.371,0c5.544,1.513,11.088,4.537,15.623,7.813
				c4.662,3.275,9.2,7.811,12.728,12.347c3.654,4.537,6.426,9.576,8.19,14.616C477.634,201.245,478.642,206.537,478.642,211.829
				L478.642,211.829z"/>
			<path style="fill-rule:evenodd;clip-rule:evenodd;fill:#FFFFFF;" d="M439.202,222.539c3.78,0.252,7.182-0.63,9.703-3.527
				c2.016-2.52,3.401-6.175,3.401-10.962c0-4.662-1.26-9.072-3.401-12.222c-2.521-3.528-5.67-5.922-9.703-6.678
				c-3.527-0.756-6.804,0.63-9.197,3.527c-2.142,2.52-3.275,6.931-3.275,11.971c0,5.166,1.134,9.45,3.275,12.474
				C432.398,220.523,435.548,222.539,439.202,222.539L439.202,222.539z"/>
			<path style="fill-rule:evenodd;clip-rule:evenodd;" d="M319.628,248.117c4.411-16.884,8.822-33.894,13.105-50.652
				c4.284-16.506,8.821-33.264,13.232-49.77c9.701,1.134,19.403,2.016,29.23,3.402c4.159,16.757,8.315,33.264,12.475,49.518
				c4.032,16.128,8.316,32.004,12.6,47.628c-9.198,0-18.523,0-27.847-0.126c-0.882-4.158-1.638-8.442-2.519-12.601
				c-6.553-0.125-13.105-0.251-19.531-0.377c-0.755,4.285-1.51,8.694-2.268,12.978C338.655,248.117,329.079,248.117,319.628,248.117
				L319.628,248.117z"/>
			<path style="fill-rule:evenodd;clip-rule:evenodd;fill:#FFFFFF;" d="M354.657,211.451c3.402,0.126,7.057,0.252,10.963,0.378
				c-0.884-3.655-1.638-7.561-2.142-11.088c-1.135-5.796-2.018-10.081-2.52-13.357c-0.379-2.771-0.633-5.796-0.633-8.315
				c-0.249,0-0.502,0-0.629,0c0,2.519-0.377,5.291-0.504,8.315c-0.377,3.024-1.133,7.434-2.141,12.978
				C356.547,204.143,355.414,207.797,354.657,211.451L354.657,211.451z"/>
			<path style="fill-rule:evenodd;clip-rule:evenodd;" d="M288.633,248.117c0-17.01,0-34.02,0-51.03c0-17.01,0-34.02,0-51.029
				c8.82-0.252,17.514-0.126,26.333,0.126c0,17.01,0,34.02,0,51.03c0,16.884,0,33.894,0,50.904
				C306.147,248.117,297.453,248.117,288.633,248.117L288.633,248.117z"/>
			<path style="fill-rule:evenodd;clip-rule:evenodd;" d="M202.323,248.243c0-15.624,0-31.248,0-46.998c0-15.624,0-31.248,0-46.998
				c8.442-1.386,16.884-2.52,25.325-3.779c3.906,8.189,7.686,16.505,11.34,24.695c3.78,8.441,7.686,16.758,11.466,25.326
				c-0.252-2.646-0.378-5.166-0.504-7.938c-0.126-2.52-0.378-6.426-0.378-10.962c0-5.544,0-11.088,0-16.632
				c0-5.67,0-11.214,0-16.884c8.441-0.63,16.884-1.134,25.578-1.638c0,17.01,0,33.895,0,50.904c0,16.884,0,33.894,0,50.778
				c-8.82,0-17.388,0-25.956,0c-3.654-8.568-7.56-17.136-11.088-25.578c-3.654-8.316-7.308-16.758-10.962-25.074
				c0.378,2.142,0.504,4.536,0.504,7.056c0,2.268,0.379,5.166,0.379,8.568c0,5.796,0,11.719,0,17.515c0,5.796,0,11.718,0,17.514
				C219.459,248.243,210.891,248.243,202.323,248.243L202.323,248.243z"/>
			<path style="fill-rule:evenodd;clip-rule:evenodd;" d="M121.683,213.97c0-6.803,0-13.482,0-20.286c0-6.804,0-13.482,0-20.286
				c8.82-2.647,17.64-5.166,26.459-7.434c0,7.434,0,14.868,0,22.301c0,7.309,0,14.868,0,22.303c0,5.039,0.504,8.946,1.512,10.583
				c1.008,1.765,2.898,2.898,5.544,2.646c2.395-0.126,4.285-1.386,5.544-3.654c1.134-2.268,1.513-6.048,1.513-11.34
				c0-7.812,0-15.498,0-23.185c0-7.811,0-15.498,0-23.311c8.82-1.889,17.639-3.779,26.459-5.669c0,8.316,0,16.506,0,24.822
				c0,8.189,0,16.38,0,24.696c0,6.552-0.253,11.592-0.882,15.75c-0.63,4.284-2.143,8.063-3.402,10.71
				c-2.898,5.796-6.93,10.332-11.97,13.103c-5.04,2.773-10.71,4.41-17.263,4.41c-6.426,0-12.222-1.386-17.514-3.906
				c-4.789-2.268-9.072-6.048-11.97-10.71c-1.26-2.015-2.52-5.039-3.025-8.441C122.188,223.799,121.683,219.389,121.683,213.97
				L121.683,213.97z"/>
			<path style="fill-rule:evenodd;clip-rule:evenodd;" d="M423.201,699.827c1.259-3.654,2.267-7.434,3.402-11.088
				c1.009-3.655,2.267-7.434,3.402-11.339c3.15,2.267,6.049,4.536,8.064,5.417c2.521,1.009,4.913,1.638,6.803,1.385
				c1.387-0.125,2.519-1.133,3.276-2.015c1.009-0.882,1.766-2.015,1.766-3.403c0-2.268-2.396-4.156-6.552-4.408
				c-1.389,0-2.522-0.38-3.279-0.505c-4.282-0.757-7.936-3.023-10.079-6.175c-2.142-3.273-3.402-7.684-3.402-13.355
				c0-8.189,2.393-15.875,6.804-22.807c4.41-6.803,10.71-12.851,18.018-16.252c3.277-1.514,6.805-2.396,9.953-2.648
				c3.402-0.378,6.679-0.124,10.081,0.882c-1.008,4.914-2.142,9.955-3.149,14.617c-1.008,4.662-2.143,9.449-3.277,14.111
				c-2.267-1.764-4.156-3.023-6.426-3.527c-1.764-0.378-4.156-0.252-6.174,0.504c-1.261,0.502-2.645,1.511-3.527,2.646
				c-0.757,0.882-1.135,1.763-1.135,3.276c0,2.521,3.025,3.78,9.198,3.78c0.882,0,1.638,0.124,2.144,0.124
				c3.779-0.124,7.434,1.891,9.575,5.545c2.394,4.159,3.653,9.83,3.653,16.507c0,5.417-0.757,10.457-1.89,15.119
				c-1.134,4.662-3.149,8.82-5.419,12.097c-4.536,6.678-10.709,9.828-18.397,9.828c-3.779,0-7.809-0.504-11.843-1.891
				C431.266,704.867,427.232,702.599,423.201,699.827L423.201,699.827z"/>
			<path style="fill-rule:evenodd;clip-rule:evenodd;" d="M438.951,280.877c0,2.772-0.505,5.292-1.386,7.56
				c-0.883,2.268-2.519,4.535-4.41,6.3c-1.638,1.764-3.779,3.15-6.301,4.158c-2.521,0.882-5.039,1.386-7.812,1.386
				c-2.772,0-5.291-0.504-7.811-1.386c-2.267-1.008-4.411-2.394-6.428-4.158c-1.889-1.765-3.148-4.032-4.156-6.3
				c-0.882-2.268-1.388-4.788-1.388-7.56s0.506-5.418,1.388-7.686c1.008-2.395,2.267-4.41,4.156-6.175
				c2.017-1.764,4.16-3.149,6.428-4.031c2.521-1.008,4.913-1.638,7.811-1.638c2.773,0,5.417,0.63,7.812,1.638
				c2.521,0.882,4.662,2.267,6.426,4.031c1.891,1.765,3.402,3.78,4.285,6.175C438.446,275.459,438.951,278.105,438.951,280.877
				L438.951,280.877z"/>
			<polygon style="fill-rule:evenodd;clip-rule:evenodd;" points="358.311,299.525 371.667,262.355 386.534,262.355 399.26,299.525 
				385.148,299.525 383.89,294.737 373.937,294.737 372.928,299.525 358.311,299.525 			"/>
			<path style="fill-rule:evenodd;clip-rule:evenodd;" d="M358.815,280.877c0,2.772-0.505,5.292-1.387,7.56
				c-0.757,2.268-2.394,4.535-4.284,6.3c-1.638,1.764-3.78,3.15-6.3,4.158c-2.519,0.882-5.041,1.386-7.813,1.386
				c-2.646,0-5.291-0.504-7.811-1.386c-2.269-1.008-4.411-2.394-6.301-4.158c-1.891-1.765-3.277-4.032-4.158-6.3
				c-1.008-2.268-1.511-4.788-1.511-7.56s0.503-5.418,1.511-7.686c0.882-2.395,2.268-4.41,4.158-6.175
				c1.89-1.764,4.031-3.149,6.301-4.031c2.52-1.008,5.038-1.638,7.811-1.638c2.771,0,5.419,0.63,7.813,1.638
				c2.519,0.882,4.662,2.267,6.426,4.031c1.89,1.765,3.401,3.78,4.158,6.175C358.311,275.459,358.815,278.105,358.815,280.877
				L358.815,280.877z"/>
			<path style="fill-rule:evenodd;clip-rule:evenodd;" d="M301.107,282.515v-20.16h13.357v23.814c0,2.141-0.254,3.906-0.38,5.04
				c-0.251,1.134-0.882,2.268-1.384,3.276c-1.135,1.89-2.773,3.276-4.662,4.158c-1.764,1.134-3.781,1.638-6.175,1.638
				c-2.269,0-4.284-0.378-6.048-0.882c-1.89-0.756-3.654-1.89-5.292-3.15l4.284-10.08c0.756,0.882,1.386,1.512,2.017,1.89
				c0.755,0.251,1.259,0.503,1.763,0.503c1.008,0,1.764-0.378,2.016-1.007C300.855,286.673,301.107,285.161,301.107,282.515
				L301.107,282.515z"/>
			<path style="fill-rule:evenodd;clip-rule:evenodd;" d="M270.993,280.877c0,2.772-0.378,5.292-1.386,7.56
				c-0.882,2.268-2.394,4.535-4.284,6.3c-1.638,1.764-3.907,3.15-6.427,4.158c-2.394,0.882-4.913,1.386-7.811,1.386
				c-2.646,0-5.292-0.504-7.687-1.386c-2.267-1.008-4.535-2.394-6.426-4.158c-1.89-1.765-3.276-4.032-4.158-6.3
				c-0.882-2.268-1.386-4.788-1.386-7.56s0.504-5.418,1.386-7.686c0.882-2.395,2.268-4.41,4.158-6.175
				c1.89-1.764,4.158-3.149,6.426-4.031c2.395-1.008,4.915-1.638,7.687-1.638c2.898,0,5.544,0.63,7.811,1.638
				c2.52,0.882,4.789,2.267,6.552,4.031c1.89,1.765,3.276,3.78,4.158,6.175C270.615,275.459,270.993,278.105,270.993,280.877
				L270.993,280.877z"/>
			<polygon style="fill-rule:evenodd;clip-rule:evenodd;" points="190.479,299.525 203.835,262.355 218.577,262.355 
				231.429,299.525 217.191,299.525 216.057,294.737 205.977,294.737 204.969,299.525 190.479,299.525 			"/>
			<path style="fill-rule:evenodd;clip-rule:evenodd;" d="M160.618,296.249l4.158-10.206c2.015,1.134,3.779,2.267,5.165,2.772
				c1.513,0.504,3.024,1.008,4.158,1.008c1.008,0,1.765-0.252,2.269-0.63c0.63-0.378,0.882-0.756,0.882-1.386
				c0-1.008-1.386-1.765-4.032-2.269c-0.882-0.251-1.512-0.378-2.015-0.503c-2.773-0.631-4.915-1.89-6.426-3.528
				c-1.386-1.764-2.143-4.032-2.143-6.678c0-3.78,1.386-7.057,4.284-9.577c2.898-2.519,6.679-3.906,11.466-3.906
				c1.89,0,4.158,0.252,6.174,1.008c2.142,0.378,4.284,1.26,6.427,2.394l-4.158,9.954c-1.386-1.26-2.521-1.89-4.032-2.394
				c-1.134-0.504-2.646-0.883-3.78-0.883c-1.007,0-1.764,0.379-2.142,0.757c-0.503,0.252-0.882,0.504-0.882,1.134
				c0,1.134,1.89,2.016,5.796,2.898c0.504,0.126,1.008,0.253,1.386,0.253c2.519,0.503,4.536,1.638,6.048,3.401
				c1.386,1.764,2.142,4.032,2.142,6.552c0,4.032-1.512,7.434-4.535,9.954c-2.898,2.646-6.804,3.906-11.592,3.906
				c-2.269,0-4.789-0.378-7.309-0.882C165.658,298.516,163.138,297.509,160.618,296.249L160.618,296.249z"/>
			<path style="fill-rule:evenodd;clip-rule:evenodd;" d="M219.963,253.661c-0.503,2.142-1.386,3.906-2.267,4.788
				c-0.882,1.008-2.016,1.513-3.402,1.513c-0.252,0-0.504,0-0.882,0c-0.378,0-0.882-0.126-1.134-0.252l-2.394-0.63
				c-0.252,0-0.63-0.252-0.882-0.252s-0.63,0-0.756,0c-0.63,0-1.009,0.252-1.386,0.504c-0.252,0.126-0.63,0.882-1.008,1.512h-2.898
				c0.504-2.142,1.134-3.78,2.016-4.914c0.882-1.134,2.016-1.638,3.402-1.638c0.378,0,0.882,0,1.135,0
				c0.251,0.252,0.755,0.252,1.259,0.378l2.268,0.63c0.378,0.252,0.504,0.252,0.882,0.252c0.126,0,0.378,0.126,0.63,0.126
				c0.504,0,1.008-0.378,1.512-0.63c0.252-0.378,0.504-0.756,0.756-1.386H219.963L219.963,253.661z"/>
			<path style="fill-rule:evenodd;clip-rule:evenodd;" d="M387.669,254.291c-0.504,2.142-1.261,3.906-2.27,4.662
				c-0.881,1.134-2.015,1.638-3.273,1.638c-0.38,0-0.631,0-1.009,0c-0.38,0-0.882-0.125-1.135-0.252l-2.392-0.63
				c-0.126,0-0.631-0.252-0.882-0.252c-0.253,0-0.633-0.126-0.757-0.126c-0.631,0-1.009,0.378-1.386,0.63
				c-0.254,0.126-0.629,0.882-1.009,1.386h-2.773c0.38-2.142,1.009-3.654,2.018-4.788c0.755-1.135,1.89-1.638,3.273-1.638
				c0.38,0,0.884,0,1.135,0c0.38,0.252,0.756,0.252,1.262,0.378l2.265,0.63c0.38,0.252,0.506,0.252,0.883,0.252
				c0.126,0,0.506,0.126,0.632,0.126c0.503,0,1.007-0.379,1.511-0.631c0.379-0.378,0.629-0.882,0.756-1.386H387.669L387.669,254.291
				z"/>
			<path style="fill-rule:evenodd;clip-rule:evenodd;" d="M375.069,140.513c-1.26,2.898-2.772,5.292-4.411,6.174
				c-1.384,1.386-3.15,1.764-5.038,1.386c-0.506,0-0.884-0.126-1.388-0.126c-0.503-0.125-1.135-0.377-1.384-0.63l-3.278-1.386
				c-0.378-0.126-1.009-0.505-1.26-0.63c-0.378,0-0.882-0.252-1.007-0.252c-0.757-0.253-1.514,0.252-2.016,0.504
				c-0.38,0-1.135,1.007-1.764,1.764l-4.033-0.756c1.261-2.897,2.394-4.913,4.033-6.426c1.384-1.259,3.023-1.638,5.037-1.386
				c0.506,0.126,1.135,0.252,1.515,0.252c0.376,0.504,1.007,0.63,1.763,0.882l3.023,1.386c0.504,0.378,0.63,0.378,1.133,0.504
				c0.126,0,0.631,0.253,1.009,0.379c0.63,0.126,1.387-0.379,2.142-0.504c0.629-0.504,1.008-1.134,1.511-1.89L375.069,140.513
				L375.069,140.513z"/>
			<path style="fill-rule:evenodd;clip-rule:evenodd;fill:#FFFFFF;" d="M308.793,463.326c29.736,0,53.802,24.19,53.802,53.927
				c0,29.61-24.065,53.928-53.802,53.928c-29.61,0-53.927-24.318-53.927-53.928C254.866,487.516,279.183,463.326,308.793,463.326
				L308.793,463.326z"/>
			<polygon style="fill-rule:evenodd;clip-rule:evenodd;stroke:#000000;stroke-width:0.3779;stroke-miterlimit:2.4142;" points="
				314.715,495.077 331.724,515.238 317.864,538.168 291.658,531.743 289.767,505.157 314.715,495.077 			"/>
			<polygon style="fill-rule:evenodd;clip-rule:evenodd;stroke:#000000;stroke-width:0.3779;stroke-miterlimit:2.4142;" points="
				352.767,527.709 352.136,527.333 351.759,527.709 345.964,514.356 349.617,499.991 350.626,499.864 346.845,514.229 
				352.767,527.709 			"/>
			<polygon style="fill-rule:evenodd;clip-rule:evenodd;stroke:#000000;stroke-width:0.3779;stroke-miterlimit:2.4142;" points="
				345.964,513.85 345.964,514.356 346.09,514.858 331.598,515.489 331.978,515.112 331.724,514.985 345.964,513.85 			"/>
			<polygon style="fill-rule:evenodd;clip-rule:evenodd;stroke:#000000;stroke-width:0.3779;stroke-miterlimit:2.4142;" points="
				332.858,478.696 332.355,479.327 317.864,481.09 305.895,473.279 305.895,472.397 317.991,480.334 332.858,478.696 			"/>
			<polygon style="fill-rule:evenodd;clip-rule:evenodd;stroke:#000000;stroke-width:0.3779;stroke-miterlimit:2.4142;" points="
				317.486,480.713 317.864,481.09 318.37,481.09 314.966,495.077 314.715,495.077 314.337,495.202 317.486,480.713 			"/>
			<polygon style="fill-rule:evenodd;clip-rule:evenodd;stroke:#000000;stroke-width:0.3779;stroke-miterlimit:2.4142;" points="
				267.591,534.011 268.347,533.76 280.822,540.561 285.861,554.296 285.357,555.305 280.065,541.194 267.591,534.011 			"/>
			<polygon style="fill-rule:evenodd;clip-rule:evenodd;stroke:#000000;stroke-width:0.3779;stroke-miterlimit:2.4142;" points="
				280.947,541.067 280.822,540.561 280.443,540.31 291.658,530.988 291.658,531.743 291.783,531.995 280.947,541.067 			"/>
			<polygon style="fill-rule:evenodd;clip-rule:evenodd;stroke:#000000;stroke-width:0.3779;stroke-miterlimit:2.4142;" points="
				280.947,483.485 281.703,483.107 278.553,498.227 266.583,507.551 266.583,506.795 277.797,497.598 280.947,483.485 			"/>
			<polygon style="fill-rule:evenodd;clip-rule:evenodd;stroke:#000000;stroke-width:0.3779;stroke-miterlimit:2.4142;" points="
				278.175,498.353 278.679,498.1 278.805,497.722 289.893,505.032 289.641,504.905 289.767,505.661 278.175,498.353 			"/>
			<polygon style="fill-rule:evenodd;clip-rule:evenodd;stroke:#000000;stroke-width:0.3779;stroke-miterlimit:2.4142;" points="
				312.446,561.731 312.446,560.973 312.194,560.849 322.779,551.147 337.898,550.643 337.647,551.02 338.025,551.4 323.03,552.029 
				312.446,561.731 			"/>
			<polygon style="fill-rule:evenodd;clip-rule:evenodd;stroke:#000000;stroke-width:0.3779;stroke-miterlimit:2.4142;" points="
				323.157,551.274 322.779,551.147 322.653,551.525 317.486,538.168 317.864,538.168 318.117,538.042 323.157,551.274 			"/>
			<path style="fill-rule:evenodd;clip-rule:evenodd;stroke:#000000;stroke-width:0.3779;stroke-miterlimit:2.4142;" d="
				M274.395,476.051c8.064-7.309,20.16-12.601,30.997-12.601l0.503,9.828l-24.947,10.206L274.395,476.051L274.395,476.051z"/>
			<path style="fill-rule:evenodd;clip-rule:evenodd;stroke:#000000;stroke-width:0.3779;stroke-miterlimit:2.4142;" d="
				M259.276,537.665c-4.537-9.701-5.797-22.68-2.394-33.39l9.702,2.52l1.764,26.965L259.276,537.665L259.276,537.665z"/>
			<path style="fill-rule:evenodd;clip-rule:evenodd;stroke:#000000;stroke-width:0.3779;stroke-miterlimit:2.4142;" d="
				M313.455,570.928c-11.088,1.133-23.562-1.512-32.634-8.19l5.039-8.315l26.585,6.55L313.455,570.928L313.455,570.928z"/>
			<path style="fill-rule:evenodd;clip-rule:evenodd;stroke:#000000;stroke-width:0.3779;stroke-miterlimit:2.4142;" d="
				M361.714,529.979c-2.395,10.709-8.822,22.05-17.768,28.476l-6.299-7.435l14.615-23.437L361.714,529.979L361.714,529.979z"/>
			<path style="fill-rule:evenodd;clip-rule:evenodd;stroke:#000000;stroke-width:0.3779;stroke-miterlimit:2.4142;" d="
				M337.647,470.76c9.197,5.543,18.143,15.37,21.168,25.703l-9.198,3.527l-17.011-20.664L337.647,470.76L337.647,470.76z"/>
			<path style="fill-rule:evenodd;clip-rule:evenodd;stroke:#000000;stroke-width:0.3779;stroke-miterlimit:2.4142;" d="
				M274.395,476.051l0.252,0.377c-7.308,5.795-16.002,19.152-17.388,27.847h-0.378C258.141,495.329,266.835,481.468,274.395,476.051
				L274.395,476.051z"/>
			<path style="fill-rule:evenodd;clip-rule:evenodd;stroke:#000000;stroke-width:0.3779;stroke-miterlimit:2.4142;" d="
				M259.276,537.665l0.504-0.251c3.15,8.819,13.23,21.041,21.419,24.948l-0.377,0.377
				C272.757,559.083,262.299,546.485,259.276,537.665L259.276,537.665z"/>
			<path style="fill-rule:evenodd;clip-rule:evenodd;stroke:#000000;stroke-width:0.3779;stroke-miterlimit:2.4142;" d="
				M313.455,570.928l-0.126-0.504c9.324-0.251,24.066-5.795,30.24-12.223l0.377,0.253
				C337.647,565.006,322.653,570.551,313.455,570.928L313.455,570.928z"/>
			<path style="fill-rule:evenodd;clip-rule:evenodd;stroke:#000000;stroke-width:0.3779;stroke-miterlimit:2.4142;" d="
				M361.714,529.979l-1.009-0.126c2.773-8.82,1.764-24.57-2.394-33.138l0.505-0.252
				C363.098,505.032,364.232,521.158,361.714,529.979L361.714,529.979z"/>
			<path style="fill-rule:evenodd;clip-rule:evenodd;stroke:#000000;stroke-width:0.3779;stroke-miterlimit:2.4142;" d="
				M337.647,470.76l-0.506,0.629c-7.559-5.418-22.552-8.694-31.625-7.561l-0.125-0.378
				C315.345,462.191,330.087,465.34,337.647,470.76L337.647,470.76z"/>
			<path style="fill-rule:evenodd;clip-rule:evenodd;" d="M257.385,495.202c9.577,3.277,12.6,0.882,19.656,0
				c-7.308-4.535-8.694-2.896-12.349-11.59C260.787,487.391,259.401,490.414,257.385,495.202L257.385,495.202z"/>
			<path style="fill-rule:evenodd;clip-rule:evenodd;" d="M316.101,461.811c0.253,6.177-1.637,12.35-3.906,18.523
				c7.058-3.402,13.357-8.064,18.27-14.615C325.929,463.326,321.142,461.811,316.101,461.811L316.101,461.811z"/>
			<path style="fill-rule:evenodd;clip-rule:evenodd;fill:#FFFFFF;" d="M419.043,288.185c2.017,0,3.653-0.629,4.788-2.016
				c1.134-1.26,1.638-3.024,1.638-5.166c0-2.142-0.504-4.032-1.638-5.291c-1.135-1.386-2.771-2.268-4.788-2.268
				c-1.89,0-3.401,0.882-4.788,2.268c-1.009,1.259-1.638,3.149-1.638,5.291c0,2.142,0.629,3.906,1.638,5.166
				C415.642,287.556,417.153,288.185,419.043,288.185L419.043,288.185z"/>
			<path style="fill-rule:evenodd;clip-rule:evenodd;fill:#FFFFFF;" d="M376.075,285.791h5.671l-1.133-4.158
				c-0.631-2.268-0.882-3.779-1.26-5.04c-0.126-1.134-0.253-2.142-0.253-3.15h-0.378c0,1.008-0.124,2.016-0.378,3.15
				c-0.126,1.26-0.63,2.772-1.008,5.04L376.075,285.791L376.075,285.791z"/>
			<path style="fill-rule:evenodd;clip-rule:evenodd;fill:#FFFFFF;" d="M339.032,288.185c2.016,0,3.655-0.629,4.788-2.016
				c1.135-1.26,1.764-3.024,1.764-5.166c0-2.142-0.629-4.032-1.764-5.291c-1.133-1.386-2.772-2.268-4.788-2.268
				c-1.891,0-3.401,0.882-4.662,2.268c-1.134,1.259-1.763,3.149-1.763,5.291c0,2.142,0.63,3.906,1.763,5.166
				C335.631,287.556,337.141,288.185,339.032,288.185L339.032,288.185z"/>
			<path style="fill-rule:evenodd;clip-rule:evenodd;fill:#FFFFFF;" d="M251.085,288.185c2.016,0,3.654-0.629,4.914-2.016
				c1.134-1.26,1.638-3.024,1.638-5.166c0-2.142-0.505-4.032-1.638-5.291c-1.26-1.386-2.898-2.268-4.914-2.268
				c-1.764,0-3.276,0.882-4.662,2.268c-1.008,1.259-1.638,3.149-1.638,5.291c0,2.142,0.63,3.906,1.638,5.166
				C247.809,287.556,249.322,288.185,251.085,288.185L251.085,288.185z"/>
			<path style="fill-rule:evenodd;clip-rule:evenodd;fill:#FFFFFF;" d="M208.245,285.791h5.67l-1.135-4.158
				c-0.755-2.268-1.007-3.779-1.259-5.04c-0.126-1.134-0.378-2.142-0.378-3.15h-0.251c0,1.008-0.126,2.016-0.378,3.15
				c-0.126,1.26-0.63,2.772-1.007,5.04L208.245,285.791L208.245,285.791z"/>
			
				<polygon style="fill-rule:evenodd;clip-rule:evenodd;fill:#FFFFFF;stroke:#000000;stroke-width:0.504;stroke-miterlimit:2.4142;" points="
				280.065,356.099 281.577,363.029 294.555,361.013 280.065,356.099 			"/>
			<path style="fill-rule:evenodd;clip-rule:evenodd;" d="M360.201,706.883c3.528-10.586,7.182-21.42,10.583-32.382
				c3.527-11.088,7.057-22.807,10.711-34.525c7.686-1.638,15.498-3.401,23.308-5.418c3.404,11.215,6.805,22.805,10.081,34.65
				c3.403,11.97,6.804,24.57,10.206,37.296c-7.561,0.126-15.119,0.126-22.553,0.126c-0.631-2.898-1.262-6.046-2.018-9.198
				c-5.166,0.254-10.459,0.378-15.623,0.629c-0.506,2.898-1.135,5.924-1.764,8.695C375.446,706.756,367.886,706.883,360.201,706.883
				L360.201,706.883z M388.298,681.556c2.898-0.126,5.797-0.378,8.947-0.629c-0.631-2.646-1.26-5.417-1.763-7.814
				c-1.009-3.905-1.639-6.928-2.017-9.071c-0.125-1.89-0.505-4.031-0.505-5.671c-0.126,0.127-0.251,0.127-0.377,0.127
				c0,1.637-0.378,3.654-0.631,5.797c-0.251,2.142-0.756,5.418-1.637,9.449C389.811,676.391,388.929,679.038,388.298,681.556
				L388.298,681.556z"/>
			<path style="fill-rule:evenodd;clip-rule:evenodd;" d="M309.928,706.883c0-9.703,0-19.656,0-29.483c0-9.83,0-19.657,0-29.611
				c8.944-0.378,18.016-0.756,26.838-1.513c7.435-0.629,13.48,0.127,17.388,3.402c3.779,3.023,5.797,8.192,5.797,14.868
				c0,4.411-1.009,8.316-2.898,11.339c-1.891,3.025-4.662,4.662-8.189,5.42c2.644,4.158,5.291,8.315,7.936,12.6
				c2.521,4.156,5.042,8.567,7.814,12.978c-7.814,0-15.877,0-23.815,0c-1.765-3.277-3.402-6.679-4.913-9.955
				c-1.514-3.275-3.151-6.677-4.662-10.079c0,3.402,0,6.677,0,10.079c0,3.276,0,6.678,0,9.955
				C324.039,706.883,316.982,706.883,309.928,706.883L309.928,706.883z M331.222,662.405c0,3.654,0,7.434,0,11.088
				c1.008-0.126,2.015-0.252,3.148-0.252c1.639,0,3.277-0.629,4.285-1.385c1.134-1.135,1.638-2.396,1.638-4.286
				s-0.504-3.275-1.386-4.156c-1.26-1.135-2.898-1.388-4.537-1.261C333.236,662.153,332.23,662.279,331.222,662.405L331.222,662.405
				z"/>
			<path style="fill-rule:evenodd;clip-rule:evenodd;" d="M241.006,706.883c3.527-10.586,7.055-21.043,10.584-31.249
				c3.402-9.954,7.055-20.034,10.584-29.987c7.938,1.008,15.624,1.764,23.561,2.142c3.276,9.954,6.931,19.907,10.081,29.611
				c3.402,9.827,6.805,19.78,10.205,29.61c-7.559-0.127-14.993-0.127-22.553-0.127c-0.755-2.521-1.26-5.041-1.89-7.561
				c-5.292,0-10.71-0.127-15.875-0.253c-0.63,2.647-1.261,5.168-1.638,7.813C256.377,706.883,248.565,706.883,241.006,706.883
				L241.006,706.883z M269.103,684.708c3.024,0.127,6.048,0.251,8.947,0.251c-0.504-2.267-1.134-4.662-1.765-6.804
				c-0.882-3.402-1.512-6.049-1.89-7.938c-0.252-1.89-0.503-3.656-0.503-5.04c-0.252,0-0.504,0-0.63-0.126
				c0,1.386-0.252,3.149-0.378,5.039c-0.252,1.766-0.882,4.537-1.764,7.813C270.741,680.172,269.859,682.438,269.103,684.708
				L269.103,684.708z"/>
			<path style="fill-rule:evenodd;clip-rule:evenodd;" d="M190.605,706.63c0-12.599,0-25.2,0-37.926c0-12.599,0-25.2,0-37.8
				c8.947,2.392,18.018,4.914,26.965,6.929c7.308,1.638,13.355,4.537,17.261,9.073c3.906,4.41,5.922,9.955,5.922,16.758
				c0,4.536-1.008,8.441-2.898,11.088c-1.89,2.899-4.788,4.285-8.19,4.536c2.52,4.662,5.166,9.575,7.812,14.112
				c2.52,4.536,5.418,9.071,8.064,13.482c-8.064-0.127-16.002-0.127-24.066-0.127c-1.513-3.779-3.15-7.686-4.788-11.592
				c-1.513-3.904-3.151-7.812-4.914-11.845c0,3.907,0,7.686,0,11.719c0,3.906,0,7.812,0,11.718
				C204.843,706.63,197.661,706.63,190.605,706.63L190.605,706.63z M211.773,654.592c0,4.285,0,8.695,0,13.103
				c1.134,0.127,2.268,0.254,3.276,0.254c1.764,0.126,3.402,0,4.158-0.756c1.386-1.008,1.764-2.396,1.764-4.411
				c0-2.268-0.377-3.905-1.512-5.166c-1.008-1.261-2.771-2.017-4.41-2.394C214.041,655.098,212.907,654.844,211.773,654.592
				L211.773,654.592z"/>
			<path style="fill-rule:evenodd;clip-rule:evenodd;" d="M121.809,706.252c3.528-16.127,7.057-32.004,10.458-47.25
				c3.528-14.868,7.182-29.358,10.71-43.345c7.812,2.648,15.624,5.293,23.436,7.94c3.402,14.741,6.93,29.104,10.206,43.09
				c3.275,13.484,6.678,26.965,10.079,39.816c-7.559,0-14.994,0-22.554,0c-0.503-3.654-1.134-7.182-1.889-10.962
				c-5.166-0.253-10.458-0.504-15.877-0.755c-0.504,3.779-1.008,7.684-1.638,11.592
				C137.055,706.379,129.495,706.252,121.809,706.252L121.809,706.252z M149.907,673.871c2.898,0.378,5.922,0.757,8.945,1.134
				c-0.63-3.275-1.259-6.804-1.763-9.953c-0.882-5.291-1.638-8.945-2.016-11.971c-0.252-2.521-0.504-5.166-0.504-7.307
				c-0.127,0-0.379-0.127-0.504-0.127c0,2.142-0.378,4.535-0.504,7.182c-0.252,2.644-0.882,6.426-1.638,11.34
				C151.419,667.445,150.537,670.594,149.907,673.871L149.907,673.871z"/>
		</g>
	</g>
</g>
</svg>
