<?xml version="1.0" encoding="iso-8859-1"?>
<!-- Generator: Adobe Illustrator 23.0.1, SVG Export Plug-In . SVG Version: 6.00 Build 0)  -->
<svg version="1.1" xmlns="http://www.w3.org/2000/svg" xmlns:xlink="http://www.w3.org/1999/xlink" x="0px" y="0px"
	 viewBox="0 0 595.276 841.89" style="enable-background:new 0 0 595.276 841.89;" xml:space="preserve">
<g id="Grade" style="display:none;">
</g>
<g id="HQFL">
</g>
<g id="&#xC1;rea_de_trabalho">
</g>
<g id="Linhas-guia">
</g>
<g id="Page_1">
	<g id="HQFL_1_">
		<g>
			<path style="fill-rule:evenodd;clip-rule:evenodd;" d="M571.185,348.327c-20.356-69.309-8.142-164.018-8.142-164.018
				c-55.837,0-109.346-73.285-109.346-73.285c-62.816,40.713-155.878,37.224-155.878,37.224s-93.06,3.489-155.875-37.224
				c0,0-53.51,73.285-109.346,73.285c0,0,12.21,94.711-8.143,164.018C-18.585,494.899,74.475,615.876,193.127,663.57
				c98.808,39.714,104.692,51.184,104.692,51.184s5.885-11.47,104.695-51.184C521.166,615.876,614.225,494.899,571.185,348.327
				L571.185,348.327z"/>
			<path style="fill-rule:evenodd;clip-rule:evenodd;fill:#FFFFFF;" d="M297.819,244.409c-148.786,0-220.065-29.967-242.414-41.795
				c0.915,11.958,1.792,28.172,1.792,46.543c0,6.173-0.141,12.639-0.37,19.214c23.874,12.296,95.262,41.05,240.992,41.05
				c145.8,0,217.186-28.781,241.023-41.068c-0.228-6.578-0.363-13.048-0.363-19.225c0-18.358,0.872-34.57,1.772-46.526
				C517.921,214.424,446.645,244.409,297.819,244.409L297.819,244.409z"/>
			<path style="fill-rule:evenodd;clip-rule:evenodd;fill:#FFFFFF;" d="M521.166,198.647v-3.124
				c-8.416-3.76-16.468-8.365-24.002-13.455v25.358C506.825,204.334,514.805,201.326,521.166,198.647L521.166,198.647z"/>
			<path style="fill-rule:evenodd;clip-rule:evenodd;fill:#FFFFFF;" d="M497.164,296.944v277.655
				c8.716-9.251,16.74-19.175,24.002-29.654V288.854C514.323,291.464,506.334,294.204,497.164,296.944L497.164,296.944z"/>
			<path style="fill-rule:evenodd;clip-rule:evenodd;fill:#FFFFFF;" d="M449.163,219.606v-80.912
				c-0.191-0.22-0.409-0.461-0.591-0.677c-7.634,3.928-15.495,7.343-23.411,10.351v75.47
				C433.685,222.514,441.674,221.094,449.163,219.606L449.163,219.606z"/>
			<path style="fill-rule:evenodd;clip-rule:evenodd;fill:#FFFFFF;" d="M425.161,312.473v317.299
				c8.179-4.443,16.194-9.324,24.002-14.577V308.449C441.637,309.874,433.622,311.218,425.161,312.473L425.161,312.473z"/>
			<path style="fill-rule:evenodd;clip-rule:evenodd;fill:#FFFFFF;" d="M377.168,229.534v-67.62
				c-8.342,1.659-16.422,2.976-24.001,3.976v65.342C361.473,230.759,369.479,230.193,377.168,229.534L377.168,229.534z"/>
			<path style="fill-rule:evenodd;clip-rule:evenodd;fill:#FFFFFF;" d="M297.819,232.775c2.499,0,4.894-0.039,7.348-0.057v-63.452
				c-3.694,0.016-6.252-0.038-7.348-0.073c-1.854,0.057-7.845,0.175-16.653-0.111v63.56
				C286.605,232.729,292.153,232.775,297.819,232.775L297.819,232.775z"/>
			<path style="fill-rule:evenodd;clip-rule:evenodd;fill:#FFFFFF;" d="M233.168,230.664v-66.116
				c-7.688-1.207-15.745-2.71-24.001-4.594v68.755C216.824,229.455,224.857,230.1,233.168,230.664L233.168,230.664z"/>
			<path style="fill-rule:evenodd;clip-rule:evenodd;fill:#FFFFFF;" d="M137.168,306.605v302.037
				c7.771,5.689,15.797,10.961,24.002,15.813V311.021C152.673,309.631,144.661,308.154,137.168,306.605L137.168,306.605z"/>
			<path style="fill-rule:evenodd;clip-rule:evenodd;fill:#FFFFFF;" d="M161.17,222.33v-77.713c-4.755-2.036-9.472-4.217-14.102-6.6
				c-2.856,3.313-6.184,7.002-9.899,10.887v68.766C144.616,219.293,152.586,220.86,161.17,222.33L161.17,222.33z"/>
			<path style="fill-rule:evenodd;clip-rule:evenodd;fill:#FFFFFF;" d="M89.168,204.302v-16.421
				c-5.891,3.457-12.03,6.573-18.369,9.181C75.732,199.245,81.839,201.712,89.168,204.302L89.168,204.302z"/>
			<path style="fill-rule:evenodd;clip-rule:evenodd;fill:#FFFFFF;" d="M65.17,285.1v245.431
				c7.025,11.896,15.12,23.083,23.999,33.59v-270.09C79.685,290.926,71.715,287.885,65.17,285.1L65.17,285.1z"/>
			<path style="fill-rule:evenodd;clip-rule:evenodd;fill:#FFFFFF;" d="M377.168,384.77v-66.812
				c-7.689,0.634-15.732,1.156-24.001,1.608v42.489C362.219,368.389,370.306,376.054,377.168,384.77L377.168,384.77z"/>
			<path style="fill-rule:evenodd;clip-rule:evenodd;fill:#FFFFFF;" d="M353.167,550.189V661.47
				c7.216-3.153,15.259-6.552,24.001-10.169V527.469C370.306,536.185,362.219,543.845,353.167,550.189L353.167,550.189z"/>
			<path style="fill-rule:evenodd;clip-rule:evenodd;fill:#FFFFFF;" d="M305.167,343.188v-22.192
				c-2.459,0.018-4.849,0.059-7.348,0.059c-5.664,0-11.207-0.046-16.653-0.132v21.588c2.938-0.236,5.898-0.391,8.897-0.391
				C295.189,342.12,300.223,342.502,305.167,343.188L305.167,343.188z"/>
			<path style="fill-rule:evenodd;clip-rule:evenodd;fill:#FFFFFF;" d="M281.166,569.728v109.809
				c6.829,3.499,12.294,6.543,16.653,9.188c2.158-1.31,4.621-2.727,7.348-4.244V569.046c-4.944,0.691-9.978,1.073-15.104,1.073
				C287.064,570.12,284.104,569.964,281.166,569.728L281.166,569.728z"/>
			<path style="fill-rule:evenodd;clip-rule:evenodd;fill:#FFFFFF;" d="M209.167,534.694v112.781
				c8.713,3.544,16.676,6.861,24.001,9.987V554.224C224.301,548.854,216.233,542.265,209.167,534.694L209.167,534.694z"/>
			<path style="fill-rule:evenodd;clip-rule:evenodd;fill:#FFFFFF;" d="M233.168,358.019v-38.978
				c-8.334-0.543-16.286-1.2-24.001-1.924v60.428C216.233,369.97,224.301,363.385,233.168,358.019L233.168,358.019z"/>
			<path style="fill-rule:evenodd;clip-rule:evenodd;fill:#FFFFFF;" d="M332.301,508.384c9.016-12.559,34.216-55.869-2.153-106.938
				c-4.69,1.426-9.434,2.553-14.22,3.435c22.898,43.022,9.349,80.502-0.851,99.096C321.232,505.176,326.993,506.686,332.301,508.384
				L332.301,508.384z"/>
			<path style="fill-rule:evenodd;clip-rule:evenodd;fill:#FFFFFF;" d="M278.254,392.208c25.327,2.972,49.54-1.99,72.178-14.623
				c-16.64-13.422-37.58-21.506-60.369-21.506c-22.513,0-43.21,7.907-59.754,21.038
				C240.661,382.561,257.626,389.791,278.254,392.208L278.254,392.208z"/>
			<path style="fill-rule:evenodd;clip-rule:evenodd;fill:#FFFFFF;" d="M361.073,387.573c-5.707,3.413-11.514,6.412-17.412,8.929
				c35.379,52.696,13.423,98.988,1.99,116.836c7.479,3.172,13.459,6.38,17.631,8.844c15.221-17.641,24.537-40.732,24.537-66.061
				C387.819,429.585,377.605,405.499,361.073,387.573L361.073,387.573z"/>
			<path style="fill-rule:evenodd;clip-rule:evenodd;fill:#FFFFFF;" d="M302.85,516.155c-26.586-3.117-51.946,2.499-75.54,16.567
				c16.996,14.604,38.875,23.437,62.753,23.437c24.005,0,45.992-8.941,63.022-23.683
				C343.062,526.952,325.076,518.763,302.85,516.155L302.85,516.155z"/>
			<path style="fill-rule:evenodd;clip-rule:evenodd;fill:#FFFFFF;" d="M280.952,406.484c-10.351,16.322-26.262,52.526-0.804,95.129
				c6.586-0.417,13.259-0.317,20.002,0.265c10.356-16.322,26.262-52.521,0.805-95.125
				C294.371,407.171,287.698,407.066,280.952,406.484L280.952,406.484z"/>
			<path style="fill-rule:evenodd;clip-rule:evenodd;fill:#FFFFFF;" d="M237.435,511.866
				c-35.374-52.701-13.414-98.988-1.981-116.836c-6.587-2.794-11.942-5.598-15.997-7.915c-16.776,17.971-27.152,42.25-27.152,69.007
				c0,25.491,9.444,48.711,24.839,66.395C223.779,518.354,230.547,514.801,237.435,511.866L237.435,511.866z"/>
			<path style="fill-rule:evenodd;clip-rule:evenodd;fill:#FFFFFF;" d="M248.806,399.978c-9.016,12.559-34.213,55.87,2.147,106.944
				c4.689-1.427,9.435-2.553,14.224-3.435c-22.895-43.022-9.349-80.503,0.848-99.101
				C259.873,403.191,254.112,401.678,248.806,399.978L248.806,399.978z"/>
			<path style="fill-rule:evenodd;clip-rule:evenodd;" d="M126.59,262.667c0.552,14.095-6.945,17.169-18.853,12.096
				c-4.232-1.808-9.631-2.708-13.331-9.458c-2.179-4.035-2.635-11.249-2.472-16.072l-0.02-19.257l10.578,3.578l-0.078,17.21
				c-0.225,6.812,1.354,12.235,5.728,14.028c6.557,2.694,8.731,0.636,8.654-5.571l-0.023-20.873l8.984,3.112L126.59,262.667
				L126.59,262.667z"/>
			<path style="fill-rule:evenodd;clip-rule:evenodd;" d="M201.393,261.665l0.134,0.009l5.01,16.058l-11.11-1.004L201.393,261.665
				L201.393,261.665z M193.097,282.642l15.686,1.665l2.32,7.488l10.137,1.277l-13.486-41.062l-10.748-1.204l-16.181,37.347
				l9.551,1.05L193.097,282.642L193.097,282.642z"/>
			<path style="fill-rule:evenodd;clip-rule:evenodd;" d="M289.949,280.079l11.222,0.062c3.164,0.018,6.326,1.377,6.299,4.894
				c-0.018,4.076-2.499,5.85-6.78,5.825l-10.809-0.061L289.949,280.079L289.949,280.079z M281.382,297.676l17.854,0.1
				c8.625,0.047,10.934-1.336,13.351-3.556c2.245-2.052,3.672-5.06,3.69-8.243c0.028-3.964-1.299-7.879-6.452-9.751
				c1.764-0.827,5.18-2.427,5.217-8.179c0.027-4.13-2.581-10.287-12.915-10.347l-20.492-0.113L281.382,297.676L281.382,297.676z
				 M290.045,264.557l10.1,0.056c3.99,0.023,6.452,1.041,6.435,4.335c-0.018,3.183-2.79,4.451-6.253,4.433l-10.337-0.06
				L290.045,264.557L290.045,264.557z"/>
			<polygon style="fill-rule:evenodd;clip-rule:evenodd;" points="393.773,292.15 383.13,292.74 382.63,254.713 409.421,252.027 
				409.647,259.07 393.254,260.89 393.354,268.858 405.595,267.845 405.713,274.76 393.472,275.692 393.773,292.15 			"/>
			<path style="fill-rule:evenodd;clip-rule:evenodd;" d="M493.165,247.981c-0.644-2.299-4.179-4.831-9.478-3.726
				c-4.226,0.881-8.751,3.821-9.242,12.936c-0.29,5.422,1.564,11.01,8.916,10.474c4.971-0.363,8.278-5.189,9.97-8.597l9.614-0.89
				c-3.172,10.214-9.451,17.366-20.838,17.948c-10.888,0.564-18.085-5.516-17.676-18.117c0.417-12.905,8.688-20.407,19.502-22.188
				c13.413-2.21,18.702,4.926,18.921,10.928L493.165,247.981L493.165,247.981z"/>
		</g>
	</g>
</g>
</svg>
