<svg xmlns="http://www.w3.org/2000/svg" viewBox="0 0 111.89 175.75"><defs><style>.cls-1{fill:#004a8f;}.cls-1,.cls-2,.cls-3,.cls-4{fill-rule:evenodd;}.cls-2{fill:#ffde17;}.cls-3{fill:#00a651;}.cls-4{fill:#fff;}</style></defs><title>clube_logo</title><g id="Layer_2" data-name="Layer 2"><g id="Layer_1-2" data-name="Layer 1"><path class="cls-1" d="M27.44,37.11l0,0,0,0C21,44.37,11.92,50.46,1.07,54.75L0,55.16.83,56A32.43,32.43,0,0,1,11.17,79.64v35.61c.93,13.72,11.13,26.06,27.31,33a45.6,45.6,0,0,1,16.92,11.8l.55.63.56-.63a45.6,45.6,0,0,1,16.92-11.8c16.17-7,26.38-19.3,27.29-33V79.64A32.41,32.41,0,0,1,111.08,56l.81-.79-1-.41c-10.86-4.29-20-10.38-26.36-17.6l0,0,0,0A41.34,41.34,0,0,0,56,25.45,41.37,41.37,0,0,0,27.44,37.11Z"/><path class="cls-2" d="M56,26.89A39.88,39.88,0,0,1,83.44,38.16c6.34,7.14,15.26,13.17,25.86,17.5a33.75,33.75,0,0,0-10,24v35.53c-.89,13.17-10.75,25-26.41,31.77A47.2,47.2,0,0,0,56,158.55,47.24,47.24,0,0,0,39,146.94c-15.64-6.74-25.51-18.6-26.42-31.77V79.64a33.72,33.72,0,0,0-10-24c10.58-4.33,19.51-10.36,25.84-17.5A39.92,39.92,0,0,1,56,26.89Zm-12.14,8.5v25H68.07v-25a36.24,36.24,0,0,1,8.74,5.08c2.34,1.9,4.25,4.15,6.45,6.19A76,76,0,0,0,99.65,58a39.12,39.12,0,0,0-6.29,18.19H83.85V100.4h9.33v14.49a26,26,0,0,1-5,13.07,41.33,41.33,0,0,1-11.66,10.3c-2.73,1.58-5.58,2.83-8.41,4.15V116.16H43.81v26.23l-1.7-.77-1.91-.85c-8.39-4-15.68-9.69-19.6-18.31a25.8,25.8,0,0,1-1.88-7.57V100.4H28V76.14H18.55A39.6,39.6,0,0,0,12.26,58,71.19,71.19,0,0,0,32.84,42.41a34.65,34.65,0,0,1,11-7Z"/><path class="cls-3" d="M78.83,175.43V162.82h2.63v10.3h6.21v2.31Zm-2.45-12.61v12.61H73.75V162.82Zm-14.75,8.72h2.51a3.77,3.77,0,0,0,.43,1.26,2.64,2.64,0,0,0,2.2.85,6.6,6.6,0,0,0,1.58-.22A1.44,1.44,0,0,0,69.4,172a.92.92,0,0,0-.52-.95,4.57,4.57,0,0,0-1.68-.63l-1.38-.32a9.4,9.4,0,0,1-2.73-.95,3.12,3.12,0,0,1-1.25-2.72c0-2.32,1.69-4,4.83-4,2.63,0,4.82,1.49,4.94,4.21H69a1.67,1.67,0,0,0-1-1.68,3.5,3.5,0,0,0-1.58-.31c-1.36,0-2.19.63-2.19,1.56a1.15,1.15,0,0,0,.63,1.07,12.14,12.14,0,0,0,1.56.51l2.22.53a7.47,7.47,0,0,1,2.21.83A3.32,3.32,0,0,1,72,171.75c0,2.32-1.9,4-5.14,4s-5.26-1.58-5.26-4.21Zm-13,3.89,4.53-12.61h3l4.41,12.61H57.77l-.83-2.63H52.32l-1,2.63Zm6-9.77-1.58,5.05h3.16l-1.58-5.05Zm-11.51-2.84c1.78,0,2.61.43,3.24,1.16a3.77,3.77,0,0,1,1,2.42,3.22,3.22,0,0,1-2,3c1.16.42,1.58,1.17,1.58,2.95v.83c0,.53.1.95.1,1.16s.21.64.53.74v.31h-3c-.09-.31-.09-.51-.21-.63,0-.42-.1-.73-.1-1.15v-1.16c0-1.57-.42-2-2-2H39.54v4.94H36.91V162.82ZM42.59,165H39.54v3.36h3a3.93,3.93,0,0,0,1.36-.21,1.71,1.71,0,0,0,0-2.93c-.21-.22-.73-.22-1.26-.22Zm-12.76,4.81H26.77v3.36h3.06a2.52,2.52,0,0,0,1.33-.2,1.56,1.56,0,0,0,.83-1.58,1.25,1.25,0,0,0-.83-1.31,2.54,2.54,0,0,0-1.33-.27Zm.58-7a3.93,3.93,0,0,1,3.26,1.32,3.39,3.39,0,0,1,.55,2,2.88,2.88,0,0,1-.55,1.86,4,4,0,0,1-1,.65,3,3,0,0,1,2,3,4,4,0,0,1-.55,2.05,3,3,0,0,1-.83.95,5.29,5.29,0,0,1-3.29.83H24.24V162.82ZM29.56,165H26.77v2.81h3.06c1.13,0,1.88-.38,1.88-1.4,0-.66-.17-1-.65-1.23a8.33,8.33,0,0,0-1.5-.18Z"/><polygon class="cls-3" points="35.49 19 38.02 26.79 31.4 21.99 24.77 26.79 27.3 19 20.68 14.2 28.87 14.2 31.4 6.41 33.93 14.2 42.11 14.2 35.49 19 35.49 19"/><polygon class="cls-3" points="76.42 19 73.89 26.79 80.51 21.99 87.13 26.79 84.6 19 91.22 14.2 83.04 14.2 80.51 6.41 77.98 14.2 69.79 14.2 76.42 19 76.42 19"/><polygon class="cls-3" points="96.31 34.82 93.78 42.61 100.4 37.78 107.02 42.61 104.49 34.82 111.11 30.01 102.93 30.01 100.4 22.22 97.87 30.01 89.68 30.01 96.31 34.82 96.31 34.82"/><polygon class="cls-3" points="15.6 34.82 18.13 42.61 11.51 37.78 4.88 42.61 7.41 34.82 0.79 30.01 8.98 30.01 11.51 22.22 14.04 30.01 22.22 30.01 15.6 34.82 15.6 34.82"/><polygon class="cls-3" points="60.05 12.59 62.58 20.38 55.95 15.58 49.33 20.38 51.86 12.59 45.24 7.79 53.42 7.79 55.95 0 58.48 7.79 66.67 7.79 60.05 12.59 60.05 12.59"/><path class="cls-3" d="M49.51,33.69V81.81H18.7l0,12.89H49.51v50.74A50.9,50.9,0,0,1,56,150.07a49.61,49.61,0,0,1,6.45-4.63V94.7H93.18V81.81H62.4V33.67A34.12,34.12,0,0,0,55.14,33a37,37,0,0,0-5.63.69Z"/><polygon class="cls-4" points="82.82 68.37 72.92 78.63 65.58 78.63 65.58 71.3 75.84 61.39 75.84 59.57 36.06 59.57 36.06 61.39 46.3 71.3 46.3 78.63 38.99 78.63 29.08 68.37 27.27 68.37 27.27 108.15 29.08 108.15 38.99 97.89 46.3 97.89 46.3 105.22 36.06 115.13 36.06 116.95 75.84 116.95 75.84 115.13 65.58 105.22 65.58 97.89 72.92 97.89 82.82 108.15 84.64 108.15 84.64 68.37 82.82 68.37 82.82 68.37"/><path class="cls-1" d="M36.32,88.26a8.13,8.13,0,0,1,2-5.67,6.06,6.06,0,0,1,4.43-1.78A5.88,5.88,0,0,1,48,83.22a5.13,5.13,0,0,1,1,2.63H46.11a3.84,3.84,0,0,0-.85-1.58,2.8,2.8,0,0,0-2.32-1c-2.19,0-3.58,1.89-3.58,5.06s1.49,4.72,3.58,4.72a2.8,2.8,0,0,0,2.32-.95,5.14,5.14,0,0,0,.85-1.68H49a6,6,0,0,1-6.09,5.26,6,6,0,0,1-4.82-2,8.16,8.16,0,0,1-1.8-5.48ZM57.63,89H54.17v3.8h3.46a2.77,2.77,0,0,0,1.47-.22,1.74,1.74,0,0,0,.95-1.78,1.42,1.42,0,0,0-.95-1.48A2.86,2.86,0,0,0,57.63,89Zm.64-7.87a4.41,4.41,0,0,1,3.67,1.47,3.88,3.88,0,0,1,.64,2.21,3.35,3.35,0,0,1-.64,2.1,5,5,0,0,1-1.16.73A3.33,3.33,0,0,1,63,91a4.55,4.55,0,0,1-.63,2.31,2.8,2.8,0,0,1-1,1,5.73,5.73,0,0,1-3.68,1h-6.4V81.12Zm-1,2.41H54.17V86.7h3.46c1.27,0,2.1-.44,2.1-1.58,0-.74-.2-1.17-.73-1.37a7.34,7.34,0,0,0-1.68-.22ZM65.48,95.3V81.12H75.57v2.51H68.43V86.9h6.31v2.41H68.43v6Z"/></g></g></svg>