<svg xmlns="http://www.w3.org/2000/svg" viewBox="0 0 54.12 53.44"><defs><style>.cls-1{fill:#fff;stroke:#000;stroke-width:0.15px;fill-rule:evenodd;}</style></defs><title>logoW</title><g id="Layer_2" data-name="Layer 2"><g id="svg1368"><g id="Layer1003"><path id="path1042" class="cls-1" d="M31.68.83l-1.4,1-.53,2.32L32,5.41l1.74-1.23A3.69,3.69,0,0,0,31.68.83Z"/><path id="path1044" class="cls-1" d="M27.76.74l-.28.1c-1.5.62-2,2-2.67,3.31-1-.27-2-.55-3.06-.8l-.48.83L25.54,5l4.21-.79-.28-2.46Z"/><path id="path1046" class="cls-1" d="M15.18,4.18l2.51,1,3.58-1-.6-1C19.55,3,16.75,4,15.18,4.18Z"/><path id="path1048" class="cls-1" d="M24.45,40.87A4.16,4.16,0,0,0,24.89,42l.62-1.08-.7-.4Z"/><path id="path1050" class="cls-1" d="M44.47,35.64v1.74a2.86,2.86,0,0,0,.82.84,1.13,1.13,0,0,0,.92,0,5.52,5.52,0,0,0,3.7.89l.46-2.79-3.68-2.79Z"/><path id="path1052" class="cls-1" d="M26.5,36.21l-1,4.66,3.83,1.33,1.07-1.33L28.33,36Z"/><path id="path1054" class="cls-1" d="M23.39,37.2l.78-2.3-2.9-1.37-.65,1.13a6.88,6.88,0,0,1,2.95,2.94,28.69,28.69,0,0,1,.88,3.27h1.06l-.36-2.11Z"/><path id="path1056" class="cls-1" d="M12.65,11.52,10.55,15l.13.24,2.12,3.67,2.12-3.67,2.43-3.8-2.92-.75Z"/><path id="path1058" class="cls-1" d="M21.31,18.53l0,.33h2.87c-.79-.15-1.66-.3-2.61-.44Z"/><path id="path1060" class="cls-1" d="M25.59,10.88l-1.77,1.74,0,1.79q3.22,2.13,5.15,3.14l-.85-2.88Z"/><path id="path1062" class="cls-1" d="M19,18.05h0Z"/><path id="path1064" class="cls-1" d="M19,18.05h0A10.84,10.84,0,0,0,20.19,17l-.35-3.13L17,11.52l-3.39,2.4-.85,4.94,4.31,1.47,4.16-1.47,0-.33-.33-.2-2-.28Z"/><path id="path1066" class="cls-1" d="M49.1,29.36l-2,1.05-.44,3.12,4,1.3L54,33.53A5,5,0,0,0,49.1,29.36Z"/><path id="path1068" class="cls-1" d="M44.47,32.87l-2.89-2.58-1-.83-1.84.44-.3,3.26.81.37,4,1.13,3.45-1.13L47,31.25l-1.7-.12a5.87,5.87,0,0,0-.84,1.74Z"/><path id="path1070" class="cls-1" d="M34,26.19l-1.62,1.17,0,1.7a14,14,0,0,0,1.54,1.43,10.58,10.58,0,0,0,2.88,2l1.12.45-1.28-3.63Z"/><path id="path1072" class="cls-1" d="M25.79,26.68l.1-.29-.38-.2-.36.18.13.23Z"/><path id="path1074" class="cls-1" d="M23.9,29l-1.43.81-1.2,3.74,4.17,1.58,2-1.58a4.75,4.75,0,0,0-1-2Z"/><path id="path1076" class="cls-1" d="M17,26.19l-2.12,3.67-.54.93q2.32,1.5,4.36,2.74h2.53l-.57-4.7Z"/><path id="path1078" class="cls-1" d="M21.27,18.86l.26-.44L21,18.33Z"/><path id="path1080" class="cls-1" d="M17,11.52l2.12,3.67,1,1.79q1.08-1,3.07-3l.58.38,1.67-2.89-4.37-.79Z"/><path id="path1082" class="cls-1" d="M31.62,22.11l-.95-.36-2-1.05-2.29,1.48-.88,4,4.85.55L34,26.19l-1-2.71Z"/><path id="path1084" class="cls-1" d="M21.27,18.86l-3.21,2.5-1,4.83h4.08l-.33-.33,2.06.33h2.66L25,21.77Z"/><path id="path1086" class="cls-1" d="M12.8,18.86,9.65,21.5l-.58,3.82a5.86,5.86,0,0,0,.43.87H17l-1.3-5.31Z"/><path id="path1088" class="cls-1" d="M44.29,14.69a4,4,0,0,0-.86.05c-.14.08-.31,0-.51-.2s0-.17.31-.31.34-.31.2-.51-.37-.17-.93-.11a1.61,1.61,0,0,0-.92.42l-1,.76-1.09,1-.81,2.3c.21,0,.39,0,.55,0,1,.06,1.71.09,2.27.09a2.28,2.28,0,0,0,2.78-1.33,7.39,7.39,0,0,0,.48-1.32l-.06-.5Z"/><path id="path1090" class="cls-1" d="M35.15,15.27,32.31,15l-.2-.2-1.41.87-.53,2.49a5.5,5.5,0,0,0,1,.33c3,.43,3.8.11,6.64-.28L38,16.34l-1.76-.94-1.07-.13Z"/><path id="path1092" class="cls-1" d="M29.75,4.18,26.05,7l-.54,4.56,1.66.85,1.71-.85-1-1c.62.48,1.07.62,1.33.42a17.87,17.87,0,0,1,1.45-1.23c.41.14.7.43.84.23A10.36,10.36,0,0,1,32,8.14l-.51-2.62Z"/><path id="path1094" class="cls-1" d="M21.27,4.18l-3.21,3-1,4.32h8.47L24,7.4Z"/><path id="path1096" class="cls-1" d="M13,4.47l-.36,0L10.1,7.27,9.51,9.88c.91-.57,1.59-1,2-1.32A8.67,8.67,0,0,1,14.2,9l-1.55,2.54H17L16,7.51Z"/><path id="path1098" class="cls-1" d="M4.62,10.42A11.13,11.13,0,0,0,3,11.52l1.4.82,2.43-.82A2.22,2.22,0,0,0,7,11.25l1.11-.56.54-2.23L6.75,8.38A9.35,9.35,0,0,1,4.62,10.42Z"/><path id="path1100" class="cls-1" d="M27.76.74l2,3.44L31.68.83A5.74,5.74,0,0,0,27.76.74Z"/><path id="path1102" class="cls-1" d="M44.29,14.69l.28.5.18.3C44.84,15.05,44.82,14.75,44.29,14.69Z"/><path id="path1104" class="cls-1" d="M38.7,15.57a21,21,0,0,1-2.48-.17l1.6,2.77c.32-.05.61-.08.85-.1l1.67-2.88.23-.4-.23.17A4.17,4.17,0,0,1,38.7,15.57Z"/><path id="path1106" class="cls-1" d="M34.86,24.67l-1,.17.1,1.35,1.51.64,1.09-.64-1.27-1Z"/><path id="path1108" class="cls-1" d="M31.62,22.11l.24.41L34,26.19l.88-1.52c-.69-.77-1.27-1.43-1.71-2Z"/><path id="path1110" class="cls-1" d="M33.74,4.18h-4l2.11,3.67.17.29c1.26-1.26,1.85-1.21,1.73-3.48C33.76,4.49,33.75,4.33,33.74,4.18Z"/><path id="path1112" class="cls-1" d="M25.51,11.52l2.12,3.67L29,17.55c.45.24.84.42,1.18.57l1.69-2.93.25-.43-3.23-3.24Z"/><path id="path1114" class="cls-1" d="M24.14,18.86l-1.91-.18-1,.18,4.24,7.33,3.17-5.49a29.36,29.36,0,0,0-3.47-1.64l-1.07-.2Z"/><path id="path1116" class="cls-1" d="M21.27,4.18l2.12,3.67,2.12,3.67,2.12-3.67,2.12-3.67Z"/><path id="path1118" class="cls-1" d="M12.8,18.86l2.12,3.66L17,26.19l2.12-3.67,2.11-3.66Z"/><path id="path1120" class="cls-1" d="M20.74,2.35,21.54,1a17.84,17.84,0,0,0-1.8-.35Z"/><path id="path1122" class="cls-1" d="M15.18,4.18,13,4.47l1.95,3.38L17,11.52l2.12-3.67,2.11-3.67Z"/><path id="path1124" class="cls-1" d="M8.64,20.41a8.79,8.79,0,0,0,.43,4.91l1.61-2.8,2.12-3.66H9c-.13.53-.23,1.05-.31,1.55Z"/><path id="path1126" class="cls-1" d="M7.91,7c-.42.51-.81,1-1.16,1.36l1.34,2.31c.49-.26.85-.45,1.05-.58l.37-.23,1.17-2,1.93-3.34A5.82,5.82,0,0,0,10,5.38,13.46,13.46,0,0,0,7.91,7Z"/><path id="path1128" class="cls-1" d="M3,11.52c-.06.06-.08.1-.08.13-.22.36-.25.62-.11.84,1.19,1.55,2.8.58,4-1Z"/><path id="path1130" class="cls-1" d="M53,37.23a5.45,5.45,0,0,0,.66-1.14l-.64,1.11Z"/><path id="path1132" class="cls-1" d="M50.93,33.53H46.69l2.12,3.67,1.1,1.91a4.63,4.63,0,0,0,2.54-1.25,4.86,4.86,0,0,0,.58-.63l0,0,.64-1.11A5.07,5.07,0,0,0,54,34.42c0-.08,0-.15,0-.22v-.08a5.65,5.65,0,0,0,0-.59Z"/><path id="path1134" class="cls-1" d="M39.46,50.35l.88,1.52.06.11a.75.75,0,0,0,.05-.68,1.66,1.66,0,0,0-1-.95Z"/><path id="path1136" class="cls-1" d="M45.31,31.13l1.38,2.4,2.12-3.67.29-.5A4.39,4.39,0,0,0,45.31,31.13Z"/><path id="path1138" class="cls-1" d="M39.24,33.53a26.41,26.41,0,0,1,3.88,2.21A4,4,0,0,1,44.27,37a1.9,1.9,0,0,0,.2.34l.1-.18,2.12-3.67Z"/><path id="path1140" class="cls-1" d="M39.46,50.35a3.94,3.94,0,0,0-.55-.18c-.57-.15-1.08-.32-1.54-.49L36.1,51.87l-.29.5h0a22.71,22.71,0,0,0,2.43.15c1.15,0,1.85-.18,2.11-.55l-.06-.11Z"/><path id="path1142" class="cls-1" d="M34.75,48.21h-5l2.11,3.66.26.45a14.32,14.32,0,0,0,2-.1c.14,0,.7.05,1.65.15l.29-.5,1.27-2.19a8.63,8.63,0,0,1-1.55-.75A11.8,11.8,0,0,1,34.75,48.21Z"/><path id="path1144" class="cls-1" d="M34,26.19l2.12,3.67,1.76,3,.57.25,1.91-3.3.23-.4-4-3.27Z"/><path id="path1146" class="cls-1" d="M32.22,45.12l-.29-.69-.07.11-2.11,3.67h5q-.53-.39-1.2-.93a6.29,6.29,0,0,1-1.33-2.16Z"/><path id="path1148" class="cls-1" d="M29.75,40.87H25.51l2.12,3.67,2.12,3.67,2.11-3.67.07-.11-1.52-3.56Z"/><path id="path1150" class="cls-1" d="M29.75,48.21l.31,1.13c.26,1,.48,1.89.61,2.57.2.25.69.38,1.45.41l-.26-.45Z"/><path id="path1152" class="cls-1" d="M25.51,26.19l.28.49,2.41.42a5,5,0,0,1,3.19,1l.93.93L34,26.19Z"/><path id="path1154" class="cls-1" d="M27.48,33.58l0,0H21.27l2.12,3.67,2.12,3.67,2.12-3.67.7-1.21-.24-.55a9.62,9.62,0,0,1-.61-1.86Z"/><path id="path1156" class="cls-1" d="M24.89,42a12.7,12.7,0,0,0,1.77,2.35c1.16,1.33,2,2.56,3.09,3.91l-4.24-7.34Z"/><path id="path1158" class="cls-1" d="M25.28,26.6l.23-.41H22.85Z"/><path id="path1160" class="cls-1" d="M17,26.19l2.12,3.67,2.11,3.67,2.12-3.67L23.9,29l-2.78-2.79Z"/><path id="path1162" class="cls-1" d="M13.08,31.28l2.65-4.6H8.19Z"/><path id="path1164" class="cls-1" d="M12.83,25.56h.81L13,24.5C13,24.84,12.9,25.19,12.83,25.56Z"/><path id="path1166" class="cls-1" d="M4,17.45l.76-1.31H2.3A5.87,5.87,0,0,0,4,17.45Z"/><path id="path1168" class="cls-1" d="M8.55,12.42h3l-1.5-2.6c-.52.86-1,1.73-1.53,2.6Z"/><path id="path1170" class="cls-1" d="M1.37,25H3.63L1.26,20.85Z"/><path id="path1172" class="cls-1" d="M14.53,2.26,15.38.78c-.47,0-1,.13-1.58.21Z"/><path id="path1174" class="cls-1" d="M44.89,30.18l0,0L47,26.48H43.75A30.07,30.07,0,0,0,44.89,30.18Z"/><path id="path1176" class="cls-1" d="M46.92,28.18h3.35l-1.35-2.34Z"/><path id="path1178" class="cls-1" d="M5.66,21.94H7.53L5.31,18.1A29.45,29.45,0,0,0,5.66,21.94Z"/><path id="path1180" class="cls-1" d="M38.94,25.44l1.78-3.08H38.37c.15,1,.34,2,.57,3.08Z"/><path id="path1182" class="cls-1" d="M2.45,30.23l-.88,1.26L.69,32.75l1.89.38,1.88.38-1-1.64Z"/><path id="path1184" class="cls-1" d="M1.46,12.14l-.66,1-.67,1,1.43.29L3,14.63l-.77-1.24Z"/><path id="path1186" class="cls-1" d="M2.41,5.69,1.65,6.78.89,7.87l1.63.32,1.63.33L3.28,7.11Z"/><path id="path1188" class="cls-1" d="M24.19,51.22l1.66,1.05,1.65,1,.37-2.42.37-2.41-2,1.37Z"/><path id="path1190" class="cls-1" d="M45.24,24.15l2.18,1.45-.35-2.83Z"/><path id="path1192" class="cls-1" d="M16.87,2.37c1,.15,1.93.27,2.76.36L18.14.15Z"/><path id="path1194" class="cls-1" d="M19.63,49.17l.26,1.7.27,1.7,1.16-.73,1.16-.74-1.42-1Z"/><path id="path1196" class="cls-1" d="M13.7,34c.73-.11,1.48-.25,2.24-.42L13.7,32.28Z"/><path id="path1198" class="cls-1" d="M21.43,38c0,.08.05.16.07.24l1.06-.38L20.9,36.46C21.08,37,21.26,37.51,21.43,38Z"/><path id="path1200" class="cls-1" d="M23,44.46l.63.63.63.64.41-1,.41-1-1,.4Z"/><path id="path1202" class="cls-1" d="M52.31,27.35c0,.08,0,.16.08.24l1-.38-1.65-1.4C52,26.34,52.14,26.85,52.31,27.35Z"/></g></g></g></svg>