<svg xmlns="http://www.w3.org/2000/svg" viewBox="0 0 117.52 115.86"><defs><style>.cls-1{fill:#0eae68;}.cls-1,.cls-10,.cls-11,.cls-12,.cls-13,.cls-14,.cls-15,.cls-16,.cls-2,.cls-3,.cls-4,.cls-5,.cls-6,.cls-7,.cls-8,.cls-9{fill-rule:evenodd;}.cls-2{fill:#caa300;}.cls-3{fill:#c69000;}.cls-4{fill:#48466d;}.cls-5{fill:#753c69;}.cls-6{fill:#c15200;}.cls-7{fill:#ad2129;}.cls-8{fill:#185777;}.cls-9{fill:#00cc97;}.cls-10{fill:#9f1853;}.cls-11{fill:#147e77;}.cls-12{fill:#c16700;}.cls-13{fill:#98eb0d;}.cls-14{fill:#c42400;}.cls-15{fill:#b3f618;}.cls-16{fill:#d6ca00;}</style></defs><title>Asset 2</title><g id="Layer_2" data-name="Layer 2"><g id="svg1368"><g id="Layer1001"><path id="path716" class="cls-1" d="M68.77,1.49,65.71,3.72,64.56,8.78l4.9,2.69,3.79-2.69Q72.77,3.28,68.77,1.49Z"/><path id="path718" class="cls-1" d="M60.22,1.28l-.61.22c-3.27,1.34-4.29,4.43-5.82,7.21C51.57,8.13,49.35,7.52,47.13,7l-1,1.8L55.4,10.5l9.16-1.72L64,3.43Z"/><path id="path720" class="cls-1" d="M32.81,8.78,38.27,11l7.82-2.24L44.78,6.52C42.34,6.2,36.23,8.36,32.81,8.78Z"/><path id="path722" class="cls-2" d="M53,88.75a9.25,9.25,0,0,0,1,2.35l1.36-2.35-1.53-.86Z"/><path id="path724" class="cls-3" d="M96.65,77.35v3.8A6.15,6.15,0,0,0,98.42,83a2.31,2.31,0,0,0,2,0,9.94,9.94,0,0,0,6.06,2,10.28,10.28,0,0,0,2-.08l1-6.08-8-6.08Z"/><path id="path726" class="cls-3" d="M57.47,78.58,55.32,88.75l8.34,2.91L66,88.75,61.47,78.1Z"/><path id="path728" class="cls-3" d="M50.71,80.75l1.7-5-6.32-3-1.43,2.47c3.58,2.27,5.7,4.41,6.43,6.4A64.61,64.61,0,0,1,53,88.75h2.31l-.79-4.59Z"/><path id="path730" class="cls-4" d="M27.28,24.77l-4.57,7.49.29.51,4.62,8,4.62-8,5.31-8.28-6.38-1.62Z"/><path id="path732" class="cls-5" d="M46.16,40.05l-.07.72h6.24q-2.56-.48-5.69-1Z"/><path id="path734" class="cls-5" d="M55.49,23.39l-3.85,3.78,0,3.91q7,4.64,11.24,6.85l-1.86-6.28Z"/><path id="path736" class="cls-5" d="M41.05,39H41S41,39,41.05,39Z"/><path id="path738" class="cls-5" d="M41.05,39S41,39,41,39h.06a22.58,22.58,0,0,0,2.68-2.33L43,29.86l-6.12-5.09L29.47,30,27.62,40.77,37,44l9.09-3.21.07-.72-.73-.42c-1.38-.21-2.84-.41-4.38-.62Z"/><path id="path740" class="cls-6" d="M106.73,63.67,102.45,66l-1,6.8,8.79,2.84,7.15-2.84a10.77,10.77,0,0,0-10.7-9.08Z"/><path id="path742" class="cls-6" d="M96.64,71.32,90.35,65.7l-2.21-1.81-4,.94L83.49,72l1.75.8L94,75.22l7.51-2.47.7-5-3.72-.26A13.23,13.23,0,0,0,96.64,71.32Z"/><path id="path744" class="cls-6" d="M73.79,56.76l-3.53,2.53L70.18,63a34.45,34.45,0,0,0,3.33,3.11,22.78,22.78,0,0,0,6.3,4.28c.83.33,1.65.66,2.44,1l-2.8-7.92Z"/><path id="path746" class="cls-6" d="M55.94,57.83l.2-.64-.82-.43-.78.38.27.5Z"/><path id="path748" class="cls-6" d="M51.82,62.83l-3.13,1.78-2.6,8.14,9.08,3.44,4.41-3.44a10.6,10.6,0,0,0-2.22-4.36Z"/><path id="path750" class="cls-6" d="M36.85,56.76l-4.61,8-1.18,2q5.07,3.25,9.51,6h5.52L44.83,62.52Z"/><path id="path752" class="cls-4" d="M46.09,40.77l.55-1-1.21-.18Z"/><path id="path754" class="cls-4" d="M36.85,24.77l4.62,8,2.26,3.91q2.34-2.19,6.69-6.43l1.26.83,3.64-6.31-9.53-1.71Z"/><path id="path756" class="cls-7" d="M68.65,47.86l-2.07-.78q-2.4-1.29-4.34-2.3l-5,3.24-1.93,8.74L65.9,58l7.89-1.2-2.3-5.9Z"/><path id="path758" class="cls-7" d="M46.09,40.77l-7,5.45L36.85,56.76h8.91L45,56l4.48.73h5.81l-1-9.64Z"/><path id="path760" class="cls-7" d="M27.62,40.77l-6.86,5.75-1.27,8.33a16.84,16.84,0,0,0,.93,1.91H36.85L34,45.18Z"/><path id="path762" class="cls-5" d="M96.25,31.69a7.62,7.62,0,0,0-1.87.11c-.3.17-.67,0-1.11-.44-.13-.13.07-.37.68-.67s.74-.68.43-1.11c-.13-.31-.8-.37-2-.24a3.52,3.52,0,0,0-2,.91L88.14,31.9,85.77,34l-1.76,5c.46,0,.85-.06,1.18-.06,2.09.14,3.74.2,5,.2a5,5,0,0,0,6.06-2.89,16,16,0,0,0,1-2.88l-.12-1.09Z"/><path id="path764" class="cls-5" d="M76.34,32.94l-6.19-.67-.44-.43-3.08,1.9-1.15,5.42a10.64,10.64,0,0,0,2.21.72c6.6.94,8.28.23,14.47-.62l.35-4-3.83-2c-.74-.09-1.52-.18-2.34-.3Z"/><path id="path766" class="cls-8" d="M64.56,8.78,56.5,14.84l-1.18,9.93,3.62,1.87,3.74-1.87-2.16-2.16c1.35,1,2.32,1.35,2.89.91a38.38,38.38,0,0,1,3.17-2.69c.87.3,1.52,1,1.83.51.16-.62.77-3.59,1.12-3.94l-1.1-5.69Z"/><path id="path768" class="cls-8" d="M46.09,8.78l-7,6.58-2.23,9.41H55.32l-3.2-9Z"/><path id="path770" class="cls-8" d="M28,9.4l-.78.11-5.47,6-1.28,5.7c2-1.24,3.46-2.19,4.39-2.88a18.8,18.8,0,0,1,5.82.91l-3.38,5.53h9.57L34.55,16Z"/><path id="path772" class="cls-8" d="M9.79,22.37a24.53,24.53,0,0,0-3.61,2.4l3.05,1.8,5.29-1.8a6.44,6.44,0,0,0,.42-.58L17.34,23l1.19-4.86-4.09-.18c-2.32,2.64-3.86,4.11-4.65,4.44Z"/><path id="path774" class="cls-9" d="M60.22,1.28l4.34,7.5,4.21-7.29a12.44,12.44,0,0,0-8.55-.21Z"/><path id="path776" class="cls-4" d="M96.25,31.69l.62,1.08.38.66C97.46,32.46,97.41,31.81,96.25,31.69Z"/><path id="path778" class="cls-4" d="M84.08,33.62a48.18,48.18,0,0,1-5.4-.38l3.48,6c.7-.09,1.32-.16,1.85-.2l3.63-6.29.5-.87-.49.37a9.29,9.29,0,0,1-3.57,1.35Z"/><path id="path780" class="cls-7" d="M75.71,53.43l-2.15.38.23,2.95,3.28,1.38,2.38-1.38-2.77-2.27C76.34,54.13,76,53.77,75.71,53.43Z"/><path id="path782" class="cls-10" d="M68.65,47.86l.52.9,4.62,8,1.92-3.33c-1.51-1.66-2.77-3.1-3.75-4.33Z"/><path id="path784" class="cls-11" d="M73.25,8.78H64.56l4.61,8,.36.62c2.76-2.74,4-2.62,3.78-7.58,0-.36,0-.7-.06-1Z"/><path id="path786" class="cls-4" d="M55.32,24.77l4.62,8,3,5.16c1,.5,1.82.92,2.56,1.23l3.69-6.39.54-.93-7-7.07Z"/><path id="path788" class="cls-10" d="M52.33,40.77l-4.17-.38-2.07.38,9.23,16,6.92-12a64.25,64.25,0,0,0-7.58-3.56l-2.33-.45Z"/><path id="path790" class="cls-11" d="M46.09,8.78l4.62,8,4.61,8,4.62-8,4.62-8Z"/><path id="path792" class="cls-10" d="M27.62,40.77l4.62,8,4.61,8,4.62-8,4.62-8Z"/><path id="path794" class="cls-9" d="M44.93,4.8l1.74-3A36.76,36.76,0,0,0,42.75,1Z"/><path id="path796" class="cls-11" d="M32.81,8.78,28,9.4l4.26,7.38,4.61,8,4.62-8,4.62-8Z"/><path id="path798" class="cls-10" d="M18.54,44.15a19.24,19.24,0,0,0,.95,10.7L23,48.76l4.62-8H19.24c-.29,1.16-.52,2.29-.7,3.38Z"/><path id="path800" class="cls-11" d="M17,15c-.92,1.11-1.76,2.1-2.52,3l2.9,5c1.09-.56,1.86-1,2.31-1.27l.8-.49L23,16.78l4.2-7.27a12.43,12.43,0,0,0-5.73,1.89A29.7,29.7,0,0,0,17,15Z"/><path id="path802" class="cls-4" d="M6.18,24.77c-.13.13-.19.23-.19.3-.47.77-.54,1.34-.24,1.81,2.61,3.38,6.1,1.29,8.77-2.11Z"/><path id="path804" class="cls-3" d="M115.31,80.81a10.65,10.65,0,0,0,1.43-2.49l-1.4,2.43Z"/><path id="path806" class="cls-12" d="M110.72,72.75h-9.23l4.62,8,2.4,4.16A10,10,0,0,0,114,82.19a12.58,12.58,0,0,0,1.27-1.38l0-.06,1.4-2.42a11.1,11.1,0,0,0,.77-3.65c0-.15,0-.31,0-.46V74a9.11,9.11,0,0,0-.09-1.29Z"/><path id="path808" class="cls-13" d="M85.72,109.41l1.92,3.32.13.23a1.57,1.57,0,0,0,.12-1.48,3.62,3.62,0,0,0-2.17-2.07Z"/><path id="path810" class="cls-14" d="M98.47,67.53l3,5.22,4.62-8,.62-1.09Q101.27,63.69,98.47,67.53Z"/><path id="path812" class="cls-12" d="M85.24,72.75a56,56,0,0,1,8.47,4.83,8.26,8.26,0,0,1,2.49,2.83,7.6,7.6,0,0,0,.44.74l.23-.4,4.62-8Z"/><path id="path814" class="cls-15" d="M85.72,109.41a8.45,8.45,0,0,0-1.2-.39c-1.22-.34-2.34-.69-3.35-1.07l-2.76,4.78-.63,1.09h.11a49.75,49.75,0,0,0,5.28.34c2.5,0,4-.41,4.6-1.21l-.13-.23Z"/><path id="path816" class="cls-13" d="M75.46,104.74H64.56l4.61,8,.56,1a34.51,34.51,0,0,0,4.46-.21c.29,0,1.5.09,3.59.32l.63-1.09L81.17,108a18.73,18.73,0,0,1-3.38-1.62C77.2,106,76.43,105.45,75.46,104.74Z"/><path id="path818" class="cls-14" d="M73.79,56.76l4.62,8,3.84,6.65,1.24.54,4.15-7.19.5-.87-8.69-7.13Z"/><path id="path820" class="cls-16" d="M69.94,98l-.63-1.5-.14.23-4.61,8h10.9c-.76-.56-1.63-1.23-2.62-2A13.9,13.9,0,0,1,69.94,98Z"/><path id="path822" class="cls-2" d="M64.56,88.75H55.32l4.62,8,4.62,8,4.61-8,.14-.23L66,88.75Z"/><path id="path824" class="cls-15" d="M64.56,104.74l.67,2.46c.57,2.26,1,4.14,1.35,5.62.43.54,1.48.83,3.15.89l-.56-1Z"/><path id="path826" class="cls-14" d="M55.32,56.76l.62,1.07,5.25.9c3.13.17,5.46.91,6.94,2.25.76.77,1.44,1.45,2.05,2l3.61-6.26Z"/><path id="path828" class="cls-12" d="M59.61,72.87l0-.12H46.09l4.62,8,4.61,8,4.62-8,1.53-2.65L61,76.91a18.86,18.86,0,0,1-1.35-4Z"/><path id="path830" class="cls-16" d="M54,91.1a29.19,29.19,0,0,0,3.87,5.13c2.53,2.89,4.43,5.58,6.73,8.51l-9.24-16Z"/><path id="path832" class="cls-14" d="M54.81,57.64l.51-.88H49.51l5.3.88Z"/><path id="path834" class="cls-14" d="M36.85,56.76l4.62,8,4.62,8,4.62-8,1.11-1.93-6.06-6.07Z"/><path id="path836" class="cls-14" d="M28.23,67.86l5.79-10H17.58Z"/><path id="path838" class="cls-7" d="M27.68,55.39h1.78l-1.34-2.31c-.14.73-.29,1.5-.44,2.31Z"/><path id="path840" class="cls-10" d="M8.49,37.71l1.65-2.86H4.73A12.73,12.73,0,0,0,8.49,37.71Z"/><path id="path842" class="cls-8" d="M18.36,26.74H25l-3.27-5.66Q20,23.9,18.36,26.74Z"/><path id="path844" class="cls-7" d="M2.72,54.07H7.64l-5.17-9Z"/><path id="path846" class="cls-9" d="M31.38,4.6l1.87-3.22c-1,.11-2.2.26-3.46.45Z"/><path id="path848" class="cls-12" d="M97.56,65.45l0-.07,4.62-8H95.07a66.17,66.17,0,0,0,2.49,8.06Z"/><path id="path850" class="cls-3" d="M102,61.09h7.31L106.35,56Z"/><path id="path852" class="cls-10" d="M12.05,47.49h4.09L11.3,39.11A64.78,64.78,0,0,0,12.05,47.49Z"/><path id="path854" class="cls-14" d="M84.6,55.13l3.88-6.72H83.35Q83.85,51.68,84.6,55.13Z"/><path id="path856" class="cls-14" d="M5.07,65.56,3.15,68.31,1.23,71.06l4.11.83,4.11.82L7.26,69.14Z"/><path id="path858" class="cls-4" d="M2.91,26.14,1.46,28.22,0,30.3l3.12.63,3.11.62L4.57,28.84Z"/><path id="path860" class="cls-4" d="M5,12.07,3.32,14.44,1.66,16.82l3.55.71,3.55.72L6.87,15.16Z"/><path id="path862" class="cls-13" d="M52.46,111.31l3.6,2.28,3.6,2.27.8-5.26.81-5.27-4.41,3Z"/><path id="path864" class="cls-3" d="M98.33,52.31l4.75,3.15-.76-6.16Z"/><path id="path866" class="cls-9" d="M36.48,4.82c2.2.34,4.23.61,6,.8L39.27,0Z"/><path id="path868" class="cls-13" d="M42.51,106.84l.57,3.71.57,3.7,2.54-1.6,2.53-1.6-3.1-2.1Z"/><path id="path870" class="cls-14" d="M29.58,73.75c1.59-.24,3.22-.54,4.89-.91L29.58,70Z"/><path id="path872" class="cls-12" d="M46.42,82.51c.06.18.12.35.17.52l2.3-.83-3.61-3q.59,1.74,1.14,3.36Z"/><path id="path874" class="cls-16" d="M49.91,96.57,51.29,98l1.37,1.38.9-2.27.9-2.27-2.28.89Z"/><path id="path876" class="cls-12" d="M113.74,59.28c.05.18.11.35.16.52l2.3-.83-3.61-3C113,57.08,113.36,58.2,113.74,59.28Z"/></g></g></g></svg>